<svg height="512pt" viewBox="0 0 512 512" width="512pt" xmlns="http://www.w3.org/2000/svg"><g fill="#ceed5f"><path d="m128 64c0 35.347656-28.652344 64-64 64s-64-28.652344-64-64 28.652344-64 64-64 64 28.652344 64 64zm0 0"/><path d="m128 256c0 35.347656-28.652344 64-64 64s-64-28.652344-64-64 28.652344-64 64-64 64 28.652344 64 64zm0 0"/><path d="m128 448c0 35.347656-28.652344 64-64 64s-64-28.652344-64-64 28.652344-64 64-64 64 28.652344 64 64zm0 0"/><path d="m512 64c0 35.347656-28.652344 64-64 64s-64-28.652344-64-64 28.652344-64 64-64 64 28.652344 64 64zm0 0"/><path d="m320 64c0 35.347656-28.652344 64-64 64s-64-28.652344-64-64 28.652344-64 64-64 64 28.652344 64 64zm0 0"/></g><path d="m96 64c0 17.671875-14.328125 32-32 32s-32-14.328125-32-32 14.328125-32 32-32 32 14.328125 32 32zm0 0" fill="#badb31"/><path d="m96 256c0 17.671875-14.328125 32-32 32s-32-14.328125-32-32 14.328125-32 32-32 32 14.328125 32 32zm0 0" fill="#badb31"/><path d="m96 448c0 17.671875-14.328125 32-32 32s-32-14.328125-32-32 14.328125-32 32-32 32 14.328125 32 32zm0 0" fill="#badb31"/><path d="m480 64c0 17.671875-14.328125 32-32 32s-32-14.328125-32-32 14.328125-32 32-32 32 14.328125 32 32zm0 0" fill="#badb31"/><path d="m288 64c0 17.671875-14.328125 32-32 32s-32-14.328125-32-32 14.328125-32 32-32 32 14.328125 32 32zm0 0" fill="#badb31"/><path d="m456 512 56-74.671875v-177.601563l-176-48v-115.726562c0-26.507812-21.492188-48-48-48s-48 21.492188-48 48v160c-44.160156.054688-79.945312 35.839844-80 80v85.617188l72.320312 90.382812zm0 0" fill="#ffccbc"/><path d="m272 368v-317.054688c-19.109375 6.753907-31.914062 24.785157-32 45.054688v304c17.671875 0 32-14.328125 32-32zm0 0" fill="#ffab91"/><path d="m448 288h32v32h-32zm0 0" fill="#fff"/><path d="m448 352h32v32h-32zm0 0" fill="#fff"/></svg>