<svg xmlns="http://www.w3.org/2000/svg" height="512pt" version="1.1" viewBox="0 0 512 512" width="512pt">
<g id="surface1">
<path d="M 512 256 C 512 397.386719 397.386719 512 256 512 C 114.613281 512 0 397.386719 0 256 C 0 114.613281 114.613281 0 256 0 C 397.386719 0 512 114.613281 512 256 Z M 512 256 " style=" stroke:none;fill-rule:nonzero;fill:rgb(67.843137%,90.980392%,94.117647%);fill-opacity:1;" />
<path d="M 380 195 C 380 186.714844 386.714844 180 395 180 L 500.527344 180 C 503.558594 189.761719 506.015625 199.777344 507.871094 210 L 395 210 C 386.714844 210 380 203.285156 380 195 Z M 330 365 C 330 373.285156 336.714844 380 345 380 L 425 380 C 433.285156 380 440 386.714844 440 395 C 440 403.285156 433.285156 410 425 410 L 400 410 C 391.714844 410 385 416.714844 385 425 C 385 433.285156 391.714844 440 400 440 L 433.96875 440 C 459.972656 414.84375 480.667969 384.234375 494.191406 350 L 345 350 C 336.714844 350 330 356.714844 330 365 Z M 120 135 C 120 126.714844 113.285156 120 105 120 L 95 120 C 86.714844 120 80 113.285156 80 105 C 80 96.714844 86.714844 90 95 90 L 175 90 C 183.285156 90 190 83.285156 190 75 C 190 66.714844 183.285156 60 175 60 L 91.335938 60 C 62.332031 84.390625 38.816406 115.09375 22.914062 150 L 105 150 C 113.285156 150 120 143.285156 120 135 Z M 220 275 C 220 266.714844 213.285156 260 205 260 L 185 260 C 176.714844 260 170 253.285156 170 245 C 170 236.714844 176.714844 230 185 230 L 265 230 C 273.285156 230 280 223.285156 280 215 C 280 206.714844 273.285156 200 265 200 L 105 200 C 96.714844 200 90 206.714844 90 215 C 90 223.285156 96.714844 230 105 230 L 115 230 C 123.285156 230 130 236.714844 130 245 C 130 253.285156 123.285156 260 115 260 L 45 260 C 36.714844 260 30 266.714844 30 275 C 30 283.285156 36.714844 290 45 290 L 205 290 C 213.285156 290 220 283.285156 220 275 Z M 260 265 C 260 273.285156 266.714844 280 275 280 L 365 280 C 373.285156 280 380 273.285156 380 265 C 380 256.714844 373.285156 250 365 250 L 275 250 C 266.714844 250 260 256.714844 260 265 Z M 245.84375 60 L 335.84375 60 C 344.125 60 350.84375 53.285156 350.84375 45 C 350.84375 36.714844 344.125 30 335.84375 30 L 245.84375 30 C 237.558594 30 230.84375 36.714844 230.84375 45 C 230.84375 53.285156 237.558594 60 245.84375 60 Z M 335 390 L 230 390 C 221.714844 390 215 383.285156 215 375 C 215 366.714844 221.714844 360 230 360 L 245 360 C 253.285156 360 260 353.285156 260 345 C 260 336.714844 253.285156 330 245 330 L 65 330 C 56.714844 330 50 336.714844 50 345 C 50 353.285156 56.714844 360 65 360 L 160 360 C 168.285156 360 175 366.714844 175 375 C 175 383.285156 168.285156 390 160 390 L 155 390 C 146.714844 390 140 396.714844 140 405 C 140 413.285156 146.714844 420 155 420 L 335 420 C 343.285156 420 350 413.285156 350 405 C 350 396.714844 343.285156 390 335 390 Z M 105 420 L 59.4375 420 C 68.449219 430.789062 78.324219 440.824219 88.972656 450 L 105 450 C 113.285156 450 120 443.285156 120 435 C 120 426.714844 113.285156 420 105 420 Z M 105 420 " style=" stroke:none;fill-rule:nonzero;fill:rgb(55.686275%,81.568627%,88.235294%);fill-opacity:1;" />
<path d="M 456.253906 239.59375 C 446.492188 249.355469 430.660156 249.355469 420.898438 239.59375 L 414.179688 232.875 C 404.472656 239.308594 391.269531 238.246094 382.714844 229.695312 L 378.824219 225.804688 C 369.117188 232.234375 355.914062 231.175781 347.359375 222.621094 L 325.085938 200.347656 L 321.546875 226.820312 C 320.765625 232.683594 315.085938 236.589844 309.328125 235.226562 C 293.195312 231.402344 280.601562 218.804688 276.777344 202.671875 C 275.410156 196.914062 279.316406 191.234375 285.183594 190.453125 L 311.652344 186.914062 L 289.378906 164.640625 C 280.824219 156.089844 279.765625 142.882812 286.195312 133.175781 L 282.304688 129.285156 C 273.753906 120.734375 272.695312 107.527344 279.125 97.820312 L 272.40625 91.101562 C 262.644531 81.339844 262.644531 65.511719 272.40625 55.746094 C 274.359375 53.792969 277.523438 53.792969 279.476562 55.746094 L 456.253906 232.523438 C 458.207031 234.476562 458.207031 237.640625 456.253906 239.59375 Z M 238.511719 308.84375 C 236.558594 306.890625 233.394531 306.890625 231.441406 308.84375 C 221.679688 318.605469 221.679688 334.433594 231.441406 344.199219 L 238.160156 350.914062 C 231.726562 360.621094 232.789062 373.828125 241.339844 382.382812 L 245.230469 386.269531 C 238.800781 395.976562 239.859375 409.183594 248.410156 417.738281 L 270.6875 440.011719 L 244.214844 443.550781 C 238.351562 444.332031 234.445312 450.007812 235.808594 455.765625 C 239.632812 471.898438 252.230469 484.496094 268.363281 488.320312 C 274.121094 489.6875 279.800781 485.78125 280.582031 479.914062 L 284.117188 453.445312 L 306.394531 475.71875 C 314.945312 484.269531 328.152344 485.332031 337.859375 478.902344 L 341.75 482.789062 C 350.300781 491.34375 363.507812 492.402344 373.214844 485.972656 L 379.933594 492.691406 C 389.695312 502.453125 405.527344 502.453125 415.289062 492.691406 C 417.242188 490.738281 417.242188 487.570312 415.289062 485.617188 Z M 43.25 113.582031 C 35.074219 125.773438 27.921875 138.710938 21.90625 152.265625 C 21.828125 158.765625 24.25 165.289062 29.210938 170.25 L 33.097656 174.140625 C 26.667969 183.847656 27.726562 197.054688 36.28125 205.605469 L 58.554688 227.882812 L 32.085938 231.417969 C 26.21875 232.203125 22.3125 237.878906 23.679688 243.636719 C 27.503906 259.769531 40.101562 272.367188 56.234375 276.191406 C 61.992188 277.554688 67.667969 273.648438 68.449219 267.785156 L 71.988281 241.3125 L 94.261719 263.589844 C 102.816406 272.140625 116.023438 273.199219 125.730469 266.769531 L 129.617188 270.660156 C 138.171875 279.214844 151.378906 280.273438 161.085938 273.84375 L 167.804688 280.558594 C 177.566406 290.324219 193.394531 290.324219 203.15625 280.558594 C 205.109375 278.605469 205.109375 275.441406 203.15625 273.488281 Z M 43.25 113.582031 " style=" stroke:none;fill-rule:nonzero;fill:rgb(52.54902%,32.156863%,24.313725%);fill-opacity:1;" />
<path d="M 383.484375 150.171875 C 381.371094 153.8125 382.191406 158.460938 385.167969 161.4375 L 456.253906 232.523438 C 458.183594 234.449219 458.234375 237.601562 456.3125 239.535156 C 446.550781 249.355469 430.679688 249.375 420.898438 239.59375 L 414.179688 232.875 C 404.472656 239.308594 391.265625 238.246094 382.714844 229.695312 L 378.824219 225.804688 C 369.117188 232.234375 355.910156 231.175781 347.359375 222.621094 L 325.082031 200.347656 L 322.675781 218.367188 L 321.546875 226.820312 C 321.144531 229.824219 319.460938 232.316406 317.136719 233.847656 C 314.925781 235.304688 312.136719 235.890625 309.328125 235.226562 C 305.515625 234.320312 301.898438 232.925781 298.550781 231.105469 C 295.785156 229.605469 293.203125 227.816406 290.84375 225.785156 C 291.382812 217.25 295.75 207.761719 303.519531 199.996094 C 307.316406 196.199219 311.527344 193.222656 315.835938 191.101562 L 314.125 189.390625 C 313.835938 189.101562 313.554688 188.804688 313.28125 188.507812 C 308.96875 183.753906 316.046875 177.171875 320.589844 181.710938 L 338.871094 199.996094 C 340.941406 202.0625 344.367188 201.941406 346.273438 199.632812 C 347.9375 197.617188 347.640625 194.621094 345.792969 192.773438 L 313.417969 160.398438 C 306.867188 153.847656 304.710938 144.570312 306.949219 136.222656 C 307.941406 132.519531 312.59375 131.289062 315.304688 134 L 360.085938 178.78125 C 362.152344 180.847656 365.582031 180.726562 367.488281 178.417969 C 369.152344 176.402344 368.851562 173.40625 367.003906 171.558594 L 303.683594 108.238281 C 297.824219 102.378906 297.613281 92.800781 303.457031 86.921875 C 303.507812 86.867188 303.558594 86.816406 303.609375 86.765625 C 305.535156 84.859375 308.671875 84.941406 310.589844 86.859375 L 350.761719 127.03125 C 354.351562 130.617188 360.164062 130.617188 363.753906 127.03125 L 363.789062 126.996094 C 365.761719 125.019531 366.746094 122.253906 366.414062 119.476562 C 365.394531 110.894531 368.03125 101.945312 374.285156 95.304688 C 378.792969 90.515625 384.472656 87.546875 390.433594 86.394531 C 403.054688 83.957031 414.875 78.417969 425.320312 70.925781 L 466.199219 41.609375 C 468.960938 39.632812 472.363281 43.035156 470.386719 45.796875 L 440.914062 86.890625 C 433.296875 97.515625 428.28125 109.691406 425.417969 122.449219 C 424.214844 127.804688 421.527344 132.894531 417.359375 137.0625 C 410.566406 143.855469 401.324219 146.703125 392.472656 145.617188 C 388.914062 145.179688 385.355469 146.953125 383.484375 150.171875 Z M 425.238281 294.710938 L 384.359375 324.027344 C 373.910156 331.519531 362.09375 337.054688 349.46875 339.492188 C 343.507812 340.644531 337.828125 343.613281 333.324219 348.402344 C 327.070312 355.046875 324.429688 363.996094 325.453125 372.578125 C 325.78125 375.351562 324.800781 378.117188 322.824219 380.09375 L 322.789062 380.132812 C 319.203125 383.71875 313.386719 383.71875 309.800781 380.132812 L 269.625 339.957031 C 267.710938 338.039062 264.574219 337.957031 262.648438 339.863281 C 262.59375 339.914062 262.542969 339.96875 262.492188 340.019531 C 256.652344 345.898438 256.859375 355.476562 262.722656 361.339844 L 326.042969 424.65625 C 327.886719 426.503906 328.1875 429.503906 326.523438 431.515625 C 324.617188 433.828125 321.191406 433.949219 319.121094 431.882812 L 274.34375 387.101562 C 271.628906 384.386719 266.980469 385.617188 265.988281 389.320312 C 263.75 397.667969 265.902344 406.945312 272.453125 413.496094 L 304.828125 445.871094 C 306.675781 447.71875 306.976562 450.71875 305.3125 452.730469 C 303.40625 455.039062 299.976562 455.164062 297.910156 453.09375 L 279.625 434.808594 C 275.085938 430.269531 268.003906 436.851562 272.320312 441.605469 C 272.59375 441.902344 272.871094 442.199219 273.160156 442.488281 L 274.871094 444.199219 C 270.5625 446.320312 266.351562 449.296875 262.554688 453.09375 C 254.789062 460.863281 250.417969 470.347656 249.878906 478.882812 C 252.238281 480.917969 254.820312 482.703125 257.585938 484.203125 C 260.933594 486.023438 264.550781 487.421875 268.363281 488.324219 C 271.171875 488.988281 273.960938 488.402344 276.171875 486.945312 C 278.496094 485.414062 280.183594 482.925781 280.585938 479.917969 L 281.714844 471.46875 L 284.121094 453.445312 L 306.394531 475.722656 C 314.945312 484.273438 328.152344 485.335938 337.859375 478.902344 L 341.75 482.792969 C 350.304688 491.347656 363.511719 492.40625 373.21875 485.976562 L 379.933594 492.691406 C 389.71875 502.476562 405.589844 502.457031 415.347656 492.632812 C 417.273438 490.699219 417.21875 487.550781 415.289062 485.621094 L 344.207031 414.535156 C 341.230469 411.558594 340.40625 406.910156 342.523438 403.273438 C 344.394531 400.050781 347.949219 398.277344 351.515625 398.714844 C 360.363281 399.804688 369.605469 396.957031 376.402344 390.160156 C 380.570312 385.992188 383.253906 380.902344 384.457031 375.546875 C 387.320312 362.792969 392.335938 350.617188 399.953125 339.992188 L 429.425781 298.898438 C 431.402344 296.136719 427.996094 292.730469 425.238281 294.710938 Z M 213.105469 82.578125 L 172.226562 111.894531 C 161.777344 119.386719 149.960938 124.925781 137.335938 127.363281 C 131.375 128.511719 125.695312 131.484375 121.191406 136.269531 C 114.9375 142.914062 112.296875 151.863281 113.320312 160.445312 C 113.648438 163.21875 112.667969 165.988281 110.691406 167.964844 L 110.65625 168 C 107.070312 171.585938 101.253906 171.585938 97.667969 168 L 57.492188 127.824219 C 55.574219 125.90625 52.441406 125.824219 50.515625 127.734375 C 50.460938 127.785156 50.410156 127.835938 50.359375 127.886719 C 44.519531 133.769531 44.726562 143.34375 50.589844 149.207031 L 113.910156 212.527344 C 115.753906 214.371094 116.054688 217.371094 114.390625 219.386719 C 112.484375 221.695312 109.058594 221.816406 106.988281 219.75 L 62.210938 174.96875 C 59.496094 172.253906 54.847656 173.484375 53.855469 177.191406 C 51.617188 185.535156 53.769531 194.816406 60.320312 201.363281 L 92.695312 233.738281 C 94.542969 235.585938 94.84375 238.585938 93.179688 240.597656 C 91.273438 242.910156 87.84375 243.03125 85.777344 240.964844 L 67.492188 222.675781 C 62.953125 218.136719 55.871094 224.722656 60.1875 229.472656 C 60.460938 229.773438 60.738281 230.066406 61.027344 230.355469 L 62.738281 232.066406 C 58.429688 234.1875 54.21875 237.164062 50.421875 240.964844 C 42.65625 248.730469 38.285156 258.214844 37.746094 266.753906 C 40.105469 268.785156 42.6875 270.574219 45.453125 272.074219 C 48.800781 273.890625 52.417969 275.289062 56.230469 276.191406 C 59.039062 276.859375 61.828125 276.269531 64.039062 274.8125 C 66.363281 273.28125 68.046875 270.792969 68.449219 267.785156 L 69.578125 259.335938 L 71.984375 241.316406 L 94.261719 263.589844 C 102.8125 272.140625 116.019531 273.203125 125.726562 266.773438 L 129.617188 270.660156 C 138.167969 279.214844 151.375 280.273438 161.082031 273.84375 L 167.800781 280.5625 C 177.582031 290.34375 193.457031 290.324219 203.214844 280.503906 C 205.136719 278.566406 205.085938 275.417969 203.15625 273.488281 L 132.074219 202.40625 C 129.097656 199.429688 128.273438 194.777344 130.390625 191.140625 C 132.261719 187.921875 135.816406 186.144531 139.378906 186.585938 C 148.230469 187.671875 157.472656 184.824219 164.265625 178.03125 C 168.433594 173.863281 171.121094 168.773438 172.324219 163.414062 C 175.1875 150.660156 180.199219 138.484375 187.820312 127.859375 L 217.292969 86.765625 C 219.269531 84.003906 215.863281 80.597656 213.105469 82.578125 Z M 213.105469 82.578125 " style=" stroke:none;fill-rule:nonzero;fill:rgb(66.27451%,41.568627%,31.764706%);fill-opacity:1;" />
<path d="M 470.386719 45.800781 L 445.144531 81 L 439.464844 85.070312 C 429.019531 92.5625 417.199219 98.101562 404.578125 100.539062 C 398.617188 101.691406 392.9375 104.660156 388.429688 109.449219 C 382.179688 116.09375 379.535156 125.042969 380.558594 133.621094 C 380.890625 136.398438 379.90625 139.164062 377.933594 141.140625 L 377.894531 141.175781 C 374.308594 144.761719 368.492188 144.761719 364.90625 141.175781 L 350.765625 127.035156 C 354.351562 130.621094 360.167969 130.621094 363.753906 127.035156 L 363.789062 127 C 365.765625 125.023438 366.746094 122.253906 366.417969 119.480469 C 365.394531 110.898438 368.035156 101.949219 374.289062 95.308594 C 378.796875 90.519531 384.476562 87.550781 390.433594 86.398438 C 403.058594 83.960938 414.878906 78.421875 425.324219 70.929688 L 466.203125 41.613281 C 468.960938 39.632812 472.367188 43.039062 470.386719 45.800781 Z M 425.238281 294.710938 L 384.359375 324.027344 C 373.910156 331.519531 362.09375 337.054688 349.46875 339.492188 C 343.507812 340.644531 337.832031 343.613281 333.324219 348.402344 C 327.070312 355.046875 324.429688 363.996094 325.453125 372.578125 C 325.78125 375.351562 324.800781 378.117188 322.824219 380.09375 L 322.789062 380.132812 C 319.203125 383.71875 313.386719 383.71875 309.800781 380.132812 L 323.941406 394.273438 C 327.527344 397.859375 333.34375 397.859375 336.929688 394.273438 L 336.96875 394.238281 C 338.941406 392.261719 339.925781 389.492188 339.59375 386.71875 C 338.570312 378.136719 341.210938 369.191406 347.464844 362.546875 C 351.972656 357.757812 357.652344 354.789062 363.613281 353.636719 C 376.234375 351.199219 388.054688 345.660156 398.5 338.167969 L 404.179688 334.097656 L 429.421875 298.894531 C 431.402344 296.136719 427.996094 292.730469 425.238281 294.710938 Z M 213.105469 82.578125 L 172.226562 111.894531 C 161.777344 119.386719 149.960938 124.925781 137.335938 127.359375 C 131.375 128.511719 125.695312 131.480469 121.191406 136.269531 C 114.9375 142.914062 112.296875 151.863281 113.320312 160.445312 C 113.648438 163.21875 112.667969 165.988281 110.691406 167.964844 L 110.65625 168 C 107.070312 171.585938 101.253906 171.585938 97.667969 168 L 111.808594 182.140625 C 115.394531 185.726562 121.210938 185.726562 124.796875 182.140625 L 124.835938 182.105469 C 126.808594 180.128906 127.792969 177.359375 127.460938 174.585938 C 126.4375 166.003906 129.078125 157.058594 135.332031 150.410156 C 139.839844 145.625 145.519531 142.65625 151.480469 141.503906 C 164.101562 139.066406 175.921875 133.527344 186.367188 126.035156 L 192.046875 121.964844 L 217.289062 86.761719 C 219.269531 84.003906 215.863281 80.597656 213.105469 82.578125 Z M 213.105469 82.578125 " style=" stroke:none;fill-rule:nonzero;fill:rgb(52.54902%,32.156863%,24.313725%);fill-opacity:1;" />
</g>
</svg>