<svg height="496pt" viewBox="-104 0 496 496" width="496pt" xmlns="http://www.w3.org/2000/svg"><path d="m160 56h120v432h-272v-432h120" fill="#555c47"/><path d="m128 56h-120v391.265625c5.289062.4375 10.617188.734375 16 .734375 123.710938 0 224-116.40625 224-260 0-48.199219-11.34375-93.304688-31.03125-132zm0 0" fill="#8d9262"/><g fill="#4472b2"><path d="m208 424c0-35.34375-28.65625-80-64-80s-64 44.65625-64 80 28.65625 32 64 32 64 3.34375 64-32zm0 0"/><path d="m128 296c0-13.253906-7.164062-24-16-24s-16 10.746094-16 24 7.164062 24 16 24 16-10.746094 16-24zm0 0"/><path d="m192 296c0-13.253906-7.164062-24-16-24s-16 10.746094-16 24 7.164062 24 16 24 16-10.746094 16-24zm0 0"/><path d="m72 344c0-13.253906-7.164062-24-16-24s-16 10.746094-16 24 7.164062 24 16 24 16-10.746094 16-24zm0 0"/><path d="m248 344c0-13.253906-7.164062-24-16-24s-16 10.746094-16 24 7.164062 24 16 24 16-10.746094 16-24zm0 0"/></g><path d="m128 74.726562c-18.640625 6.59375-32 24.371094-32 45.273438 0 26.511719 21.488281 48 48 48s48-21.488281 48-48c0-20.894531-13.359375-38.679688-32-45.273438" fill="#fff"/><path d="m160 0v112h-32v-112" fill="#857970"/><path d="m160.28125 464.089844c-2.585938 0-5.210938-.027344-7.882812-.042969l-8.398438-.046875-8.398438.046875c-22.449218.128906-41.816406.3125-53.699218-11.472656-6.664063-6.605469-9.902344-15.957031-9.902344-28.574219 0-39.855469 32.121094-88 72-88s72 48.144531 72 88c0 12.617188-3.238281 21.96875-9.902344 28.574219-10.464844 10.386719-26.753906 11.515625-45.816406 11.515625zm-16.28125-16.089844 8.519531.046875c18.855469.105469 35.152344.265625 42.3125-6.824219 3.480469-3.453125 5.167969-9.085937 5.167969-17.222656 0-31.734375-26.367188-72-56-72s-56 40.265625-56 72c0 8.136719 1.6875 13.769531 5.167969 17.222656 7.160156 7.089844 23.433593 6.960938 42.3125 6.824219zm0 0"/><path d="m112 328c-13.457031 0-24-14.054688-24-32s10.542969-32 24-32 24 14.054688 24 32-10.542969 32-24 32zm0-48c-3.265625 0-8 6.230469-8 16s4.734375 16 8 16 8-6.230469 8-16-4.734375-16-8-16zm0 0"/><path d="m176 328c-13.457031 0-24-14.054688-24-32s10.542969-32 24-32 24 14.054688 24 32-10.542969 32-24 32zm0-48c-3.265625 0-8 6.230469-8 16s4.734375 16 8 16 8-6.230469 8-16-4.734375-16-8-16zm0 0"/><path d="m56 376c-13.457031 0-24-14.054688-24-32s10.542969-32 24-32 24 14.054688 24 32-10.542969 32-24 32zm0-48c-3.265625 0-8 6.230469-8 16s4.734375 16 8 16 8-6.230469 8-16-4.734375-16-8-16zm0 0"/><path d="m232 376c-13.457031 0-24-14.054688-24-32s10.542969-32 24-32 24 14.054688 24 32-10.542969 32-24 32zm0-48c-3.265625 0-8 6.230469-8 16s4.734375 16 8 16 8-6.230469 8-16-4.734375-16-8-16zm0 0"/><path d="m108.238281 462.785156-8.476562-13.5625 14.613281-9.132812c30.160156-18.851563 52.160156-48.082032 61.9375-82.28125l15.382812 4.390625c-10.863281 38.023437-35.3125 70.496093-68.839843 91.457031zm0 0"/><path d="m280 496h-272c-4.414062 0-8-3.574219-8-8v-432c0-4.425781 3.585938-8 8-8h120v16h-112v416h256v-416h-112v-16h120c4.414062 0 8 3.574219 8 8v432c0 4.425781-3.585938 8-8 8zm0 0"/><path d="m144 176c-30.878906 0-56-25.128906-56-56 0-23.695312 15-44.921875 37.335938-52.816406l5.328124 15.097656c-15.953124 5.628906-26.664062 20.789062-26.664062 37.71875 0 22.054688 17.945312 40 40 40s40-17.945312 40-40c0-16.929688-10.710938-32.089844-26.664062-37.71875l5.328124-15.097656c22.335938 7.894531 37.335938 29.121094 37.335938 52.816406 0 30.871094-25.121094 56-56 56zm0 0"/><path d="m160 120h-32c-4.414062 0-8-3.574219-8-8v-112h16v104h16v-104h16v112c0 4.425781-3.585938 8-8 8zm0 0"/><path d="m48 192h192v16h-192zm0 0"/><path d="m64 224h160v16h-160zm0 0"/></svg>