<svg height="480pt" viewBox="0 0 480 480" width="480pt" xmlns="http://www.w3.org/2000/svg"><path d="m192 336h96v64h-96zm0 0" fill="#656665"/><path d="m16 304v32h448v-32" fill="#bab8b9"/><path d="m0 0h480v304h-480zm0 0" fill="#999"/><path d="m48 400h384v80h-384zm0 0" fill="#999"/><path d="m104 440c0 8.835938-7.164062 16-16 16s-16-7.164062-16-16 7.164062-16 16-16 16 7.164062 16 16zm0 0" fill="#dc6068"/><path d="m168 440c0 8.835938-7.164062 16-16 16s-16-7.164062-16-16 7.164062-16 16-16 16 7.164062 16 16zm0 0" fill="#599072"/><path d="m32 32h416v240h-416zm0 0" fill="#94cce7"/><path d="m408 216-64-64v88l24-24zm0 0" fill="#dc6068"/><path d="m144 48c0 8.835938-7.164062 16-16 16s-16-7.164062-16-16 7.164062-16 16-16 16 7.164062 16 16zm0 0" fill="#70b48f"/><path d="m208 48c0 8.835938-7.164062 16-16 16s-16-7.164062-16-16 7.164062-16 16-16 16 7.164062 16 16zm0 0" fill="#70b48f"/><path d="m272 48c0 8.835938-7.164062 16-16 16s-16-7.164062-16-16 7.164062-16 16-16 16 7.164062 16 16zm0 0" fill="#70b48f"/><path d="m312 216c0 8.835938-7.164062 16-16 16s-16-7.164062-16-16 7.164062-16 16-16 16 7.164062 16 16zm0 0" fill="#70b48f"/><path d="m312 152c0 8.835938-7.164062 16-16 16s-16-7.164062-16-16 7.164062-16 16-16 16 7.164062 16 16zm0 0" fill="#70b48f"/><path d="m312 88c0 8.835938-7.164062 16-16 16s-16-7.164062-16-16 7.164062-16 16-16 16 7.164062 16 16zm0 0" fill="#70b48f"/><path d="m104 208c0 8.835938-7.164062 16-16 16s-16-7.164062-16-16 7.164062-16 16-16 16 7.164062 16 16zm0 0" fill="#70b48f"/><path d="m104 144c0 8.835938-7.164062 16-16 16s-16-7.164062-16-16 7.164062-16 16-16 16 7.164062 16 16zm0 0" fill="#70b48f"/><path d="m248 256c0 8.835938-7.164062 16-16 16s-16-7.164062-16-16 7.164062-16 16-16 16 7.164062 16 16zm0 0" fill="#70b48f"/><path d="m184 256c0 8.835938-7.164062 16-16 16s-16-7.164062-16-16 7.164062-16 16-16 16 7.164062 16 16zm0 0" fill="#70b48f"/><g fill="#bab8b9"><path d="m146.34375 117.65625-24-24c-1.503906-1.496094-2.34375-3.535156-2.34375-5.65625v-24h16v20.6875l21.65625 21.65625zm0 0"/><path d="m240 112h-16v-24c0-2.121094.839844-4.160156 2.34375-5.65625l24-24 11.3125 11.3125-21.65625 21.65625zm0 0"/><path d="m184 64h16v48h-16zm0 0"/><path d="m280 224h-24c-2.128906 0-4.160156-.839844-5.65625-2.34375l-24-24 11.3125-11.3125 21.65625 21.65625h20.6875zm0 0"/><path d="m256 120h-24v-16h20.6875l21.65625-21.65625 11.3125 11.3125-24 24c-1.496094 1.503906-3.527344 2.34375-5.65625 2.34375zm0 0"/><path d="m232 144h48v16h-48zm0 0"/><path d="m104 136h48v16h-48zm0 0"/><path d="m101.65625 205.65625-11.3125-11.3125 24-24c1.496094-1.503906 3.527344-2.34375 5.65625-2.34375h32v16h-28.6875zm0 0"/><path d="m160 192h16v48h-16zm0 0"/><path d="m218.34375 253.65625-24-24c-1.503906-1.496094-2.34375-3.535156-2.34375-5.65625v-32h16v28.6875l21.65625 21.65625zm0 0"/></g><path d="m392 440h16v16h-16zm0 0" fill="#656665"/><path d="m360 440h16v16h-16zm0 0" fill="#656665"/><path d="m328 440h16v16h-16zm0 0" fill="#656665"/><path d="m296 424h16v32h-16zm0 0" fill="#656665"/><path d="m264 424h16v32h-16zm0 0" fill="#656665"/><path d="m144 104h96v96h-96zm0 0" fill="#656665"/><path d="m152 112h80v80h-80zm0 0" fill="#999"/><path d="m128 72c-13.230469 0-24-10.769531-24-24s10.769531-24 24-24 24 10.769531 24 24-10.769531 24-24 24zm0-32c-4.414062 0-8 3.59375-8 8s3.585938 8 8 8 8-3.59375 8-8-3.585938-8-8-8zm0 0" fill="#599072"/><path d="m192 72c-13.230469 0-24-10.769531-24-24s10.769531-24 24-24 24 10.769531 24 24-10.769531 24-24 24zm0-32c-4.414062 0-8 3.59375-8 8s3.585938 8 8 8 8-3.59375 8-8-3.585938-8-8-8zm0 0" fill="#599072"/><path d="m256 72c-13.230469 0-24-10.769531-24-24s10.769531-24 24-24 24 10.769531 24 24-10.769531 24-24 24zm0-32c-4.414062 0-8 3.59375-8 8s3.585938 8 8 8 8-3.59375 8-8-3.585938-8-8-8zm0 0" fill="#599072"/><path d="m296 240c-13.230469 0-24-10.769531-24-24s10.769531-24 24-24 24 10.769531 24 24-10.769531 24-24 24zm0-32c-4.414062 0-8 3.59375-8 8s3.585938 8 8 8 8-3.59375 8-8-3.585938-8-8-8zm0 0" fill="#599072"/><path d="m296 176c-13.230469 0-24-10.769531-24-24s10.769531-24 24-24 24 10.769531 24 24-10.769531 24-24 24zm0-32c-4.414062 0-8 3.59375-8 8s3.585938 8 8 8 8-3.59375 8-8-3.585938-8-8-8zm0 0" fill="#599072"/><path d="m296 112c-13.230469 0-24-10.769531-24-24s10.769531-24 24-24 24 10.769531 24 24-10.769531 24-24 24zm0-32c-4.414062 0-8 3.59375-8 8s3.585938 8 8 8 8-3.59375 8-8-3.585938-8-8-8zm0 0" fill="#599072"/><path d="m88 232c-13.230469 0-24-10.769531-24-24s10.769531-24 24-24 24 10.769531 24 24-10.769531 24-24 24zm0-32c-4.414062 0-8 3.59375-8 8s3.585938 8 8 8 8-3.59375 8-8-3.585938-8-8-8zm0 0" fill="#599072"/><path d="m88 168c-13.230469 0-24-10.769531-24-24s10.769531-24 24-24 24 10.769531 24 24-10.769531 24-24 24zm0-32c-4.414062 0-8 3.59375-8 8s3.585938 8 8 8 8-3.59375 8-8-3.585938-8-8-8zm0 0" fill="#599072"/><path d="m232 280c-13.230469 0-24-10.769531-24-24s10.769531-24 24-24 24 10.769531 24 24-10.769531 24-24 24zm0-32c-4.414062 0-8 3.585938-8 8s3.585938 8 8 8 8-3.585938 8-8-3.585938-8-8-8zm0 0" fill="#599072"/><path d="m168 280c-13.230469 0-24-10.769531-24-24s10.769531-24 24-24 24 10.769531 24 24-10.769531 24-24 24zm0-32c-4.414062 0-8 3.585938-8 8s3.585938 8 8 8 8-3.585938 8-8-3.585938-8-8-8zm0 0" fill="#599072"/></svg>