<?xml version="1.0" encoding="iso-8859-1"?>
<!-- Generator: Adobe Illustrator 19.0.0, SVG Export Plug-In . SVG Version: 6.00 Build 0)  -->
<svg version="1.1" id="Capa_1" xmlns="http://www.w3.org/2000/svg" xmlns:xlink="http://www.w3.org/1999/xlink" x="0px" y="0px"
	 viewBox="0 0 469.333 469.333" style="enable-background:new 0 0 469.333 469.333;" xml:space="preserve">
<g>
	<path style="fill:#303C42;" d="M330.667,369.781c-5.896,0-10.667,4.771-10.667,10.667v28.448c0,5.896,4.771,10.667,10.667,10.667
		c5.896,0,10.667-4.771,10.667-10.667v-28.448C341.333,374.552,336.563,369.781,330.667,369.781z"/>
	<path style="fill:#303C42;" d="M330.667,426.667c-5.896,0-10.667,4.771-10.667,10.667V448h-10.667
		c-5.896,0-10.667,4.771-10.667,10.667c0,5.896,4.771,10.667,10.667,10.667h21.333c5.896,0,10.667-4.771,10.667-10.667v-21.333
		C341.333,431.438,336.563,426.667,330.667,426.667z"/>
	<path style="fill:#303C42;" d="M111.229,448H71.604c-5.896,0-10.667,4.771-10.667,10.667c0,5.896,4.771,10.667,10.667,10.667
		h39.625c5.896,0,10.667-4.771,10.667-10.667C121.896,452.771,117.125,448,111.229,448z"/>
	<path style="fill:#303C42;" d="M269.708,448h-39.625c-5.896,0-10.667,4.771-10.667,10.667c0,5.896,4.771,10.667,10.667,10.667
		h39.625c5.896,0,10.667-4.771,10.667-10.667C280.375,452.771,275.604,448,269.708,448z"/>
	<path style="fill:#303C42;" d="M190.479,448h-39.625c-5.896,0-10.667,4.771-10.667,10.667c0,5.896,4.771,10.667,10.667,10.667
		h39.625c5.896,0,10.667-4.771,10.667-10.667C201.146,452.771,196.375,448,190.479,448z"/>
	<path style="fill:#303C42;" d="M32,448H21.333v-10.667c0-5.896-4.771-10.667-10.667-10.667S0,431.438,0,437.333v21.333
		c0,5.896,4.771,10.667,10.667,10.667H32c5.896,0,10.667-4.771,10.667-10.667C42.667,452.771,37.896,448,32,448z"/>
	<path style="fill:#303C42;" d="M10.667,249.906c5.896,0,10.667-4.771,10.667-10.667v-39.615c0-5.896-4.771-10.667-10.667-10.667
		S0,193.729,0,199.625v39.615C0,245.135,4.771,249.906,10.667,249.906z"/>
	<path style="fill:#303C42;" d="M10.667,329.146c5.896,0,10.667-4.771,10.667-10.667v-39.615c0-5.896-4.771-10.667-10.667-10.667
		S0,272.969,0,278.865v39.615C0,324.375,4.771,329.146,10.667,329.146z"/>
	<path style="fill:#303C42;" d="M10.667,408.385c5.896,0,10.667-4.771,10.667-10.667v-39.615c0-5.896-4.771-10.667-10.667-10.667
		S0,352.208,0,358.104v39.615C0,403.615,4.771,408.385,10.667,408.385z"/>
	<path style="fill:#303C42;" d="M32,128H10.667C4.771,128,0,132.771,0,138.667V160c0,5.896,4.771,10.667,10.667,10.667
		S21.333,165.896,21.333,160v-10.667H32c5.896,0,10.667-4.771,10.667-10.667S37.896,128,32,128z"/>
	<path style="fill:#303C42;" d="M99.542,138.667c0-5.896-4.771-10.667-10.667-10.667H60.438c-5.896,0-10.667,4.771-10.667,10.667
		s4.771,10.667,10.667,10.667h28.438C94.771,149.333,99.542,144.563,99.542,138.667z"/>
	<path style="fill:#303C42;" d="M138.667,99.552c5.896,0,10.667-4.771,10.667-10.667V60.438c0-5.896-4.771-10.667-10.667-10.667
		S128,54.542,128,60.438v28.448C128,94.781,132.771,99.552,138.667,99.552z"/>
	<path style="fill:#303C42;" d="M138.667,42.667c5.896,0,10.667-4.771,10.667-10.667V21.333H160c5.896,0,10.667-4.771,10.667-10.667
		S165.896,0,160,0h-21.333C132.771,0,128,4.771,128,10.667V32C128,37.896,132.771,42.667,138.667,42.667z"/>
	<path style="fill:#303C42;" d="M358.104,21.333h39.625c5.896,0,10.667-4.771,10.667-10.667S403.625,0,397.729,0h-39.625
		c-5.896,0-10.667,4.771-10.667,10.667S352.208,21.333,358.104,21.333z"/>
	<path style="fill:#303C42;" d="M278.854,21.333h39.625c5.896,0,10.667-4.771,10.667-10.667S324.375,0,318.479,0h-39.625
		c-5.896,0-10.667,4.771-10.667,10.667S272.958,21.333,278.854,21.333z"/>
	<path style="fill:#303C42;" d="M199.625,21.333h39.625c5.896,0,10.667-4.771,10.667-10.667S245.146,0,239.25,0h-39.625
		c-5.896,0-10.667,4.771-10.667,10.667S193.729,21.333,199.625,21.333z"/>
	<path style="fill:#303C42;" d="M458.667,0h-21.333c-5.896,0-10.667,4.771-10.667,10.667s4.771,10.667,10.667,10.667H448V32
		c0,5.896,4.771,10.667,10.667,10.667c5.896,0,10.667-4.771,10.667-10.667V10.667C469.333,4.771,464.563,0,458.667,0z"/>
	<path style="fill:#303C42;" d="M458.667,140.188c-5.896,0-10.667,4.771-10.667,10.667v39.615c0,5.896,4.771,10.667,10.667,10.667
		c5.896,0,10.667-4.771,10.667-10.667v-39.615C469.333,144.958,464.563,140.188,458.667,140.188z"/>
	<path style="fill:#303C42;" d="M458.667,60.948c-5.896,0-10.667,4.771-10.667,10.667v39.615c0,5.896,4.771,10.667,10.667,10.667
		c5.896,0,10.667-4.771,10.667-10.667V71.615C469.333,65.719,464.563,60.948,458.667,60.948z"/>
	<path style="fill:#303C42;" d="M458.667,219.427c-5.896,0-10.667,4.771-10.667,10.667v39.615c0,5.896,4.771,10.667,10.667,10.667
		c5.896,0,10.667-4.771,10.667-10.667v-39.615C469.333,224.198,464.563,219.427,458.667,219.427z"/>
	<path style="fill:#303C42;" d="M458.667,298.667c-5.896,0-10.667,4.771-10.667,10.667V320h-10.667
		c-5.896,0-10.667,4.771-10.667,10.667c0,5.896,4.771,10.667,10.667,10.667h21.333c5.896,0,10.667-4.771,10.667-10.667v-21.333
		C469.333,303.438,464.563,298.667,458.667,298.667z"/>
	<path style="fill:#303C42;" d="M408.896,320h-28.438c-5.896,0-10.667,4.771-10.667,10.667c0,5.896,4.771,10.667,10.667,10.667
		h28.438c5.896,0,10.667-4.771,10.667-10.667C419.563,324.771,414.792,320,408.896,320z"/>
	<path style="fill:#303C42;" d="M352,320h-10.667V138.667c0-5.896-4.771-10.667-10.667-10.667H149.333v-10.667
		c0-5.896-4.771-10.667-10.667-10.667S128,111.438,128,117.333V128h-10.667c-5.896,0-10.667,4.771-10.667,10.667
		s4.771,10.667,10.667,10.667H128v181.333c0,5.896,4.771,10.667,10.667,10.667H320V352c0,5.896,4.771,10.667,10.667,10.667
		c5.896,0,10.667-4.771,10.667-10.667v-10.667H352c5.896,0,10.667-4.771,10.667-10.667C362.667,324.771,357.896,320,352,320z"/>
</g>
<rect x="149.333" y="149.333" style="fill:#EF5350;" width="170.667" height="170.667"/>
<linearGradient id="SVGID_1_" gradientUnits="userSpaceOnUse" x1="-66.8374" y1="618.1891" x2="-45.2355" y2="608.113" gradientTransform="matrix(21.3333 0 0 -21.3333 1430.1112 13315.2227)">
	<stop  offset="0" style="stop-color:#FFFFFF;stop-opacity:0.2"/>
	<stop  offset="1" style="stop-color:#FFFFFF;stop-opacity:0"/>
</linearGradient>
<path style="fill:url(#SVGID_1_);" d="M330.667,369.781c-5.896,0-10.667,4.771-10.667,10.667v28.448
	c0,5.896,4.771,10.667,10.667,10.667c5.896,0,10.667-4.771,10.667-10.667v-28.448C341.333,374.552,336.563,369.781,330.667,369.781z
	 M330.667,426.667c-5.896,0-10.667,4.771-10.667,10.667V448h-10.667c-5.896,0-10.667,4.771-10.667,10.667
	c0,5.896,4.771,10.667,10.667,10.667h21.333c5.896,0,10.667-4.771,10.667-10.667v-21.333
	C341.333,431.438,336.563,426.667,330.667,426.667z M111.229,448H71.604c-5.896,0-10.667,4.771-10.667,10.667
	c0,5.896,4.771,10.667,10.667,10.667h39.625c5.896,0,10.667-4.771,10.667-10.667C121.896,452.771,117.125,448,111.229,448z
	 M269.708,448h-39.625c-5.896,0-10.667,4.771-10.667,10.667c0,5.896,4.771,10.667,10.667,10.667h39.625
	c5.896,0,10.667-4.771,10.667-10.667C280.375,452.771,275.604,448,269.708,448z M190.479,448h-39.625
	c-5.896,0-10.667,4.771-10.667,10.667c0,5.896,4.771,10.667,10.667,10.667h39.625c5.896,0,10.667-4.771,10.667-10.667
	C201.146,452.771,196.375,448,190.479,448z M32,448H21.333v-10.667c0-5.896-4.771-10.667-10.667-10.667S0,431.438,0,437.333v21.333
	c0,5.896,4.771,10.667,10.667,10.667H32c5.896,0,10.667-4.771,10.667-10.667C42.667,452.771,37.896,448,32,448z M10.667,249.906
	c5.896,0,10.667-4.771,10.667-10.667v-39.615c0-5.896-4.771-10.667-10.667-10.667S0,193.729,0,199.625v39.615
	C0,245.135,4.771,249.906,10.667,249.906z M10.667,329.146c5.896,0,10.667-4.771,10.667-10.667v-39.615
	c0-5.896-4.771-10.667-10.667-10.667S0,272.969,0,278.865v39.615C0,324.375,4.771,329.146,10.667,329.146z M10.667,408.385
	c5.896,0,10.667-4.771,10.667-10.667v-39.615c0-5.896-4.771-10.667-10.667-10.667S0,352.208,0,358.104v39.615
	C0,403.615,4.771,408.385,10.667,408.385z M32,128H10.667C4.771,128,0,132.771,0,138.667V160c0,5.896,4.771,10.667,10.667,10.667
	S21.333,165.896,21.333,160v-10.667H32c5.896,0,10.667-4.771,10.667-10.667S37.896,128,32,128z M99.542,138.667
	c0-5.896-4.771-10.667-10.667-10.667H60.438c-5.896,0-10.667,4.771-10.667,10.667s4.771,10.667,10.667,10.667h28.438
	C94.771,149.333,99.542,144.563,99.542,138.667z M138.667,99.552c5.896,0,10.667-4.771,10.667-10.667V60.438
	c0-5.896-4.771-10.667-10.667-10.667S128,54.542,128,60.438v28.448C128,94.781,132.771,99.552,138.667,99.552z M138.667,42.667
	c5.896,0,10.667-4.771,10.667-10.667V21.333H160c5.896,0,10.667-4.771,10.667-10.667S165.896,0,160,0h-21.333
	C132.771,0,128,4.771,128,10.667V32C128,37.896,132.771,42.667,138.667,42.667z M358.104,21.333h39.625
	c5.896,0,10.667-4.771,10.667-10.667S403.625,0,397.729,0h-39.625c-5.896,0-10.667,4.771-10.667,10.667
	S352.208,21.333,358.104,21.333z M278.854,21.333h39.625c5.896,0,10.667-4.771,10.667-10.667S324.375,0,318.479,0h-39.625
	c-5.896,0-10.667,4.771-10.667,10.667S272.958,21.333,278.854,21.333z M199.625,21.333h39.625c5.896,0,10.667-4.771,10.667-10.667
	S245.146,0,239.25,0h-39.625c-5.896,0-10.667,4.771-10.667,10.667S193.729,21.333,199.625,21.333z M458.667,0h-21.333
	c-5.896,0-10.667,4.771-10.667,10.667s4.771,10.667,10.667,10.667H448V32c0,5.896,4.771,10.667,10.667,10.667
	c5.896,0,10.667-4.771,10.667-10.667V10.667C469.333,4.771,464.563,0,458.667,0z M458.667,140.188
	c-5.896,0-10.667,4.771-10.667,10.667v39.615c0,5.896,4.771,10.667,10.667,10.667c5.896,0,10.667-4.771,10.667-10.667v-39.615
	C469.333,144.958,464.563,140.188,458.667,140.188z M458.667,60.948c-5.896,0-10.667,4.771-10.667,10.667v39.615
	c0,5.896,4.771,10.667,10.667,10.667c5.896,0,10.667-4.771,10.667-10.667V71.615C469.333,65.719,464.563,60.948,458.667,60.948z
	 M458.667,219.427c-5.896,0-10.667,4.771-10.667,10.667v39.615c0,5.896,4.771,10.667,10.667,10.667
	c5.896,0,10.667-4.771,10.667-10.667v-39.615C469.333,224.198,464.563,219.427,458.667,219.427z M458.667,298.667
	c-5.896,0-10.667,4.771-10.667,10.667V320h-10.667c-5.896,0-10.667,4.771-10.667,10.667c0,5.896,4.771,10.667,10.667,10.667h21.333
	c5.896,0,10.667-4.771,10.667-10.667v-21.333C469.333,303.438,464.563,298.667,458.667,298.667z M408.896,320h-28.438
	c-5.896,0-10.667,4.771-10.667,10.667c0,5.896,4.771,10.667,10.667,10.667h28.438c5.896,0,10.667-4.771,10.667-10.667
	C419.563,324.771,414.792,320,408.896,320z M352,320h-10.667V138.667c0-5.896-4.771-10.667-10.667-10.667H149.333v-10.667
	c0-5.896-4.771-10.667-10.667-10.667S128,111.438,128,117.333V128h-10.667c-5.896,0-10.667,4.771-10.667,10.667
	s4.771,10.667,10.667,10.667H128v181.333c0,5.896,4.771,10.667,10.667,10.667H320V352c0,5.896,4.771,10.667,10.667,10.667
	c5.896,0,10.667-4.771,10.667-10.667v-10.667H352c5.896,0,10.667-4.771,10.667-10.667C362.667,324.771,357.896,320,352,320z"/>
<g>
</g>
<g>
</g>
<g>
</g>
<g>
</g>
<g>
</g>
<g>
</g>
<g>
</g>
<g>
</g>
<g>
</g>
<g>
</g>
<g>
</g>
<g>
</g>
<g>
</g>
<g>
</g>
<g>
</g>
</svg>
