<svg height="480pt" viewBox="0 0 480 480" width="480pt" xmlns="http://www.w3.org/2000/svg"><path d="m40 8v304h224v-304zm0 0" fill="#f98500"/><path d="m296 376h176v96h-176zm0 0" fill="#ffb531"/><path d="m352 472h120v-96h-24zm0 0" fill="#ffa912"/><path d="m360 432-16 8-16-8v-16l16-8 16 8zm0 0" fill="#f98500"/><path d="m384 400h64v16h-64zm0 0" fill="#f98500"/><path d="m384 432h64v16h-64zm0 0" fill="#f98500"/><path d="m368 296h32v48h-32zm0 0" fill="#e0e0de"/><path d="m376 344h16v32h-16zm0 0" fill="#bfbfbd"/><path d="m384 238.398438 16 57.601562 72-256h-32zm0 0" fill="#2d7dbf"/><path d="m384 238.398438-56-198.398438h-32l72 256h32zm0 0" fill="#348fd9"/><path d="m448 8h-128l-24 32h176zm0 0" fill="#62a9e6"/><path d="m232 344h-224v-304h152l72 72zm0 0" fill="#ffb531"/><path d="m80 344h152v-152zm0 0" fill="#ffa912"/><path d="m112 64h24v16h-24zm0 0" fill="#f98500"/><path d="m112 96h24v16h-24zm0 0" fill="#f98500"/><path d="m160 112h72l-72-72zm0 0" fill="#ffcb73"/><path d="m8 376h192v96h-192zm0 0" fill="#ffa912"/><path d="m80 472h120v-96h-24zm0 0" fill="#f7a116"/><path d="m183.257812 408h-158.515624c-5.136719 0-9.613282-3.496094-10.863282-8.480469l-5.878906-23.519531h192l-5.878906 23.519531c-1.25 4.984375-5.726563 8.480469-10.863282 8.480469zm0 0" fill="#ffcb73"/><g fill="#f98500"><path d="m32 432h16v16h-16zm0 0"/><path d="m64 432h48v16h-48zm0 0"/><path d="m32 304h176v16h-176zm0 0"/><path d="m64 72-24 8v24l24 8 24-8v-24zm0 0"/></g><path d="m176 112h56v16h-56zm0 0" fill="#ffa912"/><path d="m248 312h-16v-200l16 16zm0 0" fill="#f27900"/><path d="m272 312v-304c0-4.417969-3.582031-8-8-8h-224v16h216v296zm0 0"/><path d="m296 368c-4.417969 0-8 3.582031-8 8v96c0 4.417969 3.582031 8 8 8h176c4.417969 0 8-3.582031 8-8v-96c0-4.417969-3.582031-8-8-8h-80v-16h8c4.417969 0 8-3.582031 8-8v-46.886719l71.703125-254.945312c0-.089844 0-.167969 0-.257813.257813-1.023437.304687-2.089844.136719-3.132812 0-.210938-.085938-.402344-.136719-.609375-.222656-1.070313-.667969-2.078125-1.304687-2.96875l-24-32c-1.507813-2.011719-3.878907-3.199219-6.398438-3.199219h-128c-2.519531 0-4.890625 1.1875-6.398438 3.199219l-24 32c-.640624.886719-1.085937 1.898437-1.3125 2.96875-.050781.207031-.105468.398437-.136718.609375-.167969 1.042968-.121094 2.109375.136718 3.132812v.257813l71.710938 254.945312v46.886719c0 4.417969 3.582031 8 8 8h8v16zm96-32h-16v-32h16zm-8-127.039062-45.433594-160.960938h90.867188zm16.046875 57.3125-7.742187-27.875 53.75-190.398438h15.386718zm-76.046875-250.273438h120l12 16h-144zm-2.054688 32 54.34375 192.527344 13.183594 47.472656h-15.410156l-67.503906-240zm142.054688 416h-160v-80h160zm0 0"/><path d="m324.425781 439.199219 16 8c2.25 1.125 4.898438 1.125 7.148438 0l16-8c2.726562-1.359375 4.441406-4.152344 4.425781-7.199219v-16c.015625-3.046875-1.699219-5.839844-4.425781-7.199219l-16-8c-2.25-1.125-4.898438-1.125-7.148438 0l-16 8c-2.726562 1.359375-4.441406 4.152344-4.425781 7.199219v16c-.015625 3.046875 1.699219 5.839844 4.425781 7.199219zm11.574219-18.253907 8-4 8 4v6.109376l-8 4-8-4zm0 0"/><path d="m384 400h64v16h-64zm0 0"/><path d="m384 432h64v16h-64zm0 0"/><path d="m8 352h224c4.417969 0 8-3.582031 8-8v-232c0-.167969-.089844-.320312-.097656-.488281-.042969-.707031-.183594-1.40625-.414063-2.078125-.089843-.257813-.152343-.496094-.265625-.746094-.386718-.871094-.929687-1.664062-1.597656-2.34375l-72-72c-.675781-.671875-1.46875-1.214844-2.335938-1.601562-.257812-.117188-.503906-.183594-.800781-.277344-.660156-.226563-1.34375-.359375-2.039062-.402344-.113281.027344-.273438-.0625-.449219-.0625h-152c-4.417969 0-8 3.582031-8 8v304c0 4.417969 3.582031 8 8 8zm204.6875-248h-44.6875v-44.6875zm-196.6875-56h136v64c0 4.417969 3.582031 8 8 8h64v216h-208zm0 0"/><path d="m37.472656 111.59375 24 8c1.640625.542969 3.414063.542969 5.054688 0l24-8c3.269531-1.089844 5.472656-4.148438 5.472656-7.59375v-24c0-3.445312-2.203125-6.503906-5.472656-7.59375l-24-8c-1.640625-.542969-3.414063-.542969-5.054688 0l-24 8c-3.269531 1.089844-5.472656 4.148438-5.472656 7.59375v24c0 3.445312 2.203125 6.503906 5.472656 7.59375zm26.527344-31.160156 16 5.335937v12.460938l-16 5.335937-16-5.335937v-12.460938zm0 0"/><path d="m112 64h24v16h-24zm0 0"/><path d="m112 96h24v16h-24zm0 0"/><path d="m8 480h192c4.417969 0 8-3.582031 8-8v-96c-.042969-.316406-.109375-.628906-.191406-.9375-.046875-.449219-.132813-.894531-.265625-1.328125-.417969-.882813-.832031-1.765625-1.238281-2.65625-.089844-.117187-.242188-.15625-.335938-.269531-.539062-.597656-1.167969-1.109375-1.863281-1.511719-.257813-.195313-.523438-.371094-.800781-.527344-1.03125-.496093-2.160157-.757812-3.304688-.769531h-192c-1.152344.019531-2.285156.292969-3.320312.800781-.277344.160157-.542969.335938-.800782.527344-.691406.40625-1.316406.917969-1.855468 1.511719-.09375.113281-.246094.152344-.335938.273437-.085938.117188-.191406.496094-.34375.726563-.382812.597656-.6875 1.246094-.894531 1.929687-.132813.429688-.21875.875-.265625 1.328125-.078125.296875-.1406252.597656-.183594.902344v96c0 4.417969 3.582031 8 8 8zm8-16v-50.136719c2.703125 1.398438 5.699219 2.128907 8.742188 2.136719h158.515624c3.042969-.007812 6.039063-.738281 8.742188-2.136719v50.136719zm173.753906-80-3.402344 13.601562c-.363281 1.410157-1.636718 2.398438-3.09375 2.398438h-158.515624c-1.460938.003906-2.738282-.984375-3.101563-2.398438l-3.394531-13.601562zm0 0"/><path d="m32 432h16v16h-16zm0 0"/><path d="m64 432h48v16h-48zm0 0"/><path d="m32 304v16h176v-16zm0 0"/></svg>