<?xml version="1.0" encoding="iso-8859-1"?>
<!-- Generator: Adobe Illustrator 19.0.0, SVG Export Plug-In . SVG Version: 6.00 Build 0)  -->
<svg version="1.1" id="Capa_1" xmlns="http://www.w3.org/2000/svg" xmlns:xlink="http://www.w3.org/1999/xlink" x="0px" y="0px"
	 viewBox="0 0 512 512" style="enable-background:new 0 0 512 512;" xml:space="preserve">
<path style="fill:#6C4127;" d="M414.897,44.138h-61.793H158.897H97.103c-19.5,0-35.31,15.81-35.31,35.31V476.69
	c0,19.5,15.81,35.31,35.31,35.31h317.793c19.5,0,35.31-15.81,35.31-35.31V79.448C450.207,59.948,434.397,44.138,414.897,44.138z"/>
<path style="fill:#AFB6BB;" d="M308.18,26.483c-9.454,0-18.291-4.537-23.896-12.147C277.884,5.65,267.626,0,256,0
	c-11.626,0-21.884,5.65-28.284,14.336c-5.606,7.609-14.442,12.147-23.896,12.147h-22.59c-12.332,0-22.334,10.002-22.334,22.334
	v48.287h194.207V48.817c0-12.332-10.002-22.334-22.334-22.334H308.18z"/>
<path style="fill:#E7ECED;" d="M397.241,79.448h-44.138v17.655H256h-97.103V79.448h-44.138c-9.754,0-17.655,7.901-17.655,17.655
	v361.931c0,9.754,7.901,17.655,17.655,17.655h282.483c9.754,0,17.655-7.901,17.655-17.655V97.103
	C414.897,87.349,406.996,79.448,397.241,79.448z"/>
<path style="fill:#FFFFFF;" d="M264.872,70.621h-17.743c-4.846,0-8.783-3.937-8.783-8.783V44.094c0-4.846,3.937-8.783,8.783-8.783
	h17.743c4.846,0,8.783,3.937,8.783,8.783v17.743C273.655,66.684,269.718,70.621,264.872,70.621z"/>
<rect x="238.345" y="132.414" style="fill:#EBBA16;" width="35.31" height="35.31"/>
<rect x="344.276" y="167.724" style="fill:#DD352E;" width="35.31" height="35.31"/>
<rect x="132.414" y="167.724" style="fill:#DC691D;" width="35.31" height="35.31"/>
<rect x="238.345" y="406.069" style="fill:#61B872;" width="35.31" height="35.31"/>
<rect x="132.414" y="361.931" style="fill:#366DB6;" width="35.31" height="35.31"/>
<rect x="344.276" y="361.931" style="fill:#F76363;" width="35.31" height="35.31"/>
<g>
	<path style="fill:#556080;" d="M150.069,335.448c-4.873,0-8.828-3.955-8.828-8.828v-88.276c0-4.873,3.955-8.828,8.828-8.828
		c4.873,0,8.828,3.955,8.828,8.828v88.276C158.897,331.493,154.942,335.448,150.069,335.448z"/>
	<path style="fill:#556080;" d="M361.931,335.448c-4.873,0-8.828-3.955-8.828-8.828v-88.276c0-4.873,3.955-8.828,8.828-8.828
		s8.828,3.955,8.828,8.828v88.276C370.759,331.493,366.804,335.448,361.931,335.448z"/>
	<path style="fill:#556080;" d="M211.862,291.31h-61.793c-4.873,0-8.828-3.955-8.828-8.828s3.955-8.828,8.828-8.828h61.793
		c4.873,0,8.828,3.955,8.828,8.828S216.735,291.31,211.862,291.31z"/>
	<path style="fill:#556080;" d="M361.931,291.31h-61.793c-4.873,0-8.828-3.955-8.828-8.828s3.955-8.828,8.828-8.828h61.793
		c4.873,0,8.828,3.955,8.828,8.828S366.804,291.31,361.931,291.31z"/>
	<path style="fill:#556080;" d="M256,264.828c-4.873,0-8.828-3.955-8.828-8.828v-52.966c0-4.873,3.955-8.828,8.828-8.828
		s8.828,3.955,8.828,8.828V256C264.828,260.873,260.873,264.828,256,264.828z"/>
	<path style="fill:#556080;" d="M256,379.586c-4.873,0-8.828-3.955-8.828-8.828v-61.793c0-4.873,3.955-8.828,8.828-8.828
		s8.828,3.955,8.828,8.828v61.793C264.828,375.631,260.873,379.586,256,379.586z"/>
</g>
<rect x="211.862" y="256" style="fill:#7383BF;" width="88.276" height="52.966"/>
<g>
</g>
<g>
</g>
<g>
</g>
<g>
</g>
<g>
</g>
<g>
</g>
<g>
</g>
<g>
</g>
<g>
</g>
<g>
</g>
<g>
</g>
<g>
</g>
<g>
</g>
<g>
</g>
<g>
</g>
</svg>
