<svg height="464pt" viewBox="0 0 464 464" width="464pt" xmlns="http://www.w3.org/2000/svg"><path d="m0 0h256v400h-256zm0 0" fill="#f7f7f0"/><path d="m464 464h-272l64-64v-336h208zm0 0" fill="#e2e1d0"/><path d="m192 464v-64h64zm0 0" fill="#aaa893"/><path d="m32 112h64v64h-64zm0 0" fill="#9362f5"/><path d="m96 112h64v64h-64zm0 0" fill="#8d28ad"/><path d="m160 112h64v64h-64zm0 0" fill="#d8c7de"/><path d="m32 248h64v64h-64zm0 0" fill="#4f97d5"/><path d="m96 248h64v64h-64zm0 0" fill="#50b4f8"/><path d="m160 248h64v64h-64zm0 0" fill="#92cdde"/><g fill="#aaa893"><path d="m24 40h64v16h-64zm0 0"/><path d="m24 72h48v16h-48zm0 0"/><path d="m104 40h16v16h-16zm0 0"/><path d="m24 208h64v16h-64zm0 0"/><path d="m104 208h16v16h-16zm0 0"/></g><path d="m340.855469 155.144531-39.597657 39.597657c14.066407 13.925781 20.800782 33.636718 18.191407 53.257812h56.152343c.167969-2.65625.398438-5.296875.398438-8 .039062-31.835938-12.609375-62.371094-35.144531-84.855469zm0 0" fill="#dd3e46"/><path d="m340.855469 155.144531c-22.484375-22.535156-53.019531-35.183593-84.855469-35.144531v56c16.976562-.023438 33.265625 6.722656 45.257812 18.742188zm0 0" fill="#e97424"/><path d="m319.449219 248c-2.257813 17.988281-12.046875 34.171875-26.929688 44.519531l39.953125 39.953125c25.390625-21.019531 40.992188-51.578125 43.128906-84.472656zm0 0" fill="#9362f5"/><path d="m292.519531 292.519531c-10.707031 7.480469-23.457031 11.488281-36.519531 11.480469v56c27.925781.039062 54.980469-9.699219 76.472656-27.527344zm0 0" fill="#4da6ea"/><path d="m384 96h48v48h-48zm0 0" fill="#fcf05a"/><path d="m336 360h104v16h-104zm0 0" fill="#aaa893"/><path d="m336 424h88v16h-88zm0 0" fill="#aaa893"/><path d="m336 392h64v16h-64zm0 0" fill="#aaa893"/><path d="m416 392h16v16h-16zm0 0" fill="#aaa893"/></svg>