<svg height="480pt" viewBox="-8 0 480 480" width="480pt" xmlns="http://www.w3.org/2000/svg"><path d="m144 104h-112l-24 32v320h160v-320zm0 0" fill="#538457"/><path d="m8 136h160l-24-32h-112zm0 0" fill="#5da364"/><path d="m40 136v88l24-16 24 16v-88zm0 0" fill="#71bf79"/><path d="m416 104h-88l-40 40v304h168v-304zm0 0" fill="#5da364"/><path d="m328 72h88v32h-88zm0 0" fill="#5da364"/><path d="m288 144h88v304h-88zm0 0" fill="#538457"/><path d="m376 144 40-40h-88l-40 40zm0 0" fill="#71bf79"/><path d="m288 472h-112c-8.800781 0-16-7.199219-16-16v-218.398438c0-18.402343 10.398438-35.203124 26.398438-43.203124l12.800781-6.398438c5.601562-2.398438 8.800781-8 8.800781-14.398438v-141.601562l-8-8 8-16h48l8 16-8 8v142.398438c0 6.402343 3.199219 12 8.800781 14.402343l12.800781 6.398438c16 8 26.398438 24.800781 26.398438 43.199219v217.601562c0 8.800781-7.199219 16-16 16zm0 0" fill="#5da364"/><path d="m256 32h-48l-8-8 8-16h48l8 16zm0 0" fill="#538457"/><path d="m400 376h32v16h-32zm0 0" fill="#538457"/><path d="m400 408h32v16h-32zm0 0" fill="#538457"/><path d="m320 176h32v16h-32zm0 0" fill="#5da364"/><path d="m272 312c0 22.089844-17.910156 40-40 40s-40-17.910156-40-40 17.910156-40 40-40 40 17.910156 40 40zm0 0" fill="#f4a422"/><path d="m200 232h64v16h-64zm0 0" fill="#538457"/><path d="m184 384h96v16h-96zm0 0" fill="#538457"/><path d="m184 416h96v16h-96zm0 0" fill="#538457"/><path d="m120 296c0 17.671875-14.328125 32-32 32s-32-14.328125-32-32 14.328125-32 32-32 32 14.328125 32 32zm0 0" fill="#f4a422"/><g fill="#5da364"><path d="m48 352h80v16h-80zm0 0"/><path d="m48 384h80v16h-80zm0 0"/><path d="m328 344h24v16h-24zm0 0"/><path d="m328 376h24v16h-24zm0 0"/></g><path d="m344 304c0 8.835938-7.164062 16-16 16s-16-7.164062-16-16 7.164062-16 16-16 16 7.164062 16 16zm0 0" fill="#f4a422"/><path d="m424 100.800781v-36.800781h-104v36.800781l-40 40v46.398438l-11.199219-5.597657c-2.402343-1.601562-4.800781-4-4.800781-7.203124v-139.199219l9.601562-9.597657-12.800781-25.601562h-57.601562l-12.800781 25.601562 9.601562 9.597657v139.199219c0 3.203124-1.601562 5.601562-4.800781 7.203124l-12.800781 6.398438c-19.199219 9.601562-31.199219 28.800781-31.199219 50.398438v209.601562h-135.199219v-304h16v95.199219l32-21.597657 32 21.597657v-95.199219h64v32h16v-42.398438l-28-37.601562h-120l-28 37.601562v330.398438h153.601562c3.199219 9.601562 12 16 22.398438 16h112c13.601562 0 24-10.398438 24-24v-218.398438c0-14.402343-5.601562-28.800781-16-39.203124v-46.398438h72v288h-40v16h136v-315.199219zm-344 108-16-10.402343-16 10.402343v-64.800781h32zm-44-96.800781h104l12 16h-128zm176.800781-96h38.398438l3.199219 6.398438-1.597657 1.601562h-41.601562l-1.597657-1.601562zm83.199219 440c0 4.800781-3.199219 8-8 8h-112c-4.800781 0-8-3.199219-8-8v-218.398438c0-15.203124 8.800781-28.800781 22.398438-36l12.800781-6.402343c8-4 13.601562-12 13.601562-21.597657v-133.601562h32v134.398438c0 8.800781 4.800781 17.601562 13.597657 21.601562l12.800781 6.398438c13.601562 6.402343 22.402343 20.800781 22.402343 36v217.601562zm100.800781-344-24 24h-65.601562l24-24zm19.199219 3.199219 20.800781 20.800781h-41.601562zm-8-35.199219v16h-72v-16zm-24 360v-288h64v288zm0 0"/><path d="m400 376h32v16h-32zm0 0"/><path d="m400 408h32v16h-32zm0 0"/><path d="m320 176h32v16h-32zm0 0"/><path d="m232 264c-26.398438 0-48 21.601562-48 48s21.601562 48 48 48 48-21.601562 48-48-21.601562-48-48-48zm0 80c-17.601562 0-32-14.398438-32-32s14.398438-32 32-32 32 14.398438 32 32-14.398438 32-32 32zm0 0"/><path d="m200 232h64v16h-64zm0 0"/><path d="m184 384h96v16h-96zm0 0"/><path d="m184 416h96v16h-96zm0 0"/><path d="m88 256c-22.398438 0-40 17.601562-40 40s17.601562 40 40 40 40-17.601562 40-40-17.601562-40-40-40zm0 64c-13.601562 0-24-10.398438-24-24s10.398438-24 24-24 24 10.398438 24 24-10.398438 24-24 24zm0 0"/><path d="m48 352h80v16h-80zm0 0"/><path d="m48 384h80v16h-80zm0 0"/><path d="m328 280v16c4.800781 0 8 3.199219 8 8s-3.199219 8-8 8v16c13.601562 0 24-10.398438 24-24s-10.398438-24-24-24zm0 0"/><path d="m328 344h24v16h-24zm0 0"/><path d="m328 376h24v16h-24zm0 0"/></svg>