<svg height="512pt" viewBox="0 0 512 512" width="512pt" xmlns="http://www.w3.org/2000/svg"><path d="m391 15h30v60h-30zm0 0" fill="#2c3b73"/><path d="m91 15h30v60h-30zm0 0" fill="#47568c"/><path d="m241 15h30v60h-30zm0 0" fill="#47568c"/><path d="m256 15h15v60h-15zm0 0" fill="#2c3b73"/><path d="m211 390h90v122h-90zm0 0" fill="#61729b"/><path d="m256 390h45v122h-45zm0 0" fill="#47568c"/><path d="m0 60v300l30 30h452l30-30v-300zm0 0" fill="#47568c"/><path d="m512 60v300l-30 30h-226v-330zm0 0" fill="#2c3b73"/><path d="m0 360h512v61h-512zm0 0" fill="#64e1dc"/><path d="m256 360h256v61h-256zm0 0" fill="#00c8c8"/><path d="m482 90v270h-69.699219l-156.300781-23.101562-90-13.199219-136-75v-158.699219zm0 0" fill="#e0f4ff"/><path d="m482 90v270h-69.699219l-156.300781-23.101562v-246.898438zm0 0" fill="#bbdcff"/><g fill="#9abadb"><path d="m331 120h121v30h-121zm0 0"/><path d="m331 180h121v30h-121zm0 0"/><path d="m391 240h61v30h-61zm0 0"/></g><path d="m61 0h90v30h-90zm0 0" fill="#61729b"/><path d="m211 0h90v30h-90zm0 0" fill="#61729b"/><path d="m361 0h90v30h-90zm0 0" fill="#47568c"/><path d="m136 210c-24.8125 0-45-20.1875-45-45s20.1875-45 45-45 45 20.1875 45 45-20.1875 45-45 45zm0 0" fill="#ffb64c"/><path d="m256 0h45v30h-45zm0 0" fill="#47568c"/><path d="m412.300781 360h-382.300781v-111.300781l46-45 60 60 90-90zm0 0" fill="#9cdd05"/><path d="m412.300781 360h-156.300781v-156.300781zm0 0" fill="#6b0"/></svg>