<svg height="512pt" viewBox="-5 0 512 512.00105" width="512pt" xmlns="http://www.w3.org/2000/svg"><path d="m413.027344 504.511719h-321.84375c-8.285156 0-15-6.71875-15-15v-418.671875c0-8.285156 6.714844-15 15-15h321.84375c8.285156 0 15 6.714844 15 15v418.671875c0 8.28125-6.714844 15-15 15zm0 0" fill="#ffded5"/><path d="m413.046875 55.839844h-19.972656v416.046875c0 8.273437-6.707031 14.980469-14.980469 14.980469h-301.910156v2.660156c0 8.273437 6.707031 14.980468 14.980468 14.980468h321.882813c8.273437 0 14.980469-6.707031 14.980469-14.980468v-418.707032c0-8.273437-6.707032-14.980468-14.980469-14.980468zm0 0" fill="#f7c6ba"/><path d="m178.484375 72.132812h-52.445313v-30.023437c0-8.765625 7.109376-15.875 15.875-15.875h20.695313c8.765625 0 15.875 7.109375 15.875 15.875zm0 0" fill="#1dc2ff"/><path d="m380.902344 72.132812h-52.445313v-30.023437c0-8.765625 7.109375-15.875 15.878907-15.875h20.691406c8.769531 0 15.875 7.109375 15.875 15.875zm0 0" fill="#1dc2ff"/><path d="m152.261719 46.222656c-4.136719 0-7.488281-3.355468-7.488281-7.488281v-31.246094c0-4.136719 3.351562-7.488281 7.488281-7.488281s7.488281 3.355469 7.488281 7.488281v31.242188c0 4.136719-3.351562 7.492187-7.488281 7.492187zm0 0" fill="#00a2ff"/><path d="m354.679688 46.222656c-4.136719 0-7.488282-3.355468-7.488282-7.488281v-31.246094c0-4.136719 3.351563-7.488281 7.488282-7.488281 4.136718 0 7.492187 3.355469 7.492187 7.488281v31.242188c0 4.136719-3.355469 7.492187-7.492187 7.492187zm0 0" fill="#00a2ff"/><path d="m446.480469 183.503906h-111.179688c-8.285156 0-15-6.71875-15-15v-48.808594c0-8.285156 6.714844-15 15-15h111.179688c8.28125 0 15 6.714844 15 15v48.808594c0 8.28125-6.714844 15-15 15zm0 0" fill="#1dc2ff"/><path d="m446.5 104.695312h-19.308594c8.273438 0 14.980469 6.707032 14.980469 14.980469v48.847657c0 8.273437-6.707031 14.980468-14.980469 14.980468h19.308594c8.273438 0 14.980469-6.707031 14.980469-14.980468v-48.847657c0-8.273437-6.707031-14.980469-14.980469-14.980469zm0 0" fill="#00a2ff"/><path d="m297.394531 245.351562h-243.804687l-42.609375-12.914062c-5.171875-2.332031-5.214844-9.664062-.070313-12.054688l42.679688-13.34375h243.804687c10.582031 0 19.15625 8.578126 19.15625 19.15625 0 10.578126-8.574219 19.15625-19.15625 19.15625zm0 0" fill="#1dc2ff"/><path d="m299.183594 207.128906c.023437.375.054687.742188.054687 1.117188 0 10.582031-8.574219 19.15625-19.152343 19.15625l-272.933594.007812c.3125 2.074219 1.589844 4.019532 3.828125 5.027344l42.609375 12.914062h243.804687c10.578125 0 19.15625-8.578124 19.15625-19.15625 0-9.976562-7.628906-18.164062-17.367187-19.066406zm0 0" fill="#00a2ff"/><path d="m269.882812 149.996094h-153.828124c-4.140626 0-7.492188-3.351563-7.492188-7.488282 0-4.136718 3.355469-7.492187 7.492188-7.492187h153.828124c4.136719 0 7.492188 3.355469 7.492188 7.492187 0 4.136719-3.355469 7.488282-7.492188 7.488282zm0 0" fill="#32e4ff"/><path d="m219.980469 177.964844h-103.925781c-4.140626 0-7.492188-3.355469-7.492188-7.492188 0-4.136718 3.355469-7.488281 7.492188-7.488281h103.925781c4.136719 0 7.492187 3.351563 7.492187 7.488281 0 4.136719-3.355468 7.492188-7.492187 7.492188zm0 0" fill="#32e4ff"/><path d="m61.773438 207.039062h-8.183594l-42.679688 13.34375c-5.144531 2.390626-5.105468 9.722657.070313 12.054688l42.609375 12.914062h8.183594zm0 0" fill="#ffded5"/><path d="m7.167969 227.46875c.328125 2.054688 1.597656 3.972656 3.8125 4.96875l42.609375 12.914062h8.183594v-17.882812zm0 0" fill="#f7cdc4"/><path d="m38.691406 211.699219-27.78125 8.683593c-5.144531 2.390626-5.101562 9.722657.070313 12.054688l27.710937 8.398438zm0 0" fill="#00a2ff"/><path d="m176.765625 324.289062c0 20.640626-16.734375 37.375-37.375 37.375s-37.375-16.734374-37.375-37.375c0-20.640624 16.734375-37.371093 37.375-37.371093s37.375 16.730469 37.375 37.371093zm0 0" fill="#1dc2ff"/><path d="m479.140625 464.507812h-264.253906c-8.285157 0-15-6.714843-15-15v-147.414062c0-8.285156 6.714843-15 15-15h264.253906c8.28125 0 15 6.714844 15 15v147.414062c0 8.285157-6.71875 15-15 15zm0 0" fill="#1dc2ff"/><path d="m489.851562 460.007812-142.839843-149.964843-142.839844 149.964843c2.71875 2.773438 6.503906 4.5 10.695313 4.5h264.292968c4.191406 0 7.972656-1.726562 10.691406-4.5zm0 0" fill="#00a2ff"/><path d="m479.160156 287.09375h-8.144531v138.199219c0 8.273437-6.707031 14.980469-14.980469 14.980469h-233.0625l-18.800781 19.734374c.15625.160157.320313.308594.480469.457032.152344.140625.296875.277344.453125.410156.167969.144531.339843.285156.515625.425781.164062.128907.335937.253907.507812.378907s.339844.25.515625.363281c.324219.214843.65625.417969.996094.605469h.003906s0 .003906.003907.003906c.398437.21875.8125.417968 1.234374.605468.023438.007813.046876.019532.070313.03125.007813.003907.011719.007813.023437.011719.390626.167969.800782.3125 1.210938.449219.058594.019531.121094.046875.179688.066406.382812.121094.777343.214844 1.171874.304688.082032.019531.167969.046875.253907.066406.007812.003906.019531.007812.027343.007812.382813.078126.769532.128907 1.160157.179688.015625.003906.03125.007812.042969.007812.101562.011719.199218.035157.300781.046876.507812.050781 1.023437.078124 1.542969.078124h264.292968c8.273438 0 14.980469-6.707031 14.980469-14.980468v-147.453125c0-8.273438-6.707031-14.980469-14.980469-14.980469zm0 0" fill="#00a2ff"/><path d="m481.039062 464.378906c.394532-.050781.785157-.101562 1.164063-.179687.09375-.019531.183594-.050781.277344-.074219.398437-.089844.792969-.183594 1.175781-.304688.058594-.019531.113281-.046874.171875-.0625.414063-.136718.824219-.285156 1.222656-.457031.027344-.011719.050781-.027343.078125-.035156 1.78125-.777344 3.382813-1.886719 4.722656-3.257813l-23.101562-24.253906c-2.722656 2.78125-6.511719 4.519532-10.714844 4.519532h-233.0625l-18.800781 19.734374c1.019531 1.039063 2.1875 1.933594 3.472656 2.640626v.003906c.402344.222656.820313.421875 1.246094.609375 1.875.8125 3.925781 1.246093 5.976563 1.246093h264.289062c.523438 0 1.039062-.027343 1.542969-.078124.117187-.011719.226562-.039063.339843-.050782zm0 0" fill="#08f"/><path d="m347.011719 384.152344 141.785156-93.535156c-2.605469-2.195313-5.964844-3.523438-9.640625-3.523438h-264.289062c-3.675782 0-7.035157 1.328125-9.640626 3.523438zm0 0" fill="#32e4ff"/><path d="m102.015625 324.289062c0 5.792969 1.320313 11.273438 3.671875 16.167969 4.890625 2.351563 10.375 3.667969 16.164062 3.667969 20.640626 0 37.375-16.734375 37.375-37.375 0-5.789062-1.320312-11.273438-3.667968-16.164062-4.894532-2.351563-10.375-3.667969-16.167969-3.667969-20.640625 0-37.375 16.730469-37.375 37.371093zm0 0" fill="#32e4ff"/><path d="m269.882812 149.996094h-153.828124c-4.140626 0-7.492188-3.351563-7.492188-7.488282 0-4.136718 3.355469-7.492187 7.492188-7.492187h153.828124c4.136719 0 7.492188 3.355469 7.492188 7.492187 0 4.136719-3.355469 7.488282-7.492188 7.488282zm0 0"/><path d="m219.980469 177.964844h-103.925781c-4.140626 0-7.492188-3.355469-7.492188-7.492188 0-4.136718 3.355469-7.488281 7.492188-7.488281h103.925781c4.136719 0 7.492187 3.351563 7.492187 7.488281 0 4.136719-3.355468 7.492188-7.492187 7.492188zm0 0"/><path d="m493.792969 284.867188c-.109375-.097657-.214844-.195313-.328125-.285157-3.886719-3.21875-8.875-5.15625-14.304688-5.15625h-43.640625v-88.433593h10.980469c12.410156 0 22.472656-10.058594 22.472656-22.46875v-48.847657c0-12.410156-10.0625-22.472656-22.472656-22.472656h-10.980469v-26.382813c0-12.410156-10.058593-22.46875-22.472656-22.46875h-24.652344v-6.261718c0-12.894532-10.453125-23.347656-23.347656-23.347656h-2.875v-10.96875c0-3.828126-2.75-7.253907-6.550781-7.7148442-4.558594-.5546878-8.429688 2.9882812-8.429688 7.4296872v11.253907h-2.875c-12.894531 0-23.347656 10.453124-23.347656 23.347656v6.261718h-134.996094v-6.261718c0-12.894532-10.449218-23.347656-23.34375-23.347656h-2.878906v-10.96875c0-3.828126-2.75-7.253907-6.550781-7.7148442-4.554688-.5546878-8.425781 2.9882812-8.425781 7.4296872v11.253907h-2.878907c-12.894531 0-23.34375 10.453124-23.34375 23.347656v6.261718h-27.386719c-12.410156 0-22.472656 10.058594-22.472656 22.46875v98.507813c0 3.828125 2.753906 7.253906 6.554688 7.714844 4.554687.554687 8.425781-2.988281 8.425781-7.433594v-98.789063c0-4.136718 3.355469-7.488281 7.492187-7.488281h27.382813v8.800781c0 4.136719 3.355469 7.488282 7.492187 7.488282h52.441407c4.136719 0 7.492187-3.351563 7.492187-7.488282v-8.800781h134.992188v8.800781c0 4.136719 3.355468 7.488282 7.492187 7.488282h52.441407c4.136718 0 7.492187-3.351563 7.492187-7.488282v-8.800781h24.65625c4.136719 0 7.488281 3.351563 7.488281 7.488281v26.382813h-85.257812c-12.410156 0-22.46875 10.0625-22.46875 22.472656v48.847657c0 12.410156 10.058594 22.46875 22.46875 22.46875h85.257812v88.433593h-205.667968c-5.433594 0-10.417969 1.9375-14.308594 5.160157-.113282.089843-.21875.183593-.328125.28125-4.789063 4.125-7.835938 10.226562-7.835938 17.03125v147.453124c0 6.222657 2.546875 11.863282 6.648438 15.9375.027343.027344.050781.054688.078125.082032.023437.023437.050781.042968.078125.066406 4.050781 3.945312 9.578125 6.382812 15.667969 6.382812h205.671874v17.710938c0 4.136719-3.355468 7.488281-7.492187 7.488281h-321.882813c-4.136718 0-7.492187-3.351562-7.492187-7.488281v-236.691406h212.578125c14.015625 0 26.054688-10.613282 27.105469-24.589844 1.179687-15.617188-11.195313-28.699219-26.566407-28.699219h-243.804687c-.777344 0-1.546875.117188-2.285156.355469l-41.660157 13.34375c-.242187.078125-.484374.167969-.71875.273438-5.160156 2.328124-8.351562 7.304687-8.320312 12.953124.03125 5.644532 3.277344 10.585938 8.460938 12.855469.230468.101563.472656.183594.714843.261719l41.589844 12.910156c.71875.222656 1.464844.335938 2.21875.335938h15.710937v236.691406c0 12.410156 10.058594 22.46875 22.46875 22.46875h321.886719c12.410157 0 22.46875-10.058594 22.46875-22.46875v-17.710938h43.640625c12.410156 0 22.46875-10.058593 22.46875-22.46875v-147.453124c0-6.804688-3.042968-12.910157-7.835937-17.03125zm-322.800781-220.226563h-37.460938v-22.550781c0-4.621094 3.742188-8.367188 8.363281-8.367188h2.878907v4.664063c0 4.117187 3.46875 7.832031 7.585937 7.832031 4.289063 0 7.390625-3.773438 7.390625-7.488281v-5.007813h2.878906c4.621094 0 8.363282 3.746094 8.363282 8.367188zm202.421874 0h-37.464843v-22.550781c0-4.621094 3.746093-8.367188 8.367187-8.367188h2.875v4.726563c0 3.828125 2.871094 7.714843 7.613282 7.714843 4.589843 0 7.367187-3.929687 7.367187-7.429687v-5.007813h2.875c4.621094 0 8.367187 3.742188 8.367187 8.363282zm-319.132812 173.21875h-.160156l-36.972656-11.476563 37.007812-11.851562h.125zm14.980469 0v-23.328125h227.132812c6.101563 0 11.464844 4.515625 12.011719 10.589844.621094 6.914062-4.832031 12.738281-11.617188 12.738281zm266.019531-61.847656c-4.136719 0-7.492188-3.351563-7.492188-7.488281v-48.847657c0-4.136719 3.355469-7.488281 7.492188-7.488281h111.21875c4.136719 0 7.488281 3.351562 7.488281 7.488281v48.847657c0 4.136718-3.351562 7.488281-7.488281 7.488281zm133.902344 118.394531-122.171875 80.59375-122.167969-80.59375zm17.464844 146.402344-66.359376-69.863282c-2.847656-3-7.589843-3.121093-10.589843-.273437-2.996094 2.847656-3.121094 7.589844-.269531 10.589844l71.804687 75.585937-263.683594-.007812 68.085938-71.679688c2.847656-2.996094 2.726562-7.738281-.273438-10.585937-3-2.851563-7.738281-2.730469-10.589843.273437l-67.398438 70.953125v-144.964843l135.511719 89.390624c2.476562 1.632813 5.773437 1.632813 8.25 0l135.511719-89.371093zm0 0"/><path d="m94.527344 324.292969c0 24.734375 20.125 44.863281 44.863281 44.863281s44.863281-20.128906 44.863281-44.863281c0-24.742188-20.125-44.867188-44.863281-44.867188s-44.863281 20.125-44.863281 44.867188zm74.746094 0c0 16.476562-13.40625 29.882812-29.882813 29.882812-16.480469 0-29.886719-13.40625-29.886719-29.882812 0-16.480469 13.40625-29.886719 29.886719-29.886719 16.476563 0 29.882813 13.40625 29.882813 29.886719zm0 0"/></svg>