<svg height="511pt" viewBox="0 -37 511.99938 511" width="511pt" xmlns="http://www.w3.org/2000/svg"><path d="m115.367188 416.5h-101.925782c-3.277344 0-5.9375-2.660156-5.9375-5.9375v-157.09375c0-3.277344 2.65625-5.9375 5.9375-5.9375h101.921875c3.28125 0 5.941407 2.660156 5.941407 5.9375v157.09375c0 3.277344-2.660157 5.9375-5.9375 5.9375zm0 0" fill="#5ee2c5"/><path d="m115.367188 416.5h-101.925782c-3.277344 0-5.9375-2.660156-5.9375-5.9375v-37.871094h113.800782v37.871094c0 3.277344-2.660157 5.9375-5.9375 5.9375zm0 0" fill="#00d3b4"/><path d="m161.582031 268.332031h45.203125c6.785156 0 13.53125 1.035157 20.003906 3.0625l120.570313 37.804688c11.863281 3.722656 24.640625 3.242187 36.191406-1.351563l78.527344-31.242187c12.410156-4.9375 26.585937-1.359375 35.164063 8.878906 10.175781 12.144531 9.539062 29.996094-1.46875 41.390625-25.832032 26.742188-75.875 72.433594-134.574219 94.6875-16.882813 6.398438-35 8.839844-52.988281 7.316406-38.136719-3.238281-112.714844-12.667968-146.628907-38.332031zm0 0" fill="#ffcebf"/><path d="m504.476562 305.367188c0 7.777343-2.921874 15.539062-8.699218 21.511718-25.835938 26.738282-75.875 72.4375-134.582032 94.6875-16.878906 6.390625-35 8.84375-52.976562 7.3125-38.148438-3.226562-112.730469-12.667968-146.636719-38.324218v-26.578126c33.90625 25.671876 108.488281 35.097657 146.636719 38.339844 17.976562 1.515625 36.097656-.917968 52.976562-7.324218 58.707032-22.253907 108.746094-67.9375 134.582032-94.675782 2.40625-2.484375 4.308594-5.261718 5.699218-8.230468 2 4.195312 3 8.746093 3 13.28125zm0 0" fill="#ffbfab"/><path d="m155.898438 402.753906h-34.59375v-141.476562h34.59375c3.140624 0 5.683593 2.542968 5.683593 5.683594v130.109374c0 3.140626-2.542969 5.683594-5.683593 5.683594zm0 0" fill="#f9efef"/><path d="m155.898438 402.753906h-34.59375v-42.050781h40.277343v36.367187c0 3.140626-2.542969 5.683594-5.683593 5.683594zm0 0" fill="#efe2dd"/><path d="m471.523438 222.890625h-296.109376c-4.421874 0-8.003906-3.582031-8.003906-8v-198.886719c0-4.417968 3.582032-8 8.003906-8h296.109376c4.421874 0 8.003906 3.582032 8.003906 8v198.886719c0 4.417969-3.582032 8-8.003906 8zm0 0" fill="#efe2dd"/><path d="m471.523438 222.890625h-20.074219v-214.886719h20.074219c4.421874 0 8.003906 3.582032 8.003906 8v198.886719c0 4.417969-3.582032 8-8.003906 8zm0 0" fill="#e1d3ce"/><path d="m442.714844 65.601562c0 14.503907-11.753906 26.257813-26.257813 26.257813-14.5 0-26.257812-11.753906-26.257812-26.257813 0-14.5 11.757812-26.253906 26.257812-26.253906 14.503907 0 26.257813 11.753906 26.257813 26.253906zm0 0" fill="#ffc143"/><path d="m442.71875 65.597656c0 14.507813-11.753906 26.257813-26.257812 26.257813-7.84375 0-14.875-3.429688-19.675782-8.878907 2.25.636719 4.628906.976563 7.089844.976563 14.496094 0 26.257812-11.75 26.257812-26.257813 0-6.660156-2.480468-12.742187-6.570312-17.363281 11.054688 3.089844 19.15625 13.234375 19.15625 25.265625zm0 0" fill="#ffb509"/><path d="m471.523438 222.890625h-296.109376c-4.421874 0-8.003906-3.582031-8.003906-8v-24.378906h312.117188v24.378906c0 4.417969-3.582032 8-8.003906 8zm0 0" fill="#ff4343"/><path d="m471.523438 222.890625h-20.074219v-32.378906h28.078125v24.378906c0 4.417969-3.582032 8-8.003906 8zm0 0" fill="#f72c2c"/><path d="m502.992188 280.667969c-10.679688-12.746094-28.234376-17.179688-43.6875-11.03125l-78.527344 31.238281c-9.910156 3.945312-20.972656 4.359375-31.152344 1.175781l-120.59375-37.8125c-6.304688-1.980469-12.824219-3.105469-19.417969-3.355469-.941406-.035156-1.882812-.054687-2.828125-.054687h-39.21875c-2.210937-4.1875-6.609375-7.054687-11.667968-7.054687h-27.089844v-.304688c0-7.410156-6.03125-13.441406-13.441406-13.441406h-101.925782c-7.410156 0-13.441406 6.03125-13.441406 13.441406v53.21875c0 4.144531 3.359375 7.503906 7.503906 7.503906 4.140625 0 7.5-3.359375 7.5-7.503906v-51.65625h98.800782v153.964844h-98.800782v-67.628906c0-4.144532-3.359375-7.503907-7.5-7.503907-4.144531 0-7.503906 3.359375-7.503906 7.503907v69.195312c0 7.410156 6.03125 13.441406 13.441406 13.441406h101.925782c7.410156 0 13.441406-6.03125 13.441406-13.441406v-.308594h27.089844c5.007812 0 9.371093-2.800781 11.601562-6.921875 37.792969 21.433594 102.632812 29.84375 140.078125 33.019531 3.621094.308594 7.25.460938 10.882813.460938 15.542968 0 31.046874-2.796875 45.394531-8.234375 60.542969-22.949219 112.019531-70.304687 137.316406-96.488281 13.710937-14.195313 14.492187-36.300782 1.820313-51.421875zm-348.910157 109.878906v4.703125h-25.273437v-126.472656h25.273437zm336.296875-68.882813c-24.425781 25.28125-74.035156 70.96875-131.839844 92.882813-15.617187 5.917969-32.800781 8.292969-49.691406 6.855469-88.335937-7.492188-125.839844-25.4375-139.761718-34.726563v-110.839843h37.699218c6.03125 0 12.003906.914062 17.757813 2.71875l120.5625 37.800781.253906.082031c8.367187 2.582031 13.542969 10.898438 12.042969 19.335938l-.175782.988281c-1.539062 8.652343-9.597656 14.773437-18.351562 13.964843l-99.730469-9.371093c-4.128906-.375-7.785156 2.644531-8.171875 6.769531-.386718 4.125 2.640625 7.78125 6.765625 8.167969l99.734375 9.371093c.992188.09375 1.976563.140626 2.957032.140626 15.289062 0 28.847656-11.113282 31.570312-26.414063l.175781-.988281c1.214844-6.839844.121094-13.625-2.761719-19.523438 5.769532-.550781 11.472657-1.898437 16.910157-4.058594l78.527343-31.242187c9.421876-3.75 20.128907-1.046875 26.640626 6.726563 7.726562 9.222656 7.25 22.703124-1.113282 31.359374zm0 0"/><path d="m450.21875 65.601562c0-18.613281-15.144531-33.757812-33.761719-33.757812-18.613281 0-33.757812 15.144531-33.757812 33.757812 0 18.617188 15.144531 33.761719 33.757812 33.761719 18.617188 0 33.761719-15.144531 33.761719-33.761719zm-33.761719 18.753907c-10.339843 0-18.753906-8.410157-18.753906-18.753907 0-10.339843 8.414063-18.753906 18.753906-18.753906 10.34375 0 18.753907 8.414063 18.753907 18.753906 0 10.34375-8.410157 18.753907-18.753907 18.753907zm0 0"/><path d="m175.414062 230.394531h296.109376c8.550781 0 15.507812-6.957031 15.507812-15.503906v-136.773437c0-4.144532-3.359375-7.503907-7.503906-7.503907-4.144532 0-7.5 3.359375-7.5 7.503907v104.894531h-297.113282v-167.007813c0-.273437.222657-.5.5-.5h296.109376c.277343 0 .503906.226563.503906.5v27.851563c0 4.144531 3.355468 7.503906 7.5 7.503906 4.144531 0 7.503906-3.359375 7.503906-7.503906v-27.851563c0-8.550781-6.957031-15.503906-15.507812-15.503906h-296.109376c-8.550781 0-15.503906 6.953125-15.503906 15.503906v198.882813c0 8.550781 6.953125 15.507812 15.503906 15.507812zm-.5-32.378906h297.113282v16.875c0 .273437-.226563.5-.503906.5h-296.109376c-.277343 0-.5-.226563-.5-.5zm0 0"/><path d="m213.472656 89.152344h49.902344c4.144531 0 7.503906-3.359375 7.503906-7.503906 0-4.144532-3.359375-7.5-7.503906-7.5h-49.902344c-4.144531 0-7.503906 3.355468-7.503906 7.5 0 4.144531 3.359375 7.503906 7.503906 7.503906zm0 0"/><path d="m306 105.65625c0-4.144531-3.359375-7.5-7.5-7.5h-85.027344c-4.144531 0-7.503906 3.355469-7.503906 7.5s3.359375 7.503906 7.503906 7.503906h85.027344c4.140625 0 7.5-3.359375 7.5-7.503906zm0 0"/><path d="m213.472656 141.742188c-4.144531 0-7.503906 3.359374-7.503906 7.503906 0 4.144531 3.359375 7.5 7.503906 7.5h42.511719c4.144531 0 7.503906-3.355469 7.503906-7.5 0-4.144532-3.359375-7.503906-7.503906-7.503906zm0 0"/><path d="m286.953125 156.746094h138.238281c4.144532 0 7.5-3.355469 7.5-7.5 0-4.144532-3.355468-7.503906-7.5-7.503906h-138.238281c-4.140625 0-7.5 3.359374-7.5 7.503906 0 4.144531 3.359375 7.5 7.5 7.5zm0 0"/></svg>