<svg height="512pt" viewBox="-67 0 512 512.002" width="512pt" xmlns="http://www.w3.org/2000/svg"><path d="m253.378906 71.382812c0 35.28125-28.601562 63.882813-63.886718 63.882813-35.28125 0-63.882813-28.601563-63.882813-63.882813s28.601563-63.882812 63.882813-63.882812c35.285156 0 63.886718 28.601562 63.886718 63.882812zm0 0" fill="#ebad88"/><path d="m189.492188 7.5c-5.167969 0-10.183594.628906-15 1.789062 28.042968 6.75 48.886718 31.980469 48.886718 62.09375 0 30.113282-20.84375 55.34375-48.886718 62.09375 4.816406 1.160157 9.832031 1.789063 15 1.789063 35.285156 0 63.886718-28.601563 63.886718-63.882813s-28.605468-63.882812-63.886718-63.882812zm0 0" fill="#e8916f"/><path d="m254.796875 310.238281h-130.605469c-7.839844 0-14.195312-6.355469-14.195312-14.195312v-103.992188c0-31.359375 25.421875-56.785156 56.785156-56.785156h45.425781c31.363281 0 56.785157 25.421875 56.785157 56.785156v103.992188c0 7.839843-6.355469 14.195312-14.195313 14.195312zm0 0" fill="#ffca28"/><path d="m212.207031 135.265625h-30c31.363281 0 56.785157 25.421875 56.785157 56.785156v103.992188c0 7.839843-6.355469 14.195312-14.195313 14.195312h30c7.839844 0 14.195313-6.355469 14.195313-14.195312v-103.992188c0-31.363281-25.421876-56.785156-56.785157-56.785156zm0 0" fill="#ffb300"/><path d="m332.875 192.296875c0 35.28125-28.601562 63.882813-63.882812 63.882813s-63.882813-28.601563-63.882813-63.882813c0-35.285156 28.601563-63.886719 63.882813-63.886719s63.882812 28.601563 63.882812 63.886719zm0 0" fill="#ebad88"/><path d="m268.992188 128.410156c-5.167969 0-10.1875.632813-15 1.789063 28.039062 6.75 48.882812 31.980469 48.882812 62.09375s-20.84375 55.34375-48.882812 62.097656c4.8125 1.15625 9.832031 1.785156 15 1.785156 35.28125 0 63.882812-28.601562 63.882812-63.882812s-28.601562-63.882813-63.882812-63.882813zm0 0" fill="#e8916f"/><path d="m348.492188 312.960938v70.980468c0 7.839844-6.359376 14.199219-14.199219 14.199219h-130.597657c-7.839843 0-14.203124-6.359375-14.203124-14.199219v-70.980468c0-31.359376 25.421874-56.78125 56.78125-56.78125h45.429687c31.359375 0 56.789063 25.421874 56.789063 56.78125zm0 0" fill="#ff5622"/><path d="m348.492188 312.960938v70.980468c0 7.839844-6.359376 14.199219-14.199219 14.199219h-30c7.839843 0 14.199219-6.359375 14.199219-14.199219v-70.980468c0-31.359376-25.417969-56.78125-56.777344-56.78125h29.988281c31.359375 0 56.789063 25.421874 56.789063 56.78125zm0 0" fill="#e8491d"/><path d="m173.878906 192.296875c0 35.28125-28.601562 63.882813-63.882812 63.882813s-63.882813-28.601563-63.882813-63.882813c0-35.285156 28.601563-63.886719 63.882813-63.886719s63.882812 28.601563 63.882812 63.886719zm0 0" fill="#ebad88"/><path d="m109.996094 128.410156c-5.167969 0-10.1875.632813-15 1.789063 28.039062 6.75 48.882812 31.980469 48.882812 62.09375s-20.84375 55.34375-48.882812 62.097656c4.8125 1.15625 9.832031 1.785156 15 1.785156 35.28125 0 63.882812-28.601562 63.882812-63.882812s-28.601562-63.882813-63.882812-63.882813zm0 0" fill="#e8916f"/><path d="m175.296875 398.140625h-130.605469c-7.839844 0-14.195312-6.355469-14.195312-14.195313v-70.980468c0-31.363282 25.421875-56.785156 56.785156-56.785156h45.429688c31.359374 0 56.78125 25.421874 56.78125 56.785156v70.980468c0 7.839844-6.355469 14.195313-14.195313 14.195313zm0 0" fill="#ff5622"/><path d="m132.710938 256.175781h-30c31.359374 0 56.78125 25.425781 56.78125 56.785157v70.980468c0 7.839844-6.355469 14.199219-14.195313 14.199219h30c7.839844 0 14.195313-6.359375 14.195313-14.199219v-70.980468c0-31.359376-25.421876-56.785157-56.78125-56.785157zm0 0" fill="#e8491d"/><path d="m307.40625 403.203125-36.828125-35.050781-90.339844 12.164062s-80.152343 3.355469-97.480469 3.355469c-17.328124 0-49.941406-25.386719-49.941406-25.386719-8.761718-4.878906-19.824218-1.5-24.363281 7.441406l-.339844.679688c-1.289062 2.539062-.507812 5.640625 1.824219 7.261719 0 0 48.089844 43.488281 62.433594 43.488281s93.492187 8.648438 93.492187 8.648438l52.9375 22.972656 55.425781 29.257812 33.179688 17.519532zm0 0" fill="#ebad88"/><path d="m142.796875 405.578125c20.957031 2.371094 27.898437 3.488281 42.753906 1.253906 12.972657-1.949219 33.457031 4.101563 33.457031 4.101563s15.488282-21.140625 29.777344-39.84375l-68.546875 9.226562s-80.152343 3.355469-97.480469 3.355469c9.738282 9.90625 41.414063 19.796875 60.039063 21.90625zm0 0" fill="#e8916f"/><path d="m307.40625 404.878906c0-.078125.007812-.152344.011719-.230468l-24.457031-26.597657c-14.527344-14.28125-34.09375-22.289062-54.480469-22.289062l-57.785157 6.421875c-16.617187 0-30.695312 7.03125-30.695312 23.625 0 3.964844 3.222656 7.179687 7.191406 7.179687h34.421875c14.546875 0 28.308594 6.605469 37.394531 17.945313 0 0 25.320313 5.480468 44.695313 3.621094zm0 0" fill="#ebad88"/><path d="m307.40625 400.5h64.085938v104h-64.085938zm0 0" fill="#42a5f5"/><path d="m341.453125 400.5h30.039063v104h-30.039063zm0 0" fill="#2196f3"/><path d="m326.570312 460.015625h-19.164062v-30h19.164062c8.21875 0 14.882813 6.664063 14.882813 14.882813v.234374c0 8.21875-6.664063 14.882813-14.882813 14.882813zm0 0" fill="#ffd54f"/><path d="m371.5 393h-17.484375c1.273437-2.757812 1.984375-5.828125 1.984375-9.058594v-8.351562c0-4.144532-3.359375-7.5-7.5-7.5-4.144531 0-7.5 3.355468-7.5 7.5v8.351562c0 3.691406-3.007812 6.699219-6.699219 6.699219h-29.210937l-2.980469-2.835937c-2.535156-2.574219-4.726563-5.050782-6.847656-7.449219-5.527344-6.242188-10.75-12.140625-20.523438-18.445313-.015625-.007812-.027343-.015625-.042969-.027344-.015624-.011718-.035156-.023437-.054687-.035156-13.78125-8.886718-29.742187-13.585937-46.15625-13.585937-.273437 0-.550781.015625-.828125.046875l-30.664062 3.40625v-38.753906c0-27.175782 22.109374-49.28125 49.285156-49.28125h45.429687c27.179688 0 49.292969 22.105468 49.292969 49.28125v31.09375c0 4.140624 3.355469 7.5 7.5 7.5 4.140625 0 7.5-3.359376 7.5-7.5v-31.09375c0-29.328126-19.746094-54.128907-46.640625-61.816407 18.722656-12.882812 31.019531-34.457031 31.019531-58.851562 0-39.359375-32.023437-71.382813-71.382812-71.382813-13.359375 0-25.875 3.6875-36.578125 10.101563-.84375-.28125-1.695313-.542969-2.550781-.785157 18.714843-12.882812 31.011718-34.453124 31.011718-58.84375 0-39.359374-32.023437-71.382812-71.386718-71.382812-39.359376 0-71.382813 32.023438-71.382813 71.382812 0 24.390626 12.292969 45.960938 31.011719 58.84375-.855469.242188-1.707032.503907-2.550782.785157-10.703124-6.410157-23.21875-10.101563-36.578124-10.101563-11.695313 0-23.304688 2.894532-33.5625 8.367188-3.65625 1.953125-5.039063 6.496094-3.085938 10.148437 1.949219 3.652344 6.492188 5.035157 10.144531 3.085938 8.097657-4.316407 17.261719-6.601563 26.503907-6.601563 31.09375 0 56.386718 25.292969 56.386718 56.382813 0 31.089843-25.292968 56.382812-56.386718 56.382812-31.089844 0-56.382813-25.292969-56.382813-56.382812 0-10.972657 3.152344-21.605469 9.117187-30.753907 2.261719-3.46875 1.285157-8.113281-2.1875-10.378906-3.46875-2.261718-8.113281-1.28125-10.378906 2.1875-7.558594 11.589844-11.550781 25.054688-11.550781 38.945313 0 24.394531 12.296875 45.96875 31.019531 58.851562-26.894531 7.6875-46.640625 32.488281-46.640625 61.816407v35.613281c-2.050781.101562-4.109375.460937-6.128906 1.078125-6.609375 2.019531-11.96875 6.523437-15.121094 12.726562l-.316406.636719c-2.882813 5.675781-1.253906 12.652344 3.765625 16.476563 1.953125 1.757812 13.097656 11.707031 25.945312 21.816406 26.304688 20.699218 35.855469 23.351562 41.238282 23.351562 10.871094 0 63.964844 5.46875 91.550781 8.472656l17.019531 7.386719c.972656.421875 1.984375.621094 2.984375.621094 2.894531 0 5.652344-1.6875 6.882813-4.515625 1.648437-3.796875-.09375-8.214844-3.894532-9.863281l-18.0625-7.84375c-.691406-.300781-1.425781-.492188-2.171874-.574219-3.25-.355469-79.726563-8.683594-94.304688-8.683594-5.621094-.117187-29.785156-16.640625-56.925781-41.109375 1.296875-2.195312 3.328125-3.800781 5.789062-4.550781 2.128907-.652344 4.351563-.59375 6.398438.144531.113281.050781.230469.09375.347656.136719.25.101562.5.210938.742187.332031 5.414063 4.160157 35.414063 26.554688 54.023438 26.554688 6.796875 0 23.277344-.484375 50.273438-1.480469 1.703124 6.21875 7.410156 10.800781 14.167968 10.800781h34.421875c12.339844 0 23.839844 5.515625 31.546875 15.132813 1.484375 1.847656 3.660156 2.808594 5.859375 2.808594 1.648438 0 3.300781-.539063 4.6875-1.648438 3.230469-2.589844 3.75-7.308594 1.160157-10.542969-10.570313-13.183593-26.335938-20.746093-43.253907-20.746093h-34.105469c.011719-.828126.078126-1.644532.1875-2.425782.007813-.046875.015626-.09375.019532-.140625.632812-4.054687 4.152344-13.242187 22.980468-13.242187.277344 0 .550782-.015625.828126-.046875l57.367187-6.375c13.335937.078125 26.292969 3.917969 37.507813 11.121093.082031.050782.160156.105469.242187.15625 8.019531 5.179688 12.363281 10.085938 17.390625 15.761719 2.257812 2.550781 4.597656 5.191407 7.425781 8.0625.015625.015625.027344.03125.042969.046875.019531.019532.042969.042969.0625.0625.023438.023438.046875.042969.070312.066406l.035157.035157 5.113281 4.867187c.089844.089844.183594.175782.277344.261719l2.851562 2.714844v76.703125l-77.601562-40.972656c-.167969-.085938-.339844-.167969-.515625-.246094l-5.519531-2.394532c-3.800782-1.652343-8.21875.09375-9.867188 3.890626-1.648438 3.800781.09375 8.21875 3.894531 9.867187l5.253907 2.28125 84.355468 44.539063v4.417968c0 4.140625 3.359375 7.5 7.5 7.5h64.089844c4.144531 0 7.5-3.359375 7.5-7.5v-104c0-4.144531-3.359375-7.503906-7.5-7.503906zm-46.121094-200.707031c0 31.089843-25.292968 56.382812-56.382812 56.382812-31.09375 0-56.386719-25.292969-56.386719-56.382812 0-31.089844 25.292969-56.382813 56.386719-56.382813 31.089844 0 56.382812 25.292969 56.382812 56.382813zm-192.269531-120.910157c0-31.089843 25.292969-56.382812 56.382813-56.382812 31.09375 0 56.386718 25.292969 56.386718 56.382812 0 31.089844-25.292968 56.382813-56.386718 56.382813-31.089844 0-56.382813-25.292969-56.382813-56.382813zm48.269531 120.910157c0-19.082031-7.527344-36.4375-19.769531-49.257813 4.5-.464844 3.34375-.179687 50.59375-.265625 1.738281 0 3.464844.089844 5.171875.265625-12.238281 12.820313-19.765625 30.175782-19.765625 49.257813 0 24.394531 12.296875 45.96875 31.019531 58.847656-16.921875 4.839844-31.011718 16.453125-39.136718 31.707031-8.121094-15.253906-22.214844-26.867187-39.136719-31.707031 18.722656-12.878906 31.023437-34.453125 31.023437-58.847656zm-11.113281 162.390625c-17.890625.117187-31.003906 7.582031-35.78125 19.9375-27.660156 1.027344-45.050781 1.550781-51.734375 1.550781-10.554688 0-32.777344-14.136719-44.761719-23.355469v-39.855468c0-27.175782 22.113281-49.28125 49.292969-49.28125h45.429688c27.175781 0 49.28125 22.105468 49.28125 49.28125v40.417968zm144.644531 82.832031h11.664063c4.070312 0 7.382812 3.308594 7.382812 7.378906v.238281c0 4.070313-3.3125 7.382813-7.382812 7.382813h-11.664063zm49.089844 59.484375h-49.089844v-29.484375h11.664063c12.34375 0 22.382812-10.039063 22.382812-22.382813v-.234374c0-12.34375-10.039062-22.382813-22.382812-22.382813h-11.664063v-14.515625h49.089844zm0 0"/></svg>