<svg height="512pt" viewBox="0 -31 512 512" width="512pt" xmlns="http://www.w3.org/2000/svg"><path d="m53.03125 37.164062c0 11.847657-9.605469 21.453126-21.457031 21.453126-11.847657 0-21.453125-9.605469-21.453125-21.453126 0-11.847656 9.605468-21.453124 21.453125-21.453124 11.851562 0 21.457031 9.605468 21.457031 21.453124zm0 0" fill="#f9f9f9"/><path d="m168.761719 123.210938c7.246093 0 13.9375 3.863281 17.550781 10.132812l31.226562 54.199219c3.382813 5.871093 3.972657 12.9375 1.613282 19.289062l-33.890625 91.167969h-75.238281l-33.890626-91.167969c-2.359374-6.351562-1.769531-13.421875 1.613282-19.289062l31.226562-54.199219c3.613282-6.269531 10.304688-10.132812 17.550782-10.132812zm0 0" fill="#d7d6d8"/><path d="m87.789062 298h119.707032v45.234375h-119.707032zm0 0" fill="#b3b0b5"/><path d="m194.511719 438.808594h-93.738281l-28.367188-95.574219h150.472656zm0 0" fill="#b0aeed"/><path d="m169.097656 207.683594c0 11.847656-9.605468 21.453125-21.453125 21.453125-11.847656 0-21.453125-9.605469-21.453125-21.453125s9.605469-21.453125 21.453125-21.453125c11.847657 0 21.453125 9.605469 21.453125 21.453125zm0 0" fill="#f9f9f9"/><path d="m285.164062 37.164062c0 11.847657-9.605468 21.453126-21.453124 21.453126-11.847657 0-21.453126-9.605469-21.453126-21.453126 0-11.847656 9.605469-21.453124 21.453126-21.453124 11.847656 0 21.453124 9.605468 21.453124 21.453124zm0 0" fill="#f9f9f9"/><path d="m120.152344 9.671875h54.980468v54.984375h-54.980468zm0 0" fill="#79b2ff"/><path d="m412.855469 38.816406 67.558593 124.484375h-135.121093zm0 0" fill="#91d9b9"/><path d="m434.308594 38.816406c0 11.847656-9.605469 21.453125-21.453125 21.453125-11.851563 0-21.453125-9.605469-21.453125-21.453125s9.601562-21.453125 21.453125-21.453125c11.847656 0 21.453125 9.605469 21.453125 21.453125zm0 0" fill="#f9f9f9"/><path d="m366.746094 162.320312c0 11.847657-9.605469 21.453126-21.453125 21.453126-11.847657 0-21.453125-9.605469-21.453125-21.453126 0-11.847656 9.605468-21.453124 21.453125-21.453124 11.847656 0 21.453125 9.605468 21.453125 21.453124zm0 0" fill="#f9f9f9"/><path d="m501.867188 162.320312c0 11.847657-9.605469 21.453126-21.453126 21.453126-11.847656 0-21.453124-9.605469-21.453124-21.453126 0-11.847656 9.605468-21.453124 21.453124-21.453124 11.847657 0 21.453126 9.605468 21.453126 21.453124zm0 0" fill="#f9f9f9"/><path d="m340.367188 274.183594h140.066406v142.984375h-140.066406zm0 0" fill="#ffcb7c"/><g fill="#f9f9f9"><path d="m501.878906 276.648438c0 11.847656-9.605468 21.453124-21.453125 21.453124-11.851562 0-21.457031-9.605468-21.457031-21.453124 0-11.847657 9.605469-21.453126 21.457031-21.453126 11.847657 0 21.453125 9.605469 21.453125 21.453126zm0 0"/><path d="m361.226562 276.648438c0 11.847656-9.601562 21.453124-21.453124 21.453124-11.847657 0-21.453126-9.605468-21.453126-21.453124 0-11.847657 9.605469-21.453126 21.453126-21.453126 11.851562 0 21.453124 9.605469 21.453124 21.453126zm0 0"/><path d="m501.878906 417.171875c0 11.847656-9.605468 21.453125-21.453125 21.453125-11.851562 0-21.457031-9.605469-21.457031-21.453125 0-11.851563 9.605469-21.453125 21.457031-21.453125 11.847657 0 21.453125 9.601562 21.453125 21.453125zm0 0"/><path d="m361.226562 417.171875c0 11.847656-9.601562 21.453125-21.453124 21.453125-11.847657 0-21.453126-9.605469-21.453126-21.453125 0-11.851563 9.605469-21.453125 21.453126-21.453125 11.851562 0 21.453124 9.601562 21.453124 21.453125zm0 0"/></g><path d="m222.878906 333.558594h-5.257812v-34.820313c0-5.589843-4.53125-10.121093-10.121094-10.121093h-7.683594l28.828125-77.675782c3.417969-9.210937 2.570313-19.375-2.328125-27.890625l-31.230468-54.289062c-5.402344-9.390625-15.488282-15.226563-26.320313-15.226563h-42.242187c-10.835938 0-20.921876 5.835938-26.324219 15.226563l-31.230469 54.289062c-4.894531 8.515625-5.746094 18.679688-2.328125 27.890625l28.828125 77.671875h-7.679688c-5.589843 0-10.125 4.53125-10.125 10.125v34.820313h-5.257812c-6.59375 0-11.589844 6.652344-9.703125 13.003906l28.367187 95.574219c1.273438 4.296875 5.222657 7.246093 9.703126 7.246093h93.738281c4.480469 0 8.429687-2.949218 9.703125-7.246093l28.367187-95.574219c1.878907-6.320312-3.078125-13.003906-9.703125-13.003906zm-75.234375-136.753906c6.246094 0 11.328125 5.082031 11.328125 11.328124 0 6.25-5.082031 11.332032-11.328125 11.332032-6.25 0-11.332031-5.082032-11.332031-11.332032 0-6.246093 5.082031-11.328124 11.332031-11.328124zm-62.023437 7.089843c-1.316406-3.546875-.988282-7.46875.898437-10.75l31.230469-54.285156c3.878906-6.746094 13.234375-5.074219 19.769531-5.074219v44.445313c-12.457031 4.230469-21.453125 16.03125-21.453125 29.902343 0 17.414063 14.164063 31.578126 31.578125 31.578126 17.410157 0 31.574219-14.164063 31.574219-31.578126 0-13.871093-8.992188-25.671874-21.453125-29.902343v-44.445313c6.816406 0 15.476563-1.605468 19.773437 5.074219l31.226563 54.285156c1.886719 3.28125 2.214844 7.199219.898437 10.75l-31.445312 84.71875h-61.152344zm12.289062 104.964844h99.464844v24.699219h-99.464844zm111.371094 45.066406-22.324219 75.210938h-29.191406v-11.515625c0-13-20.246094-13.015625-20.246094 0v11.515625h-29.191406l-22.324219-75.210938zm0 0"/><path d="m263.710938 6.039062c-13.871094 0-25.671876 8.992188-29.902344 21.453126h-48.550782v-17.371094c0-5.589844-4.53125-10.121094-10.121093-10.121094h-54.984375c-5.589844 0-10.125 4.53125-10.125 10.121094v17.371094h-48.546875c-4.230469-12.460938-16.03125-21.453126-29.902344-21.453126-17.414063 0-31.578125 14.164063-31.578125 31.574219 0 17.414063 14.164062 31.578125 31.574219 31.578125 13.875 0 25.675781-8.996094 29.90625-21.453125h48.546875v17.367188c0 5.589843 4.535156 10.125 10.125 10.125h54.980468c5.589844 0 10.125-4.535157 10.125-10.125v-17.367188h48.546876c4.230468 12.457031 16.03125 21.453125 29.90625 21.453125 17.410156 0 31.574218-14.164062 31.574218-31.578125 0-17.410156-14.164062-31.574219-31.574218-31.574219zm-232.136719 42.90625c-6.246094 0-11.328125-5.082031-11.328125-11.332031 0-6.246093 5.082031-11.328125 11.328125-11.328125 6.25 0 11.332031 5.082032 11.332031 11.328125 0 6.25-5.082031 11.332031-11.332031 11.332031zm133.4375 6.039063h-34.738281v-34.738281h34.738281zm98.699219-6.039063c-6.25 0-11.332032-5.082031-11.332032-11.332031 0-6.246093 5.082032-11.328125 11.332032-11.328125 6.246093 0 11.328124 5.082032 11.328124 11.328125 0 6.25-5.082031 11.332031-11.328124 11.332031zm0 0"/><path d="m345.292969 194.347656c13.507812 0 25.050781-8.523437 29.558593-20.472656h76.007813c4.503906 11.949219 16.050781 20.472656 29.554687 20.472656 17.410157 0 31.574219-14.167968 31.574219-31.578125 0-19.484375-18.292969-34.625-37.425781-31.023437l-38.554688-71.039063c5.222657-5.632812 8.421876-13.167969 8.421876-21.441406 0-17.410156-14.164063-31.574219-31.574219-31.574219-17.414063 0-31.578125 14.164063-31.578125 31.574219 0 8.269531 3.199218 15.804687 8.421875 21.441406l-38.554688 71.039063c-19.132812-3.601563-37.425781 11.539062-37.425781 31.023437 0 17.410157 14.164062 31.578125 31.574219 31.578125zm67.5625-123.503906c1.828125 0 3.621093-.167969 5.363281-.464844l38.707031 71.316406c-3.050781 3.394532-5.378906 7.457032-6.734375 11.933594h-74.675781c-1.355469-4.476562-3.683594-8.539062-6.734375-11.933594l38.707031-71.320312c1.742188.300781 3.535157.46875 5.367188.46875zm78.886719 91.925781c0 6.25-5.082032 11.332031-11.328126 11.332031-6.246093 0-11.332031-5.082031-11.332031-11.332031 0-6.246093 5.082031-11.328125 11.332031-11.328125 6.246094 0 11.328126 5.082032 11.328126 11.328125zm-78.886719-134.832031c6.246093 0 11.328125 5.082031 11.328125 11.328125 0 6.25-5.082032 11.332031-11.328125 11.332031-6.25 0-11.332031-5.082031-11.332031-11.332031 0-6.246094 5.082031-11.328125 11.332031-11.328125zm-67.5625 123.503906c6.25 0 11.332031 5.082032 11.332031 11.328125 0 6.25-5.082031 11.332031-11.332031 11.332031-6.246094 0-11.328125-5.082031-11.328125-11.332031 0-6.246093 5.082031-11.328125 11.328125-11.328125zm0 0"/><path d="m490.546875 387.71875v-80.71875c12.457031-4.226562 21.453125-16.03125 21.453125-29.902344 0-17.410156-14.164062-31.574218-31.574219-31.574218-12.941406 0-24.078125 7.824218-28.953125 18.988281h-82.746094c-4.875-11.164063-16.011718-18.988281-28.953124-18.988281-17.410157 0-31.574219 14.164062-31.574219 31.574218 0 14.09375 9.28125 26.054688 22.046875 30.105469v.160156c0 5.589844 4.53125 10.121094 10.121094 10.121094 5.839843 0 10.1875-5.027344 10.125-10.683594 9.800781-3.546875 17.355468-11.816406 19.914062-22.042969h79.386719c2.605469 10.433594 10.417969 18.820313 20.507812 22.242188v80.71875c-9.28125 3.148438-16.628906 10.5-19.78125 19.777344h-80.84375c-3.082031-9.078125-10.183593-16.320313-19.1875-19.578125.007813-5.554688-4.4375-10.378907-10.121093-10.378907-5.539063 0-10.035157 4.453126-10.117188 9.976563-12.769531 4.046875-22.054688 16.011719-22.054688 30.105469 0 17.410156 14.167969 31.574218 31.578126 31.574218 13.871093 0 25.671874-8.992187 29.902343-21.453124h80.84375c4.230469 12.460937 16.03125 21.453124 29.902344 21.453124 17.410156 0 31.574219-14.164062 31.574219-31.574218.003906-13.871094-8.992188-25.675782-21.449219-29.902344zm-150.773437-99.289062c-6.246094 0-11.328126-5.082032-11.328126-11.332032 0-6.246094 5.082032-11.328125 11.328126-11.328125 6.25 0 11.332031 5.082031 11.332031 11.328125 0 6.25-5.082031 11.332032-11.332031 11.332032zm140.652343-22.660157c6.246094 0 11.328125 5.082031 11.328125 11.328125 0 6.25-5.082031 11.332032-11.328125 11.332032-6.25 0-11.332031-5.082032-11.332031-11.332032 0-6.246094 5.082031-11.328125 11.332031-11.328125zm-140.652343 163.179688c-6.246094 0-11.328126-5.082031-11.328126-11.328125 0-6.25 5.082032-11.332032 11.328126-11.332032 6.25 0 11.332031 5.082032 11.332031 11.332032 0 6.246094-5.082031 11.328125-11.332031 11.328125zm140.652343 0c-6.25 0-11.332031-5.082031-11.332031-11.328125 0-6.25 5.082031-11.332032 11.332031-11.332032 6.246094 0 11.328125 5.082032 11.328125 11.332032 0 6.246094-5.082031 11.328125-11.328125 11.328125zm0 0"/><path d="m336.488281 356.710938c5.085938 2.121093 11.105469-.40625 13.207031-5.480469 2.105469-5.085938-.367187-11.097657-5.464843-13.214844-5.085938-2.109375-11.117188.390625-13.222657 5.476563-2.105468 5.105468.390626 11.101562 5.480469 13.21875zm0 0"/><path d="m153.265625 369.355469c-4.75-3.164063-11.367187-1.65625-14.296875 3.222656-2.847656 4.742187-1.246094 11.035156 3.484375 13.867187 4.769531 2.855469 11.171875 1.222657 13.953125-3.613281 2.644531-4.59375 1.199219-10.5-3.140625-13.476562zm0 0"/></svg>