<svg height="512pt" viewBox="0 -13 512 512" width="512pt" xmlns="http://www.w3.org/2000/svg"><path d="m294.738281 63.488281c-7.898437 0-15.527343 1.164063-22.726562 3.316407-17.570313-35.15625-53.902344-59.304688-95.878907-59.304688-48.382812 0-89.265624 32.078125-102.5625 76.125-36.753906 1.585938-66.070312 31.875-66.070312 69.023438 0 38.160156 30.9375 69.097656 69.097656 69.097656h218.140625c43.699219 0 79.125-35.425782 79.125-79.128906.003907-43.703126-35.425781-79.128907-79.125-79.128907zm0 0" fill="#a3defe"/><path d="m178.742188 7.546875c-.867188-.023437-1.734376-.046875-2.609376-.046875-48.382812 0-89.265624 32.078125-102.5625 76.125-36.753906 1.585938-66.070312 31.875-66.070312 69.023438 0 38.160156 30.9375 69.097656 69.097656 69.097656h116.609375c-43.4375-39.714844-48.210937-160.835938-14.464843-214.199219zm0 0" fill="#7acefa"/><path d="m140.574219 158.078125c0-15.550781-15.828125-28.15625-35.355469-28.15625s-35.355469 12.605469-35.355469 28.15625 15.828125 28.15625 35.355469 28.15625 35.355469-12.605469 35.355469-28.15625zm0 0" fill="#fff"/><path d="m332.214844 158.078125c0-15.550781-15.828125-28.15625-35.355469-28.15625s-35.355469 12.605469-35.355469 28.15625 15.828125 28.15625 35.355469 28.15625 35.355469-12.605469 35.355469-28.15625zm0 0" fill="#fff"/><path d="m203.050781 478.683594h-22.257812c-4.421875 0-8.1875-3.21875-8.875-7.589844l-3.214844-20.480469h46.441406l-3.214843 20.480469c-.6875 4.371094-4.453126 7.589844-8.878907 7.589844zm0 0" fill="#4e5660"/><path d="m431.429688 478.683594h22.257812c4.425781 0 8.191406-3.21875 8.875-7.589844l3.214844-20.480469h-46.4375l3.214844 20.480469c.683593 4.371094 4.453124 7.589844 8.875 7.589844zm0 0" fill="#4e5660"/><path d="m465.777344 450.617188h-297.074219c-21.382813 0-38.71875-17.335938-38.71875-38.722657v-37.824219c0-21.386718 17.335937-38.722656 38.71875-38.722656h297.074219c21.386718 0 38.722656 17.335938 38.722656 38.722656v37.824219c0 21.386719-17.335938 38.722657-38.722656 38.722657zm0 0" fill="#a3defe"/><path d="m282.757812 335.347656h-114.054687c-21.382813 0-38.71875 17.335938-38.71875 38.722656v37.824219c0 21.386719 17.335937 38.722657 38.71875 38.722657h123.789063c-14.921876-23.40625-18.515626-81.648438-9.734376-115.269532zm0 0" fill="#7acefa"/><path d="m399.339844 392.980469c0 12.585937-10.203125 22.789062-22.789063 22.789062-12.585937 0-22.785156-10.203125-22.785156-22.789062 0-12.582031 10.199219-22.785157 22.785156-22.785157 12.585938 0 22.789063 10.203126 22.789063 22.785157zm0 0" fill="#f7ef87"/><path d="m475.691406 392.980469c0 12.585937-10.203125 22.789062-22.789062 22.789062-12.585938 0-22.789063-10.203125-22.789063-22.789062 0-12.582031 10.203125-22.785157 22.789063-22.785157 12.585937 0 22.789062 10.203126 22.789062 22.785157zm0 0" fill="#fff"/><path d="m465.777344 298.585938h-297.074219c-21.382813 0-38.71875-17.339844-38.71875-38.722657v-37.824219c0-21.386718 17.335937-38.722656 38.71875-38.722656h297.074219c21.386718 0 38.722656 17.335938 38.722656 38.722656v37.824219c0 21.382813-17.335938 38.722657-38.722656 38.722657zm0 0" fill="#8eafe2"/><path d="m282.757812 183.316406h-114.054687c-21.382813 0-38.71875 17.335938-38.71875 38.722656v37.824219c0 21.382813 17.335937 38.722657 38.71875 38.722657h123.789063c-14.921876-23.40625-18.515626-81.648438-9.734376-115.269532zm0 0" fill="#6a96d7"/><path d="m399.339844 240.949219c0 12.585937-10.203125 22.789062-22.789063 22.789062-12.585937 0-22.785156-10.203125-22.785156-22.789062 0-12.582031 10.199219-22.785157 22.785156-22.785157 12.585938 0 22.789063 10.203126 22.789063 22.785157zm0 0" fill="#fff"/><path d="m475.691406 240.949219c0 12.585937-10.203125 22.789062-22.789062 22.789062-12.585938 0-22.789063-10.203125-22.789063-22.789062 0-12.582031 10.203125-22.785157 22.789063-22.785157 12.585937 0 22.789062 10.203126 22.789062 22.785157zm0 0" fill="#f7ef87"/><path d="m168.703125 298.585938h297.074219v36.761718h-297.074219zm0 0" fill="#4e5660"/><path d="m201.039062 147.078125c9.765626 0 19.054688-4.230469 25.484376-11.605469 2.71875-3.121094 2.394531-7.859375-.726563-10.582031-3.125-2.722656-7.859375-2.398437-10.582031.726563-3.578125 4.105468-8.746094 6.460937-14.175782 6.460937-5.433593 0-10.597656-2.355469-14.175781-6.460937-2.722656-3.125-7.460937-3.449219-10.582031-.726563-3.125 2.71875-3.449219 7.457031-.726562 10.582031 6.425781 7.375 15.714843 11.605469 25.484374 11.605469zm82.714844-17.085937v-12.484376c0-4.144531-3.355468-7.5-7.5-7.5-4.144531 0-7.5 3.355469-7.5 7.5v12.484376c0 4.140624 3.355469 7.5 7.5 7.5 4.144532 0 7.5-3.359376 7.5-7.5zm-104.289062 255.492187c-4.144532 0-7.5 3.355469-7.5 7.5 0 4.140625 3.355468 7.5 7.5 7.5h116.097656c4.140625 0 7.5-3.359375 7.5-7.5 0-4.144531-3.359375-7.5-7.5-7.5zm332.535156-125.621094v-37.824219c0-25.488281-20.734375-46.222656-46.222656-46.222656h-28.164063v-48.160156c0-19.378906-15.765625-35.144531-35.140625-35.144531h-37.101562c-15.714844-22.089844-41.519532-36.523438-70.632813-36.523438-6.378906 0-12.710937.695313-18.890625 2.074219-20.371094-35.96875-58.039062-58.0625-99.714844-58.0625-28.464843 0-55.761718 10.507812-76.855468 29.589844-3.070313 2.777344-3.308594 7.519531-.53125 10.589844 2.78125 3.074218 7.523437 3.3125 10.59375.53125 18.332031-16.578126 42.054687-25.710938 66.792968-25.710938 38 0 72.167969 21.136719 89.167969 55.160156 1.632813 3.261719 5.363281 4.875 8.859375 3.832032 6.65625-1.996094 13.582032-3.003907 20.578125-3.003907 39.496094 0 71.628907 32.132813 71.628907 71.628907 0 11.605468-2.816407 22.992187-8.164063 33.199218h-189.5c-22.828125 0-41.835937 16.640625-45.550781 38.429688h-46.554688c-33.964844 0-61.597656-27.632813-61.597656-61.601563 0-33.078125 25.871094-60.101562 58.894531-61.527343 3.1875-.136719 5.9375-2.273438 6.859375-5.324219 2.007813-6.660157 4.734375-13.132813 8.105469-19.234375 2-3.625.683594-8.191406-2.941406-10.191406-3.628907-2.003907-8.1875-.683594-10.191407 2.941406-3.042968 5.511718-5.632812 11.289062-7.722656 17.226562-38.535156 4.273438-68.003906 36.746094-68.003906 76.109375 0 42.238281 34.363281 76.601563 76.597656 76.601563h45.886719v30.617187c0 22.933594 16.789063 42.007813 38.71875 45.601563v23c-21.929687 3.597656-38.71875 22.671875-38.71875 45.605468v37.824219c0 23.285157 17.308594 42.59375 39.734375 45.757813l2.289062 14.601562c1.265626 8.070313 8.117188 13.929688 16.285157 13.929688h22.261719c8.167968 0 15.015624-5.859375 16.285156-13.929688l2.21875-14.140625h191.367187l2.21875 14.144531c1.265625 8.066407 8.117188 13.925782 16.285157 13.925782h22.257812c8.171875 0 15.019531-5.859375 16.285156-13.929688l2.292969-14.605468c11.789063-1.648438 22.457031-7.738282 29.9375-17.296876 2.550781-3.261718 1.976563-7.976562-1.289063-10.527343-3.261718-2.554688-7.972656-1.976563-10.527343 1.285156-5.96875 7.628906-14.9375 12.003906-24.609375 12.003906h-297.074219c-17.214844 0-31.222656-14.003906-31.222656-31.21875v-37.828125c0-17.214844 14.007812-31.21875 31.222656-31.21875h297.074219c17.214844 0 31.222656 14.003906 31.222656 31.21875v27.421875c0 4.140625 3.355469 7.5 7.5 7.5s7.5-3.359375 7.5-7.5v-27.421875c0-22.929687-16.789062-42.007812-38.722656-45.601562v-23c21.933594-3.59375 38.722656-22.667969 38.722656-45.601563zm-54.988281 198.253907-1.855469 11.8125c-.117188.726562-.730469 1.253906-1.46875 1.253906h-22.257812c-.734376 0-1.355469-.527344-1.46875-1.253906l-1.851563-11.8125zm-250.636719 0-1.855469 11.8125c-.113281.726562-.730469 1.253906-1.464843 1.253906h-22.261719c-.734375 0-1.351563-.527344-1.464844-1.253906l-1.855469-11.8125zm196.097656-350.605469c11.105469 0 20.140625 9.035156 20.140625 20.144531v48.160156h-47.863281c4.34375-10.472656 6.617188-21.75 6.617188-33.199218 0-12.488282-2.660157-24.367188-7.4375-35.105469zm55.804688 220.335937h-282.074219v-21.761718h282.074219zm7.5-36.761718h-297.074219c-17.214844 0-31.222656-14.007813-31.222656-31.222657v-37.824219c0-.09375.007812-.183593.007812-.277343 0-.003907 0-.011719 0-.015625s0-.003906 0-.007813c.164063-17.078125 14.101563-30.921875 31.214844-30.921875h193.875.015625.015625 103.167969c17.214844 0 31.222656 14.003906 31.222656 31.21875v37.828125c0 17.214844-14.007812 31.222657-31.222656 31.222657zm-170.214844-57.636719h-116.097656c-4.144532 0-7.5 3.359375-7.5 7.5 0 4.144531 3.355468 7.5 7.5 7.5h116.097656c4.140625 0 7.5-3.355469 7.5-7.5 0-4.140625-3.359375-7.5-7.5-7.5zm-162.238281-103.457031v-12.484376c0-4.144531-3.355469-7.5-7.5-7.5s-7.5 3.355469-7.5 7.5v12.484376c0 4.140624 3.355469 7.5 7.5 7.5s7.5-3.359376 7.5-7.5zm0 0"/></svg>