<svg height="495pt" viewBox="0 -23 495.19419 495" width="495pt" xmlns="http://www.w3.org/2000/svg"><g fill="#5acde0"><path d="m339.925781 399.667969c0 11.265625-9.136719 20.398437-20.402343 20.398437-11.265626 0-20.398438-9.132812-20.398438-20.398437s9.132812-20.402344 20.398438-20.402344c11.265624 0 20.402343 9.136719 20.402343 20.402344zm0 0"/><path d="m345.585938 228.765625c-.578126 13.945313-12.328126 24.792969-26.273438 24.257813-13.945312-.539063-24.824219-12.257813-24.328125-26.203126.5-13.945312 12.1875-24.859374 26.136719-24.402343 13.949218.460937 24.894531 12.121093 24.472656 26.070312.003906.09375 0 .1875-.007812.277344zm0 0"/><path d="m339.925781 77.308594c0 11.265625-9.136719 20.398437-20.402343 20.398437-11.265626 0-20.398438-9.132812-20.398438-20.398437 0-11.269532 9.132812-20.402344 20.398438-20.402344 11.265624 0 20.402343 9.132812 20.402343 20.402344zm0 0"/></g><path d="m489.195312 373.4375v60c0 5.523438-4.476562 10-10 10h-60c-5.523437 0-10-4.476562-10-10v-60c0-5.523438 4.476563-10 10-10h60c5.523438 0 10 4.476562 10 10zm0 0" fill="#e48e66"/><path d="m489.195312 216.4375v60c0 5.523438-4.476562 10-10 10h-60c-5.523437 0-10-4.476562-10-10v-60c0-5.523438 4.476563-10 10-10h60c5.523438 0 10 4.476562 10 10zm0 0" fill="#6fe3ff"/><path d="m489.195312 59.4375v60c0 5.523438-4.476562 10-10 10h-60c-5.523437 0-10-4.476562-10-10v-60c0-5.523438 4.476563-10 10-10h60c5.523438 0 10 4.476562 10 10zm0 0" fill="#e48e66"/><path d="m126.695312 107.765625c66.269532.007813 119.992188 53.730469 120 120 0 .242187 0 .480469-.011718.722656-.402344 66.171875-54.300782 119.527344-120.472656 119.261719-66.175782-.269531-119.640626-54.058594-119.507813-120.234375.136719-66.171875 53.816406-119.746094 119.992187-119.75zm85.707032 120c0-47.335937-38.371094-85.707031-85.707032-85.707031-47.335937 0-85.710937 38.371094-85.710937 85.707031s38.375 85.710937 85.710937 85.710937c47.335938.003907 85.710938-38.371093 85.707032-85.710937zm0 0" fill="#f8ec7d"/><path d="m135.613281 181.96875h-38.917969v92.308594h40.769532c10.621094 0 19.230468-8.609375 19.230468-19.230469v-7.691406c0-10.617188-8.609374-19.226563-19.230468-19.226563 10.621094-.003906 19.230468-8.613281 19.230468-19.230468v-7.691407c.003907-10.625-8.609374-19.238281-19.230468-19.238281zm-8.917969-39.910156c47.335938 0 85.707032 38.371094 85.707032 85.707031s-38.371094 85.710937-85.707032 85.710937c-47.335937 0-85.710937-38.375-85.710937-85.710937-.003906-47.335937 38.371094-85.710937 85.710937-85.707031zm0 0" fill="#e48e66"/><path d="m156.695312 247.355469v7.691406c0 10.621094-8.609374 19.230469-19.230468 19.230469h-40.769532v-46.148438h40.769532c10.621094 0 19.230468 8.609375 19.230468 19.226563zm0 0" fill="#f8ec7d"/><path d="m156.695312 201.207031v7.691407c0 10.617187-8.609374 19.226562-19.230468 19.230468h-40.769532v-46.160156h40.769532c10.621094 0 19.234375 8.613281 19.230468 19.238281zm0 0" fill="#f8ec7d"/><path d="m481.863281 43.679688v-10.914063c0-18.042969-14.625-32.6679688-32.667969-32.6679688-18.042968 0-32.671874 14.6249998-32.671874 32.6679688v10.914063c-7.6875 1.304687-13.316407 7.960937-13.328126 15.757812v12.328125h-57.859374c-2.746094-12.796875-14.453126-21.652344-27.511719-20.808594-13.0625.839844-23.535157 11.128907-24.613281 24.171875-1.078126 13.042969 7.566406 24.910156 20.3125 27.882813v93.976562c-12.910157 2.488281-23.007813 12.585938-25.488282 25.5h-35.457031c-2.089844-49.957031-33.527344-93.953125-80.113281-112.113281-46.589844-18.164062-99.507813-7.058594-134.863282 28.300781-32.242187 31.742188-44.992187 78.34375-33.394531 122.078125 11.597657 43.738282 45.757813 77.898438 89.496094 89.5 43.738281 11.597656 90.335937-1.148437 122.082031-33.394531 22.058594-21.933594 35.148438-51.304687 36.722656-82.371094h35.527344c2.480469 12.910157 12.578125 23.011719 25.488282 25.5v113.980469c-12.675782 2.953125-21.308594 14.707031-20.332032 27.691406.976563 12.980469 11.269532 23.3125 24.246094 24.335938 12.976562 1.023437 24.765625-7.5625 27.769531-20.230469h57.988281v27.671875c.007813 8.832031 7.167969 15.988281 16 16h60c8.832032-.011719 15.988282-7.167969 16-16v-60c-.015624-7.796875-5.644531-14.453125-13.332031-15.757812v-10.914063c0-18.042969-14.625-32.667969-32.667969-32.667969-18.042968 0-32.671874 14.625-32.671874 32.667969v10.914063c-7.6875 1.304687-13.316407 7.960937-13.328126 15.757812v20.328125h-57.945312c-2.273438-9.8125-9.917969-17.488281-19.726562-19.796875v-113.988281c12.796874-2.488281 22.835937-12.4375 25.433593-25.214844h52.238281v41.671875c.007813 8.832031 7.167969 15.988281 16 16h60c8.832032-.011719 15.988282-7.167969 16-16v-60c-.015624-7.796875-5.644531-14.453125-13.332031-15.757812v-10.914063c0-18.042969-14.625-32.667969-32.667969-32.667969-18.042968 0-32.671874 14.625-32.671874 32.667969v10.914063c-7.6875 1.304687-13.316407 7.960937-13.328126 15.757812v6.328125h-52.121093c-2.386719-13.035156-12.535157-23.273437-25.550781-25.777344v-93.976562c9.609374-2.261719 17.164062-9.679688 19.597656-19.246094h58.074218v35.671875c.007813 8.832031 7.167969 15.988281 16 16h60c8.832032-.011719 15.988282-7.167969 16-16v-60c-.015624-7.796875-5.644531-14.453125-13.332031-15.757812zm-270.429687 260.339843-4.457032-4.457031c-2.34375-2.339844-6.140624-2.339844-8.484374 0-2.34375 2.34375-2.34375 6.144531 0 8.488281l4.453124 4.457031c-19.355468 17.519532-44.179687 27.800782-70.253906 29.097657v-6.308594c0-3.3125-2.6875-6-6-6s-6 2.6875-6 6v6.3125c-26.074218-1.296875-50.898437-11.578125-70.253906-29.101563l4.457031-4.453124c2.34375-2.34375 2.34375-6.144532 0-8.488282s-6.144531-2.34375-8.488281 0l-4.453125 4.457032c-17.527344-19.355469-27.808594-44.179688-29.101563-70.257813h6.3125c3.3125 0 6-2.683594 6-6 0-3.3125-2.6875-6-6-6h-6.3125c1.292969-26.074219 11.578126-50.898437 29.101563-70.253906l4.453125 4.457031c2.34375 2.34375 6.144531 2.34375 8.488281 0s2.34375-6.140625 0-8.484375l-4.449219-4.457031c19.355469-17.519532 44.175782-27.800782 70.25-29.097656v6.308593c0 3.316407 2.6875 6 6 6 3.316407 0 6-2.683593 6-6v-6.308593c26.074219 1.296874 50.894532 11.578124 70.25 29.097656l-4.457031 4.457031c-2.34375 2.34375-2.34375 6.140625 0 8.484375s6.140625 2.34375 8.484375 0l4.457032-4.457031c17.527343 19.355469 27.8125 44.179687 29.109374 70.253906h-6.316406c-3.3125 0-6 2.6875-6 6 0 3.316406 2.6875 6 6 6h6.304688c-1.296875 26.074219-11.574219 50.898437-29.09375 70.253906zm237.761718 22.078125c11.414063-.003906 20.671876 9.253906 20.667969 20.667969v10.671875h-41.339843v-10.671875c.015624-11.410156 9.261718-20.65625 20.671874-20.667969zm-34 47.339844c0-2.210938 1.789063-4 4-4h60c2.207032 0 4 1.789062 4 4v60c0 2.207031-1.792968 4-4 4h-60c-2.210937 0-4-1.792969-4-4zm34-204.339844c11.414063-.003906 20.671876 9.253906 20.667969 20.667969v10.671875h-41.339843v-10.671875c.015624-11.410156 9.261718-20.65625 20.671874-20.667969zm-34 47.339844c0-2.210938 1.789063-4 4-4h60c2.207032 0 4 1.789062 4 4v60c0 2.207031-1.792968 4-4 4h-60c-2.210937 0-4-1.792969-4-4zm-81.269531 183.230469c0 7.953125-6.449219 14.398437-14.402343 14.398437-7.953126 0-14.398438-6.445312-14.398438-14.398437s6.445312-14.402344 14.398438-14.402344c7.949218.011719 14.390624 6.453125 14.402343 14.402344zm5.667969-171.238281c0 .09375-.007812.183593-.007812.277343-.421876 10.753907-9.460938 19.136719-20.214844 18.753907-10.75-.386719-19.167969-9.394532-18.824219-20.148438.347656-10.753906 9.324219-19.203125 20.078125-18.894531 10.757812.308593 19.238281 9.253906 18.96875 20.011719zm-20.070312-136.722657c-7.953126 0-14.398438-6.445312-14.398438-14.398437s6.445312-14.402344 14.398438-14.402344c7.953124 0 14.402343 6.449219 14.402343 14.402344-.011719 7.949218-6.453125 14.390625-14.402343 14.398437zm129.671874-79.609375c11.414063-.003906 20.671876 9.253906 20.667969 20.667969v10.671875h-41.339843v-10.671875c.015624-11.410156 9.261718-20.65625 20.671874-20.667969zm34 107.339844c0 2.207031-1.792968 4-4 4h-60c-2.210937 0-4-1.792969-4-4v-60c0-2.210938 1.789063-4 4-4h60c2.207032 0 4 1.789062 4 4zm0 0" fill="#63316d"/><path d="m126.695312 136.058594c-50.652343 0-91.710937 41.058594-91.710937 91.707031 0 50.652344 41.058594 91.710937 91.710937 91.710937 50.648438 0 91.707032-41.058593 91.707032-91.710937-.054688-50.625-41.082032-91.652344-91.707032-91.707031zm0 171.417968c-44.023437 0-79.710937-35.6875-79.710937-79.710937 0-44.019531 35.6875-79.707031 79.710937-79.707031 44.023438 0 79.707032 35.6875 79.707032 79.707031-.046875 44.003906-35.707032 79.660156-79.707032 79.710937zm0 0" fill="#63316d"/><path d="m141.613281 176.316406v-10.289062c0-3.3125-2.683593-6-6-6-3.3125 0-6 2.6875-6 6v9.941406h-9.839843v-9.941406c0-3.3125-2.683594-6-6-6-3.3125 0-6 2.6875-6 6v9.941406h-11.078126c-3.316406 0-6 2.683594-6 6v92.308594c0 3.3125 2.683594 6 6 6h11.078126v9.230468c0 3.3125 2.6875 6 6 6 3.316406 0 6-2.6875 6-6v-9.230468h9.839843v9.230468c0 3.3125 2.6875 6 6 6 3.316407 0 6-2.6875 6-6v-9.578124c12.15625-2.042969 21.0625-12.558594 21.082031-24.882813v-7.691406c0-7.410157-3.265624-14.445313-8.925781-19.226563 5.660157-4.785156 8.925781-11.820312 8.925781-19.230468v-7.691407c-.015624-12.328125-8.921874-22.847656-21.082031-24.890625zm9.082031 71.039063v7.691406c-.007812 7.304687-5.929687 13.222656-13.230468 13.230469h-34.769532v-34.148438h34.769532c7.300781.007813 13.222656 5.925782 13.230468 13.226563zm-48-25.226563v-34.160156h34.769532c7.304687.007812 13.222656 5.933594 13.230468 13.238281v7.691407c-.007812 7.300781-5.929687 13.21875-13.230468 13.230468zm0 0" fill="#63316d"/></svg>