<svg height="496pt" viewBox="0 0 496 496" width="496pt" xmlns="http://www.w3.org/2000/svg"><path d="m360 376h-224v-80c0-8.839844 7.160156-16 16-16h192c8.839844 0 16 7.160156 16 16zm0 0" fill="#999"/><path d="m320 280h-168c-8.839844 0-16 7.160156-16 16v80h200v-80c0-8.839844-7.160156-16-16-16zm0 0" fill="#b3b3b3"/><path d="m200 328c0 8.835938-7.164062 16-16 16s-16-7.164062-16-16 7.164062-16 16-16 16 7.164062 16 16zm0 0" fill="#c1272d"/><path d="m328 328c0 8.835938-7.164062 16-16 16s-16-7.164062-16-16 7.164062-16 16-16 16 7.164062 16 16zm0 0" fill="#c1272d"/><path d="m168 152h160v96h-160zm0 0" fill="#999"/><path d="m168 152h136v96h-136zm0 0" fill="#b3b3b3"/><path d="m232 200c0 8.835938-7.164062 16-16 16s-16-7.164062-16-16 7.164062-16 16-16 16 7.164062 16 16zm0 0" fill="#80d4f7"/><path d="m264 152h-32v-16c0-8.839844 7.160156-16 16-16s16 7.160156 16 16zm0 0" fill="#911d22"/><path d="m240 122.214844c-4.761719 2.769531-8 7.875-8 13.785156v16h16v-16c0-5.902344-3.238281-11.007812-8-13.785156zm0 0" fill="#c1272d"/><path d="m328 168h32v64h-32zm0 0" fill="#4d4d4d"/><path d="m328 168h16v64h-16zm0 0" fill="#666"/><path d="m136 168h32v64h-32zm0 0" fill="#4d4d4d"/><path d="m136 168h16v64h-16zm0 0" fill="#666"/><path d="m160 424h48v32h-48zm0 0" fill="#999"/><path d="m160 424h24v32h-24zm0 0" fill="#b3b3b3"/><path d="m288 424h48v32h-48zm0 0" fill="#999"/><path d="m288 424h24v32h-24zm0 0" fill="#b3b3b3"/><path d="m272 456h80v32h-80zm0 0" fill="#666"/><path d="m272 456h56v32h-56zm0 0" fill="#808080"/><path d="m144 456h80v32h-80zm0 0" fill="#666"/><path d="m144 456h56v32h-56zm0 0" fill="#808080"/><path d="m80 136v-32l8.328125-8.328125c10.03125-10.03125 15.671875-23.648437 15.671875-37.832031 0-11.574219-3.753906-22.839844-10.703125-32.105469-8.367187-11.167969-21.503906-17.734375-35.457031-17.734375h-3.679688c-13.953125 0-27.089844 6.566406-35.457031 17.726562-6.949219 9.265626-10.703125 20.53125-10.703125 32.113282 0 14.191406 5.640625 27.800781 15.671875 37.839844l8.328125 8.320312v32zm0 0" fill="#b9af44"/><path d="m56.328125 95.671875c10.03125-10.03125 15.671875-23.648437 15.671875-37.839844 0-11.574219-3.753906-22.839843-10.703125-32.105469-5.441406-7.253906-12.914063-12.519531-21.296875-15.351562-8.382812 2.832031-15.855469 8.105469-21.296875 15.359375-6.949219 9.257813-10.703125 20.523437-10.703125 32.097656 0 14.191407 5.640625 27.800781 15.671875 37.832031l8.328125 8.335938v32h16v-32zm0 0" fill="#f7e95a"/><path d="m464 136v-32l8.328125-8.328125c10.03125-10.03125 15.671875-23.648437 15.671875-37.832031 0-11.574219-3.753906-22.839844-10.703125-32.105469-8.367187-11.167969-21.503906-17.734375-35.457031-17.734375h-3.679688c-13.953125 0-27.089844 6.566406-35.464844 17.726562-6.941406 9.265626-10.695312 20.53125-10.695312 32.113282 0 14.191406 5.640625 27.800781 15.671875 37.839844l8.328125 8.320312v32zm0 0" fill="#b9af44"/><path d="m440.328125 95.671875c10.03125-10.03125 15.671875-23.648437 15.671875-37.839844 0-11.574219-3.753906-22.839843-10.703125-32.105469-5.441406-7.253906-12.914063-12.527343-21.296875-15.359374-8.382812 2.832031-15.855469 8.105468-21.296875 15.359374-6.949219 9.265626-10.703125 20.53125-10.703125 32.105469 0 14.191407 5.640625 27.800781 15.671875 37.832031l8.328125 8.335938v32h16v-32zm0 0" fill="#f7e95a"/><path d="m32 104h48v32h-48zm0 0" fill="#534741"/><path d="m32 104h24v32h-24zm0 0" fill="#736357"/><path d="m416 104h48v32h-48zm0 0" fill="#534741"/><path d="m416 104h24v32h-24zm0 0" fill="#736357"/><path d="m224 496h-80c-4.425781 0-8-3.585938-8-8v-32c0-4.414062 3.574219-8 8-8h80c4.425781 0 8 3.585938 8 8v32c0 4.414062-3.574219 8-8 8zm-72-16h64v-16h-64zm0 0"/><path d="m352 496h-80c-4.425781 0-8-3.585938-8-8v-32c0-4.414062 3.574219-8 8-8h80c4.425781 0 8 3.585938 8 8v32c0 4.414062-3.574219 8-8 8zm-72-16h64v-16h-64zm0 0"/><path d="m208 464h-48c-4.425781 0-8-3.585938-8-8v-32c0-4.414062 3.574219-8 8-8h48c4.425781 0 8 3.585938 8 8v32c0 4.414062-3.574219 8-8 8zm-40-16h32v-16h-32zm0 0"/><path d="m336 464h-48c-4.425781 0-8-3.585938-8-8v-32c0-4.414062 3.574219-8 8-8h48c4.425781 0 8 3.585938 8 8v32c0 4.414062-3.574219 8-8 8zm-40-16h32v-16h-32zm0 0"/><path d="m360 384h-224c-4.425781 0-8-3.585938-8-8v-80c0-13.230469 10.769531-24 24-24h192c13.230469 0 24 10.769531 24 24v80c0 4.414062-3.574219 8-8 8zm-216-16h208v-72c0-4.40625-3.585938-8-8-8h-192c-4.414062 0-8 3.59375-8 8zm0 0"/><path d="m176 376h16v48h-16zm0 0"/><path d="m304 376h16v48h-16zm0 0"/><path d="m176 248h16v32h-16zm0 0"/><path d="m304 248h16v32h-16zm0 0"/><path d="m328 256h-160c-4.425781 0-8-3.585938-8-8v-96c0-4.414062 3.574219-8 8-8h160c4.425781 0 8 3.585938 8 8v96c0 4.414062-3.574219 8-8 8zm-152-16h144v-80h-144zm0 0"/><path d="m168 240h-32c-4.425781 0-8-3.585938-8-8v-64c0-4.414062 3.574219-8 8-8h32c4.425781 0 8 3.585938 8 8v64c0 4.414062-3.574219 8-8 8zm-24-16h16v-48h-16zm0 0"/><path d="m360 240h-32c-4.425781 0-8-3.585938-8-8v-64c0-4.414062 3.574219-8 8-8h32c4.425781 0 8 3.585938 8 8v64c0 4.414062-3.574219 8-8 8zm-24-16h16v-48h-16zm0 0"/><path d="m184 352c-13.230469 0-24-10.769531-24-24s10.769531-24 24-24 24 10.769531 24 24-10.769531 24-24 24zm0-32c-4.414062 0-8 3.59375-8 8s3.585938 8 8 8 8-3.59375 8-8-3.585938-8-8-8zm0 0"/><path d="m216 224c-13.230469 0-24-10.769531-24-24s10.769531-24 24-24 24 10.769531 24 24-10.769531 24-24 24zm0-32c-4.414062 0-8 3.59375-8 8s3.585938 8 8 8 8-3.59375 8-8-3.585938-8-8-8zm0 0"/><path d="m296 200c0 8.835938-7.164062 16-16 16s-16-7.164062-16-16 7.164062-16 16-16 16 7.164062 16 16zm0 0" fill="#80d4f7"/><path d="m280 224c-13.230469 0-24-10.769531-24-24s10.769531-24 24-24 24 10.769531 24 24-10.769531 24-24 24zm0-32c-4.414062 0-8 3.59375-8 8s3.585938 8 8 8 8-3.59375 8-8-3.585938-8-8-8zm0 0"/><path d="m312 352c-13.230469 0-24-10.769531-24-24s10.769531-24 24-24 24 10.769531 24 24-10.769531 24-24 24zm0-32c-4.414062 0-8 3.59375-8 8s3.585938 8 8 8 8-3.59375 8-8-3.585938-8-8-8zm0 0"/><path d="m232 320h32v16h-32zm0 0"/><path d="m264 160h-32c-4.425781 0-8-3.585938-8-8v-16c0-13.230469 10.769531-24 24-24s24 10.769531 24 24v16c0 4.414062-3.574219 8-8 8zm-24-16h16v-8c0-4.40625-3.585938-8-8-8s-8 3.59375-8 8zm0 0"/><path d="m464 144h-48c-4.425781 0-8-3.585938-8-8v-28.6875l-5.984375-5.984375c-11.617187-11.625-18.015625-27.0625-18.015625-43.496094 0-13.214843 4.367188-26.328125 12.304688-36.902343 9.824218-13.105469 25.480468-20.929688 41.863281-20.929688h3.671875c16.382812 0 32.039062 7.824219 41.855468 20.929688 7.9375 10.582031 12.304688 23.6875 12.304688 36.902343 0 16.425781-6.398438 31.871094-18.015625 43.496094l-5.984375 5.984375v28.6875c0 4.414062-3.574219 8-8 8zm-40-16h32v-24c0-2.121094.839844-4.160156 2.34375-5.65625l8.328125-8.328125c8.59375-8.601563 13.328125-20.023437 13.328125-32.183594 0-9.785156-3.230469-19.480469-9.105469-27.304687-6.816406-9.09375-17.6875-14.527344-29.0625-14.527344h-3.671875c-11.375 0-22.238281 5.433594-29.0625 14.527344-5.867187 7.832031-9.097656 17.527344-9.097656 27.304687 0 12.152344 4.734375 23.582031 13.328125 32.175781l8.328125 8.328126c1.503906 1.503906 2.34375 3.542968 2.34375 5.664062zm0 0"/><path d="m416 96h48v16h-48zm0 0"/><path d="m432 64h16v40h-16zm0 0"/><path d="m328 64h40v16h-40zm0 0"/><path d="m330.34375 122.34375 32-32.003906 11.3125 11.316406-32 32zm0 0"/><path d="m330.34375 21.660156 11.3125-11.3125 32 32-11.3125 11.316406zm0 0"/><path d="m80 144h-48c-4.425781 0-8-3.585938-8-8v-28.6875l-5.984375-5.984375c-11.617187-11.625-18.015625-27.0625-18.015625-43.496094 0-13.214843 4.367188-26.328125 12.304688-36.902343 9.824218-13.105469 25.480468-20.929688 41.863281-20.929688h3.671875c16.382812 0 32.039062 7.824219 41.855468 20.929688 7.9375 10.582031 12.304688 23.6875 12.304688 36.902343 0 16.425781-6.398438 31.871094-18.015625 43.496094l-5.984375 5.984375v28.6875c0 4.414062-3.574219 8-8 8zm-40-16h32v-24c0-2.121094.839844-4.160156 2.34375-5.65625l8.328125-8.328125c8.59375-8.601563 13.328125-20.023437 13.328125-32.183594 0-9.785156-3.230469-19.480469-9.105469-27.304687-6.816406-9.09375-17.6875-14.527344-29.0625-14.527344h-3.664062c-11.375 0-22.246094 5.433594-29.0625 14.527344-5.875 7.832031-9.105469 17.527344-9.105469 27.304687 0 12.152344 4.734375 23.582031 13.328125 32.175781l8.328125 8.328126c1.503906 1.503906 2.34375 3.542968 2.34375 5.664062zm0 0"/><path d="m32 96h48v16h-48zm0 0"/><path d="m48 64h16v40h-16zm0 0"/><path d="m128 64h40v16h-40zm0 0"/><path d="m122.34375 101.660156 11.3125-11.3125 32.003906 32-11.316406 11.3125zm0 0"/><path d="m122.34375 42.339844 32-32 11.316406 11.316406-32.003906 32zm0 0"/><path d="m416 352h-16v-32c0-8.824219-7.175781-16-16-16h-24v-16h24c17.648438 0 32 14.351562 32 32zm0 0"/><path d="m432 384h-16v-24h-16v24h-16v-32c0-4.414062 3.574219-8 8-8h32c4.425781 0 8 3.585938 8 8zm0 0"/><path d="m96 352h-16v-32c0-17.648438 14.351562-32 32-32h24v16h-24c-8.824219 0-16 7.175781-16 16zm0 0"/><path d="m112 384h-16v-24h-16v24h-16v-32c0-4.414062 3.574219-8 8-8h32c4.425781 0 8 3.585938 8 8zm0 0"/></svg>