<svg height="512pt" viewBox="0 0 512 512" width="512pt" xmlns="http://www.w3.org/2000/svg"><path d="m160 10s150 259.160156 150 342-67.160156 150-150 150-150-67.160156-150-150 150-342 150-342zm0 0" fill="#64e1dc"/><path d="m502 170c0 44.179688-35.820312 80-80 80s-80-35.820312-80-80 80-160 80-160 80 115.820312 80 160zm0 0" fill="#64e1dc"/><path d="m33.582031 236.773438c-22.597656 53.457031-33.582031 91.148437-33.582031 115.226562 0 88.226562 71.773438 160 160 160s160-71.773438 160-160c0-84.554688-145.164062-336.332031-151.34375-347.011719-1.789062-3.085937-5.089844-4.988281-8.65625-4.988281s-6.867188 1.902344-8.65625 4.988281c-.4375.757813-44.3125 76.710938-84.21875 158.578125-2.421875 4.964844-.359375 10.949219 4.605469 13.371094 4.96875 2.421875 10.953125.355469 13.371093-4.609375 29.027344-59.546875 60.175782-115.945313 74.898438-142.097656 32.792969 58.238281 140 254.4375 140 321.769531 0 77.195312-62.804688 140-140 140s-140-62.804688-140-140c0-14.476562 5.550781-44.863281 32.003906-107.4375 2.148438-5.089844-.230468-10.957031-5.316406-13.105469-5.089844-2.148437-10.957031.230469-13.105469 5.316407zm0 0"/><path d="m251.238281 398.230469c5.550781-8.640625 6.332031-19.347657 2.085938-28.636719-2.292969-5.023438-8.226563-7.234375-13.25-4.9375-5.023438 2.292969-7.234375 8.226562-4.9375 13.25 1.421875 3.113281 1.160156 6.582031-.726563 9.511719-1.867187 2.910156-4.933594 4.582031-8.402344 4.582031h-71.867187l2.929687-2.929688c3.90625-3.90625 3.90625-10.234374 0-14.140624s-10.234374-3.90625-14.140624 0l-20 20c-.046876.042968-.082032.089843-.125.136718-3.851563 3.992188-3.644532 10.234375.125 14.003906l20 20c3.90625 3.90625 10.234374 3.902344 14.140624 0 3.90625-3.90625 3.90625-10.238281 0-14.144531l-2.925781-2.925781h71.867188c10.257812 0 19.6875-5.148438 25.226562-13.769531zm0 0"/><path d="m66.230469 393.386719c3.523437 8.546875 10.574219 14.902343 19.351562 17.4375 5.328125 1.542969 10.859375-1.546875 12.386719-6.828125 1.53125-5.304688-1.523438-10.851563-6.832031-12.382813-2.890625-.835937-5.226563-2.96875-6.414063-5.847656-.679687-1.648437-1.511718-4.953125.527344-8.621094l35.515625-63.917969 1.140625 3.980469c1.535156 5.34375 7.101562 8.367188 12.371094 6.855469 5.308594-1.523438 8.375-7.0625 6.855468-12.371094l-7.789062-27.144531c-1.515625-5.300781-7.039062-8.417969-12.378906-6.890625l-27.1875 7.789062c-5.3125 1.519532-8.382813 7.058594-6.859375 12.367188 1.519531 5.308594 7.054687 8.378906 12.367187 6.859375l3.988282-1.144531-35.503907 63.902344c-4.464843 8.03125-5.027343 17.492187-1.539062 25.957031zm0 0"/><path d="m233.109375 301.128906c-5.371094-1.242187-10.75 2.109375-11.992187 7.488282l-.457032 1.976562-34.4375-61.980469c-4.871094-8.769531-13.730468-14.496093-23.699218-15.328125-10.015626-.835937-19.703126 3.3125-25.910157 11.089844-3.445312 4.316406-2.734375 10.609375 1.582031 14.054688 4.316407 3.441406 10.609376 2.734374 14.050782-1.582032 2.039062-2.554687 5.25-3.914062 8.617187-3.628906 3.355469.277344 6.226563 2.140625 7.875 5.109375l36.316407 65.355469-5.875-1.359375c-5.378907-1.238281-10.75 2.117187-11.992188 7.496093-1.242188 5.382813 2.113281 10.75 7.496094 11.992188l27.558594 6.359375c5.835937 1.351563 11.898437-2.800781 12.363281-9.097656l6-25.953125c1.242187-5.382813-2.113281-10.75-7.496094-11.992188zm0 0"/><path d="m430.226562 4.316406c-1.867187-2.703125-4.941406-4.316406-8.226562-4.316406s-6.359375 1.613281-8.226562 4.316406c-21.875 31.550782-81.773438 124.824219-81.773438 165.683594 0 49.625 40.375 90 90 90s90-40.375 90-90c0-40.730469-59.933594-134.1875-81.773438-165.683594zm-8.226562 235.683594c-38.597656 0-70-31.402344-70-70 0-29.996094 44.835938-104.046875 70-142.113281 25.164062 38.066406 70 112.117187 70 142.113281 0 38.597656-31.402344 70-70 70zm0 0"/><path d="m412 210c0 5.523438 4.476562 10 10 10 27.570312 0 50-22.40625 50-49.949219 0-5.523437-4.476562-10-10-10s-10 4.476563-10 10c0 16.515625-13.457031 29.949219-30 29.949219-5.523438 0-10 4.476562-10 10zm0 0"/><path d="m59 194.101562c-5.519531 0-10 4.476563-10 10 0 5.519532 4.480469 10 10 10s10-4.480468 10-10c0-5.523437-4.480469-10-10-10zm0 0"/></svg>