<svg height="480pt" viewBox="0 0 480 480" width="480pt" xmlns="http://www.w3.org/2000/svg"><path d="m400 472h-360c-17.671875 0-32-14.328125-32-32v-280h392zm0 0" fill="#348fd9"/><path d="m72 424v-264h-16v248h-16c-17.671875 0-32 14.328125-32 32 .023438 3.867188.753906 7.699219 2.160156 11.304688 4.902344-16.671876 20.472656-27.90625 37.839844-27.304688zm0 0" fill="#3086cd"/><path d="m400 176-296 296h296zm0 0" fill="#3086cd"/><path d="m56 408h-16c-17.671875 0-32 14.328125-32 32v-312c0-17.671875 14.328125-32 32-32h16zm0 0" fill="#f35244"/><g fill="#4db7e5"><path d="m88 200h96v64h-96zm0 0"/><path d="m88 344h96v64h-96zm0 0"/><path d="m264 200h96v64h-96zm0 0"/><path d="m264 344h96v64h-96zm0 0"/></g><path d="m184 224h80v16h-80zm0 0" fill="#48add9"/><path d="m304 264h16v80h-16zm0 0" fill="#48add9"/><path d="m184 368h80v16h-80zm0 0" fill="#48add9"/><path d="m472 160v-48h-35.121094c-2.277344-8.664062-5.722656-16.980469-10.238281-24.71875l24.878906-24.800781-34-34-24.800781 24.878906c-7.738281-4.515625-16.054688-7.960937-24.71875-10.238281v-35.121094h-48v35.121094c-8.664062 2.277344-16.980469 5.722656-24.71875 10.238281l-24.800781-24.878906-34 34 24.878906 24.800781c-4.515625 7.738281-7.960937 16.054688-10.238281 24.71875h-35.121094v48h35.121094c2.277344 8.664062 5.722656 16.980469 10.238281 24.71875l-24.878906 24.800781 22.558593 22.480469 11.441407 11.441406 24.800781-24.800781c7.738281 4.515625 16.054688 7.960937 24.71875 10.238281v35.121094h48v-35.121094c8.664062-2.277344 16.980469-5.722656 24.71875-10.238281l24.800781 24.800781 34-33.921875-24.878906-24.800781c4.515625-7.738281 7.960937-16.054688 10.238281-24.71875zm-152-24c0-13.253906 10.746094-24 24-24s24 10.746094 24 24-10.746094 24-24 24-24-10.746094-24-24zm0 0" fill="#ffb531"/><path d="m344 208c-39.765625 0-72-32.234375-72-72s32.234375-72 72-72 72 32.234375 72 72c-.042969 39.746094-32.253906 71.957031-72 72zm0-128c-30.929688 0-56 25.070312-56 56s25.070312 56 56 56 56-25.070312 56-56c-.035156-30.914062-25.085938-55.964844-56-56zm0 0" fill="#f7a116"/><path d="m40 480h360c4.417969 0 8-3.582031 8-8v-208h-16v200h-352c-13.253906 0-24-10.746094-24-24s10.746094-24 24-24h16c4.417969 0 8-3.582031 8-8v-240h128v-16h-128v-56c0-4.417969-3.582031-8-8-8h-16c-22.082031.027344-39.9726562 17.917969-40 40v312c.0273438 22.082031 17.917969 39.972656 40 40zm-24-320v-32c0-13.253906 10.746094-24 24-24h8v296h-8c-8.65625-.011719-17.082031 2.796875-24 8zm0 0"/><path d="m184 192h-96c-4.417969 0-8 3.582031-8 8v64c0 4.417969 3.582031 8 8 8h96c4.417969 0 8-3.582031 8-8v-24h32v-16h-32v-24c0-4.417969-3.582031-8-8-8zm-8 64h-80v-48h80zm0 0"/><path d="m264 416h96c4.417969 0 8-3.582031 8-8v-64c0-4.417969-3.582031-8-8-8h-40v-48h-16v48h-40c-4.417969 0-8 3.582031-8 8v24h-64v-24c0-4.417969-3.582031-8-8-8h-96c-4.417969 0-8 3.582031-8 8v64c0 4.417969 3.582031 8 8 8h96c4.417969 0 8-3.582031 8-8v-24h64v24c0 4.417969 3.582031 8 8 8zm8-64h80v48h-80zm-96 48h-80v-48h80zm0 0"/><path d="m344 64c-39.765625 0-72 32.234375-72 72s32.234375 72 72 72 72-32.234375 72-72c-.042969-39.746094-32.253906-71.957031-72-72zm0 128c-30.929688 0-56-25.070312-56-56s25.070312-56 56-56 56 25.070312 56 56c-.035156 30.914062-25.085938 55.964844-56 56zm0 0"/><path d="m472 168c4.417969 0 8-3.582031 8-8v-48c0-4.417969-3.582031-8-8-8h-29.144531c-1.707031-5.25-3.824219-10.359375-6.328125-15.28125l20.640625-20.566406c1.503906-1.5 2.351562-3.539063 2.351562-5.664063s-.847656-4.164062-2.351562-5.664062l-33.96875-34c-1.5-1.5-3.535157-2.34375-5.65625-2.34375-2.121094.003906-4.15625.847656-5.65625 2.351562l-20.605469 20.640625c-4.921875-2.503906-10.03125-4.617187-15.28125-6.328125v-29.144531c0-4.417969-3.582031-8-8-8h-48c-4.417969 0-8 3.582031-8 8v29.144531c-5.25 1.710938-10.359375 3.824219-15.28125 6.328125l-20.574219-20.640625c-1.5-1.503906-3.535156-2.347656-5.65625-2.351562-2.121093 0-4.15625.84375-5.65625 2.34375l-34.007812 33.976562c-1.503907 1.5-2.351563 3.539063-2.351563 5.664063s.847656 4.164062 2.351563 5.664062l20.640625 20.566406c-2.503906 4.929688-4.617188 10.046876-6.320313 15.304688h-29.144531c-4.417969 0-8 3.582031-8 8v48c0 4.417969 3.582031 8 8 8h29.144531c1.707031 5.25 3.824219 10.359375 6.328125 15.28125l-20.640625 20.566406c-1.507812 1.5-2.355469 3.542969-2.355469 5.667969 0 2.128906.847657 4.167969 2.355469 5.667969l33.96875 33.914062c3.125 3.121094 8.1875 3.121094 11.3125 0l20.574219-20.570312c4.933594 2.503906 10.054688 4.617187 15.3125 6.328125v29.144531c0 4.417969 3.582031 8 8 8h48c4.417969 0 8-3.582031 8-8v-29.144531c5.253906-1.710938 10.363281-3.824219 15.289062-6.328125l20.574219 20.570312c3.125 3.117188 8.179688 3.117188 11.304688 0l34-33.921875c1.507812-1.5 2.355469-3.539062 2.355469-5.667969 0-2.128906-.847657-4.167968-2.355469-5.667968l-20.640625-20.566406c2.503906-4.917969 4.621094-10.027344 6.328125-15.273438zm-42.847656-10.039062c-2.105469 7.964843-5.273438 15.609374-9.425782 22.726562-1.832031 3.144531-1.3125 7.128906 1.265626 9.695312l19.199218 19.136719-22.664062 22.617188-19.128906-19.152344c-2.566407-2.570313-6.546876-3.085937-9.6875-1.257813-7.113282 4.152344-14.761719 7.320313-22.726563 9.417969-3.523437.917969-5.980469 4.097657-5.984375 7.734375v27.121094h-32v-27.121094c0-3.632812-2.449219-6.808594-5.960938-7.734375-7.964843-2.097656-15.613281-5.265625-22.726562-9.417969-3.140625-1.828124-7.121094-1.3125-9.6875 1.257813l-19.144531 19.144531-22.664063-22.609375 19.199219-19.136719c2.578125-2.566406 3.097656-6.550781 1.265625-9.695312-4.152344-7.117188-7.320312-14.761719-9.425781-22.726562-.925781-3.511719-4.101563-5.960938-7.734375-5.960938h-27.121094v-32h27.121094c3.628906-.003906 6.800781-2.449219 7.726562-5.960938 2.105469-7.964843 5.273438-15.609374 9.425782-22.726562 1.832031-3.144531 1.3125-7.128906-1.265626-9.695312l-19.199218-19.144532 22.671875-22.671875 19.144531 19.199219c2.566406 2.578125 6.550781 3.097656 9.695312 1.265625 7.113282-4.152344 14.761719-7.320313 22.726563-9.417969 3.507813-.929687 5.949219-4.101562 5.953125-7.726562v-27.121094h32v27.121094c0 3.632812 2.449219 6.808594 5.960938 7.734375 7.964843 2.097656 15.613281 5.265625 22.726562 9.417969 3.148438 1.839843 7.140625 1.320312 9.710938-1.265626l19.144531-19.199218 22.671875 22.671875-19.199219 19.144531c-2.578125 2.566406-3.097656 6.550781-1.261719 9.695312 4.148438 7.117188 7.316406 14.761719 9.421875 22.726563.925781 3.5 4.085938 5.941406 7.703125 5.953125h27.121094v32h-27.121094c-3.628906.003906-6.800781 2.449219-7.726562 5.960938zm0 0"/><path d="m344 104c-17.671875 0-32 14.328125-32 32s14.328125 32 32 32 32-14.328125 32-32-14.328125-32-32-32zm0 48c-8.835938 0-16-7.164062-16-16s7.164062-16 16-16 16 7.164062 16 16-7.164062 16-16 16zm0 0"/></svg>