<?xml version="1.0" encoding="iso-8859-1"?>
<!-- Generator: Adobe Illustrator 22.1.0, SVG Export Plug-In . SVG Version: 6.00 Build 0)  -->
<svg xmlns="http://www.w3.org/2000/svg" xmlns:xlink="http://www.w3.org/1999/xlink" version="1.1" id="Layer_3" x="0px" y="0px" viewBox="0 0 64 64" style="enable-background:new 0 0 64 64;" xml:space="preserve" width="512" height="512">
<g>
	<rect x="16" y="36" style="fill:#808080;" width="32" height="20"/>
	<rect x="20" y="40" style="fill:#BBB3A1;" width="24" height="16"/>
	<rect x="20" y="40" style="fill:#F9EED7;" width="21" height="16"/>
	<rect x="24" y="44" style="fill:#389773;" width="8" height="8"/>
	<rect x="24" y="44" style="fill:#4BC999;" width="5" height="8"/>
	<path style="fill:#808080;" d="M48,62H16c-1.105,0-2-0.895-2-2v-4h36v4C50,61.105,49.105,62,48,62z"/>
	<path style="fill:#A0A0A0;" d="M47,60v-4H14v4c0,1.105,0.895,2,2,2h29C46.105,62,47,61.105,47,60z"/>
	<polyline style="fill:#4BC999;" points="44,4 48,4 48,8 44,8  "/>
	<polyline style="fill:#4BC999;" points="44,12 48,12 48,16 44,16  "/>
	<rect x="20" y="2" style="fill:#389773;" width="24" height="30"/>
	<rect x="20" y="2" style="fill:#4BC999;" width="21" height="30"/>
	<path style="fill:#BF9D45;" d="M40,12L40,12c0,3.842-1.526,7.526-4.243,10.243L32,26l-3.757-3.757C25.526,19.526,24,15.842,24,12v0   l8-6L40,12z"/>
	<path style="fill:#FFD15C;" d="M24,12c0,3.842,1.526,7.526,4.243,10.243L30.5,24.5l2.257-2.257C35.474,19.526,37,15.842,37,12   l-6.5-4.875L24,12z"/>
	<circle style="fill:#BBB3A1;" cx="32" cy="16" r="3"/>
	<ellipse style="fill:#F9EED7;" cx="30.5" cy="16" rx="1.5" ry="2.584"/>
	<g>
		<rect x="35" y="43" style="fill:#404040;" width="6" height="2"/>
	</g>
	<g>
		<rect x="35" y="47" style="fill:#404040;" width="6" height="2"/>
	</g>
	<g>
		<rect x="35" y="51" style="fill:#404040;" width="6" height="2"/>
	</g>
	<path style="fill:#404040;" d="M15,19l-5-4v3H3c-0.552,0-1,0.447-1,1v26c0,0.553,0.448,1,1,1h9v-2H4V20h6v3L15,19z"/>
	<path style="fill:#404040;" d="M61,18h-7v-3l-5,4l5,4v-3h6v24h-8v2h9c0.552,0,1-0.447,1-1V19C62,18.447,61.552,18,61,18z"/>
</g>
</svg>
