<svg height="512pt" viewBox="-26 0 512 512.001" width="512pt" xmlns="http://www.w3.org/2000/svg"><g fill-rule="evenodd"><path d="m50 90v-40h-20c-11 0-20 9-20 20s9 20 20 20zm0 0" fill="#dca98a"/><path d="m50 50v452l90-75.050781 90 75.050781 90-75.050781 90 75.050781v-492h-360zm0 0" fill="#ffc059"/><path d="m410 50v40h20c11 0 20-9 20-20s-9-20-20-20zm0 0" fill="#dca98a"/><path d="m230 356c66.09375 0 120-53.90625 120-120s-53.90625-120-120-120-120 53.90625-120 120 53.90625 120 120 120zm0 0" fill="#ffecd1"/></g><path d="m430 40h-10v-30c0-5.523438-4.480469-10-10-10h-240c-5.523438 0-10 4.476562-10 10s4.476562 10 10 10h230v460.640625l-73.597656-61.371094c-3.707032-3.09375-9.097656-3.09375-12.808594 0l-83.59375 69.710938-83.597656-69.710938c-3.707032-3.09375-9.097656-3.09375-12.808594 0l-73.59375 61.371094v-460.640625h30c5.523438 0 10-4.476562 10-10s-4.476562-10-10-10h-40c-5.523438 0-10 4.476562-10 10v30h-10c-16.542969 0-30 13.457031-30 30s13.457031 30 30 30h10v402c0 3.882812 2.246094 7.410156 5.761719 9.058594 3.515625 1.644531 7.664062 1.105468 10.640625-1.378906l83.597656-69.710938 83.59375 69.710938c3.710938 3.09375 9.101562 3.09375 12.8125 0l83.59375-69.710938 83.597656 69.710938c1.832032 1.53125 4.105469 2.320312 6.402344 2.320312 1.441406 0 2.886719-.308594 4.238281-.941406 3.515625-1.648438 5.761719-5.175782 5.761719-9.058594v-402h10c16.542969 0 30-13.457031 30-30s-13.460938-30-30-30zm-400 40c-5.511719 0-10-4.484375-10-10s4.488281-10 10-10h10v20zm400 0h-10v-20h10c5.511719 0 10 4.484375 10 10s-4.488281 10-10 10zm0 0"/><path d="m130.003906 20c5.523438 0 10-4.476562 10-10s-4.476562-10-10-10h-.007812c-5.523438 0-9.996094 4.476562-9.996094 10s4.480469 10 10.003906 10zm0 0"/><path d="m220.003906 391.5c-5.523437 0-10 4.476562-10 10s4.476563 10 10 10h59.996094c5.523438 0 10-4.476562 10-10s-4.476562-10-10-10zm0 0"/><path d="m180 391.5c-5.523438 0-9.996094 4.476562-9.996094 10s4.480469 10 10.003906 10c5.523438 0 10-4.476562 10-10s-4.476562-10-10-10zm0 0"/><path d="m216.964844 192.480469c0-16.542969-13.460938-30-30-30-16.542969 0-30 13.457031-30 30 0 16.539062 13.457031 30 30 30 16.539062 0 30-13.460938 30-30zm-40.003906 0c0-5.515625 4.488281-10 10-10 5.515624 0 10 4.484375 10 10 0 5.511719-4.484376 10-10 10-5.511719 0-10-4.488281-10-10zm0 0"/><path d="m269.917969 166.855469c-4.78125-2.765625-10.898438-1.125-13.660157 3.660156l-69.839843 120.964844c-2.761719 4.785156-1.121094 10.898437 3.660156 13.660156 1.578125.910156 3.296875 1.34375 4.992187 1.34375 3.457032 0 6.816407-1.792969 8.667969-5.003906l69.839844-120.964844c2.761719-4.785156 1.125-10.898437-3.660156-13.660156zm0 0"/><path d="m273.035156 249.519531c-16.542968 0-30 13.457031-30 30s13.457032 30 30 30c16.542969 0 30-13.457031 30-30s-13.457031-30-30-30zm0 40c-5.515625 0-10-4.488281-10-10 0-5.515625 4.484375-10 10-10s10 4.484375 10 10c0 5.511719-4.484375 10-10 10zm0 0"/><path d="m360 236c0-71.683594-58.320312-130-130-130-71.683594 0-130 58.316406-130 130 0 71.679688 58.316406 130 130 130 71.679688 0 130-58.320312 130-130zm-130 110c-60.652344 0-110-49.347656-110-110 0-60.65625 49.347656-110 110-110 60.65625 0 110 49.34375 110 110 0 60.652344-49.347656 110-110 110zm0 0"/></svg>