<?xml version="1.0" encoding="iso-8859-1"?>
<!-- Generator: Adobe Illustrator 19.0.0, SVG Export Plug-In . SVG Version: 6.00 Build 0)  -->
<svg version="1.1" id="Capa_1" xmlns="http://www.w3.org/2000/svg" xmlns:xlink="http://www.w3.org/1999/xlink" x="0px" y="0px"
	 viewBox="0 0 512 512" style="enable-background:new 0 0 512 512;" xml:space="preserve">
<polygon style="fill:#FFCB5A;" points="194.207,97.103 326.621,97.103 353.103,503.172 0,503.172 26.483,97.103 141.241,97.103 "/>
<g>
	
		<rect x="34.617" y="370.781" transform="matrix(-0.0654 0.9979 -0.9979 -0.0654 425.0818 361.0822)" style="fill:#EC9821;" width="17.656" height="17.656"/>
	<path style="fill:#EC9821;" d="M315.41,476.69H37.694c-4.873,0.009-8.836-3.937-8.845-8.81c0-0.194,0.009-0.397,0.018-0.591
		l4.034-61.793l17.655,1.148l-3.443,52.392H315.41V476.69z"/>
</g>
<path style="fill:#5B5B5B;" d="M273.655,132.414H256V70.621c-0.026-24.364-19.774-44.111-44.138-44.138h-70.621
	c-24.364,0.026-44.111,19.774-44.138,44.138v61.793H79.448V70.621c0.035-34.11,27.683-61.758,61.793-61.793h70.621
	c34.11,0.035,61.758,27.683,61.793,61.793V132.414z"/>
<polygon style="fill:#4EBE80;" points="326.621,211.862 494.345,211.862 512,476.69 353.103,476.69 "/>
<g>
	<path style="fill:#5B5B5B;" d="M450.207,247.172h-17.655v-44.138c0-14.627-11.855-26.483-26.483-26.483h-70.621v-17.655h70.621
		c24.364,0.026,44.111,19.774,44.138,44.138V247.172z"/>
	<rect x="79.448" y="150.069" style="fill:#5B5B5B;" width="17.655" height="17.655"/>
	<rect x="256" y="150.069" style="fill:#5B5B5B;" width="17.655" height="17.655"/>
	<rect x="432.552" y="264.828" style="fill:#5B5B5B;" width="17.655" height="17.655"/>
</g>
<path style="fill:#03AA6F;" d="M467.862,432.552H353.103v-17.655h105.931v-16.922h17.655v25.75
	C476.69,428.597,472.735,432.552,467.862,432.552z"/>
<g>
</g>
<g>
</g>
<g>
</g>
<g>
</g>
<g>
</g>
<g>
</g>
<g>
</g>
<g>
</g>
<g>
</g>
<g>
</g>
<g>
</g>
<g>
</g>
<g>
</g>
<g>
</g>
<g>
</g>
</svg>
