<?xml version="1.0" encoding="iso-8859-1"?>
<!-- Generator: Adobe Illustrator 21.0.0, SVG Export Plug-In . SVG Version: 6.00 Build 0)  -->
<svg xmlns="http://www.w3.org/2000/svg" xmlns:xlink="http://www.w3.org/1999/xlink" version="1.1" id="Capa_1" x="0px" y="0px" viewBox="0 0 512 512" style="enable-background:new 0 0 512 512;" xml:space="preserve" width="512" height="512">
<g>
	<rect x="96" y="194" style="fill:#685C79;" width="320" height="30"/>
	<path style="fill:#FFD659;" d="M346,395.5H166c-12.15,0-22-9.85-22-22v-196c0-12.15,9.85-22,22-22h180c12.15,0,22,9.85,22,22v196   C368,385.65,358.15,395.5,346,395.5z"/>
	<path style="fill:#FFBD54;" d="M346,155.5h-30c12.15,0,22,9.85,22,22v196c0,12.15-9.85,22-22,22h30c12.15,0,22-9.85,22-22v-196   C368,165.35,358.15,155.5,346,155.5z"/>
	<path style="fill:#4FB1F5;" d="M328,155.5H184v-16c0-39.764,32.235-72,72-72h0c39.764,0,72,32.235,72,72V155.5z"/>
	<path style="fill:#46A4E6;" d="M256,67.5L256,67.5c-5.145,0-10.161,0.55-15,1.576c32.563,6.903,57,35.805,57,70.424v16h30v-16   C328,99.735,295.765,67.5,256,67.5z"/>
	<path style="fill:#4FB1F5;" d="M185.345,395.649h141.309v48.317c0,12.445-10.089,22.534-22.534,22.534h-96.242   c-12.445,0-22.534-10.089-22.534-22.534V395.649z"/>
	<path style="fill:#46A4E6;" d="M296.655,395.649v48.317c0,12.445-10.089,22.534-22.534,22.534h30   c12.445,0,22.534-10.089,22.534-22.534v-48.317H296.655z"/>
	<circle style="fill:#FF2C5C;" cx="256" cy="22.5" r="15"/>
	<circle style="fill:#FFD659;" cx="80" cy="464.5" r="40"/>
	<path style="fill:#FFBD54;" d="M80,424.5c-5.375,0-10.499,1.067-15.181,2.99c14.561,5.979,24.819,20.294,24.819,37.01   c0,16.716-10.258,31.031-24.819,37.01c4.682,1.923,9.806,2.99,15.181,2.99c22.091,0,40-17.909,40-40   C120,442.409,102.091,424.5,80,424.5z"/>
	<rect x="65" y="235" style="fill:#685C79;" width="30" height="79"/>
	<path style="fill:#FF2C5C;" d="M104,434H56c-8.837,0-16-7.163-16-16v-88c0-8.837,7.163-16,16-16h48c8.837,0,16,7.163,16,16v88   C120,426.837,112.837,434,104,434z"/>
	<path style="fill:#E62753;" d="M104,314H74c8.837,0,16,7.163,16,16v88c0,8.836-7.163,16-16,16h30c8.837,0,16-7.164,16-16v-88   C120,321.163,112.837,314,104,314z"/>
	<circle style="fill:#FFD659;" cx="80" cy="209" r="40"/>
	<path style="fill:#FFBD54;" d="M80,169c-5.375,0-10.499,1.067-15.181,2.99c14.561,5.979,24.819,20.294,24.819,37.01   c0,16.716-10.258,31.031-24.819,37.01C69.501,247.933,74.625,249,80,249c22.091,0,40-17.909,40-40C120,186.909,102.091,169,80,169z   "/>
	<circle style="fill:#FFD659;" cx="432" cy="464.5" r="40"/>
	<path style="fill:#FFBD54;" d="M432,424.5c-5.375,0-10.499,1.067-15.181,2.99c14.561,5.979,24.819,20.294,24.819,37.01   c0,16.716-10.258,31.031-24.819,37.01c4.682,1.923,9.806,2.99,15.181,2.99c22.091,0,40-17.909,40-40   C472,442.409,454.091,424.5,432,424.5z"/>
	<rect x="417" y="235" style="fill:#685C79;" width="30" height="79"/>
	<path style="fill:#FF2C5C;" d="M456,434h-48c-8.837,0-16-7.163-16-16v-88c0-8.837,7.163-16,16-16h48c8.837,0,16,7.163,16,16v88   C472,426.837,464.837,434,456,434z"/>
	<path style="fill:#E62753;" d="M456,314h-30c8.837,0,16,7.163,16,16v88c0,8.836-7.163,16-16,16h30c8.837,0,16-7.164,16-16v-88   C472,321.163,464.837,314,456,314z"/>
	<circle style="fill:#FFD659;" cx="432" cy="209" r="40"/>
	<path style="fill:#FFBD54;" d="M432,169c-5.375,0-10.499,1.067-15.181,2.99c14.561,5.979,24.819,20.294,24.819,37.01   c0,16.716-10.258,31.031-24.819,37.01c4.682,1.923,9.806,2.99,15.181,2.99c22.091,0,40-17.909,40-40   C472,186.909,454.091,169,432,169z"/>
	<path style="fill:#685C79;" d="M204,332c-4.418,0-8-3.582-8-8V220c0-4.418,3.582-8,8-8h104c4.418,0,8,3.582,8,8v104   c0,4.418-3.582,8-8,8H204z"/>
	<path style="fill:#594F69;" d="M308,212h-30c4.418,0,8,3.582,8,8v104c0,4.418-3.582,8-8,8h30c4.418,0,8-3.582,8-8V220   C316,215.582,312.418,212,308,212z"/>
	<path style="fill:#FF2C5C;" d="M226,299.692v-55.385c0-1.275,1.033-2.308,2.308-2.308h55.385c1.274,0,2.308,1.033,2.308,2.308   v55.385c0,1.274-1.033,2.308-2.308,2.308h-55.385C227.033,302,226,300.967,226,299.692z"/>
	<g>
		<path d="M456,306.5h-1.5v-55.678c14.872-8.033,25-23.766,25-41.822c0-26.191-21.309-47.5-47.5-47.5    c-18.056,0-33.788,10.128-41.821,25H375.5v-9c0-16.266-13.234-29.5-29.5-29.5h-10.5v-8.5c0-14.537-3.962-28.761-11.457-41.135    c-2.147-3.542-6.759-4.675-10.301-2.529c-3.543,2.146-4.675,6.758-2.529,10.301c6.076,10.03,9.287,21.567,9.287,33.364v8.5h-129    v-8.5c0-35.565,28.935-64.5,64.5-64.5c13.348,0,26.154,4.04,37.032,11.683c3.389,2.381,8.067,1.563,10.448-1.825    c2.381-3.389,1.564-8.067-1.825-10.448c-11.363-7.984-24.429-12.765-38.155-14.047V43.71c8.729-3.096,15-11.432,15-21.21    C278.5,10.093,268.407,0,256,0s-22.5,10.093-22.5,22.5c0,9.778,6.271,18.114,15,21.21v16.654c-40.331,3.793-72,37.83-72,79.136    v8.5H166c-16.266,0-29.5,13.234-29.5,29.5v9h-14.679c-8.033-14.872-23.766-25-41.821-25c-26.191,0-47.5,21.309-47.5,47.5    c0,18.056,10.128,33.788,25,41.822V306.5H56c-12.958,0-23.5,10.542-23.5,23.5v88c0,7.538,3.572,14.254,9.107,18.557    c-5.862,8.032-9.107,17.769-9.107,27.943c0,26.191,21.309,47.5,47.5,47.5s47.5-21.309,47.5-47.5    c0-10.174-3.245-19.911-9.107-27.943c5.535-4.303,9.107-11.019,9.107-18.557v-88c0-12.958-10.542-23.5-23.5-23.5h-1.5v-55.678    c8.171-4.414,14.908-11.151,19.321-19.322H136.5V256c0,4.142,3.358,7.5,7.5,7.5s7.5-3.358,7.5-7.5v-78.5    c0-7.995,6.505-14.5,14.5-14.5h18h144h18c7.995,0,14.5,6.505,14.5,14.5v196c0,7.995-6.505,14.5-14.5,14.5H166    c-7.995,0-14.5-6.505-14.5-14.5V288c0-4.142-3.358-7.5-7.5-7.5s-7.5,3.358-7.5,7.5v85.5c0,16.266,13.234,29.5,29.5,29.5h11.845    v40.966c0,16.561,13.473,30.034,30.034,30.034h96.242c16.561,0,30.034-13.473,30.034-30.034V403H346    c16.266,0,29.5-13.234,29.5-29.5v-142h14.679c4.414,8.171,11.151,14.908,19.321,19.322V306.5H408c-12.958,0-23.5,10.542-23.5,23.5    v88c0,7.538,3.572,14.254,9.107,18.557c-5.862,8.032-9.107,17.769-9.107,27.943c0,26.191,21.309,47.5,47.5,47.5    s47.5-21.309,47.5-47.5c0-10.174-3.245-19.911-9.107-27.943c5.535-4.303,9.107-11.019,9.107-18.557v-2c0-4.142-3.358-7.5-7.5-7.5    s-7.5,3.358-7.5,7.5v2c0,4.687-3.813,8.5-8.5,8.5h-48c-4.687,0-8.5-3.813-8.5-8.5v-88c0-4.687,3.813-8.5,8.5-8.5h9h30h9    c4.687,0,8.5,3.813,8.5,8.5v54c0,4.142,3.358,7.5,7.5,7.5s7.5-3.358,7.5-7.5v-54C479.5,317.042,468.958,306.5,456,306.5z M256,15    c4.136,0,7.5,3.364,7.5,7.5S260.136,30,256,30s-7.5-3.364-7.5-7.5S251.864,15,256,15z M80,497c-17.92,0-32.5-14.58-32.5-32.5    c0-8.702,3.463-16.937,9.569-23h45.862c6.106,6.063,9.569,14.298,9.569,23C112.5,482.42,97.92,497,80,497z M112.5,330v88    c0,4.687-3.813,8.5-8.5,8.5H56c-4.687,0-8.5-3.813-8.5-8.5v-88c0-4.687,3.813-8.5,8.5-8.5h9h30h9    C108.687,321.5,112.5,325.313,112.5,330z M87.5,306.5h-15v-50.598c2.444,0.389,4.948,0.598,7.5,0.598s5.056-0.208,7.5-0.598V306.5    z M80,241.5c-17.92,0-32.5-14.58-32.5-32.5s14.58-32.5,32.5-32.5s32.5,14.58,32.5,32.5S97.92,241.5,80,241.5z M126.902,216.5    c0.389-2.444,0.598-4.948,0.598-7.5s-0.208-5.056-0.598-7.5h9.598v15H126.902z M319.155,443.966    c0,8.29-6.744,15.034-15.034,15.034h-96.242c-8.29,0-15.034-6.744-15.034-15.034v-40.817h126.31V443.966z M432,497    c-17.92,0-32.5-14.58-32.5-32.5c0-8.702,3.463-16.937,9.569-23h45.862c6.106,6.063,9.569,14.298,9.569,23    C464.5,482.42,449.92,497,432,497z M375.5,216.5v-15h9.598c-0.389,2.444-0.598,4.948-0.598,7.5s0.208,5.056,0.598,7.5H375.5z     M399.5,209c0-17.92,14.58-32.5,32.5-32.5s32.5,14.58,32.5,32.5s-14.58,32.5-32.5,32.5S399.5,226.92,399.5,209z M424.5,306.5    v-50.598c2.444,0.389,4.948,0.598,7.5,0.598s5.056-0.208,7.5-0.598V306.5H424.5z"/>
		<path d="M228.308,309.5h55.385c5.408,0,9.808-4.4,9.808-9.808v-55.385c0-5.408-4.4-9.808-9.808-9.808h-55.385    c-5.408,0-9.808,4.4-9.808,9.808v55.385C218.5,305.1,222.9,309.5,228.308,309.5z M233.5,249.5h45v45h-45V249.5z"/>
		<path d="M173.468,300.763c-4.142,0-7.5,3.358-7.5,7.5s3.358,7.5,7.5,7.5H188.5V324c0,8.547,6.953,15.5,15.5,15.5h6.5v15.032    c0,4.142,3.358,7.5,7.5,7.5s7.5-3.358,7.5-7.5V339.5h23v15.032c0,4.142,3.358,7.5,7.5,7.5s7.5-3.358,7.5-7.5V339.5h23v15.032    c0,4.142,3.358,7.5,7.5,7.5s7.5-3.358,7.5-7.5V339.5h6.5c8.547,0,15.5-6.953,15.5-15.5v-8.237h15.032c4.142,0,7.5-3.358,7.5-7.5    s-3.358-7.5-7.5-7.5H323.5v-23h15.032c4.142,0,7.5-3.358,7.5-7.5s-3.358-7.5-7.5-7.5H323.5v-23h15.032c4.142,0,7.5-3.358,7.5-7.5    s-3.358-7.5-7.5-7.5H323.5V220c0-8.547-6.953-15.5-15.5-15.5h-6.5v-15.032c0-4.142-3.358-7.5-7.5-7.5s-7.5,3.358-7.5,7.5V204.5    h-23v-15.032c0-4.142-3.358-7.5-7.5-7.5s-7.5,3.358-7.5,7.5V204.5h-23v-15.032c0-4.142-3.358-7.5-7.5-7.5s-7.5,3.358-7.5,7.5    V204.5H204c-8.547,0-15.5,6.953-15.5,15.5v4.763h-15.032c-4.142,0-7.5,3.358-7.5,7.5s3.358,7.5,7.5,7.5H188.5v23h-15.032    c-4.142,0-7.5,3.358-7.5,7.5s3.358,7.5,7.5,7.5H188.5v23H173.468z M203.5,220c0-0.276,0.224-0.5,0.5-0.5h104    c0.276,0,0.5,0.224,0.5,0.5v104c0,0.276-0.224,0.5-0.5,0.5H204c-0.276,0-0.5-0.224-0.5-0.5V220z"/>
	</g>
</g>















</svg>
