<svg height="476pt" viewBox="0 -21 476.56536 476" width="476pt" xmlns="http://www.w3.org/2000/svg"><path d="m384.058594 261.601562c-.46875 0-.949219 0-1.417969-.023437-16.699219-.597656-29.992187-14.191406-30.210937-30.898437l-.050782-3.921876v-.4375c-.027344-17.25 13.890625-31.28125 31.140625-31.390624 17.25-.109376 31.347657 13.742187 31.539063 30.988281l.050781 3.921875c.113281 8.335937-3.097656 16.371094-8.925781 22.332031s-13.789063 9.351563-22.125 9.429687zm0 0" fill="#6fe3ff"/><path d="m352.378906 226.320312v.4375l.050782 3.921876c.21875 16.707031 13.511718 30.300781 30.210937 30.898437l.128906 14.300781c.179688 19.265625-15.292969 35.03125-34.558593 35.210938l-25.519532.160156-1.390625.019531-.199219-13.398437h-35.203124v-31.902344h-30.648438c-1.519531.003906-2.941406-.742188-3.804688-1.992188-.863281-1.253906-1.054687-2.847656-.515624-4.265624l19.949218-52.25s.050782-19.703126.160156-21.589844c3.054688-55.570313 49.332032-98.878906 104.980469-98.242188.890625.011719 1.789063.03125 2.679688.070313 1.589843.058593 3.171875.152343 4.730469.289062v107.011719c-17.1875.152344-31.042969 14.128906-31.050782 31.320312zm0 0" fill="#ffc9a4"/><path d="m322.691406 311.25 25.519532-.160156c19.265624-.179688 34.738281-15.945313 34.558593-35.210938l-.128906-14.300781c.46875.023437.949219.023437 1.417969.023437 8.335937-.078124 16.296875-3.46875 22.125-9.429687s9.039062-13.996094 8.925781-22.332031l-.050781-3.921875c-.226563-17.257813-14.371094-31.082031-31.628906-30.917969v-107.011719c67.558593 5.671875 107.980468 79.710938 76.121093 140.730469 0 0-11.128906 27.480469-12.210937 39.089844-3.667969 39.382812 12.78125 101.082031 12.78125 101.082031h-96.832032l-8.699218-34.601563c-1.679688-6.652343-7.675782-11.308593-14.539063-11.28125-5.769531.03125-12.730469.0625-18.550781.09375h-.019531l-.179688-11.832031zm0 0" fill="#ffc9a4"/><path d="m306.109375 376.167969-27.628906-17.976563 46-9.742187 9.738281 46.011719zm0 0" fill="#e48e66"/><path d="m321.480469 323.101562.03125 2.347657-41.691407.640625c-7.777343.089844-14.164062-6.132813-14.269531-13.910156v-.199219c0-7.730469 6.21875-14.023438 13.949219-14.109375h41.601562l.199219 13.398437zm0 0" fill="#6fe3ff"/><path d="m166 211.558594c11.046875-.003906 20.003906 8.953125 20 20v98c.003906 11.046875-8.953125 20.003906-20 20h-140c-11.046875.003906-20.003906-8.953125-20-20v-98c-.003906-11.046875 8.953125-20.003906 20-20zm-8.710938 71.992187c1.652344 0 2.992188-1.339843 2.992188-2.992187 0-1.648438-1.339844-2.988282-2.992188-2.988282-1.652343 0-2.988281 1.339844-2.988281 2.988282 0 1.652344 1.339844 2.988281 2.988281 2.992187zm-30.640624 0c1.652343-.007812 2.984374-1.347656 2.980468-2.996093-.003906-1.652344-1.34375-2.988282-2.992187-2.984376-1.648438 0-2.988281 1.339844-2.988281 2.988282.003906.796875.320312 1.558594.882812 2.117187.5625.5625 1.324219.875 2.117188.875zm-30.648438 0c1.652344 0 2.988281-1.339843 2.988281-2.992187 0-1.648438-1.335937-2.988282-2.988281-2.988282s-2.988281 1.339844-2.988281 2.988282c0 1.652344 1.335937 2.988281 2.988281 2.992187zm-30.648438 0c1.648438 0 2.988282-1.339843 2.988282-2.992187 0-1.648438-1.339844-2.988282-2.988282-2.988282-1.652343 0-2.992187 1.339844-2.992187 2.988282.003906 1.652344 1.339844 2.988281 2.992187 2.992187zm-30.640624 0c1.648437-.007812 2.984374-1.347656 2.980468-2.996093-.003906-1.652344-1.34375-2.988282-2.996094-2.984376-1.648437 0-2.984374 1.339844-2.984374 2.988282 0 .796875.316406 1.558594.878906 2.117187.5625.5625 1.324218.875 2.121094.875zm0 0" fill="#f8ec7d"/><path d="m156 211.558594h-120v-58.597656c0-19.882813 16.117188-36 36-36h48c19.882812 0 36 16.117187 36 36zm0 0" fill="#6fe3ff"/><path d="m143.140625 58.351562 27.628906 17.976563-46 9.742187-9.738281-46.011718zm0 0" fill="#e48e66"/><g fill="#63316d"><path d="m465.003906 231.234375c15.847656-30.515625 15.378906-66.929687-1.246094-97.027344-16.15625-29.683593-46.121093-49.285156-79.789062-52.191406-1.542969-.140625-3.195312-.242187-5-.308594-.960938-.042969-1.929688-.066406-2.886719-.078125-58.851562-.667968-107.792969 45.125-111.03125 103.890625-.105469 1.792969-.15625 15.917969-.167969 20.828125l-19.5625 51.226563c-1.238281 3.265625-.796874 6.929687 1.1875 9.804687 1.980469 2.875 5.25 4.589844 8.742188 4.589844h24.648438v19.902344h-.46875c-11 .164062-19.839844 9.109375-19.878907 20.109375v.285156c.175781 10.992187 9.128907 19.816406 20.125 19.824219h.234375l41.691406-.640625c1.839844-.027344 3.570313-.902344 4.679688-2.371094l13.792969-.066406h.039062c4.089844-.003907 7.660157 2.773437 8.65625 6.742187l8.699219 34.601563c.671875 2.664062 3.070312 4.535156 5.820312 4.535156h96.828126c1.867187 0 3.625-.863281 4.761718-2.34375 1.136719-1.476563 1.519532-3.402344 1.039063-5.203125-.160157-.605469-16.132813-61.097656-12.597657-98.976562.800782-8.695313 8.605469-29.488282 11.683594-37.132813zm-80.945312 24.367187c-.386719 0-.777344 0-1.164063-.015624h-.046875c-13.503906-.464844-24.261718-11.464844-24.417968-24.980469l-.050782-4.285157c.046875-13.878906 11.226563-25.152343 25.105469-25.320312h.238281c13.851563.03125 25.125 11.152344 25.339844 25l.046875 3.925781c.089844 6.730469-2.5 13.21875-7.199219 18.03125-4.699218 4.816407-11.121094 7.566407-17.851562 7.644531zm-104.308594 64.488282h-.09375c-4.402344 0-8-3.511719-8.105469-7.910156v-.199219c.007813-4.414063 3.535157-8.015625 7.949219-8.109375h35.6875l.238281 15.671875zm12.148438-28.21875v-25.902344c0-3.3125-2.683594-6-6-6h-28.644532l19.230469-50.367188c.261719-.679687.394531-1.402343.394531-2.125.023438-9.40625.085938-20.054687.152344-21.28125 2.753906-52.421874 46.4375-93.296874 98.921875-92.566406.484375 0 .984375.023438 1.476563.039063v95.871093c-17.898438 3.113282-30.984376 18.613282-31.050782 36.78125l.050782 4.4375c.210937 17.714844 12.859374 32.835938 30.257812 36.171876l.082031 9.007812c.148438 15.945312-12.652343 28.992188-28.597656 29.152344l-20.960937.132812-.113282-7.441406c-.050781-3.28125-2.722656-5.910156-6-5.910156zm154.550781 42.304687c2.152343 11.988281 4.441406 22.203125 5.992187 28.714844h-84.472656l-7.5625-30.070313c-2.144531-8.539062-9.414062-14.816406-18.175781-15.691406l6.035156-.039062c22.578125-.214844 40.710937-18.6875 40.5-41.265625l-.078125-8.554688c18.75-2.480469 32.679688-18.597656 32.421875-37.511719l-.050781-3.917968c-.28125-18.214844-13.632813-33.578125-31.628906-36.402344v-94.667969c27.117187 4.402344 50.675781 21.09375 63.8125 45.222657 14.734374 26.667968 15.105468 58.949218.988281 85.949218-.089844.171875-.167969.347656-.242188.527344-1.171875 2.898438-11.492187 28.648438-12.621093 40.785156-1.574219 16.871094.132812 39.386719 5.082031 66.921875zm0 0"/><path d="m330.125 45.324219c1.5625 1.5 3.808594 2.039062 5.878906 1.417969 2.070313-.621094 3.648438-2.308594 4.128906-4.417969.476563-2.109375-.21875-4.316407-1.820312-5.769531-27.292969-25.53125-63.980469-38.550782-101.261719-35.945313-37.28125 2.609375-71.800781 20.613281-95.273437 49.699219l-23.476563-15.277344c-2.035156-1.324219-4.667969-1.292969-6.667969.082031-2 1.371094-2.976562 3.8125-2.476562 6.1875l9.738281 46.011719c.6875 3.242188 3.875 5.3125 7.117188 4.628906l46-9.742187c2.371093-.503907 4.210937-2.386719 4.65625-4.773438.441406-2.386719-.59375-4.804687-2.628907-6.128906l-22.140624-14.40625c21.511718-26.109375 52.855468-42.160156 86.613281-44.347656 33.753906-2.191407 66.910156 9.671875 91.613281 32.78125zm-200.726562 33.636719-5.5-25.96875 15.714843 10.222656c.167969.125.34375.238281.527344.34375l15.21875 9.902344zm0 0"/><path d="m228.1875 419.578125c-39.132812 8.25-79.832031-3.089844-109.0625-30.382813-1.5625-1.5-3.808594-2.039062-5.878906-1.417968-2.070313.621094-3.648438 2.308594-4.128906 4.417968-.476563 2.109376.21875 4.316407 1.820312 5.769532 27.292969 25.53125 63.980469 38.550781 101.261719 35.945312 37.28125-2.609375 71.800781-20.613281 95.273437-49.699218l23.472656 15.277343c2.035157 1.324219 4.667969 1.292969 6.667969-.082031 2-1.371094 2.980469-3.8125 2.476563-6.1875l-9.738282-46.011719c-.6875-3.242187-3.871093-5.316406-7.113281-4.628906l-46 9.742187c-2.375.503907-4.214843 2.386719-4.65625 4.773438-.445312 2.386719.589844 4.804688 2.625 6.128906l22.148438 14.410156c-17.632813 21.421876-42.023438 36.214844-69.167969 41.945313zm91.667969-64.019531 5.5 25.96875-15.714844-10.226563c-.167969-.121093-.34375-.238281-.527344-.339843l-15.21875-9.902344zm0 0"/><path d="m166 355.558594c14.351562-.015625 25.984375-11.644532 26-26v-98c-.015625-14.351563-11.648438-25.984375-26-26h-4v-52.597656c-.027344-23.1875-18.816406-41.976563-42-42h-48c-23.183594.023437-41.972656 18.8125-42 42v52.597656h-4c-14.351562.015625-25.984375 11.648437-26 26v98c.015625 14.355468 11.648438 25.984375 26 26zm-124-202.597656c.019531-16.5625 13.4375-29.984376 30-30h48c16.5625.015624 29.980469 13.4375 30 30v52.597656h-108zm-30 176.597656v-98c.007812-7.726563 6.269531-13.992188 14-14h140c7.730469.007812 13.992188 6.273437 14 14v98c-.007812 7.730468-6.269531 13.992187-14 14h-140c-7.730469-.007813-13.992188-6.269532-14-14zm0 0"/><path d="m65.351562 289.550781c4.964844 0 8.988282-4.027343 8.988282-8.992187s-4.023438-8.988282-8.988282-8.988282c-4.964843 0-8.992187 4.023438-8.992187 8.988282.007813 4.960937 4.027344 8.980468 8.992187 8.992187zm0-12c1.214844-.003906 2.316407.726563 2.785157 1.851563.46875 1.121094.214843 2.417968-.644531 3.28125-.859376.863281-2.15625 1.125-3.28125.65625-1.125-.464844-1.859376-1.5625-1.859376-2.78125 0-1.65625 1.339844-3 3-3.007813zm0 0"/><path d="m126.648438 289.550781c4.964843-.007812 8.984374-4.035156 8.980468-8.996093-.003906-4.964844-4.027344-8.988282-8.992187-8.984376-4.964844 0-8.988281 4.027344-8.988281 8.988282.007812 4.96875 4.035156 8.992187 9 8.992187zm0-12c1.664062 0 3.011718 1.347657 3.011718 3.007813 0 1.664062-1.347656 3.011718-3.011718 3.011718-1.660157 0-3.007813-1.347656-3.007813-3.011718 0-.796875.316406-1.5625.878906-2.128906.566407-.5625 1.332031-.878907 2.128907-.878907zm0 0"/><path d="m34.710938 289.550781c4.960937-.007812 8.984374-4.035156 8.980468-8.996093-.003906-4.964844-4.03125-8.988282-8.996094-8.984376-4.960937 0-8.984374 4.027344-8.984374 8.988282.003906 4.96875 4.03125 8.992187 9 8.992187zm0-12c1.660156 0 3.007812 1.347657 3.007812 3.007813 0 1.664062-1.347656 3.011718-3.007812 3.011718-1.664063 0-3.011719-1.347656-3.011719-3.011718 0-.796875.316406-1.5625.882812-2.128906.5625-.5625 1.328125-.878907 2.128907-.878907zm0 0"/><path d="m157.289062 289.550781c4.964844 0 8.992188-4.027343 8.992188-8.992187s-4.027344-8.988282-8.992188-8.988282c-4.964843 0-8.988281 4.023438-8.988281 8.988282.007813 4.960937 4.027344 8.984375 8.988281 8.992187zm0-12c1.21875-.003906 2.320313.726563 2.789063 1.851563.46875 1.121094.214844 2.417968-.644531 3.28125-.863282.863281-2.15625 1.125-3.28125.65625-1.128906-.464844-1.863282-1.5625-1.863282-2.78125.003907-1.65625 1.34375-3 3-3.007813zm0 0"/><path d="m96 289.550781c4.964844 0 8.988281-4.027343 8.988281-8.992187s-4.023437-8.988282-8.988281-8.988282-8.988281 4.023438-8.988281 8.988282c.003906 4.964844 4.027343 8.984375 8.988281 8.992187zm0-12c1.664062 0 3.011719 1.347657 3.011719 3.007813 0 1.664062-1.347657 3.011718-3.011719 3.011718s-3.011719-1.347656-3.011719-3.011718c.003907-1.660156 1.351563-3.007813 3.011719-3.007813zm0 0"/></g></svg>