<svg height="512pt" viewBox="0 -1 512 512" width="512pt" xmlns="http://www.w3.org/2000/svg"><path d="m256 10.191406-248 196v192h496v-192zm0 0" fill="#ffe082"/><path d="m360 270.191406c0-3.566406-.183594-7.101562-.527344-10.566406l29.863282-16.234375c-2.0625-10.296875-5.320313-20.320313-9.710938-29.863281l-33.695312 4.480468c-3.550782-6.097656-7.710938-11.820312-12.417969-17.078124l14.632812-30.664063c-7.75-7.164063-16.304687-13.398437-25.496093-18.585937l-24.671876 23.367187c-6.457031-2.851563-13.1875-5.042969-20.089843-6.535156l-6.175781-33.40625c-10.4375-1.21875-20.984376-1.21875-31.421876 0l-6.175781 33.40625c-6.902343 1.492187-13.632812 3.683593-20.089843 6.535156l-24.671876-23.367187c-9.191406 5.1875-17.746093 11.421874-25.496093 18.585937l14.632812 30.664063c-4.707031 5.257812-8.867187 10.980468-12.417969 17.078124l-33.695312-4.480468c-4.390625 9.542968-7.648438 19.566406-9.710938 29.863281l29.863282 16.234375c-.34375 3.464844-.527344 7-.527344 10.566406 0 3.570313.183594 7.105469.527344 10.570313l-29.863282 16.230469c2.0625 10.296874 5.320313 20.316406 9.710938 29.855468l33.695312-4.480468c3.550782 6.101562 7.710938 11.824218 12.417969 17.082031l-14.632812 30.671875c7.75 7.160156 16.304687 13.398437 25.496093 18.582031l24.671876-23.375c6.457031 2.859375 13.1875 5.054687 20.089843 6.542969l6.175781 33.410156c10.4375 1.214844 20.984376 1.214844 31.421876 0l6.175781-33.410156c6.902343-1.488282 13.632812-3.683594 20.089843-6.542969l24.671876 23.375c9.191406-5.183594 17.746093-11.421875 25.496093-18.582031l-14.632812-30.671875c4.707031-5.257813 8.867187-10.980469 12.417969-17.082031l33.695312 4.480468c4.390625-9.539062 7.648438-19.558594 9.710938-29.855468l-29.863282-16.230469c.34375-3.464844.527344-7 .527344-10.570313zm-104 24c-13.253906 0-24-10.746094-24-24s10.746094-24 24-24 24 10.746094 24 24-10.746094 24-24 24zm0 0" fill="#ff8a65"/><path d="m256 214.191406c-30.929688 0-56 25.074219-56 56 0 30.929688 25.070312 56 56 56s56-25.070312 56-56c-.035156-30.914062-25.085938-55.964844-56-56zm0 80c-13.253906 0-24-10.746094-24-24s10.746094-24 24-24 24 10.746094 24 24-10.746094 24-24 24zm0 0" fill="#eee"/><path d="m371.199219 55.390625c-3.601563 4.300781-6.429688 9.195313-8.351563 14.464844l-17.601562 3.746093c-1.660156 8.3125-1.660156 16.871094 0 25.183594l17.601562 3.742188c1.921875 5.269531 4.75 10.164062 8.351563 14.464844l-5.550781 17.199218c6.386718 5.640625 13.832031 9.953125 21.902343 12.679688l12.089844-13.390625c5.527344.992187 11.191406.992187 16.71875 0l12.089844 13.390625c8.070312-2.726563 15.515625-7.039063 21.902343-12.679688l-5.597656-17.167968c3.601563-4.296876 6.429688-9.195313 8.351563-14.464844l17.597656-3.742188c1.664063-8.3125 1.664063-16.871094 0-25.183594l-17.597656-3.746093c-1.90625-5.277344-4.714844-10.183594-8.304688-14.496094l5.550781-17.199219c-6.386718-5.640625-13.832031-9.953125-21.902343-12.679687l-12.089844 13.425781c-5.527344-.992188-11.191406-.992188-16.71875 0l-12.089844-13.394531c-8.066406 2.71875-15.515625 7.019531-21.902343 12.648437zm0 0" fill="#ff8a65"/><path d="m256 374.191406-248-128v256h496v-256zm0 0" fill="#9fa8da"/><path d="m400 78.191406h16v16h-16zm0 0" fill="#fff"/><path d="m256 334.191406c35.347656 0 64-28.652344 64-64 0-35.34375-28.652344-64-64-64s-64 28.65625-64 64c.039062 35.332032 28.671875 63.960938 64 64zm0-112c26.507812 0 48 21.492188 48 48 0 26.511719-21.492188 48-48 48s-48-21.488281-48-48c.027344-26.5 21.5-47.972656 48-48zm0 0"/><path d="m256 302.191406c17.671875 0 32-14.328125 32-32s-14.328125-32-32-32-32 14.328125-32 32 14.328125 32 32 32zm0-48c8.835938 0 16 7.164063 16 16 0 8.835938-7.164062 16-16 16s-16-7.164062-16-16c0-8.835937 7.164062-16 16-16zm0 0"/><path d="m444 148.59375c4.160156-2.40625 8.070312-5.222656 11.671875-8.410156l3.929687-3.472656-5.890624-18.152344c2.027343-2.84375 3.78125-5.875 5.242187-9.046875l18.640625-4 1.03125-5.160157c1.867188-9.347656 1.867188-18.972656 0-28.320312l-1.023438-5.160156-18.640624-4c-1.460938-3.171875-3.214844-6.203125-5.242188-9.046875l5.890625-18.152344-3.929687-3.472656c-7.175782-6.359375-15.558594-11.210938-24.648438-14.261719l-4.976562-1.679688-12.796876 14.15625c-3.492187-.335937-7.007812-.335937-10.496093 0l-12.800781-14.15625-4.976563 1.679688c-9.089844 3.050781-17.472656 7.902344-24.648437 14.261719l-3.929688 3.472656 5.890625 18.152344c-2.027344 2.84375-3.78125 5.875-5.242187 9.046875l-16.910157 3.601562-84.144531-66.472656-256 202.320312v307.871094h512v-307.871094zm-91.6875-68.3125 16.558594-3.519531 1.527344-4.167969c1.601562-4.394531 3.957031-8.472656 6.960937-12.050781l2.847656-3.390625-5.246093-16.160156c3.21875-2.371094 6.6875-4.382813 10.34375-6l11.359374 12.574218 4.359376-.757812c4.613281-.824219 9.339843-.824219 13.953124 0l4.359376.757812 11.359374-12.574218c3.65625 1.613281 7.125 3.621093 10.34375 5.992187l-5.230468 16.152344 2.847656 3.390625c3 3.585937 5.351562 7.667968 6.945312 12.066406l1.511719 4.175781 16.558594 3.519531c.417969 3.929688.417969 7.894532 0 11.824219l-16.558594 3.519531-1.511719 4.160157c-1.601562 4.390625-3.957031 8.46875-6.960937 12.046875l-2.847656 3.390625 5.230469 16.152343c-3.21875 2.371094-6.6875 4.378907-10.34375 5.992188l-11.359376-12.574219-4.359374.800781c-4.613282.824219-9.339844.824219-13.953126 0l-4.359374-.800781-11.34375 12.589844c-3.65625-1.613281-7.125-3.621094-10.34375-5.992187l5.230468-16.152344-2.847656-3.390625c-3-3.585938-5.351562-7.667969-6.945312-12.0625l-1.511719-4.175781-16.558594-3.519532c-.417969-3.933594-.417969-7.894531 0-11.824218zm-336.3125 179.046875 222.550781 114.863281-222.550781 114.871094zm144.496094 20.625c-.660156-6.492187-.660156-13.035156 0-19.527344l.527344-5.289062-29.230469-15.890625c1.441406-5.785156 3.289062-11.460938 5.527343-16.988282l32.984376 4.390626 2.6875-4.617188c3.277343-5.628906 7.117187-10.914062 11.464843-15.765625l3.542969-4-14.320312-30.035156c4.597656-3.875 9.464843-7.421875 14.558593-10.613281l24.144531 22.878906 4.875-2.160156c5.957032-2.636719 12.171876-4.660157 18.542969-6.03125l5.207031-1.128907 6.046876-32.695312c5.957031-.425781 11.933593-.425781 17.890624 0l6.046876 32.695312 5.207031 1.128907c6.371093 1.371093 12.585937 3.394531 18.542969 6.03125l4.875 2.160156 24.144531-22.878906c5.09375 3.191406 9.960937 6.738281 14.558593 10.613281l-14.320312 30.066406 3.542969 4c4.347656 4.851563 8.1875 10.136719 11.464843 15.765625l2.6875 4.617188 32.984376-4.390626c2.238281 5.527344 4.085937 11.203126 5.527343 16.992188l-29.230469 15.886719.527344 5.289062c.660156 6.492188.660156 13.035157 0 19.527344l-.527344 5.296875 29.183594 15.855469-124.160156 64.054687-124.160156-64.085937 29.183594-15.859375zm-119.550782 214.238281 215.054688-111 215.054688 111zm455.054688-5.128906-222.550781-114.871094 222.550781-114.863281zm0-247.742188-98.65625 50.917969-29.503906-16c.105468-2.03125.160156-4.046875.160156-6.046875s-.054688-4.003906-.160156-6.015625l30.503906-16.574219-1.160156-5.777343c-2.191406-10.910157-5.644532-21.523438-10.296875-31.632813l-2.472657-5.367187-34.398437 4.574219c-2.179687-3.355469-4.53125-6.59375-7.054687-9.703126l14.925781-31.3125-4.328125-4c-8.207032-7.578124-17.261719-14.179687-26.992188-19.671874l-5.140625-2.902344-25.1875 23.871094c-3.734375-1.445313-7.550781-2.6875-11.421875-3.71875l-6.3125-34.167969-5.878906-.671875c-11.046875-1.273438-22.203125-1.273438-33.25 0l-5.871094.671875-6.320312 34.136719c-3.871094 1.03125-7.6875 2.273437-11.421875 3.71875l-25.195313-23.871094-5.140625 2.902344c-9.742187 5.5-18.8125 12.113281-27.027343 19.703124l-4.328126 4 14.929688 31.3125c-2.523438 3.109376-4.878906 6.347657-7.054688 9.703126l-34.402343-4.574219-2.472657 5.367187c-4.648437 10.109375-8.101562 20.722656-10.292968 31.632813l-1.160156 5.777343 30.503906 16.574219c-.082032 2.011719-.121094 4.015625-.121094 6.015625s.054688 4.007813.160156 6.015625l-29.503906 16-98.65625-50.886719v-31.257812l240-189.679688 80.121094 63.328126c0 .800781-.121094 1.65625-.121094 2.480468.003906 4.753906.472656 9.496094 1.398438 14.160156l1.035156 5.160157 18.636718 4c1.460938 3.171875 3.214844 6.203125 5.242188 9.046875l-5.886719 18.152344 3.925781 3.472656c7.175782 6.363281 15.558594 11.210937 24.648438 14.265625l4.976562 1.679687 12.800782-14.160156c3.488281.335938 7.003906.335938 10.496094 0l12.796874 14.160156 1.1875-.402344 68.796876 54.402344zm0 0"/></svg>