<svg height="472pt" viewBox="-20 0 472 472" width="472pt" xmlns="http://www.w3.org/2000/svg"><path d="m424 360h-304v-352h208l96 88zm0 0" fill="#fbd699"/><path d="m336 128 56 112h-112zm0 0" fill="#6cbae5"/><path d="m344 200h-216l-8-8v168h232v-152c0-4.417969-3.582031-8-8-8zm0 0" fill="#fbc488"/><path d="m280 240h72v-32c0-4.417969-3.582031-8-8-8h-44zm0 0" fill="#4799cf"/><path d="m424 96h-96v-88zm0 0" fill="#fbc488"/><path d="m152 136h112v72h-112zm0 0" fill="#fd9226"/><g fill="#fbc488"><path d="m160 64h16v16h-16zm0 0"/><path d="m192 64h16v16h-16zm0 0"/><path d="m224 64h16v16h-16zm0 0"/></g><path d="m24 160h96v48h-96zm0 0" fill="#b9b9b9"/><path d="m120 192-16-16h-80v32h96zm0 0" fill="#a8a8a8"/><path d="m328 464h-304c-8.835938 0-16-7.164062-16-16v-264h88l24 24h224v240c0 8.835938-7.164062 16-16 16zm0 0" fill="#ebebeb"/><path d="m8 432h336v16c0 8.835938-7.164062 16-16 16h-304c-8.835938 0-16-7.164062-16-16zm0 0" fill="#e4e4e2"/><path d="m256 320c0 44.183594-35.816406 80-80 80s-80-35.816406-80-80 35.816406-80 80-80 80 35.816406 80 80zm0 0" fill="#fbb540"/><path d="m224 312-48 48v40c37.582031-.015625 70.085938-26.183594 78.121094-62.894531zm0 0" fill="#39cdc8"/><path d="m184 296c0 8.835938-7.164062 16-16 16s-16-7.164062-16-16 7.164062-16 16-16 16 7.164062 16 16zm0 0" fill="#f26b32"/><path d="m182.238281 399.726562c11.855469-.902343 23.355469-4.457031 33.648438-10.398437l-34.605469-34.609375-5.28125 5.28125v39.289062c2.046875.269532 4.152344.328126 6.238281.4375zm0 0" fill="#36c3be"/><path d="m109.449219 364.367188c21.480469 32.277343 63.03125 44.476562 98.550781 28.929687v-1.296875l-56-56zm0 0" fill="#41dfd0"/><path d="m152 200h112v8h-112zm0 0" fill="#ee8a24"/><path d="m102.792969 368.800781c0 .046875.070312.0625.101562.101563 23.59375 35.378906 69.148438 48.769531 108.128907 31.777344l.222656-.113282c25.492187-11.210937 44.199218-33.792968 50.464844-60.925781.066406-.191406.097656-.367187.144531-.5625 8.75-39.097656-10.015625-79.167969-45.648438-97.484375-35.636719-18.3125-79.140625-10.246094-105.839843 19.625-26.699219 29.875-29.847657 74.011719-7.664063 107.375.039063.070312.039063.148438.089844.207031zm18.160156-2.496093 30.03125-20 43.273437 43.296874c-26.878906 7.203126-55.496093-1.875-73.304687-23.257812zm89.535156 16.894531-23.199219-23.199219 37.183594-37.175781 20.640625 17.175781c-5.351562 18.425781-17.808593 33.964844-34.625 43.199219zm-34.488281-135.199219c39.746094.046875 71.953125 32.253906 72 72 0 .511719-.0625 1.007812-.078125 1.511719l-18.800781-15.664063c-3.179688-2.644531-7.855469-2.429687-10.777344.496094l-42.34375 42.34375-18.34375-18.34375c-2.695312-2.695312-6.921875-3.117188-10.097656-1l-35.480469 23.65625c-11.570313-22.304688-10.660156-49.03125 2.40625-70.492188 13.066406-21.464843 36.386719-34.546874 61.515625-34.507812zm0 0"/><path d="m168 320c13.253906 0 24-10.746094 24-24s-10.746094-24-24-24-24 10.746094-24 24 10.746094 24 24 24zm0-32c4.417969 0 8 3.582031 8 8s-3.582031 8-8 8-8-3.582031-8-8 3.582031-8 8-8zm0 0"/><path d="m16 152v24h-8c-4.417969 0-8 3.582031-8 8v264c0 13.253906 10.746094 24 24 24h304c13.253906 0 24-10.746094 24-24v-80h72c4.417969 0 8-3.582031 8-8v-264c0-.167969-.089844-.3125-.105469-.480469-.039062-.773437-.199219-1.539062-.46875-2.261719-.085937-.257812-.1875-.507812-.296875-.753906-.417968-.902344-1-1.714844-1.722656-2.398437l-96-88c-.675781-.601563-1.449219-1.085938-2.285156-1.425781-.246094-.089844-.492188-.167969-.746094-.230469-.617188-.199219-1.261719-.320313-1.910156-.3593752-.160156-.0117188-.304688-.0898438-.464844-.0898438h-208c-4.417969 0-8 3.582031-8 8v136h-88c-4.417969 0-8 3.582031-8 8zm76.6875 40 21.65625 21.65625c1.503906 1.492188 3.535156 2.335938 5.65625 2.34375h216v208h-320v-232zm163.3125 8h-96v-56h96zm88 0h-35.054688l27.054688-54.113281 43.054688 86.113281h-27.054688v-24c0-4.417969-3.582031-8-8-8zm-8 248c0 4.417969-3.582031 8-8 8h-304c-4.417969 0-8-3.582031-8-8v-8h320zm0-421.816406 33.136719 30.402344 34.296875 31.414062h-67.433594zm-208-10.183594h192v80c0 4.417969 3.582031 8 8 8h88v248h-64v-104h40c2.78125.015625 5.367188-1.414062 6.835938-3.773438 1.46875-2.363281 1.605468-5.316406.363281-7.800781l-56-112c-1.503907-2.523437-4.222657-4.070312-7.160157-4.070312-2.933593 0-5.65625 1.546875-7.160156 4.070312l-37.824218 75.574219h-19.054688v-64c0-4.417969-3.582031-8-8-8h-112c-4.417969 0-8 3.582031-8 8v64h-16zm-16 144v28.6875l-10.34375-10.34375c-1.5-1.5-3.535156-2.34375-5.65625-2.34375h-64v-16zm0 0"/><path d="m160 64h16v16h-16zm0 0"/><path d="m192 64h16v16h-16zm0 0"/><path d="m224 64h16v16h-16zm0 0"/></svg>