<svg height="495pt" viewBox="-15 0 495 495.98203" width="495pt" xmlns="http://www.w3.org/2000/svg"><path d="m335.882812 372.601562h-185.832031c-11.40625.003907-20.652343-9.242187-20.648437-20.648437v-197.128906c-.003906-11.410157 9.242187-20.660157 20.648437-20.660157h27.910157v90.410157c0 16.566406 13.429687 30 30 30h183.5c16.570312 0 30-13.433594 30-30v-90.410157h16.679687c11.40625.003907 20.652344 9.25 20.648437 20.660157v273.707031l-78.046874-55.929688zm0 0" fill="#f8ec7d"/><path d="m251.519531 102.382812h139.941407c16.570312 0 30 13.429688 30 30v92.191407c0 16.566406-13.429688 30-30 30h-183.5c-16.570313 0-30-13.433594-30-30v-92.191407c0-16.570312 13.429687-30 30-30zm128.191407 80.910157v-12.5c0-7.730469-6.269532-14-14-14h-.910157c-3.714843-.003907-7.277343 1.472656-9.902343 4.097656s-4.101563 6.1875-4.097657 9.902344v12.5zm-51.078126 24v-.910157h-57.84375v.910157c0 15.464843 12.539063 28 28 28h1.84375c15.460938 0 28-12.535157 28-28zm-80.011718-24v-12.5c.003906-3.714844-1.472656-7.277344-4.097656-9.902344s-6.1875-4.101563-9.902344-4.097656h-.910156c-7.730469 0-14 6.269531-14 14v12.5zm0 0" fill="#e48e66"/><path d="m379.710938 170.792969v12.5h-28.910157v-12.5c-.003906-3.714844 1.472657-7.277344 4.097657-9.902344s6.1875-4.101563 9.902343-4.097656h.910157c7.730468 0 14 6.269531 14 14zm0 0" fill="#f8ec7d"/><path d="m347.902344 80.742188v21.640624h-96.382813v-21.640624c0-3.988282 3.230469-7.226563 7.222657-7.230469h81.929687c3.992187 0 7.230469 3.238281 7.230469 7.230469zm0 0" fill="#6fe3ff"/><path d="m335.882812 372.601562v40.800782c.003907 11.410156-9.242187 20.660156-20.652343 20.660156h-230.691407l-78.046874 55.921875v-273.710937c-.003907-11.40625 9.242187-20.65625 20.648437-20.660157h102.261719v156.339844c-.003906 11.40625 9.242187 20.652344 20.648437 20.648437zm0 0" fill="#6fe3ff"/><path d="m328.632812 206.382812v.910157c0 15.464843-12.539062 28-28 28h-1.84375c-15.460937 0-28-12.535157-28-28v-.910157zm0 0" fill="#f8ec7d"/><path d="m322.121094 28.8125c0 12.609375-10.222656 22.832031-22.832032 22.832031-12.605468 0-22.828124-10.222656-22.828124-22.832031s10.222656-22.828125 22.828124-22.828125c12.609376 0 22.832032 10.21875 22.832032 22.828125zm0 0" fill="#6fe3ff"/><path d="m248.621094 170.792969v12.5h-28.910156v-12.5c0-7.730469 6.269531-14 14-14h.910156c3.714844-.003907 7.277344 1.472656 9.902344 4.097656s4.101562 6.1875 4.097656 9.902344zm0 0" fill="#f8ec7d"/><g fill="#63316d"><path d="m219.710938 189.292969h28.910156c3.3125 0 6-2.6875 6-6v-12.5c-.011719-11.039063-8.960938-19.988281-20-20h-.910156c-11.039063.011719-19.988282 8.960937-20 20v12.5c0 3.3125 2.6875 6 6 6zm6-18.5c.003906-4.417969 3.582031-7.996094 8-8h.910156c4.417968.003906 7.996094 3.582031 8 8v6.5h-16.910156zm0 0"/><path d="m350.800781 189.292969h28.910157c3.3125 0 6-2.6875 6-6v-12.5c-.011719-11.039063-8.960938-19.988281-20-20h-.910157c-11.039062.011719-19.988281 8.960937-20 20v12.5c0 3.3125 2.6875 6 6 6zm6-18.5c.003907-4.417969 3.585938-7.996094 8-8h.910157c4.417968.003906 7.996093 3.582031 8 8v6.5h-16.910157zm0 0"/><path d="m298.789062 241.292969h1.84375c18.765626-.019531 33.976563-15.230469 34-34v-.910157c0-3.3125-2.6875-6-6-6h-57.84375c-3.3125 0-6 2.6875-6 6v.910157c.023438 18.769531 15.234376 33.980469 34 34zm23.25-28.910157c-2.367187 9.90625-11.21875 16.898438-21.402343 16.910157h-1.839844c-10.183594-.015625-19.03125-7.007813-21.402344-16.910157zm0 0"/><path d="m258.742188 67.511719c-7.300782.011719-13.214844 5.929687-13.222657 13.230469v15.640624h-37.558593c-18.238282.023438-33.585938 13.667969-35.742188 31.78125h-22.167969c-14.714843.019532-26.636719 11.945313-26.648437 26.660157v34.789062h-96.261719c-14.714844.019531-26.636719 11.945313-26.648437 26.660157v273.710937c0 2.246094 1.257812 4.308594 3.257812 5.335937 2 1.027344 4.40625.847657 6.234375-.460937l76.484375-54.800781h228.761719c14.714843-.019532 26.636719-11.945313 26.652343-26.660156v-34.796876h36.929688l76.484375 54.804688c1.828125 1.3125 4.238281 1.492188 6.238281.464844 2.003906-1.027344 3.261719-3.089844 3.261719-5.339844v-273.707031c-.015625-14.714844-11.9375-26.640625-26.652344-26.660157h-10.941406c-2.15625-18.113281-17.503906-31.757812-35.742187-31.78125h-37.558594v-15.640624c-.007813-7.304688-5.929688-13.222657-13.230469-13.230469h-35.261719v-10.527344c14.414063-3.136719 24.132813-16.648437 22.519532-31.3125-1.609376-14.660156-14.03125-25.7382812-28.78125-25.671875s-27.066407 11.261719-28.542969 25.9375c-1.476563 14.671875 8.363281 28.097656 22.804687 31.101562v10.472657zm23.71875-38.699219c0-9.292969 7.535156-16.828125 16.828124-16.828125 9.296876 0 16.832032 7.535156 16.832032 16.828125 0 9.296875-7.535156 16.832031-16.832032 16.832031-9.289062-.011719-16.816406-7.542969-16.828124-16.832031zm47.421874 384.589844c-.007812 8.089844-6.5625 14.648437-14.652343 14.660156h-230.691407c-1.25 0-2.472656.394531-3.492187 1.125l-68.554687 49.113281v-262.027343c.003906-8.089844 6.558593-14.648438 14.648437-14.660157h96.261719v150.339844c.015625 14.710937 11.9375 26.632813 26.648437 26.648437h179.832031zm122.90625-258.578125v262.027343l-68.546874-49.125c-1.023438-.730468-2.246094-1.125-3.5-1.125h-230.691407c-8.085937-.007812-14.640625-6.5625-14.648437-14.648437v-197.128906c.003906-8.089844 6.558594-14.648438 14.648437-14.660157h21.910157v84.410157c.023437 19.871093 16.128906 35.976562 36 36h183.5c19.871093-.023438 35.976562-16.128907 36-36v-84.410157h10.679687c8.089844.011719 14.644531 6.570313 14.648437 14.660157zm-37.328124-22.441407v92.191407c-.015626 13.246093-10.75 23.984375-24 24h-183.5c-13.25-.015625-23.984376-10.753907-24-24v-89.171875c.171874-.816406.171874-1.660156 0-2.480469v-.539063c.015624-13.25 10.75-23.984374 24-24h183.5c13.25.015626 23.984374 10.75 24 24zm-73.558594-51.640624v15.640624h-84.382813v-15.640624c0-.675782.546875-1.226563 1.222657-1.230469h81.929687c.679687.003906 1.226563.550781 1.230469 1.230469zm0 0"/></g></svg>