<svg xmlns="http://www.w3.org/2000/svg" xmlns:xlink="http://www.w3.org/1999/xlink" viewBox="0 0 500 500"><defs><style>.cls-1,.cls-11,.cls-15,.cls-16,.cls-17,.cls-18,.cls-19,.cls-20,.cls-28,.cls-29,.cls-33,.cls-34,.cls-36,.cls-40,.cls-41,.cls-42,.cls-43,.cls-44,.cls-45,.cls-47,.cls-68,.cls-70,.cls-71,.cls-8{fill:none;}.cls-2{isolation:isolate;}.cls-3{fill:#fff;}.cls-4{fill:#8fd8d3;}.cls-5{fill:#ebf5f7;}.cls-6{fill:#023d5f;}.cls-7{clip-path:url(#clip-path);}.cls-29,.cls-34,.cls-8{stroke:#17a59e;}.cls-11,.cls-15,.cls-33,.cls-44,.cls-45,.cls-47,.cls-68,.cls-71,.cls-8{stroke-miterlimit:10;}.cls-9{fill:#dae4e5;}.cls-10{clip-path:url(#clip-path-2);}.cls-11{stroke:#023d5f;stroke-width:2px;}.cls-12{fill:#2dc1bd;}.cls-13{fill:#17a59e;}.cls-14{clip-path:url(#clip-path-3);}.cls-15{stroke:#2dc1bd;}.cls-16,.cls-17,.cls-18,.cls-19,.cls-20,.cls-28{stroke:#63bace;}.cls-16,.cls-17,.cls-18,.cls-19,.cls-20,.cls-28,.cls-29,.cls-34,.cls-36,.cls-40,.cls-41,.cls-42,.cls-43,.cls-70{stroke-linecap:round;stroke-linejoin:round;}.cls-17{stroke-dasharray:2.99 2.49;}.cls-18{stroke-dasharray:2.99 2.49;}.cls-19{stroke-dasharray:2.91 2.42;}.cls-20{stroke-dasharray:2.99 2.49;}.cls-21{fill:#fdd247;}.cls-22{fill:#fcded6;}.cls-23{fill:#71606e;}.cls-23,.cls-30{opacity:0.2;}.cls-23,.cls-30,.cls-35,.cls-39,.cls-54,.cls-55{mix-blend-mode:multiply;}.cls-24{fill:#167f7f;}.cls-25{fill:#fc9549;}.cls-26{fill:#fc5e49;}.cls-27{fill:#2085b7;}.cls-28{stroke-dasharray:3 2.5;}.cls-31{fill:#ffb839;}.cls-32{fill:#b3e5e1;}.cls-33,.cls-47{stroke:#fff;}.cls-34,.cls-40,.cls-41,.cls-42,.cls-43,.cls-44,.cls-71{stroke-width:0.5px;}.cls-35,.cls-39,.cls-60{opacity:0.55;}.cls-36{stroke:#ffe1b0;stroke-width:16px;}.cls-36,.cls-61,.cls-63{mix-blend-mode:screen;}.cls-37{fill:#0c877e;}.cls-38,.cls-66{fill:#c5e6ef;}.cls-39{fill:#71c9c4;}.cls-40,.cls-41,.cls-42,.cls-43{stroke:#95c6c6;}.cls-41{stroke-dasharray:1.81 2.27;}.cls-42{stroke-dasharray:2.09 2.62;}.cls-43{stroke-dasharray:1.79 2.24;}.cls-44,.cls-45{stroke:#c5e6ef;}.cls-45,.cls-47{stroke-width:0.25px;}.cls-46{fill:#f39f86;}.cls-48{fill:#95c6c6;}.cls-49{fill:#062f44;}.cls-50{fill:#16405a;}.cls-51{fill:#103649;}.cls-52{opacity:0.5;}.cls-53{fill:#3a3a3a;}.cls-54,.cls-56{fill:#ffe7c5;}.cls-57{fill:#ffc25b;}.cls-58{fill:#ffa92c;}.cls-59{fill:#0b0b3a;}.cls-62{fill:#afd4dd;}.cls-63{fill:#ffb27e;}.cls-64{fill:#db856e;}.cls-65{fill:#ed9c80;}.cls-66{opacity:0.75;}.cls-67{fill:#94dee0;}.cls-68,.cls-71{stroke:#94dee0;}.cls-69{fill:#86d5db;}.cls-70{stroke:#ffc840;stroke-width:2.99px;}</style><clipPath id="clip-path"><path class="cls-1" d="M306.44,294.41c-17.37,1-30.39,20.72-30.39,20.72s15.14,18.18,32.5,17.21,30.39-20.72,30.39-20.72S323.8,293.44,306.44,294.41Z"/></clipPath><clipPath id="clip-path-2"><path class="cls-1" d="M163.37,313.71c19.68,17,54.17,9.26,54.17,9.26s2.59-35.25-17.08-52.23-54.17-9.26-54.17-9.26S143.7,296.73,163.37,313.71Z"/></clipPath><clipPath id="clip-path-3"><path class="cls-1" d="M335.34,296.3c-17.83,16.15-49.25,10.52-49.25,10.52s-2.5-31.82,15.33-48,49.24-10.51,49.24-10.51S353.17,280.15,335.34,296.3Z"/></clipPath></defs><title>Graphic-design-vector</title><g class="cls-2"><g id="BACKGROUND"><rect class="cls-3" width="500" height="500"/></g><g id="OBJECT"><rect class="cls-4" x="388.55" y="289.42" width="25.38" height="25.38" rx="5.36" ry="5.36" transform="translate(-86.06 423.75) rotate(-50.99)"/><path class="cls-3" d="M398.75,291.61a19.65,19.65,0,0,1,4.94,4,3.92,3.92,0,0,1,.35,4.66,4.22,4.22,0,0,1-4.55,2,7,7,0,0,1-3.06-1.62l-.71-.57-3,3.66-2.32-1.88Zm-1.5,6.63a4.31,4.31,0,0,0,2,1.34,2,2,0,0,0,2.25-1,1.75,1.75,0,0,0-.26-2.22,17,17,0,0,0-1.5-1.23Z"/><path class="cls-3" d="M409.23,305.1l-1.63,1.21c-.4-.51-.76-1-1.16-1.49a1.52,1.52,0,0,0-.7-.48,1,1,0,0,0-.77.11.91.91,0,0,0-.17.76,8.19,8.19,0,0,0,.57,1.15,8.44,8.44,0,0,1,.65,1.4,2.81,2.81,0,0,1-3,3.63,5.24,5.24,0,0,1-3.17-1.69c-.58-.59-1.06-1.28-1.64-2l1.74-1.32c.62.74,1.2,1.46,1.81,2.14a1,1,0,0,0,.6.33,1,1,0,0,0,.72-.16,1,1,0,0,0,.19-.76,4.23,4.23,0,0,0-.44-.91,12.3,12.3,0,0,1-.76-1.6,2.71,2.71,0,0,1,2.8-3.61A5.77,5.77,0,0,1,409.23,305.1Z"/><path class="cls-5" d="M421.24,225.42H319.34c-15.36,0-15.55-19.06-1.91-22.89a26.69,26.69,0,0,1,24,5.07s3.7-46.84,38.78-41.34c27.65,4.33,26,34.45,26,34.45s5.69-12.4,20.61-7.71C442.4,197.9,440.72,225.42,421.24,225.42Z"/><path class="cls-6" d="M306.44,294.41c-17.37,1-30.39,20.72-30.39,20.72s15.14,18.18,32.5,17.21,30.39-20.72,30.39-20.72S323.8,293.44,306.44,294.41Z"/><g class="cls-7"><line class="cls-8" x1="274.4" y1="315.16" x2="340.59" y2="311.46"/><line class="cls-8" x1="305.09" y1="333.23" x2="288.99" y2="314.35"/><line class="cls-8" x1="328.11" y1="331.94" x2="312.01" y2="313.06"/><line class="cls-8" x1="301.11" y1="313.67" x2="318.55" y2="295.41"/><line class="cls-8" x1="316.53" y1="312.87" x2="328.48" y2="300.7"/></g><ellipse class="cls-9" cx="239.68" cy="370.38" rx="131.65" ry="16.93"/><ellipse class="cls-9" cx="371.2" cy="379.97" rx="96.6" ry="21.06"/><path class="cls-6" d="M163.37,313.71c19.68,17,54.17,9.26,54.17,9.26s2.59-35.25-17.08-52.23-54.17-9.26-54.17-9.26S143.7,296.73,163.37,313.71Z"/><g class="cls-10"><line class="cls-8" x1="219.35" y1="324.65" x2="144.36" y2="259.93"/><line class="cls-8" x1="205.11" y1="273.38" x2="202.82" y2="310.39"/><line class="cls-8" x1="179.03" y1="250.87" x2="176.73" y2="287.87"/><line class="cls-8" x1="189.08" y1="298.53" x2="151.39" y2="300.07"/><line class="cls-8" x1="171.68" y1="283.39" x2="146.2" y2="284.08"/></g><path class="cls-5" d="M119.7,299.18H30.43c-13.46,0-13.63-15.3-1.68-18.38a24.87,24.87,0,0,1,21,4.08s3.24-37.62,34-33.21c24.23,3.49,22.82,27.67,22.82,27.67s5-9.95,18.06-6.19C138.24,277.08,136.76,299.18,119.7,299.18Z"/><path class="cls-5" d="M139.84,142h71.85c10.84,0,11-12.32,1.35-14.8a20,20,0,0,0-16.91,3.28s-2.61-30.28-27.35-26.72c-19.5,2.8-18.36,22.27-18.36,22.27s-4-8-14.54-5C124.91,124.22,126.1,142,139.84,142Z"/><path class="cls-9" d="M152.68,364.33c0,3.34-19.24,6.05-43,6.05s-43-2.71-43-6.05,19.23-6,43-6S152.68,361,152.68,364.33Z"/><line class="cls-11" x1="83" y1="364.78" x2="96.53" y2="223.18"/><line class="cls-11" x1="136.95" y1="364.78" x2="123.42" y2="223.18"/><line class="cls-11" x1="95.45" y1="234.47" x2="124.5" y2="234.47"/><line class="cls-11" x1="93.83" y1="251.47" x2="126.12" y2="251.47"/><line class="cls-11" x1="92.21" y1="268.46" x2="127.75" y2="268.46"/><line class="cls-11" x1="90.58" y1="285.45" x2="129.37" y2="285.45"/><line class="cls-11" x1="88.96" y1="302.45" x2="130.94" y2="302.45"/><line class="cls-11" x1="87.33" y1="319.44" x2="132.57" y2="319.44"/><line class="cls-11" x1="85.71" y1="336.44" x2="134.23" y2="336.44"/><line class="cls-11" x1="84.09" y1="353.43" x2="135.33" y2="353.43"/><path class="cls-12" d="M125.18,224H94.78A1.75,1.75,0,0,1,93,222.28h0a1.76,1.76,0,0,1,1.76-1.76h30.4a1.76,1.76,0,0,1,1.76,1.76h0A1.75,1.75,0,0,1,125.18,224Z"/><path class="cls-13" d="M335.34,296.3c-17.83,16.15-49.25,10.52-49.25,10.52s-2.5-31.82,15.33-48,49.24-10.51,49.24-10.51S353.17,280.15,335.34,296.3Z"/><g class="cls-14"><line class="cls-15" x1="284.45" y1="308.42" x2="352.41" y2="246.86"/><line class="cls-15" x1="297.2" y1="261.43" x2="299.44" y2="294.85"/><line class="cls-15" x1="320.83" y1="240.02" x2="323.07" y2="273.44"/><line class="cls-15" x1="311.88" y1="283.57" x2="346.19" y2="283.48"/><line class="cls-15" x1="327.66" y1="269.17" x2="350.84" y2="268.79"/></g><line class="cls-16" x1="228.26" y1="363.05" x2="228.26" y2="364.55"/><path class="cls-17" d="M228.26,367v4.68a15.59,15.59,0,0,1-15.59,15.59H186.06a9.31,9.31,0,0,1-9.31-9.31V367.38"/><line class="cls-16" x1="176.75" y1="366.13" x2="176.75" y2="364.63"/><line class="cls-16" x1="135.23" y1="366.35" x2="135.23" y2="367.85"/><path class="cls-18" d="M135.23,370.35v13.39a18.16,18.16,0,0,0,18.16,18.16h57.55a27,27,0,0,0,27-27V353.54"/><line class="cls-16" x1="237.91" y1="352.3" x2="237.91" y2="350.8"/><path class="cls-1" d="M175.76,401.9"/><line class="cls-16" x1="149.32" y1="366.35" x2="149.32" y2="367.85"/><path class="cls-19" d="M149.32,370.28v13.46a18.16,18.16,0,0,0,18.16,18.16h20.75"/><line class="cls-16" x1="189.44" y1="401.9" x2="190.94" y2="401.9"/><line class="cls-16" x1="162.91" y1="366.35" x2="162.91" y2="367.85"/><path class="cls-20" d="M162.91,370.34v13.4a18.16,18.16,0,0,0,18.16,18.16h22.52"/><line class="cls-16" x1="204.83" y1="401.9" x2="206.33" y2="401.9"/><polygon class="cls-21" points="140.19 311.51 140.19 373.17 130.27 373.19 130.06 311.52 140.19 311.51"/><polygon class="cls-22" points="135.01 298.11 136.02 299.55 140.19 311.51 130.07 311.52 134.04 299.5 135.01 298.11"/><polygon class="cls-21" points="135.01 298.11 136.02 299.55 135.49 299.88 135.01 299.5 134.5 300.01 134.04 299.5 135.01 298.11"/><polygon class="cls-22" points="130.07 311.52 131.52 312.61 132.55 311.52 130.07 311.52"/><polygon class="cls-22" points="132.55 311.52 134 312.61 135.03 311.51 132.55 311.52"/><polygon class="cls-22" points="135.03 311.51 136.48 312.61 137.51 311.51 135.03 311.51"/><polygon class="cls-22" points="137.51 311.51 138.96 312.6 140.19 311.51 137.51 311.51"/><polygon class="cls-23" points="135.01 298.11 136.02 299.54 140.19 311.51 140.19 373.17 136.98 373.18 136.77 311.51 133.57 300.92 134.04 299.49 135.01 298.11"/><rect class="cls-24" x="130.27" y="372.51" width="9.92" height="1.82"/><polygon class="cls-25" points="154.1 311.51 154.1 373.17 144.18 373.19 143.97 311.52 154.1 311.51"/><polygon class="cls-22" points="148.91 298.11 149.93 299.55 154.1 311.51 143.98 311.52 147.95 299.5 148.91 298.11"/><polygon class="cls-25" points="148.91 298.11 149.93 299.55 149.39 299.88 148.92 299.5 148.4 300.01 147.95 299.5 148.91 298.11"/><polygon class="cls-22" points="143.98 311.52 145.43 312.61 146.46 311.52 143.98 311.52"/><polygon class="cls-22" points="146.46 311.52 147.91 312.61 148.94 311.51 146.46 311.52"/><polygon class="cls-22" points="148.94 311.51 150.39 312.61 151.41 311.51 148.94 311.51"/><polygon class="cls-22" points="151.41 311.51 152.86 312.6 154.1 311.51 151.41 311.51"/><polygon class="cls-23" points="148.91 298.11 149.93 299.54 154.1 311.51 154.1 373.17 150.89 373.18 150.68 311.51 147.48 300.92 147.95 299.49 148.91 298.11"/><rect class="cls-24" x="144.18" y="372.51" width="9.92" height="1.82"/><polygon class="cls-26" points="168.01 311.51 168.01 373.17 158.09 373.19 157.88 311.52 168.01 311.51"/><polygon class="cls-22" points="162.82 298.11 163.83 299.55 168.01 311.51 157.88 311.52 161.85 299.5 162.82 298.11"/><polygon class="cls-26" points="162.82 298.11 163.83 299.55 163.3 299.88 162.82 299.5 162.31 300.01 161.85 299.5 162.82 298.11"/><polygon class="cls-22" points="157.88 311.52 159.34 312.61 160.36 311.52 157.88 311.52"/><polygon class="cls-22" points="160.36 311.52 161.81 312.61 162.84 311.51 160.36 311.52"/><polygon class="cls-22" points="162.84 311.51 164.29 312.61 165.32 311.51 162.84 311.51"/><polygon class="cls-22" points="165.32 311.51 166.77 312.6 168.01 311.51 165.32 311.51"/><polygon class="cls-23" points="162.82 298.11 163.83 299.54 168.01 311.51 168.01 373.17 164.79 373.18 164.58 311.51 161.38 300.92 161.85 299.49 162.82 298.11"/><rect class="cls-24" x="158.08" y="372.51" width="9.92" height="1.82"/><polygon class="cls-27" points="181.91 311.51 181.91 373.17 171.99 373.19 171.78 311.52 181.91 311.51"/><polygon class="cls-22" points="176.73 298.11 177.74 299.55 181.91 311.51 171.79 311.52 175.76 299.5 176.73 298.11"/><polygon class="cls-27" points="176.73 298.11 177.74 299.55 177.21 299.88 176.73 299.5 176.22 300.01 175.76 299.5 176.73 298.11"/><polygon class="cls-22" points="171.79 311.52 173.24 312.61 174.27 311.52 171.79 311.52"/><polygon class="cls-22" points="174.27 311.52 175.72 312.61 176.75 311.51 174.27 311.52"/><polygon class="cls-22" points="176.75 311.51 178.2 312.61 179.23 311.51 176.75 311.51"/><polygon class="cls-22" points="179.23 311.51 180.68 312.6 181.91 311.51 179.23 311.51"/><polygon class="cls-23" points="176.73 298.11 177.74 299.54 181.91 311.51 181.92 373.17 178.7 373.18 178.49 311.51 175.29 300.92 175.76 299.49 176.73 298.11"/><rect class="cls-24" x="171.99" y="372.51" width="9.92" height="1.82"/><path class="cls-28" d="M410.14,394h62.75a5.71,5.71,0,0,1,5.71,5.71h0a5.72,5.72,0,0,1-5.71,5.72H275.37a18.79,18.79,0,0,1-18.79-18.79V364.33"/><path class="cls-28" d="M244.57,367.16v37.91a19,19,0,0,1-19,19h-6.68"/><path class="cls-28" d="M269.28,356.08v15.69a11.39,11.39,0,0,0,11.39,11.39h68.7"/><path class="cls-21" d="M320.55,156c-16.3-20.18-40.52-34.48-67-34.95-15.29-.26-31.4,1.76-45.06,9A101.9,101.9,0,0,0,177.61,156c-14.6,18.07-23,41.64-20.48,64.73,2.11,19.28,11.64,37,24.23,51.44,12.28,14.12,30.18,25.77,33.24,45.71.88,5.69-1.22,13.56,3.12,18.12,5.17,5.42,13.57,3.53,20.18,3.48q11.81-.11,23.61-.15c5.64,0,14.66,1.53,18.92-3.33,4.34-4.56,2.25-12.43,3.12-18.12,2.31-15,14-27.19,24.81-37,12.37-11.23,22.18-24.15,27.7-40.09C346.29,211.29,340,180.13,320.55,156Z"/><path class="cls-3" d="M244.16,356.69c-.07-9.75-.59-19.49-.95-29.23-.59-16.08-1.34-32.19-2.79-48.21-.85-9.37-2.11-18.58-5.24-27.51-2.17-6.21-5.9-14.31-12.85-16.33a9.34,9.34,0,0,0-11.61,6.89c-1.48,7.39,5.57,14.18,11.87,16.56,7.28,2.74,17.72,1.38,24.13-3,7-4.77,11-13.12,12.26-21.34.95-6.31,1-13.52-5.77-16.39-5.92-2.51-10.78,2.18-11.38,8-.63,6.08,1.08,12.7,3.45,18.25s6.24,11.52,12.43,13c8.77,2,18.63-3,24.59-9.15,4.32-4.46,11.52-14.08,5.73-20.07-2.66-2.74-7-3-10.33-1.51-4.36,1.92-7.45,6.18-9.92,10.08-5.62,8.88-8.21,19.32-9.09,29.7-1,12.06-1.18,24.25-1.58,36.35-.39,11.77-.68,23.54-1,35.31-.15,6-.18,12.09-.26,18.13a.78.78,0,0,0,1.55,0c1-20.35,1.45-40.71,2.21-61.06.38-10.1.45-20.33,1.5-30.39,1-9.56,3.62-19.1,8.87-27.22,2.4-3.73,5.8-8.57,10.51-9.4,5-.9,8.08,3.13,6.91,7.8-1.87,7.46-9.25,14.18-16,17.22-4,1.78-9.21,3.11-13.53,1.91a13.14,13.14,0,0,1-6.42-4.53c-3.81-4.59-5.88-10.68-6.92-16.48-.77-4.28-1.71-11.75,3.29-14,2.64-1.19,5.81.37,7.58,2.37,2.12,2.39,1.89,5.87,1.71,8.86-.48,7.72-3.55,15.79-9.38,21s-15.42,6.88-22.86,5c-6-1.51-14.42-8.56-11.75-15.6,2-5.16,8.05-5.45,11.89-2.47,6.58,5.09,9,14.85,10.81,22.52a147.54,147.54,0,0,1,2.79,21.15c2,24,2.74,48.13,4.4,72.19,0,.53.08,1.07.11,1.61s1,.67,1,0Z"/><rect class="cls-13" x="221.88" y="339.18" width="53.34" height="5.26"/><path class="cls-12" d="M278.3,362.65a3.11,3.11,0,0,1,.09-4l.33-.35a3.12,3.12,0,0,0,.14-3.91l-.54-.68a3.09,3.09,0,0,1,.24-4,3.09,3.09,0,0,0,.29-4l-1.43-1.9a2.73,2.73,0,0,0-2.2-1.11h-53a2.73,2.73,0,0,0-2.2,1.11l-1.43,1.9a3.09,3.09,0,0,0,.29,4,3.09,3.09,0,0,1,.24,4l-.54.68a3.12,3.12,0,0,0,.14,3.91l.33.35a3.11,3.11,0,0,1,.09,4l-.42.5a3.12,3.12,0,0,0,.15,4l.22.22a5.71,5.71,0,0,0,4,1.75h51.19a5.71,5.71,0,0,0,4-1.75l.22-.22a3.12,3.12,0,0,0,.15-4Z"/><line class="cls-29" x1="250.92" y1="349.9" x2="275.62" y2="349.9"/><line class="cls-29" x1="226.22" y1="349.9" x2="239.91" y2="349.9"/><line class="cls-29" x1="222.64" y1="355.95" x2="258.44" y2="355.95"/><line class="cls-29" x1="265.15" y1="355.95" x2="275.71" y2="355.95"/><line class="cls-29" x1="226.22" y1="362" x2="245.37" y2="362"/><line class="cls-29" x1="257.9" y1="362" x2="265.6" y2="362"/><line class="cls-29" x1="243.34" y1="349.9" x2="246.12" y2="349.9"/><g class="cls-30"><path class="cls-31" d="M320.55,156c-16.3-20.18-40.52-34.48-67-34.95-3,0-6.06,0-9.11.14,42.32,2.59,79,39.38,77.6,83.64-1.16,37.21-19.33,63.75-56.91,80-7.86,3.4-13.5,8.6-14.75,17.6-1.16,8.33,1.47,16.76-.26,25.06a6.9,6.9,0,0,1-1.54,3.47,7.51,7.51,0,0,1-3.08,1.73,55.52,55.52,0,0,1-28.91,1.83,8.4,8.4,0,0,0,1.09,1.46c5.17,5.42,13.57,3.53,20.18,3.48q11.81-.11,23.61-.15c5.64,0,14.66,1.53,18.92-3.33,4.34-4.56,2.25-12.43,3.12-18.12,2.31-15,14-27.19,24.81-37,12.37-11.23,22.18-24.15,27.7-40.09C346.29,211.29,340,180.13,320.55,156Z"/></g><path class="cls-12" d="M467.81,374.25s-8.21-5.83-14.85-6.77c-13.06-1.87-20.52,3.3-27.57-.66-2.92-1.64,4.33-2.75,5.1-4.59a26.85,26.85,0,0,0,0-2.79,4.56,4.56,0,0,1-3.45.12c-13.22-4.77-24.44-4.31-43.63-4.31-42.92,0-78.34,7.73-83.56,17.71h-.66v2.67h0c.25,11.13,37.86,20.14,84.22,20.14,44.76,0,83.9-8.59,84.36-19Zm-55.42,1.22c-6.07,0-11-1.77-11-4s4.92-4,11-4,11,1.78,11,4S418.46,375.47,412.39,375.47Z"/><path class="cls-4" d="M467.68,373.17c-1.12-4.45-8.08-7.09-14.72-8-13.06-1.86-20.52,3.3-27.57-.65-4.11-2.31,11.91-3.58,1.69-7.26-13.22-4.77-24.44-4.31-43.63-4.31-46.51,0-84.22,9.07-84.22,20.26s37.71,20.26,84.22,20.26S470.43,384.15,467.68,373.17Zm-55.29-.05c-6.07,0-11-1.77-11-3.95s4.92-4,11-4,11,1.77,11,4S418.46,373.12,412.39,373.12Z"/><path class="cls-25" d="M345.7,375.36a5,5,0,0,0-1.4-1.52,15,15,0,0,0-4.23-2.34.76.76,0,0,0,.27-1,1.67,1.67,0,0,0-.89-.72,11.42,11.42,0,0,0-5.2-.52,79,79,0,0,0-10.52,1.07c-1.61.31-3.42.9-4.12,2.49a3.19,3.19,0,0,0-.18,2,4.69,4.69,0,0,1-1.29.38c-.43.14-.87.57-.74,1a1,1,0,0,0,.3.44c3.24,3.29,8,4.06,12.27,4.07a45,45,0,0,0,13.92-2,3,3,0,0,0,1.93-1.31A2.31,2.31,0,0,0,345.7,375.36Z"/><path class="cls-26" d="M378.08,364.25a5,5,0,0,0-1.4-1.52,15,15,0,0,0-4.23-2.34.78.78,0,0,0,.28-1,1.69,1.69,0,0,0-.9-.72,11.42,11.42,0,0,0-5.2-.51,77.32,77.32,0,0,0-10.52,1.07c-1.61.31-3.42.9-4.12,2.49a3.18,3.18,0,0,0-.18,2,5.06,5.06,0,0,1-1.29.38c-.43.13-.87.56-.74,1a1.15,1.15,0,0,0,.3.45c3.25,3.29,8,4.05,12.27,4.07a45.31,45.31,0,0,0,13.92-2,3,3,0,0,0,1.93-1.31A2.31,2.31,0,0,0,378.08,364.25Z"/><path class="cls-27" d="M436.64,380.7a4.26,4.26,0,0,0-1.19-1.31,13,13,0,0,0-3.63-2,.67.67,0,0,0,.24-.89,1.45,1.45,0,0,0-.77-.61,9.69,9.69,0,0,0-4.45-.44,68.08,68.08,0,0,0-9,.91c-1.38.27-2.93.77-3.53,2.14a2.67,2.67,0,0,0-.15,1.72,4.19,4.19,0,0,1-1.11.33c-.37.12-.74.48-.63.88a.89.89,0,0,0,.26.38c2.78,2.81,6.83,3.47,10.5,3.48a38.51,38.51,0,0,0,11.92-1.71,2.63,2.63,0,0,0,1.66-1.12A2,2,0,0,0,436.64,380.7Z"/><path class="cls-21" d="M391.65,380.76a5,5,0,0,0-1.4-1.53A14.78,14.78,0,0,0,386,376.9a.78.78,0,0,0,.28-1,1.67,1.67,0,0,0-.89-.72,11.56,11.56,0,0,0-5.2-.52,79,79,0,0,0-10.52,1.07c-1.62.32-3.43.9-4.13,2.5a3.15,3.15,0,0,0-.17,2,4.52,4.52,0,0,1-1.3.38c-.43.14-.86.57-.73,1a1.05,1.05,0,0,0,.3.45c3.24,3.28,8,4.05,12.27,4.07a45.06,45.06,0,0,0,13.92-2,3,3,0,0,0,1.93-1.31A2.32,2.32,0,0,0,391.65,380.76Z"/><path class="cls-9" d="M135.07,429.92c0,2.22-15.34,4-34.27,4s-34.26-1.8-34.26-4,15.34-4,34.26-4S135.07,427.69,135.07,429.92Z"/><path class="cls-32" d="M64,415.59c-3.39-6.66-4.3-14.73-1.3-21.74,1.73-4.06,4.16-8.06,7.69-10.8A29.42,29.42,0,0,1,80.81,378a25.77,25.77,0,0,1,19.46,2.24A27.53,27.53,0,0,1,111,392.65c2.27,4.9,3.23,11,8.12,14.14,1.39.9,3.71,1.28,4.4,3,.82,2-.67,4-1.46,5.72q-1.42,3.09-2.83,6.2c-.67,1.48-1.32,4-3.1,4.58s-3.54-.87-5.14-1.31c-4.23-1.16-8.81.49-12.66,2.17a28,28,0,0,1-13.82,2.57A25.31,25.31,0,0,1,64,415.59Z"/><path class="cls-33" d="M122.38,417.45s-13.62-6.72-20.13-10.39A29.71,29.71,0,0,1,96.37,403c-1.53-1.36-4.62-4.57-2.64-6.69,2.34-2.5,5.1,1.58,5.08,3.86a8.68,8.68,0,0,1-3.19,5.74c-2.73,1.93-6.94,1.44-9.54-.17a2.18,2.18,0,0,1,1.34-4c2.11.14,8.06,4.59,6.69,8.17a8.1,8.1,0,0,1-4.06,4.25c-3.26,1.59-7.49-2.54-2.91-4,3.26-1,7.42.08,10.47,1.26,8.35,3.25,14.82,6,23.11,9.42"/><rect class="cls-13" x="113.67" y="417.79" width="15.39" height="1.52" transform="translate(552.96 478.85) rotate(114.12)"/><path class="cls-12" d="M123.34,428.84a.89.89,0,0,0-1-.45l-.13.05a.9.9,0,0,1-1-.43l-.11-.22a.9.9,0,0,0-1.09-.41.88.88,0,0,1-1.07-.39l-.34-.6a.81.81,0,0,1,0-.71l6.25-13.95a.78.78,0,0,1,.55-.45l.67-.16a.9.9,0,0,1,1,.55.91.91,0,0,0,1,.54l.24-.07a.9.9,0,0,1,1,.5l.06.13a.9.9,0,0,0,1,.49l.18-.05a.89.89,0,0,1,1,.51l0,.09a1.62,1.62,0,0,1,0,1.26l-6,13.48a1.64,1.64,0,0,1-.93.86l-.09,0a.88.88,0,0,1-1.07-.43Z"/><line class="cls-34" x1="123.22" y1="420.12" x2="120.3" y2="426.63"/><line class="cls-34" x1="126.13" y1="413.62" x2="124.51" y2="417.23"/><line class="cls-34" x1="128.14" y1="413.39" x2="123.92" y2="422.82"/><line class="cls-34" x1="123.13" y1="424.58" x2="121.89" y2="427.36"/><line class="cls-34" x1="129.31" y1="415.05" x2="127.06" y2="420.09"/><line class="cls-34" x1="125.58" y1="423.39" x2="124.67" y2="425.42"/><line class="cls-34" x1="124.11" y1="418.13" x2="123.78" y2="418.86"/><g class="cls-35"><path class="cls-32" d="M64,415.59c-3.39-6.66-4.3-14.73-1.3-21.74.34-.8.71-1.6,1.11-2.38-4.31,11.44,1,25.43,12.87,30.29,9.93,4.08,19.06,2.42,27.77-5.55,1.82-1.67,3.86-2.54,6.37-1.81,2.33.68,4.24,2.36,6.63,2.89a2.05,2.05,0,0,0,1.1,0,2.1,2.1,0,0,0,.81-.61,16.08,16.08,0,0,0,3.9-7.39,2.87,2.87,0,0,1,.25.46c.82,2-.67,4-1.46,5.72q-1.42,3.09-2.83,6.2c-.67,1.48-1.32,4-3.1,4.58s-3.54-.87-5.14-1.31c-4.23-1.16-8.81.49-12.66,2.17a28,28,0,0,1-13.82,2.57A25.31,25.31,0,0,1,64,415.59Z"/></g><path class="cls-9" d="M388.6,421.91c0,1.75-12.05,3.16-26.91,3.16s-26.91-1.41-26.91-3.16,12.05-3.16,26.91-3.16S388.6,420.17,388.6,421.91Z"/><path class="cls-32" d="M389.17,412.55c2.62-4.89,3.42-10.86,1.3-16.1a19.76,19.76,0,0,0-5.54-8.13,22,22,0,0,0-7.68-3.93,19.1,19.1,0,0,0-14.46,1.37,20.44,20.44,0,0,0-8.12,9.06c-1.75,3.6-2.56,8.1-6.23,10.37-1.05.64-2.77.89-3.31,2.12-.63,1.47.44,3,1,4.27.67,1.54,1.33,3.09,2,4.64.47,1.11.92,3,2.23,3.45s2.64-.6,3.83-.9c3.16-.8,6.53.49,9.36,1.8a20.73,20.73,0,0,0,10.21,2.12A18.74,18.74,0,0,0,389.17,412.55Z"/><path class="cls-33" d="M345.82,413s10.21-4.77,15.09-7.4a22,22,0,0,0,4.45-2.94c3-2.55,2.73-4.51,1.5-5.24-1.55-.93-3.27.81-3.29,3.12a6.41,6.41,0,0,0,2.27,4.31c2,1.48,5.13,1.17,7.09,0,1-.58,1.3-3.09-.94-3-1.57.07-6.05,3.28-5.08,5.95a6,6,0,0,0,2.95,3.22,6.37,6.37,0,0,0,4,.51c2.29-.7-.16-3-1.39-3.33a13.51,13.51,0,0,0-8.21.66c-6.25,2.28-11.09,4.24-17.29,6.63"/><rect class="cls-13" x="340.85" y="413.31" width="11.41" height="1.13" transform="translate(592.55 -66.63) rotate(67.05)"/><path class="cls-12" d="M344.93,421.47a.66.66,0,0,1,.79-.31l.1,0a.66.66,0,0,0,.78-.3l.09-.16a.67.67,0,0,1,.81-.29.66.66,0,0,0,.81-.27l.25-.44a.58.58,0,0,0,0-.53l-4.42-10.44a.57.57,0,0,0-.4-.34l-.49-.12a.66.66,0,0,0-.76.38.67.67,0,0,1-.77.39l-.18-.05a.65.65,0,0,0-.76.35l0,.09a.66.66,0,0,1-.77.35l-.14,0a.67.67,0,0,0-.78.37l0,.06a1.23,1.23,0,0,0,0,.94l4.27,10.09a1.19,1.19,0,0,0,.68.64l.07,0a.65.65,0,0,0,.8-.31Z"/><line class="cls-34" x1="345.16" y1="415.01" x2="347.22" y2="419.88"/><line class="cls-34" x1="343.1" y1="410.14" x2="344.24" y2="412.84"/><line class="cls-34" x1="341.61" y1="409.94" x2="344.6" y2="417"/><line class="cls-34" x1="345.16" y1="418.32" x2="346.04" y2="420.4"/><line class="cls-34" x1="340.72" y1="411.15" x2="342.31" y2="414.93"/><line class="cls-34" x1="343.36" y1="417.4" x2="344" y2="418.91"/><line class="cls-34" x1="344.53" y1="413.52" x2="344.76" y2="414.07"/><g class="cls-35"><path class="cls-32" d="M389.17,412.55c2.62-4.89,3.42-10.86,1.3-16.1-.24-.6-.5-1.2-.78-1.79,3,8.56-1.17,18.85-10,22.27-7.43,2.88-14.17,1.51-20.51-4.54a4.71,4.71,0,0,0-4.7-1.44c-1.74.47-3.18,1.69-5,2.05a1.48,1.48,0,0,1-.81,0,1.59,1.59,0,0,1-.6-.46,11.91,11.91,0,0,1-2.77-5.55,1.68,1.68,0,0,0-.2.34c-.63,1.47.44,3,1,4.27.67,1.54,1.33,3.09,2,4.64.47,1.11.92,3,2.23,3.45s2.64-.6,3.83-.9c3.16-.8,6.53.49,9.36,1.8a20.73,20.73,0,0,0,10.21,2.12A18.74,18.74,0,0,0,389.17,412.55Z"/></g><path class="cls-36" d="M187.85,172.8c-7.74,10.37-15.09,23.31-14.91,47"/><path class="cls-36" d="M209.06,151a16.15,16.15,0,0,0-3.91,3.64"/><path class="cls-9" d="M226.84,448.67c0,3.59-16,6.5-35.69,6.5s-35.69-2.91-35.69-6.5,16-6.5,35.69-6.5S226.84,445.08,226.84,448.67Z"/><path class="cls-37" d="M214.7,433.69H183.53l15.55-5.07h31.61l-.12.34-15,4.6A2.7,2.7,0,0,1,214.7,433.69Z"/><path class="cls-38" d="M214.28,433.16H183.82l15.26-4.54H230L215.13,433A2.7,2.7,0,0,1,214.28,433.16Z"/><path class="cls-39" d="M211.8,432.4H191.59l10.12-3h20.51l-9.86,2.92A1.77,1.77,0,0,1,211.8,432.4Z"/><path class="cls-37" d="M230.69,428.62H199.08l4-17.48a1.49,1.49,0,0,1,1.44-1H233a1.37,1.37,0,0,1,1.43,1.71Z"/><path class="cls-13" d="M230,428.62h-30.9l4-17.48a1.49,1.49,0,0,1,1.44-1h27.78a1.37,1.37,0,0,1,1.43,1.71Z"/><path class="cls-38" d="M228.62,427.53H200.74l3.58-16.26H232.2Z"/><polyline class="cls-40" points="225.65 424.43 225.44 425.4 224.44 425.4"/><line class="cls-41" x1="222.17" y1="425.41" x2="206.99" y2="425.41"/><polyline class="cls-40" points="205.85 425.4 204.85 425.4 205.07 424.43"/><path class="cls-42" d="M205.63,421.87l1.87-8.47h18.28"/><polyline class="cls-40" points="227.09 413.39 228.09 413.39 227.87 414.37"/><line class="cls-43" x1="227.39" y1="416.56" x2="225.9" y2="423.34"/><line class="cls-44" x1="191.59" y1="431.57" x2="216.94" y2="431.57"/><line class="cls-45" x1="196.26" y1="430.27" x2="221.62" y2="430.27"/><path class="cls-46" d="M189,430c1.06-.88,2.92-1.09,4.29-1.28a23.6,23.6,0,0,1,4.12-.06c.79,0,.59,1-.09,1.08a7.78,7.78,0,0,1-2.36,0,3.73,3.73,0,0,1-2.08,1.38,8.5,8.5,0,0,1-2.52.24c-.24,0-.54-.06-.59-.29"/><line class="cls-47" x1="222.25" y1="419.47" x2="216.46" y2="413.67"/><path class="cls-3" d="M222.2,419.41a.28.28,0,1,1,0,.4A.28.28,0,0,1,222.2,419.41Z"/><path class="cls-3" d="M220,421.39a.28.28,0,1,1,0,.4A.28.28,0,0,1,220,421.39Z"/><path class="cls-3" d="M214,415.37a.28.28,0,1,1,0,.4A.28.28,0,0,1,214,415.37Z"/><path class="cls-3" d="M216.26,413.47a.28.28,0,1,1,0,.4A.28.28,0,0,1,216.26,413.47Z"/><path class="cls-47" d="M214.2,415.57a4.55,4.55,0,0,1,6,6"/><path class="cls-3" d="M215.54,417.08l3.74-.59-2.88,3.11a.85.85,0,0,0-1.19,1.21.84.84,0,0,0,1.19,0,.85.85,0,0,0,0-1.2h0l3-3s-.44,2.58-.59,3.87a46.23,46.23,0,0,0-4.53,2.77c-.15.11-1.72-1.52-1.65-1.6C213.63,420.44,215.54,417.08,215.54,417.08Z"/><path class="cls-3" d="M211.49,421.53l.63-.62a.29.29,0,0,1,.42,0l2.53,2.52a.3.3,0,0,1,0,.41s0,0,0,0l-.63.63a.32.32,0,0,1-.43,0L211.49,422A.3.3,0,0,1,211.49,421.53Z"/><path class="cls-48" d="M208.59,413.37a.9.9,0,1,1-.9-.89A.9.9,0,0,1,208.59,413.37Z"/><path class="cls-48" d="M205.75,425.41a.9.9,0,1,1-.9-.9A.89.89,0,0,1,205.75,425.41Z"/><circle class="cls-48" cx="225.3" cy="425.41" r="0.9"/><path class="cls-48" d="M228.74,413.37a.9.9,0,1,1-.89-.89A.89.89,0,0,1,228.74,413.37Z"/><path class="cls-6" d="M165.79,432.16c-.63,2.19-.49,3.95-.9,6.2-.62,3.33-.87,7.18,1.38,9.72a6.59,6.59,0,0,0,5.51,2.57c2.07,0,4.13-.34,6.2-.4,1.38,0,5.64.34,7,.4,6.19.24,9.7-1.12,15.83-1.88a147,147,0,0,0,16.1-3.24c15.87-4.34,10.12-10.74,6.61-11.76-.76-.22-4.21-1.37-4.21-1.37l-4.64,1.29H198.47a78.43,78.43,0,0,1-9.67-1"/><path class="cls-46" d="M212.07,423.41a9.33,9.33,0,0,1,1,.66,11.24,11.24,0,0,0,2.2,1.08l2.23.91a1.07,1.07,0,0,1,.43.24,1.26,1.26,0,0,1,.27.66,16.16,16.16,0,0,1,.3,7.2,9.32,9.32,0,0,1-1.3-2.6,2.8,2.8,0,0,0-.62-1.27,3.43,3.43,0,0,0-.71-.45,7.74,7.74,0,0,1-2-1.87,1.19,1.19,0,0,1-.32-.58.64.64,0,0,0,0-.24.44.44,0,0,0-.17-.16l-2.74-1.76"/><path class="cls-12" d="M168.47,432.16c-1.27-.94-2.66-2-4-3.1-3-2.53-5.7-5.27-6-7.27-.73-4.49-.16-17.81.2-24.09,0-.38,0-.74,0-1.07.36-5.94,3.55-8.57,5.15-9.54.82,7.72,2.66,25.16,2.81,26.05C166.85,414.29,168.47,432.16,168.47,432.16Z"/><path class="cls-13" d="M168.48,432.16c-1.28-.94-2.67-2-4-3.1-.12-4.91-1.9-3.84-4-12.43a57.31,57.31,0,0,1-.58-20.74l4.91.75c.81,7.64,1.7,15.89,1.8,16.5C166.85,414.29,168.48,432.16,168.48,432.16Z"/><path class="cls-46" d="M171.53,383.63a16.62,16.62,0,0,0,.59-6.19c-.46-2.62-2-7.36-1.44-10.9s5.06-6.51,9.79-6.05,6.11,5,6.9,7.62.65,6.64.46,8.81a6.07,6.07,0,0,1-2.17,4.33c-.79.46-3.76-.14-4.28.42s-.91,3.92-.91,3.92"/><path class="cls-12" d="M169.3,386.45a6,6,0,0,1,1-2.82c.79-.73,6-.73,7.62-.54a24.07,24.07,0,0,1,6,2.4c.51.38-.5,2.38-.5,2.38Z"/><path class="cls-6" d="M171.73,379.15s6.57.56,7.82,0a5,5,0,0,0,3.22-4c.16-2.23-.3-2.92.55-4.17s1.61-.82,1.75.36.18,3.32.49,3.48.91-1.29.75-3.58a14.14,14.14,0,0,0-.95-4.82c-.59-1.32-.91-1.25-1.44-1.48a4.13,4.13,0,0,0,2.33-2.09c1.31-2,.59-5.25-2.89-5.24-6.09,0-12.55,1.22-12.68,5.72,0,0-2.14-.33-2.21,3.78s2.57,9.06,2.76,10.34S171.07,378.86,171.73,379.15Z"/><path class="cls-12" d="M190,427.43c.24,2.06,2,5.24.82,5.69a24.25,24.25,0,0,1-5-.15h-.18c-2.19-.19-4.68-.43-6.77-.59-8.36-.36-12.62,1.31-13.46.84-.4-.24-.41-1-.29-1.71a19.41,19.41,0,0,0,.14-5.54c-.21-1.55-.49-3.4-.9-5.52-1.37-7.32-4.08-18.5-4.48-25.22-.64-10.54,10.64-9.54,10.64-9.54,14.37-.9,21.12,3.24,21.9,9.41.05.44.09.91.12,1.4.37,6.37-1.57,16.64-2.49,24.32A38.58,38.58,0,0,0,190,427.43Z"/><path class="cls-13" d="M190,427.43c.24,2.06,2,5.24.82,5.69a24.25,24.25,0,0,1-5-.15c2.22.16,2.63-1.54,2.14-2.68a16.15,16.15,0,0,1-1.43-6.8c.11-3.06,1.26-10,1.93-16.47a53,53,0,0,0,0-11.43c.34.69,1.33,1.66,4.11,2.3.06,6.4-1.69,15.78-2.54,22.92A38.58,38.58,0,0,0,190,427.43Z"/><path class="cls-12" d="M182.92,387.09s6.59-.53,9.49,1.91c2.31,1.94,6.75,26.51,6.75,26.51L193,418.05s-6.7-16.79-8.45-16.53"/><path class="cls-12" d="M192.77,417.44c2.09,6.62,19.14,9.12,19.14,9.12l1-3s-10.41-7.75-14.17-8.81"/><path class="cls-49" d="M214.79,433.91c1.51.09,3,.31,4.55.34.14,0,.18-.22,0-.25a44.06,44.06,0,0,0-4.59-.33c-.16,0-.16.23,0,.24Z"/><path class="cls-49" d="M210.8,446.7c-5.65-.27-11.24,1.07-16.84,1.9s-11.53,1.07-16.7-1.23a2.79,2.79,0,0,0-1.36-.38,2.91,2.91,0,0,0-1.43.7,8.48,8.48,0,0,1-3.05,1.48c-1.58.33-2-.06-3.62-.33a.69.69,0,0,0-.47,0s0,.06-.06.09a6.6,6.6,0,0,0,4.51,1.68c2.07,0,4.13-.34,6.2-.4,1.38,0,5.64.34,7,.4,6.19.24,9.7-1.12,15.83-1.88,2.54-.32,6.33-1,9.85-1.76A.64.64,0,0,0,210.8,446.7Z"/><path class="cls-12" d="M370.32,221.48a9.09,9.09,0,0,0-2.73-1.28c-1.42-.4-.71-1.45-2.18-1.2-2.81.48-9.28,1.77-13.2,2.85l-.11,0c-2,.48-2.64,0-2.64,0l-.83.93.11.33a3.16,3.16,0,0,0-1.21,2.27c0,.21-.23,1-.31,1.79s-.08,1.44.22,1.71l0,0,.11,0a10.91,10.91,0,0,0,3.64.51,92.2,92.2,0,0,0,11.42-1.1c2.79-.38,5.43-.74,7.14-.92a3,3,0,0,0,1.73-.78,2.7,2.7,0,0,0,.85-1.47C372.67,223.64,371.64,222.4,370.32,221.48Z"/><path class="cls-12" d="M351.76,227.2a2.83,2.83,0,0,1-.43.79l-.25.28c-2.91,2.91-6.57,0-8.69-1.71-3-2.43-6.6-6.69-9.42-9.37-.09-.08-1.13-1-1-1.12l2.58-3.4s7,6.31,11,7.74a26,26,0,0,1,4.77,1.94,4.78,4.78,0,0,1,.44.29A4.94,4.94,0,0,1,351.76,227.2Z"/><path class="cls-13" d="M362.63,228.36a92.2,92.2,0,0,1-11.42,1.1,10.91,10.91,0,0,1-3.64-.51l-.11,0,0,0c-2.69-1.14-4.34-3.67-.22-1.71a14.31,14.31,0,0,0,2.32.94,8.1,8.1,0,0,0,1.54.14h.23C355.11,228.26,366.21,219.93,362.63,228.36Z"/><path class="cls-12" d="M380.8,244.44a11.69,11.69,0,0,0-.52,6.77c1,4.49-.14,4.79-.14,4.79A57.74,57.74,0,0,1,369,261.44c-3.62,1.13-6.71.93-6.63-3.07v-.05c0-.25,0-.48,0-.7.17-9-1.7-9.46-2.16-19.53-.48-10.33-.38-16.45,2.93-18.11,3.61-1.82,8.57-3.07,15.6-1.41,5.28,1.25,7,2.65,7,6.56a29.64,29.64,0,0,1-.57,4.82A86,86,0,0,1,380.8,244.44Z"/><path class="cls-13" d="M380.8,244.44a11.69,11.69,0,0,0-.52,6.77c1,4.49-.14,4.79-.14,4.79A57.74,57.74,0,0,1,369,261.44l-4.73-.45-1.89-1.49v-1.18c0-.25,0-.48,0-.7a35.78,35.78,0,0,0,7.14-.19,30,30,0,0,0,7-1.75,2.73,2.73,0,0,0,1.72-3,39.24,39.24,0,0,1-.66-6.28,33.63,33.63,0,0,1,1.68-7.74,15.37,15.37,0,0,0,.63-5.72,51.56,51.56,0,0,1,0-6.53l3.74-2,2.09.78a29.64,29.64,0,0,1-.57,4.82A86,86,0,0,1,380.8,244.44Z"/><path class="cls-6" d="M364.8,203.37a8.89,8.89,0,0,1-2-6.3c.2-2.17.87-4.28,4.12-5.06,1.78-.44,4.32.91,6.13,2.93,5.65.47,7.49,4.36,7.72,8.78l-6.64-1.48Z"/><path class="cls-46" d="M379.56,206.21c-.13,5.06-4.5,8-4.5,8l.3,4.6-2.95,1.91-2,1.31-1.16-2.42-.16-3a1.53,1.53,0,0,0-1.22-1.41,5.69,5.69,0,0,1-2.87-1.74,2,2,0,0,1-.18-.23h0c-1.92-2.61-2.64-12.6,3.91-15.44C375.47,194.89,379.69,201.14,379.56,206.21Z"/><path class="cls-50" d="M368,222.32s-2.89,18-1.79,26.57l2,3.67,2.2-4s-2.11-15-.94-25.94Z"/><path class="cls-51" d="M367.66,220.79l0,.23a4.91,4.91,0,0,0,.35,1.3h0l1.49.3,1.29-1-1.48-1.73-.23.06a3.29,3.29,0,0,0-1.43.78Z"/><path class="cls-13" d="M375.32,216.67a4.64,4.64,0,0,1,1.42,1.46,18,18,0,0,0-1.82,1c-.77.47-4.49,3.1-4.49,3.1l-1.09-2.25S373.22,217.26,375.32,216.67Z"/><path class="cls-13" d="M369.34,219.93a3.14,3.14,0,0,0-1.71,1.42,4.6,4.6,0,0,1,.19-3.54,5.75,5.75,0,0,1,1.26-.92Z"/><g class="cls-52"><path class="cls-9" d="M348.26,344.17c0,2.13,13,3.85,29,3.85s29-1.72,29-3.85-13-3.85-29-3.85S348.26,342.05,348.26,344.17Z"/></g><path class="cls-46" d="M363.54,339.11a6.61,6.61,0,0,0-.45,2.19c.07.87,2.84.93,3.16.48s.48-4.44.48-4.44"/><path class="cls-53" d="M367,342.55a18.73,18.73,0,0,1-.25,2.38h-3.19l-.16-.53a5,5,0,0,1-1.85.53h-2.69c-2,0-3.09-.25-3.14-.6-.2-1.45,2.15-1.38,2.76-1.38,1.76,0,3.67-.82,4.08-1.72.3-.65.17-.81.54-.69a.91.91,0,0,1,.54.47,1.61,1.61,0,0,0,1.66.91,1.9,1.9,0,0,0,1.08-.52A1.16,1.16,0,0,1,367,342.55Z"/><path class="cls-46" d="M394.57,336.1a26.08,26.08,0,0,0,1,3.12c.38.78,3-.18,3.11-.72s-1.2-4.3-1.2-4.3"/><path class="cls-53" d="M399.61,338.94c.34.84.83,2.48.83,2.48L398,342.86l-.48-.36a4.76,4.76,0,0,1-1.27,1.33,10.86,10.86,0,0,1-2.39,1c-2.21.5-3.92.26-4.09,0-.73-1.27,2.2-2,2.77-2.2a3.92,3.92,0,0,0,2.43-3.22c0-.71-.14-.81.24-.84a.93.93,0,0,1,.68.24,1.63,1.63,0,0,0,1.88.23,1.84,1.84,0,0,0,.81-.89A1.17,1.17,0,0,1,399.61,338.94Z"/><path class="cls-6" d="M383.36,273.91s4.34-10.38-3.22-17.91c0,0-6.45,2.89-11.61,3.24a25.78,25.78,0,0,1-6.14-.15,132.39,132.39,0,0,0-.41,19.39Z"/><path class="cls-6" d="M367.11,340.11h-.38a21.6,21.6,0,0,1-4.22-.29v-.77c.15-11.88-1.29-31.29-1.57-37.43a7.52,7.52,0,0,1,0-1.18c.47-4.49,5.11-3.9,7.06.23a16.19,16.19,0,0,1,1.11,3.17,29.92,29.92,0,0,1,.71,4.49C370.76,318.59,367.9,332.46,367.11,340.11Z"/><path class="cls-6" d="M375.16,278.7c0,.12-.05.25-.08.38-1,5.41-4.36,20-5.94,24.76h0a2.86,2.86,0,0,1-2.05,1.5c-2.33.63-5.82-.24-6.12-4.9a13.66,13.66,0,0,1,0-1.68c.31-3.78,1.14-24.68,1.31-26.69s.52-5,1.59-5.34C369.2,264.9,376.55,271.13,375.16,278.7Z"/><path class="cls-49" d="M370.2,300.21c1.7-6.32,4.05-16.75,4.88-21.13l-1.13-5-5.43-6.51-3-.42s.5,9.85,4,17.67c0,0,0,11.12-1.5,15.88l-1.3,3.66s.15.35.36,1a33.29,33.29,0,0,1,1.38,14.24c-1.08,8.4-1.74,20.53-1.74,20.53h.38c.77-7.39,3.45-20.58,2.81-30.71a3.74,3.74,0,0,0-.07-1.06,26.24,26.24,0,0,1,.35-8.13Z"/><path class="cls-6" d="M385.74,300.38c-3.59-3.39-8.6-1.79-6.26,3.46,2.5,5.62,10.23,21.21,14.42,32.32l.29.72a22.66,22.66,0,0,0,4.38-1.42c-2-7.21-3.44-19.64-7.59-28.3A23.18,23.18,0,0,0,385.74,300.38Z"/><path class="cls-6" d="M365.48,267.13c-.7-8.35,9.71-2.81,14.71-.05,2.1,1.16,2.87,3.49,3.15,5.67s3,24.7,3.52,28.81c1.23,9.26-6.86,4.19-7.63,1.63C377.31,296.71,365.86,271.68,365.48,267.13Z"/><path class="cls-6" d="M386.15,295.82s.33,4.43,4.05,9.89c0,0-6.09-2.81-6.39-3.22a23.22,23.22,0,0,1-1.24-5.16C382.69,296.87,386.15,295.82,386.15,295.82Z"/><path class="cls-3" d="M314.94,193c4.66-2.85,6-5.59,6-5.59a9.69,9.69,0,0,0,.11-1.75c0-2.2-.7-5.88-4.53-7.29-5.66-2.08-9.31,1.75-13.2-5,0,0,0,0,0,.11C304.34,179.82,303.36,193.08,314.94,193Z"/><path class="cls-54" d="M314.94,193c4.66-2.85,6-5.59,6-5.59a9.69,9.69,0,0,0,.11-1.75c-13,12.27-17.4-10.48-17.71-12.2C304.34,179.82,303.36,193.08,314.94,193Z"/><g class="cls-55"><path class="cls-56" d="M303.35,173.5l.11.26c.07.17.18.41.34.71a10.53,10.53,0,0,0,1.56,2.33,11.94,11.94,0,0,0,3,2.54,7.88,7.88,0,0,0,2,.83,20.09,20.09,0,0,0,2.26.39A15.81,15.81,0,0,1,315,181a6.24,6.24,0,0,1,2.12,1,5.83,5.83,0,0,1,2.28,3.38,5.56,5.56,0,0,1,.16,1.62,7.43,7.43,0,0,1-.17,1.24,5.18,5.18,0,0,1-.23.76l-.09.27.06-.28c0-.18.1-.43.14-.77a6.58,6.58,0,0,0,.05-1.22,6,6,0,0,0-.26-1.53,5.8,5.8,0,0,0-2.24-3,5.72,5.72,0,0,0-2-.88c-.73-.17-1.49-.27-2.27-.39a20.64,20.64,0,0,1-2.32-.45,7.84,7.84,0,0,1-2.12-.95,12.45,12.45,0,0,1-3-2.74,11.69,11.69,0,0,1-1.43-2.47,7.44,7.44,0,0,1-.27-.74Z"/></g><g class="cls-55"><path class="cls-56" d="M303.35,173.5a17.76,17.76,0,0,0,1.23,3.42,16.29,16.29,0,0,0,1.92,3.16,12.13,12.13,0,0,0,3.06,2.86,13.6,13.6,0,0,0,1.89,1,19,19,0,0,1,1.91,1,8.25,8.25,0,0,1,2.85,2.53,5.49,5.49,0,0,1,.93,2.52,4.21,4.21,0,0,1,0,.75V191l0-.27A7.17,7.17,0,0,0,317,190a5.78,5.78,0,0,0-1.09-2.34,9.17,9.17,0,0,0-2.82-2.28,16.35,16.35,0,0,0-1.88-.9,11.32,11.32,0,0,1-2-1.05,12.43,12.43,0,0,1-3.14-3A16.08,16.08,0,0,1,304.3,177,14.57,14.57,0,0,1,303.35,173.5Z"/></g><path class="cls-13" d="M390.34,276.53a2.72,2.72,0,0,1-.88-.19c-3.35-1.31-4.23-8.87-4.32-9.72l-.1-1,.93.3c.83.27,8.11,2.7,8.8,6.12a3.23,3.23,0,0,1-1.36,3.13A4.38,4.38,0,0,1,390.34,276.53Zm-3.79-9c.39,2.53,1.44,6.89,3.38,7.65.74.28,1.63,0,2.64-.93.76-.65,1.07-1.27.94-1.9C393.11,270.33,389,268.4,386.55,267.5Z"/><rect class="cls-57" x="348.81" y="179.72" width="8.21" height="100.19" transform="translate(-63.64 291.77) rotate(-41.53)"/><rect class="cls-58" x="314.68" y="189.78" width="8.21" height="2.86" transform="translate(-46.63 259.44) rotate(-41.53)"/><rect class="cls-25" x="348.81" y="179.72" width="8.21" height="100.19" transform="translate(-63.64 291.77) rotate(-41.53)"/><rect class="cls-59" x="314.68" y="189.78" width="8.21" height="2.86" transform="translate(-46.63 259.44) rotate(-41.53)"/><polygon class="cls-23" points="385.34 267.97 383.01 270.03 316.66 194.99 314.76 192.85 317.08 190.77 318.98 192.91 385.34 267.97"/><rect class="cls-13" x="381.46" y="265.94" width="8.21" height="1.6" transform="translate(-79.92 322.71) rotate(-41.53)"/><path class="cls-46" d="M377.25,258.89l-2.16-1.8s-.82,1.06-1.22,1.19c-.11,0-.34-.06-.45-.06a4,4,0,0,0-1.75.54c-.51.24-1.18.45-1.2.65s.32.53.68.5l.17,0a1.31,1.31,0,0,0,0,.22c.15.45,2.27,3.41,4.37.19A6,6,0,0,1,377.25,258.89Z"/><path class="cls-12" d="M379.19,230.38c1,3,2,7.62,3.91,11.57a2,2,0,0,0,.12.25l0,.05a3.44,3.44,0,0,0,.14.44,3.53,3.53,0,0,0,3.45,2.36l.73,0a13.63,13.63,0,0,0,1.43,0c.6,0,1.13-.15,1.31-.45h0a2.28,2.28,0,0,0,.07-.3,481762515625.4,481762515625.4,0,0,0,.06-.34c0-.17,0-.33,0-.5a2,2,0,0,0,0-.25,17.43,17.43,0,0,0-.19-2.41c-.31-3.33-3.6-13.73-4.71-18.07a3.08,3.08,0,0,0-1-1.6,2.65,2.65,0,0,0-1.56-.61l0,0a2.08,2.08,0,0,0-.25,0c-1.46,0-2.46,1.19-3.13,2.56a8.93,8.93,0,0,0-.85,2.88A10,10,0,0,0,379.19,230.38Z"/><path class="cls-12" d="M374.19,257.65l1.82,1.64h0l.47.42s3.69-3.2,6.56-5.91a32.59,32.59,0,0,0,7-8.69c.08-.15.16-.33.24-.48v0a2.28,2.28,0,0,0,.07-.3,481762515625.4,481762515625.4,0,0,0,.06-.34c0-.17,0-.33,0-.5a2,2,0,0,0,0-.25,3,3,0,0,0-.67-1.94l-.13-.15a3.19,3.19,0,0,0-.73-.53,4,4,0,0,0-.53-.23,5.12,5.12,0,0,0-4.11.56c-.11.12-.24.24-.35.37s-.51.57-.77.89a15.1,15.1,0,0,0-2,3.31C379.49,249.57,374.19,257.65,374.19,257.65Z"/><path class="cls-6" d="M364,200s4.35-.87,7.69.93a6.16,6.16,0,0,0,5.53.18l1.26-.59s-1.25-1.44-1.43-1.57a10.82,10.82,0,0,0-1.91-1.61c-.65-.27-3.37-1.15-3.72-1.21a7.42,7.42,0,0,0-2.18,0,5.52,5.52,0,0,0-1.7.57c-.44.21-1.7,1-1.7,1Z"/><path class="cls-46" d="M332.59,215.23s-3.13-2.73-3.29-4.64c-.17-2.11,1.31-3.13,2.29-2,1.54,1.83,1.26,4.83,1.26,4.83l.58.68Z"/><path class="cls-13" d="M376,259.29h0l.47.42s3.69-3.2,6.56-5.91a32.59,32.59,0,0,0,7-8.69c.08-.15.16-.33.24-.48v0a2.28,2.28,0,0,0,.07-.3,481762515625.4,481762515625.4,0,0,0,.06-.34c0-.17,0-.33,0-.5a2,2,0,0,0,0-.25,17.43,17.43,0,0,0-.19-2.41c-.31-3.33-3.6-13.73-4.71-18.07a3.08,3.08,0,0,0-1-1.6,2.65,2.65,0,0,0-1.56-.61l0,0a2.08,2.08,0,0,0-.25,0c.69,1.12,1.67,3.37,2.78,7.88,1.46,6,2.49,9.65,2.91,12a8.1,8.1,0,0,1,.18,2.51,7.67,7.67,0,0,1-1.05,2.19C385.05,249.27,378.63,257.5,376,259.29Z"/><path class="cls-6" d="M375.06,214.21a17.47,17.47,0,0,1-.47-3.76s2.15-1.51,2.15-3.06c0-2.16-2.4,0-2.4,0a16,16,0,0,1-.61-3c-.19-2.42,3.87-4.2,3.87-4.2l2.13,1.55,1,2S380.85,212.15,375.06,214.21Z"/><path class="cls-4" d="M299.64,273.05,273.4,288.17a.72.72,0,0,1-1-.27l-2.08-3.62a.71.71,0,0,1,.26-1l26.24-15.12a.72.72,0,0,1,1,.27l2.08,3.62A.73.73,0,0,1,299.64,273.05Z"/><g class="cls-60"><g class="cls-61"><path class="cls-62" d="M296.25,270a.12.12,0,0,1-.17,0l-.58-1,.21-.12.58,1A.12.12,0,0,1,296.25,270Z"/><path class="cls-62" d="M295.45,269.62a.06.06,0,0,1-.08,0l-.25-.43.1-.06.25.43A.07.07,0,0,1,295.45,269.62Z"/></g><g class="cls-61"><path class="cls-62" d="M295.33,270.52a.12.12,0,0,1-.17,0l-.58-1,.21-.12.58,1A.12.12,0,0,1,295.33,270.52Z"/><path class="cls-62" d="M294.53,270.15a.1.1,0,0,1-.09,0l-.25-.44.11-.06.25.43A.07.07,0,0,1,294.53,270.15Z"/></g><g class="cls-61"><path class="cls-62" d="M294.41,271.05a.12.12,0,0,1-.17,0l-.58-1,.21-.12.58,1A.13.13,0,0,1,294.41,271.05Z"/><path class="cls-62" d="M293.61,270.68a.1.1,0,0,1-.09,0l-.25-.44.11-.06.25.43A.07.07,0,0,1,293.61,270.68Z"/></g><g class="cls-61"><path class="cls-62" d="M293.49,271.58a.12.12,0,0,1-.17,0l-.58-1,.21-.12.58,1A.12.12,0,0,1,293.49,271.58Z"/><path class="cls-62" d="M292.69,271.21a.1.1,0,0,1-.09,0l-.25-.44.11-.06.25.43A.07.07,0,0,1,292.69,271.21Z"/></g><g class="cls-61"><path class="cls-62" d="M292.57,272.11a.12.12,0,0,1-.17,0l-.58-1,.21-.12.58,1A.12.12,0,0,1,292.57,272.11Z"/><path class="cls-62" d="M291.77,271.74a.1.1,0,0,1-.09,0l-.25-.44.11-.06.25.43A.07.07,0,0,1,291.77,271.74Z"/></g><g class="cls-61"><path class="cls-62" d="M291.65,272.64a.12.12,0,0,1-.17,0l-.58-1,.21-.12.58,1A.12.12,0,0,1,291.65,272.64Z"/><path class="cls-62" d="M290.85,272.27a.09.09,0,0,1-.09,0l-.25-.44.11-.06.25.43A.1.1,0,0,1,290.85,272.27Z"/></g><g class="cls-61"><path class="cls-62" d="M290.73,273.17a.13.13,0,0,1-.18,0l-.58-1,.22-.12.58,1A.13.13,0,0,1,290.73,273.17Z"/><path class="cls-62" d="M289.93,272.8a.1.1,0,0,1-.09,0l-.25-.44.11-.06.25.43A.08.08,0,0,1,289.93,272.8Z"/></g><g class="cls-61"><path class="cls-62" d="M289.8,273.7a.12.12,0,0,1-.17,0l-.58-1,.22-.12.58,1A.12.12,0,0,1,289.8,273.7Z"/><path class="cls-62" d="M289,273.33a.08.08,0,0,1-.08,0l-.25-.44.11-.06.25.43A.06.06,0,0,1,289,273.33Z"/></g><g class="cls-61"><path class="cls-62" d="M288.88,274.23a.11.11,0,0,1-.16,0l-.59-1,.22-.12.58,1A.12.12,0,0,1,288.88,274.23Z"/><path class="cls-62" d="M288.08,273.86a.08.08,0,0,1-.08,0l-.25-.44.11-.06.25.43A.06.06,0,0,1,288.08,273.86Z"/></g><g class="cls-61"><path class="cls-62" d="M288,274.76a.12.12,0,0,1-.17,0l-.58-1,.21-.12.58,1A.14.14,0,0,1,288,274.76Z"/><path class="cls-62" d="M287.16,274.39a.05.05,0,0,1-.08,0l-.25-.44.11-.06.25.44A.07.07,0,0,1,287.16,274.39Z"/></g><g class="cls-61"><path class="cls-62" d="M287.05,275.29a.13.13,0,0,1-.18,0l-.58-1,.22-.12.58,1A.13.13,0,0,1,287.05,275.29Z"/><path class="cls-62" d="M286.25,274.92a.06.06,0,0,1-.09,0l-.25-.44.11-.06.25.44A.08.08,0,0,1,286.25,274.92Z"/></g><g class="cls-61"><path class="cls-62" d="M286.12,275.83a.13.13,0,0,1-.17-.05l-.58-1,.22-.12.58,1A.13.13,0,0,1,286.12,275.83Z"/><path class="cls-62" d="M285.32,275.45s-.06,0-.08,0L285,275l.11-.06.25.44A.07.07,0,0,1,285.32,275.45Z"/></g><g class="cls-61"><path class="cls-62" d="M285.2,276.36a.13.13,0,0,1-.17-.05l-.58-1,.22-.12.58,1A.13.13,0,0,1,285.2,276.36Z"/><path class="cls-62" d="M284.4,276a.08.08,0,0,1-.08,0l-.25-.44.11-.06.25.43A.08.08,0,0,1,284.4,276Z"/></g><g class="cls-61"><path class="cls-62" d="M284.28,276.89a.13.13,0,0,1-.17-.05l-.58-1,.22-.12.58,1A.13.13,0,0,1,284.28,276.89Z"/><path class="cls-62" d="M283.48,276.51a.05.05,0,0,1-.08,0l-.25-.44.11-.06.25.44A.07.07,0,0,1,283.48,276.51Z"/></g><g class="cls-61"><path class="cls-62" d="M283.36,277.41a.12.12,0,0,1-.17,0l-.58-1,.22-.12.58,1A.12.12,0,0,1,283.36,277.41Z"/><path class="cls-62" d="M282.56,277a.05.05,0,0,1-.08,0l-.25-.44.11-.06.25.44A.07.07,0,0,1,282.56,277Z"/></g><g class="cls-61"><path class="cls-62" d="M282.44,278a.13.13,0,0,1-.17-.05l-.58-1,.22-.12.58,1A.13.13,0,0,1,282.44,278Z"/><path class="cls-62" d="M281.64,277.57a.05.05,0,0,1-.08,0l-.25-.44.11-.06.25.44A.07.07,0,0,1,281.64,277.57Z"/></g><g class="cls-61"><path class="cls-62" d="M281.52,278.48a.13.13,0,0,1-.17-.05l-.58-1,.22-.12.58,1A.13.13,0,0,1,281.52,278.48Z"/><path class="cls-62" d="M280.72,278.1a.05.05,0,0,1-.08,0l-.25-.44.11-.06.25.44A.07.07,0,0,1,280.72,278.1Z"/></g><g class="cls-61"><path class="cls-62" d="M280.6,279a.13.13,0,0,1-.17-.05l-.58-1,.22-.12.58,1A.13.13,0,0,1,280.6,279Z"/><path class="cls-62" d="M279.8,278.63a.05.05,0,0,1-.08,0l-.25-.43.1-.07.25.44A.05.05,0,0,1,279.8,278.63Z"/></g><g class="cls-61"><path class="cls-62" d="M279.68,279.54a.13.13,0,0,1-.17-.05l-.58-1,.22-.13.58,1A.13.13,0,0,1,279.68,279.54Z"/><path class="cls-62" d="M278.88,279.16a.05.05,0,0,1-.08,0l-.25-.43.1-.07.25.44A.05.05,0,0,1,278.88,279.16Z"/></g><g class="cls-61"><path class="cls-62" d="M278.76,280.07a.13.13,0,0,1-.17-.05l-.58-1,.21-.12.58,1A.12.12,0,0,1,278.76,280.07Z"/><path class="cls-62" d="M278,279.69a.05.05,0,0,1-.08,0l-.25-.43.11-.07.24.44A.06.06,0,0,1,278,279.69Z"/></g><g class="cls-61"><path class="cls-62" d="M277.84,280.6a.13.13,0,0,1-.17-.05l-.58-1,.22-.12.58,1A.13.13,0,0,1,277.84,280.6Z"/><path class="cls-62" d="M277,280.22a.05.05,0,0,1-.08,0l-.25-.44.11-.06.25.44A.07.07,0,0,1,277,280.22Z"/></g><g class="cls-61"><path class="cls-62" d="M276.92,281.13a.13.13,0,0,1-.17-.05l-.58-1,.22-.12.58,1A.13.13,0,0,1,276.92,281.13Z"/><path class="cls-62" d="M276.12,280.75a.07.07,0,0,1-.09,0l-.25-.43.11-.07.25.44A.05.05,0,0,1,276.12,280.75Z"/></g><g class="cls-61"><path class="cls-62" d="M276,281.66a.13.13,0,0,1-.17-.05l-.58-1,.22-.13.58,1A.13.13,0,0,1,276,281.66Z"/><path class="cls-62" d="M275.2,281.28a.05.05,0,0,1-.08,0l-.25-.43.1-.07.25.44A.05.05,0,0,1,275.2,281.28Z"/></g><g class="cls-61"><path class="cls-62" d="M275.08,282.19a.13.13,0,0,1-.17-.05l-.58-1,.21-.13.58,1A.12.12,0,0,1,275.08,282.19Z"/><path class="cls-62" d="M274.28,281.81a.05.05,0,0,1-.08,0l-.25-.43.1-.07.25.44A.05.05,0,0,1,274.28,281.81Z"/></g><g class="cls-61"><path class="cls-62" d="M274.16,282.72a.13.13,0,0,1-.17-.05l-.58-1,.21-.13.58,1A.12.12,0,0,1,274.16,282.72Z"/><path class="cls-62" d="M273.36,282.34a.05.05,0,0,1-.08,0l-.25-.43.1-.07.25.44A.05.05,0,0,1,273.36,282.34Z"/></g><g class="cls-61"><path class="cls-62" d="M273.24,283.25a.13.13,0,0,1-.17-.05l-.58-1,.21-.13.58,1A.12.12,0,0,1,273.24,283.25Z"/><path class="cls-62" d="M272.44,282.87a.07.07,0,0,1-.09,0l-.25-.43.11-.06.25.43A.05.05,0,0,1,272.44,282.87Z"/></g></g><path class="cls-9" d="M344.76,429.66c0,2.13-11.48,3.86-25.65,3.86s-25.66-1.73-25.66-3.86,11.49-3.86,25.66-3.86S344.76,427.53,344.76,429.66Z"/><path class="cls-46" d="M325.74,421.47s.08,3.53.15,4.43,2.93,1,3.27.5.5-4.6.5-4.6"/><path class="cls-53" d="M329.91,427.19a19.25,19.25,0,0,1-.26,2.47h-3.3l-.16-.55a5.27,5.27,0,0,1-1.92.55h-2.78c-2.05,0-3.2-.26-3.26-.62-.21-1.5,2.23-1.44,2.86-1.44,1.82,0,3.8-.85,4.23-1.77.31-.68.17-.85.55-.72a.94.94,0,0,1,.57.49,1.67,1.67,0,0,0,1.72.94,1.94,1.94,0,0,0,1.11-.54A1.2,1.2,0,0,1,329.91,427.19Z"/><path class="cls-46" d="M314.14,420.51a26.22,26.22,0,0,0,1,3.23c.4.82,3.08-.18,3.22-.74s-1.24-4.46-1.24-4.46"/><path class="cls-53" d="M319.37,423.46c.34.87.86,2.56.86,2.56l-2.5,1.49-.5-.37a4.9,4.9,0,0,1-1.31,1.37,10.74,10.74,0,0,1-2.48,1c-2.29.52-4.06.27-4.24,0-.75-1.32,2.28-2,2.87-2.27a4.08,4.08,0,0,0,2.52-3.34c.05-.74-.15-.85.25-.87a.94.94,0,0,1,.71.25,1.69,1.69,0,0,0,1.95.23,2,2,0,0,0,.83-.91A1.2,1.2,0,0,1,319.37,423.46Z"/><path class="cls-38" d="M331.78,340.31c1.19-.87,2.48-1.86,3.71-2.88,2.8-2.35,5.3-4.91,5.61-6.77.69-4.17.15-16.56-.18-22.41,0-.35,0-.68-.05-1-.33-5.53-3.3-8-4.79-8.88-.76,7.19-2.47,23.41-2.61,24.24C333.29,323.69,331.78,340.31,331.78,340.31Z"/><path class="cls-62" d="M331.78,340.31c1.18-.87,2.48-1.86,3.71-2.88.1-4.57,1.46-10.95,3.38-18.94,2.27-10.07.84-11.92.84-11.92l-4.56.7c-.76,7.11-1.59,14.78-1.68,15.35C333.29,323.69,331.78,340.31,331.78,340.31Z"/><path class="cls-6" d="M320.81,378.14a110,110,0,0,0,1.41,14c.61,3.12,10.4,3.69,9.14,1.29-1.81-3.49,1.36-14.42,2.91-33.05.23-2.82,1.5-3.15,2.34-8.95a17.79,17.79,0,0,0-2.37-10.85l-13.59-1.26-.17,16.92-.05,5.73S320.4,369.86,320.81,378.14Z"/><path class="cls-6" d="M330.17,391.29s2.66,3.26,2.28,9.23S330,424.33,330,424.33s-3.11.46-4.72-.14c0,0-3.36-33.06-3.38-36.82S330.17,391.29,330.17,391.29Z"/><path class="cls-49" d="M320.81,378.14a103.88,103.88,0,0,1,3.94-11,21.26,21.26,0,0,1,3.86-6c6.89-7.23,2.15-16.59,2.15-16.59s-5.62,4.65-6,5.14-2.61,4.4-4.27,6.55l-.05,5.73S320.4,369.86,320.81,378.14Z"/><path class="cls-6" d="M304.69,375.91s-3.08,10.14-2.59,13.32,11.76,32.92,11.76,32.92a11.56,11.56,0,0,0,4.52-1.12s-.24-13.09-2.45-21.29-4.78-13.2-7-13.93S305.3,377.61,304.69,375.91Z"/><path class="cls-50" d="M314.66,381.93s-3.35,5.33-1.29,10.1-3.45,4-3.45,4-2.75-8-2.13-9,2.87-4.53,3.6-4.71S314.66,381.93,314.66,381.93Z"/><path class="cls-6" d="M311.28,339.62s-7.15,33.1-8.08,42c-.4,3.78,3.58,10,7.25,6.61,4.38-4.08,11.46-22.77,13.66-26.07s10.44-6.32,4.82-23.07"/><path class="cls-46" d="M328.94,295.17a15.44,15.44,0,0,1-.55-5.76c.42-2.45,1.89-6.85,1.34-10.15s-4.71-6.05-9.11-5.62-5.68,4.64-6.42,7.09a25.11,25.11,0,0,0-.42,8.19,5.65,5.65,0,0,0,2,4c.74.43,3.5-.13,4,.39s.85,3.65.85,3.65"/><path class="cls-38" d="M331,297.78a5.54,5.54,0,0,0-1-2.61c-.74-.69-5.63-.69-7.09-.51a22.66,22.66,0,0,0-5.57,2.23c-.48.36.47,2.21.47,2.21Z"/><path class="cls-46" d="M279.91,278.6c0-.35.48-.18.6.1l.06.25c0-.57-.07-1-.06-1.15,0-.33.45-.21.59.05a4.33,4.33,0,0,1,0-.48c0-.42.49-.25.6.1a3.45,3.45,0,0,1,.11.58c0-.15,0-.27,0-.32,0-.35.44-.26.56,0a5,5,0,0,1,.12.67c.06.35.16.72.21,1.07a6.58,6.58,0,0,0,.22,1,4.32,4.32,0,0,0,1.61,1.24l.95-.52a13.08,13.08,0,0,1,.23,2.21c-.07.52-.44,1.16-.4,1.47a8.2,8.2,0,0,0,.4,1.13l-2.63,1.09a6.46,6.46,0,0,0-.71-1.93,22.38,22.38,0,0,1-1.79-2.16,10.21,10.21,0,0,1-.4-1.31l-.19-1-.08-1S279.89,278.71,279.91,278.6Z"/><path class="cls-38" d="M282.6,286.52s.89,5.15,1.76,9.26a40.3,40.3,0,0,0,3.07,9.49s0,.05,0,.07c.87,1.88,2.48,4.18,3.58,4.42a34.18,34.18,0,0,0,5,0c2.39.13,8.41-.66,13.53-1.34l.24,0c2.38-.32,4.56-.61,6.06-.77a3.18,3.18,0,0,0,1.85-.83,2.8,2.8,0,0,0,.9-1.55v0c.34-1.65-.75-3-2.16-3.95a1.2,1.2,0,0,0-.21-.13c1.75-1.73,3.53-3.63,3.53-3.63s-4.92.24-7.66.42c-1.87.13-14.64,3.54-16.17,4l-.33.12s-.19,0-.48.08l-.3.1a16.14,16.14,0,0,0-1.86-3.5c-2.74-3.84-7.19-13.17-7.19-13.17l-2.48.74h0Z"/><path class="cls-6" d="M328.75,291s-6.11.52-7.27,0a4.64,4.64,0,0,1-3-3.73c-.15-2.08.28-2.72-.52-3.88s-1.49-.77-1.62.33-.17,3.09-.46,3.24-.85-1.21-.7-3.33a13.12,13.12,0,0,1,.89-4.49c.55-1.22.85-1.16,1.34-1.38a3.82,3.82,0,0,1-2.17-1.94c-1.22-1.91-.55-4.89,2.69-4.87,5.66,0,11.68,1.13,11.8,5.31,0,0,2-.3,2,3.52s-2.39,8.44-2.57,9.63S329.36,290.72,328.75,291Z"/><path class="cls-38" d="M311.76,335.91c-.22,1.91-1.9,4.87-.76,5.29a21.38,21.38,0,0,0,4.62-.14h.17c2-.17,4.36-.39,6.3-.54,7.77-.33,11.74,1.22,12.52.78.38-.23.39-.9.27-1.6a18.14,18.14,0,0,1-.13-5.15c.19-1.44.46-3.16.83-5.13,1.29-6.81,3.8-17.22,4.17-23.47.6-9.8-9.9-8.87-9.9-8.87-13.36-.84-19.64,3-20.36,8.75-.06.41-.09.85-.12,1.31-.34,5.92,1.46,15.48,2.32,22.62A36.28,36.28,0,0,1,311.76,335.91Z"/><path class="cls-62" d="M311.76,335.91c-.22,1.91-1.9,4.87-.76,5.29a21.38,21.38,0,0,0,4.62-.14c-2.06.15-2.45-1.43-2-2.49a15,15,0,0,0,1.33-6.33c-.1-2.84-1.17-9.26-1.8-15.32a49.62,49.62,0,0,1,0-10.63c-.32.64-1.24,1.54-3.82,2.14-.06,6,1.57,14.68,2.36,21.32A36.28,36.28,0,0,1,311.76,335.91Z"/><path class="cls-4" d="M147.39,212.52l14.91-35.58-11.08,2.25-.18,0L128.9,183.7l-.38.07-22.31,4.51-.38.07L95,190.55Zm3.72-26.5-7.06,16.87L119,192.38Z"/><g class="cls-52"><path class="cls-63" d="M101,189.33l.24-.05.33,1.61a.13.13,0,0,1-.1.15.12.12,0,0,1-.14-.1Z"/><path class="cls-63" d="M101.61,189.21l.17,0,.16.8a.09.09,0,1,1-.17,0Z"/></g><g class="cls-52"><path class="cls-63" d="M102.15,189.1l.24,0,.33,1.61a.13.13,0,0,1-.09.15.12.12,0,0,1-.15-.1Z"/><path class="cls-63" d="M102.74,189l.17,0,.16.8a.09.09,0,0,1-.06.1.09.09,0,0,1-.11-.07Z"/></g><g class="cls-52"><path class="cls-63" d="M103.29,188.87l.24-.05.32,1.61a.11.11,0,0,1-.09.15.12.12,0,0,1-.15-.1Z"/><path class="cls-63" d="M103.87,188.75l.18,0,.16.8a.09.09,0,0,1-.07.1.09.09,0,0,1-.11-.07Z"/></g><g class="cls-52"><path class="cls-63" d="M104.42,188.64l.24,0,.33,1.61a.13.13,0,0,1-.1.15.12.12,0,0,1-.14-.1Z"/><path class="cls-63" d="M105,188.52l.17,0,.16.8a.09.09,0,0,1-.07.1.07.07,0,0,1-.09-.07Z"/></g><g class="cls-52"><path class="cls-63" d="M105.55,188.41l.25,0,.33,1.61a.14.14,0,0,1-.1.15.12.12,0,0,1-.15-.1Z"/><path class="cls-63" d="M106.15,188.29l.17,0,.16.8a.1.1,0,0,1-.07.1.08.08,0,0,1-.1-.07Z"/></g><g class="cls-52"><path class="cls-63" d="M106.69,188.19l.25-.05.32,1.6a.13.13,0,0,1-.1.16.12.12,0,0,1-.14-.11Z"/><path class="cls-63" d="M107.28,188.07l.17,0,.16.79a.08.08,0,0,1-.06.1.09.09,0,0,1-.11-.07Z"/></g><g class="cls-52"><path class="cls-63" d="M107.82,188l.25-.05.33,1.6a.13.13,0,0,1-.1.15.12.12,0,0,1-.15-.1Z"/><path class="cls-63" d="M108.42,187.84l.16,0,.16.79a.08.08,0,0,1-.06.1.08.08,0,0,1-.1-.07Z"/></g><g class="cls-52"><path class="cls-63" d="M109,187.73l.24,0,.33,1.6a.13.13,0,0,1-.1.15.13.13,0,0,1-.15-.1Z"/><path class="cls-63" d="M109.55,187.61l.17,0,.16.79a.09.09,0,1,1-.17,0Z"/></g><g class="cls-52"><path class="cls-63" d="M110.1,187.5l.24-.05.32,1.6a.13.13,0,0,1-.09.16.14.14,0,0,1-.15-.11Z"/><path class="cls-63" d="M110.68,187.38l.18,0,.16.79a.09.09,0,0,1-.07.1.09.09,0,0,1-.11-.07Z"/></g><g class="cls-52"><path class="cls-63" d="M111.23,187.27l.24-.05.33,1.6a.14.14,0,0,1-.1.16.13.13,0,0,1-.14-.11Z"/><path class="cls-63" d="M111.82,187.15l.17,0,.16.79a.09.09,0,0,1-.17,0Z"/></g><g class="cls-52"><path class="cls-63" d="M112.36,187l.24,0,.33,1.61a.14.14,0,0,1-.09.15.13.13,0,0,1-.15-.11Z"/><path class="cls-63" d="M113,186.92l.18,0,.15.79a.08.08,0,0,1-.06.1.09.09,0,0,1-.11-.07Z"/></g><g class="cls-52"><path class="cls-63" d="M113.5,186.81l.24-.05.32,1.61a.12.12,0,0,1-.09.15.14.14,0,0,1-.15-.11Z"/><path class="cls-63" d="M114.09,186.69l.17,0,.16.79a.08.08,0,0,1-.07.1.09.09,0,0,1-.11-.06Z"/></g><g class="cls-52"><path class="cls-63" d="M114.63,186.58l.24-.05.33,1.61a.14.14,0,0,1-.1.15.13.13,0,0,1-.14-.1Z"/><path class="cls-63" d="M115.23,186.46l.16,0,.16.79a.09.09,0,0,1-.07.11.09.09,0,0,1-.09-.08Z"/></g><g class="cls-52"><path class="cls-63" d="M115.77,186.35l.24,0,.33,1.61a.15.15,0,0,1-.1.15.14.14,0,0,1-.15-.1Z"/><path class="cls-63" d="M116.36,186.23l.17,0,.16.79a.11.11,0,0,1-.07.11.09.09,0,0,1-.1-.07Z"/></g><g class="cls-52"><path class="cls-63" d="M116.9,186.12l.25-.05.32,1.61a.13.13,0,0,1-.1.15.14.14,0,0,1-.15-.1Z"/><path class="cls-63" d="M117.49,186l.17,0,.16.78c0,.05,0,.1-.06.1a.09.09,0,0,1-.11-.06Z"/></g><g class="cls-52"><path class="cls-63" d="M118,185.89l.25,0,.33,1.61a.14.14,0,0,1-.1.15.14.14,0,0,1-.15-.1Z"/><path class="cls-63" d="M118.63,185.77l.16,0,.16.78a.09.09,0,0,1-.06.11.1.1,0,0,1-.1-.07Z"/></g><g class="cls-52"><path class="cls-63" d="M119.17,185.66l.24,0,.33,1.61a.14.14,0,0,1-.1.15.15.15,0,0,1-.15-.1Z"/><path class="cls-63" d="M119.76,185.54l.17,0,.16.79a.09.09,0,0,1-.07.11.1.1,0,0,1-.1-.07Z"/></g><g class="cls-52"><path class="cls-63" d="M120.31,185.43l.24-.05.32,1.61a.13.13,0,0,1-.09.15.14.14,0,0,1-.15-.1Z"/><path class="cls-63" d="M120.89,185.31l.18,0,.16.78a.09.09,0,0,1-.18,0Z"/></g><g class="cls-52"><path class="cls-63" d="M121.44,185.2l.24,0,.33,1.61a.13.13,0,0,1-.1.15.13.13,0,0,1-.14-.1Z"/><path class="cls-63" d="M122,185.08l.17,0,.16.78a.09.09,0,0,1-.07.11.09.09,0,0,1-.1-.07Z"/></g><g class="cls-52"><path class="cls-63" d="M122.57,185l.24-.05.33,1.61a.13.13,0,0,1-.09.15.14.14,0,0,1-.15-.1Z"/><path class="cls-63" d="M123.16,184.85l.17,0,.16.78a.09.09,0,0,1-.07.11.1.1,0,0,1-.1-.07Z"/></g><g class="cls-52"><path class="cls-63" d="M123.71,184.74l.24-.05.32,1.61a.11.11,0,0,1-.09.15.14.14,0,0,1-.15-.1Z"/><path class="cls-63" d="M124.3,184.62l.17,0,.16.78a.09.09,0,0,1-.18,0Z"/></g><g class="cls-52"><path class="cls-63" d="M124.84,184.51l.24,0,.33,1.61a.13.13,0,0,1-.1.15.12.12,0,0,1-.14-.1Z"/><path class="cls-63" d="M125.44,184.39l.16,0,.16.78a.09.09,0,0,1-.07.11.1.1,0,0,1-.1-.07Z"/></g><g class="cls-52"><path class="cls-63" d="M126,184.28l.24-.05.33,1.61a.14.14,0,0,1-.1.15.13.13,0,0,1-.15-.1Z"/><path class="cls-63" d="M126.57,184.16l.17,0,.16.78a.11.11,0,0,1-.07.11.09.09,0,0,1-.1-.07Z"/></g><g class="cls-52"><path class="cls-63" d="M127.11,184.05l.25-.05.32,1.61a.13.13,0,0,1-.1.15.12.12,0,0,1-.15-.1Z"/><path class="cls-63" d="M127.7,183.93l.17,0,.16.79a.09.09,0,0,1-.06.1.09.09,0,0,1-.11-.07Z"/></g><g class="cls-52"><path class="cls-63" d="M128.24,183.82l.25,0,.32,1.61a.11.11,0,0,1-.09.15.12.12,0,0,1-.15-.1Z"/><path class="cls-63" d="M128.84,183.7l.16,0,.16.79a.08.08,0,0,1-.06.1.08.08,0,0,1-.1-.07Z"/></g><g class="cls-52"><path class="cls-63" d="M129.38,183.6l.24,0,.33,1.6a.13.13,0,0,1-.1.15.14.14,0,0,1-.15-.1Z"/><path class="cls-63" d="M130,183.48l.17,0,.16.78a.09.09,0,0,1-.07.11.09.09,0,0,1-.1-.07Z"/></g><g class="cls-52"><path class="cls-63" d="M130.52,183.37l.24-.05.32,1.6a.12.12,0,0,1-.09.15.12.12,0,0,1-.15-.1Z"/><path class="cls-63" d="M131.11,183.25l.17,0,.16.78a.1.1,0,0,1-.07.1.09.09,0,0,1-.11-.07Z"/></g><g class="cls-52"><path class="cls-63" d="M131.65,183.14l.24,0,.33,1.6a.13.13,0,0,1-.1.15.11.11,0,0,1-.14-.1Z"/><path class="cls-63" d="M132.24,183l.17,0,.16.78a.09.09,0,0,1-.07.1.08.08,0,0,1-.1-.07Z"/></g><g class="cls-52"><path class="cls-63" d="M132.79,182.91l.24,0,.32,1.6a.13.13,0,0,1-.09.15.12.12,0,0,1-.15-.1Z"/><path class="cls-63" d="M133.37,182.79l.18,0,.15.78a.09.09,0,0,1-.17,0Z"/></g><g class="cls-52"><path class="cls-63" d="M133.92,182.68l.24-.05.32,1.6a.11.11,0,0,1-.09.15.12.12,0,0,1-.15-.1Z"/><path class="cls-63" d="M134.51,182.56l.17,0,.16.78a.1.1,0,0,1-.07.1.09.09,0,0,1-.11-.07Z"/></g><g class="cls-52"><path class="cls-63" d="M135.05,182.45l.24,0,.33,1.6a.13.13,0,0,1-.1.15.12.12,0,0,1-.14-.1Z"/><path class="cls-63" d="M135.65,182.33l.16,0,.16.78a.09.09,0,0,1-.17,0Z"/></g><g class="cls-52"><path class="cls-63" d="M136.19,182.22l.24-.05.33,1.6a.14.14,0,0,1-.1.15.12.12,0,0,1-.15-.1Z"/><path class="cls-63" d="M136.78,182.1l.17,0,.15.78a.09.09,0,0,1-.06.1.08.08,0,0,1-.1-.07Z"/></g><g class="cls-52"><path class="cls-63" d="M137.32,182l.25-.05.32,1.6a.13.13,0,0,1-.1.15.12.12,0,0,1-.15-.1Z"/><path class="cls-63" d="M137.91,181.87l.17,0,.16.78a.08.08,0,0,1-.06.1.09.09,0,0,1-.11-.07Z"/></g><g class="cls-52"><path class="cls-63" d="M138.45,181.76l.25,0,.32,1.6a.11.11,0,0,1-.09.15.12.12,0,0,1-.15-.1Z"/><path class="cls-63" d="M139.05,181.64l.16,0,.16.78a.08.08,0,0,1-.06.1.08.08,0,0,1-.1-.07Z"/></g><g class="cls-52"><path class="cls-63" d="M139.59,181.53l.24-.05.33,1.6a.13.13,0,0,1-.1.15.13.13,0,0,1-.15-.1Z"/><path class="cls-63" d="M140.18,181.41l.17,0,.16.78a.09.09,0,0,1-.17,0Z"/></g><g class="cls-52"><path class="cls-63" d="M140.73,181.3l.24-.05.32,1.6a.14.14,0,0,1-.09.16.14.14,0,0,1-.15-.11Z"/><path class="cls-63" d="M141.31,181.18l.18,0,.16.78a.09.09,0,0,1-.07.1.09.09,0,0,1-.11-.07Z"/></g><g class="cls-52"><path class="cls-63" d="M141.86,181.07l.24,0,.33,1.6a.14.14,0,0,1-.1.16.12.12,0,0,1-.14-.11Z"/><path class="cls-63" d="M142.45,181l.17,0,.16.78a.09.09,0,0,1-.17,0Z"/></g><g class="cls-52"><path class="cls-63" d="M143,180.84l.24-.05.32,1.61a.14.14,0,0,1-.09.15.13.13,0,0,1-.15-.11Z"/><path class="cls-63" d="M143.58,180.72l.18,0,.15.78a.08.08,0,0,1-.07.1.09.09,0,0,1-.1-.07Z"/></g><g class="cls-52"><path class="cls-63" d="M144.13,180.61l.24,0,.32,1.6a.12.12,0,0,1-.09.15.14.14,0,0,1-.15-.11Z"/><path class="cls-63" d="M144.72,180.49l.17,0,.16.78a.09.09,0,0,1-.07.1.09.09,0,0,1-.11-.06Z"/></g><g class="cls-52"><path class="cls-63" d="M145.26,180.38l.24,0,.33,1.6a.14.14,0,0,1-.1.15.13.13,0,0,1-.14-.11Z"/><path class="cls-63" d="M145.86,180.26l.16,0,.16.78a.08.08,0,0,1-.07.1.08.08,0,0,1-.1-.07Z"/></g><g class="cls-52"><path class="cls-63" d="M146.4,180.15l.24-.05.33,1.61a.15.15,0,0,1-.1.15.14.14,0,0,1-.15-.1Z"/><path class="cls-63" d="M147,180l.17,0,.15.78a.09.09,0,0,1-.06.11.1.1,0,0,1-.1-.08Z"/></g><g class="cls-52"><path class="cls-63" d="M147.53,179.93l.25-.05.32,1.6a.14.14,0,0,1-.1.15.14.14,0,0,1-.15-.1Z"/><path class="cls-63" d="M148.12,179.81l.17,0,.16.78s0,.1-.06.1a.09.09,0,0,1-.11-.06Z"/></g><g class="cls-52"><path class="cls-63" d="M148.66,179.7l.25,0,.32,1.6a.12.12,0,0,1-.09.15.14.14,0,0,1-.15-.1Z"/><path class="cls-63" d="M149.26,179.58l.16,0,.16.78a.09.09,0,0,1-.06.11c-.05,0-.1,0-.1-.07Z"/></g><g class="cls-52"><path class="cls-63" d="M149.8,179.47l.24-.05.33,1.6a.14.14,0,0,1-.1.15.14.14,0,0,1-.15-.1Z"/><path class="cls-63" d="M150.39,179.35l.17,0,.16.78a.09.09,0,0,1-.07.11.11.11,0,0,1-.1-.07Z"/></g><g class="cls-52"><path class="cls-63" d="M150.94,179.24l.24-.05.32,1.6a.13.13,0,0,1-.09.15.14.14,0,0,1-.15-.1Z"/><path class="cls-63" d="M151.52,179.12l.18,0,.16.77a.09.09,0,1,1-.18,0Z"/></g><g class="cls-52"><path class="cls-63" d="M152.07,179l.24,0,.33,1.6a.13.13,0,0,1-.1.15.12.12,0,0,1-.14-.1Z"/><path class="cls-63" d="M152.66,178.89l.17,0,.16.77a.09.09,0,0,1-.07.11.09.09,0,0,1-.1-.07Z"/></g><g class="cls-52"><path class="cls-63" d="M153.21,178.78l.24-.05.32,1.6a.13.13,0,0,1-.1.15.13.13,0,0,1-.14-.1Z"/><path class="cls-63" d="M153.79,178.66l.18,0,.15.77a.09.09,0,0,1-.07.11.1.1,0,0,1-.1-.07Z"/></g><g class="cls-52"><path class="cls-63" d="M154.34,178.55l.24,0,.32,1.59a.11.11,0,0,1-.09.15.14.14,0,0,1-.15-.1Z"/><path class="cls-63" d="M154.93,178.43l.17,0,.16.77a.1.1,0,0,1-.07.11.09.09,0,0,1-.11-.07Z"/></g><g class="cls-52"><path class="cls-63" d="M155.47,178.32l.24,0,.33,1.59a.13.13,0,0,1-.1.15.13.13,0,0,1-.14-.1Z"/><path class="cls-63" d="M156.07,178.2l.16,0,.16.77a.09.09,0,0,1-.07.11.09.09,0,0,1-.1-.07Z"/></g><path class="cls-64" d="M99.92,187.57c-1.12,8.66,2.44,17.4,6,15,5.64-3.79,14-16.19,14.81-16.23a21.46,21.46,0,0,0,2.27.29,11.89,11.89,0,0,0,2.45-.37c.14,0,.31-.1.31-.25a.3.3,0,0,0-.14-.21,1.8,1.8,0,0,0-1-.25c-.28,0-.65,0-.73-.32a.45.45,0,0,1,.18-.44,1.37,1.37,0,0,1,.47-.19c.89-.23,2-.43,2.89-.66-.54-.17-1.31-.34-1.86-.47a7.73,7.73,0,0,0-1.26-.22,17.8,17.8,0,0,0-2.63.1,7.93,7.93,0,0,0-2.78,1.06,10.65,10.65,0,0,0-1.88,1.26c-1.52,1.19-7.3,8-8.56,8.9"/><path class="cls-64" d="M134,216.67A39.78,39.78,0,0,0,131.3,226c-.61,4.23,1.74,11,1.48,15.89a16.31,16.31,0,0,1-.58,3.94c-.46.84-1.47,1.78-1.57,2.9a1.76,1.76,0,0,0,1.12,1.69c.79.36,1.31-.05,1.59,0,1.64.14,1.95,1.32,4.77,1.68a4.5,4.5,0,0,0,2.95-.81.59.59,0,0,0,.1-.83c-.17-.25-2.25-.86-3.19-1.41a5.77,5.77,0,0,1-2.05-2.51,25.11,25.11,0,0,1,.42-4.46c1.22-7.92,2.72-19.07,3.52-23.69"/><path class="cls-6" d="M141.28,251.42c.2-.35.24-.85.05-1a17.33,17.33,0,0,0-1.76-1c-.55-.22-1.42-.41-1.11-.26s-.25.76-.76.74c-1.76-.05-3.08-1.13-4.09-1.34a2.71,2.71,0,0,1-1.87-2.15,6.83,6.83,0,0,0-1.29,1.9,3.32,3.32,0,0,0-.2,1.45,3.21,3.21,0,0,1,.19,1.38,2.75,2.75,0,0,0,1,.33,4.26,4.26,0,0,0,1.12,0l.12-.88a4.72,4.72,0,0,1,.89.06,2.87,2.87,0,0,1,1.37.69c.22.21.43.55.71.66a6,6,0,0,0,2.26.46C139.84,252.56,140.94,252,141.28,251.42Z"/><path class="cls-64" d="M109.91,206.15l-12.78,7.3s.81,4.8,6.59,6c3.36.71,8.63-.24,10-.17s23.42.86,23.42.86,2.19.48,2.58-1.24c.62-2.7,0-3.55-1.81-4.76C134.87,212.16,123.18,208.31,109.91,206.15Z"/><path class="cls-65" d="M133.7,218.38a39.94,39.94,0,0,0,0,9.68c.58,4.23,4.94,11.3,6,16.1a15.88,15.88,0,0,1,.53,4c-.2.94-.92,2.11-.7,3.22a1.74,1.74,0,0,0,1.54,1.32c.86.12,1.24-.42,1.52-.47,1.62-.32,2.24.73,5,.29a4.49,4.49,0,0,0,2.61-1.58.62.62,0,0,0-.13-.84c-.23-.18-2.41-.2-3.46-.46a5.73,5.73,0,0,1-2.66-1.86,23.87,23.87,0,0,1-.83-4.4c-1-8-3-21.33-3.53-26"/><path class="cls-6" d="M150.57,251c.1-.39,0-.89-.22-.95a18.47,18.47,0,0,0-2-.43c-.59-.06-1.47,0-1.13.06s0,.79-.53.92c-1.71.44-3.27-.24-4.3-.16a2.68,2.68,0,0,1-2.38-1.55,6.52,6.52,0,0,0-.73,2.18,3.23,3.23,0,0,0,.22,1.45,3.17,3.17,0,0,1,.55,1.27,3,3,0,0,0,1.1,0,4.48,4.48,0,0,0,1.07-.33l-.13-.87a3.79,3.79,0,0,1,.88-.19,3,3,0,0,1,1.51.28,2.76,2.76,0,0,0,.85.44,6.29,6.29,0,0,0,2.31-.18C149.51,252.5,150.4,251.66,150.57,251Z"/><path class="cls-65" d="M110.17,207.05,97.4,214.36s.51,4.65,6.29,5.88c3.35.72,8.92-.09,10.31,0s23.43.86,23.43.86,2.15.47,2.26-1.3c.14-2.35.32-3.49-1.49-4.69C135.14,213.06,123.44,209.22,110.17,207.05Z"/><path class="cls-6" d="M99.87,203s-4,7.78-3,11.1,3,6.45,8.46,6.49,19.24,0,19.24,0a20.49,20.49,0,0,1,1.68-5.82,17.13,17.13,0,0,1,3.17-4s-14-4.29-14.92-5.22a12.14,12.14,0,0,1-1.91-3"/><path class="cls-38" d="M102.2,177.81a27.34,27.34,0,0,0-2.91,11,33,33,0,0,0,5.53.79"/><path class="cls-38" d="M112.85,174.89c.73.24.45,2,1.19,2.23.53.17,1.57-.06,2,.22,2.58,1.45,1.92,4.36,2.23,8,1.1,2.76,1.39,5.26.52,6.8-1.08,1.92-2.23,2.46-3.55,4-1,1.19-1.32,3.63-1.52,6.25,0,.45.34,1.24.23,1.68-.21.85-1.49,1.11-2.92,1.13-3.28.07-8.26-1.13-9.73-1.07s-2.68-.62-2.54-1.44c.09-.56.66-.8.89-1.9.49-2.42.87-8.47,1.26-10.53,1-5.25,1.71-9.16,3.86-14"/><path class="cls-62" d="M120.3,187.49a24.27,24.27,0,0,0-3-3.9l-2.8,1.26c1.32,2.53,1.56,5.51,2.16,8.28a6.62,6.62,0,0,0,1.62-.16c.28-.45.17-.22.54-.87A11.33,11.33,0,0,0,120.3,187.49Z"/><path class="cls-65" d="M122.22,167.79a14.12,14.12,0,0,0,.48-3.63c-.08-2.09-.35-5.11-3.81-6.35s-7.29-.5-8.43,2-.87,6.29-1,8.31a12.41,12.41,0,0,1-1.64,4.44l7.46,3.22a14.28,14.28,0,0,1,1.72-3c.5-.32.68.94,2.34.8.71-.06,1.46-1.32,2-2.88,0,0,0-.11,0-.16a8.1,8.1,0,0,0,.89-.07c.51-.16.47-.38.36-.71A8.47,8.47,0,0,1,122.22,167.79Z"/><path class="cls-65" d="M134.35,208.76a3.94,3.94,0,0,0,2.43,2.14,1.28,1.28,0,0,0,.86-.16c.43.11,1.73,0,1.13-.62a3.69,3.69,0,0,0,2.85.14c.34-.07.26-.47-.52-.55a3.79,3.79,0,0,1-2.66-1.59c.14-.14.3.06.73.06s.7-.26.68-.47-.6-.24-.74-.3l-1.56-.7a2.66,2.66,0,0,0-1.56-.3c-.11,0-1.11.23-.8.56"/><path class="cls-65" d="M116.9,188.92s3.92,10.56,4.6,11.42c2.68,3.4,13.23,8.75,13.23,8.75a2.06,2.06,0,0,0,1.31-2.3c-3.24-1.43-9.24-8-10.55-8.8-.85-.52-4.6-13.43-4.6-13.43"/><path class="cls-38" d="M118.51,177.19c-2.84-1.09-5.55-1.09-7.72-3.27-2.21,1.7,2.66,11.5,3.86,11.77s2.83,5.68,3.13,6.41c3.93-.1,5.37-2.24,5.37-2.24C121.54,184.93,121.26,178.24,118.51,177.19Z"/><path class="cls-6" d="M116.23,177.45c-.19-.73-.75-1.32-.87-2.07a3.41,3.41,0,0,1,.41-2.24,4,4,0,0,1,1-.91c1.56-1.24,2.11-2.25,1.58-4.09a5.09,5.09,0,0,1-.26-1.85c.06-.56.17-1.15.78-1.22.42,0,.69.05.84.41s-.1,2,.49,1a4.11,4.11,0,0,0,1-3.27c0-.27-.09-1.34.07-1.5a4.22,4.22,0,0,1,1.46,3,2.18,2.18,0,0,0,1-1.88,5,5,0,0,0-.41-2.24c-1.36-2.9-2.79-3.44-4-4a9.09,9.09,0,0,0-3.67-1c-1.28,0-2.86.42-3.23,1.37-1.77-.45-2.78,1.09-3.2,1.65a9,9,0,0,0-1.37,2.63c-.45,1.4-.55,2.89-.91,4.31a6.25,6.25,0,0,1-1.69,3.17c-.86.78-2.07.86-3,1.57a4.7,4.7,0,0,0-1.79,3.92c.06,1.49.83,3.11-.07,4.48-.3.45-.71.8-1,1.25a3.4,3.4,0,0,0,.07,3.52,6.29,6.29,0,0,0,3.05,2.61,9,9,0,0,0,3.3.45c2.15-.12,4,0,6.23-1.94,1.29-1.1.46-1.73,1.7-2.9.69-.65,1.68-1,2.18-1.85a3.29,3.29,0,0,0,.33-2.38A.29.29,0,0,0,116.23,177.45Z"/><polygon class="cls-66" points="182.49 91.87 163.3 111.74 163.51 104.89 182.49 91.87"/><polygon class="cls-38" points="153.53 101.54 173.68 109.83 182.49 91.87 153.53 101.54"/><polygon class="cls-67" points="182.49 91.87 160.79 104.53 163.3 111.74 165 106.26 182.49 91.87"/><line class="cls-68" x1="289.78" y1="124.58" x2="328.4" y2="163.19"/><path class="cls-38" d="M330.19,141.22l-20,3.11,15.39-16.62a4.52,4.52,0,1,0,0-6.42,4.52,4.52,0,0,0,0,6.42l0,0-16.15,15.86s2.36-13.81,3.15-20.67c5-2.34,18.82-9.94,22.67-12.82l1.26-.94s-2.95-2.61,8,8.36c-.3.36-.63.77-1,1.21C338.31,125.34,330.19,141.22,330.19,141.22Z"/><path class="cls-67" d="M351.81,117.4l-3.36,3.35a1.6,1.6,0,0,1-2.27,0l-13.49-13.49a1.61,1.61,0,0,1-.08-2.19l.08-.08,3.35-3.36a1.61,1.61,0,0,1,2.28,0l13.49,13.49A1.61,1.61,0,0,1,351.81,117.4Z"/><path class="cls-69" d="M351.81,117.4l-3.36,3.35a1.6,1.6,0,0,1-2.27,0l-13.49-13.49a1.61,1.61,0,0,1-.08-2.19c10.47,11.78,14.07,7.63,15,5.85l4.21,4.2A1.61,1.61,0,0,1,351.81,117.4Z"/><path class="cls-68" d="M341.6,142.06c-9.46,9.47-23.86,10.42-32.15,2.14s-7.33-22.69,2.14-32.15"/><path class="cls-67" d="M291.08,125.87a1.83,1.83,0,1,1,0-2.59A1.83,1.83,0,0,1,291.08,125.87Z"/><path class="cls-67" d="M312.87,113.5a1.83,1.83,0,1,1,0-2.59A1.84,1.84,0,0,1,312.87,113.5Z"/><path class="cls-67" d="M342.61,143.35a1.83,1.83,0,1,1,0-2.59A1.84,1.84,0,0,1,342.61,143.35Z"/><path class="cls-67" d="M329.69,164.49a1.83,1.83,0,1,1,0-2.59A1.84,1.84,0,0,1,329.69,164.49Z"/><line class="cls-70" x1="248.8" y1="63.49" x2="248.8" y2="104.2"/><line class="cls-70" x1="299.38" y1="75.15" x2="277.99" y2="109.79"/><line class="cls-70" x1="198.23" y1="75.15" x2="219.62" y2="109.79"/><rect class="cls-68" x="61.08" y="235.7" width="8.27" height="8.27" transform="translate(-80.47 38.46) rotate(-20.67)"/><path class="cls-68" d="M72.54,232.74a4.68,4.68,0,1,1-6-2.73A4.68,4.68,0,0,1,72.54,232.74Z"/><path class="cls-67" d="M363.16,162.31l.17-1.75-2.37-1-1.12,1.36-1.48-.62,5-5.59,1.69.71-.42,7.5Zm.33-3c.15-1.59.23-2.49.25-2.69s.05-.37.07-.49c-.26.34-.93,1.16-2,2.47Z"/><line class="cls-71" x1="369.69" y1="157.67" x2="367.2" y2="163.66"/><line class="cls-71" x1="365.75" y1="163.05" x2="368.65" y2="164.26"/><line class="cls-71" x1="368.24" y1="157.07" x2="371.14" y2="158.28"/><line class="cls-71" x1="367.94" y1="154.21" x2="361.96" y2="151.72"/><line class="cls-71" x1="362.56" y1="150.27" x2="361.35" y2="153.17"/><line class="cls-71" x1="368.54" y1="152.76" x2="367.34" y2="155.66"/><rect class="cls-4" x="82.61" y="309.53" width="29.05" height="29.05" rx="6.13" ry="6.13" transform="translate(-188.61 142.95) rotate(-40.95)"/><path class="cls-3" d="M90.11,320c.49-.43,1-.84,1.47-1.28a.51.51,0,0,1,.69-.09c.79.49,1.56,1,2.34,1.49L97,321.57c.57.35,1.13.72,1.7,1.08l1.67,1,1.75,1.1,1.6,1c.73.45,1.48.89,2.2,1.35.06,0,0,.31,0,.38-.41.38-.84.74-1.26,1.1l-1.19,1a.39.39,0,0,1-.56,0c-.85-.55-1.72-1.07-2.58-1.61a1.5,1.5,0,0,1-.25-.19.53.53,0,0,0-.8,0c-1,.84-1.9,1.67-2.86,2.49a.36.36,0,0,0-.1.53c.46.93.89,1.86,1.29,2.81.32.76.3.77-.34,1.32s-1.21,1-1.81,1.58c-.24.22-.41.2-.54-.1l-.81-1.85-.87-1.91L92.45,331c-.4-.9-.8-1.8-1.19-2.7l-1.14-2.59c-.4-.88-.8-1.77-1.19-2.65-.15-.33-.31-.65-.45-1a.63.63,0,0,1,.23-.85c.49-.37.94-.8,1.41-1.21Zm1.81,2.25c0,.09,0,.14,0,.17l.87,1.77c.38.76.75,1.52,1.14,2.28.21.43.44.85.66,1.28.12.24.27.24.46.08L97.11,326c.18-.16.18-.28,0-.41s-.7-.4-1-.62l-3.3-2.24C92.47,322.57,92.2,322.42,91.92,322.24Z"/><path class="cls-3" d="M106.2,319.61c1.15,1.33,2.3,2.67,3.47,4,.24.28.26.45,0,.69-.7.58-1.38,1.18-2,1.78-.28.25-.46.23-.7-.06-2.29-2.66-4.6-5.3-6.9-8-.43-.49-.42-.51.06-.92s1.27-1.07,1.87-1.64c.31-.28.5-.27.77.05,1.16,1.37,2.34,2.72,3.52,4.07Z"/><path class="cls-3" d="M97.64,312.55a1.81,1.81,0,0,1,2.68.13,1.74,1.74,0,0,1-.29,2.63,1.83,1.83,0,1,1-2.39-2.76Z"/><path class="cls-67" d="M140.19,156.6l1.2-.2-.21-1.2,1.19-.2c.29,1.72.58,3.43.88,5.17L145.5,157l-2.26.38c-.06-.41-.13-.8-.2-1.21l.1,0,3.33-.56a.21.21,0,0,0,.15-.09l.94-1.34a.22.22,0,0,0,.05-.08l.6.42-.07.07-.95,1.33a.2.2,0,0,0,0,.15c.19,1.12.37,2.23.56,3.34l0,.11-1.2.2c-.13-.77-.26-1.54-.39-2.28-.77,1-1.54,2.12-2.31,3.19l0,0,5.14-.87c.07.4.14.79.2,1.19l-1.18.2.21,1.22-1.21.2c-.07-.4-.13-.8-.2-1.21l-4.47.75c-.26-1.49-.51-3-.76-4.45l-1.2.2C140.32,157.41,140.26,157,140.19,156.6Z"/><path class="cls-67" d="M421.45,247.3l.63-1.46-1.46-.63.63-1.45,6.31,2.74c-.65-1.62-1.3-3.22-1.93-4.78-.38.88-.79,1.81-1.19,2.75l-1.48-.64.05-.12,1.77-4.06a.27.27,0,0,0,0-.23c-.26-.67-.53-1.33-.79-2,0,0,0-.07-.05-.1l.89-.37a.44.44,0,0,0,0,.13c.26.67.53,1.33.78,2a.26.26,0,0,0,.15.14l4.06,1.77.13.06-.63,1.46-2.79-1.21c.62,1.6,1.23,3.21,1.85,4.82h0q1.35-3.13,2.72-6.27l1.45.63c-.21.47-.41,1-.62,1.44l1.48.64c-.21.5-.42,1-.64,1.47l-1.48-.64L429,248.84l-5.43-2.36c-.21.49-.42,1-.64,1.46Z"/></g></g></svg>