<svg height="504pt" viewBox="0 0 504 504" width="504pt" xmlns="http://www.w3.org/2000/svg"><path d="m347.828125 20.644531h-191.65625l-135.527344 135.527344v191.660156l135.527344 135.523438h191.65625l135.527344-135.523438v-191.660156zm0 0" fill="#f4efed"/><path d="m462.90625 135.722656v232.558594l20.449219-20.449219v-191.660156zm0 0" fill="#d6d1cf"/><path d="m41.09375 368.28125v-232.558594l-20.449219 20.449219v191.660156zm0 0" fill="#fff"/><path d="m347.828125 487.355469h-191.65625c-1.0625 0-2.078125-.421875-2.828125-1.171875l-135.527344-135.523438c-.75-.75-1.171875-1.769531-1.171875-2.828125v-191.660156c0-1.0625.421875-2.078125 1.171875-2.828125l135.527344-135.527344c.75-.75 1.765625-1.171875 2.828125-1.171875h191.65625c1.0625 0 2.078125.421875 2.828125 1.171875l135.527344 135.527344c.75.75 1.171875 1.765625 1.171875 2.828125v191.660156c0 1.058594-.421875 2.078125-1.171875 2.828125l-135.527344 135.523438c-.75.75-1.765625 1.171875-2.828125 1.171875zm-190.003906-8h188.351562l133.179688-133.179688v-188.351562l-133.179688-133.179688h-188.351562l-133.179688 133.179688v188.351562zm0 0" fill="#690589"/><path d="m20.640625 351.835938c-1.726563 0-3.324219-1.132813-3.835937-2.878907-.621094-2.117187.589843-4.339843 2.710937-4.964843l233.660156-68.664063-234.300781-115.570313c-1.980469-.976562-2.792969-3.375-1.816406-5.359374.976562-1.976563 3.378906-2.789063 5.355468-1.816407l243.496094 120.109375c1.476563.730469 2.359375 2.289063 2.214844 3.929688-.140625 1.644531-1.277344 3.03125-2.859375 3.496094l-243.492187 71.554687c-.378907.109375-.757813.164063-1.132813.164063zm0 0" fill="#690589"/><path d="m37.289062 157.441406c0 9.191406-7.453124 16.644532-16.644531 16.644532-9.191406 0-16.644531-7.453126-16.644531-16.644532s7.453125-16.644531 16.644531-16.644531c9.191407 0 16.644531 7.453125 16.644531 16.644531zm0 0" fill="#99ca6f"/><path d="m37.277344 347.898438c0-9.191407-7.449219-16.640626-16.644532-16.640626-9.191406 0-16.644531 7.449219-16.644531 16.640626 0 9.195312 7.453125 16.644531 16.644531 16.644531 9.195313 0 16.644532-7.449219 16.644532-16.644531zm0 0" fill="#99ca6f"/><path d="m483.355469 351.835938c-.410157 0-.828125-.066407-1.238281-.203126l-219.21875-71.554687c-1.515626-.492187-2.59375-1.84375-2.742188-3.429687-.144531-1.589844.664062-3.113282 2.0625-3.878907l219.214844-120.109375c1.9375-1.058594 4.371094-.347656 5.429687 1.585938 1.0625 1.941406.351563 4.371094-1.585937 5.433594l-211.109375 115.664062 210.429687 68.6875c2.101563.683594 3.246094 2.941406 2.558594 5.039062-.546875 1.691407-2.113281 2.765626-3.800781 2.765626zm0 0" fill="#690589"/><path d="m500 157.441406c0 9.191406-7.453125 16.644532-16.644531 16.644532-9.191407 0-16.644531-7.453126-16.644531-16.644532s7.453124-16.644531 16.644531-16.644531c9.191406 0 16.644531 7.453125 16.644531 16.644531zm0 0" fill="#5d8e33"/><path d="m500.007812 347.929688c0-9.191407-7.453124-16.644532-16.644531-16.644532-9.195312 0-16.644531 7.453125-16.644531 16.644532 0 9.191406 7.449219 16.644531 16.644531 16.644531 9.191407 0 16.644531-7.453125 16.644531-16.644531zm0 0" fill="#5d8e33"/><path d="m264.136719 280.277344c-1.601563 0-3.054688-.957032-3.683594-2.441406l-107.96875-255.632813c-.859375-2.039063.09375-4.382813 2.128906-5.242187 2.03125-.851563 4.378907.09375 5.242188 2.128906l103.804687 245.785156 80.371094-245.476562c.683594-2.097657 2.949219-3.246094 5.042969-2.554688 2.101562.6875 3.242187 2.945312 2.554687 5.042969l-83.6875 255.636719c-.519531 1.585937-1.96875 2.683593-3.636718 2.75-.054688.003906-.109376.003906-.167969.003906zm0 0" fill="#690589"/><path d="m172.8125 20.644531c0-9.191406-7.453125-16.640625-16.644531-16.640625-9.191407 0-16.644531 7.449219-16.644531 16.640625 0 9.195313 7.453124 16.644531 16.644531 16.644531 9.191406 0 16.644531-7.449218 16.644531-16.644531zm0 0" fill="#ff4397"/><path d="m364.488281 20.664062c0-9.191406-7.449219-16.644531-16.640625-16.644531-9.195312 0-16.644531 7.453125-16.644531 16.644531 0 9.191407 7.449219 16.644532 16.644531 16.644532 9.191406 0 16.640625-7.453125 16.640625-16.644532zm0 0" fill="#ff4397"/><path d="m347.832031 487.359375c-1.582031 0-3.082031-.949219-3.710937-2.503906l-80.441406-199.042969-103.960938 199.390625c-1.019531 1.957031-3.433594 2.722656-5.398438 1.699219-1.957031-1.023438-2.714843-3.4375-1.695312-5.394532l107.96875-207.078124c.71875-1.386719 2.207031-2.191407 3.738281-2.148438 1.558594.078125 2.929688 1.050781 3.515625 2.5l83.691406 207.078125c.828126 2.042969-.160156 4.375-2.210937 5.207031-.488281.195313-1 .292969-1.496094.292969zm0 0" fill="#690589"/><path d="m172.808594 483.355469c0-9.195313-7.453125-16.644531-16.644532-16.644531-9.191406 0-16.644531 7.449218-16.644531 16.644531 0 9.191406 7.453125 16.640625 16.644531 16.640625 9.191407 0 16.644532-7.449219 16.644532-16.640625zm0 0" fill="#ff4397"/><path d="m364.464844 483.398438c0-9.191407-7.449219-16.644532-16.644532-16.644532-9.191406 0-16.640624 7.453125-16.640624 16.644532 0 9.191406 7.449218 16.644531 16.640624 16.644531 9.195313 0 16.644532-7.453125 16.644532-16.644531zm0 0" fill="#ff4397"/><path d="m204.890625 173.386719-11.253906-26.609375h-62.199219c-7.347656 0-13.304688 5.957031-13.304688 13.304687v183.839844c0 7.347656 5.957032 13.300781 13.304688 13.300781h214.515625c7.347656 0 13.304687-5.953125 13.304687-13.300781v-157.230469c0-7.347656-5.957031-13.304687-13.304687-13.304687zm0 0" fill="#dea42e"/><path d="m345.957031 361.222656h-214.519531c-9.542969 0-17.300781-7.761718-17.300781-17.300781v-183.839844c0-9.542969 7.761719-17.304687 17.300781-17.304687h62.199219c1.609375 0 3.058593.960937 3.683593 2.441406l10.222657 24.167969h138.414062c9.539063 0 17.300781 7.761719 17.300781 17.304687v157.230469c0 9.539063-7.761718 17.300781-17.300781 17.300781zm-214.519531-210.445312c-5.128906 0-9.300781 4.175781-9.300781 9.304687v183.839844c0 5.125 4.171875 9.300781 9.300781 9.300781h214.519531c5.128907 0 9.300781-4.175781 9.300781-9.300781v-157.230469c0-5.132812-4.171874-9.304687-9.300781-9.304687h-141.0625c-1.609375 0-3.058593-.960938-3.683593-2.441407l-10.226563-24.167968zm0 0" fill="#690589"/><path d="m372.5625 357.222656h-214.515625c-7.347656 0-13.304687-5.953125-13.304687-13.300781v-130.625c0-7.347656 5.957031-13.304687 13.304687-13.304687h214.515625c7.347656 0 13.304688 5.957031 13.304688 13.304687v130.625c0 7.347656-5.957032 13.300781-13.304688 13.300781zm0 0" fill="#fcc24c"/><path d="m372.5625 199.992188h-22.609375c7.347656 0 13.304687 5.957031 13.304687 13.304687v130.625c0 7.347656-5.957031 13.300781-13.304687 13.300781h22.609375c7.347656 0 13.304688-5.953125 13.304688-13.300781v-130.625c0-7.347656-5.957032-13.304687-13.304688-13.304687zm0 0" fill="#dea42e"/><path d="m158.046875 357.222656h22.605469c-7.347656 0-13.300782-5.953125-13.300782-13.300781v-130.625c0-7.347656 5.953126-13.304687 13.300782-13.304687h-22.605469c-7.347656 0-13.304687 5.957031-13.304687 13.304687v130.625c0 7.347656 5.957031 13.300781 13.304687 13.300781zm0 0" fill="#fce06a"/><g fill="#690589"><path d="m372.5625 361.222656h-214.515625c-9.542969 0-17.304687-7.761718-17.304687-17.300781v-130.625c0-9.539063 7.765624-17.304687 17.304687-17.304687h214.515625c9.542969 0 17.300781 7.765624 17.300781 17.304687v130.625c.003907 9.539063-7.757812 17.300781-17.300781 17.300781zm-214.515625-157.230468c-5.132813 0-9.304687 4.171874-9.304687 9.304687v130.625c0 5.125 4.171874 9.300781 9.304687 9.300781h214.515625c5.128906 0 9.300781-4.175781 9.300781-9.300781v-130.625c0-5.128906-4.171875-9.304687-9.300781-9.304687zm0 0"/><path d="m161.101562 246.359375c-2.207031 0-4-1.792969-4-4v-24c0-2.210937 1.792969-4 4-4 2.207032 0 4 1.789063 4 4v24c0 2.207031-1.792968 4-4 4zm0 0"/><path d="m20.644531 178.085938c-11.382812 0-20.644531-9.261719-20.644531-20.644532 0-11.382812 9.261719-20.644531 20.644531-20.644531 11.382813 0 20.644531 9.261719 20.644531 20.644531 0 11.382813-9.261718 20.644532-20.644531 20.644532zm0-33.289063c-6.972656 0-12.644531 5.671875-12.644531 12.644531s5.671875 12.644532 12.644531 12.644532c6.972657 0 12.644531-5.671876 12.644531-12.644532s-5.671874-12.644531-12.644531-12.644531zm0 0"/><path d="m483.355469 178.085938c-11.382813 0-20.644531-9.261719-20.644531-20.644532 0-11.382812 9.261718-20.644531 20.644531-20.644531 11.382812 0 20.644531 9.261719 20.644531 20.644531 0 11.382813-9.261719 20.644532-20.644531 20.644532zm0-33.289063c-6.972657 0-12.644531 5.671875-12.644531 12.644531s5.671874 12.644532 12.644531 12.644532c6.972656 0 12.644531-5.671876 12.644531-12.644532s-5.671875-12.644531-12.644531-12.644531zm0 0"/><path d="m20.644531 368.535156c-11.382812 0-20.644531-9.261718-20.644531-20.644531s9.261719-20.644531 20.644531-20.644531c11.382813 0 20.644531 9.261718 20.644531 20.644531s-9.261718 20.644531-20.644531 20.644531zm0-33.292968c-6.972656 0-12.644531 5.671874-12.644531 12.644531 0 6.972656 5.671875 12.644531 12.644531 12.644531 6.972657 0 12.644531-5.671875 12.644531-12.644531 0-6.972657-5.671874-12.644531-12.644531-12.644531zm0 0"/><path d="m483.355469 368.535156c-11.382813 0-20.644531-9.261718-20.644531-20.644531s9.261718-20.644531 20.644531-20.644531c11.382812 0 20.644531 9.261718 20.644531 20.644531s-9.261719 20.644531-20.644531 20.644531zm0-33.292968c-6.972657 0-12.644531 5.671874-12.644531 12.644531 0 6.972656 5.671874 12.644531 12.644531 12.644531 6.972656 0 12.644531-5.671875 12.644531-12.644531 0-6.972657-5.671875-12.644531-12.644531-12.644531zm0 0"/><path d="m156.171875 41.289062c-11.382813 0-20.644531-9.261718-20.644531-20.644531 0-11.378906 9.261718-20.644531 20.644531-20.644531 11.378906 0 20.640625 9.261719 20.640625 20.644531 0 11.386719-9.261719 20.644531-20.640625 20.644531zm0-33.289062c-6.972656 0-12.644531 5.671875-12.644531 12.644531 0 6.972657 5.671875 12.644531 12.644531 12.644531 6.96875 0 12.640625-5.671874 12.640625-12.644531 0-6.972656-5.671875-12.644531-12.640625-12.644531zm0 0"/><path d="m347.828125 41.289062c-11.378906 0-20.640625-9.261718-20.640625-20.644531 0-11.378906 9.261719-20.64062475 20.640625-20.64062475 11.382813 0 20.644531 9.26171875 20.644531 20.64062475 0 11.382813-9.261718 20.644531-20.644531 20.644531zm0-33.289062c-6.96875 0-12.640625 5.671875-12.640625 12.644531 0 6.972657 5.671875 12.644531 12.640625 12.644531 6.972656 0 12.644531-5.671874 12.644531-12.644531 0-6.972656-5.671875-12.644531-12.644531-12.644531zm0 0"/><path d="m156.171875 504c-11.382813 0-20.644531-9.261719-20.644531-20.644531 0-11.382813 9.261718-20.640625 20.644531-20.640625 11.378906 0 20.640625 9.257812 20.640625 20.640625 0 11.382812-9.261719 20.644531-20.640625 20.644531zm0-33.285156c-6.972656 0-12.644531 5.671875-12.644531 12.640625 0 6.972656 5.671875 12.644531 12.644531 12.644531 6.96875 0 12.640625-5.671875 12.640625-12.644531 0-6.96875-5.671875-12.640625-12.640625-12.640625zm0 0"/><path d="m347.828125 504c-11.378906 0-20.640625-9.261719-20.640625-20.644531 0-11.382813 9.261719-20.640625 20.640625-20.640625 11.382813 0 20.644531 9.257812 20.644531 20.640625 0 11.382812-9.261718 20.644531-20.644531 20.644531zm0-33.285156c-6.96875 0-12.640625 5.671875-12.640625 12.640625 0 6.972656 5.671875 12.644531 12.640625 12.644531 6.972656 0 12.644531-5.671875 12.644531-12.644531 0-6.96875-5.671875-12.640625-12.644531-12.640625zm0 0"/></g></svg>