<svg height="485pt" viewBox="0 -2 485.71291 485" width="485pt" xmlns="http://www.w3.org/2000/svg"><path d="m424 264.6875 48.800781 48.800781c4 4 5.597657 10.398438 4 16l-4.800781 15.199219h-48zm0 0" fill="#d8b4ad"/><path d="m400 168.6875h16v72h-16zm0 0" fill="#4a4a56"/><path d="m424 312.6875v-64c0-8.800781-7.199219-16-16-16s-16 7.199219-16 16v13.597656l-34.398438 30.402344c-3.203124 3.199219-5.601562 7.199219-5.601562 12v36.800781c0 4 1.601562 7.199219 4 10.398438l28 32v24h64v-24l16.800781-11.199219c4.800781-3.199219 7.199219-8 7.199219-13.601562v-14.398438zm0 0" fill="#efccbf"/><path d="m464 120.6875c0 30.925781-25.070312 56-56 56s-56-25.074219-56-56c0-30.929688 25.070312-56 56-56s56 25.070312 56 56zm0 0" fill="#e57e73"/><path d="m378.582031 102.585938 11.3125-11.3125 48.082031 48.082031-11.3125 11.3125zm0 0" fill="#fff"/><path d="m378.582031 138.789062 48.082031-48.082031 11.3125 11.3125-48.082031 48.085938zm0 0" fill="#fff"/><path d="m368 408.6875h96v72h-96zm0 0" fill="#878b9b"/><path d="m368 432.6875h72v16h-72zm0 0" fill="#676b7f"/><path d="m448.800781 329.488281-13.601562-9.601562 15.199219-28.800781 11.203124 11.199218zm0 0" fill="#c9a8a3"/><path d="m80 264.6875 48.800781 48.800781c4 4 5.597657 10.398438 4 16l-4.800781 15.199219h-48zm0 0" fill="#d8b4ad"/><path d="m56 168.6875h16v72h-16zm0 0" fill="#4a4a56"/><path d="m80 312.6875v-64c0-8.800781-7.199219-16-16-16s-16 7.199219-16 16v13.597656l-34.398438 30.402344c-3.203124 3.199219-5.601562 7.199219-5.601562 12v36.800781c0 4 1.601562 7.199219 4 10.398438l28 32.800781v24h64v-24l16.800781-11.199219c4.800781-3.203125 7.199219-8 7.199219-13.601562v-15.199219zm0 0" fill="#efccbf"/><path d="m120 120.6875c0 30.925781-25.070312 56-56 56s-56-25.074219-56-56c0-30.929688 25.070312-56 56-56s56 25.070312 56 56zm0 0" fill="#e57e73"/><path d="m304 352.6875 13.601562-13.601562c5.597657-5.597657 6.398438-15.199219.796876-21.597657l-62.398438-76.800781-32 32 72 88zm0 0" fill="#d8b4ad"/><path d="m224 144.6875h16v72h-16zm0 0" fill="#4a4a56"/><path d="m304 80.6875c0 39.765625-32.234375 72-72 72s-72-32.234375-72-72 32.234375-72 72-72 72 32.234375 72 72zm0 0" fill="#5da364"/><path d="m285.601562 334.285156-11.203124-11.199218 30.402343-23.199219 10.398438 12.800781zm0 0" fill="#c9a8a3"/><path d="m184 424.6875h120v56h-120zm0 0" fill="#878b9b"/><path d="m184 448.6875h64v16h-64zm0 0" fill="#676b7f"/><path d="m264 448.6875h16v16h-16zm0 0" fill="#676b7f"/><path d="m208 115.886719-21.601562-21.601563 11.203124-11.199218 10.398438 10.402343 50.398438-50.402343 11.203124 11.199218zm0 0" fill="#fff"/><path d="m34.582031 102.585938 11.316407-11.3125 48.082031 48.082031-11.316407 11.3125zm0 0" fill="#fff"/><path d="m34.582031 138.789062 48.082031-48.082031 11.316407 11.3125-48.082031 48.082031zm0 0" fill="#fff"/><path d="m24 408.6875h96v72h-96zm0 0" fill="#878b9b"/><path d="m24 432.6875h72v16h-72zm0 0" fill="#676b7f"/><path d="m104.800781 329.488281-13.601562-9.601562 15.199219-28.800781 11.203124 11.199218zm0 0" fill="#c9a8a3"/><path d="m261.601562 310.285156 32-24-10.402343-12-27.199219 20.800782v9.601562zm0 0" fill="#c9a8a3"/><path d="m256 304.6875v-72c0-13.601562-10.398438-24-24-24s-24 10.398438-24 24v16l-35.199219 35.199219c-3.199219 3.199219-4.800781 7.199219-4.800781 11.199219v52.800781c0 3.199219.800781 6.398437 2.398438 8.800781l29.601562 44v24h88v-24l11.199219-11.199219c3.199219-3.203125 4.800781-7.203125 4.800781-11.203125v-25.597656zm0 0" fill="#efccbf"/><g fill="#d8b4ad"><path d="m216 264.6875h-16v36.800781l-16 16v22.398438l32-32zm0 0"/><path d="m40 280.6875v28.800781l-16 16v22.398438l32-32v-35.199219zm0 0"/><path d="m384 280.6875v28.800781l-16 16v22.398438l32-32v-35.199219zm0 0"/></g><path d="m426.398438 150.285156 11.203124-11.199218-18.402343-18.398438 18.402343-18.402344-11.203124-11.199218-18.398438 18.402343-18.398438-18.402343-11.203124 11.199218 18.402343 18.402344-18.402343 18.398438 11.203124 11.199218 18.398438-18.398437zm0 0"/><path d="m264 237.488281v-4.800781c0-14.402344-9.601562-27.199219-24-31.199219v-41.601562c44-4.800781 76-44 71.199219-87.199219s-43.199219-76-87.199219-72-76 44-71.199219 88c4 37.597656 33.597657 68 71.199219 71.199219v41.601562c-14.398438 4-24 16-24 31.199219v12.800781l-32.800781 32.796875c-4.800781 4.800782-7.199219 10.402344-7.199219 16.800782v52.800781c0 4.800781 1.601562 9.601562 4 13.601562l28 41.597657v13.601562h-16v64h16v-16h56v-16h-56v-16h104v48h16v-64h-16v-12.800781l8.800781-8.800781c4.800781-4.800782 7.199219-10.398438 7.199219-16.800782v-22.398437l11.199219-11.199219c8.800781-8.800781 9.601562-22.402344 1.601562-32zm4 68 19.199219-14.402343 11.199219 13.601562-17.597657 12.800781zm8.800781-26.402343-12.800781 9.601562v-25.601562zm-108.800781-198.398438c0-35.199219 28.800781-64 64-64s64 28.800781 64 64-28.800781 64-64 64-64-28.800781-64-64zm128 297.597656c0 2.402344-.800781 4-2.398438 5.601563l-13.601562 13.601562v19.199219h-72v-18.402344l-30.398438-45.597656c-.800781-1.601562-1.601562-3.199219-1.601562-4.800781v-52.800781c0-2.398438.800781-4 2.398438-5.597657l21.601562-21.601562v30.398437c0 2.402344-.800781 4-2.398438 5.601563l-11.203124 11.199219 11.203124 11.199218 11.199219-11.199218c4.800781-4.800782 7.199219-10.398438 7.199219-16.800782v-65.597656c0-8.800781 7.199219-16 16-16s16 7.199219 16 16v75.199219l48 48zm16-44.796875-8 8-12-12 16-12 4 4.796875c3.199219 3.203125 3.199219 8 0 11.203125zm0 0"/><path d="m264 448.6875h16v16h-16zm0 0"/><path d="m478.398438 307.886719-46.398438-46.398438v-12.800781c0-10.402344-6.398438-19.199219-16-22.402344v-42.398437c35.199219-4.800781 60-36.800781 55.199219-71.199219-4.800781-35.199219-36.800781-60-71.199219-55.199219-35.199219 4.796875-60 36.796875-55.199219 71.199219 4 28.800781 26.398438 52 55.199219 55.199219v42.398437c-9.601562 3.203125-16 12-16 22.402344v12l-31.199219 26.398438c-5.601562 4-8.800781 10.402343-8.800781 17.601562v36.800781c0 5.597657 2.398438 11.199219 5.601562 16l26.398438 30.398438v12.800781h-16v80h16v-32h64v-16h-64v-16h80v64h16v-80h-16v-12l13.601562-8.800781c6.398438-4.800781 10.398438-12 10.398438-20v-14.398438l4.800781-13.601562c2.398438-8 0-17.601563-6.402343-24zm-8.796876 20-1.601562 4.800781-15.199219-10.402344 5.597657-12 8.800781 8.800782c2.402343 2.402343 3.199219 5.601562 2.402343 8.800781zm-23.203124-29.601563-7.199219 14.402344-7.199219-4v-24.800781zm-86.398438-177.597656c0-26.402344 21.601562-48 48-48s48 21.597656 48 48c0 26.398438-21.601562 48-48 48s-48-21.601562-48-48zm104 239.199219c0 2.398437-1.601562 4.800781-3.199219 6.398437l-20.800781 14.402344v20h-48v-19.199219l-30.398438-34.402343c-1.601562-1.597657-1.601562-3.199219-1.601562-5.597657v-36.800781c0-2.402344.800781-4.800781 3.199219-6.402344l20.800781-17.597656v24.800781c0 2.398438-.800781 4-2.398438 5.597657l-11.203124 11.199218 11.203124 11.203125 11.199219-11.203125c4.800781-4.796875 7.199219-10.398437 7.199219-16.796875v-56.800781c0-4.800781 3.199219-8 8-8s8 3.199219 8 8v68l48 32zm0 0"/><path d="m258.398438 43.085938-50.398438 50.402343-10.398438-10.402343-11.203124 11.199218 21.601562 21.601563 61.601562-61.601563zm0 0"/><path d="m82.398438 150.285156 11.203124-11.199218-18.402343-18.398438 18.402343-18.402344-11.203124-11.199218-18.398438 18.402343-18.398438-18.402343-11.203124 11.199218 18.402343 18.402344-18.402343 18.398438 11.203124 11.199218 18.398438-18.398437zm0 0"/><path d="m88 261.488281v-12.800781c0-10.402344-6.398438-19.199219-16-22.402344v-42.398437c35.199219-4.800781 60-36.800781 55.199219-71.199219-4.800781-34.402344-36-60-71.199219-55.199219-35.199219 4-60 36-55.199219 71.199219 4 28.800781 26.398438 52 55.199219 55.199219v42.398437c-9.601562 3.203125-16 12-16 22.402344v12l-31.199219 26.398438c-5.601562 4-8.800781 10.402343-8.800781 17.601562v36.800781c0 5.597657 2.398438 11.199219 5.601562 16l26.398438 30.398438v12.800781h-16v80h16v-32h64v-16h-64v-16h80v64h16v-80h-16v-12l13.601562-8.800781c6.398438-4.800781 10.398438-12 10.398438-20v-14.398438l4.800781-13.601562c3.199219-8.800781.800781-18.398438-5.601562-24.800781zm37.601562 66.398438-1.601562 4.800781-15.199219-10.402344 5.597657-12 8.800781 8.800782c2.402343 2.402343 3.199219 5.601562 2.402343 8.800781zm-23.203124-29.601563-7.199219 14.402344-7.199219-4v-24.800781zm-86.398438-177.597656c0-26.402344 21.601562-48 48-48s48 21.597656 48 48c0 26.398438-21.601562 48-48 48s-48-21.601562-48-48zm104 239.199219c0 2.398437-1.601562 4.800781-3.199219 6.398437l-20.800781 14.402344v20h-48v-19.199219l-30.398438-34.402343c-.800781-1.597657-1.601562-3.199219-1.601562-5.597657v-36.800781c0-2.402344.800781-4.800781 3.199219-6.402344l20.800781-16.796875v24.796875c0 2.402344-.800781 4-2.398438 5.601563l-11.203124 11.199219 11.203124 11.199218 11.199219-11.199218c4.800781-4.800782 7.199219-10.398438 7.199219-16.800782v-57.597656c0-4.800781 3.199219-8 8-8s8 3.199219 8 8v68l48 32zm0 0"/></svg>