<svg height="480pt" viewBox="0 0 480 480" width="480pt" xmlns="http://www.w3.org/2000/svg"><path d="m448 72c0 22.089844-17.910156 40-40 40s-40-17.910156-40-40 17.910156-40 40-40 40 17.910156 40 40zm0 0" fill="#f4a422"/><path d="m400 72c0 22.089844-17.910156 40-40 40s-40-17.910156-40-40 17.910156-40 40-40 40 17.910156 40 40zm0 0" fill="#e8821c"/><path d="m456 160h-152c-8.800781 0-16 7.199219-16 16v248c0 8.800781 7.199219 16 16 16h152c8.800781 0 16-7.199219 16-16v-248c0-8.800781-7.199219-16-16-16zm0 0" fill="#676b7f"/><g fill="#4a4a56"><path d="m288 176v40h184v-40c0-8.800781-7.199219-16-16-16h-152c-8.800781 0-16 7.199219-16 16zm0 0"/><path d="m376 264c0 8.835938-7.164062 16-16 16s-16-7.164062-16-16 7.164062-16 16-16 16 7.164062 16 16zm0 0"/><path d="m440 264c0 8.835938-7.164062 16-16 16s-16-7.164062-16-16 7.164062-16 16-16 16 7.164062 16 16zm0 0"/><path d="m376 328c0 8.835938-7.164062 16-16 16s-16-7.164062-16-16 7.164062-16 16-16 16 7.164062 16 16zm0 0"/><path d="m440 328c0 8.835938-7.164062 16-16 16s-16-7.164062-16-16 7.164062-16 16-16 16 7.164062 16 16zm0 0"/><path d="m376 392c0 8.835938-7.164062 16-16 16s-16-7.164062-16-16 7.164062-16 16-16 16 7.164062 16 16zm0 0"/><path d="m440 392c0 8.835938-7.164062 16-16 16s-16-7.164062-16-16 7.164062-16 16-16 16 7.164062 16 16zm0 0"/></g><path d="m8 312h304v160h-304zm0 0" fill="#5da364"/><path d="m56 344c0 8.800781-7.199219 16-16 16v64c8.800781 0 16 7.199219 16 16h208c0-8.800781 7.199219-16 16-16v-64c-8.800781 0-16-7.199219-16-16zm0 0" fill="#538457"/><path d="m200 384h48v16h-48zm0 0" fill="#edc17c"/><path d="m72 384h48v16h-48zm0 0" fill="#edc17c"/><path d="m224 136h-64l-24 24-24-24h-64c-8.800781 0-16-7.199219-16-16v-96c0-8.800781 7.199219-16 16-16h176c8.800781 0 16 7.199219 16 16v96c0 8.800781-7.199219 16-16 16zm0 0" fill="#4282b7"/><path d="m77.601562 117.601562-11.203124-11.203124 53.601562-53.597657 24 24 42.398438-42.402343 11.203124 11.203124-53.601562 53.597657-24-24zm0 0" fill="#2b4a66"/><path d="m200 80h-16v-32h-32v-16h48zm0 0" fill="#2b4a66"/><path d="m176 392c0 8.835938-7.164062 16-16 16s-16-7.164062-16-16 7.164062-16 16-16 16 7.164062 16 16zm0 0" fill="#edc17c"/><path d="m360 88c0 22.089844-17.910156 40-40 40s-40-17.910156-40-40 17.910156-40 40-40 40 17.910156 40 40zm0 0" fill="#f4a422"/><path d="m8 192h304v120h-304zm0 0" fill="#5da364"/><path d="m8 304h304v16h-304zm0 0" fill="#538457"/><path d="m8 264h304v16h-304zm0 0" fill="#538457"/><path d="m8 224h304v16h-304zm0 0" fill="#538457"/><path d="m48 440v8h224v-8c0-4.800781 3.199219-8 8-8h8v-80h-8c-4.800781 0-8-3.199219-8-8v-8h-224v8c0 4.800781-3.199219 8-8 8h-8v80h8c4.800781 0 8 3.199219 8 8zm0-73.601562c7.199219-2.398438 12-8 14.398438-14.398438h194.402343c2.398438 7.199219 8 12 14.398438 14.398438v50.402343c-7.199219 2.398438-12 8-14.398438 14.398438h-194.402343c-2.398438-7.199219-8-12-14.398438-14.398438zm0 0"/><path d="m200 384h48v16h-48zm0 0"/><path d="m72 384h48v16h-48zm0 0"/><path d="m48 144h60.800781l27.199219 27.199219 27.199219-27.199219h60.800781c13.601562 0 24-10.398438 24-24v-96c0-13.601562-10.398438-24-24-24h-176c-13.601562 0-24 10.398438-24 24v96c0 13.601562 10.398438 24 24 24zm-8-120c0-4.800781 3.199219-8 8-8h176c4.800781 0 8 3.199219 8 8v96c0 4.800781-3.199219 8-8 8h-67.199219l-20.800781 20.800781-20.800781-20.800781h-67.199219c-4.800781 0-8-3.199219-8-8zm0 0"/><path d="m120 75.199219 24 24 40-40v20.800781h16v-48h-48v16h20.800781l-28.800781 28.800781-24-24-53.601562 53.597657 11.203124 11.203124zm0 0"/><path d="m160 416c13.601562 0 24-10.398438 24-24s-10.398438-24-24-24-24 10.398438-24 24 10.398438 24 24 24zm0-32c4.800781 0 8 3.199219 8 8s-3.199219 8-8 8-8-3.199219-8-8 3.199219-8 8-8zm0 0"/><path d="m320 136c13.601562 0 26.398438-5.601562 36-16h4c8.800781 0 16.800781-2.398438 24-6.398438 7.199219 4 15.199219 6.398438 24 6.398438 26.398438 0 48-21.601562 48-48s-21.601562-48-48-48c-8.800781 0-16.800781 2.398438-24 6.398438-20-11.199219-44.800781-7.199219-60 9.601562-1.601562 0-2.398438 0-4 0-26.398438 0-48 21.601562-48 48s21.601562 48 48 48zm120-64c0 17.601562-14.398438 32-32 32-4 0-7.199219-.800781-11.199219-1.601562 14.398438-17.597657 14.398438-42.398438 0-60 16.800781-5.597657 35.199219 2.402343 40.800781 19.203124 1.597657 3.199219 2.398438 6.398438 2.398438 10.398438zm-80-32c17.601562 0 32 14.398438 32 32 0 15.199219-11.199219 28.800781-26.398438 31.199219 8-22.398438-2.402343-47.199219-23.203124-57.597657 4.800781-4 11.203124-5.601562 17.601562-5.601562zm-40 16c17.601562 0 32 14.398438 32 32s-14.398438 32-32 32-32-14.398438-32-32 14.398438-32 32-32zm0 0"/><path d="m456 152h-152c-13.601562 0-24 10.398438-24 24v8h-280v296h320v-256h144v200c0 4.800781-3.199219 8-8 8h-120v16h120c13.601562 0 24-10.398438 24-24v-248c0-13.601562-10.398438-24-24-24zm-152 48v24h-288v-24zm0 64h-288v-24h288zm0 200h-288v-144h288zm-288-160v-24h288v24zm304-96v-24h-24v-8c0-4.800781 3.199219-8 8-8h152c4.800781 0 8 3.199219 8 8v32zm0 0"/><path d="m360 288c13.601562 0 24-10.398438 24-24s-10.398438-24-24-24-24 10.398438-24 24 10.398438 24 24 24zm0-32c4.800781 0 8 3.199219 8 8s-3.199219 8-8 8-8-3.199219-8-8 3.199219-8 8-8zm0 0"/><path d="m424 288c13.601562 0 24-10.398438 24-24s-10.398438-24-24-24-24 10.398438-24 24 10.398438 24 24 24zm0-32c4.800781 0 8 3.199219 8 8s-3.199219 8-8 8-8-3.199219-8-8 3.199219-8 8-8zm0 0"/><path d="m360 352c13.601562 0 24-10.398438 24-24s-10.398438-24-24-24-24 10.398438-24 24 10.398438 24 24 24zm0-32c4.800781 0 8 3.199219 8 8s-3.199219 8-8 8-8-3.199219-8-8 3.199219-8 8-8zm0 0"/><path d="m424 352c13.601562 0 24-10.398438 24-24s-10.398438-24-24-24-24 10.398438-24 24 10.398438 24 24 24zm0-32c4.800781 0 8 3.199219 8 8s-3.199219 8-8 8-8-3.199219-8-8 3.199219-8 8-8zm0 0"/><path d="m360 416c13.601562 0 24-10.398438 24-24s-10.398438-24-24-24-24 10.398438-24 24 10.398438 24 24 24zm0-32c4.800781 0 8 3.199219 8 8s-3.199219 8-8 8-8-3.199219-8-8 3.199219-8 8-8zm0 0"/><path d="m424 416c13.601562 0 24-10.398438 24-24s-10.398438-24-24-24-24 10.398438-24 24 10.398438 24 24 24zm0-32c4.800781 0 8 3.199219 8 8s-3.199219 8-8 8-8-3.199219-8-8 3.199219-8 8-8zm0 0"/></svg>