<svg height="512pt" viewBox="-6 0 511 512" width="512pt" xmlns="http://www.w3.org/2000/svg"><g fill-rule="evenodd"><path d="m334.015625 424.390625-93.824219-19.003906-84.832031 19.003906-11.707031 32.816406 96.015625 19.003907 106.082031-19.003907zm0 0" fill="#bdbdbd"/><path d="m491.945312 389.445312-238.878906-19.003906-245.007812 19.003906v8c0 14.832032 11.5 26.945313 25.542968 26.945313h432.769532c14.074218 0 25.574218-12.113281 25.574218-26.945313zm0 0" fill="#eee"/><path d="m345.75 457.207031h-219.960938c-12.992187 0-23.617187 10.625-23.617187 23.617188v17.339843c0 3.476563 2.832031 6.277344 6.277344 6.277344h275.105469c3.445312 0 6.273437-2.800781 6.273437-6.277344v-17.339843c0-12.992188-10.625-23.617188-23.613281-23.617188zm0 0" fill="#eee"/><path d="m325.464844 457.207031c12.988281 0 23.613281 10.625 23.613281 23.617188v17.339843c0 3.476563-2.832031 6.277344-6.273437 6.277344h40.75c3.445312 0 6.277343-2.800781 6.277343-6.277344v-17.339843c0-12.992188-10.628906-23.617188-23.617187-23.617188zm0 0" fill="#bdbdbd"/><path d="m491.945312 389.445312h-58.996093v8c0 14.832032-11.53125 26.945313-25.574219 26.945313h58.996094c14.074218 0 25.574218-12.113281 25.574218-26.945313zm0 0" fill="#bdbdbd"/><path d="m250.089844 61.742188h-216.488282c-14.042968 0-25.542968 12.144531-25.542968 26.945312v300.757812h483.886718v-300.757812c0-14.800781-11.503906-26.945312-25.574218-26.945312zm0 0" fill="#bdbdbd"/><path d="m460.769531 101.417969v250.019531c0 3.617188-2.980469 6.566406-6.570312 6.566406h-21.25v31.441406h58.996093v-300.757812c0-14.800781-11.503906-26.945312-25.574218-26.945312h-58.996094c14.042969 0 25.574219 12.144531 25.574219 26.945312v6.160156h21.25c3.589843 0 6.570312 2.949219 6.570312 6.570313zm0 0" fill="#949191"/><path d="m454.199219 358.003906c3.589843 0 6.570312-2.949218 6.570312-6.566406v-250.019531c0-3.621094-2.980469-6.570313-6.570312-6.570313h-408.398438c-3.617187 0-6.566406 2.949219-6.566406 6.570313v250.019531c0 3.617188 2.949219 6.566406 6.566406 6.566406zm0 0" fill="#bbdefb"/><path d="m432.949219 94.847656v263.15625h21.25c3.589843 0 6.570312-2.949218 6.570312-6.570312v-250.015625c0-3.621094-2.980469-6.570313-6.570312-6.570313zm0 0" fill="#7fbaeb"/><path d="m332.292969 231.855469-85.707031-22.886719-78.351563 22.886719v18.570312c0 1.605469.4375 3.121094 1.195313 4.4375 1.546874 2.683594 4.4375 4.496094 7.738281 4.496094h146.191406c3.300781 0 6.191406-1.8125 7.738281-4.496094.757813-1.316406 1.195313-2.832031 1.195313-4.4375zm0 0" fill="#eee"/><path d="m251.898438 64.925781 80.394531-29.632812v-18.800781c0-1.929688-.613281-3.679688-1.636719-5.140626-1.605469-2.304687-4.289062-3.792968-7.296875-3.792968-48.722656 0-97.472656 0-146.195313 0-4.929687 0-8.929687 4-8.929687 8.933594v18.800781zm0 0" fill="#eee"/><path d="m332.292969 35.292969h-164.058594v196.5625h164.0625c0-57.949219 0-115.929688 0-173.910157v-22.652343zm0 0" fill="#7fbaeb"/><path d="m309.058594 16.492188v18.800781h23.234375v-18.800781c0-1.929688-.613281-3.679688-1.632813-5.140626-1.605468-2.304687-4.292968-3.792968-7.300781-3.792968h-23.265625c4.933594 0 8.964844 4 8.964844 8.933594zm0 0" fill="#bdbdbd"/><path d="m309.058594 35.292969v196.5625h23.234375v-196.5625zm0 0" fill="#5887d9"/><path d="m309.058594 231.855469v18.566406c0 4.90625-4.03125 8.933594-8.964844 8.933594h23.265625c3.300781 0 6.191406-1.808594 7.738281-4.496094.757813-1.3125 1.195313-2.832031 1.195313-4.4375v-18.566406zm0 0" fill="#bdbdbd"/><path d="m310.632812 448.390625 3.269532 8.816406h31.851562l-11.738281-32.8125h-178.65625l-5.835937 16.40625 143.652343.027344c8.175781-.058594 14.070313-.027344 17.457031 7.5625zm0 0" fill="#949191"/></g><path d="m355.398438 172.851562v.003907c.335937.695312.78125 1.347656 1.335937 1.933593l17.390625 18.585938c1.488281 1.589844 3.5 2.394531 5.519531 2.394531 1.851563 0 3.707031-.675781 5.164063-2.039062 3.046875-2.851563 3.207031-7.636719.351562-10.683594l-5.523437-5.90625h18.308593c1.015626 0 1.875.859375 1.875 1.875v93.246094c0 4.171875 3.382813 7.554687 7.554688 7.554687 4.175781 0 7.558594-3.382812 7.558594-7.554687v-93.246094c0-9.367187-7.621094-16.988281-16.988282-16.988281h-18.308593l5.523437-5.90625c2.851563-3.046875 2.695313-7.828125-.355468-10.679688-3.046876-2.851562-7.828126-2.695312-10.679688.355469l-17.390625 18.582031c-.554687.582032-.996094 1.234375-1.332031 1.925782-.5 1.035156-.746094 2.164062-.746094 3.285156 0 1.113281.246094 2.230468.738281 3.257812.003907 0 .003907.003906.003907.003906zm0 0"/><path d="m147.847656 284.777344-16.363281-17.503906c-2.851563-3.046876-7.632813-3.207032-10.683594-.359376-3.046875 2.851563-3.207031 7.636719-.359375 10.683594l4.515625 4.828125h-16.277343c-.699219 0-1.316407-.617187-1.316407-1.320312v-87.929688c0-4.175781-3.382812-7.558593-7.554687-7.558593-4.175782 0-7.558594 3.382812-7.558594 7.558593v87.929688c0 9.0625 7.371094 16.433593 16.433594 16.433593h16.273437l-4.511719 4.828126c-2.851562 3.046874-2.691406 7.828124.359376 10.679687 1.457031 1.363281 3.308593 2.039063 5.160156 2.039063 2.015625 0 4.03125-.804688 5.519531-2.398438l16.363281-17.5c.566406-.59375 1.019532-1.257812 1.351563-1.96875.488281-1.023438.726562-2.128906.726562-3.238281 0-1.105469-.238281-2.210938-.726562-3.234375-.335938-.710938-.785157-1.375-1.351563-1.96875zm0 0"/><path d="m466.371094 54.183594h-126.519532v-37.691406c0-9.09375-7.398437-16.492188-16.492187-16.492188h-146.191406c-9.09375 0-16.492188 7.398438-16.492188 16.492188v37.691406h-127.074219c-18.253906 0-33.101562 15.476562-33.101562 34.503906v308.757812c0 19.027344 14.847656 34.503907 33.101562 34.503907h111.039063l-6.3125 17.699219h-12.539063c-17.1875 0-31.171874 13.988281-31.171874 31.175781v17.339843c0 7.628907 6.203124 13.835938 13.832031 13.835938h275.105469c7.628906 0 13.835937-6.207031 13.835937-13.835938v-17.339843c0-17.1875-13.984375-31.175781-31.171875-31.175781h-15.144531l-6.328125-17.699219h121.628906c18.265625 0 33.128906-15.476563 33.128906-34.503907v-308.757812c0-19.023438-14.863281-34.503906-33.132812-34.503906zm-290.582032 185.230468h148.945313v11.011719c0 .730469-.640625 1.375-1.375 1.375h-146.191406c-.746094 0-1.378907-.628906-1.378907-1.375zm1.378907-224.300781h146.191406c.746094 0 1.378906.632813 1.378906 1.378907v11.242187h-148.949219v-11.242187c0-.761719.617188-1.378907 1.378907-1.378907zm-143.566407 54.1875h127.074219v17.875h-115.515625c-7.5625 0-13.484375 6.253907-13.484375 14.242188v250.019531c0 7.789062 6.335938 14.125 14.125 14.125h184.699219c4.175781 0 7.558594-3.382812 7.558594-7.558594 0-4.171875-3.382813-7.554687-7.558594-7.554687h-183.707031v-248.160157h113.882812v47.707032c0 4.171875 3.382813 7.554687 7.558594 7.554687 4.171875 0 7.554687-3.382812 7.554687-7.554687v-107.148438h148.945313v181.453125h-148.945313v-42.074219c0-4.175781-3.382812-7.558593-7.554687-7.558593-4.175781 0-7.558594 3.382812-7.558594 7.558593v68.199219c0 9.089844 7.398438 16.488281 16.492188 16.488281h146.191406c9.09375 0 16.492187-7.398437 16.492187-16.488281v-148.128906l113.359376.109375v248.042969l-186.902344.289062c-4.175782.007813-7.550782 3.398438-7.546875 7.570313.007812 4.171875 3.386719 7.546875 7.558593 7.546875h.011719l187.867188-.292969c7.789062 0 14.125-6.335938 14.125-14.125v-250.019531c0-7.789063-6.335938-14.128907-14.117188-14.128907l-114.355469-.109374v-17.878907h126.519532c9.933594 0 18.015625 8.695313 18.015625 19.386719v293.203125h-468.773438v-293.203125c0-10.691406 8.070313-19.386719 17.988281-19.386719zm348.671876 411.523438v16.0625h-272.542969v-16.0625c0-8.855469 7.203125-16.058594 16.058593-16.058594h17.820313.042969.027344 202.046874.023438.046875 20.417969c8.855468 0 16.058594 7.203125 16.058594 16.058594zm-47.25-31.175781h-180.648438l6.3125-17.699219h168.003906zm131.347656-32.8125h-432.769532c-9.917968 0-17.988281-8.699219-17.988281-19.390626v-.441406h468.773438v.441406c0 10.691407-8.082031 19.390626-18.015625 19.390626zm0 0"/></svg>