<svg height="472pt" viewBox="0 -8 472.00092 472" width="472pt" xmlns="http://www.w3.org/2000/svg"><path d="m408 240c.0625 27.8125-6.519531 55.242188-19.199219 80-12.996093 25.574219-32.09375 47.554688-55.601562 64h-202.398438c-3.679687-2.5625-7.28125-5.28125-10.800781-8.160156-8.722656-7.273438-16.757812-15.332032-24-24.082032-25.839844-31.515624-39.972656-71.003906-40-111.757812 0-97.203125 78.796875-176 176-176s176 78.796875 176 176zm0 0" fill="#00ccb3"/><path d="m311.199219 160.796875c-37.761719-37.75-96.933594-43.570313-141.328125-13.898437-44.398438 29.667968-61.65625 86.5625-41.226563 135.894531 20.433594 49.335937 72.863281 77.367187 125.238281 66.960937 52.371094-10.40625 90.101563-56.359375 90.117188-109.753906.007812-29.707031-11.792969-58.199219-32.800781-79.203125zm0 0" fill="#ffd422"/><path d="m464 48-40 40h-40v-40l40-40v40zm0 0" fill="#ff5023"/><path d="m265.921875 206.078125c9.042969 8.964844 14.117187 21.183594 14.078125 33.921875 0 26.507812-21.492188 48-48 48s-48-21.492188-48-48c0-26.511719 21.492188-48 48-48 12.734375-.039062 24.957031 5.03125 33.921875 14.078125zm0 0" fill="#ff5023"/><g fill="#e6e7e8"><path d="m104 384v64h-24v-64zm0 0"/><path d="m120 375.839844v8.160156h-24v-32.242188c7.242188 8.75 15.277344 16.808594 24 24.082032zm0 0"/><path d="m120 375.839844c-8.722656-7.273438-16.757812-15.332032-24-24.082032v-31.757812h24zm0 0"/></g><path d="m400 416c-1.007812-12.808594 5.148438-25.125 16-32h-312v64h312c-10.851562-6.878906-17.007812-19.195312-16-32zm0 0" fill="#5aaae7"/><path d="m80 384v64h-16c-17.671875 0-32-14.328125-32-32 0-17.675781 14.328125-32 32-32zm0 0" fill="#3d9ae2"/><path d="m120 375.839844c3.519531 2.878906 7.121094 5.597656 10.800781 8.160156h-10.800781zm0 0" fill="#ff6243"/><path d="m416 352c-1.007812-12.808594 5.148438-25.125 16-32h-312v55.839844c3.519531 2.878906 7.121094 5.597656 10.800781 8.160156h301.199219c-10.851562-6.878906-17.007812-19.195312-16-32zm0 0" fill="#ff6243"/><path d="m96 351.757812v32.242188h-16c-16.824219.085938-30.832031-12.886719-32.035156-29.667969s10.8125-31.621093 27.476562-33.933593c5.699219 11.164062 12.59375 21.679687 20.558594 31.359374zm0 0" fill="#ff5023"/><path d="m96 320v31.757812c-7.964844-9.679687-14.859375-20.195312-20.558594-31.359374 1.5-.292969 3.027344-.425782 4.558594-.398438zm0 0" fill="#ff5023"/><path d="m471.390625 44.933594c-1.238281-2.988282-4.15625-4.9375-7.390625-4.933594h-32v-32c0-3.238281-1.949219-6.152344-4.9375-7.390625s-6.429688-.5546875-8.71875 1.734375l-40 40c-1.5 1.5-2.34375 3.535156-2.34375 5.65625v36.6875l-19.742188 19.742188c-61.855468-56.640626-154.1875-64.28125-224.515624-18.585938-70.328126 45.695312-100.855469 133.167969-74.230469 212.699219l15.199219-5.089844c-24.421876-72.480469 3.257812-152.304687 67.304687-194.109375 64.050781-41.804688 148.265625-35.007812 204.785156 16.527344l-33.929687 33.925781c-44.15625-38.585937-109.738282-39.582031-155.046875-2.355469-45.308594 37.222656-57.054688 101.753906-27.769531 152.558594l13.855468-8c-25.386718-43.867188-15.429687-99.648438 23.566406-132.019531 38.996094-32.371094 95.65625-31.890625 134.097657 1.136719l-34.101563 34.082031c-23.613281-17.671875-56.867187-14.09375-76.179687 8.199219-19.3125 22.289062-18.121094 55.714843 2.734375 76.570312 20.855468 20.855469 54.28125 22.050781 76.574218 2.738281 22.289063-19.3125 25.871094-52.566406 8.199219-76.179687l34.101563-34.105469c29.210937 33.949219 33.34375 82.804687 10.25 121.175781l13.695312 8.25c26.894532-44.65625 21.777344-101.585937-12.648437-140.730468l33.929687-33.917969c41.054688 44.921875 54.527344 108.566406 35.199219 166.273437l15.199219 5.085938c21.242187-63.476563 6.339844-133.480469-38.917969-182.800782l19.703125-19.757812h36.6875c2.121094 0 4.15625-.84375 5.65625-2.34375l40-40c2.289062-2.289062 2.972656-5.730469 1.734375-8.722656zm-199.390625 195.066406c.054688 18.394531-12.410156 34.472656-30.242188 39.003906-17.832031 4.527344-36.457031-3.648437-45.191406-19.84375-8.730468-16.191406-5.332031-36.25 8.25-48.660156 13.582032-12.410156 33.867188-13.992188 49.207032-3.835938l-27.679688 27.679688 11.3125 11.3125 27.679688-27.679688c4.34375 6.523438 6.664062 14.183594 6.664062 22.023438zm148.6875-160h-28.6875v-28.6875l24-24v20.6875c0 4.417969 3.582031 8 8 8h20.6875zm0 0"/><path d="m224 8h16v16h-16zm0 0"/><path d="m261.628906 25.890625 2.78125-15.753906 15.757813 2.78125-2.78125 15.753906zm0 0"/><path d="m298.367188 34.289062 5.472656-15.035156 15.027344 5.46875-5.46875 15.035156zm0 0"/><path d="m333.078125 48.941406 8-13.847656 13.847656 7.996094-8 13.847656zm0 0"/><path d="m415.0625 125.0625 13.859375-8 7.996094 13.859375-13.855469 8zm0 0"/><path d="m432.230469 158.605469 15.035156-5.476563 5.476563 15.035156-15.03125 5.476563zm0 0"/><path d="m443.332031 194.621094 15.753907-2.785156 2.78125 15.75-15.753907 2.78125zm0 0"/><path d="m448 232h16v16h-16zm0 0"/><path d="m443.328125 285.386719 2.777344-15.746094 15.757812 2.78125-2.78125 15.746094zm0 0"/><path d="m2.125 272.417969 15.757812-2.78125 2.78125 15.746093-15.757812 2.785157zm0 0"/><path d="m0 232h16v16h-16zm0 0"/><path d="m2.136719 207.582031 2.777343-15.75 15.757813 2.78125-2.78125 15.75zm0 0"/><path d="m11.253906 168.160156 5.476563-15.035156 15.035156 5.476562-5.476563 15.03125zm0 0"/><path d="m27.078125 130.929688 8-13.859376 13.855469 8.003907-8 13.855469zm0 0"/><path d="m49.132812 97.007812 10.285157-12.261718 12.261719 10.28125-10.289063 12.265625zm0 0"/><path d="m76.742188 67.425781 12.257812-10.289062 10.28125 12.25-12.257812 10.289062zm0 0"/><path d="m109.074219 43.089844 13.847656-8 8 13.851562-13.847656 7.996094zm0 0"/><path d="m145.140625 24.730469 15.027344-5.472657 5.476562 15.035157-15.027343 5.472656zm0 0"/><path d="m183.835938 12.90625 15.757812-2.777344 2.777344 15.757813-15.757813 2.777343zm0 0"/><path d="m435.574219 327.199219c3.375-1.632813 5.160156-5.386719 4.304687-9.03125-.859375-3.648438-4.132812-6.210938-7.878906-6.167969h-352c-15.785156-.070312-30.117188 9.191406-36.546875 23.605469-6.425781 14.414062-3.734375 31.265625 6.867187 42.960937-18.230468 6.613282-29.066406 25.371094-25.695312 44.464844 3.375 19.09375 19.984375 33 39.375 32.96875h352c3.65625-.015625 6.832031-2.519531 7.695312-6.074219.878907-3.570312-.765624-7.28125-4-9.03125-8.125-5.5625-12.597656-15.089843-11.695312-24.894531-.691406-9.210938 3.171875-18.175781 10.335938-24h13.664062c3.65625-.015625 6.832031-2.519531 7.695312-6.074219.878907-3.570312-.765624-7.28125-4-9.03125-8.125-5.5625-12.597656-15.089843-11.695312-24.894531-.882812-9.75 3.535156-19.21875 11.574219-24.800781zm-21.8125 48.800781h-285.761719v-16h264v-16h-264v-16h285.761719c-7.683594 15.078125-7.683594 32.921875 0 48zm-317.761719 64h-8v-48h8zm16-64h-8v-48h8zm-32-48h8v48h-8c-13.253906 0-24-10.746094-24-24 0-13.257812 10.746094-24 24-24zm-40 88c0-13.257812 10.746094-24 24-24h8v48h-8c-13.253906 0-24-10.746094-24-24zm357.761719 24h-285.761719v-16h264v-16h-264v-16h285.761719c-7.683594 15.078125-7.683594 32.921875 0 48zm0 0"/></svg>