<?xml version="1.0"?>
<svg xmlns="http://www.w3.org/2000/svg" viewBox="0 0 64 64" width="512" height="512"><g fill="#717577"><path d="m31.40039 2.2002-4 3 1.19922 1.5996 2.40039-1.79992v9.00012h2v-9.00012l2.40039 1.79992 1.19922-1.5996-4-3a.999.999 0 0 0 -1.19922 0z"/><path d="m33 59.00012v-9.00012h-2v9.00012l-2.40039-1.79992-1.19922 1.5996 4 3a.998.998 0 0 0 1.19922 0l4-3-1.19922-1.5996z"/><path d="m61.7998 31.3999-3-4-1.5996 1.2002 1.79986 2.3999h-9.00006v2h9.00006l-1.79986 2.3999 1.5996 1.2002 3-4a1.00047 1.00047 0 0 0 0-1.2002z"/><path d="m14 33v-2h-9.00006l1.79986-2.3999-1.5996-1.2002-3 4a1.00047 1.00047 0 0 0 0 1.2002l3 4 1.5996-1.2002-1.79986-2.3999z"/></g><path d="m45.43457 19.979 6.36414-6.3637.42395 2.97015 1.98047-.2832-.707-4.94971a1.00058 1.00058 0 0 0 -.84863-.84815l-4.94922-.70751-.2832 1.97949 2.96979.42462-6.36432 6.364z" fill="#5ddcf9"/><path d="m18.56543 44.021-6.36414 6.3637-.42395-2.97015-1.98046.2832.707 4.94971a1.00058 1.00058 0 0 0 .84863.84815l4.94922.70752.2832-1.9795-2.96976-.42463 6.36432-6.364z" fill="#5ddcf9"/><path d="m51.79871 50.3847-6.36414-6.3637-1.41406 1.41406 6.36432 6.364-2.96979.42462.2832 1.9795 4.94922-.70752a1.00058 1.00058 0 0 0 .84863-.84815l.707-4.94971-1.98047-.2832z" fill="#5ddcf9"/><path d="m16.585 11.77637-.2832-1.97949-4.94922.70751a1.00058 1.00058 0 0 0 -.84863.84815l-.707 4.94971 1.98046.2832.42395-2.97015 6.36414 6.3637 1.41406-1.41406-6.36432-6.364z" fill="#5ddcf9"/><circle cx="32" cy="32" fill="#43ef80" r="20"/><circle cx="32" cy="32" fill="#fffa4d" r="10"/><path d="m32.00977 43h-.00977a10.94209 10.94209 0 0 1 -4.19824-.82959l.76367-1.84863a8.94206 8.94206 0 0 0 3.43457.67822zm4.209-.83838-.76758-1.84668a8.97954 8.97954 0 0 0 2.917-1.9541l1.41407 1.41309a10.9485 10.9485 0 0 1 -3.56351 2.38769zm-11.98537-2.37207a10.95217 10.95217 0 0 1 -2.39063-3.56055l1.84571-.76953a8.9653 8.9653 0 0 0 1.957 2.91407zm17.9326-3.58155-1.84766-.76563a8.94754 8.94754 0 0 0 .68166-3.44237l2-.041v.041a10.92925 10.92925 0 0 1 -.834 4.208zm-21.166-4.18749v-.02051a10.9275 10.9275 0 0 1 .8252-4.187l1.8496.76172a8.93453 8.93453 0 0 0 -.6748 3.42528zm19.30469-3.49658a8.96883 8.96883 0 0 0 -1.96387-2.91016l1.41018-1.41895a10.95679 10.95679 0 0 1 2.39746 3.55567zm-14.68457-2.87159-1.418-1.41015a10.9591 10.9591 0 0 1 3.55859-2.395l.77149 1.8457a8.95371 8.95371 0 0 0 -2.91208 1.95945zm9.79688-1.98144a8.94638 8.94638 0 0 0 -3.417-.6709l-.03027-2h.03027a10.93524 10.93524 0 0 1 4.17676.82129z" fill="#717577"/><circle cx="32" cy="32" fill="#f4393d" r="4"/></svg>
