<svg height="472pt" viewBox="0 -108 472 472" width="472pt" xmlns="http://www.w3.org/2000/svg"><path d="m276 152h-12v-56h12c15.464844 0 28 12.535156 28 28s-12.535156 28-28 28zm0 0" fill="#e85244"/><path d="m104 256h-40l-8-88v-8h48zm0 0" fill="#6b9777"/><path d="m48 72h72v96h-72zm0 0" fill="#85bc94"/><path d="m272 248-16.296875-13.03125c-41.859375-33.492188-91.136719-56.457031-143.703125-66.96875v-96l25.601562-6.398438c36.015626-9.007812 70.285157-23.929687 101.414063-44.160156l32.984375-21.441406zm0 0" fill="#eaeae8"/><path d="m56 168h-16c-22.089844 0-40-17.910156-40-40v-16c0-22.089844 17.910156-40 40-40h16zm0 0" fill="#eaeae8"/><path d="m80 192h24v16h-24zm0 0" fill="#85bc94"/><path d="m80 216h24v16h-24zm0 0" fill="#85bc94"/><g fill="#fbb540"><path d="m336 128c-4.417969 0-8-3.582031-8-8v-72c0-4.417969 3.582031-8 8-8s8 3.582031 8 8v72c0 4.417969-3.582031 8-8 8zm0 0"/><path d="m368 176c-4.417969 0-8-3.582031-8-8v-72c0-4.417969 3.582031-8 8-8s8 3.582031 8 8v72c0 4.417969-3.582031 8-8 8zm0 0"/><path d="m400 112c-4.417969 0-8-3.582031-8-8v-80c0-4.417969 3.582031-8 8-8s8 3.582031 8 8v80c0 4.417969-3.582031 8-8 8zm0 0"/><path d="m432 192c-4.417969 0-8-3.582031-8-8v-88c0-4.417969 3.582031-8 8-8s8 3.582031 8 8v88c0 4.417969-3.582031 8-8 8zm0 0"/><path d="m464 96c-4.417969 0-8-3.582031-8-8v-80c0-4.417969 3.582031-8 8-8s8 3.582031 8 8v80c0 4.417969-3.582031 8-8 8zm0 0"/></g><path d="m56 128h32v16h-32zm0 0" fill="#6b9777"/><path d="m56 96h32v16h-32zm0 0" fill="#6b9777"/><path d="m216 176c-1.238281.011719-2.460938-.261719-3.574219-.800781l-2.496093-1.253907c-9.347657-4.667968-18.933594-8.835937-28.722657-12.488281-2.734375-.957031-4.742187-3.320312-5.242187-6.175781s.585937-5.757812 2.835937-7.585938c2.25-1.828124 5.3125-2.296874 8.007813-1.222656 10.320312 3.84375 20.425781 8.238282 30.28125 13.160156l2.503906 1.246094c3.277344 1.679688 4.984375 5.386719 4.132812 8.96875-.851562 3.585938-4.042968 6.125-7.726562 6.152344zm0 0" fill="#f9f9f9"/><path d="m160 154.121094c-.726562-.003906-1.453125-.101563-2.152344-.296875-2.589844-.71875-5.183594-1.410157-7.800781-2.0625-4.285156-1.078125-6.886719-5.429688-5.808594-9.714844s5.429688-6.886719 9.714844-5.808594c2.734375.691407 5.480469 1.410157 8.199219 2.175781 3.847656 1.078126 6.3125 4.832032 5.769531 8.792969-.542969 3.960938-3.925781 6.910157-7.921875 6.914063zm0 0" fill="#f9f9f9"/><path d="m336 168c-4.417969 0-8-3.582031-8-8v-8c0-4.417969 3.582031-8 8-8s8 3.582031 8 8v8c0 4.417969-3.582031 8-8 8zm0 0" fill="#e4a541"/><path d="m368 72c-4.417969 0-8-3.582031-8-8v-8c0-4.417969 3.582031-8 8-8s8 3.582031 8 8v8c0 4.417969-3.582031 8-8 8zm0 0" fill="#e4a541"/><path d="m432 72c-4.417969 0-8-3.582031-8-8v-8c0-4.417969 3.582031-8 8-8s8 3.582031 8 8v8c0 4.417969-3.582031 8-8 8zm0 0" fill="#e4a541"/><path d="m400 152c-4.417969 0-8-3.582031-8-8v-8c0-4.417969 3.582031-8 8-8s8 3.582031 8 8v8c0 4.417969-3.582031 8-8 8zm0 0" fill="#e4a541"/><path d="m464 144c-4.417969 0-8-3.582031-8-8v-16c0-4.417969 3.582031-8 8-8s8 3.582031 8 8v16c0 4.417969-3.582031 8-8 8zm0 0" fill="#e4a541"/><path d="m57.457031 184h46.542969v-16h-48zm0 0" fill="#5e8569"/></svg>