<svg height="464pt" viewBox="0 0 464 464" width="464pt" xmlns="http://www.w3.org/2000/svg"><g fill="#a8d6da"><path d="m368 224h-64v-16h56v-24c0-4.417969 3.582031-8 8-8h40v16h-32v24c0 4.417969-3.582031 8-8 8zm0 0"/><path d="m304 240h104v16h-104zm0 0"/><path d="m96 280h-40v-16h32v-24c0-4.417969 3.582031-8 8-8h72v16h-64v24c0 4.417969-3.582031 8-8 8zm0 0"/><path d="m56 200h112v16h-112zm0 0"/><path d="m64 208c0 8.835938-7.164062 16-16 16s-16-7.164062-16-16 7.164062-16 16-16 16 7.164062 16 16zm0 0"/><path d="m64 272c0 8.835938-7.164062 16-16 16s-16-7.164062-16-16 7.164062-16 16-16 16 7.164062 16 16zm0 0"/><path d="m432 184c0 8.835938-7.164062 16-16 16s-16-7.164062-16-16 7.164062-16 16-16 16 7.164062 16 16zm0 0"/><path d="m432 248c0 8.835938-7.164062 16-16 16s-16-7.164062-16-16 7.164062-16 16-16 16 7.164062 16 16zm0 0"/></g><path d="m272 160 48-24h80c35.347656 0 64-28.652344 64-64v-8c0-35.347656-28.652344-64-64-64h-64c-35.347656 0-64 28.652344-64 64zm0 0" fill="#fbedbf"/><path d="m272 304 48 24h80c35.347656 0 64 28.652344 64 64v8c0 35.347656-28.652344 64-64 64h-64c-35.347656 0-64-28.652344-64-64zm0 0" fill="#fbedbf"/><path d="m192 160-48-24h-80c-35.347656 0-64-28.652344-64-64v-8c0-35.347656 28.652344-64 64-64h64c35.347656 0 64 28.652344 64 64zm0 0" fill="#fbedbf"/><path d="m192 304-48 24h-80c-35.347656 0-64 28.652344-64 64v8c0 35.347656 28.652344 64 64 64h64c35.347656 0 64-28.652344 64-64zm0 0" fill="#fbedbf"/><path d="m38.257812 395.0625-12.515624-9.984375c16.648437-20.917969 41.929687-33.109375 68.664062-33.109375 26.738281 0 52.015625 12.191406 68.664062 33.109375l-12.496093 9.992187c-13.609375-17.121093-34.285157-27.097656-56.160157-27.097656-21.871093 0-42.546874 9.976563-56.15625 27.097656zm0 0" fill="#85bc94"/><path d="m63.199219 415.03125-12.496094-9.984375c10.601563-13.308594 26.6875-21.0625 43.699219-21.0625 17.015625 0 33.101562 7.753906 43.703125 21.0625l-12.503907 9.976563c-7.5625-9.507813-19.050781-15.050782-31.203124-15.050782-12.148438 0-23.636719 5.542969-31.199219 15.050782zm0 0" fill="#85bc94"/><path d="m63.199219 415.03125-12.496094-9.984375c10.601563-13.308594 26.6875-21.0625 43.699219-21.0625 17.015625 0 33.101562 7.753906 43.703125 21.0625l-12.503907 9.976563c-7.5625-9.507813-19.050781-15.050782-31.203124-15.050782-12.148438 0-23.636719 5.542969-31.199219 15.050782zm0 0" fill="#85bc94"/><path d="m88.214844 435.039062-12.496094-9.984374c7.578125-9.527344 21.101562-11.851563 31.425781-5.398438 2.277344 1.4375 4.285157 3.261719 5.945313 5.382812l-12.488282 9.992188c-.546874-.710938-1.210937-1.328125-1.960937-1.824219-3.433594-2.128906-7.921875-1.339843-10.425781 1.832031zm0 0" fill="#85bc94"/><path d="m352 32v72l56-40zm0 0" fill="#f55648"/><path d="m88 64h16v16h-16zm0 0" fill="#4799cf"/><path d="m56 64h16v16h-16zm0 0" fill="#4799cf"/><path d="m120 64h16v16h-16zm0 0" fill="#4799cf"/><path d="m312 232c0 44.183594-35.816406 80-80 80s-80-35.816406-80-80 35.816406-80 80-80 80 35.816406 80 80zm0 0" fill="#f7ba61"/><path d="m232 216c-2.675781 0-5.171875-1.335938-6.65625-3.558594l-16-24c-2.453125-3.675781-1.460938-8.644531 2.214844-11.097656 3.675781-2.453125 8.644531-1.460938 11.097656 2.214844l9.34375 14.042968 9.34375-14.015624c2.453125-3.679688 7.421875-4.671876 11.097656-2.21875 3.675782 2.453124 4.667969 7.421874 2.214844 11.097656l-16 24c-1.488281 2.214844-3.988281 3.539062-6.65625 3.535156zm0 0" fill="#dc4d41"/><path d="m320 360h96v72h-96zm0 0" fill="#ea9d2d"/><path d="m320 360 48 40 48-40zm0 0" fill="#fbb540"/><path d="m200 208h64v64h-64zm0 0" fill="#d9d9d9"/><path d="m200 232h64v16h-64zm0 0" fill="#e24f42"/><path d="m224 208h16v64h-16zm0 0" fill="#f55648"/></svg>