<svg height="424pt" viewBox="-42 0 424 424.00004" width="424pt" xmlns="http://www.w3.org/2000/svg"><path d="m217.886719 280h-96v-80l16.015625-8h64l15.984375 8zm0 0" fill="#428dc5"/><path d="m153.886719 232h32v40h-32zm0 0" fill="#277baa"/><path d="m169.886719 152-64 48h128zm0 0" fill="#277baa"/><path d="m249.886719 344c0 44.183594-35.816407 80-80 80-44.179688 0-80-35.816406-80-80s35.820312-80 80-80c44.183593 0 80 35.816406 80 80zm0 0" fill="#c0f5f9"/><path d="m185.902344 296c-8.835938 0-16 7.164062-16 16s7.164062 16 16 16h-12c-11.042969 0-20 8.953125-20 20s8.957031 20 20 20h72.328125c7.734375-24.597656 3.101562-51.417969-12.429688-72zm0 0" fill="#6b9777"/><path d="m105.902344 360c8.839844 0 16-7.164062 16-16s-7.160156-16-16-16h-14.398438c-2.144531 10.558594-2.144531 21.441406 0 32zm0 0" fill="#5e8569"/><path d="m151.886719 400h-37.984375v1.089844c14.929687 14.699218 35.050781 22.929687 56 22.910156v-6c0-9.949219-8.066406-18.007812-18.015625-18zm0 0" fill="#6b9777"/><g fill="#fbb540"><path d="m209.886719 72-40 48-40-48h24v-72h32v72zm0 0"/><path d="m295.871094 144.574219-61.96875 8 3.3125-62.398438 17.59375 16.320313 27.199218-29.328125 55.800782-3.480469 2 33.878906-45.175782 2.664063-16.359374 18.027343zm0 0"/><path d="m43.9375 144.574219 61.964844 8-3.308594-62.398438-17.59375 16.320313-27.199219-29.328125-55.800781-3.480469-2 33.878906 45.175781 2.664063 16.359375 18.027343zm0 0"/></g></svg>