<svg height="512pt" viewBox="0 0 512 512" width="512pt" xmlns="http://www.w3.org/2000/svg"><path d="m56 8h448v96h-448zm0 0" fill="#cfd8dc"/><path d="m56 8h448v64h-448zm0 0" fill="#9fa8da"/><path d="m8 104h496v400h-496zm0 0" fill="#cfd8dc"/><path d="m8 104h496v64h-496zm0 0" fill="#9fa8da"/><path d="m283.246094 405.894531-19.695313 19.707031c-33.023437 33.09375-80.425781 47.445313-126.261719 38.230469l-20.921874-4.183593-4.183594-20.921876c-9.226563-45.835937 5.121094-93.25 38.214844-126.277343l19.691406-19.695313zm0 0" fill="#ffe082"/><path d="m192.734375 315.382812-19.695313 19.695313c-25.484374 25.484375-36.546874 62.019531-29.480468 97.363281 35.34375 7.066406 71.878906-3.996094 97.363281-29.480468l19.695313-19.695313zm0 0" fill="#ff7043"/><path d="m286.070312 414.398438 83.648438-83.671876c50.886719-50.886718 76.25-121.925781 69.089844-193.535156-71.609375-7.160156-142.648438 18.203125-193.535156 69.089844l-83.671876 83.648438zm0 0" fill="#ff8a65"/><path d="m357.671875 250.328125c0 17.671875-14.328125 32-32 32s-32-14.328125-32-32 14.328125-32 32-32 32 14.328125 32 32zm0 0" fill="#fff"/><path d="m294.992188 463.28125-8.921876-48.90625 62.226563-62.222656 3.457031 54.367187zm0 0" fill="#ffe082"/><path d="m113.976562 282.265625 47.648438 7.664063 62.222656-62.226563-53.113281-2.199219zm0 0" fill="#ffe082"/><path d="m438.808594 137.191406c-40.152344-4-80.664063 2.195313-117.785156 18.007813l99.777343 99.777343c15.8125-37.121093 22.007813-77.632812 18.007813-117.785156zm0 0" fill="#ffe082"/><path d="m269.101562 284.269531 22.625 22.628907-79.195312 79.195312-22.628906-22.628906zm0 0" fill="#ffe082"/><g fill="#fff"><path d="m208 32h272v16h-272zm0 0"/><path d="m80 32h16v16h-16zm0 0"/><path d="m112 32h16v16h-16zm0 0"/><path d="m144 32h16v16h-16zm0 0"/><path d="m160 128h136v16h-136zm0 0"/><path d="m32 128h16v16h-16zm0 0"/><path d="m64 128h16v16h-16zm0 0"/><path d="m96 128h16v16h-16zm0 0"/><path d="m206.878906 278.613281 11.3125-11.3125 11.316406 11.3125-11.316406 11.316407zm0 0"/><path d="m286.070312 357.808594 11.3125-11.316406 11.316407 11.308593-11.308594 11.316407zm0 0"/><path d="m32 192h16v112h-16zm0 0"/><path d="m64 192h16v80h-16zm0 0"/><path d="m96 192h16v48h-16zm0 0"/><path d="m464 368h16v112h-16zm0 0"/><path d="m432 400h16v80h-16zm0 0"/><path d="m400 432h16v48h-16zm0 0"/></g><path d="m48 0v96h-48v416h512v-512zm448 496h-480v-320h252.375c-10.195312 7.46875-19.808594 15.703125-28.757812 24.625l-18.945313 18.941406-53.113281-2.207031-70.3125 70.3125 57.402344 9.230469-9.847657 9.890625c-34.992187 34.914062-50.167969 85.035156-40.425781 133.496093l5.226562 26.109376 26.152344 5.234374c48.4375 9.726563 98.53125-5.4375 133.445313-40.394531l10-9.980469 10.664062 58.46875 70.136719-70.125-3.457031-54.402343 18.871093-18.871094c42.902344-42.78125 68.570313-99.847656 72.121094-160.328125h48.464844zm-84.664062-239.199219c-11.523438 25.410157-27.535157 48.539063-47.265626 68.269531l-78 77.992188-39.597656-39.597656 56.566406-56.570313-33.933593-33.933593-56.578125 56.566406-39.589844-39.597656 77.992188-77.992188c19.730468-19.738281 42.855468-35.757812 68.269531-47.289062zm-76.136719-98.753906c30.753906-11.246094 63.542969-15.835937 96.199219-13.460937 2.367187 32.660156-2.222657 65.453124-13.460938 96.214843zm8.328125 245.367187-43.414063 43.417969-5.441406-29.761719 46.753906-46.742187zm-176.246094-96.519531 11.3125 11.3125-11.203125 11.199219c-27.410156 27.355469-39.300781 66.621094-31.664063 104.585938l1.050782 5.222656 5.222656 1.050781c37.964844 7.625 77.226562-4.261719 104.585938-31.664063l11.199218-11.203124 11.3125 11.3125-11.203125 11.199218c-31.121093 31.222656-75.816406 44.773438-119.039062 36.089844l-15.65625-3.199219-3.199219-15.65625c-8.695312-43.214843 4.839844-87.910156 36.046875-119.039062zm-36.578125-30.046875 43.199219-43.199218 31.394531 1.296874-46.402344 46.398438zm47.890625 86.617188 33.933594 33.941406 22.671875-22.628906 11.320312 11.320312-11.199219 11.199219c-22.222656 22.273437-53.664062 32.734375-84.800781 28.207031-4.523437-31.136718 5.9375-62.578125 28.207031-84.800781l11.203126-11.199219 11.308593 11.3125zm90.511719-67.878906 11.308593 11.308593-67.886718 67.890625-11.3125-11.320312zm226.894531-135.585938h-48.070312c-.042969-7.839844-.378907-15.710938-1.160157-23.609375l-.648437-6.511719-6.519532-.648437c-50.871093-5.171875-102.089843 5.578125-146.585937 30.769531h-277.015625v-48h480zm0-64h-432v-16h432zm0-32h-432v-48h432zm0 0"/><path d="m291.726562 205.070312-11.3125 11.3125 11.890626 11.890626c-10.476563 15.855468-8.351563 36.894531 5.085937 50.335937 13.441406 13.4375 34.480469 15.5625 50.335937 5.085937l11.882813 11.890626 11.3125-11.3125-11.882813-11.890626c10.476563-15.855468 8.351563-36.894531-5.085937-50.335937-13.441406-13.4375-34.480469-15.5625-50.335937-5.085937zm33.945313 21.257813c9.710937 0 18.460937 5.847656 22.175781 14.816406 3.714844 8.972657 1.660156 19.296875-5.207031 26.160157-9.5 9.054687-24.4375 9.054687-33.9375 0-6.867187-6.863282-8.921875-17.1875-5.207031-26.160157 3.714844-8.96875 12.46875-14.816406 22.175781-14.816406zm0 0"/></svg>