<svg height="496pt" viewBox="0 0 496 496" width="496pt" xmlns="http://www.w3.org/2000/svg"><path d="m488 112c0 32.878906-15.199219 62.160156-39.039062 81.199219l-.960938-1.199219v-24.960938c0-13.757812-8.800781-26-21.921875-30.320312l-26.078125-8.71875v-12.398438c9.519531-5.601562 16-15.761718 16-27.601562v-14.640625c0-16.71875-12.238281-31.597656-28.878906-33.199219-19.042969-1.839844-35.121094 13.121094-35.121094 31.839844v16c0 11.839844 6.480469 22 16 27.601562v12.398438l-26.078125 8.71875c-13.121094 4.320312-21.921875 16.5625-21.921875 30.320312v24.960938l-.960938 1.199219c-23.839843-19.039063-39.039062-48.320313-39.039062-81.199219 0-57.441406 46.558594-104 104-104s104 46.558594 104 104zm0 0" fill="#fcd770"/><path d="m488 384c0 32.878906-15.199219 62.160156-39.039062 81.199219l-.960938-1.199219v-24.960938c0-13.757812-8.800781-26-21.921875-30.320312l-26.078125-8.71875v-12.398438c9.519531-5.601562 16-15.761718 16-27.601562v-14.640625c0-16.71875-12.238281-31.597656-28.878906-33.199219-19.042969-1.839844-35.121094 13.121094-35.121094 31.839844v16c0 11.839844 6.480469 22 16 27.601562v12.398438l-26.078125 8.71875c-13.121094 4.320312-21.921875 16.5625-21.921875 30.320312v24.960938l-.960938 1.199219c-23.839843-19.039063-39.039062-48.320313-39.039062-81.199219 0-28.71875 11.679688-54.71875 30.480469-73.519531s44.800781-30.480469 73.519531-30.480469c57.441406 0 104 46.558594 104 104zm0 0" fill="#ef7385"/><path d="m47.039062 465.199219c-23.839843-19.039063-39.039062-48.320313-39.039062-81.199219 0-57.441406 46.558594-104 104-104s104 46.558594 104 104c0 32.878906-15.199219 62.160156-39.039062 81.199219l-.960938-1.199219v-24.960938c0-13.757812-8.800781-26-21.921875-30.320312l-26.078125-8.71875v-12.398438c9.519531-5.601562 16-15.761718 16-27.601562v-14.640625c0-16.71875-12.238281-31.597656-28.878906-33.199219-19.042969-1.839844-35.121094 13.121094-35.121094 31.839844v16c0 11.839844 6.480469 22 16 27.601562v12.398438l-26.078125 8.71875c-13.121094 4.320312-21.921875 16.5625-21.921875 30.320312v24.960938zm0 0" fill="#e6e9ed"/><g fill="#f0d0b4"><path d="m448 192 .960938 1.199219c-17.761719 14.242187-40.402344 22.800781-64.960938 22.800781s-47.199219-8.558594-64.960938-22.800781l.960938-1.199219v-24.960938c0-13.757812 8.800781-26 21.921875-30.320312l26.078125-8.71875v-12.398438c-9.519531-5.601562-16-15.761718-16-27.601562v-16c0-18.71875 16.078125-33.679688 35.121094-31.839844 16.640625 1.601563 28.878906 16.480469 28.878906 33.199219v14.640625c0 11.839844-6.480469 22-16 27.601562v12.398438l26.078125 8.71875c13.121094 4.320312 21.921875 16.5625 21.921875 30.320312zm0 0"/><path d="m448 464 .960938 1.199219c-17.761719 14.242187-40.402344 22.800781-64.960938 22.800781s-47.199219-8.558594-64.960938-22.800781l.960938-1.199219v-24.960938c0-13.757812 8.800781-26 21.921875-30.320312l26.078125-8.71875v-12.398438c-9.519531-5.601562-16-15.761718-16-27.601562v-16c0-18.71875 16.078125-33.679688 35.121094-31.839844 16.640625 1.601563 28.878906 16.480469 28.878906 33.199219v14.640625c0 11.839844-6.480469 22-16 27.601562v12.398438l26.078125 8.71875c13.121094 4.320312 21.921875 16.5625 21.921875 30.320312zm0 0"/><path d="m176 464 .960938 1.199219c-17.761719 14.242187-40.402344 22.800781-64.960938 22.800781s-47.199219-8.558594-64.960938-22.800781l.960938-1.199219v-24.960938c0-13.757812 8.800781-26 21.921875-30.320312l26.078125-8.71875v-12.398438c-9.519531-5.601562-16-15.761718-16-27.601562v-16c0-18.71875 16.078125-33.679688 35.121094-31.839844 16.640625 1.601563 28.878906 16.480469 28.878906 33.199219v14.640625c0 11.839844-6.480469 22-16 27.601562v12.398438l26.078125 8.71875c13.121094 4.320312 21.921875 16.5625 21.921875 30.320312zm0 0"/></g><path d="m224.558594 79.921875-.078125.078125h-23.519531c-10.882813 0-21.28125 4.320312-28.960938 12s-18.078125 12-28.960938 12h-19.277343c-10.882813 0-19.761719 8.878906-19.761719 19.761719 0 7.519531 4.238281 14.316406 10.960938 17.679687 12.878906 6.480469 21.039062 19.679688 21.039062 34.078125v4.960938c0 7.519531 2.238281 14.878906 6.398438 21.121093l15.761718 23.597657v.082031c-11.921875 4.320312-24.800781 6.71875-38.160156 6.71875-17.921875 0-34.800781-4.238281-49.839844-11.679688l.078125-.082031c7.839844-3.117187 15.441407-7.199219 22.480469-12.238281 7.121094-5.039062 11.28125-13.121094 11.28125-21.839844 0-10.960937-6.71875-20.800781-16.878906-24.878906l-2.722656-1.121094c-12.320313-4.960937-20.398438-16.878906-20.398438-30.160156 0-15.199219-10.558594-28.320312-25.441406-31.679688l-26.957032-6h-.160156c5.039063-19.839843 15.359375-37.519531 29.359375-51.519531l13.597657 13.597657c11.28125 11.28125 26.5625 17.601562 42.480468 17.601562h3.121094c12.960938 0 25.601562-4.238281 36-12s23.039062-12 36-12h33.761719c7.917969 9.441406 14.316406 20.238281 18.796875 31.921875zm0 0" fill="#69d6f4"/><path d="m224.558594 79.921875c4.800781 12.398437 7.441406 25.917969 7.441406 40.078125 0 30.878906-12.558594 58.878906-32.800781 79.199219-11.519531 11.441406-25.4375 20.480469-41.039063 26.082031v-.082031l-15.761718-23.597657c-4.160157-6.242187-6.398438-13.601562-6.398438-21.121093v-4.960938c0-14.398437-8.160156-27.597656-21.039062-34.078125-6.722657-3.363281-10.960938-10.160156-10.960938-17.679687 0-10.882813 8.878906-19.761719 19.761719-19.761719h19.277343c10.882813 0 21.28125-4.320312 28.960938-12s18.078125-12 28.960938-12h23.519531zm0 0" fill="#b4dd7f"/><path d="m104 186.160156c0 8.71875-4.160156 16.800782-11.28125 21.839844-7.039062 5.039062-14.640625 9.121094-22.480469 12.238281l-.078125.082031c-36.878906-18.320312-62.160156-56.398437-62.160156-100.320312 0-9.601562 1.199219-18.878906 3.441406-27.679688h.160156l26.957032 6c14.882812 3.359376 25.441406 16.480469 25.441406 31.679688 0 13.28125 8.078125 25.199219 20.398438 30.160156l2.722656 1.121094c10.160156 4.078125 16.878906 13.917969 16.878906 24.878906zm0 0" fill="#b4dd7f"/><path d="m205.679688 48h-33.679688c-12.960938 0-25.601562 4.238281-36 12s-23.039062 12-36 12h-3.121094c-15.917968 0-31.199218-6.320312-42.480468-17.601562l-13.597657-13.597657c20.320313-20.242187 48.320313-32.800781 79.199219-32.800781 34.398438 0 65.199219 15.519531 85.679688 40zm0 0" fill="#b4dd7f"/><path d="m384 272c-28.007812 0-53.574219 10.398438-73.230469 27.457031l-100.570312-100.570312c18.496093-21.117188 29.800781-48.679688 29.800781-78.886719h32.40625c4.128906 58.023438 52.539062 104 111.59375 104 61.761719 0 112-50.238281 112-112s-50.238281-112-112-112c-59.054688 0-107.464844 45.976562-111.59375 104h-33.597656c-7.863282-58.609375-58.074219-104-118.808594-104-66.167969 0-120 53.832031-120 120 0 60.726562 45.382812 110.945312 104 118.808594v33.597656c-58.023438 4.128906-104 52.539062-104 111.59375 0 61.761719 50.238281 112 112 112s112-50.238281 112-112c0-59.054688-45.976562-107.464844-104-111.59375v-32.40625c30.207031 0 57.769531-11.304688 78.886719-29.800781l100.570312 100.570312c-17.058593 19.65625-27.457031 45.222657-27.457031 73.230469 0 61.761719 50.238281 112 112 112s112-50.238281 112-112-50.238281-112-112-112zm-56-82.183594v-22.753906c0-10.34375 6.59375-19.496094 16.414062-22.765625l31.585938-10.527344v-22.808593l-3.976562-2.3125c-7.527344-4.382813-12.023438-12.105469-12.023438-20.648438v-16c0-6.742188 2.863281-13.222656 7.855469-17.769531 5.054687-4.597657 11.609375-6.78125 18.519531-6.117188 12.128906 1.160157 21.625 12.253907 21.625 25.261719v14.625c0 8.542969-4.496094 16.265625-12.023438 20.648438l-3.976562 2.3125v22.808593l31.585938 10.527344c9.820312 3.269531 16.414062 12.414063 16.414062 22.765625v22.753906c-15.785156 11.390625-35.089844 18.183594-56 18.183594s-40.214844-6.792969-56-18.183594zm56-173.816406c52.9375 0 96 43.0625 96 96 0 24.257812-9.113281 46.367188-24 63.289062v-8.226562c0-17.238281-10.992188-32.496094-27.351562-37.941406l-20.648438-6.890625v-2.398438c9.96875-7.511719 16-19.328125 16-31.832031v-14.625c0-21.167969-15.855469-39.253906-36.105469-41.183594-11.191406-1.054687-22.488281 2.648438-30.804687 10.207032-8.320313 7.5625-13.089844 18.355468-13.089844 29.601562v16c0 12.503906 6.03125 24.328125 16 31.832031v2.398438l-20.648438 6.882812c-16.359374 5.453125-27.351562 20.710938-27.351562 37.949219v8.226562c-14.886719-16.921874-24-39.03125-24-63.289062 0-52.9375 43.0625-96 96-96zm-328 445.816406v-22.753906c0-10.34375 6.59375-19.496094 16.414062-22.773438l31.585938-10.519531v-22.808593l-3.976562-2.3125c-7.527344-4.382813-12.023438-12.105469-12.023438-20.648438v-16c0-6.753906 2.863281-13.222656 7.855469-17.769531 5.066406-4.605469 11.609375-6.75 18.519531-6.125 12.128906 1.160156 21.625 12.261719 21.625 25.269531v14.625c0 8.542969-4.496094 16.265625-12.023438 20.648438l-3.976562 2.3125v22.808593l31.585938 10.519531c9.820312 3.277344 16.414062 12.429688 16.414062 22.773438v22.753906c-15.785156 11.390625-35.089844 18.183594-56 18.183594s-40.214844-6.792969-56-18.183594zm152-77.816406c0 24.257812-9.113281 46.367188-24 63.289062v-8.226562c0-17.238281-10.992188-32.496094-27.351562-37.941406l-20.648438-6.890625v-2.398438c9.96875-7.511719 16-19.328125 16-31.832031v-14.625c0-21.167969-15.855469-39.253906-36.105469-41.183594-11.207031-1.101562-22.480469 2.640625-30.796875 10.199219-8.320312 7.570313-13.097656 18.363281-13.097656 29.609375v16c0 12.503906 6.03125 24.320312 16 31.832031v2.398438l-20.648438 6.882812c-16.359374 5.453125-27.351562 20.710938-27.351562 37.949219v8.226562c-14.886719-16.921874-24-39.03125-24-63.289062 0-52.9375 43.0625-96 96-96s96 43.0625 96 96zm-21.640625-344h-14.359375c-14.617188 0-29.113281 4.832031-40.800781 13.601562-8.941407 6.710938-20.023438 10.398438-31.199219 10.398438h-3.152344c-13.886718 0-26.945312-5.40625-36.757812-15.230469l-7.664063-7.664062c18.191407-15.609375 41.773438-25.105469 67.574219-25.105469 25.207031 0 48.335938 9.023438 66.359375 24zm-170.359375 80c0-6.183594.640625-12.207031 1.679688-18.097656l19.167968 4.257812c11.28125 2.503906 19.152344 12.328125 19.152344 23.871094 0 16.632812 9.984375 31.375 25.433594 37.5625l2.71875 1.085938c7.191406 2.871093 11.847656 9.746093 11.847656 17.496093 0 6.082031-2.953125 11.816407-7.886719 15.34375-5.503906 3.929688-11.511719 7.144531-17.769531 9.832031-32.34375-17.65625-54.34375-51.976562-54.34375-91.351562zm73.558594 99.433594c2.648437-1.578125 5.335937-3.105469 7.839844-4.890625 9.144531-6.527344 14.601562-17.128907 14.601562-28.367188 0-14.335937-8.601562-27.03125-21.910156-32.359375l-2.722656-1.082031c-9.335938-3.734375-15.367188-12.644531-15.367188-22.703125 0-19.101562-13.023438-35.34375-31.679688-39.488281l-18.648437-4.144531c4.3125-12.582032 10.945313-24.085938 19.433594-33.984376l7.671875 7.664063c12.832031 12.84375 29.910156 19.921875 48.078125 19.921875h3.144531c14.617188 0 29.113281-4.832031 40.800781-13.601562 8.941407-6.710938 20.023438-10.398438 31.199219-10.398438h29.808594c3.917968 4.992188 7.398437 10.335938 10.359375 16h-11.199219c-13.089844 0-25.382812 5.097656-34.625 14.34375-6.222656 6.222656-14.503906 9.65625-23.3125 9.65625h-19.253906c-15.3125 0-27.777344 12.464844-27.777344 27.777344 0 10.589844 5.878906 20.109375 15.351562 24.839844 10.265626 5.136718 16.648438 15.453124 16.648438 26.933593v4.90625c0 9.136719 2.679688 17.976563 7.742188 25.574219l9.777343 14.664062c-8.183593 2.082032-16.703125 3.304688-25.519531 3.304688-10.59375 0-20.800781-1.609375-30.441406-4.566406zm71.671875-4-12.183594-18.265625c-3.292969-4.96875-5.046875-10.742188-5.046875-16.703125v-4.90625c0-17.574219-9.769531-33.382813-25.496094-41.246094-4.007812-2.007812-6.503906-6.046875-6.503906-10.535156 0-6.488282 5.28125-11.777344 11.777344-11.777344h19.253906c13.089844 0 25.382812-5.097656 34.625-14.34375 6.222656-6.222656 14.503906-9.65625 23.3125-9.65625h17.941406c3.273438 10.089844 5.089844 20.832031 5.089844 32 0 42.695312-25.878906 79.433594-62.769531 95.433594zm166.769531 246.382812v-22.753906c0-10.34375 6.59375-19.496094 16.414062-22.773438l31.585938-10.519531v-22.808593l-3.976562-2.3125c-7.527344-4.382813-12.023438-12.105469-12.023438-20.648438v-16c0-6.753906 2.863281-13.222656 7.855469-17.769531 5.074219-4.605469 11.609375-6.75 18.519531-6.125 12.128906 1.160156 21.625 12.261719 21.625 25.269531v14.625c0 8.542969-4.496094 16.265625-12.023438 20.648438l-3.976562 2.3125v22.808593l31.585938 10.519531c9.820312 3.277344 16.414062 12.429688 16.414062 22.773438v22.753906c-15.785156 11.390625-35.089844 18.183594-56 18.183594s-40.214844-6.792969-56-18.183594zm128-14.527344v-8.226562c0-17.238281-10.992188-32.496094-27.351562-37.941406l-20.648438-6.890625v-2.398438c9.96875-7.511719 16-19.328125 16-31.832031v-14.625c0-21.167969-15.855469-39.253906-36.105469-41.183594-11.191406-1.101562-22.480469 2.640625-30.796875 10.199219-8.320312 7.570313-13.097656 18.363281-13.097656 29.609375v16c0 12.503906 6.03125 24.320312 16 31.832031v2.398438l-20.648438 6.882812c-16.359374 5.453125-27.351562 20.710938-27.351562 37.949219v8.226562c-14.886719-16.921874-24-39.03125-24-63.289062 0-52.9375 43.0625-96 96-96s96 43.0625 96 96c0 24.257812-9.113281 46.367188-24 63.289062zm0 0"/></svg>