<?xml version="1.0" encoding="utf-8"?>
<!-- Generator: Adobe Illustrator 22.0.0, SVG Export Plug-In . SVG Version: 6.00 Build 0)  -->
<svg version="1.1" xmlns="http://www.w3.org/2000/svg" xmlns:xlink="http://www.w3.org/1999/xlink" x="0px" y="0px"
	 viewBox="0 0 336 235.2" style="enable-background:new 0 0 336 235.2;" xml:space="preserve">
<style type="text/css">
	.st0{fill:#03AED0;}
	.st1{fill:#F07D28;}
	.st2{fill:#333A4A;}
	.st3{fill:#08BCA7;}
	.st4{fill:#FFFFFF;}
	.st5{fill:#231F20;}
	.st6{fill:#1D1D1B;}
	.st7{fill:#30241C;}
</style>
<g id="Layer_1">
</g>
<g id="background_and_shadows">
</g>
<g id="background">
</g>
<g id="backgrounds">
</g>
<g id="small_elements">
</g>
<g id="items">
	<g id="eyeglass">
	</g>
	<g id="calculator">
	</g>
	<g id="computer">
	</g>
	<g id="coffee">
	</g>
	<g id="pencil">
	</g>
	<g id="plant">
	</g>
	<g id="mug">
	</g>
	<g id="magnifier">
		<g>
			<g>
				<path class="st0" d="M274.5,123.1c-3.5,0-6.4-2.8-6.4-6.2c0-3.4,2.9-6.2,6.4-6.2c3.5,0,6.4,2.8,6.4,6.2
					C280.9,120.3,278,123.1,274.5,123.1z M274.5,111.6c-3,0-5.5,2.4-5.5,5.3c0,2.9,2.5,5.3,5.5,5.3c3,0,5.5-2.4,5.5-5.3
					C279.9,114,277.5,111.6,274.5,111.6z"/>
			</g>
		</g>
		<g>
			<g>
				<path class="st0" d="M284.3,125.6c-0.1,0-0.2,0-0.3-0.1l-5.3-4.4c-0.2-0.2-0.2-0.5-0.1-0.7c0.2-0.2,0.5-0.2,0.7,0l5.3,4.4
					c0.2,0.2,0.2,0.5,0.1,0.7C284.6,125.5,284.5,125.6,284.3,125.6z"/>
			</g>
		</g>
	</g>
	<g id="picture">
		<g>
			<path class="st1" d="M136.6,27.7c0,2.8-2.4,5.1-5.3,5.1c-2.9,0-5.3-2.3-5.3-5.1c0-2.8,2.4-5.1,5.3-5.1
				C134.2,22.6,136.6,24.9,136.6,27.7z"/>
		</g>
		<g>
			<polygon class="st2" points="157.4,61.3 123.6,40.3 104.8,54.8 104.8,65.5 157.4,65.5 			"/>
		</g>
		<g>
			<polygon class="st3" points="156.8,43.1 147.3,37.3 133.9,46.8 156.8,61.4 			"/>
		</g>
		<g>
			<path d="M157.8,65.5h-54v-51h54V65.5z M104.8,65.5h52v-50h-52V65.5z"/>
		</g>
	</g>
	<g id="spark_1_">
		<g>
			<rect x="68.4" y="23.9" width="1" height="4.8"/>
		</g>
		<g>
			<polygon points="63.5,31.2 60,27.8 60.7,27.1 64.2,30.5 			"/>
		</g>
		<g>
			<rect x="56.9" y="35.4" width="5" height="0.9"/>
		</g>
		<g>
			<polygon points="60.9,44.5 60.2,43.8 63.8,40.4 64.4,41.1 			"/>
		</g>
		<g>
			<rect x="68.8" y="42.7" width="1" height="4.8"/>
		</g>
		<g>
			<polygon points="77.5,44.2 73.9,40.8 74.6,40.2 78.1,43.6 			"/>
		</g>
		<g>
			<rect x="76.3" y="35" width="5" height="0.9"/>
		</g>
		<g>
			<polygon points="74.4,30.9 73.7,30.3 77.2,26.9 77.9,27.5 			"/>
		</g>
	</g>
	<g id="spark">
		<g>
			<rect x="292.3" y="175.5" width="1" height="4.8"/>
		</g>
		<g>
			<polygon points="287.4,182.9 283.9,179.4 284.6,178.8 288.1,182.2 			"/>
		</g>
		<g>
			<rect x="280.8" y="187.1" width="5" height="0.9"/>
		</g>
		<g>
			<polygon points="284.8,196.1 284.2,195.5 287.7,192.1 288.4,192.7 			"/>
		</g>
		<g>
			<rect x="292.7" y="194.3" width="1" height="4.8"/>
		</g>
		<g>
			<polygon points="301.4,195.9 297.9,192.5 298.5,191.8 302.1,195.2 			"/>
		</g>
		<g>
			<rect x="300.2" y="186.7" width="5" height="0.9"/>
		</g>
		<g>
			<polygon points="298.3,182.6 297.6,182 301.1,178.5 301.8,179.2 			"/>
		</g>
	</g>
	<g id="arrow">
		<path class="st1" d="M224.2,34.9c-0.1,0-0.1,0-0.2,0c-0.1-0.1-0.2-0.2-0.2-0.3v-4h-20.3c-0.2,0-0.7,0.1-0.7-0.1v-5.8
			c0-0.2,0.5,0,0.7,0h20.3v-4.2c0-0.1,0.1-0.2,0.2-0.3c0.1-0.1,0.3-0.1,0.4,0l11.9,6.4c0.1,0.1,0.2,0.2,0.2,0.3
			c0,0.1-0.1,0.2-0.2,0.3l-11.9,7.9C224.4,34.9,224.3,34.9,224.2,34.9z"/>
	</g>
	<g id="cloud">
		<path class="st2" d="M192.1,29.7c0-0.1,0-0.2,0-0.3c0-1-0.8-1.8-1.9-1.8c-0.1,0-0.3,0-0.4,0c-0.3-0.7-0.9-1.3-1.6-1.7
			c-0.6-1.3-2-2.2-3.6-2.2c-1.4,0-2.6,0.7-3.3,1.8c-0.5-0.5-1.3-0.9-2.1-0.9c-1.1,0-2,0.6-2.5,1.4c-0.7-0.8-1.8-1.4-3.1-1.4
			c-1.5,0-2.8,0.8-3.4,1.9c-1.7,0.2-3.1,1.4-3.5,3.1H192.1z"/>
	</g>
	<g id="clouds">
		<g>
			<path class="st0" d="M58.5,77.9c0-0.1,0-0.2,0-0.4c0-1.5-1.2-2.6-2.7-2.6c-0.2,0-0.4,0-0.6,0.1c-0.5-1-1.3-1.9-2.4-2.5
				c-0.9-1.9-2.9-3.2-5.3-3.2c-2.1,0-3.9,1-4.9,2.6c-0.8-0.8-1.9-1.3-3.1-1.3c-1.6,0-2.9,0.8-3.7,2c-1.1-1.3-2.7-2-4.5-2
				c-2.2,0-4.1,1.2-5.1,2.9c-2.6,0.3-4.6,2.1-5.1,4.5H58.5z"/>
		</g>
		<g>
			<path class="st0" d="M269.5,64.2c0-0.3,0.1-0.6,0.1-0.9c0-3.3-2.7-6-6.1-6c-0.4,0-0.8,0-1.3,0.1c-1.1-2.4-3-4.3-5.3-5.6
				c-2.1-4.3-6.6-7.3-11.9-7.3c-4.6,0-8.7,2.3-11.1,5.8c-1.8-1.8-4.2-2.9-6.9-2.9c-3.5,0-6.6,1.9-8.3,4.6c-2.4-2.8-6.1-4.6-10.1-4.6
				c-4.9,0-9.2,2.6-11.4,6.4c-5.8,0.6-10.4,4.7-11.6,10.1H269.5z"/>
		</g>
	</g>
	<g id="eye">
		<g>
			<path d="M257.1,34.2c-3.6,0-6.7-1.9-8.7-3.5c-1.7-1.4-3.7-3.5-3.7-4c0-0.5,1.9-2.6,3.7-4c2-1.6,5.1-3.5,8.7-3.5
				c6.7,0,12.4,6.7,12.4,7.5C269.5,27.6,263.8,34.2,257.1,34.2z M245.8,26.7c0.8,1.1,5.6,6.5,11.3,6.5c5.8,0,10.7-5.4,11.4-6.5
				c-0.7-1.1-5.6-6.5-11.4-6.5C251.4,20.2,246.6,25.6,245.8,26.7z"/>
		</g>
		<g>
			<path class="st3" d="M262.3,26.7c0,2.8-2.3,5-5.2,5c-2.9,0-5.2-2.2-5.2-5c0-2.8,2.3-5,5.2-5C260,21.7,262.3,24,262.3,26.7z"/>
		</g>
	</g>
	<g id="heart">
		<g>
			<path class="st1" d="M39.7,113.2c0,0,7.6-5.7,7.6-11.1c0-5.4-6.8-5.8-7.6-0.4c-0.9-5.4-7.6-5-7.6,0.8
				C32,108.3,39.7,113.2,39.7,113.2z"/>
		</g>
	</g>
	<g id="crop">
		<g>
			<rect x="86.6" y="22.4" width="1" height="27.6"/>
		</g>
		<g>
			<rect x="54.8" y="18.3" width="28.4" height="0.9"/>
		</g>
		<g>
			<rect x="50.6" y="22.4" width="1" height="27.6"/>
		</g>
		<g>
			<rect x="54.8" y="53.2" width="28.4" height="0.9"/>
		</g>
		<g>
			<path d="M54.8,22.9h-7.6c-0.3,0-0.5-0.2-0.5-0.5V15c0-0.3,0.2-0.5,0.5-0.5h7.6c0.3,0,0.5,0.2,0.5,0.5v7.4
				C55.3,22.7,55.1,22.9,54.8,22.9z M47.7,21.9h6.6v-6.4h-6.6V21.9z"/>
		</g>
		<g>
			<path d="M90.9,22.9h-7.6c-0.3,0-0.5-0.2-0.5-0.5V15c0-0.3,0.2-0.5,0.5-0.5h7.6c0.3,0,0.5,0.2,0.5,0.5v7.4
				C91.4,22.7,91.1,22.9,90.9,22.9z M83.8,21.9h6.6v-6.4h-6.6V21.9z"/>
		</g>
		<g>
			<path d="M54.8,57.8h-7.6c-0.3,0-0.5-0.2-0.5-0.5V50c0-0.3,0.2-0.5,0.5-0.5h7.6c0.3,0,0.5,0.2,0.5,0.5v7.4
				C55.3,57.6,55.1,57.8,54.8,57.8z M47.7,56.9h6.6v-6.4h-6.6V56.9z"/>
		</g>
		<g>
			<path d="M90.9,57.8h-7.6c-0.3,0-0.5-0.2-0.5-0.5V50c0-0.3,0.2-0.5,0.5-0.5h7.6c0.3,0,0.5,0.2,0.5,0.5v7.4
				C91.4,57.6,91.1,57.8,90.9,57.8z M83.8,56.9h6.6v-6.4h-6.6V56.9z"/>
		</g>
	</g>
	<g id="plus">
		<g>
			<path class="st1" d="M310.3,147.7c0,9.1-7.6,16.4-16.9,16.4c-9.4,0-16.9-7.4-16.9-16.4c0-9.1,7.6-16.4,16.9-16.4
				C302.7,131.2,310.3,138.6,310.3,147.7z"/>
		</g>
		<g>
			<polygon class="st4" points="300.3,147.5 293.7,147.5 293.7,141.1 292.8,141.1 292.8,147.5 286.2,147.5 286.2,148.4 292.8,148.4 
				292.8,154.7 293.7,154.7 293.7,148.4 300.3,148.4 			"/>
		</g>
	</g>
	<g id="person">
		<path class="st2" d="M47.1,160.4l-4.8-1.7V156h0c1.4-1,2.3-2.7,2.3-4.7c0-3.1-2.2-5.6-4.8-5.6s-4.8,2.5-4.8,5.6c0,2.1,1,4,2.5,4.9
			v2.6l-4.8,1.7c-1.2,0.4-1.9,1.5-1.9,2.6v1.8H49v-1.8C49,161.9,48.3,160.8,47.1,160.4z"/>
	</g>
	<g id="pen">
		<g>
			<path d="M299.3,58.6h-11.6c-0.2,0-0.3-0.1-0.4-0.2c-0.1-0.1-0.1-0.3,0-0.5l2-3.9c0.1-0.2,0.2-0.3,0.4-0.3h7
				c0.2,0,0.3,0.1,0.4,0.2l2.5,3.9c0.1,0.1,0.1,0.3,0,0.5C299.6,58.5,299.4,58.6,299.3,58.6z M288.5,57.7h9.9l-1.9-3H290L288.5,57.7
				z"/>
		</g>
		<g>
			<path d="M296.8,54.7h-7c-0.2,0-0.3-0.1-0.4-0.2l-4-6.3c-0.1-0.1-0.1-0.3,0-0.4l6-12.2c0.1-0.2,0.2-0.3,0.4-0.3h3
				c0.2,0,0.4,0.1,0.4,0.3l6,12.2c0.1,0.1,0.1,0.3,0,0.4l-4,6.3C297.1,54.6,296.9,54.7,296.8,54.7z M290,53.7h6.5l3.7-5.9l-5.8-11.7
				H292l-5.8,11.7L290,53.7z"/>
		</g>
		<g>
			<rect x="292.8" y="35.7" width="1" height="10.7"/>
		</g>
		<g>
			<path d="M293.2,50.8c-1.4,0-2.5-1.1-2.5-2.4c0-1.3,1.1-2.4,2.5-2.4c1.4,0,2.5,1.1,2.5,2.4C295.7,49.7,294.6,50.8,293.2,50.8z
				 M293.2,46.9c-0.8,0-1.5,0.7-1.5,1.5c0,0.8,0.7,1.5,1.5,1.5c0.8,0,1.5-0.7,1.5-1.5C294.8,47.5,294.1,46.9,293.2,46.9z"/>
		</g>
	</g>
	<g id="dots">
		<g>
			<path class="st0" d="M72.7,149.5c0,2.1-1.7,3.7-3.9,3.7c-2.1,0-3.9-1.7-3.9-3.7c0-2.1,1.7-3.7,3.9-3.7
				C71,145.8,72.7,147.4,72.7,149.5z"/>
		</g>
		<g>
			<path class="st1" d="M278,168.6c0,2.1-1.7,3.7-3.9,3.7c-2.1,0-3.9-1.7-3.9-3.7c0-2.1,1.7-3.7,3.9-3.7
				C276.3,164.8,278,166.5,278,168.6z"/>
		</g>
		<g>
			<path class="st3" d="M65.7,91c0,1-0.8,1.8-1.8,1.8c-1,0-1.8-0.8-1.8-1.8c0-1,0.8-1.8,1.8-1.8C64.8,89.2,65.7,90,65.7,91z"/>
		</g>
		<g>
			<path class="st3" d="M241.1,72.9c0,1.4-1.1,2.5-2.6,2.5c-1.4,0-2.6-1.1-2.6-2.5c0-1.4,1.1-2.5,2.6-2.5
				C240,70.4,241.1,71.5,241.1,72.9z"/>
		</g>
		<g>
			<path class="st1" d="M191.2,47.5c0,1-0.8,1.8-1.8,1.8c-1,0-1.8-0.8-1.8-1.8s0.8-1.8,1.8-1.8C190.4,45.7,191.2,46.5,191.2,47.5z"
				/>
		</g>
		<g>
			<path class="st3" d="M306.2,91.5c-3,0-5.5-2.4-5.5-5.3c0-2.9,2.5-5.3,5.5-5.3c3,0,5.5,2.4,5.5,5.3
				C311.7,89.1,309.2,91.5,306.2,91.5z M306.2,81.7c-2.5,0-4.6,2-4.6,4.4c0,2.4,2,4.4,4.6,4.4c2.5,0,4.6-2,4.6-4.4
				C310.7,83.7,308.7,81.7,306.2,81.7z"/>
		</g>
		<g>
			<path class="st1" d="M68.9,175.7c-3,0-5.5-2.4-5.5-5.3c0-2.9,2.5-5.3,5.5-5.3c3,0,5.5,2.4,5.5,5.3
				C74.4,173.3,71.9,175.7,68.9,175.7z M68.9,166c-2.5,0-4.6,2-4.6,4.4c0,2.4,2,4.4,4.6,4.4c2.5,0,4.6-2,4.6-4.4
				C73.4,167.9,71.4,166,68.9,166z"/>
		</g>
	</g>
	<g id="computer_1_">
		<g>
			<polygon class="st3" points="150,165.5 103.8,165.5 103.8,100.5 176.8,100.5 176.8,165.5 165.5,165.5 			"/>
		</g>
		<g>
			<path class="st5" d="M239.3,165.5h-53.8c-0.2,0-0.4-0.3-0.4-0.5c0-0.2,0.2-0.5,0.4-0.5h53.8c0.2,0,0.4,0.3,0.4,0.5
				C239.7,165.2,239.5,165.5,239.3,165.5z"/>
		</g>
		<g>
			<path class="st5" d="M239.3,161.5h-53.8c-0.2,0-0.4-0.3-0.4-0.5c0-0.2,0.2-0.5,0.4-0.5h53.8c0.2,0,0.4,0.3,0.4,0.5
				C239.7,161.2,239.5,161.5,239.3,161.5z"/>
		</g>
		<g>
			<path class="st5" d="M239.3,156.5h-53.8c-0.2,0-0.4-0.3-0.4-0.5c0-0.2,0.2-0.5,0.4-0.5h53.8c0.2,0,0.4,0.3,0.4,0.5
				C239.7,156.2,239.5,156.5,239.3,156.5z"/>
		</g>
		<g>
			<path class="st5" d="M239.3,151.5h-53.8c-0.2,0-0.4,0-0.4,0s0.2,0,0.4,0H239.3c0.2,0,0.4,0,0.4,0S239.5,151.5,239.3,151.5z"/>
		</g>
		<g>
			<g>
				<path class="st4" d="M162.2,108.5h-42.2c-0.3,0-0.5-0.3-0.5-0.5c0-0.2,0.2-0.5,0.5-0.5h42.2c0.3,0,0.5,0.3,0.5,0.5
					C162.7,108.2,162.5,108.5,162.2,108.5z"/>
			</g>
		</g>
		<g>
			<g>
				<path class="st4" d="M162.2,112.5h-42.2c-0.3,0-0.5-0.2-0.5-0.5c0-0.3,0.2-0.5,0.5-0.5h42.2c0.3,0,0.5,0.2,0.5,0.5
					C162.7,112.3,162.5,112.5,162.2,112.5z"/>
			</g>
		</g>
		<g>
			<rect x="118.9" y="156.8" class="st2" width="43.2" height="3.7"/>
		</g>
		<g>
			<g>
				<path class="st6" d="M251.9,198.4H91c-6.2,0-11.2-4.9-11.2-10.8V87.3c0-3.7,3.1-6.7,7-6.7h169.4c3.8,0,7,3,7,6.7v100.2
					C263.1,193.5,258.1,198.4,251.9,198.4z M86.8,81.5c-3.3,0-6,2.6-6,5.8v100.2c0,5.5,4.6,9.9,10.2,9.9h160.9
					c5.6,0,10.2-4.4,10.2-9.9V87.3c0-3.2-2.7-5.8-6-5.8H86.8z"/>
			</g>
			<g>
				<path class="st6" d="M199.4,222.1h-56.5c-0.3,0-0.5-0.2-0.5-0.5v-6c0-0.3,0.2-0.5,0.5-0.5h56.5c0.3,0,0.5,0.2,0.5,0.5v6
					C199.9,221.9,199.6,222.1,199.4,222.1z M143.3,221.2h55.6v-5h-55.6V221.2z"/>
			</g>
			<g>
				<path class="st6" d="M191.2,216.2C191.2,216.2,191.2,216.2,191.2,216.2h-39.5c-0.1,0-0.3-0.1-0.4-0.2c-0.1-0.1-0.1-0.2-0.1-0.4
					l2.6-17.8c0-0.2,0.2-0.4,0.5-0.4h34.3c0.2,0,0.4,0.2,0.5,0.4l2.6,17.7c0,0,0,0.1,0,0.1C191.7,215.9,191.5,216.2,191.2,216.2z
					 M152.3,215.2h38.4l-2.4-16.9h-33.5L152.3,215.2z"/>
			</g>
			<g>
				<g>
					<path class="st6" d="M254.9,191.4H88c-0.3,0-0.5-0.2-0.5-0.5v-102c0-0.3,0.2-0.5,0.5-0.5h166.8c0.3,0,0.5,0.2,0.5,0.5v102
						C255.4,191.2,255.2,191.4,254.9,191.4z M88.5,190.5h165.9V89.4H88.5V190.5z"/>
				</g>
				<g>
					<rect x="121.1" y="179" class="st0" width="7.3" height="7.1"/>
				</g>
				<g>
					<path class="st6" d="M116.6,186.6h-7.3c-0.3,0-0.5-0.2-0.5-0.5V179c0-0.3,0.2-0.5,0.5-0.5h7.3c0.3,0,0.5,0.2,0.5,0.5v7.1
						C117.1,186.4,116.9,186.6,116.6,186.6z M109.8,185.7h6.4v-6.2h-6.4V185.7z"/>
				</g>
				<g>
					<rect x="226" y="179" class="st1" width="7.3" height="7.1"/>
				</g>
				<g>
					<path class="st6" d="M210.2,186.6h-7.3c-0.3,0-0.5-0.2-0.5-0.5V179c0-0.3,0.2-0.5,0.5-0.5h7.3c0.3,0,0.5,0.2,0.5,0.5v7.1
						C210.7,186.4,210.5,186.6,210.2,186.6z M203.3,185.7h6.4v-6.2h-6.4V185.7z"/>
				</g>
				<g>
					<path class="st6" d="M140.1,186.6h-7.3c-0.3,0-0.5-0.2-0.5-0.5V179c0-0.3,0.2-0.5,0.5-0.5h7.3c0.3,0,0.5,0.2,0.5,0.5v7.1
						C140.6,186.4,140.3,186.6,140.1,186.6z M133.2,185.7h6.4v-6.2h-6.4V185.7z"/>
				</g>
				<g>
					<path class="st6" d="M151.8,186.6h-7.3c-0.3,0-0.5-0.2-0.5-0.5V179c0-0.3,0.2-0.5,0.5-0.5h7.3c0.3,0,0.5,0.2,0.5,0.5v7.1
						C152.2,186.4,152,186.6,151.8,186.6z M144.9,185.7h6.4v-6.2h-6.4V185.7z"/>
				</g>
				<g>
					<rect x="156.1" y="179" class="st2" width="7.3" height="7.1"/>
				</g>
				<g>
					<path class="st6" d="M175.1,186.6h-7.3c-0.3,0-0.5-0.2-0.5-0.5V179c0-0.3,0.2-0.5,0.5-0.5h7.3c0.3,0,0.5,0.2,0.5,0.5v7.1
						C175.6,186.4,175.4,186.6,175.1,186.6z M168.3,185.7h6.4v-6.2h-6.4V185.7z"/>
				</g>
				<g>
					<path class="st6" d="M186.8,186.6h-7.3c-0.3,0-0.5-0.2-0.5-0.5V179c0-0.3,0.2-0.5,0.5-0.5h7.3c0.3,0,0.5,0.2,0.5,0.5v7.1
						C187.3,186.4,187.1,186.6,186.8,186.6z M180,185.7h6.4v-6.2H180V185.7z"/>
				</g>
				<g>
					<path class="st6" d="M198.5,186.6h-7.3c-0.3,0-0.5-0.2-0.5-0.5V179c0-0.3,0.2-0.5,0.5-0.5h7.3c0.3,0,0.5,0.2,0.5,0.5v7.1
						C199,186.4,198.8,186.6,198.5,186.6z M191.7,185.7h6.4v-6.2h-6.4V185.7z"/>
				</g>
				<g>
					<path class="st6" d="M221.9,186.6h-7.3c-0.3,0-0.5-0.2-0.5-0.5V179c0-0.3,0.2-0.5,0.5-0.5h7.3c0.3,0,0.5,0.2,0.5,0.5v7.1
						C222.4,186.4,222.1,186.6,221.9,186.6z M215,185.7h6.4v-6.2H215V185.7z"/>
				</g>
				<g>
					<path class="st6" d="M239.5,191.4L239.5,191.4l-136.4-0.3c-0.3,0-0.5-0.2-0.5-0.5v-16.6c0-0.3,0.2-0.5,0.5-0.5h136.4
						c0.3,0,0.5,0.2,0.5,0.5V191c0,0.1,0,0.2-0.1,0.3C239.8,191.4,239.6,191.4,239.5,191.4z M103.6,190.2l135.4,0.3v-16H103.6V190.2
						z"/>
				</g>
			</g>
		</g>
		<g>
			<ellipse class="st4" cx="140.9" cy="133.1" rx="16.9" ry="16.4"/>
		</g>
		<g>
			<g>
				<path d="M233.5,133.5h-39.3c-0.3,0-0.5-0.2-0.5-0.5v-24.6c0-0.3,0.2-0.5,0.5-0.5h2.3c0.3,0,0.5,0.2,0.5,0.5
					c0,0.3-0.2,0.5-0.5,0.5h-1.8v23.7H233v-4c0-0.3,0.2-0.5,0.5-0.5c0.3,0,0.5,0.2,0.5,0.5v4.5C234,133.3,233.8,133.5,233.5,133.5z"
					/>
			</g>
			<g>
				<rect x="201.1" y="99.5" class="st2" width="39.3" height="24.6"/>
			</g>
			<g>
				<path d="M226.6,142.5h-39.3c-0.3,0-0.5-0.2-0.5-0.5v-24.6c0-0.3,0.2-0.5,0.5-0.5h2.3c0.3,0,0.5,0.2,0.5,0.5s-0.2,0.5-0.5,0.5
					h-1.8v23.7h38.3v-4c0-0.3,0.2-0.5,0.5-0.5c0.3,0,0.5,0.2,0.5,0.5v4.5C227,142.3,226.8,142.5,226.6,142.5z"/>
			</g>
		</g>
		<g>
			<polygon class="st3" points="137.9,128.1 137.9,138.2 146.6,133.1 			"/>
		</g>
		<g>
			<rect x="153.1" y="204.2" width="36.5" height="0.9"/>
		</g>
	</g>
	<g id="dots_and_lines">
		<g>
			<path d="M289.8,98.6H286v-0.9h3.8V98.6z M282.2,98.6h-3.8v-0.9h3.8V98.6z M274.5,98.6h-3.8v-0.9h3.8V98.6z M266.8,98.6H263v-0.9
				h3.8V98.6z M293.9,97.8h-1v-3.7h1V97.8z M293.9,90.4h-1v-3.7h1V90.4z M293.9,83h-1v-3.7h1V83z M293.9,75.5h-1v-3.7h1V75.5z
				 M293.9,68.1h-1v-3.7h1V68.1z"/>
		</g>
		<g>
			<rect x="292.9" y="98.1" width="1" height="33.1"/>
		</g>
		<g>
			<path d="M175.1,81.2c-0.3,0-0.5-0.2-0.5-0.5v-35h-17.1c-0.3,0-0.5-0.2-0.5-0.5c0-0.3,0.2-0.5,0.5-0.5h17.6c0.3,0,0.5,0.2,0.5,0.5
				v35.5C175.6,81,175.4,81.2,175.1,81.2z"/>
		</g>
		<g>
			<rect x="40" y="131.5" width="84" height="0.9"/>
		</g>
		<g>
			<path d="M39.4,139.6l0-3.7l1,0l0,3.7L39.4,139.6z M39.4,132.1l0-3.7l1,0l0,3.7L39.4,132.1z M39.3,124.7l0-3.7l1,0l0,3.7
				L39.3,124.7z"/>
		</g>
		<g>
			<path d="M88.3,81.5h-1.5v-0.9h1.5V81.5z M83,81.5h-3.8v-0.9H83V81.5z M75.3,81.5h-3.8v-0.9h3.8V81.5z M69.5,79.7h-1V76h1V79.7z
				 M69.5,72.2h-1v-3.7h1V72.2z M69.5,64.8h-1v-3.7h1V64.8z M69.5,57.4h-1v-3.7h1V57.4z"/>
		</g>
		<g>
			<path d="M80.3,186.6h-0.7v-0.9h0.7V186.6z M75.8,186.6h-3.8v-0.9h3.8V186.6z M68.1,186.6h-3.8v-0.9h3.8V186.6z M60.4,186.6h-3.8
				v-0.9h3.8V186.6z M52.8,186.6h-3.8v-0.9h3.8V186.6z M45.1,186.6h-3.8v-0.9h3.8V186.6z M40.4,183.8h-1V180h1V183.8z M40.4,176.3
				h-1v-3.7h1V176.3z"/>
		</g>
		<g>
			<path d="M281.4,188H278v-0.9h3.4V188z M274.1,188h-3.8v-0.9h3.8V188z M266.5,188h-3.8v-0.9h3.8V188z"/>
		</g>
		<g>
			<path class="st7" d="M184.3,35.7c0-0.3,0.3-0.6,0.6-0.6h0.1c0.4,0,0.6,0.3,0.6,0.6c0,0.3-0.3,0.6-0.6,0.6H185
				C184.6,36.3,184.3,36,184.3,35.7z M190.2,35.7c0-0.3,0.3-0.6,0.6-0.6h0.1c0.4,0,0.6,0.3,0.6,0.6c0,0.3-0.3,0.6-0.6,0.6h-0.1
				C190.5,36.3,190.2,36,190.2,35.7z"/>
		</g>
		<g>
			<path class="st7" d="M239.6,205.6c0-0.3,0.3-0.6,0.6-0.6h0.1c0.4,0,0.6,0.3,0.6,0.6s-0.3,0.6-0.6,0.6h-0.1
				C239.9,206.2,239.6,206,239.6,205.6z M245.5,205.6c0-0.3,0.3-0.6,0.6-0.6h0.1c0.4,0,0.6,0.3,0.6,0.6s-0.3,0.6-0.6,0.6h-0.1
				C245.8,206.2,245.5,206,245.5,205.6z"/>
		</g>
		<g>
			<path d="M293.4,64.8c-10,0-18.2-7.9-18.2-17.7s8.2-17.7,18.2-17.7c10,0,18.2,7.9,18.2,17.7S303.4,64.8,293.4,64.8z M293.4,30.4
				c-9.5,0-17.3,7.5-17.3,16.7c0,9.2,7.7,16.7,17.3,16.7c9.5,0,17.3-7.5,17.3-16.7C310.6,37.9,302.9,30.4,293.4,30.4z"/>
		</g>
		<g>
			<path d="M39.8,121.4l0-0.9c1.2,0,2.5-0.1,3.7-0.4l0.2,0.9C42.4,121.3,41.1,121.4,39.8,121.4z M35.9,121c-1.3-0.3-2.5-0.7-3.7-1.2
				l0.4-0.8c1.1,0.5,2.3,0.9,3.5,1.2L35.9,121z M47.3,119.8l-0.4-0.8c1.1-0.5,2.2-1.2,3.1-1.9l0.6,0.7
				C49.6,118.5,48.5,119.2,47.3,119.8z M28.9,117.8c-1-0.8-1.9-1.7-2.8-2.7l0.7-0.6c0.8,0.9,1.6,1.8,2.6,2.5L28.9,117.8z
				 M53.4,115.1l-0.7-0.6c0.8-0.9,1.4-2,2-3l0.9,0.4C54.9,113,54.2,114.1,53.4,115.1z M24.1,111.9c-0.6-1.1-1-2.3-1.3-3.6l0.9-0.2
				c0.3,1.2,0.7,2.3,1.2,3.4L24.1,111.9z M56.8,108.3l-0.9-0.2c0.3-1.2,0.4-2.4,0.4-3.5v0h1v0C57.2,105.8,57,107.1,56.8,108.3z
				 M22.6,104.6l-0.2,0c0-1.3,0.1-2.5,0.4-3.7l0.9,0.2c-0.3,1.2-0.4,2.3-0.4,3.5L22.6,104.6z M55.8,101c-0.3-1.2-0.7-2.3-1.2-3.4
				l0.9-0.4c0.6,1.1,1,2.3,1.3,3.6L55.8,101z M24.9,97.6l-0.9-0.4c0.6-1.1,1.3-2.2,2.1-3.2l0.8,0.6C26.1,95.6,25.5,96.6,24.9,97.6z
				 M52.6,94.6c-0.8-0.9-1.6-1.8-2.6-2.5l0.6-0.7c1,0.8,1.9,1.7,2.8,2.7L52.6,94.6z M29.5,92.1l-0.6-0.7c1-0.8,2.1-1.5,3.3-2
				l0.4,0.8C31.5,90.7,30.5,91.3,29.5,92.1z M46.9,90.2c-1.1-0.5-2.3-0.9-3.5-1.2l0.2-0.9c1.3,0.3,2.5,0.7,3.7,1.2L46.9,90.2z
				 M36.1,89l-0.2-0.9c1.3-0.3,2.6-0.4,3.9-0.4l0,0.9C38.5,88.6,37.3,88.7,36.1,89z"/>
		</g>
		<g>
			<path d="M39.9,173.1c-9.6,0-17.4-7.6-17.4-16.9c0-9.3,7.8-16.9,17.4-16.9c9.6,0,17.4,7.6,17.4,16.9
				C57.3,165.5,49.5,173.1,39.9,173.1z M39.9,140.2c-9.1,0-16.5,7.2-16.5,16c0,8.8,7.4,16,16.5,16c9.1,0,16.5-7.2,16.5-16
				C56.4,147.4,49,140.2,39.9,140.2z"/>
		</g>
		<g>
			<g>
				<path class="st2" d="M270,48.2C270,48.2,270,48.2,270,48.2l0-0.2c0-0.5,0.4-0.8,0.9-0.8c0.5,0,0.9,0.4,0.9,0.8l0,0.2
					c0,0.5-0.4,0.8-0.8,0.8C270.4,49,270,48.6,270,48.2z M271.8,56.3c0-0.3,0.2-0.7,0.5-0.8c0.4-0.2,0.9,0,1.1,0.4l0.1,0.2
					c0.2,0.4,0,0.9-0.4,1.1c-0.4,0.2-0.9,0-1.1-0.4l-0.1-0.2C271.8,56.5,271.8,56.4,271.8,56.3z M271.6,39.9c0-0.1,0-0.2,0.1-0.3
					l0.1-0.2c0.2-0.4,0.7-0.6,1.1-0.4c0.4,0.2,0.6,0.7,0.5,1.1l-0.1,0.2c-0.2,0.4-0.7,0.6-1.1,0.5C271.8,40.5,271.6,40.2,271.6,39.9
					z M276.7,63.3c0-0.2,0.1-0.4,0.2-0.6c0.3-0.3,0.9-0.3,1.2,0l0.1,0.1c0.3,0.3,0.4,0.8,0,1.2c-0.3,0.3-0.9,0.4-1.2,0l-0.2-0.2
					C276.8,63.7,276.7,63.5,276.7,63.3z M276.4,32.8c0-0.2,0.1-0.5,0.3-0.6l0.2-0.2c0.3-0.3,0.9-0.3,1.2,0c0.3,0.3,0.3,0.9,0,1.2
					l-0.1,0.1c-0.3,0.3-0.9,0.3-1.2,0C276.5,33.2,276.4,33,276.4,32.8z M284.1,67.8c0-0.1,0-0.2,0.1-0.3c0.2-0.4,0.7-0.6,1.1-0.5
					l0.2,0.1c0.4,0.2,0.7,0.6,0.5,1.1c-0.2,0.4-0.7,0.6-1.1,0.5l-0.2-0.1C284.3,68.4,284.1,68.1,284.1,67.8z M283.7,28.1
					c0-0.3,0.2-0.7,0.5-0.8l0.2-0.1c0.4-0.2,0.9,0,1.1,0.5c0.2,0.4,0,0.9-0.5,1.1l-0.2,0.1c-0.4,0.2-0.9,0-1.1-0.5
					C283.8,28.3,283.7,28.2,283.7,28.1z M292.3,26.6C292.3,26.6,292.3,26.5,292.3,26.6c0-0.5,0.4-0.9,0.9-0.9l0.2,0
					c0.5,0,0.8,0.4,0.8,0.9c0,0.5-0.4,0.8-0.9,0.8l-0.2,0C292.7,27.4,292.3,27,292.3,26.6z M298.8,68.2c0-0.4,0.2-0.7,0.6-0.8
					l0.2-0.1c0.4-0.1,0.9,0.1,1.1,0.5c0.2,0.4-0.1,0.9-0.5,1.1l-0.2,0.1c-0.5,0.1-0.9-0.1-1.1-0.5C298.8,68.3,298.8,68.2,298.8,68.2
					z M300.9,28.4c0-0.1,0-0.3,0.1-0.4c0.2-0.4,0.7-0.6,1.1-0.4l0.2,0.1c0.4,0.2,0.6,0.7,0.4,1.1c-0.2,0.4-0.7,0.6-1.1,0.4l-0.2-0.1
					C301.1,29,300.9,28.7,300.9,28.4z M306.4,64c0-0.2,0.1-0.5,0.3-0.7l0.2-0.1c0.4-0.3,0.9-0.3,1.2,0.1c0.3,0.3,0.3,0.9-0.1,1.2
					l-0.2,0.1c-0.4,0.3-0.9,0.3-1.2-0.1C306.5,64.4,306.4,64.2,306.4,64z M308,33.3c0-0.2,0.1-0.5,0.3-0.6c0.3-0.3,0.9-0.3,1.2,0
					l0.2,0.2c0.3,0.3,0.3,0.9,0,1.2c-0.3,0.3-0.9,0.3-1.2,0l-0.1-0.1C308.1,33.7,308,33.5,308,33.3z M311.7,57.3
					c0-0.1,0-0.3,0.1-0.4l0.1-0.2c0.2-0.4,0.7-0.6,1.1-0.4c0.4,0.2,0.6,0.7,0.4,1.1l-0.1,0.2c-0.2,0.4-0.7,0.6-1.1,0.4
					C311.9,57.9,311.7,57.6,311.7,57.3z M312.6,40.5c0-0.4,0.2-0.7,0.6-0.8c0.4-0.2,0.9,0.1,1.1,0.5l0.1,0.2
					c0.2,0.4-0.1,0.9-0.5,1.1c-0.4,0.2-0.9-0.1-1.1-0.5l-0.1-0.2C312.6,40.7,312.6,40.6,312.6,40.5z M313.9,49.1
					C313.9,49.1,313.9,49,313.9,49.1l0-0.3c0-0.5,0.4-0.8,0.9-0.8c0.5,0,0.8,0.4,0.8,0.9l0,0.2c0,0.5-0.4,0.8-0.9,0.8
					C314.3,49.9,313.9,49.5,313.9,49.1z"/>
			</g>
		</g>
		<g>
			<g>
				<path class="st7" d="M78.5,73.5c0-0.3,0.3-0.6,0.6-0.6h0.1c0.4,0,0.6,0.3,0.6,0.6s-0.3,0.6-0.6,0.6h-0.1
					C78.8,74.1,78.5,73.9,78.5,73.5z"/>
			</g>
			<g>
				<path class="st7" d="M84.4,73.5c0-0.3,0.3-0.6,0.6-0.6h0.1c0.4,0,0.6,0.3,0.6,0.6s-0.3,0.6-0.6,0.6H85
					C84.7,74.1,84.4,73.9,84.4,73.5z M90.3,73.5c0-0.3,0.3-0.6,0.6-0.6h0.1c0.4,0,0.6,0.3,0.6,0.6s-0.3,0.6-0.6,0.6h-0.1
					C90.6,74.1,90.3,73.9,90.3,73.5z"/>
			</g>
			<g>
				<path class="st7" d="M96.2,73.5c0-0.3,0.3-0.6,0.6-0.6h0.1c0.4,0,0.6,0.3,0.6,0.6s-0.3,0.6-0.6,0.6h-0.1
					C96.5,74.1,96.2,73.9,96.2,73.5z"/>
			</g>
		</g>
		<g>
			<g>
				<path class="st7" d="M185.3,73.5c0-0.3,0.3-0.6,0.6-0.6h0.1c0.4,0,0.6,0.3,0.6,0.6s-0.3,0.6-0.6,0.6h-0.1
					C185.6,74.1,185.3,73.9,185.3,73.5z"/>
			</g>
			<g>
				<path class="st7" d="M191.2,73.5c0-0.3,0.3-0.6,0.6-0.6h0.1c0.4,0,0.6,0.3,0.6,0.6s-0.3,0.6-0.6,0.6h-0.1
					C191.5,74.1,191.2,73.9,191.2,73.5z M197.1,73.5c0-0.3,0.3-0.6,0.6-0.6h0.1c0.4,0,0.6,0.3,0.6,0.6s-0.3,0.6-0.6,0.6h-0.1
					C197.4,74.1,197.1,73.9,197.1,73.5z"/>
			</g>
			<g>
				<path class="st7" d="M203,73.5c0-0.3,0.3-0.6,0.6-0.6h0.1c0.4,0,0.6,0.3,0.6,0.6s-0.3,0.6-0.6,0.6h-0.1
					C203.3,74.1,203,73.9,203,73.5z"/>
			</g>
		</g>
		<g>
			<path class="st7" d="M45.7,205.3c0-0.3,0.3-0.6,0.6-0.6h0.1c0.4,0,0.6,0.3,0.6,0.6s-0.3,0.6-0.6,0.6h-0.1
				C46,205.9,45.7,205.6,45.7,205.3z"/>
		</g>
		<g>
			<path class="st7" d="M292.1,205.3c0-0.3,0.3-0.6,0.6-0.6h0.1c0.4,0,0.6,0.3,0.6,0.6s-0.3,0.6-0.6,0.6h-0.1
				C292.4,205.9,292.1,205.6,292.1,205.3z"/>
		</g>
		<g>
			<path class="st7" d="M133.9,205.3c0-0.3,0.3-0.6,0.6-0.6h0.1c0.4,0,0.6,0.3,0.6,0.6s-0.3,0.6-0.6,0.6h-0.1
				C134.2,205.9,133.9,205.6,133.9,205.3z M139.8,205.3c0-0.3,0.3-0.6,0.6-0.6h0.1c0.4,0,0.6,0.3,0.6,0.6s-0.3,0.6-0.6,0.6h-0.1
				C140.1,205.9,139.8,205.6,139.8,205.3z"/>
		</g>
		<g>
			<rect x="103.9" y="73" width="32.5" height="0.9"/>
		</g>
		<g>
			<g>
				<rect x="200.9" y="205.2" class="st0" width="32.5" height="0.9"/>
			</g>
		</g>
		<g>
			<g>
				<rect x="53" y="205.2" class="st3" width="32.5" height="0.9"/>
			</g>
		</g>
		<g>
			<rect x="209.8" y="73" width="14.8" height="0.9"/>
		</g>
		<g>
			<rect x="166.2" y="35.2" width="14.8" height="0.9"/>
		</g>
		<g>
			<rect x="268.1" y="90.5" width="14.8" height="0.9"/>
		</g>
		<g>
			<rect x="269" y="204.8" width="17.3" height="0.9"/>
		</g>
		<g>
			<rect x="103.1" y="204.8" width="17.3" height="0.9"/>
		</g>
		<g>
			<rect x="39.8" y="195.3" width="13.2" height="0.9"/>
		</g>
		<g>
			<rect x="56.8" y="105.8" width="23.4" height="0.9"/>
		</g>
		<g>
			<rect x="23" y="49.5" width="15.3" height="0.9"/>
		</g>
	</g>
	<g id="check_mark">
		<polygon class="st2" points="67.6,122.6 63.9,119 64.8,118.1 67.6,120.8 73.7,114.9 74.6,115.8 		"/>
	</g>
</g>
<g id="icons">
</g>
<g id="graphic">
</g>
<g id="Layer_2">
</g>
<g id="texts">
</g>
</svg>
