<svg height="512pt" viewBox="0 -46 512 512" width="512pt" xmlns="http://www.w3.org/2000/svg"><path d="m482 105v285h-452v-285c0-24.902344 20.097656-45 45-45h362c24.902344 0 45 20.097656 45 45zm0 0" fill="#463b85"/><path d="m482 105v285h-227v-330h182c24.902344 0 45 20.097656 45 45zm0 0" fill="#392e6e"/><path d="m452 105v285h-392v-285c0-8.402344 6.597656-15 15-15h362c8.402344 0 15 6.597656 15 15zm0 0" fill="#ffd400"/><path d="m452 105v285h-197v-300h182c8.402344 0 15 6.597656 15 15zm0 0" fill="#fdbf00"/><path d="m361 240v150h-271v-330c0-16.5 13.5-30 30-30s60 13.5 60 30zm0 0" fill="#a8d3d8"/><path d="m361 240v150h-106v-255zm0 0" fill="#8ebac5"/><path d="m512 375c0 24.898438-20.097656 45-45 45h-422c-24.902344 0-45-20.101562-45-45 0-8.402344 6.597656-15 15-15h482c8.402344 0 15 6.597656 15 15zm0 0" fill="#54469d"/><path d="m512 375c0 24.898438-20.097656 45-45 45h-212v-60h242c8.402344 0 15 6.597656 15 15zm0 0" fill="#463b85"/><path d="m240 30v210c0 16.5-43.5 30-60 30s-30-13.5-30-30v-180c0-16.5-13.5-30-30-30zm0 0" fill="#c6e2e7"/><path d="m421 15v210c0 24.898438-20.097656 45-45 45h-196c16.5 0 30-13.5 30-30v-225c0-8.402344 6.597656-15 15-15h181c8.402344 0 15 6.597656 15 15zm0 0" fill="#deecf1"/><path d="m421 15v210c0 24.898438-20.097656 45-45 45h-121v-270h151c8.402344 0 15 6.597656 15 15zm0 0" fill="#c6e2e7"/><g fill="#a8d3d8"><path d="m346 90h-61c-8.289062 0-15-6.710938-15-15s6.710938-15 15-15h61c8.289062 0 15 6.710938 15 15s-6.710938 15-15 15zm0 0"/><path d="m346 150h-61c-8.289062 0-15-6.710938-15-15s6.710938-15 15-15h61c8.289062 0 15 6.710938 15 15s-6.710938 15-15 15zm0 0"/><path d="m346 210h-61c-8.289062 0-15-6.710938-15-15s6.710938-15 15-15h61c8.289062 0 15 6.710938 15 15s-6.710938 15-15 15zm0 0"/></g></svg>