<svg height="512pt" viewBox="0 0 512 512" width="512pt" xmlns="http://www.w3.org/2000/svg"><path d="m8 106h48v94h-48zm0 0" fill="#90a4ae"/><path d="m56 88h112v144h-112zm0 0" fill="#ffe082"/><path d="m312 296-144-80v-112l144-80zm0 0" fill="#ff7043"/><path d="m312 8h48v304h-48zm0 0" fill="#ff8a65"/><path d="m56 232h112v184l-10.121094 14.464844h-91.757812l-10.121094-14.464844zm0 0" fill="#ff8a65"/><path d="m112 408 24-8v-168h-48v168zm0 0" fill="#fff"/><path d="m136 400-24 8-24-8-32 16 22.398438 32h67.203124l22.398438-32zm0 0" fill="#ffe082"/><path d="m112 496 33.601562-48h-67.203124zm0 0" fill="#3c3c47"/><g fill="#fff"><path d="m80 192h64v16h-64zm0 0"/><path d="m208 112h80v16h-80zm0 0"/><path d="m208 192h80v16h-80zm0 0"/><path d="m208 152h48v16h-48zm0 0"/></g><path d="m176 418.519531v-188.917969l128 71.109376v19.289062h64v-320h-64v19.296875l-128 71.101563v-10.398438h-128v18h-48v110h48v210.519531l64 91.433594v2.046875h400v-16h-390.230469zm144-402.519531h32v288h-32zm-144 92.703125 128-71.101563v244.796876l-128-71.101563zm-128 83.296875h-32v-78h32zm112 211.054688-16-8v-155.054688h16zm-96-307.054688h16v80h16v-80h32v80h16v-80h16v128h-96zm64 144v154.230469l-16 5.335937-16-5.335937v-154.230469zm-64 0h16v155.054688l-16 8zm3.871094 179.007812 20.746094-10.398437 23.382812 7.824219 23.382812-7.792969 20.746094 10.398437-14.695312 20.960938h-58.867188zm25.898437 36.992188h36.460938l-18.230469 26.046875zm0 0"/><path d="m496 160c-.195312 46.292969-28.6875 87.753906-71.832031 104.527344l5.742187 14.945312c49.441406-19.011718 82.0625-66.507812 82.0625-119.472656s-32.621094-100.460938-82.0625-119.472656l-5.742187 14.945312c43.144531 16.773438 71.636719 58.234375 71.832031 104.527344zm0 0"/><path d="m464 160c.050781 32.46875-19.554688 61.738281-49.601562 74.046875l6.105468 14.785156c36.007813-14.8125 59.511719-49.898437 59.511719-88.832031s-23.503906-74.019531-59.511719-88.832031l-6.105468 14.785156c30.046874 12.308594 49.652343 41.578125 49.601562 74.046875zm0 0"/><path d="m404.425781 203.40625 6.832031 14.464844c22.425782-10.539063 36.746094-33.089844 36.746094-57.871094s-14.320312-47.332031-36.746094-57.871094l-6.832031 14.464844c16.828125 7.898438 27.574219 24.8125 27.574219 43.40625s-10.746094 35.507812-27.574219 43.40625zm0 0"/><path d="m208 464h304v16h-304zm0 0"/><path d="m272 432h240v16h-240zm0 0"/><path d="m336 400h176v16h-176zm0 0"/></svg>