<svg height="511pt" viewBox="1 -133 511.99898 511" width="511pt" xmlns="http://www.w3.org/2000/svg"><path d="m100.914062 52 35.78125-35.425781c3.8125-3.777344 8.960938-5.894531 14.328126-5.894531h350.796874v181.941406h-54.453124" fill="#b3b0b5"/><path d="m402.917969 54.132812h41.917969v181.941407h-350.792969c-5.367188 0-10.515625-2.117188-14.328125-5.894531l-58-57.421876c-15.378906-15.230468-15.378906-40.082031 0-55.308593l58-57.425781c3.8125-3.773438 8.960937-5.890626 14.328125-5.890626h224.667969" fill="#ffcb7c"/><path d="m111.332031 140.195312c0 12.972657-10.515625 23.488282-23.484375 23.488282-12.972656 0-23.488281-10.515625-23.488281-23.488282 0-12.96875 10.515625-23.484374 23.488281-23.484374 12.96875 0 23.484375 10.515624 23.484375 23.484374zm0 0" fill="#f9f9f9"/><path d="m501.820312.5h-350.796874c-8.101563 0-15.734376 3.136719-21.492188 8.839844l-34.957031 34.613281h-.53125c-8.101563 0-15.734375 3.136719-21.492188 8.835937l-57.996093 57.425782c-9.386719 9.292968-14.554688 21.683594-14.554688 34.886718 0 13.207032 5.167969 25.597657 14.550781 34.890626l58 57.425781c5.757813 5.699219 13.390625 8.835937 21.488281 8.835937h350.796876c5.625 0 10.183593-4.558594 10.183593-10.179687v-33.269531h46.796875c5.625 0 10.183594-4.558594 10.183594-10.183594v-181.941406c0-5.621094-4.558594-10.179688-10.179688-10.179688zm-10.183593 181.941406h-36.617188v-128.308594c0-5.621093-4.558593-10.179687-10.183593-10.179687h-41.917969c-13.042969 0-13.066407 20.363281 0 20.363281h31.738281v161.574219h-340.613281c-2.703125 0-5.246094-1.042969-7.164063-2.945313l-58-57.425781c-5.492187-5.4375-8.515625-12.6875-8.515625-20.417969 0-7.726562 3.023438-14.976562 8.515625-20.417968l57.996094-57.421875c1.921875-1.898438 4.464844-2.949219 7.164062-2.949219h224.671876c13.042968 0 13.070312-20.363281 0-20.363281h-195.195313l20.34375-20.140625c1.917969-1.902344 4.460937-2.945313 7.164063-2.945313h340.613281zm0 0"/><path d="m87.847656 106.53125c-18.566406 0-33.667968 15.101562-33.667968 33.664062s15.101562 33.667969 33.667968 33.667969c18.5625 0 33.664063-15.105469 33.664063-33.667969s-15.101563-33.664062-33.664063-33.664062zm0 46.96875c-7.335937 0-13.304687-5.96875-13.304687-13.304688 0-7.335937 5.96875-13.300781 13.304687-13.300781 7.335938 0 13.300782 5.964844 13.300782 13.300781 0 7.335938-5.964844 13.304688-13.300782 13.304688zm0 0"/><path d="m220.175781 142.726562c-3.332031-2.429687-6.972656-4.664062-10.921875-6.710937-6.566406-3.398437-24.46875-7.328125-22.175781-17.277344 2.316406-10.054687 19.617187-7.359375 26.101563-4.203125 7.304687 3.558594 15.066406 3.113282 15.835937-7.257812.824219-11.140625-11.570313-13.472656-20.332031-14.425782-11.660156-1.265624-23.792969.179688-33.613282 7.054688-7.136718 4.996094-10.703124 12.535156-10.703124 22.621094 0 18.128906 14.648437 26.433594 29.332031 32.902344 6.34375 2.796874 18.714843 8.484374 15.453125 17.648437-2.824219 7.9375-15.765625 7.433594-21.808594 4.8125-7.464844-3.226563-12.660156-13.171875-21.042969-6.902344-9.921875 7.414063-1.96875 18.035157 5.773438 22.335938 6.847656 3.804687 14.890625 5.710937 24.121093 5.710937 10.65625 0 19.265626-2.734375 25.832032-8.199218 6.566406-5.46875 9.851562-13.105469 9.851562-22.917969 0-9.503907-3.8125-19.441407-11.703125-25.191407zm0 0"/><path d="m310.523438 112.679688c9.128906 0 9.222656-19.410157 0-19.410157h-50.8125c-4.144532 0-9.707032 1.804688-9.707032 6.851563v90.636718c0 5.046876 5.5625 6.847657 9.707032 6.847657h50.8125c9.222656 0 9.128906-19.410157 0-19.410157h-38.25v-24.265624h21.410156c9.050781 0 8.964844-17.125 0-17.125h-21.410156v-24.125zm0 0"/><path d="m341.496094 190.328125c13.242187 11.265625 37.730468 11.25 50.957031 0 6.375-5.425781 9.5625-13.9375 9.5625-25.550781v-37.824219c0-11.609375-3.1875-20.125-9.5625-25.550781-13.246094-11.265625-37.730469-11.253906-50.957031 0-6.375 5.425781-9.5625 13.941406-9.5625 25.550781v37.824219c0 11.613281 3.1875 20.125 9.5625 25.550781zm12.703125-63.375c0-18.75 25.550781-18.730469 25.550781 0v37.824219c0 18.710937-25.550781 18.777344-25.550781 0zm0 0"/><path d="m355.296875 62.59375c7.699219 5.039062 17.949219-2.242188 15.460937-11.175781-1.164062-4.179688-4.960937-7.234375-9.304687-7.449219-4.339844-.21875-8.429687 2.457031-9.992187 6.503906-1.691407 4.394532-.085938 9.503906 3.835937 12.121094zm0 0"/></svg>