<svg height="978pt" viewBox="-65 1 978 978.647" width="978pt" xmlns="http://www.w3.org/2000/svg"><path d="m832.496094 928.582031v-878.164062c-.089844-18.796875-15.304688-34.011719-34.101563-34.101563h-682.363281c-18.796875.089844-34.011719 15.304688-34.101562 34.101563v80.117187h65.269531v65.265625h-65.269531v97.898438h65.269531v65.269531h-65.269531v97.898438h65.269531v65.265624h-65.269531v97.898438h65.269531v65.269531h-65.269531v97.898438h65.269531v65.265625h-65.269531v80.117187c.089843 18.796875 15.304687 34.011719 34.101562 34.101563h682.363281c18.796875-.089844 34.011719-15.304688 34.101563-34.101563zm-391.597656-129.066406h-228.433594v-228.433594h228.433594zm0-391.597656h-228.433594v-228.433594h228.433594zm326.332031 391.597656h-228.433594v-228.433594h228.433594zm0-391.597656h-228.433594v-228.433594h228.433594zm0 0" fill="#ffeb99"/><path d="m147.195312 130.535156h-130.53125v65.265625h130.53125zm0 0" fill="#603913"/><path d="m147.195312 293.699219h-130.53125v65.269531h130.53125zm0 0" fill="#603913"/><path d="m147.195312 456.867188h-130.53125v65.265624h130.53125zm0 0" fill="#603913"/><path d="m147.195312 620.03125h-130.53125v65.269531h130.53125zm0 0" fill="#603913"/><path d="m147.195312 783.199219h-130.53125v65.269531h130.53125zm0 0" fill="#603913"/><path d="m212.464844 407.917969h228.433594v-228.433594h-228.433594zm114.214844-195.800781v81.582031zm0 0" fill="#66a7f6"/><path d="m538.796875 407.917969h228.433594v-228.433594h-228.433594zm195.800781-114.21875" fill="#e03352"/><path d="m212.464844 799.515625h228.433594v-228.433594h-228.433594zm187.394531-187.394531-73.179687 73.179687 65.265624 65.265625-65.265624-65.265625-65.265626 65.265625 65.265626-65.265625-73.179688-73.179687 73.179688 73.179687zm0 0" fill="#ffd422"/><path d="m538.796875 799.515625h228.433594v-228.433594h-228.433594zm195.800781-81.582031" fill="#fff"/><g fill="#231f20"><path d="m798.394531 0h-682.363281c-27.832031.0273438-50.390625 22.585938-50.417969 50.417969v63.796875h-48.949219c-9.011718 0-16.316406 7.308594-16.316406 16.320312v65.265625c0 9.011719 7.304688 16.316407 16.316406 16.316407h48.949219v65.265624h-48.949219c-9.011718 0-16.316406 7.308594-16.316406 16.316407v65.269531c0 9.011719 7.304688 16.316406 16.316406 16.316406h48.949219v65.265625h-48.949219c-9.011718 0-16.316406 7.304688-16.316406 16.316407v65.269531c0 9.011719 7.304688 16.316406 16.316406 16.316406h48.949219v65.265625h-48.949219c-9.011718 0-16.316406 7.304688-16.316406 16.316406v65.269532c0 9.007812 7.304688 16.316406 16.316406 16.316406h48.949219v65.265625h-48.949219c-9.011718 0-16.316406 7.304687-16.316406 16.316406v65.265625c0 9.011719 7.304688 16.320312 16.316406 16.320312h48.949219v63.796876c.027344 27.832031 22.585938 50.390624 50.417969 50.417968h682.363281c27.835938-.027344 50.390625-22.585937 50.417969-50.417968v-878.167969c-.027344-27.832031-22.582031-50.3906252-50.417969-50.417969zm-765.414062 146.847656h97.898437v32.636719h-97.898437zm0 163.167969h97.898437v32.632813h-97.898437zm0 163.167969h97.898437v32.632812h-97.898437zm0 163.167968h97.898437v32.632813h-97.898437zm0 163.164063h97.898437v32.632813h-97.898437zm783.199219 129.066406c-.007813 9.816407-7.964844 17.777344-17.785157 17.785157h-682.363281c-9.816406-.007813-17.773438-7.96875-17.785156-17.785157v-63.796875h48.949218c9.011719 0 16.320313-7.308594 16.320313-16.320312v-65.265625c0-9.011719-7.308594-16.316407-16.320313-16.316407h-48.949218v-65.265624h48.949218c9.011719 0 16.320313-7.308594 16.320313-16.316407v-65.269531c0-9.011719-7.308594-16.316406-16.320313-16.316406h-48.949218v-65.265625h48.949218c9.011719 0 16.320313-7.304688 16.320313-16.316407v-65.265624c0-9.011719-7.308594-16.316407-16.320313-16.316407h-48.949218v-65.269531h48.949218c9.011719 0 16.320313-7.304688 16.320313-16.316406v-65.265625c0-9.011719-7.308594-16.316407-16.320313-16.316407h-48.949218v-65.265624h48.949218c9.011719 0 16.320313-7.308594 16.320313-16.320313v-65.265625c0-9.011719-7.308594-16.316406-16.320313-16.316406h-48.949218v-63.796875c.011718-9.816407 7.96875-17.777344 17.785156-17.785157h682.363281c9.820313.007813 17.777344 7.96875 17.785157 17.785157zm0 0"/><path d="m440.898438 163.167969h-228.433594c-9.011719 0-16.316406 7.304687-16.316406 16.316406v228.433594c0 9.011719 7.304687 16.316406 16.316406 16.316406h228.433594c9.011718 0 16.316406-7.304687 16.316406-16.316406v-228.433594c0-9.011719-7.304688-16.316406-16.316406-16.316406zm-16.316407 228.433593h-195.800781v-195.800781h195.800781zm0 0"/><path d="m767.230469 163.167969h-228.433594c-9.011719 0-16.316406 7.304687-16.316406 16.316406v228.433594c0 9.011719 7.304687 16.316406 16.316406 16.316406h228.433594c9.011719 0 16.316406-7.304687 16.316406-16.316406v-228.433594c0-9.011719-7.304687-16.316406-16.316406-16.316406zm-16.316407 228.433593h-195.800781v-195.800781h195.800781zm0 0"/><path d="m440.898438 554.765625h-228.433594c-9.011719 0-16.316406 7.308594-16.316406 16.320313v228.429687c0 9.011719 7.304687 16.320313 16.316406 16.320313h228.433594c9.011718 0 16.316406-7.308594 16.316406-16.320313v-228.429687c0-9.015626-7.304688-16.320313-16.316406-16.320313zm-16.316407 228.433594h-195.800781v-195.800781h195.800781zm0 0"/><path d="m767.230469 554.765625h-228.433594c-9.011719 0-16.316406 7.308594-16.316406 16.320313v228.429687c0 9.011719 7.304687 16.320313 16.316406 16.320313h228.433594c9.011719 0 16.316406-7.308594 16.316406-16.320313v-228.429687c0-9.015626-7.304687-16.320313-16.316406-16.320313zm-16.316407 228.433594h-195.800781v-195.800781h195.800781zm0 0"/><path d="m310.363281 375.285156h32.632813v-65.269531h65.269531v-32.632813h-65.269531v-65.265624h-32.632813v65.265624h-65.265625v32.632813h65.265625zm0 0"/><path d="m571.429688 277.382812h163.167968v32.632813h-163.167968zm0 0"/><path d="m571.429688 636.351562h163.167968v32.632813h-163.167968zm0 0"/><path d="m571.429688 701.617188h163.167968v32.632812h-163.167968zm0 0"/><path d="m249.878906 739.03125 23.070313 23.070312 53.730469-53.730468 53.730468 53.730468 23.074219-23.070312-53.730469-53.730469 61.644532-61.644531-23.074219-23.070312-61.644531 61.640624-61.644532-61.640624-23.070312 23.070312 61.644531 61.644531zm0 0"/></g></svg>