<svg height="496pt" viewBox="0 0 496 496" width="496pt" xmlns="http://www.w3.org/2000/svg"><path d="m344 440h-208v16c0 17.671875-14.328125 32-32 32s-32-14.328125-32-32v-400h208v-16c0-17.671875 14.328125-32 32-32s32 14.328125 32 32zm0 0" fill="#b8cbd9"/><path d="m288 224h176c13.257812 0 24 10.742188 24 24s-10.742188 24-24 24h-176" fill="#976947"/><path d="m288 224h40v48h-40zm0 0" fill="#c18e59"/><path d="m72 349.246094c10.464844 1.769531 21.136719 2.753906 32 2.753906 128.128906 0 216-127.152344 216-284 0-20.488281-1.816406-40.457031-5.183594-59.710938-.945312-.089843-1.847656-.289062-2.816406-.289062-17.671875 0-32 14.328125-32 32v16h-208zm0 0" fill="#e8eff4"/><path d="m296 248c0 53.019531-42.980469 96-96 96s-96-42.980469-96-96 42.980469-96 96-96 96 42.980469 96 96zm0 0" fill="#8bd2f5"/><path d="m104 488c17.671875 0 32-14.328125 32-32v-16h272v16c0 17.671875-14.328125 32-32 32zm0 0" fill="#8892a0"/><path d="m312 8c-17.671875 0-32 14.328125-32 32v16h-272v-16c0-17.671875 14.328125-32 32-32zm0 0" fill="#b8cbd9"/><path d="m376 496h-272c-22.054688 0-40-17.945312-40-40v-400h16v400c0 13.230469 10.769531 24 24 24s24-10.769531 24-24v-16c0-4.425781 3.574219-8 8-8h272c4.425781 0 8 3.574219 8 8v16c0 22.054688-17.945312 40-40 40zm-240.015625-16h240.015625c13.230469 0 24-10.769531 24-24v-8h-256v8c0 9-2.984375 17.3125-8.015625 24zm0 0"/><path d="m336 272h16v168h-16zm0 0"/><path d="m352 224h-16v-184c0-13.230469-10.769531-24-24-24s-24 10.769531-24 24v16c0 4.425781-3.574219 8-8 8h-272c-4.425781 0-8-3.574219-8-8v-16c0-22.054688 17.945312-40 40-40h272c22.054688 0 40 17.945312 40 40zm-336-176h256v-8c0-9 2.984375-17.3125 8.015625-24h-240.015625c-13.230469 0-24 10.769531-24 24zm0 0"/><path d="m200 352c-57.34375 0-104-46.65625-104-104s46.65625-104 104-104 104 46.65625 104 104-46.65625 104-104 104zm0-192c-48.519531 0-88 39.480469-88 88s39.480469 88 88 88 88-39.480469 88-88-39.480469-88-88-88zm0 0"/><path d="m464 280h-176v-16h176c8.824219 0 16-7.175781 16-16s-7.175781-16-16-16h-176v-16h176c17.648438 0 32 14.351562 32 32s-14.351562 32-32 32zm0 0"/><path d="m320 224h16v48h-16zm0 0"/><path d="m192 272h16v48h-16zm0 0"/><path d="m192 240h16v16h-16zm0 0"/><path d="m224 272h16v48h-16zm0 0"/><path d="m160 288h16v32h-16zm0 0"/><path d="m160 256h16v16h-16zm0 0"/><path d="m129.511719 240h-1.511719v-16h1.511719c37.328125 0 72.449219-16.449219 96.335937-45.128906l12.296875 10.25c-26.945312 32.335937-66.535156 50.878906-108.632812 50.878906zm0 0"/><path d="m224 240h16v16h-16zm0 0"/><path d="m240 224h-16v-32h-32v-16h40c4.425781 0 8 3.574219 8 8zm0 0"/><path d="m288 144c-17.648438 0-32-14.351562-32-32s14.351562-32 32-32 32 14.351562 32 32-14.351562 32-32 32zm0-48c-8.824219 0-16 7.175781-16 16s7.175781 16 16 16 16-7.175781 16-16-7.175781-16-16-16zm0 0"/><path d="m120 128c-13.230469 0-24-10.769531-24-24s10.769531-24 24-24 24 10.769531 24 24-10.769531 24-24 24zm0-32c-4.414062 0-8 3.585938-8 8s3.585938 8 8 8 8-3.585938 8-8-3.585938-8-8-8zm0 0"/><path d="m233.757812 163 32-40.003906 12.5 10-32 40.003906zm0 0"/><path d="m120 416c-13.230469 0-24-10.769531-24-24s10.769531-24 24-24 24 10.769531 24 24-10.769531 24-24 24zm0-32c-4.414062 0-8 3.585938-8 8s3.585938 8 8 8 8-3.585938 8-8-3.585938-8-8-8zm0 0"/><path d="m288 416c-17.648438 0-32-14.351562-32-32s14.351562-32 32-32 32 14.351562 32 32-14.351562 32-32 32zm0-48c-8.824219 0-16 7.175781-16 16s7.175781 16 16 16 16-7.175781 16-16-7.175781-16-16-16zm0 0"/><path d="m249.144531 332.121094 13.71875-8.230469 24.003907 40-13.722657 8.230469zm0 0"/><path d="m121.832031 378.882812 40.007813-47.992187 12.296875 10.25-40.007813 47.992187zm0 0"/><path d="m121.753906 124.996094 12.503906-10 32 40.003906-12.503906 10zm0 0"/></svg>