<svg xmlns="http://www.w3.org/2000/svg" viewBox="0 0 704.44 363.62"><defs><style>.cls-1{opacity:0.6;}.cls-2,.cls-6{fill:#fff;}.cls-2{opacity:0.7;}.cls-3{fill:#231f20;}.cls-4{fill:#d1d3d4;}.cls-5{fill:#f1f2f2;}.cls-7{fill:#e6e7e8;}.cls-8{fill:#a7a9ac;}.cls-9{fill:#ffd248;}.cls-10{fill:#bcbec0;}.cls-11{fill:#939598;}.cls-12{fill:#18affe;}.cls-13{fill:#ffc300;}.cls-14{fill:#ffcb31;}</style></defs><title>Asset 4</title><g id="Layer_2" data-name="Layer 2"><g id="banner"><g class="cls-1"><path class="cls-2" d="M436.91,88A87.95,87.95,0,1,1,349,0,87.95,87.95,0,0,1,436.91,88Z"/><path class="cls-2" d="M678.75,171.56A74.72,74.72,0,1,1,604,96.84,74.72,74.72,0,0,1,678.75,171.56Z"/><path class="cls-2" d="M194.2,163.71a74.62,74.62,0,1,1-74.62-74.62A74.62,74.62,0,0,1,194.2,163.71Z"/><path class="cls-2" d="M330,209.34a88,88,0,1,1-87.95-87.95A87.95,87.95,0,0,1,330,209.34Z"/><path class="cls-2" d="M225.28,280.47a56.78,56.78,0,1,1-56.78-56.78A56.78,56.78,0,0,1,225.28,280.47Z"/><path class="cls-2" d="M568.8,287.06A56.78,56.78,0,1,1,512,230.28,56.78,56.78,0,0,1,568.8,287.06Z"/><path class="cls-2" d="M548.8,197.69a87.95,87.95,0,1,1-87.95-87.95A87.95,87.95,0,0,1,548.8,197.69Z"/></g><path class="cls-3" d="M305.4,89.4c-.41-1.27-.78-2.58-1.09-3.88l3.46-.82c.29,1.2.63,2.42,1,3.6Z"/><path class="cls-3" d="M392.78,78.65l-3.54-.32c.12-1.35.18-2.74.18-4.11,0-1.1,0-2.21-.11-3.3l3.54-.26c.09,1.17.13,2.37.13,3.56C393,75.7,392.91,77.19,392.78,78.65Zm-89.66-1c-.08-1.13-.12-2.27-.12-3.39,0-1.53.07-3.08.21-4.59l3.55.32c-.14,1.41-.2,2.85-.2,4.27,0,1,0,2.1.11,3.15Zm85.06-14a45.56,45.56,0,0,0-2.32-7l3.27-1.39a47.94,47.94,0,0,1,2.5,7.6ZM308,62.66l-3.44-.9a48.56,48.56,0,0,1,2.67-7.54l3.24,1.46A44.84,44.84,0,0,0,308,62.66ZM382.4,50a43.75,43.75,0,0,0-4.51-5.87l2.63-2.4a47.08,47.08,0,0,1,4.87,6.35Zm-68.29-.81-2.95-2a46.62,46.62,0,0,1,5-6.23l2.56,2.46A43.8,43.8,0,0,0,314.11,49.21Zm58.34-10.05a41.2,41.2,0,0,0-6.23-4L367.84,32a44,44,0,0,1,6.77,4.3Zm-48.14-.59-2.1-2.87a45.34,45.34,0,0,1,6.87-4.13l1.55,3.2A41.86,41.86,0,0,0,324.31,38.57Zm35.07-6.12A40.34,40.34,0,0,0,352.16,31l.37-3.53A43.88,43.88,0,0,1,360.4,29Zm-21.85-.27-.94-3.43a43.23,43.23,0,0,1,7.91-1.38l.29,3.54A40.26,40.26,0,0,0,337.53,32.18Z"/><path class="cls-3" d="M390.21,90.49l-3.36-1.18c.42-1.17.79-2.38,1.1-3.58l3.44.9C391.05,87.93,390.65,89.23,390.21,90.49Z"/><path class="cls-3" d="M194.84,185.65l-2.13-2.85,54.72-41a1.77,1.77,0,0,1,1.65-.26l86.63,30.21-1.17,3.35L248.8,145.18Z"/><path class="cls-3" d="M457.09,175.74a1.65,1.65,0,0,1-.58-.1l-86.63-30.2,1.16-3.36L456.78,172l54-40.46,2.13,2.84-54.71,41A1.8,1.8,0,0,1,457.09,175.74Z"/><path class="cls-4" d="M456.58,197.79a10,10,0,0,0-10.22-9.88H250.48a10,10,0,0,0-10.23,9.88v143.4H456.58Z"/><path class="cls-5" d="M223.94,341.19v10.06c0,5.55,5.33,10.6,11.72,10.6H461.18c6.4,0,11.71-5.05,11.71-10.6V341.19Z"/><path class="cls-3" d="M461.18,363.62H235.66c-7.19,0-13.49-5.78-13.49-12.37V341.19a1.78,1.78,0,0,1,1.77-1.78h249a1.78,1.78,0,0,1,1.78,1.78v10.06C474.67,358,468.49,363.62,461.18,363.62ZM225.72,343v8.28c0,4.7,4.65,8.82,9.94,8.82H461.18c5.29,0,9.93-4.12,9.93-8.82V343Z"/><rect class="cls-6" x="255.47" y="200.95" width="185.9" height="123.93"/><path class="cls-3" d="M441.36,326.66H255.47a1.78,1.78,0,0,1-1.78-1.77V201a1.78,1.78,0,0,1,1.78-1.77H441.36a1.77,1.77,0,0,1,1.78,1.77V324.89A1.77,1.77,0,0,1,441.36,326.66Zm-184.11-3.55H439.59V202.73H257.25Z"/><rect class="cls-3" x="335.92" y="349.2" width="25" height="3.55"/><g class="cls-1"><rect class="cls-7" x="267.43" y="211.83" width="163.07" height="33.7"/><rect class="cls-7" x="267.43" y="256.4" width="108.71" height="28.26"/><rect class="cls-7" x="385.92" y="256.4" width="43.48" height="28.26"/><rect class="cls-7" x="267.43" y="294.45" width="161.98" height="16.31"/></g><path class="cls-7" d="M411.21,177.46a62.93,62.93,0,0,0-62.93-62.89c-34.73,0-63.24,28.16-63.24,62.88,0,30.76,22.61,56.34,50.88,61.81v85.63h23.91V239.3A62.75,62.75,0,0,0,411.21,177.46Z"/><path class="cls-3" d="M359.83,326.66H335.92a1.77,1.77,0,0,1-1.78-1.77V240.71c-29.11-6.36-50.88-33.28-50.88-63.26,0-35.65,29.17-64.66,65-64.66a64.68,64.68,0,0,1,13.33,128v84.12A1.78,1.78,0,0,1,359.83,326.66Zm-22.14-3.55h20.36V239.3a1.79,1.79,0,0,1,1.46-1.75,61.12,61.12,0,0,0-11.23-121.2c-33.89,0-61.47,27.41-61.47,61.1,0,28.8,21.26,54.61,49.44,60.06a1.78,1.78,0,0,1,1.44,1.75Z"/><rect class="cls-3" x="335.92" y="237.23" width="13.04" height="3.55"/><rect class="cls-8" x="328.31" y="256.4" width="40.22" height="53.27"/><rect class="cls-3" x="334.83" y="266.58" width="26.09" height="3.55"/><rect class="cls-3" x="334.83" y="280.71" width="26.09" height="3.55"/><rect class="cls-3" x="334.83" y="294.84" width="26.09" height="3.55"/><path class="cls-9" d="M396.21,177.91a47.64,47.64,0,1,1-47.64-47.64A47.64,47.64,0,0,1,396.21,177.91Z"/><path class="cls-3" d="M348.57,227.33A49.42,49.42,0,1,1,398,177.91,49.48,49.48,0,0,1,348.57,227.33Zm0-95.28a45.86,45.86,0,1,0,45.86,45.86A45.92,45.92,0,0,0,348.57,132.05Z"/><circle class="cls-9" cx="193.49" cy="183.94" r="9.97"/><path class="cls-6" d="M258.18,142.9a10,10,0,1,1-10-10A10,10,0,0,1,258.18,142.9Z"/><path class="cls-3" d="M248.21,154.65A11.75,11.75,0,1,1,260,142.9,11.76,11.76,0,0,1,248.21,154.65Zm0-19.94a8.2,8.2,0,1,0,8.19,8.19A8.2,8.2,0,0,0,248.21,134.71Z"/><path class="cls-8" d="M466.78,173.68a10,10,0,1,1-10-10A10,10,0,0,1,466.78,173.68Z"/><path class="cls-6" d="M521.49,132.64a10,10,0,1,1-10-10A10,10,0,0,1,521.49,132.64Z"/><path class="cls-3" d="M511.52,144.4a11.76,11.76,0,1,1,11.75-11.76A11.77,11.77,0,0,1,511.52,144.4Zm0-20a8.2,8.2,0,1,0,8.2,8.19A8.21,8.21,0,0,0,511.52,124.45Z"/><path class="cls-8" d="M531.53,291.09a15.68,15.68,0,0,0,.09-31.35c-.1,0,0,0,0,0v31.32S531.44,291.09,531.53,291.09Z"/><rect class="cls-10" x="395.71" y="256.4" width="19.57" height="39.14"/><rect class="cls-5" x="516.38" y="229.22" width="14.13" height="94.58" rx="2.28" ry="2.28"/><path class="cls-3" d="M528.23,325.57h-9.57a4.06,4.06,0,0,1-4.06-4.05v-90a4.06,4.06,0,0,1,4.06-4.06h9.57a4.06,4.06,0,0,1,4,4.06v90A4.06,4.06,0,0,1,528.23,325.57ZM518.66,231a.5.5,0,0,0-.51.5v90a.51.51,0,0,0,.51.5h9.57a.51.51,0,0,0,.5-.5v-90a.5.5,0,0,0-.5-.5Z"/><rect class="cls-11" x="430.49" y="310.75" width="18.48" height="29.35"/><path class="cls-3" d="M449,341.88H430.49a1.77,1.77,0,0,1-1.77-1.78V310.75a1.78,1.78,0,0,1,1.77-1.78H449a1.78,1.78,0,0,1,1.78,1.78V340.1A1.77,1.77,0,0,1,449,341.88Zm-16.7-3.55H447.2v-25.8H432.27Z"/><path class="cls-3" d="M395.71,286.44h-9.79a1.78,1.78,0,0,1-1.78-1.78V267.27a1.78,1.78,0,0,1,1.78-1.78h9.79v3.56h-8v13.83h8Z"/><polygon class="cls-12" points="469.63 251.16 498.98 243.05 498.98 308.35 469.63 300.24 469.63 251.16"/><polygon class="cls-5" points="516.38 238.37 516.38 261.34 516.38 290.06 516.38 313.03 498.98 308.35 498.98 243.05 516.38 238.37"/><path class="cls-3" d="M516.38,314.81a1.89,1.89,0,0,1-.47-.06l-17.39-4.68a1.79,1.79,0,0,1-1.32-1.72v-65.3a1.78,1.78,0,0,1,1.32-1.72l17.39-4.68a1.79,1.79,0,0,1,1.55.31,1.75,1.75,0,0,1,.69,1.41V313a1.78,1.78,0,0,1-.69,1.41A1.81,1.81,0,0,1,516.38,314.81ZM500.76,307l13.84,3.72v-70l-13.84,3.72Z"/><rect class="cls-4" x="415.27" y="241.18" width="54.36" height="69.57" rx="3.42" ry="3.42"/><path class="cls-3" d="M466.21,312.53H418.69a5.2,5.2,0,0,1-5.19-5.2V244.6a5.2,5.2,0,0,1,5.19-5.2h47.52a5.2,5.2,0,0,1,5.2,5.2v62.73A5.2,5.2,0,0,1,466.21,312.53ZM418.69,243a1.65,1.65,0,0,0-1.64,1.65v62.73a1.64,1.64,0,0,0,1.64,1.64h47.52a1.64,1.64,0,0,0,1.64-1.64V244.6a1.65,1.65,0,0,0-1.64-1.65Z"/><path class="cls-6" d="M429.73,287.57a12.16,12.16,0,1,0,12.16-12.16A12.16,12.16,0,0,0,429.73,287.57Z"/><rect class="cls-3" x="425.06" y="251.36" width="33.7" height="3.55"/><rect class="cls-3" x="425.06" y="261.14" width="33.7" height="3.55"/><polygon class="cls-13" points="216.61 316.9 227.02 308.62 269.88 273.79 165.28 273.79 206.58 308.62 216.61 316.9"/><polygon class="cls-14" points="165.24 273.31 165.24 341.11 206.54 308.38 165.24 273.31"/><path class="cls-3" d="M165.24,342.89a1.74,1.74,0,0,1-.77-.18,1.77,1.77,0,0,1-1-1.6v-67.8a1.78,1.78,0,0,1,2.93-1.36L207.69,307a1.75,1.75,0,0,1,.63,1.38,1.83,1.83,0,0,1-.67,1.37L166.34,342.5A1.74,1.74,0,0,1,165.24,342.89ZM167,277.15v60.28l36.72-29.1Z"/><polygon class="cls-14" points="226.74 308.38 269.6 341.11 269.6 273.31 226.74 308.38"/><path class="cls-3" d="M269.6,342.89a1.81,1.81,0,0,1-1.08-.37l-42.86-32.73a1.77,1.77,0,0,1,0-2.78l42.87-35.08a1.78,1.78,0,0,1,2.9,1.38v67.8a1.76,1.76,0,0,1-1,1.59A1.7,1.7,0,0,1,269.6,342.89Zm-40-34.56,38.21,29.19V277.06Z"/><polygon class="cls-14" points="216.61 316.9 206.58 308.42 165.28 341.19 269.88 341.19 227.02 308.42 216.61 316.9"/><path class="cls-3" d="M269.88,343H165.28a1.78,1.78,0,0,1-1.11-3.17L205.47,307a1.79,1.79,0,0,1,2.26,0l8.9,7.53L225.9,307a1.77,1.77,0,0,1,2.2,0L271,339.78a1.76,1.76,0,0,1,.6,2A1.78,1.78,0,0,1,269.88,343Zm-99.5-3.56h94.25l-37.58-28.72-9.32,7.59a1.78,1.78,0,0,1-2.27,0l-8.92-7.54Z"/><polygon class="cls-14" points="473.98 183.56 548.99 183.56 548.99 234.66 510.94 234.66 510.94 252.62 491.87 234.66 473.98 234.66 473.98 183.56"/><rect class="cls-3" x="525.07" y="191.57" width="15.22" height="3.55"/><rect class="cls-3" x="483.76" y="202.44" width="56.53" height="3.55"/><rect class="cls-3" x="483.76" y="214.4" width="56.53" height="3.55"/><rect class="cls-3" x="527.25" y="223.09" width="13.05" height="3.55"/><rect class="cls-3" x="503.33" y="223.09" width="16.31" height="3.55"/><rect class="cls-3" x="483.76" y="223.09" width="14.13" height="3.55"/><rect class="cls-3" x="483.76" y="191.57" width="34.79" height="3.55"/><polygon class="cls-12" points="260.9 214 185.9 214 185.9 265.09 225.03 265.09 225.03 283.39 243.35 265.09 260.9 265.09 260.9 214"/><rect class="cls-3" x="194.59" y="222.01" width="15.22" height="3.55"/><rect class="cls-3" x="194.59" y="233.96" width="57.62" height="3.55"/><rect class="cls-3" x="194.59" y="244.84" width="57.62" height="3.55"/><rect class="cls-3" x="194.59" y="254.62" width="13.04" height="3.55"/><rect class="cls-3" x="215.25" y="254.62" width="16.31" height="3.55"/><rect class="cls-3" x="236.99" y="254.62" width="15.22" height="3.55"/><rect class="cls-3" x="216.33" y="222.01" width="35.87" height="3.55"/><path class="cls-4" d="M592.47,359.39v-6.8a28.71,28.71,0,0,0,3.65-1.52l4.79,4.8a1.16,1.16,0,0,0,1.65,0l6.88-6.89a1.15,1.15,0,0,0,0-1.64l-4.81-4.73a28.06,28.06,0,0,0,1.52-3.59H613a1.41,1.41,0,0,0,1.26-1.35v-9.74c0-.64-.61-.87-1.26-.87h-6.8a30.72,30.72,0,0,0-1.52-3.83l4.81-4.88a1.23,1.23,0,0,0,0-1.69l-6.89-6.91a1.17,1.17,0,0,0-1.65,0l-4.78,4.81a30.49,30.49,0,0,0-3.65-1.54v-6.8c0-.64-.58-.89-1.23-.89H581.5c-.65,0-1,.25-1,.89V313a31.76,31.76,0,0,0-3.77,1.53l-4.86-4.8a1.18,1.18,0,0,0-1.67,0l-6.9,6.88a1.17,1.17,0,0,0,0,1.65l4.81,5a30.84,30.84,0,0,0-1.53,3.83h-6.8c-.65,0-1,.23-1,.87v9.74c0,.65.36,1.35,1,1.35h6.8a28.17,28.17,0,0,0,1.53,3.59l-4.81,4.77a1.14,1.14,0,0,0,0,1.63l6.89,6.88a1.17,1.17,0,0,0,1.65,0l4.9-4.81a30,30,0,0,0,3.77,1.52v6.8c0,.65.34,1.37,1,1.37h9.74A1.4,1.4,0,0,0,592.47,359.39Z"/><path class="cls-5" d="M586.12,341.87a8.75,8.75,0,1,1,8.74-8.74A8.74,8.74,0,0,1,586.12,341.87Z"/><path class="cls-3" d="M586.12,343.65a10.52,10.52,0,1,1,10.52-10.52A10.53,10.53,0,0,1,586.12,343.65Zm0-17.49a7,7,0,1,0,7,7A7,7,0,0,0,586.12,326.16Z"/><path class="cls-4" d="M132.63,184.61v-6.8a9.72,9.72,0,0,0,3.88-1.53l4.9,4.81a1.22,1.22,0,0,0,1.7,0L150,174.2a1.16,1.16,0,0,0,0-1.64l-4.8-4.85a29,29,0,0,0,1.53-3.72h6.8c.64,0,.8-.45.8-1.1v-9.74c0-.64-.16-1.12-.8-1.12h-6.8a28,28,0,0,0-1.53-3.7l4.81-4.82a1.17,1.17,0,0,0,0-1.66L143.16,135a1.16,1.16,0,0,0-1.65,0l-5,4.8a10,10,0,0,0-3.88-1.53v-6.8c0-.64-.13-1.14-.77-1.14h-9.75c-.64,0-1.44.5-1.44,1.14v6.8a28.47,28.47,0,0,0-3.54,1.53L112.38,135a1.11,1.11,0,0,0-1.61,0l-6.87,6.89a1.17,1.17,0,0,0,0,1.65l4.82,4.84a30.94,30.94,0,0,0-1.53,3.7H100.4c-.65,0-1.47.48-1.47,1.12v9.74c0,.65.82,1.1,1.47,1.1h6.79a29.1,29.1,0,0,0,1.54,3.72l-4.82,4.83a1.18,1.18,0,0,0,0,1.65l6.89,6.9a1.16,1.16,0,0,0,1.65,0l4.68-4.81a25.76,25.76,0,0,0,3.54,1.53v6.8c0,.64.8,1.13,1.44,1.13h9.75C132.5,185.74,132.63,185.25,132.63,184.61Z"/><path class="cls-5" d="M126.73,167.09a8.75,8.75,0,1,1,8.74-8.74A8.75,8.75,0,0,1,126.73,167.09Z"/><path class="cls-3" d="M126.73,168.86a10.52,10.52,0,1,1,10.52-10.51A10.52,10.52,0,0,1,126.73,168.86Zm0-17.48a7,7,0,1,0,7,7A7,7,0,0,0,126.73,151.38Z"/><path class="cls-12" d="M647.16,170.52a37.65,37.65,0,0,0-37.29-37.58v37.58Z"/><path class="cls-7" d="M636.38,197.08a37.62,37.62,0,0,0,10.78-26.41v-.15H609.83Z"/><path class="cls-4" d="M609.87,170.55V132.94h-.45a37.76,37.76,0,1,0,27,64.17Z"/><rect class="cls-3" x="609.87" y="141.56" width="13.04" height="3.55"/><rect class="cls-3" x="609.87" y="150.26" width="21.74" height="3.55"/><rect class="cls-3" x="609.87" y="160.04" width="28.26" height="3.55"/><path class="cls-3" d="M609.25,207.88a39.5,39.5,0,0,1-39.34-37.76h-47v-3.56h48.75a1.78,1.78,0,0,1,1.78,1.78,35.94,35.94,0,0,0,35.82,36Z"/><rect class="cls-5" x="119.58" y="333.58" width="19.57" height="28.26"/><path class="cls-3" d="M139.15,363.62H119.58a1.78,1.78,0,0,1-1.78-1.77V333.58a1.78,1.78,0,0,1,1.78-1.78h19.57a1.78,1.78,0,0,1,1.78,1.78v28.27A1.78,1.78,0,0,1,139.15,363.62Zm-17.79-3.55h16V335.36h-16Z"/><rect class="cls-5" x="89.14" y="307.49" width="18.48" height="54.36"/><path class="cls-3" d="M107.62,363.62H89.14a1.78,1.78,0,0,1-1.78-1.77V307.49a1.78,1.78,0,0,1,1.78-1.78h18.48a1.78,1.78,0,0,1,1.78,1.78v54.36A1.77,1.77,0,0,1,107.62,363.62Zm-16.7-3.55h14.93v-50.8H90.92Z"/><rect class="cls-9" x="57.62" y="283.57" width="18.48" height="78.27"/><line class="cls-5" x1="51.09" y1="361.85" x2="183.72" y2="361.85"/><rect class="cls-3" x="51.09" y="360.07" width="132.63" height="3.55"/><line class="cls-5" x1="163.07" y1="132.47" x2="203.29" y2="132.47"/><rect class="cls-3" x="163.07" y="130.69" width="40.22" height="3.55"/><line class="cls-5" x1="165.24" y1="155.3" x2="185.89" y2="155.3"/><rect class="cls-3" x="165.24" y="153.52" width="20.66" height="3.55"/><line class="cls-5" x1="553.34" y1="358.58" x2="513.11" y2="358.58"/><rect class="cls-3" x="513.11" y="356.81" width="40.22" height="3.55"/><line class="cls-5" x1="550.08" y1="337.93" x2="531.59" y2="337.93"/><rect class="cls-3" x="531.59" y="336.15" width="18.48" height="3.55"/><path class="cls-3" d="M140.63,251.27l-7.56-6.67a1.78,1.78,0,0,1-.61-1.34,1.82,1.82,0,0,1,.62-1.34l7.57-6.52,2.32,2.69-6,5.19,6,5.32Z"/><rect class="cls-3" x="134.8" y="241.57" width="34.79" height="3.55"/><rect class="cls-3" x="175.02" y="241.57" width="11.96" height="3.55"/><path class="cls-3" d="M101.88,230.66,94.31,224a1.81,1.81,0,0,1-.6-1.35,1.75,1.75,0,0,1,.62-1.33l7.56-6.53,2.32,2.7-6,5.19,6,5.31Z"/><rect class="cls-3" x="95.67" y="220.92" width="36.96" height="3.55"/><path class="cls-3" d="M116.32,273.33l-7.57-6.67a1.72,1.72,0,0,1-.6-1.34,1.81,1.81,0,0,1,.61-1.34l7.57-6.52,2.32,2.69-6,5.19,6,5.32Z"/><rect class="cls-3" x="109.8" y="263.32" width="41.31" height="3.55"/><rect class="cls-3" x="138.06" y="220.92" width="9.78" height="3.55"/><path class="cls-3" d="M571.51,272.11l-2.32-2.69,6-5.19-6-5.32,2.35-2.66,7.56,6.66a1.73,1.73,0,0,1,.6,1.34,1.76,1.76,0,0,1-.61,1.34Z"/><rect class="cls-3" x="542.47" y="262.23" width="35.87" height="3.55"/><rect class="cls-3" x="525.07" y="262.23" width="11.96" height="3.55"/><path class="cls-3" d="M610.27,295,608,292.3l6-5.19-6-5.31,2.35-2.67,7.57,6.67a1.78,1.78,0,0,1,0,2.68Z"/><rect class="cls-3" x="580.51" y="285.06" width="35.87" height="3.55"/><path class="cls-3" d="M595.83,247.77l-2.32-2.69,6-5.19-6-5.32,2.35-2.67,7.57,6.67a1.78,1.78,0,0,1,0,2.68Z"/><rect class="cls-3" x="560.95" y="238.31" width="42.4" height="3.55"/><rect class="cls-3" x="564.21" y="285.06" width="9.78" height="3.55"/><rect class="cls-3" x="525.07" y="154.61" width="23.92" height="3.55"/><rect class="cls-3" x="503.33" y="166.56" width="10.87" height="3.55"/><rect class="cls-3" x="190.24" y="360.07" width="8.7" height="3.55"/><path class="cls-6" d="M358.54,136.82h-20s2.94,64.24-23.27,72c0,0,12.39,15.42,33.27,14.42,18.23,1.24,33.27-13.91,33.27-13.91C355.65,201.57,358.54,136.82,358.54,136.82Z"/><path class="cls-8" d="M370.7,76.19c0-.19-22.28-34.66-22.28-34.66S326.13,76,326.13,76.19v-.25H370.7Z"/><path class="cls-3" d="M370.7,86.41H326.13a1.78,1.78,0,0,1-1.78-1.78V75.94a1.78,1.78,0,0,1,1.78-1.78H370.7a1.78,1.78,0,0,1,1.78,1.78v8.69A1.78,1.78,0,0,1,370.7,86.41Zm-42.79-3.55h41V77.71h-41Z"/><polygon class="cls-6" points="389.13 114.58 370.7 88.62 370.7 114.4 370.7 120.51 393.25 120.51 389.13 114.58"/><path class="cls-3" d="M393.25,122.29H370.7a1.78,1.78,0,0,1-1.77-1.78V88.62a1.77,1.77,0,0,1,3.22-1l18.43,26,4.13,5.94a1.78,1.78,0,0,1-1.46,2.8Zm-20.77-3.56h17.37l-2.18-3.14L372.48,94.2Z"/><polygon class="cls-6" points="307.85 114.58 303.88 120.51 326.13 120.51 326.13 114.4 326.13 88.62 307.85 114.58"/><path class="cls-3" d="M326.13,122.29H303.88a1.78,1.78,0,0,1-1.48-2.77l4-5.93,18.3-26a1.78,1.78,0,0,1,3.23,1v31.89A1.78,1.78,0,0,1,326.13,122.29Zm-18.92-3.56h17.14V94.23l-15,21.37Z"/><path class="cls-6" d="M326.13,84.63v35c0,6.69,5.7,11.79,12.4,11.79h-.44v5.44h20.65v-5.44h-.13a11.82,11.82,0,0,0,12.09-11.79v-35Z"/><path class="cls-3" d="M358.74,138.59H338.09a1.78,1.78,0,0,1-1.78-1.77V133a13.79,13.79,0,0,1-12-13.4v-35a1.78,1.78,0,0,1,1.78-1.77H370.7a1.78,1.78,0,0,1,1.78,1.77v35a13.52,13.52,0,0,1-12,13.45v3.78A1.77,1.77,0,0,1,358.74,138.59ZM339.87,135H357v-3a1.72,1.72,0,0,1-.14-.68,1.78,1.78,0,0,1,1.78-1.78,10.07,10.07,0,0,0,10.32-10V86.41h-41v33.18c0,5.52,4.76,10,10.62,10a1.79,1.79,0,0,1,1.34,3Z"/><path class="cls-4" d="M358.47,103.29a10.05,10.05,0,1,1-10.05-10.05A10.05,10.05,0,0,1,358.47,103.29Z"/><rect class="cls-3" x="342.44" y="123.08" width="11.96" height="3.55"/><path class="cls-3" d="M336.18,181.74l-3.37-1.15c4-11.63,4-43.91,4-44.24h3.56C340.37,137.7,340.34,169.55,336.18,181.74Z"/><path class="cls-3" d="M366.23,196.53c-8.08-12.47-9.48-48.56-9.49-48.92l3.56-.1-1.78.05,1.78-.05c.23,7.4,2.43,37.09,8.92,47.09Z"/><rect class="cls-3" x="326.06" y="190.76" width="8.87" height="3.56" transform="translate(20.25 416.23) rotate(-66.02)"/><path class="cls-3" d="M374.28,207c-1.84-1.34-4.89-5.28-5.23-5.73l2.82-2.16a36,36,0,0,0,4.51,5Z"/><rect class="cls-3" x="347.18" y="145.51" width="3.56" height="38.05"/><rect class="cls-3" x="347.18" y="190.08" width="3.56" height="17.39"/><rect class="cls-3" x="63.05" y="289.41" width="13.05" height="3.55"/><rect class="cls-3" x="63.05" y="307.89" width="13.05" height="3.55"/><rect class="cls-3" x="63.05" y="327.46" width="13.05" height="3.55"/><rect class="cls-3" x="63.05" y="347.02" width="13.05" height="3.55"/><rect class="cls-7" x="635.96" y="224.87" width="16.31" height="16.31"/><rect class="cls-7" x="635.96" y="260.75" width="16.31" height="16.31"/><path class="cls-3" d="M646.17,234.22h0a1.78,1.78,0,0,1-1.26-.56l-3.86-4,2.58-2.45,2.6,2.73,11.29-11.29,2.51,2.52L647.42,233.7A1.77,1.77,0,0,1,646.17,234.22Z"/><path class="cls-3" d="M652.26,243H636a1.77,1.77,0,0,1-1.78-1.77V224.87h3.55V239.4h14.53Z"/><path class="cls-3" d="M646.17,269.55h0a1.73,1.73,0,0,1-1.26-.55L641,264.94l2.58-2.44,2.6,2.73,11.29-11.29,2.51,2.51L647.42,269A1.73,1.73,0,0,1,646.17,269.55Z"/><path class="cls-3" d="M652.26,278.83H636a1.78,1.78,0,0,1-1.78-1.78v-16.3h3.55v14.52h14.53Z"/><rect class="cls-3" x="664.22" y="225.27" width="18.48" height="3.55"/><rect class="cls-3" x="664.22" y="236.14" width="40.22" height="3.55"/><rect class="cls-3" x="664.22" y="262.23" width="18.48" height="3.55"/><rect class="cls-3" x="664.22" y="272.01" width="40.22" height="3.55"/><rect class="cls-7" x="52.18" y="197.69" width="16.31" height="16.31"/><rect class="cls-7" x="52.18" y="233.57" width="16.31" height="15.22"/><path class="cls-3" d="M65.55,206.86h0a1.75,1.75,0,0,1-1.27-.55l-3.85-4.06L63,199.8l2.6,2.74,11.29-11.29,2.52,2.51L66.81,206.34A1.81,1.81,0,0,1,65.55,206.86Z"/><path class="cls-3" d="M70.66,215.78H54.36A1.78,1.78,0,0,1,52.58,214V197.69h3.55v14.53H70.66Z"/><path class="cls-3" d="M65.55,242.2h0a1.8,1.8,0,0,1-1.27-.56l-3.85-4L63,235.14l2.6,2.73,11.29-11.29,2.52,2.52L66.81,241.68A1.81,1.81,0,0,1,65.55,242.2Z"/><path class="cls-3" d="M70.66,250.56H54.36a1.77,1.77,0,0,1-1.78-1.77V233.57h3.55V247H70.66Z"/><rect class="cls-3" x="21.74" y="198.09" width="18.48" height="3.55"/><rect class="cls-3" y="208.96" width="40.22" height="3.55"/><rect class="cls-3" x="21.74" y="235.05" width="18.48" height="3.55"/><rect class="cls-3" y="244.84" width="40.22" height="3.55"/><path class="cls-12" d="M440.47,81.82A17.9,17.9,0,0,1,450.67,85a13.23,13.23,0,0,1,7.74-4.32,17.64,17.64,0,0,1-.2-2.64,18,18,0,1,1,35.45,4.25,17.72,17.72,0,0,1,4.15-.44,18.12,18.12,0,0,1,18,18h-93.3A18.12,18.12,0,0,1,440.47,81.82Z"/><path class="cls-3" d="M491.56,86l-1.63-3.15c.33-.18,1.62-1.15,2.62-1.95l2.23,2.77A30.17,30.17,0,0,1,491.56,86Z"/><path class="cls-3" d="M449.92,88a6.07,6.07,0,0,0-.79-2.17l3.07-1.79a9.39,9.39,0,0,1,1.28,3.84Z"/><path class="cls-9" d="M252.82,66.25a17.07,17.07,0,0,0-9.76,3,12.62,12.62,0,0,0-7.4-4.15,17.51,17.51,0,0,0,.19-2.53A17.2,17.2,0,1,0,202,66.62a17.31,17.31,0,0,0-4-.37,17.1,17.1,0,0,0-17.19,17.3H270A17.09,17.09,0,0,0,252.82,66.25Z"/><path class="cls-3" d="M203.91,70.23A29.59,29.59,0,0,1,200.83,68l2.23-2.77a31,31,0,0,0,2.5,1.85Z"/><path class="cls-3" d="M243.85,72.12,240.3,72a9,9,0,0,1,1.23-3.72l3.07,1.79-1.54-.89,1.54.89A6,6,0,0,0,243.85,72.12Z"/><rect class="cls-3" x="468.54" y="98.08" width="60.88" height="3.55"/><rect class="cls-3" x="168.5" y="80.68" width="79.36" height="3.55"/><rect class="cls-3" x="535.94" y="98.08" width="9.78" height="3.55"/><rect class="cls-3" x="153.28" y="80.68" width="8.7" height="3.55"/></g></g></svg>