<svg height="512pt" viewBox="0 0 512.00001 512" width="512pt" xmlns="http://www.w3.org/2000/svg"><path d="m200 392v48c0 17.671875-14.328125 32-32 32h-32v32h240v-32h-32c-17.671875 0-32-14.328125-32-32v-48zm0 0" fill="#cfd8dc"/><path d="m272 392.335938v32c0 8.835937-7.164062 16-16 16s-16-7.164063-16-16v-32zm0 0" fill="#b0bec5"/><path d="m8 344v32c0 8.835938 7.164062 16 16 16h464c8.835938 0 16-7.164062 16-16v-304c0-8.835938-7.164062-16-16-16h-464c-8.835938 0-16 7.164062-16 16zm0 0" fill="#eee"/><path d="m240 328h32v32h-32zm0 0" fill="#e0e0e0"/><path d="m504 72c0-8.835938-7.164062-16-16-16h-464c-8.835938 0-16 7.164062-16 16v224h496zm0 0" fill="#90a4ae"/><path d="m136 472h240v32h-240zm0 0" fill="#eee"/><path d="m112 8h304v288h-304zm0 0" fill="#8edf78"/><path d="m112 8h304v64h-304zm0 0" fill="#90a4ae"/><path d="m80 192h27.671875c5.21875 0 10.109375-2.546875 13.105469-6.824219l20.328125-29.046875c1.882812-2.6875 2.894531-5.886718 2.894531-9.167968v-42.960938c22.089844 0 40 17.910156 40 40v40h64c8.835938 0 16 7.164062 16 16s-7.164062 16-16 16v16c0 8.835938-7.164062 16-16 16v16c0 8.835938-7.164062 16-16 16v16c0 8.835938-7.164062 16-16 16h-52l-32-16h-36zm0 0" fill="#ffdecf"/><path d="m0 176h80v144h-80zm0 0" fill="#a6e7ff"/><path d="m472 200h-40v32l-48-32h-56v-96h144zm0 0" fill="#a6e7ff"/><path d="m504 360c0 44.183594-35.816406 80-80 80s-80-35.816406-80-80 35.816406-80 80-80 80 35.816406 80 80zm0 0" fill="#a6e7ff"/><path d="m424 332.839844c-9.179688-8.984375-23.878906-8.90625-32.960938.175781-9.082031 9.082031-9.160156 23.78125-.175781 32.960937l33.136719 33.136719 33.136719-33.136719c8.984375-9.179687 8.90625-23.878906-.175781-32.960937-9.082032-9.082031-23.78125-9.160156-32.960938-.175781zm0 0" fill="#ff8a65"/><g fill="#fff"><path d="m232 32h160v16h-160zm0 0"/><path d="m200 32h16v16h-16zm0 0"/><path d="m168 32h16v16h-16zm0 0"/><path d="m136 32h16v16h-16zm0 0"/><path d="m32 280h16v16h-16zm0 0"/><path d="m48 128h32v16h-32zm0 0"/><path d="m32 96h32v16h-32zm0 0"/><path d="m360 144h16v16h-16zm0 0"/><path d="m392 144h16v16h-16zm0 0"/><path d="m424 144h16v16h-16zm0 0"/><path d="m208 112h64v16h-64zm0 0"/><path d="m288 112h40v16h-40zm0 0"/><path d="m208 144h32v16h-32zm0 0"/><path d="m256 144h72v16h-72zm0 0"/><path d="m288 224h80v16h-80zm0 0"/><path d="m272 256h48v16h-48zm0 0"/><path d="m336 256h32v16h-32zm0 0"/></g><path d="m488 48h-64v-48h-320v48h-80c-13.253906 0-24 10.746094-24 24v80h16v-80c0-4.417969 3.582031-8 8-8h80v120h-16v-16h-88v16h72v128h-72v16h88v-24h26.113281l32 16h53.886719c10.132812-.042969 19.148438-6.445312 22.527344-16h133.640625c-18.484375 22.25-24.757813 52.203125-16.761719 80h-315.40625c-4.417969 0-8-3.582031-8-8v-32h-16v32c0 13.253906 10.746094 24 24 24h168v40c0 13.253906-10.746094 24-24 24h-40v48h256v-48h-40c-13.253906 0-24-10.746094-24-24v-40h25.710938c18.476562 36.226562 59.375 55.0625 98.914062 45.550781 39.535156-9.511719 67.394531-44.886719 67.375-85.550781v-288c0-13.253906-10.746094-24-24-24zm-240 352h16v24.335938c0 4.417968-3.582031 8-8 8s-8-3.582032-8-8zm-40 40v-40h24v24.335938c0 13.253906 10.746094 24 24 24s24-10.746094 24-24v-24.335938h24v40c.03125 8.683594 2.914062 17.117188 8.207031 24h-112.414062c5.292969-6.882812 8.175781-15.316406 8.207031-24zm136 40h24v16h-224v-16zm-224-464h288v48h-288zm344 96v80h-40v25.046875l-37.601562-25.046875h-50.398438v-80zm-248 160h-20v16h12v8c0 4.417969-3.582031 8-8 8h-50.113281l-32-16h-29.886719v-88h19.664062c7.832032-.003906 15.171876-3.820312 19.671876-10.230469l20.328124-29.050781c2.828126-4.027344 4.34375-8.835938 4.335938-13.757812v-33.953126c14.117188 3.671876 23.976562 16.40625 24 30.992188v48h72c4.417969 0 8 3.582031 8 8s-3.582031 8-8 8h-36v16h28v8c0 4.417969-3.582031 8-8 8h-36v16h28v8c0 4.417969-3.582031 8-8 8zm8 16v-1.367188c9.582031-3.402343 15.988281-12.464843 16-22.632812v-9.367188c9.582031-3.402343 15.988281-12.464843 16-22.632812v-9.367188c11.027344-3.890624 17.644531-15.164062 15.667969-26.691406-1.976563-11.523437-11.972657-19.949218-23.667969-19.941406h-56v-32c-.027344-26.5-21.5-47.972656-48-48h-8v50.960938c.003906 1.640624-.5 3.242187-1.449219 4.582031l-14.550781 20.792969v-92.335938h288v16h-88v112h61.601562l26.398438 17.601562v47.910157c-12.375 2.300781-24.109375 7.242187-34.398438 14.488281zm200 144c-39.765625 0-72-32.234375-72-72s32.234375-72 72-72 72 32.234375 72 72c-.046875 39.746094-32.253906 71.953125-72 72zm72-122.398438c-16.425781-23.535156-43.300781-37.570312-72-37.601562v-35.71875l16 10.671875v-38.953125h40v-112h-56v-32h64c4.417969 0 8 3.582031 8 8zm0 0"/><path d="m232 320v48h48v-48zm32 32h-16v-16h16zm0 0"/><path d="m48 352h48v16h-48zm0 0"/><path d="m112 336h64v16h-64zm0 0"/><path d="m424 322.679688c-12.464844-7.421876-28.359375-5.578126-38.792969 4.503906-12.277343 12.273437-12.277343 32.175781 0 44.449218l38.792969 38.765626 38.792969-38.789063c12.277343-12.273437 12.277343-32.175781 0-44.449219-10.441407-10.074218-26.332031-11.910156-38.792969-4.480468zm27.480469 37.601562-27.480469 27.519531-27.480469-27.480469c-3.921875-3.894531-5.460937-9.589843-4.039062-14.929687 1.425781-5.339844 5.597656-9.507813 10.9375-10.933594 5.339843-1.421875 11.03125.117188 14.925781 4.039063l5.65625 5.65625 5.65625-5.65625c6.105469-5.832032 15.71875-5.832032 21.824219 0 6.027343 6.027344 6.027343 15.796875 0 21.824218zm0 0"/><path d="m32 464h16v48h-16zm0 0"/><path d="m0 448h16v64h-16zm0 0"/><path d="m64 480h16v32h-16zm0 0"/></svg>