<?xml version="1.0"?>
<svg xmlns="http://www.w3.org/2000/svg" id="Layer_1" data-name="Layer 1" viewBox="0 0 512 512" width="512" height="512"><title>Coin,money bag</title><path d="M496,453.76v1.89a17.98,17.98,0,0,1-17.98,17.98H345.77a17.98,17.98,0,0,1-17.98-17.98v-1.89a17.973,17.973,0,0,1,15.8-17.84,20.232,20.232,0,0,0,3.13.25H477.07a18.615,18.615,0,0,0,3.1-.26A17.977,17.977,0,0,1,496,453.76Z" style="fill:#e2d574"/><path d="M477.07,360.38a18.925,18.925,0,1,1,0,37.85H368.38l-.03-.02a63.569,63.569,0,0,0,12.58-37.83Z" style="fill:#e2d574"/><path d="M368.38,398.32H477.07a18.922,18.922,0,0,1,3.1,37.59,17,17,0,0,0-2.15-.13H345.77a15.656,15.656,0,0,0-2.18.14,18.965,18.965,0,0,1-14.92-12.96v-.01a63.855,63.855,0,0,0,39.64-24.68Z" style="fill:#f8ec7d"/><path d="M265.49,322.44l.06-.09a63.874,63.874,0,0,1,115.38,37.79v.24a63.569,63.569,0,0,1-12.58,37.83.209.209,0,0,0-.04.06,63.842,63.842,0,0,1-51.26,25.74c-.63,0-1.27-.01-1.9-.03a1.34,1.34,0,0,1-.2-.01c-.58-.01-1.16-.04-1.73-.08q-.66-.03-1.32-.09c-.36-.02-.72-.06-1.08-.09-.51-.05-1.01-.1-1.51-.17-.48-.05-.96-.12-1.44-.19-.36-.05-.72-.1-1.08-.17-.42-.06-.84-.13-1.25-.21a.425.425,0,0,1-.11-.02q-.69-.12-1.38-.27c-.42-.08-.83-.17-1.24-.27-.11-.02-.22-.04-.33-.07-.34-.08-.68-.16-1.01-.25-.48-.12-.96-.24-1.44-.38-.61-.16-1.2-.34-1.8-.52s-1.19-.38-1.77-.58c-.69-.23-1.37-.47-2.05-.74-.4-.14-.8-.3-1.2-.46-.15-.06-.29-.12-.43-.18-.51-.2-1.01-.42-1.5-.64q-.675-.285-1.32-.6c-1.23-.57-2.45-1.19-3.63-1.84-.53-.29-1.04-.58-1.56-.89-.54-.31-1.07-.63-1.6-.97-.47-.29-.94-.59-1.4-.9a62.731,62.731,0,0,1-5.35-3.97q-.6-.48-1.17-.99c-.35-.3-.7-.61-1.04-.91-1.18-1.08-2.33-2.19-3.42-3.34-.34-.36-.69-.73-1.02-1.1-.3-.32-.58-.64-.87-.97-.49-.56-.96-1.12-1.43-1.7-.23-.28-.45-.56-.67-.84-.33-.41-.65-.83-.96-1.25l-.06-.09h-.01a63.984,63.984,0,0,1-4.15-6.34c-.25-.43-.49-.86-.73-1.3-.25-.46-.49-.91-.72-1.37s-.47-.92-.69-1.39c-.46-.95-.9-1.91-1.3-2.88-.2-.46-.39-.92-.57-1.39-.54-1.37-1.03-2.76-1.48-4.17q-.765-2.43-1.34-4.94c-.11-.48-.21-.96-.31-1.44q-.165-.78-.3-1.56c-.1-.53-.18-1.05-.26-1.58-.05-.33-.1-.66-.14-.99-.04-.27-.08-.54-.11-.81-.13-1-.23-2.01-.3-3.02-.04-.48-.07-.96-.1-1.45,0-.11-.01-.22-.02-.33-.02-.49-.04-.99-.05-1.48-.01-.47-.02-.94-.02-1.41v-.24A63.563,63.563,0,0,1,265.49,322.44Z" style="fill:#6fe3ff"/><path d="M306.31,454.15v1.89a17.98,17.98,0,0,1-17.98,17.98H156.09a17.98,17.98,0,0,1-17.98-17.98v-1.89a17.98,17.98,0,0,1,17.98-17.98H288.33A17.98,17.98,0,0,1,306.31,454.15Z" style="fill:#e2d574"/><path d="M306.31,264.62v1.9a17.98,17.98,0,0,1-17.98,17.98H156.09a17.98,17.98,0,0,1-17.98-17.98v-1.9a17.98,17.98,0,0,1,17.98-17.98H288.33A17.98,17.98,0,0,1,306.31,264.62Z" style="fill:#f8ec7d"/><path d="M304.05,422.68q.69.15,1.38.27a18.92,18.92,0,0,1-18.04,13.22H157.03a18.925,18.925,0,1,1,0-37.85H265.84c.31.42.63.84.96,1.25.22.28.44.56.67.84.47.58.94,1.14,1.43,1.7.29.33.57.65.87.97.33.37.67.74,1.02,1.1,1.09,1.15,2.24,2.26,3.42,3.34.34.31.69.61,1.04.91q.57.51,1.17.99a62.731,62.731,0,0,0,5.35,3.97c.46.31.93.61,1.4.9.53.34,1.06.66,1.6.97.51.31,1.03.6,1.56.89,1.18.65,2.4,1.27,3.63,1.84.43.21.88.41,1.32.6.5.23,1,.44,1.5.64.14.06.28.12.43.18.4.16.8.32,1.2.46.68.27,1.36.51,2.05.74.59.21,1.18.4,1.77.58s1.2.36,1.8.52c.48.14.95.26,1.44.38.34.09.67.17,1.01.25.11.03.22.05.33.07C303.22,422.51,303.63,422.6,304.05,422.68Z" style="fill:#f8ec7d"/><path d="M287.39,284.5a18.944,18.944,0,0,1,17.93,12.84,63.824,63.824,0,0,0-39.77,25.01H157.03a18.925,18.925,0,1,1,0-37.85Z" style="fill:#e2d574"/><path d="M305.32,297.34a18.944,18.944,0,0,0-17.93-12.84h.94a17.98,17.98,0,0,0,17.98-17.98v-1.9a17.98,17.98,0,0,0-17.98-17.98H156.09a17.98,17.98,0,0,0-17.98,17.98v1.9a17.98,17.98,0,0,0,17.98,17.98h.94a18.925,18.925,0,0,0,0,37.85H265.55l-.06.09H157.03a18.925,18.925,0,0,0,0,37.85h96.15v.09H157.03a18.925,18.925,0,0,0-7.61,36.25h-42a32.451,32.451,0,0,0-22.99,9.54l-.08.08a46.892,46.892,0,0,1-33.28,13.79,9.78,9.78,0,0,1-9.82-9.76,46.9,46.9,0,0,1,6.94-24.68,5.3,5.3,0,0,0-.3-6.06l-.05-.05c-64.82-83.1-24.36-198.37,64.56-233.25,14.58,4.38,36.74,7.18,61.55,7.18s46.96-2.8,61.54-7.18h.01c60.27,23.64,98.14,87.22,96.22,149.64l-1.8,1.68a64.3,64.3,0,0,0-24.6-.22Z" style="fill:#e48e66"/><path d="M149.42,396.63a18.923,18.923,0,0,1,7.61-36.25h96.15c0,.47.01.94.02,1.41.01.5.03.99.05,1.48.01.11.02.22.02.33.03.49.06.97.1,1.45.07,1.01.17,2.02.3,3.02.03.27.07.54.11.81.04.33.09.66.14.99.08.53.16,1.06.26,1.58s.19,1.05.3,1.56c.1.49.2.96.31,1.44q.57,2.505,1.34,4.94c.44,1.41.94,2.8,1.48,4.17.18.47.37.93.57,1.39.4.97.84,1.93,1.3,2.88.22.47.45.93.69,1.39s.47.92.72,1.37c.23.44.48.87.73,1.3a63.984,63.984,0,0,0,4.15,6.34H157.03A18.758,18.758,0,0,1,149.42,396.63Z" style="fill:#e2d574"/><path d="M253.45,120.6v13.26c0,4.7-6.73,9.01-17.95,12.38h-.01c-14.58,4.38-36.73,7.18-61.54,7.18s-46.97-2.8-61.55-7.18c-11.23-3.37-17.96-7.68-17.96-12.38V120.6l.08-.02c1.78,6.19,36.66,11.12,79.43,11.12s77.64-4.93,79.42-11.12Z" style="fill:#e2d574"/><path d="M253.45,120.08a1.453,1.453,0,0,1-.08.5c-1.78,6.19-36.65,11.12-79.42,11.12s-77.65-4.93-79.43-11.12a1.453,1.453,0,0,1-.08-.5c0-4.32,16.13-8.09,40.07-10.1a53.525,53.525,0,0,0,24.51,5.93h26.72a53.717,53.717,0,0,0,24.94-6.14C236.1,111.71,253.45,115.6,253.45,120.08Z" style="fill:#6fe3ff"/><path d="M253.18,360.14v.15H157.03a18.925,18.925,0,1,1,0-37.85H265.49A63.563,63.563,0,0,0,253.18,360.14Z" style="fill:#f8ec7d"/><path d="M251.06,52.41,233.55,86.65a53.669,53.669,0,0,1-47.81,29.26l10.89-57.18s-18.15-14.48-49.9.94c0,0,5.3-11.35,21.27-17.93a52.069,52.069,0,0,1,47.97,4.82C225.45,52.7,239.35,58.8,251.06,52.41Z" style="fill:#e2d574"/><path d="M196.63,58.73l-10.89,57.18H159.02a53.727,53.727,0,0,1-49.6-33.14L96.84,52.41s18.14,22.68,49.89,7.26S196.63,58.73,196.63,58.73Z" style="fill:#f8ec7d"/><path d="M240.13,155.726c-.081-.146-.164-.291-.25-.432-.055-.088-.112-.175-.171-.26l-7.02-10.18c-.011-.017-.024-.031-.035-.047-.073-.1-.152-.2-.232-.3-.05-.061-.1-.124-.149-.183-.066-.076-.138-.149-.209-.222s-.146-.153-.222-.224c-.055-.052-.115-.1-.172-.15-.1-.085-.2-.169-.3-.247-.015-.011-.029-.025-.044-.036-.04-.03-.083-.054-.124-.083-.106-.075-.213-.148-.323-.215-.072-.044-.145-.084-.217-.124-.095-.053-.19-.105-.287-.152s-.186-.085-.281-.126c-.079-.033-.159-.067-.24-.1-.109-.042-.22-.077-.331-.112-.071-.022-.141-.043-.212-.063-.118-.031-.236-.058-.354-.082-.071-.015-.141-.029-.211-.041-.117-.019-.233-.034-.35-.047-.078-.008-.156-.016-.234-.022q-.162-.011-.324-.012c-.089,0-.178,0-.267,0s-.193.009-.29.017-.2.017-.3.029-.176.026-.264.041-.206.038-.309.061c-.087.02-.173.044-.26.067s-.2.056-.293.088-.187.067-.28.1-.17.066-.253.1c-.108.047-.212.1-.317.153-.067.035-.134.068-.2.106-.117.066-.23.138-.343.212-.039.026-.08.047-.119.073l-.043.034c-.108.075-.212.158-.316.241-.057.046-.115.091-.17.138-.081.071-.157.146-.235.221s-.145.139-.213.211-.1.12-.157.181c-.083.1-.164.192-.24.292-.012.016-.026.029-.038.046l-4.552,6.132a102.6,102.6,0,0,0-18.09,40.174,6,6,0,1,0,11.741,2.48,90.635,90.635,0,0,1,15.546-34.892l2.11,3.061c.054.095.109.19.165.283a187.786,187.786,0,0,1,21.128,53.861,6,6,0,1,0,11.7-2.666A199.876,199.876,0,0,0,240.13,155.726Z" style="fill:#6fe3ff"/><path d="M337.208,336h.066a6.018,6.018,0,0,0,6-5.957,6.113,6.113,0,0,0-6.056-6.075L307,323.639v.245L295.179,324h-.065a5.793,5.793,0,0,0-6,5.688,5.9,5.9,0,0,0,5.935,5.941l12.063.067a12.249,12.249,0,0,1,10.414,6.373L294.986,342h-.066a5.829,5.829,0,0,0-6,5.732,5.914,5.914,0,0,0,5.935,5.963l22.549.19a12.521,12.521,0,0,1-10.551,6.1L294.791,360h-.064a5.829,5.829,0,0,0-4.167,10.077L320.4,398.851a6.012,6.012,0,0,0,8.335-8.667l-19.166-18.507a24.107,24.107,0,0,0,20.682-17.726l6.758.049h.066a5.983,5.983,0,0,0,.063-11.966l-6.763-.067a23.8,23.8,0,0,0-2.444-6.091Z" style="fill:#2561a1"/></svg>
