<svg height="512pt" viewBox="0 0 512 512" width="512pt" xmlns="http://www.w3.org/2000/svg"><path d="m241.660156 86.75h30v114.160156h-30zm0 0" fill="#d1effa"/><path d="m141.710938 349.726562 65.304687-65.378906 21.222656 21.199219-65.300781 65.378906zm0 0" fill="#d1effa"/><path d="m283.75 305.511719 21.222656-21.203125 65.304688 65.378906-21.226563 21.203125zm0 0" fill="#97e1ff"/><path d="m256.660156 86.75h15v114.160156h-15zm0 0" fill="#97e1ff"/><path d="m326.671875 255.988281c0 38.640625-31.410156 70.082031-70.011719 70.082031-38.609375 0-70.019531-31.441406-70.019531-70.082031 0-38.648437 31.410156-70.078125 70.019531-70.078125 38.601563 0 70.011719 31.429688 70.011719 70.078125zm0 0" fill="#ff415b"/><g fill="#00b2ff"><path d="m307.488281 50.871094c0 28.058594-22.808593 50.878906-50.828125 50.878906-28.03125 0-50.832031-22.820312-50.832031-50.878906 0-28.050782 22.800781-50.871094 50.832031-50.871094 28.019532 0 50.828125 22.820312 50.828125 50.871094zm0 0"/><path d="m190.421875 416.691406c0 52.546875-42.710937 95.308594-95.210937 95.308594s-95.210938-42.761719-95.210938-95.308594c0-52.550781 42.710938-95.3125 95.210938-95.3125s95.210937 42.761719 95.210937 95.3125zm0 0"/><path d="m512 416.691406c0 52.546875-42.710938 95.308594-95.210938 95.308594s-95.210937-42.761719-95.210937-95.308594c0-52.550781 42.710937-95.3125 95.210937-95.3125s95.210938 42.761719 95.210938 95.3125zm0 0"/></g><path d="m256.660156 101.75v-101.75c28.019532 0 50.828125 22.820312 50.828125 50.871094 0 28.058594-22.808593 50.878906-50.828125 50.878906zm0 0" fill="#0089ff"/><path d="m326.671875 255.988281c0 38.640625-31.410156 70.082031-70.011719 70.082031v-140.160156c38.601563 0 70.011719 31.429688 70.011719 70.078125zm0 0" fill="#e30058"/><path d="m190.421875 416.691406c0 52.546875-42.710937 95.308594-95.210937 95.308594v-190.621094c52.5 0 95.210937 42.761719 95.210937 95.3125zm0 0" fill="#0089ff"/><path d="m512 416.691406c0 52.546875-42.710938 95.308594-95.210938 95.308594v-190.621094c52.5 0 95.210938 42.761719 95.210938 95.3125zm0 0" fill="#0089ff"/></svg>