<svg height="496pt" viewBox="0 0 496 496" width="496pt" xmlns="http://www.w3.org/2000/svg"><path d="m176 151.996094h-168v256h480v-256h-136" fill="#a8b0bc"/><path d="m352 167.996094-176-48v-64l176-48zm0 0" fill="#7ecb92"/><path d="m144 55.996094h32v64h-32zm0 0" fill="#568e53"/><path d="m40 183.996094h416v192h-416zm0 0" fill="#fff"/><path d="m176 119.996094v64h32v-56" fill="#c18e59"/><path d="m168 215.996094h160v144h-160zm0 0" fill="#8bd2f5"/><path d="m336 455.996094h-176c-17.671875 0-32 14.328125-32 32h240c0-17.671875-14.328125-32-32-32zm0 0" fill="#758190"/><path d="m208 407.996094h80v48h-80zm0 0" fill="#8892a0"/><path d="m488 415.996094h-480c-4.414062 0-8-3.574219-8-8v-256c0-4.425782 3.585938-8 8-8h168v16h-160v240h464v-240h-128v-16h136c4.414062 0 8 3.574218 8 8v256c0 4.425781-3.585938 8-8 8zm0 0"/><path d="m368 495.996094h-240c-4.414062 0-8-3.574219-8-8 0-22.054688 17.945312-40 40-40h176c22.054688 0 40 17.945312 40 40 0 4.425781-3.585938 8-8 8zm-230.632812-16h221.257812c-3.304688-9.3125-12.199219-16-22.632812-16h-175.992188c-10.433594 0-19.328125 6.6875-22.632812 16zm0 0"/><path d="m200 407.996094h16v48h-16zm0 0"/><path d="m280 407.996094h16v48h-16zm0 0"/><path d="m352 175.996094c-.703125 0-1.40625-.097656-2.105469-.28125l-176-48c-3.480469-.949219-5.894531-4.109375-5.894531-7.71875v-64c0-3.609375 2.414062-6.769532 5.894531-7.71875l176-48c2.417969-.640625 4.984375-.160156 6.960938 1.359375 1.976562 1.519531 3.144531 3.863281 3.144531 6.359375v160c0 2.496094-1.167969 4.839844-3.144531 6.359375-1.40625 1.082031-3.121094 1.640625-4.855469 1.640625zm-168-62.113282 160 43.632813v-139.039063l-160 43.632813zm0 0"/><path d="m176 127.996094h-32c-4.414062 0-8-3.574219-8-8v-64c0-4.425782 3.585938-8 8-8h32c4.414062 0 8 3.574218 8 8v64c0 4.425781-3.585938 8-8 8zm-24-16h16v-48h-16zm0 0"/><path d="m208 191.996094h-32c-4.414062 0-8-3.574219-8-8v-64h16v56h16v-48h16v56c0 4.425781-3.585938 8-8 8zm0 0"/><path d="m208 159.996094h24v16h-24zm0 0"/><path d="m376 63.996094h48v16h-48zm0 0"/><path d="m373.011719 32.5625 39.996093-16.003906 5.945313 14.859375-39.996094 16.003906zm0 0"/><path d="m373.03125 111.414062 5.945312-14.863281 40 16-5.945312 14.863281zm0 0"/><path d="m240 335.996094h-16v-80h-16v80h-16v-88c0-4.425782 3.585938-8 8-8h32c4.414062 0 8 3.574218 8 8zm0 0"/><path d="m296 335.996094h-32c-4.414062 0-8-3.574219-8-8v-32c0-4.425782 3.585938-8 8-8h24v-48h16v88c0 4.425781-3.585938 8-8 8zm-24-16h16v-16h-16zm0 0"/><path d="m200 287.996094h32v16h-32zm0 0"/><path d="m328 367.996094h-160c-4.414062 0-8-3.574219-8-8v-144c0-4.425782 3.585938-8 8-8h160c4.414062 0 8 3.574218 8 8v144c0 4.425781-3.585938 8-8 8zm-152-16h144v-128h-144zm0 0"/><path d="m80 383.996094h-40c-4.414062 0-8-3.574219-8-8v-40h16v32h32zm0 0"/><path d="m48 223.996094h-16v-40c0-4.425782 3.585938-8 8-8h40v16h-32zm0 0"/><path d="m464 223.996094h-16v-32h-32v-16h40c4.414062 0 8 3.574218 8 8zm0 0"/><path d="m456 383.996094h-40v-16h32v-32h16v40c0 4.425781-3.585938 8-8 8zm0 0"/></svg>