<svg height="511pt" viewBox="0 1 511 511.999" width="511pt" xmlns="http://www.w3.org/2000/svg"><path d="m256.363281 255.863281h-248.371093v-193.742187c0-30.171875 24.457031-54.628906 54.628906-54.628906h193.742187zm0 0" fill="#e63950"/><path d="m228.542969 6.484375h27.820312v248.378906h-27.820312zm0 0" fill="#cc2e43"/><path d="m170.617188 247.722656c8.960937-9.796875 14.222656-23.027344 13.578124-37.488281-1.195312-26.847656-23.117187-48.625-49.96875-49.65625-29.695312-1.140625-54.125 22.59375-54.125 52.035156 0 13.542969 5.175782 25.875 13.652344 35.132813 2.941406 3.210937.605469 8.390625-3.746094 8.390625h-82.015624v193.746093c0 30.167969 24.457031 54.628907 54.628906 54.628907h193.742187v-248.375h-82.019531c-4.367188 0-6.671875-5.191407-3.726562-8.414063zm0 0" fill="#60b8ff"/><path d="m230.15625 256.128906h26.207031v248.378906h-26.207031zm0 0" fill="#22a7ff"/><path d="m256.363281 256.136719v76.347656c0 3.996094-4.433593 6.398437-7.777343 4.210937-8.972657-5.859374-19.859376-9.03125-31.523438-8.355468-26.5625 1.539062-47.929688 23.371094-48.9375 49.960937-1.121094 29.679688 22.605469 54.09375 52.035156 54.09375 10.515625 0 20.296875-3.121093 28.480469-8.484375 3.316406-2.171875 7.722656.289063 7.722656 4.253906v76.34375h193.742188c30.171875 0 54.628906-24.457031 54.628906-54.628906v-193.742187zm0 0" fill="#ffa812"/><path d="m504.730469 256.128906v193.753906c0 30.167969-24.457031 54.625-54.625 54.625h-24.09375c30.164062 0 54.625-24.457031 54.625-54.625v-193.753906zm0 0" fill="#ff9a00"/><path d="m504.738281 62.121094c0-30.171875-24.460937-54.628906-54.628906-54.628906h-193.746094v248.371093h82.019531c4.367188 0 6.671876 5.191407 3.722657 8.414063-8.957031 9.796875-14.21875 23.027344-13.574219 37.488281 1.195312 26.847656 23.117188 48.625 49.96875 49.65625 29.691406 1.140625 54.121094-22.59375 54.121094-52.035156 0-13.542969-5.171875-25.875-13.652344-35.132813-2.9375-3.210937-.601562-8.390625 3.75-8.390625h82.019531zm0 0" fill="#6fd6a2"/><path d="m504.730469 62.117188v193.75h-23.644531v-193.75c0-30.167969-24.460938-54.628907-54.636719-54.628907h23.65625c30.167969 0 54.625 24.460938 54.625 54.628907zm0 0" fill="#43cd8e"/><path d="m512.226562 62.121094c0-34.253906-27.863281-62.121094-62.117187-62.121094h-387.488281c-34.253906 0-62.121094 27.867188-62.121094 62.121094v23.917968c0 4.136719 3.351562 7.488282 7.492188 7.488282 4.136718 0 7.488281-3.351563 7.488281-7.488282v-23.917968c0-25.992188 21.148437-47.140625 47.140625-47.140625h186.253906v233.664062h-69.273438c8.445313-11.066406 12.707032-24.632812 12.078126-38.746093-1.367188-30.675782-26.476563-55.628907-57.164063-56.804688-16.34375-.621094-31.863281 5.265625-43.636719 16.59375-11.777344 11.335938-18.265625 26.582031-18.265625 42.921875 0 12.992187 4.210938 25.488281 11.941407 35.761719h-69.074219v-127.878906c0-4.136719-3.351563-7.488282-7.488281-7.488282-4.140626 0-7.492188 3.351563-7.492188 7.488282v135.371093c0 .046875.003906.089844.007812.136719-.003906.042969-.007812.089844-.007812.132812v193.746094c0 34.253906 27.867188 62.121094 62.121094 62.121094h387.488281c34.253906 0 62.117187-27.867188 62.117187-62.121094v-193.746094c0-.042968-.003906-.089843-.003906-.132812 0-.046875.003906-.089844.003906-.136719zm-263.355468 409.769531v25.128906h-186.25c-25.992188 0-47.140625-21.148437-47.140625-47.140625v-186.253906h74.527343c4.96875 0 9.472657-2.941406 11.476563-7.496094 2.023437-4.59375 1.179687-9.746094-2.203125-13.441406-7.535156-8.230469-11.6875-18.910156-11.6875-30.078125 0-12.230469 4.855469-23.640625 13.671875-32.125 8.8125-8.480469 20.402344-12.878906 32.671875-12.421875 22.964844.882812 41.75 19.550781 42.773438 42.503906.53125 11.921875-3.597657 23.324219-11.621094 32.101563-3.34375 3.65625-4.210938 8.945312-2.210938 13.480469 2 4.542968 6.5 7.476562 11.464844 7.476562h74.527344v64.507812c-9.8125-5.425781-20.875-7.9375-32.242188-7.273437-30.25 1.753906-54.84375 26.859375-55.988281 57.15625-.617187 16.359375 5.28125 31.847656 16.609375 43.617187 11.335938 11.769532 26.574219 18.253907 42.910156 18.253907 10.105469 0 19.945313-2.539063 28.710938-7.378907zm248.375-223.519531h-74.527344c-4.964844 0-9.472656 2.945312-11.476562 7.496094-1.992188 4.527343-1.128907 9.804687 2.203124 13.441406 7.535157 8.230468 11.6875 18.914062 11.6875 30.078125 0 2.957031-.289062 5.90625-.863281 8.769531-.804687 4.058594 1.824219 8.003906 5.882813 8.816406 4.066406.8125 8.003906-1.824218 8.8125-5.882812.761718-3.824219 1.148437-7.761719 1.148437-11.703125 0-13.101563-4.277343-25.703125-12.140625-36.03125h14.230469c.042969.09375.097656.175781.140625.269531h54.902344v186.253906c0 25.996094-21.144532 47.140625-47.136719 47.140625h-186.253906v-68.855469c0-4.613281-2.527344-8.847656-6.597657-11.042968-4.027343-2.179688-8.90625-1.976563-12.722656.523437-7.246094 4.75-15.675781 7.261719-24.375 7.261719-12.226562 0-23.632812-4.851562-32.117187-13.664062-8.480469-8.808594-12.894531-20.40625-12.433594-32.65625.859375-22.671876 19.257813-41.457032 41.886719-42.769532 9.644531-.558594 18.980468 1.914063 26.992187 7.152344 3.851563 2.519531 8.757813 2.71875 12.804688.53125s6.5625-6.410156 6.5625-11.011719v-68.859375h69.070312c-8.308593 11.015625-12.5 24.476563-11.878906 38.472656 1.367187 30.675782 26.476563 55.628907 57.167969 56.804688.769531.03125 1.539062.046875 2.308594.046875 13.917968-.003906 27.355468-4.832031 38.066406-13.726563 3.179687-2.644531 3.617187-7.367187.976562-10.546874-2.644531-3.183594-7.367187-3.621094-10.550781-.976563-8.457031 7.023437-19.179687 10.640625-30.226563 10.234375-22.964843-.882812-41.75-19.550781-42.773437-42.503906-.53125-11.925782 3.597656-23.324219 11.621094-32.101563 3.34375-3.652343 4.210937-8.945312 2.214843-13.480469-2.003906-4.542968-6.503906-7.476562-11.464843-7.476562h-74.53125v-233.394531h186.253906c25.992187 0 47.136719 21.148437 47.136719 47.140625zm0 0"/></svg>