<svg height="480pt" viewBox="0 -44 480 480" width="480pt" xmlns="http://www.w3.org/2000/svg"><path d="m56 40h368c8.800781 0 16 7.199219 16 16v48h-400v-48c0-8.800781 7.199219-16 16-16zm0 0" fill="#4a4a56"/><path d="m40 104h400v248h-400zm0 0" fill="#d6d7d8"/><path d="m8 352v16c0 8.800781 7.199219 16 16 16h432c8.800781 0 16-7.199219 16-16v-16zm0 0" fill="#4a4a56"/><path d="m64 64h16v16h-16zm0 0" fill="#dd5b5b"/><path d="m96 64h16v16h-16zm0 0" fill="#edc17c"/><path d="m128 64h16v16h-16zm0 0" fill="#2ab793"/><path d="m320 64h96v16h-96zm0 0" fill="#878b9b"/><g fill="#e9e9e9"><path d="m385.601562 272c-1.601562-4.800781-4.800781-8.800781-9.601562-11.199219l-24.800781-9.601562c-4-1.597657-6.398438-6.398438-4.800781-10.398438l13.601562-32.800781c0-17.601562-14.398438-32-32-32s-32 14.398438-32 32l12.800781 32.800781c1.597657 4 0 8.800781-4.800781 10.398438l-24.800781 9.601562c-4.800781 1.597657-8 5.597657-9.597657 11.199219l-13.601562 56h144zm0 0"/><path d="m297.601562 104c-1.601562-4.800781-4.800781-8.800781-9.601562-11.199219l-24.800781-9.601562c-4-1.597657-6.398438-6.398438-4.800781-10.398438l13.601562-32.800781c0-17.601562-14.398438-32-32-32s-32 14.398438-32 32l12.800781 32.800781c1.597657 4 0 8.800781-4.800781 10.398438l-24.800781 9.601562c-4.800781 1.597657-8 5.597657-9.597657 11.199219l-13.601562 56h144zm0 0"/><path d="m209.601562 271.199219c-.800781-4.800781-4-8-8-10.398438l-9.601562-4.800781-8-48c0-17.601562-14.398438-32-32-32s-32 14.398438-32 32l-8 48-9.601562 4.800781c-4 2.398438-7.199219 5.597657-8 10.398438l-14.398438 56.800781h144zm0 0"/></g><path d="m384 232h-16v-8c0-4.800781-3.199219-8-8-8h-64c-4.800781 0-8 3.199219-8 8v8h-16v-8c0-13.601562 10.398438-24 24-24h64c13.601562 0 24 10.398438 24 24zm0 0" fill="#b4b4b5"/><path d="m40 192h56v16h-56zm0 0" fill="#b4b4b5"/><path d="m392 192h48v16h-48zm0 0" fill="#b4b4b5"/><path d="m240 112h-24l-12-24-12.800781 4.800781c-4.800781 1.597657-8 5.597657-9.597657 11.199219l-13.601562 56h72zm0 0" fill="#c61e1e"/><path d="m240 112h24l12-24 12.800781 4.800781c4.800781 1.597657 8 5.597657 9.597657 11.199219l14.402343 56h-72v-48zm0 0" fill="#e23333"/><path d="m264 136h16v16h-16zm0 0" fill="#d6d7d8"/><path d="m200 136h16v16h-16zm0 0" fill="#d6d7d8"/><path d="m376.800781 260.800781-24.800781-9.601562c-1.601562-.800781-2.398438-1.597657-3.199219-3.199219h-40c-.800781 1.601562-2.402343 2.398438-3.199219 3.199219l-24.800781 9.601562c-3.199219.800781-5.601562 3.199219-7.199219 5.597657l14.398438 61.601562h80l15.199219-61.601562c-1.597657-2.398438-4-4-6.398438-5.597657zm0 0" fill="#2ab793"/><path d="m338.398438 293.601562-10.398438-10.402343-10.398438 10.402343-11.203124-11.203124 21.601562-21.597657 21.601562 21.597657zm0 0" fill="#e23333"/><path d="m181.601562 196.800781c-6.402343-16.800781-24.800781-24.800781-40.800781-18.402343-12.800781 4-20.800781 16-20.800781 29.601562l-3.199219 18.398438zm0 0" fill="#b4b4b5"/><path d="m94.398438 271.199219-14.398438 56.800781h72v-40l-16-24-24-8-9.601562 4.800781c-4 1.597657-7.199219 5.597657-8 10.398438zm0 0" fill="#ddad6f"/><path d="m209.601562 271.199219 14.398438 56.800781h-72v-40l16-24 24-8 9.601562 4.800781c4 1.597657 7.199219 5.597657 8 10.398438zm0 0" fill="#edc17c"/><path d="m448 344v-288c0-13.601562-10.398438-24-24-24h-128v16h128c4.800781 0 8 3.199219 8 8v40h-112v16h112v80h-40v16h40v136h-384v-136h48v-16h-48v-80h112v-16h-112v-40c0-4.800781 3.199219-8 8-8h128v-16h-128c-13.601562 0-24 10.398438-24 24v288h-32v24c0 13.601562 10.398438 24 24 24h432c13.601562 0 24-10.398438 24-24v-24zm16 24c0 4.800781-3.199219 8-8 8h-432c-4.800781 0-8-3.199219-8-8v-8h448zm0 0"/><path d="m64 64h16v16h-16zm0 0"/><path d="m96 64h16v16h-16zm0 0"/><path d="m128 64h16v16h-16zm0 0"/><path d="m320 64h96v16h-96zm0 0"/><path d="m174.398438 102.398438-14.398438 56 15.199219 4 14.402343-56c.796876-2.398438 2.398438-4.796876 4.796876-5.597657l8-3.199219 8 23.199219h21.601562v40h16v-40h21.601562l8-23.199219 8 3.199219c2.398438.800781 4 3.199219 4.796876 5.597657l14.402343 56 15.199219-4-14.398438-56c-1.601562-7.199219-7.203124-13.597657-14.402343-16.796876l-24.800781-9.601562 13.601562-34.398438v-1.601562c0-22.398438-17.601562-40-40-40s-40 17.601562-40 40v1.601562l13.601562 33.597657-24.800781 9.601562c-7.199219 4-12.800781 9.597657-14.402343 17.597657zm65.601562-86.398438c12.800781 0 23.199219 9.601562 24 22.398438l-12.800781 31.203124c-3.199219 8 .800781 17.597657 8.800781 20.796876l2.398438.800781-4 12.800781h-36.796876l-4-12.800781 2.398438-.800781c8-3.199219 12-12.796876 8.800781-20.796876l-12.800781-31.203124c.800781-12.796876 11.199219-22.398438 24-22.398438zm0 0"/><path d="m160 328v-30.398438l13.601562-27.203124 17.597657-5.597657 6.402343 3.199219c2.398438.800781 4 3.199219 4 5.601562l14.398438 56.796876 15.199219-4-14.398438-56.796876c-1.601562-7.203124-6.402343-12.800781-12.800781-16l-5.601562-3.203124-6.398438-43.199219c0-22.398438-18.398438-40-40.800781-39.199219-21.597657 0-39.199219 17.601562-39.199219 39.199219l-7.199219 43.199219-5.601562 3.203124c-6.398438 3.199219-11.199219 8.796876-12.800781 16l-14.398438 56.796876 15.199219 4 14.402343-56.796876c.796876-2.402343 2.398438-4 4-5.601562l6.398438-3.199219 17.601562 5.597657 13.597657 27.203124v30.398438zm-32-120c0-13.601562 10.398438-24 24-24 8.800781 0 16 4.800781 20.800781 12l-45.601562 16.800781.800781-3.199219zm-7.199219 42.398438 3.199219-20 52-19.199219 6.398438 39.199219-20.796876 7.203124-9.601562 20.796876-10.398438-20.796876zm0 0"/><path d="m384 232v-8c0-10.398438-6.398438-19.199219-16.800781-22.398438-4-21.601562-24-36-45.597657-32.800781-16.800781 3.199219-29.601562 16-32.800781 32.800781-10.402343 3.199219-16.800781 12-16.800781 22.398438v8h16v-8c0-2.398438 1.601562-4.800781 3.199219-6.398438l10.402343 25.597657-24.800781 9.601562c-7.199219 3.199219-12.800781 8.800781-14.402343 16.800781l-14.398438 56 15.199219 4 8-32.800781 8 32.800781 15.199219-4-14.398438-56.800781s.800781-.800781.800781-.800781l24.800781-9.601562c8-3.199219 12-12.796876 8.796876-20.796876l-6.398438-21.601562h40l-8.800781 21.601562c-3.199219 8 .800781 17.597657 8.800781 20.796876l24.800781 9.601562s.800781.800781.800781.800781l-13.601562 57.597657 15.199219 4 8-32.796876 8 32.796876 15.199219-4-14.398438-56c-1.601562-7.199219-7.199219-13.597657-14.398438-16.796876l-24.800781-9.601562 10.398438-25.601562c2.402343 1.601562 3.199219 4 3.199219 6.402343v8h17.601562zm-56-48c10.398438 0 19.199219 6.398438 22.398438 16h-44.796876c3.199219-9.601562 12-16 22.398438-16zm0 0"/><path d="m306.398438 282.398438 11.203124 11.203124 10.398438-10.402343 10.398438 10.402343 11.203124-11.203124-21.601562-21.597657zm0 0"/><path d="m264 136h16v16h-16zm0 0"/><path d="m200 136h16v16h-16zm0 0"/></svg>