<?xml version="1.0"?>
<svg xmlns="http://www.w3.org/2000/svg" id="Layer_1" data-name="Layer 1" viewBox="0 0 512 512" width="512" height="512"><title>Pay per click</title><polygon points="486 392.25 436.5 406.38 479.05 448.94 453.96 474.04 411.4 431.48 397.27 480.98 340.79 335.77 486 392.25" style="fill:#e48e66"/><path d="M273.54,278.56a145.01,145.01,0,1,1,42.47-102.54A144.546,144.546,0,0,1,273.54,278.56Zm1.04-102.54A103.575,103.575,0,1,0,171.01,279.6,103.57,103.57,0,0,0,274.58,176.02Z" style="fill:#6fe3ff"/><path d="M171.01,72.45A103.575,103.575,0,1,1,67.43,176.02,103.57,103.57,0,0,1,171.01,72.45Z" style="fill:#f8ec7d"/><path d="M488.175,386.658l-145.21-56.48a6,6,0,0,0-7.767,7.766l56.48,145.211a6,6,0,0,0,5.59,3.825c.092,0,.186,0,.28-.006a6,6,0,0,0,5.491-4.346l11.331-39.692,35.348,35.346a6,6,0,0,0,8.485,0l25.09-25.1a6,6,0,0,0,0-8.485L447.954,409.35l39.692-11.33a6,6,0,0,0,.529-11.362ZM434.854,400.61a6,6,0,0,0-2.6,10.012l38.308,38.318-16.606,16.614-38.316-38.316a6,6,0,0,0-10.012,2.6l-9.235,32.35-45.07-115.877L467.2,391.376Z" style="fill:#63316d"/><path d="M305.312,291.817a6,6,0,0,0-8.484,8.485l19.46,19.46a6,6,0,0,0,8.484-8.485Z" style="fill:#63316d"/><path d="M312.37,349.71a6,6,0,0,0-6-6H278.85a6,6,0,0,0,0,12h27.52A6,6,0,0,0,312.37,349.71Z" style="fill:#63316d"/><path d="M316.288,379.658l-19.46,19.46a6,6,0,1,0,8.484,8.485l19.46-19.46a6,6,0,1,0-8.484-8.485Z" style="fill:#63316d"/><path d="M404.138,291.817l-19.46,19.46a6,6,0,1,0,8.484,8.485l19.46-19.46a6,6,0,1,0-8.484-8.485Z" style="fill:#63316d"/><path d="M348.72,273.83v27.52a6,6,0,0,0,12,0V273.83a6,6,0,1,0-12,0Z" style="fill:#63316d"/><path d="M171.01,285.6A109.575,109.575,0,1,0,61.43,176.02,109.7,109.7,0,0,0,171.01,285.6Zm0-207.15a97.575,97.575,0,1,1-97.58,97.57A97.68,97.68,0,0,1,171.01,78.45Z" style="fill:#63316d"/><path d="M277.781,282.8h0a151.008,151.008,0,0,0,.006-213.549l0-.006-.006-.005A151.005,151.005,0,0,0,64.224,282.8l0,.006,0,.005a151.009,151.009,0,0,0,213.547-.005ZM83.361,263.656a6,6,0,0,0-8.485,0l-6.314,6.319A137.9,137.9,0,0,1,32.135,182.02H41.07a6,6,0,0,0,0-12H32.135A137.891,137.891,0,0,1,68.564,82.07l6.314,6.313A6,6,0,0,0,83.362,79.9L77.05,73.585a137.893,137.893,0,0,1,87.96-36.431V46.08a6,6,0,0,0,12,0V37.154a137.883,137.883,0,0,1,87.95,36.431L258.647,79.9a6,6,0,0,0,8.485,8.487l6.313-6.313a137.887,137.887,0,0,1,36.43,87.95H300.94a6,6,0,0,0,0,12h8.935a137.893,137.893,0,0,1-36.428,87.958l-6.313-6.319a6,6,0,1,0-8.488,8.483l6.316,6.321A137.883,137.883,0,0,1,177.01,314.9V305.96a6,6,0,0,0-12,0V314.9a137.9,137.9,0,0,1-87.962-36.433l6.316-6.321A6,6,0,0,0,83.361,263.656Z" style="fill:#63316d"/><path d="M157.73,175.64l-18.027-.19a6,6,0,0,0-4.23,10.317l44,42.479a6,6,0,0,0,8.334-8.633l-33.149-32,3.072.03a32.793,32.793,0,0,0,32.018-26.322l12.268.132h.065a6,6,0,0,0,.064-12l-12.254-.132a32.342,32.342,0,0,0-6.654-14.744l19.068.206h.066a6,6,0,0,0,.065-12l-44.371-.48h0l-17.79-.19h-.064a6,6,0,0,0-.063,12l17.789.19a20.7,20.7,0,0,1,19.629,14.885l-37.57-.405h-.065a6,6,0,0,0-.064,12l37.551.405A20.744,20.744,0,0,1,157.73,175.64Z" style="fill:#63316d"/></svg>
