<?xml version="1.0" encoding="iso-8859-1"?>
<!-- Generator: Adobe Illustrator 19.0.0, SVG Export Plug-In . SVG Version: 6.00 Build 0)  -->
<svg version="1.1" id="Capa_1" xmlns="http://www.w3.org/2000/svg" xmlns:xlink="http://www.w3.org/1999/xlink" x="0px" y="0px"
	 viewBox="0 0 512 512" style="enable-background:new 0 0 512 512;" xml:space="preserve">
<g>
	<rect x="45.999" y="9.999" style="fill:#7D9BFF;" width="130.998" height="177.997"/>
	<rect x="371.004" y="9.999" style="fill:#7D9BFF;" width="130.998" height="177.997"/>
</g>
<polygon style="fill:#EDF2FA;" points="10,50.001 10,227.998 140.998,227.998 140.998,97.582 93.667,50.001 "/>
<polygon style="fill:#FFC66C;" points="93.667,51.841 93.667,97.582 139.168,97.582 "/>
<polygon style="fill:#EDF2FA;" points="335.003,50.001 335.003,227.998 466.001,227.998 466.001,97.582 418.669,50.001 "/>
<polygon style="fill:#FFC66C;" points="418.669,51.841 418.669,97.582 464.171,97.582 "/>
<path style="fill:#72D8FF;" d="M339.995,429.596v-56.322c0-46.391-37.607-83.999-83.999-83.999l0,0
	c-46.391,0-83.999,37.607-83.999,83.999v56.321"/>
<path style="fill:#ADE5FF;" d="M339.995,389.944v-16.671c0-46.391-37.607-83.999-83.999-83.999l0,0
	c-46.391,0-83.999,37.607-83.999,83.999v16.671H339.995z"/>
<g>
	<path style="fill:#FFCDAC;" d="M255.996,501.994v-23.168l28.419-106.057c3.437-12.827,16.622-20.439,29.449-17.002l0,0
		c12.827,3.437,20.439,16.622,17.002,29.449l-28.419,106.057l-2.784,10.722"/>
	<path style="fill:#FFCDAC;" d="M158.107,501.994l-9.211-34.639c-3.437-12.827,4.175-26.012,17.002-29.449l0,0
		c12.827-3.437,26.012,4.175,29.449,17.002l12.561,47.085h-49.8"/>
	<path style="fill:#FFCDAC;" d="M207.907,501.994V368.659c0-13.28,10.765-24.045,24.045-24.045l0,0
		c13.28,0,24.045,10.765,24.045,24.045v133.335"/>
	<path style="fill:#FFCDAC;" d="M299.662,501.994l25.114-93.679c3.437-12.827,16.622-20.439,29.449-17.002l0,0
		c12.827,3.437,20.439,16.622,17.002,29.449l-21.779,81.232"/>
	<path style="fill:#FFCDAC;" d="M349.448,501.994l13.176-49.557c3.437-12.827,16.622-20.439,29.449-17.002l0,0
		c12.827,3.437,20.439,16.622,17.002,29.449l-9.861,37.11"/>
</g>
<path d="M150.998,227.998v-30h26c5.522,0,10-4.478,10-10v-67.965c0-5.522-4.478-10-10-10s-10,4.478-10,10v57.965h-16V97.582
	c0-2.643-1.046-5.179-2.91-7.053l-47.331-47.58c-1.877-1.887-4.429-2.947-7.09-2.947H55.999v-20h110.998v28c0,5.522,4.478,10,10,10
	s10-4.478,10-10V10.002c0-5.522-4.478-10-10-10H45.999c-5.522,0-10,4.478-10,10v30H10c-5.522,0-10,4.478-10,10v177.997
	c0,5.522,4.478,10,10,10h130.998C146.52,237.998,150.998,233.521,150.998,227.998z M103.666,74.233l13.28,13.35h-13.28V74.233z
	 M20,217.998V60.001h63.667v37.581c0,5.522,4.478,10,10,10h37.331v110.416H20z"/>
<path d="M176.997,73.411c-2.63,0-5.21,1.069-7.07,2.93c-1.86,1.861-2.93,4.44-2.93,7.07c0,2.64,1.069,5.21,2.93,7.069
	c1.86,1.87,4.44,2.931,7.07,2.931s5.21-1.061,7.069-2.931c1.86-1.859,2.931-4.43,2.931-7.069c0-2.63-1.07-5.21-2.931-7.07
	C182.207,74.48,179.627,73.411,176.997,73.411z"/>
<path d="M502,0.001H371.002c-5.522,0-10,4.478-10,10v30h-26c-5.522,0-10,4.478-10,10v177.997c0,5.522,4.478,10,10,10h130.998
	c5.522,0,10-4.478,10-10v-30h26c5.522,0,10-4.478,10-10V10.001C512,4.479,507.522,0.001,502,0.001z M345.003,217.998V60.001h63.668
	v37.581c0,5.522,4.478,10,10,10h37.33v110.416H345.003z M428.67,74.233l13.279,13.35H428.67V74.233z M492,177.999h-16V97.582
	c0-2.643-1.046-5.179-2.91-7.053l-47.33-47.58c-1.877-1.887-4.429-2.947-7.09-2.947h-37.668v-20H492V177.999z"/>
<path d="M255.996,190.999c5.522,0,10-4.478,10-10v-41.999c0-5.522-4.478-10-10-10s-10,4.478-10,10v41.999
	C245.996,186.522,250.474,190.999,255.996,190.999z"/>
<path d="M255.996,226.668c2.63,0,5.21-1.061,7.069-2.93c1.86-1.86,2.931-4.431,2.931-7.07c0-2.63-1.07-5.21-2.931-7.07
	c-1.859-1.859-4.439-2.93-7.069-2.93c-2.63,0-5.21,1.07-7.07,2.93c-1.86,1.86-2.93,4.44-2.93,7.07c0,2.63,1.069,5.21,2.93,7.07
	C250.786,225.608,253.366,226.668,255.996,226.668z"/>
<path d="M211.094,227.304c1.952,1.952,4.511,2.929,7.07,2.929c2.559,0,5.119-0.977,7.071-2.93c3.905-3.905,3.905-10.236,0-14.142
	l-13.038-13.036c-3.904-3.904-10.237-3.904-14.142,0c-3.905,3.906-3.905,10.237,0,14.143L211.094,227.304z"/>
<path d="M292.767,230.179c2.56,0,5.118-0.977,7.071-2.929l13.473-13.473c3.905-3.905,3.905-10.237,0-14.143
	c-3.906-3.904-10.236-3.904-14.143,0l-13.473,13.473c-3.905,3.905-3.905,10.237,0,14.143
	C287.65,229.203,290.208,230.179,292.767,230.179z"/>
<path d="M394.66,425.776c-4.794-1.285-9.625-1.465-14.233-0.714l0.458-1.71c2.354-8.784,1.146-17.959-3.4-25.835
	c-4.547-7.875-11.889-13.509-20.673-15.862c-2.273-0.609-4.555-0.972-6.818-1.105v-7.276c0-48.453-36.851-88.458-83.999-93.467
	v-23.683c0-5.522-4.478-10-10-10s-10,4.478-10,10v23.683c-47.147,5.009-83.999,45.013-83.999,93.467v55.359
	c-8.201,2.546-15.043,7.997-19.361,15.477c-4.547,7.876-5.754,17.051-3.405,25.815l9.211,34.639c1.19,4.478,5.234,7.434,9.657,7.434
	c0.851,0,1.716-0.11,2.576-0.339c5.338-1.419,8.514-6.896,7.095-12.233l-9.216-34.658c-0.971-3.623-0.473-7.408,1.403-10.657
	c1.875-3.249,4.904-5.573,8.527-6.544c3.622-0.972,7.408-0.473,10.658,1.403c3.249,1.876,5.573,4.904,6.544,8.528l12.371,46.166
	c0.796,4.726,4.897,8.331,9.85,8.331c5.522,0,10-4.478,10-10V368.659c0-7.744,6.301-14.045,14.045-14.045s14.045,6.3,14.045,14.045
	v133.336c0,5.522,4.478,10,10,10s10-4.478,10-10v-21.853l28.078-104.785c0.971-3.624,3.295-6.652,6.544-8.528
	c3.248-1.875,7.032-2.375,10.657-1.403c7.48,2.005,11.936,9.722,9.932,17.202l-28.419,106.058c-0.11,0.41-0.184,0.821-0.24,1.23
	l-2.544,9.489c-1.43,5.335,1.735,10.818,7.069,12.249c5.343,1.431,10.818-1.736,12.249-7.069l25.114-93.68
	c2.005-7.48,9.723-11.94,17.201-9.933c7.481,2.005,11.937,9.722,9.932,17.2l-7.839,29.24c-0.282,0.804-0.545,1.62-0.769,2.456
	l-13.103,49.282l-0.068,0.254c-0.001,0.004-0.001,0.007-0.002,0.011l-0.002,0.009c-0.069,0.261-0.115,0.487-0.149,0.695
	c-0.978,5.102,2.127,10.167,7.223,11.534c0.867,0.232,1.739,0.344,2.596,0.344c4.222,0,8.095-2.699,9.474-6.841
	c0.055-0.154,0.109-0.322,0.161-0.512c0.006-0.021,0.014-0.04,0.019-0.06l13.71-51.134c2.6-6.512,9.733-10.218,16.667-8.356
	c3.624,0.971,6.653,3.295,8.528,6.544c1.876,3.249,2.374,7.034,1.397,10.678l-9.86,37.11c-1.418,5.338,1.76,10.814,7.097,12.233
	c0.861,0.229,1.725,0.338,2.575,0.338c4.423-0.001,8.468-2.958,9.658-7.435l9.854-37.09
	C423.592,449.339,412.794,430.635,394.66,425.776z M189.143,431.649c-2.286-1.32-4.683-2.349-7.146-3.101v-28.604h15.91v38.941
	C195.445,436.037,192.5,433.587,189.143,431.649z M231.951,334.614c-18.772,0-34.044,15.272-34.044,34.044v11.287h-15.91v-6.672
	c0-37.41,27.911-68.405,63.999-73.305v37.689C241.711,335.709,236.958,334.614,231.951,334.614z M316.45,346.107
	c-18.129-4.857-36.836,5.941-41.694,24.074l-8.76,32.69v-34.213c0-0.951-0.049-1.89-0.126-2.821c0.075-0.494,0.126-0.996,0.126-1.51
	v-64.358c28.465,3.865,51.831,23.962,60.436,50.644C323.445,348.631,320.099,347.085,316.45,346.107z"/>
<path d="M91.802,116.975H54.196c-5.522,0-10,4.478-10,10c0,5.522,4.478,10,10,10h37.604c5.522,0,10-4.478,10-10
	S97.323,116.975,91.802,116.975z"/>
<path d="M91.802,156.974H54.196c-5.522,0-10,4.478-10,10c0,5.522,4.478,10,10,10h37.604c5.522,0,10-4.478,10-10
	C101.8,161.452,97.323,156.974,91.802,156.974z"/>
<path d="M419.304,116.975H381.7c-5.522,0-10,4.478-10,10c0,5.522,4.478,10,10,10h37.604c5.522,0,10-4.478,10-10
	S424.826,116.975,419.304,116.975z"/>
<path d="M419.304,156.974H381.7c-5.522,0-10,4.478-10,10c0,5.522,4.478,10,10,10h37.604c5.522,0,10-4.478,10-10
	C429.304,161.452,424.826,156.974,419.304,156.974z"/>
<g>
</g>
<g>
</g>
<g>
</g>
<g>
</g>
<g>
</g>
<g>
</g>
<g>
</g>
<g>
</g>
<g>
</g>
<g>
</g>
<g>
</g>
<g>
</g>
<g>
</g>
<g>
</g>
<g>
</g>
</svg>
