<svg enable-background="new 0 0 140 140" height="512" viewBox="0 0 140 140" width="512" xmlns="http://www.w3.org/2000/svg"><circle cx="70" cy="70" fill="#45b39c" r="64"/><path d="m61.8900299 56.5650101v3.0699463l-7.4800415-7.4799805c-.0099487-.0100098-.0199585-.0200195-.0299683-.0299072l-.1300049-.130127-.0100098.0100098c-1.1099854-1.0500488-2.5999756-1.6899414-4.2399902-1.6899414-3.4400024 0-6.2299805 2.7900391-6.2299805 6.2299805 0 1.7900391.7600098 3.3900146 1.9699707 4.5300293l16.1500244 16.1499023v5.4100342l-3.5-3.5799561c-.25-.2700195-.4899902-.5200195-.7800293-.75-.539978-.4499512-1.3599854-.2600098-1.6699829.3699951l-3.5100098 7.1800537c-.6499634 1.3399658-.3699951 2.9499512.7000122 3.9899902l8.1799927 7.8898926h-.6099854v1.8701172h-.8800049v18.1499023l15.9718018 15.9717941c24.4302979-2.1929932 44.8925781-18.1080246 53.6403809-39.9857101l-24.1322021-24.1259766-18.8699951-18.8701171c-.8399658-.9499512-1.9299927-1.6499023-3.1699829-2l-11.8699951-11.869873c-1.5800171-1.9101562-3.9700317-3.130127-6.6400146-3.130127-4.7600098 0-8.6099854 3.8601074-8.6099854 8.6101074 0 2.6499023 1.1900024 5.0100098 3.0700073 6.5998535l4.6699829 4.6601562c-1.1600341.4799806-1.9899902 1.6098634-1.9899902 2.9499513z" opacity=".1"/><path d="m85.4000397 31.3050003c-3.4400024 0-6.2300415 2.7900391-6.2300415 6.2299805 0 1.6500244.6500244 3.1500244 1.6900024 4.2700195l.0900269.0899658c.0299683.0400391.0700073.0699463.0999756.1099854l49.3179321 49.2573242c1.5825806-4.4929199 2.678833-9.2131348 3.2233276-14.1022949l-43.6112671-43.8449707c-1.1399536-1.2299805-2.7699585-2.0100098-4.579956-2.0100098z" opacity=".1"/><ellipse cx="64.749" cy="42.36" fill="#fcd462" rx="8.612" ry="8.612" transform="matrix(.987 -.16 .16 .987 -5.949 10.919)"/><ellipse cx="64.749" cy="42.36" fill="#f7be56" rx="6.94" ry="6.94" transform="matrix(.987 -.16 .16 .987 -5.949 10.919)"/><g fill="#fcd462"><path d="m68.050499 42.8068657c-.2483444-.3265114-.603508-.5574722-1.0654984-.6929474.3577805-.1771622.6252441-.409893.8023758-.6981926.1771698-.2882996.2657318-.5956879.2657318-.9222336 0-.3508186-.0998611-.6868935-.2995682-1.008194-.1997299-.3212967-.4758911-.5592117-.8284454-.7138062-.2670517-.1170578-.6010056-.1893997-1.0005646-.2177925v-.9513359h-1.0028152v.9372635h-.5071259v-.9372635h-1.0027809v.9372635h-.4247055v-.0023499h-1.1214485v.8988304h.7895927v5.8404694h-.7895927v.8987961h.7895927v.0025749h.7565613v.9388885h1.0027809v-.9388884h.5071259v.9388885h1.0028152v-.9473228c.3336945-.0161629.6257248-.0558243.8755188-.1192169.3351746-.0851212.613945-.2110329.8362427-.3777657s.4089966-.4038124.560112-.7112007c.1510925-.3073883.2266464-.6399879.2266464-.9977608 0-.4446029-.1241684-.8301887-.3725509-1.1567039zm-4.3844529-3.3658638h1.5266113c.5488129 0 .9361115.0356064 1.1619186.1068192.2257462.0712128.399437.2032089.5210037.3959885.1215973.1927795.182373.415947.182373.6695404 0 .267437-.0651245.489769-.1953812.6669006-.1302567.1771355-.3239059.3039474-.5809784.3803749-.194519.0590439-.5157776.0885658-.9638901.0885658h-1.6516571v-2.3081894zm3.5586472 5.1660309c-.1007385.1858253-.2292557.3273849-.3855896.4246407-.1563034.0972595-.3508224.1667366-.583519.2083931-.1320343.0243416-.3612823.0365105-.687767.0365105h-.6461029-.5071259-.7485428v-2.6260147h1.7662964c.4862976 0 .8588104.0425606 1.1176224.1276512.2587738.0850906.4610825.2327309.606987.4428635.145874.2101631.2188263.4576721.2188263.7424927 0 .2431296-.050354.4576414-.1510849.643463z"/><path d="m64.737236 48.6195755h-.0001068c-.2256165-.0003281-.4530869-.012886-.6763-.0373459-.0613747-.0067711-.1057129-.0619202-.0989418-.1234016.0066643-.0613708.0608253-.1066933.1234016-.098938.2151337.0235863.4345245.0357094.6520538.0360374.0618134.0001068.1118317.0502319.1117172.1119347-.0001068.0616989-.0501251.1117134-.111824.1117134zm.664505-.0340691c-.0565643 0-.1050491-.0427017-.1110611-.1001434-.006546-.0613708.0380096-.1164093.0994873-.1228523.2161179-.0228233.4331055-.0576591.6449585-.1036339.0602798-.0126686.120018.0252228.1330109.0856133.0131073.0603905-.0252228.1199074-.0856171.1330109-.2197189.0476151-.4447861.0837593-.6689835.1073494-.0039291.0004348-.0078582.000656-.011795.000656zm-1.9851074-.1108436c-.0079727 0-.0160522-.0008736-.0242462-.0026207-.2196083-.0484886-.439106-.1097488-.6526031-.182045-.0584221-.0198746-.0897636-.0833206-.0699997-.1418533.0198746-.0583153.0834351-.0898781.1418571-.0699997.2056313.0697784.4172707.1287498.6290169.1754913.0602798.0133209.0983925.0729446.0850677.1333351-.0115738.0522003-.0577698.0876923-.1090927.0876923zm3.2838745-.1710129c-.0468521 0-.0904236-.0295944-.1060333-.0763359-.0195541-.0586395.0120087-.1219788.0705414-.1415253.2065048-.0690193.4108276-.1500473.6075058-.2407951.0563431-.0262108.1225204-.0014229.148407.0547104.0258789.0561295.0014191.1225243-.0547104.148407-.2039948.0941353-.416069.178112-.6302185.249752-.0117951.0039291-.0236969.0057869-.035492.0057869zm-4.5425606-.2552109c-.015728 0-.0317802-.0033836-.0470695-.0104828-.2035561-.0947914-.4045982-.2019196-.5975647-.3186569-.0528526-.0318871-.0697784-.1006889-.0377846-.1535416.0317802-.0527458.1003609-.0698929.1535416-.0377846.1860847.1124802.379921.2158966.5761604.3073006.0560226.0259895.080265.0926056.0541649.1485176-.0188904.0407334-.0592957.0646477-.1014481.0646477zm5.7498131-.3007469c-.038002 0-.0750275-.0193291-.095993-.0542755-.0317764-.0529633-.0146332-.1216545.0383301-.1534309.1858673-.1114998.3680191-.2345695.5413284-.3658333.0491409-.0374565.1193542-.0277405.1565933.0216217.0373535.0492516.0276337.1193581-.0216217.1565971-.1796417.1361771-.3685608.2638397-.5611954.3793755-.0180206.0108108-.0378952.0159454-.0574417.0159454zm-6.8864097-.3868027c-.0235901 0-.0475044-.0074234-.0677071-.022934-.1789856-.1366119-.3524017-.284584-.5154419-.4395447-.0447731-.0424805-.0466309-.1133537-.0040436-.1580162.0424805-.0447769.1133537-.0466309.15802-.0040436.1573639.1493912.3245544.2920113.497097.4238205.0491409.0374603.0585327.1076775.0210762.1567078-.0220603.0288316-.0552558.0440102-.0890006.0440102zm7.9457969-.4158477c-.0297012 0-.0592957-.011795-.0813599-.0350533-.042366-.0449944-.0402908-.115757.0045929-.1581306.1580124-.1489525.3095932-.3081741.4506836-.4730721.0399704-.0470657.1106186-.0524178.1575775-.0123405.0469589.040081.0525284.110733.0123444.1575851-.146225.1711197-.3033676.3361282-.4670715.4905434-.0216217.02042-.0492477.030468-.076767.030468zm-8.9088669-.4996109c-.0317802 0-.0633392-.0134315-.0853996-.0395317-.1458969-.1722145-.2837105-.3538208-.4097328-.5396843-.0346184-.0511093-.0212936-.1205635.0298119-.1552887.0511093-.0346184.1206703-.0215149.1553993.0299225.1214333.179203.2544441.3542557.3950996.5204659.0399666.0471764.0340729.1177216-.0129967.1575813-.0210762.0177993-.0467376.026535-.0721817.026535zm9.7717972-.5106354c-.0217285 0-.0436783-.0063362-.0629044-.0194397-.0509949-.0348358-.064209-.1044006-.0293732-.1553955.1227493-.1797523.2366486-.3675842.3386459-.5585823.0289383-.0544891.0966415-.074913.1513519-.0458641.0543823.0290489.0750275.0968628.0458679.1513557-.1057129.1979866-.2238693.392807-.3510895.5791092-.0217359.0317802-.0567854.0488167-.0924986.0488167zm-10.5171165-.5898133c-.0400772 0-.078846-.0216217-.098938-.0595169-.1056023-.1995125-.2011528-.406456-.2841492-.6152534-.0227165-.0573311.0052414-.1224174.0626831-.1452408.0575485-.0224991.1223068.0052414.1452408.0626831.079937.2012634.1721077.4007759.2738838.5931969.0289383.0545998.0080795.1223068-.0465202.1511383-.0167084.0088425-.0346184.0129928-.0522003.0129928zm11.1432915-.5817298c-.0139771 0-.0280609-.0026207-.0417175-.0080795-.0573273-.0230446-.0850677-.0881271-.062027-.145462.0810318-.2015877.1517944-.4096222.2102203-.6184196.0167084-.0594101.0792847-.0935898.1378174-.0775375.0595169.0166016.0942383.0783005.0775299.1378174-.0606079.2165489-.1339874.4324455-.2180786.6415749-.0175782.043678-.0595169.0701063-.1037445.0701063zm-11.6343804-.6534768c-.0490341 0-.0940247-.0325432-.1076775-.0821228-.059845-.2176437-.1084404-.4403076-.1442566-.6619949-.0098305-.060936.031559-.1183739.0926056-.1282043.0610428-.0107002.1182671.0316696.1282043.0926056.0345078.213604.081356.4284058.1390152.6381874.0163803.0596275-.0185623.121109-.0780792.1374893-.0099372.0027313-.0199851.0040397-.0298118.0040397zm11.9930077-.6258468c-.0060043 0-.0122299-.0004387-.0183487-.0015297-.060936-.0100479-.102211-.0677071-.0920563-.1285324.0353851-.2137146.0595169-.4321213.0717468-.6492195.0033875-.0616989.0567856-.1085472.1178284-.105381.0617065.0033836.1088791.0562401.1053848.1178284-.012558.2251816-.0375671.4516716-.0743713.6732445-.0090637.0548209-.0564575.0935897-.1101837.0935897zm-12.205082-.6858025c-.059082 0-.1084404-.0463028-.1116066-.1059303-.0057907-.1100769-.0086288-.2210274-.0086288-.332634 0-.1156464.0031662-.2305298.0093918-.3447571.0032768-.0615921.0551491-.1121521.1177216-.1054916.0615921.0032768.1088753.0560226.1054916.1177216-.0060081.1100769-.0089531.2210312-.0089531.3325272 0 .1076736.0028381.214695.0084076.3208427.0031662.0616989-.0442276.1143341-.1058197.1176109-.0020752.0001106-.0040398.0001106-.0060044.0001106zm12.279995-.6408081c-.0591888 0-.108551-.0464134-.1116028-.1062584-.0109253-.2173157-.0337448-.435833-.0678177-.6496544-.0097198-.060936.0317764-.1182671.0928192-.1279869.0605011-.0098267.1182709.0318871.1279907.092823.0353851.2216835.059082.4482841.0704346.6736794.0030594.0615921-.0444412.1141205-.1061478.1172867-.0018539.0001106-.0038146.0001106-.0056762.0001106zm-12.2073746-.6860237c-.0060081 0-.0120125-.0004349-.0181274-.0014191-.0610466-.0100441-.1023254-.0674858-.0923882-.1284218.0364723-.2226677.0855064-.4452248.1455688-.6616669.0164909-.0595169.0784073-.0937004.1377068-.0778656.0595169.0166016.0943527.0781898.0778618.1377068-.0579872.2086906-.1052742.423275-.1403275.6378632-.0090637.0549278-.0564575.0938034-.1102943.0938034zm11.9979248-.6261749c-.0491409 0-.0941391-.03265-.1077881-.0823402-.0574417-.2099991-.1268921-.4184685-.2065048-.6197319-.0227127-.0574417.0054626-.1224174.0627899-.145134.0572281-.0226021.1224213.0054626.145134.0627937.0825577.2089081.154747.4252396.2143707.6431046.0162735.0595131-.0187836.1209984-.0784073.1373787-.0098342.0026206-.0197677.0039291-.0295944.0039291zm-11.64225-.6540222c-.0138664 0-.0278435-.0025139-.0414963-.0079727-.0573311-.022934-.085289-.0880165-.062355-.1453514.0834312-.2089043.1794205-.4157372.2852402-.6144905.0289383-.0545998.0968666-.0752411.1512489-.0461922.054493.0290489.0752411.096756.0461922.1512451-.1019974.1916542-.1944923.3909531-.2749748.5924339-.0174714.0436821-.059517.0703278-.1038552.0703278zm11.1542129-.5821686c-.040184 0-.0790634-.0217285-.0990448-.0597343-.1011276-.1918716-.2140427-.3804665-.3354797-.5605431-.0345078-.0512161-.0210724-.1207809.0301437-.1552887s.1206741-.0210762.1552887.0301399c.1260223.1867409.242981.3824348.3479233.5815125.0288315.0546036.0078659.1222-.0468445.1510277-.0166015.0087394-.0344009.012886-.0519867.012886zm-10.5303268-.5907936c-.0216255 0-.0435753-.0062256-.0627937-.0193291-.0511093-.0347252-.0643196-.10429-.0295944-.1553955.1265678-.1860847.2647095-.3672562.4106064-.5387039.0401878-.0470695.1106262-.052639.157692-.0126686.0469589.0400772.0526352.1106224.0126686.157692-.1406555.165226-.2738838.3400612-.395977.5194817-.0216219.0317801-.0567857.0489234-.0926019.0489234zm9.7871933-.5111847c-.0318832 0-.063446-.0134315-.0855026-.0396385-.1401138-.1658821-.2908096-.3258667-.4478455-.4758034-.0446701-.0426979-.0463028-.1134644-.0037155-.1581268.0427017-.0446663.1135712-.0461922.1581268-.0037117.1628265.1553955.318985.3213844.4642258.4932747.0398636.0471725.0339661.1177216-.0132141.1575813-.0209656.0177993-.0466309.0264244-.0720749.0264244zm-8.9260102-.5009194c-.0295944 0-.0591888-.0116844-.0812492-.0349426-.0423698-.0448837-.0405159-.1156464.0043678-.1581268.1634789-.1547432.3372231-.3022804.5163155-.4385643.0490341-.0374565.1193619-.0278473.1567078.0212936.0373497.0491409.0278473.1192513-.0212936.1567078-.17276.1314812-.3402786.2737732-.4979706.4230576-.0216218.02042-.0492516.0305747-.0768777.0305747zm7.96447-.4162826c-.0236969 0-.0476151-.0075378-.0679245-.0230446-.1721039-.1320267-.3534927-.2561913-.539032-.3689995-.052742-.0321045-.0695648-.1009064-.0374603-.1536522.0321121-.0526352.1007996-.0694504.153656-.0374565.1924133.1169586.3804626.2457123.5589066.3825417.0490265.0376778.0583115.1077843.0207443.1568184-.0220567.0287208-.0552521.0437927-.0888901.0437927zm-6.9066124-.3881111c-.0378914 0-.074913-.0192223-.0958786-.0540581-.0318909-.0529633-.0148544-.1216545.038002-.1535416.1929626-.1163025.3943367-.2232132.5986557-.3177834.0561295-.0261002.1226349-.0015297.148407.054493.0259933.0560226.0015297.1225281-.054493.148407-.1968918.0911865-.3910561.1942749-.577034.306427-.0181274.0109215-.038002.0160561-.0576591.0160561zm5.7713279-.3019524c-.0158386 0-.0319977-.0033836-.047287-.0104828-.196785-.0920601-.4006729-.1742897-.6058655-.2444-.0584259-.0199814-.089653-.0835381-.0696716-.141964.0198746-.0584221.0835419-.0896568.1419678-.0696716.2128372.0726204.4242554.1579094.6283569.2533531.0559158.0262108.0800476.092823.0539474.148735-.0189971.0406266-.0592956.0644303-.101448.0644303zm-4.5653877-.2565193c-.0467377 0-.0902023-.0294838-.1059265-.0761147-.0197678-.0585327.0116844-.1219826.0702171-.1416397.2131691-.0718536.4329948-.1326828.6533699-.1809502.0600624-.0135422.1197968.0247917.1331177.085289.0132141.0602798-.0248985.1199074-.085289.1331215-.2123985.0465202-.4242554.1052704-.6297798.1743965-.0119019.0040398-.0239144.0058976-.0357094.0058976zm3.3079033-.1723251c-.0080795 0-.0162735-.0008736-.0244598-.0027275-.2115326-.0471764-.4281921-.0833244-.6441956-.1073494-.0613785-.0068779-.1056061-.0621376-.0988312-.1235085.0069885-.0614815.0638809-.1040726.1235123-.0988312.2240829.0250092.448822.0624657.6682129.1114998.0602875.0134315.0982895.0731659.0847473.1334457-.0115738.0520897-.0577698.0874711-.1089859.0874711zm-2.0096817-.112259c-.0564575 0-.1049461-.0425911-.1110611-.0999222-.0065536-.0613747.0378952-.1165199.0992661-.1230736.2231064-.0239143.4506836-.0360374.6761932-.0360374h.0247879c.0618057 0 .111824.0500145.111824.111824s-.0500183.111824-.111824.111824h-.0247879c-.2176437 0-.437149.0116882-.6523895.034729-.004036.000435-.0080796.0006562-.0120087.0006562z"/><ellipse cx="81.449" cy="55.117" rx="6.634" ry="6.634" transform="matrix(.987 -.16 .16 .987 -7.777 13.758)"/></g><ellipse cx="81.449" cy="55.117" fill="#f7be56" rx="5.346" ry="5.346" transform="matrix(.987 -.16 .16 .987 -7.777 13.758)"/><g fill="#fcd462"><path d="m83.9922638 55.4617081c-.1912994-.2515144-.4648895-.4294243-.820755-.5337791.275589-.136467.4816208-.3157425.6180725-.5378189.136467-.2220764.204689-.4588585.204689-.7103958 0-.270237-.0769272-.5291176-.2307587-.7766113-.1538544-.2474976-.3665771-.4307632-.6381531-.5498505-.2057114-.090168-.4629517-.1458931-.7707367-.1677628v-.7328148h-.7724686v.7219772h-.3906403v-.7219772h-.7724457v.7219772h-.3271484v-.001812h-.8638535v.6923676h.608223v4.4989204h-.608223v.6923447h.608223v.0019836h.5827789v.7232285h.7724457v-.7232285h.3906403v.7232285h.7724686v-.7297249c.2570419-.0124512.4819946-.0430031.6744156-.0918312.2581863-.0655708.4729233-.1625595.6441574-.2909966.1712418-.1284332.3150482-.3110542.4314575-.5478363.1163788-.2367859.1745834-.4929848.1745834-.7685776.0000001-.3424758-.0956496-.6394958-.2869719-.8910102zm-3.3773499-2.5927315h1.1759491c.4227524 0 .7210846.0274277.8950272.0822868.1738892.0548553.3076859.1565323.401329.305027.0936661.1484985.14048.3204079.14048.5157509 0 .2060051-.0501633.3772697-.1505051.5137138-.1003342.1364441-.2495041.2341309-.447525.2930031-.1498337.0454826-.3973083.068222-.742485.068222h-1.2722702zm2.7412262 3.9794044c-.0775986.1431389-.1765976.252182-.29702.3270988-.1203995.0749207-.2702408.128437-.4494858.1605263-.1016998.0187492-.2782974.0281219-.5297852.0281219h-.4976959-.3906403-.5765991v-2.0228195h1.3605804c.374588 0 .6615448.0327835.8609009.0983276.1993408.0655441.3551788.1792755.4675674.3411369.1123657.1618919.1685562.3525467.1685562.5719452.0000002.1872827-.0387876.3525201-.1163786.4956628z"/><path d="m81.4400482 59.9392471h-.0000839c-.17379-.0002556-.3490143-.0099297-.5209503-.0287704-.0472794-.0052147-.0814285-.0476952-.0762177-.0950546.0051346-.0472755.0468597-.0821877.0950546-.0762138.1657181.0181694.3347168.0275078.5022812.0277596.0476151.0000839.0861435.0386963.0860596.0862236s-.0386124.0860556-.0861435.0860556zm.5118714-.0262489c-.0435715 0-.080925-.0328903-.0855484-.077137-.0050507-.0472755.029274-.0896721.0766296-.094635.1664734-.0175819.3336258-.0444145.4968185-.0798302.0464325-.009758.0924454.0194321.1024551.0659523.0100937.0465164-.0194321.0923615-.0659485.1024551-.1692505.0366783-.3426208.0645218-.5153198.0826912-.0030288.0003358-.0060577.0005036-.0090865.0005036zm-1.5291291-.0853806c-.0061417 0-.0123672-.0006714-.0186768-.002018-.1691666-.0373497-.3382492-.0845413-.5027008-.1402283-.0450058-.0153084-.0691452-.0641823-.0539246-.109272.0153122-.0449219.06427-.0692291.1092758-.0539207.1583939.0537529.3214188.0991783.4845276.1351814.0464325.0102615.0757904.0561905.0655289.1027107-.0089111.040207-.0444946.0675469-.0840301.0675469zm2.5295716-.1317329c-.036087 0-.0696564-.0227966-.0816803-.0587997-.0150604-.0451698.0092545-.0939598.0543365-.1090202.1590729-.0531616.3164597-.1155777.4679642-.185482.0434036-.0201912.0943832-.0010948.1143188.0421448.0199356.0432358.001091.0943794-.0421448.1143188-.157135.0725098-.3204956.1371994-.4854584.1923828-.0090865.003025-.0182494.0044555-.027336.0044555zm-3.4991455-.1965866c-.0121078 0-.0244751-.0026093-.0362549-.0080757-.1567993-.0730171-.3116608-.1555367-.4603043-.2454643-.0407104-.0245628-.0537491-.0775566-.0291061-.1182709.0244827-.0406303.0773087-.0538368.1182785-.0291061.1433411.0866432.2926483.1663055.4438171.2367134.0431519.0200195.0618286.0713348.0417175.1144028-.0145492.0313796-.0456771.0498008-.0781478.0498008zm4.4290924-.2316666c-.029274 0-.0577927-.0148888-.0739441-.0418091-.0244751-.0407982-.0112686-.093708.0295258-.118187.1431732-.0858879.2834854-.1806908.4169846-.2818031.0378571-.0288544.0919418-.0213661.1206284.016655.0287704.037941.0212784.0919456-.016655.1206284-.138382.1049004-.283905.2032356-.4322968.2922325-.0138779.0083275-.0291901.0122833-.0442429.0122833zm-5.3046112-.2979545c-.0181656 0-.0365906-.0057182-.0521545-.0176659-.1378708-.1052322-.2714539-.2192154-.397049-.3385811-.0344849-.0327225-.0359192-.0873184-.0031052-.1217232.0327225-.0344887.0873108-.0359192.1217194-.0031128.1212158.115078.25.2249374.3829117.3264694.0378571.0288544.0450897.082943.0162354.1207123-.0169908.0222092-.0425645.0339013-.0685578.0339013zm6.1206588-.3203278c-.0228806 0-.0456772-.0090866-.0626678-.0270042-.0326385-.0346565-.031044-.0891647.0035324-.1218033.1217194-.1147423.2384796-.2373886.3471603-.3644104.0307922-.0362549.0852127-.0403748.1213837-.0095024.036171.0308685.0404663.0852966.0095062.1213837-.1126328.1318169-.2336807.2589226-.3597794.3778687-.0166549.0157279-.0379409.0234679-.0591354.0234679zm-6.8625107-.3848495c-.0244827 0-.04879-.0103455-.0657806-.0304527-.1123886-.1326561-.218544-.2725487-.3156204-.4157181-.0266647-.0393715-.0164032-.0928688.0229645-.1196213.0393677-.0266647.0929489-.016571.1197052.0230484.0935364.1380424.1959991.2728882.3043442.4009171.0307846.0363388.0262451.090683-.0100098.1213875-.0162354.0137099-.0360031.0204391-.0556031.0204391zm7.5272294-.3933449c-.0167465 0-.0336533-.004879-.0484543-.0149727-.0392838-.0268364-.0494614-.0804214-.0226288-.1197052.0945511-.1384583.1822891-.2831459.2608566-.4302711.0222931-.0419769.07444-.0577087.1165848-.0353317.041893.022377.0577927.0746155.0353317.1165924-.0814285.1525078-.1724472.302578-.2704468.4460869-.0167388.0244788-.0437393.0376014-.0712432.0376014zm-8.1013489-.4543343c-.0308762 0-.0607376-.016655-.0762177-.045845-.081337-.1536865-.1549454-.3130913-.2188797-.4739304-.0174942-.0441628.0040436-.0942993.0482864-.1118813.0443344-.0173264.0942154.0040398.1118774.0482864.0615768.1550331.132576.3087196.2109756.4569397.0222931.0420609.0062256.0942154-.0358353.1164207-.0128706.006817-.0266645.0100099-.0402067.0100099zm8.5836868-.4481048c-.0107651 0-.0216141-.002018-.032135-.0062256-.0441589-.0177498-.0655289-.0678864-.0477753-.1120491.0624161-.1552849.1169281-.3155327.1619263-.4763718.0128708-.0457611.0610733-.0720901.106163-.0597229.045845.0127869.0725937.0603142.0597229.1061592-.0466843.1668091-.1032104.3331146-.167984.4942055-.0135422.0336456-.045845.0540047-.0799179.0540047zm-8.9619751-.503376c-.0377731 0-.0724258-.0250664-.0829468-.0632553-.0460968-.1676521-.0835266-.3391724-.1111221-.5099373-.0075684-.0469398.0243149-.0911865.0713348-.0987587.0470276-.0082436.0911026.024395.0987625.0713348.0265808.1645393.0626678.3300018.1070786.4916.012619.045929-.0142975.0932884-.0601425.1059036-.0076523.0021058-.0153961.0031129-.0229645.0031129zm9.2382279-.48209c-.0046234 0-.0094223-.0003357-.0141296-.0011787-.0469437-.00774-.0787354-.0521545-.0709152-.0990105.0272522-.1646194.045845-.3328629.0552673-.5000916.0026093-.0475273.0437393-.0836143.0907669-.0811768.0475235.0026093.0838623.0433235.0811768.0907669-.0096741.1734543-.0289383.3479195-.0572891.5186005-.006981.0422287-.0434877.0720902-.0848771.0720902zm-9.4015885-.5282746c-.0455093 0-.0835342-.0356674-.0859756-.0815964-.0044556-.0847931-.0066452-.1702576-.0066452-.2562294 0-.0890846.0024414-.177578.0072403-.2655678.0025177-.0474434.0424805-.0863914.0906754-.0812607.0474472.0025253.0838699.0431557.0812607.090683-.0046234.0847931-.006897.1702576-.006897.2561455 0 .082943.0021896.1653786.0064774.2471428.0024414.0475311-.0340652.0880737-.0815125.0905991-.0015946.0000839-.0031129.0000839-.0046235.0000839zm9.4592972-.4936142c-.0455933 0-.0836182-.0357513-.0859756-.081852-.0084076-.1673965-.0259933-.3357201-.0522385-.5004272-.0074844-.0469398.0244827-.0911026.0715027-.0985909.046608-.0075684.0911026.0245628.098587.0715027.0272598.1707649.0455093.345314.0542603.5189362.0023575.0474434-.0342331.0879059-.0817642.0903435-.0014268.0000877-.002945.0000877-.0043717.0000877zm-9.4033585-.5284424c-.0046234 0-.0092545-.0003395-.0139618-.0010948-.0470276-.00774-.0788193-.0519867-.071167-.0989265.0280991-.1715202.0658646-.3429565.1121292-.5096817.0127029-.045845.0604019-.0721741.1060791-.0599785.045845.0127869.0726776.0602303.0599747.1060753-.0446701.1607552-.0810928.3260498-.1080933.4913445-.0069808.0423126-.0434875.0722617-.0849609.0722617zm9.2420121-.4823455c-.0378494 0-.0725098-.0251503-.0830231-.063427-.0442505-.1617622-.0977478-.3223457-.1590729-.4773788-.0174942-.0442505.0042038-.0942993.0483704-.1117973.044075-.0174141.0942993.0042076.1117935.0483704.0635986.1609192.1192017.3275604.1651306.4953804.0125351.045845-.014473.0932045-.0604019.1058235-.0075684.0020179-.0152207.0030288-.0227966.0030288zm-8.9680329-.5037957c-.0106812 0-.0214539-.0019341-.0319672-.0061417-.0441589-.017662-.0656967-.0677986-.0480347-.1119614.06427-.160923.1382141-.3202438.2197266-.4733429.0222931-.0420609.0746155-.0579605.1165009-.0355835.0419769.022377.0579605.0745316.0355835.1165047-.0785675.1476326-.1498184.3011513-.2118149.4563522-.0134582.0336496-.045845.0541726-.0799942.0541726zm8.5921021-.4484443c-.0309525 0-.0609055-.0167389-.0762939-.0460129-.0778961-.1477966-.1648788-.2930717-.2584229-.4317856-.0265808-.0394554-.0162354-.0930367.0232239-.1196213.0394516-.0265808.0929489-.0162354.1196136.0232162.0970764.1438484.1871719.29459.2680054.4479408.0222092.0420609.0060577.0941315-.036087.1163368-.0127869.0067293-.026497.009926-.0400391.009926zm-8.1115265-.4550896c-.016655 0-.0335617-.0047913-.0483704-.0148888-.0393677-.0267487-.0495453-.0803337-.0227966-.1197014.097496-.1433411.2039108-.2828941.3162918-.4149628.0309601-.0362587.0852127-.0405464.1214752-.009758.036171.0308723.0405426.0852127.009758.1214676-.1083527.1272736-.2109756.2619514-.3050232.4001579-.0166549.024479-.0437393.0376855-.0713348.0376855zm7.539093-.3937645c-.0245667 0-.0488739-.0103455-.0658722-.0305367-.1079254-.1277771-.2240067-.2510109-.3449707-.3665085-.0344086-.0328903-.0356674-.0874023-.002861-.1218071.0328903-.0344048.0874863-.0355835.1218033-.002861.1254272.1197052.2457123.2475662.3575974.3799706.0307007.0363426.0261612.090683-.0101776.1213875-.0161515.01371-.0359193.0203552-.0555192.0203552zm-6.8757172-.3858566c-.0227966 0-.0455933-.0090027-.0625916-.0269203-.0326385-.0345726-.0312042-.0890808.0033646-.1218071.1259308-.1191978.2597656-.2328415.3977203-.3378258.0377731-.0288506.0919418-.02145.1207123.0164032.0287704.0378571.0214539.0918617-.0164032.1207123-.1330795.101284-.2621155.2108917-.3835831.325882-.0166549.0157317-.0379409.0235557-.0592193.0235557zm6.1350403-.3206673c-.0182571 0-.0366821-.0058022-.0523224-.0177498-.132576-.1016998-.2723007-.1973457-.4152222-.2842407-.0406265-.0247307-.0535812-.0777283-.0288467-.1183586.0247269-.0405426.0776367-.0534973.1183548-.0288506.1482162.0900917.2930756.18927.4305267.2946701.0377655.0290222.0449142.0830269.0159836.1207962-.0169983.0221253-.0425644.0337334-.0684738.0337334zm-5.3201751-.2989616c-.0291901 0-.0577011-.0148048-.0738525-.0416412-.0245667-.0407982-.0114441-.093708.029274-.1182709.1486359-.0895882.3037567-.1719437.4611435-.2447891.0432358-.0201073.0944672-.0011787.1143188.0419769.0200195.0431519.0011749.0943794-.0419769.1143188-.1516647.07024-.3012314.1496468-.4444885.2360382-.0139619.0084114-.0292741.0123673-.0444184.0123673zm4.4456634-.2325936c-.0121994 0-.0246506-.0026054-.0364304-.0080757-.1515808-.0709114-.3086319-.1342545-.4666977-.1882591-.0449982-.0153923-.0690613-.0643501-.0536652-.1093559.0153122-.0450058.0643539-.0690613.1093597-.053669.1639481.0559387.3268051.1216393.484024.1951599.0430679.0201874.0616608.0714989.0415573.1145706-.0146406.031292-.045677.0496292-.0781477.0496292zm-3.5167236-.1975975c-.0360031 0-.0694809-.0227127-.0815964-.0586319-.0152283-.0450859.0090027-.0939598.0540848-.1091042.1642075-.0553513.3335419-.1022034.5032959-.1393852.0462646-.0104294.0922775.0190964.1025391.0656967.0101776.0464363-.0191803.0923653-.0656967.1025429-.1636124.0358353-.3268051.0810928-.4851227.1343384-.009163.0031128-.0184174.0045433-.027504.0045433zm2.5480804-.13274c-.0062256 0-.0125351-.0006752-.0188446-.0021019-.162941-.0363426-.329834-.0641861-.4962234-.0826912-.0472794-.0052986-.0813446-.047863-.0761261-.0951385.0053787-.0473595.0492096-.0801697.0951385-.0761299.1726151.0192642.3457336.0481148.5147324.0858879.0464325.0103455.0757065.0563583.0652771.1027946-.0089188.040123-.0445023.067379-.0839539.067379zm-1.5480652-.0864754c-.0434875 0-.0808334-.0328064-.0855484-.0769691-.005043-.0472755.0291901-.089756.0764694-.0948029.1718521-.018425.3471603-.0277596.5208664-.0277596h.0190964c.0476151 0 .0861359.0385246.0861359.0861359s-.0385208.0861397-.0861359.0861397h-.0190964c-.1676483 0-.336731.0090027-.502533.0267525-.0031127.0003357-.0062255.0005035-.0092544.0005035z"/><ellipse cx="49.997" cy="56.544" rx="6.224" ry="6.224" transform="matrix(.987 -.16 .16 .987 -8.412 8.739)"/></g><ellipse cx="49.997" cy="56.544" fill="#f7be56" rx="5.016" ry="5.016" transform="matrix(.987 -.16 .16 .987 -8.412 8.739)"/><path d="m52.38237 56.8671684c-.1794891-.2359848-.4361877-.4029121-.7700882-.500824.2585831-.1280479.4518967-.2962532.5799179-.5046196.1280441-.2083664.1920547-.4305344.1920547-.6665421 0-.2535553-.0721779-.4964523-.2165108-.728672-.1443558-.2322159-.3439522-.4041672-.5987625-.5159035-.1930084-.0846024-.4343719-.1368866-.723156-.1574097v-.6875763h-.724781v.6774063h-.3665237v-.6774063h-.7247581v.6774063h-.3069573v-.0016975h-.8105278v.6496277h.5706787v4.2211914h-.5706787v.6496048h.5706787v.0018616h.5468063v.6785812h.7247581v-.6785812h.3665237v.6785812h.724781v-.6846771c.2411766-.0116806.4522438-.0403481.632782-.0861626.2422447-.0615234.4437256-.152523.604393-.2730293s.2956009-.2918549.4048233-.5140228c.1091957-.2221642.1638069-.4625473.1638069-.7211304.0000002-.3213347-.0897444-.6000175-.2692602-.8360061zm-3.1688614-2.4326744h1.1033592c.396656 0 .6765709.0257339.8397751.0772057.1631584.0514679.2886925.1468697.3765526.2861977.087883.1393318.131813.3006287.131813.4839134 0 .1932869-.0470695.3539772-.1412125.4820023-.0941467.1280212-.2341042.2196732-.4199028.2749138-.1405869.042675-.3727798.0640106-.6966515.0640106h-1.1937332v-1.6682435zm2.5720062 3.7337456c-.0728035.134304-.1656914.2366142-.2786827.3069077-.1129684.0702934-.2535553.1205063-.4217377.1506157-.0954247.0175896-.261116.0263863-.4970818.0263863h-.4669685-.3665237-.5410118v-1.8979454h1.2765923c.3514671 0 .6207047.0307579.8077583.0922585.1870308.0614967.3332481.1682053.4387016.320076.1054268.1518974.1581535.3307838.1581535.5366364.0000001.1757238-.0363922.3307607-.1091995.4650648z" fill="#fcd462"/><path d="m49.9877129 61.0682983h-.0000801c-.163063-.0002365-.3274689-.0093117-.4887962-.0269928-.0443573-.0048943-.0764008-.0447502-.0715065-.0891876.0048141-.0443573.0439644-.0771103.0891876-.0715065.1554871.0170479.3140526.0258102.4712753.0260468.0446701.0000763.0808182.0363045.0807419.0808983-.0000802.0445938-.0362282.0807418-.080822.0807418zm.4802703-.0246238c-.0408821 0-.0759277-.0308609-.0802689-.0723763-.004734-.0443573.0274658-.084137.0719032-.0887947.1561966-.0164948.3130264-.0416718.4661446-.0749016.0435677-.0091553.0867386.0182343.0961342.0618782.0094681.0436478-.0182343.0866623-.061882.0961342-.1587982.0344124-.3214684.0605392-.4835052.0775871-.002842.0003167-.0056839.0004731-.0085259.0004731zm-1.4347343-.0801125c-.005764 0-.0116043-.0006294-.0175247-.0018921-.1587219-.0350456-.3173637-.0793228-.4716682-.1315727-.0422249-.0143661-.0648766-.0602226-.0505905-.1025276.0143623-.0421448.0602989-.0649567.1025238-.0505905.1486206.0504341.3015823.0930557.4546204.1268349.0435677.0096283.0711136.0527229.0614853.0963707-.0083658.0377273-.041752.0633773-.0788461.0633773zm2.3734169-.1236c-.0338631 0-.0653534-.021389-.0766411-.0551682-.0141258-.0423851.0086823-.0881615.0509872-.1022911.1492538-.049881.2969246-.1084442.4390717-.1740341.0407257-.01894.0885582-.0010262.1072617.0395432.0187073.0405693.0010262.0885544-.0395432.1072617-.1474342.0680351-.3007088.1287308-.4554863.1805077-.0085258.0028418-.017128.0041808-.02565.0041808zm-3.2831345-.1844521c-.011364 0-.0229645-.0024452-.0340157-.007576-.1471214-.0685081-.2924232-.1459351-.4318886-.2303085-.0382004-.0230484-.0504341-.072773-.0273094-.1109734.0229683-.0381203.0725327-.0505142.1109734-.0273094.134491.081295.2745857.1560402.4164162.2221031.0404892.0187836.0580139.0669289.0391502.1073418-.0136566.0294381-.0428581.0467224-.0733261.0467224zm4.155674-.2173652c-.0274696 0-.0542259-.0139694-.0693779-.0392265-.0229683-.0382805-.0105782-.087925.0277023-.1108932.1343346-.0805817.2659836-.1695328.391243-.2644043.0355148-.0270729.0862656-.0200462.1131821.0156288.0269928.0355949.0199661.0862656-.0156288.1131783-.129837.098423-.2663803.1906891-.4056053.2741928-.0130234.0078162-.0273896.0115241-.0415154.0115241zm-4.9771461-.2795601c-.0170479 0-.0343323-.0053673-.0489349-.0165749-.1293602-.0987358-.2546959-.2056847-.3725357-.3176804-.0323601-.0307045-.0337029-.0819283-.0029182-.1142082.0307007-.0323601.0819244-.0337029.1142044-.0029182.1137352.1079712.2345734.2110481.3592796.3063164.0355148.0270691.042305.0778198.0152321.1132584-.0159455.0208358-.03994.0318069-.0643273.0318069zm5.7428169-.3005524c-.0214691 0-.0428581-.0085258-.0587997-.0253372-.0306244-.0325165-.0291252-.0836639.003315-.1142845.1142044-.1076584.2237549-.2227325.3257294-.3419151.0288887-.0340157.0799561-.0378838.1138916-.0089188.0339394.0289688.0379639.0800323.0089188.1138916-.1056824.1236801-.2192574.242939-.3375702.3545418-.0156289.014759-.0355951.0220222-.0554849.0220222zm-6.4388733-.3610916c-.0229683 0-.0457802-.0097084-.0617218-.0285721-.1054459-.1244698-.2050514-.2557259-.2961349-.3900566-.0250206-.0369415-.0153923-.0871391.0215454-.112236.0369415-.0250206.0872154-.0155487.1123161.0216255.0877647.1295204.1838989.2560387.2855568.3761673.0288887.0340958.0246239.085083-.0093918.1138916-.0152321.0128632-.0337791.0191803-.0521698.0191803zm7.0625534-.3690643c-.0157051 0-.0315704-.0045776-.0454597-.0140495-.0368614-.025177-.0464096-.0754547-.0212326-.1123123.0887146-.1299133.1710358-.2656708.2447548-.4037132.0209122-.0393829.0698471-.054142.1093903-.0331497.0393066.0209961.0542221.0700111.0331497.1093941-.0764008.1430931-.1618004.2839012-.2537498.4185486-.0157052.0229681-.0410424.035282-.0668527.035282zm-7.6012306-.4262848c-.0289688 0-.0569878-.0156288-.0715103-.0430145-.0763206-.1441994-.1453819-.2937698-.205368-.4446754-.0164146-.0414391.003788-.0884781.0453033-.1049728.0415955-.0162621.088398.003788.1049728.0453033.0577774.145462.1243896.2896614.1979523.42873.020916.0394669.0058403.088398-.0336227.1092377-.0120774.0063933-.0250207.0093917-.0377274.0093917zm8.0537987-.4204445c-.0101013 0-.0202827-.0018959-.0301476-.0058403-.0414391-.016655-.0614853-.063694-.0448303-.1051331.0585632-.1456985.1097069-.2960548.1519318-.4469643.0120773-.0429344.0573006-.0676384.0996056-.0560379.0430183.0119972.0681152.056591.0560417.0996056-.043808.1565132-.0968437.3125534-.1576195.4636993-.0127068.0315705-.0430146.0506707-.0749817.0506707zm-8.4087372-.4723015c-.0354347 0-.067955-.0235176-.0778198-.0593529-.043251-.1573029-.0783768-.3182335-.1042633-.4784546-.007103-.0440407.0228119-.0855598.0669289-.0926628.0441208-.0077324.0854797.022892.0926628.0669327.0249405.1543808.0587997.3096313.1004715.4612503.0118408.0430946-.0134163.0875282-.0564308.099369-.0071832.0019723-.0144425.0029183-.0215493.0029183zm8.6679344-.4523315c-.0043411 0-.0088387-.0003128-.0132599-.0011024-.0440407-.0072632-.0738754-.0489349-.0665359-.0928993.0255737-.1544609.0430145-.3123131.051857-.4692192.0024452-.0445938.0410423-.0784569.0851631-.0761681.0445938.002449.0786896.0406494.0761642.0851631-.009079.1627502-.027153.3264427-.0537491.4865875-.0065536.0396194-.0408058.0676384-.0796394.0676384zm-8.821209-.4956627c-.0426979 0-.078373-.0334625-.0806618-.0765572-.0041847-.0795593-.006237-.1597481-.006237-.2404137 0-.0835838.0022888-.1666145.0067863-.2491722.0023689-.0445137.0398598-.0810585.085083-.0762444.0445175.0023689.0786934.0404892.0762444.085083-.0043411.0795593-.0064697.1597519-.0064697.2403336 0 .0778236.0020523.1551704.0060768.2318878.0022888.0445938-.0319672.0826378-.0764809.0850067-.0014991.0000764-.002922.0000764-.0043411.0000764zm8.8753548-.4631424c-.042778 0-.0784531-.0335426-.0806656-.0767975-.0078926-.1570625-.0243874-.3149986-.0490112-.4695358-.0070267-.0440407.0229645-.0854797.0670853-.0925026.0437279-.007103.0854797.0230446.0925026.0670891.0255737.1602211.0427017.3239937.0509109.4869003.0022087.0445137-.0321236.0824776-.0767174.0847664-.0013427.0000801-.0027656.0000801-.0041046.0000801zm-8.8228683-.4958191c-.0043411 0-.0086823-.0003166-.0131035-.0010262-.044117-.0072632-.0739517-.0487785-.0667725-.0928192.0263634-.1609344.0618019-.321785.1052132-.4782181.0119171-.0430183.0566673-.0677223.0995255-.0562782.0430145.0119972.0681915.0565147.0562744.0995293-.0419083.1508293-.0760841.3059196-.1014214.4610138-.0065498.0396995-.0408058.0677986-.0797157.0677986zm8.6714859-.4525681c-.0355186 0-.0680351-.0236015-.0779037-.0595131-.0415154-.1517754-.091713-.3024483-.14925-.4479103-.0164146-.0415154.0039482-.0884781.0453835-.1048927.0413589-.0163383.0884781.0039444.1048927.0453796.0596695.1509895.1118431.3073425.1549339.4648018.0117607.0430183-.0135727.0874519-.0566673.0992928-.0071031.0018921-.0142862.0028419-.0213891.0028419zm-8.4144211-.4726944c-.0100212 0-.0201263-.0018158-.0299911-.005764-.0414352-.0165749-.0616417-.0636139-.0450668-.1050529.0602989-.1509857.1296768-.3004723.2061577-.4441223.020916-.039463.0700073-.0543785.109314-.0333862.0393829.0209961.0543785.069931.0333862.109314-.073719.1385193-.1405716.2825623-.1987381.4281807-.0126306.0315703-.0430185.0508307-.0750619.0508307zm8.0616951-.4207611c-.0290451 0-.0571442-.0157089-.0715866-.0431747-.0730858-.1386757-.1546974-.2749825-.242466-.4051323-.0249405-.0370178-.0152321-.0872917.0217857-.1122322.0370178-.0249443.0872154-.0152359.1122322.0217819.0910835.134964.1756134.2764015.2514648.4202881.0208359.039463.0056801.0883179-.0338593.1091537-.0119971.0063172-.0248641.0093155-.0375708.0093155zm-7.6107826-.4269981c-.0156288 0-.0314941-.0044975-.0453835-.0139694-.0369377-.0250969-.0464897-.0753746-.021389-.1123123.0914764-.134491.1913185-.2654305.2967644-.3893471.0290451-.0340195.0799522-.038044.1139717-.0091553.0339394.028965.038044.0799522.0091553.1139717-.1016579.1194153-.1979485.2457771-.28619.3754539-.0156289.0229684-.0410424.0353585-.0669289.0353585zm7.0736847-.3694572c-.0230484 0-.0458565-.0097084-.0618019-.0286484-.1012611-.1198921-.2101822-.2355194-.3236809-.3438873-.03228-.0308609-.0334625-.0820045-.0026817-.1142845.0308609-.0322838.0820847-.0333862.1142845-.0026855.1176834.1123161.2305489.2322845.3355217.356514.0288086.0340958.0245438.085083-.009552.1138916-.015152.0128668-.0337029.0191001-.0520897.0191001zm-6.4512673-.3620377c-.021389 0-.042778-.0084457-.0587196-.0252571-.0306244-.0324402-.0292816-.0835838.0031548-.1142845.1181564-.1118393.2437286-.2184715.3731689-.3169708.0354385-.0270729.0862656-.0201263.1132584.0153885.0269928.0355186.0201263.0861893-.0153885.1132622-.1248627.0950279-.2459373.1978683-.3599091.3057632-.0156288.014759-.0355949.0220985-.0555649.0220985zm5.7563133-.300869c-.017128 0-.0344124-.0054474-.0490952-.016655-.1243858-.0954208-.2554855-.1851616-.3895836-.2666931-.0381203-.0232048-.0502739-.0729294-.0270691-.1110535.0232048-.0380402.0728493-.0501976.1110497-.0270691.1390686.0845299.2749825.1775856.4039497.2764816.0354385.0272293.0421448.0778999.0149956.1133385-.0159454.0207558-.0399398.0316506-.0642471.0316506zm-4.991745-.2805061c-.0273895 0-.0541458-.0138931-.0692978-.0390701-.0230484-.0382805-.0107346-.087925.0274658-.1109734.1394653-.0840569.2850075-.1613274.4326782-.2296753.0405693-.0188637.0886345-.0011063.1072617.0393829.0187836.0404892.0011063.0885582-.0393829.1072617-.1423073.0659065-.2826385.1404114-.4170532.2214699-.0130997.0078926-.0274658.0116043-.0416718.0116043zm4.1712189-.218235c-.0114441 0-.0231247-.0024452-.0341759-.007576-.1422272-.0665359-.2895851-.1259689-.4378891-.1766396-.0422249-.0144424-.0647964-.060379-.050354-.1026077.0143661-.0422249.060379-.0647964.1026039-.050354.1538315.0524864.306633.1141281.4541473.1831131.0404091.01894.0578537.0670853.03899.1074982-.0137328.0293579-.042858.046566-.0733222.046566zm-3.2996292-.185402c-.0337791 0-.0651932-.0213089-.0765572-.0550117-.014286-.042305.0084457-.0881615.0507507-.1023674.1540642-.0519333.3129463-.0958977.4722214-.1307831.0434074-.0097847.0865822.0179176.0962105.0616417.009552.0435677-.0179939.0866623-.0616417.0962143-.1535149.0336227-.306633.0760841-.4551735.1260452-.0086021.0029221-.0172843.004261-.0258102.004261zm2.3907814-.124546c-.0058403 0-.0117569-.0006294-.0176773-.0019722-.1528816-.0340958-.3094749-.0602226-.4655914-.0775871-.0443573-.0049706-.0763245-.0449066-.0714302-.0892639.0050507-.0444374.0461731-.0752182.0892677-.0714302.1619568.018074.3243904.0451469.4829559.0805855.0435677.0097084.0710335.0528793.061245.096447-.0083656.037651-.0417519.0632209-.0787697.0632209zm-1.4524956-.0811348c-.0408058 0-.0758476-.0307846-.0802689-.0722198-.004734-.0443573.0273895-.0842133.0717468-.0889511.1612473-.0172844.3257332-.0260468.4887161-.0260468h.0179176c.0446701 0 .0808182.0361481.0808182.080822s-.0361481.080822-.0808182.080822h-.0179176c-.1573029 0-.3159447.0084457-.4715118.0251007-.0029182.0003128-.0058402.000473-.0086822.000473z" fill="#fcd462"/><ellipse cx="85.402" cy="37.536" fill="#fcd462" rx="6.235" ry="6.235" transform="matrix(.987 -.16 .16 .987 -4.91 14.165)"/><ellipse cx="85.402" cy="37.536" fill="#f7be56" rx="5.025" ry="5.025" transform="matrix(.987 -.16 .16 .987 -4.91 14.165)"/><path d="m87.7917328 37.8601685c-.1798096-.2363968-.4369507-.403614-.771431-.5016975.2590332-.1282654.4526825-.2967644.580925-.505497.1282654-.2087288.1923904-.4312782.1923904-.6677017 0-.253994-.0723038-.4973145-.2168884-.7299347-.1446075-.2326241-.3445511-.4048729-.5998001-.5168037-.1933517-.0847511-.4351349-.1371231-.7244186-.1576843v-.6887703h-.7260437v.6785851h-.367157v-.6785851h-.7260208v.6785851h-.3074875v-.0017014h-.8119431v.6507568h.5716705v4.2285347h-.5716705v.6507339h.5716705v.0018654h.54776v.67976h.7260208v-.67976h.367157v.67976h.7260437v-.6858673c.2416-.0116997.4530334-.0404167.6338806-.0863113.2426682-.0616302.4445038-.1527901.6054459-.2735062.1609497-.1207161.2961197-.2923622.4055252-.5149117.1093903-.2225533.164093-.463356.164093-.7223854.0000001-.3218957-.0898971-.6010628-.2697219-.8374634zm-3.1743775-2.436905h1.105278c.3973465 0 .6777496.0257797.8412399.0773392.1634369.0515594.2891922.1471252.3772049.2866974.0880356.1395721.1320419.3011475.1320419.4847527 0 .1936264-.0471497.3545952-.1414642.4828415-.0943069.1282425-.2345047.2200546-.4206238.2753906-.140831.0427475-.3734283.0641212-.6978683.0641212h-1.1958084zm2.5764847 3.7402382c-.072937.1345406-.1659851.2370262-.2791748.3074417-.1131592.0704155-.2539902.1207161-.4224701.1508789-.0955887.0176201-.2615662.026432-.4979401.026432h-.4677887-.367157-.541954v-1.9012489h1.2788162c.3520737 0 .6217804.0308151.8091583.0924187.187355.0616074.3338318.168499.4394684.3206367.1056061.1521606.1584244.331356.1584244.537571.0000001.1760254-.0364532.3313332-.1093826.4658699z" fill="#fcd462"/><path d="m85.3929062 42.0686073h-.0000763c-.163353-.0002365-.3280411-.0093307-.4896469-.0270386-.0444336-.0049019-.0765381-.0448303-.0716324-.089344.0048218-.0444336.0440369-.0772476.0893402-.0716324.1557541.0170784.3145981.0258522.4720917.0260925.044754.0000763.0809631.0363693.0808868.0810394-.0000839.0446702-.036293.0808831-.0809631.0808831zm.4811096-.0246696c-.0409546 0-.0760651-.0309143-.0804138-.0725021-.0047379-.0444336.0275192-.0842819.0720291-.0889473.1564713-.0165215.3135681-.0417442.4669571-.0750313.0436401-.0091705.0868912.0182648.0962982.061985.009491.0437241-.0182648.0868149-.0619888.096302-.1590729.0344734-.3220291.0606422-.4843445.0777206-.0028458.0003167-.0056915.0004731-.0085373.0004731zm-1.437233-.0802498c-.0057755 0-.0116272-.0006332-.0175552-.0018959-.1589966-.0351067-.3179169-.0794601-.4724884-.1318016-.0422974-.014389-.0649872-.0603256-.0506821-.1027031.014389-.0422211.0604095-.0650711.1027069-.0506821.14888.0505219.3021011.0932159.4554138.1270561.0436401.0096474.0712357.0528145.0615845.0965385-.008377.0377923-.0418243.0634881-.0789795.0634881zm2.3775406-.1238136c-.0339127 0-.0654602-.0214272-.076767-.0552673-.0141525-.0424576.0086975-.0883141.0510712-.1024666.1495132-.0499687.2974396-.1086349.4398346-.1743355.040802-.0189781.0887146-.00103.1074524.039608.0187378.0406418.00103.0887108-.0396118.1074486-.1476898.0681534-.301239.1289558-.4562836.1808205-.0085373.0028495-.0171509.0041923-.0256958.0041923zm-3.2888412-.1847725c-.0113831 0-.0230026-.0024529-.0340729-.0075912-.147377-.0686302-.2929382-.1461906-.4326401-.2307091-.038269-.0230865-.0505219-.0728989-.027359-.1111641.0230103-.0381889.0726624-.050602.1111679-.027359.1347198.0814362.2750626.156311.4171371.2224884.0405655.0188179.0581131.0670471.0392227.1075287-.0136794.0294914-.0429381.0468063-.0734557.0468063zm4.1629028-.2177468c-.0275192 0-.0543213-.0139923-.0694962-.0392914-.0230103-.0383492-.0105972-.0880814.0277481-.1110878.1345673-.0807228.266449-.1698303.391922-.2648659.0355759-.0271187.0864182-.0200806.1133804.0156555.0270386.0356598.0200043.0864182-.0156555.1133766-.1300659.0985947-.2668457.191021-.406311.2746696-.0130462.0078279-.0274353.0115434-.0415878.0115434zm-4.9858017-.2800445c-.0170822 0-.0343933-.0053749-.0490189-.0166016-.1295853-.0989113-.2551422-.2060432-.3731842-.3182373-.0324173-.0307541-.0337601-.0820656-.0029297-.1144066.0307617-.0324135.0820694-.0337601.1144104-.0029221.1139297.1081581.2349777.2114182.3599014.3068466.0355759.0271187.0423737.0779572.0152588.1134567-.0159759.0208741-.0400085.0318643-.0644378.0318643zm5.7528-.301075c-.0214996 0-.0429306-.0085411-.0588989-.025383-.0306778-.0325737-.0291748-.0838051.0033188-.1144829.1144104-.1078453.2241516-.2231216.3263016-.3425064.0289383-.0340767.0800934-.0379524.11409-.008934.0339966.0290146.0380249.0801697.008934.11409-.1058655.1238937-.2196426.2433586-.3381577.3551559-.0156555.0147858-.0356598.0220604-.0555878.0220604zm-6.4500732-.361721c-.0230026 0-.0458527-.0097237-.0618286-.0286217-.105629-.1246834-.2054062-.2561684-.2966461-.3907356-.0250626-.0370026-.015419-.0872879.0215836-.1124306.0370026-.0250626.0873642-.0155754.1125107.0216637.0879211.1297455.1842194.256485.2860565.3768196.0289383.0341568.0246658.0852318-.0094147.11409-.0152589.0128898-.0338365.0192146-.0522614.0192146zm7.0748443-.3697052c-.0157318 0-.0316238-.0045853-.0455399-.0140724-.0369263-.0252228-.0464935-.0755882-.0212708-.1125107.0888672-.1301384.1713333-.2661285.2451782-.4044151.0209503-.0394516.0699692-.0542374.109581-.0332069.0393753.0210342.0543213.0701332.0332108.1095848-.0765381.1433449-.1620865.2843933-.2541962.4192772-.0157317.0230101-.0411071.0353431-.0669631.0353431zm-7.6144562-.4270287c-.0290146 0-.0570831-.0156517-.0716324-.043087-.0764542-.1444511-.1456375-.294281-.2057266-.4454498-.0164413-.0415077.0037994-.0886307.0453873-.1051559.0416641-.0162888.0885468.0037956.1051559.0453835.057869.1457138.1246033.2901649.198288.4294777.0209579.0395317.0058517.0885506-.0336761.1094246-.0121003.0064047-.0250702.0094069-.0377961.0094069zm8.0678101-.4211731c-.0101166 0-.0203171-.0018997-.0302048-.0058517-.0415039-.0166817-.0615921-.0638046-.0449066-.1053162.05867-.1459503.1099014-.2965698.1521988-.4477386.0121002-.0430107.0574036-.0677605.0997772-.0561371.0430908.0120163.0682373.0566902.0561371.099781-.0438766.1567841-.0970078.3130951-.1578903.4645004-.0127258.0316277-.0430908.0507622-.0751114.0507622zm-8.4233627-.4731216c-.0354996 0-.0680771-.0235634-.0779572-.0594559-.0433273-.1575775-.0785141-.3187904-.1044464-.47929-.0071106-.044117.02285-.0857048.0670471-.092823.0441971-.0077477.0856247.0229301.0928268.0670471.0249786.1546516.0588989.3101692.100647.4620514.0118561.0431709-.013443.0876846-.0565338.0995445-.0071945.001976-.0144653.0029259-.0215835.0029259zm8.6830139-.4531212c-.0043488 0-.0088577-.0003128-.0132828-.0011063-.0441208-.0072708-.0740051-.0490189-.066658-.0930557.0256195-.1547318.0430908-.3128586.0519485-.4700394.002449-.0446701.0411148-.0785904.0853119-.0762978.0446701.0024529.0788269.0407181.0762939.0853119-.0090942.1630287-.0271988.3270111-.0538406.4874306-.0065612.039692-.0408783.0677567-.0797729.0677567zm-8.8365555-.496521c-.042778 0-.0785141-.0335236-.0808029-.0766945-.0041962-.0796967-.0062485-.1600266-.0062485-.2408295 0-.0837288.0022964-.1669044.0067978-.2496071.0023727-.04459.0399323-.0811996.0852356-.0763741.0445938.0023689.0788269.0405579.0763702.085228-.0043411.0797005-.0064774.1600266-.0064774.2407532 0 .0779572.0020523.1554413.0060883.2322922.0022888.0446701-.0320206.0827789-.0766144.0851517-.0015029.0000801-.0029296.0000801-.0043487.0000801zm8.8907929-.4639511c-.0428543 0-.0785904-.0336037-.0808029-.076931-.0079117-.1573372-.024437-.3155441-.0491028-.4703522-.0070343-.044117.0230103-.0856285.0672073-.0926628.0438004-.0071182.0856247.0230865.092659.0672035.0256195.1604996.042778.3245583.0510025.4877472.0022125.0445938-.0321808.0826225-.0768509.0849152-.0013504.0000801-.0027695.0000801-.0041122.0000801zm-8.8382187-.4966812c-.0043488 0-.0086975-.0003166-.0131226-.00103-.0441971-.0072746-.0740814-.0488625-.0668869-.0929794.0264053-.1612129.0619049-.3223457.1053925-.4790497.01194-.0430908.0567703-.0678368.0997009-.0563736.0430908.0120163.0683136.0566101.0563736.0997009-.0419846.1510925-.0762177.3064537-.1016006.4618149-.0065613.0397682-.0408784.0679169-.0798569.0679169zm8.6865692-.4533577c-.0355759 0-.0681534-.0236397-.0780334-.0596123-.0415878-.1520424-.0918732-.3029747-.1495132-.4486923-.0164413-.0415878.003952-.0886307.0454636-.1050758.0414276-.0163651.0886307.003952.105072.0454636.0597763.1512489.1120377.3078766.1552048.4656067.0117798.0430908-.0135956.0876045-.0567627.0994644-.0071184.0018958-.0143129.0028457-.0214311.0028457zm-8.4290543-.4735146c-.0100403 0-.0201645-.0018196-.0300446-.0057716-.0415115-.0166054-.0617523-.0637283-.0451431-.1052361.0604019-.1512489.1298981-.3009987.2065125-.4448967.0209503-.0395317.0701294-.0544739.1095047-.0334435.0394516.0210304.0544739.0700531.0334473.1095047-.0738449.1387596-.1408157.2830505-.1990891.4289246-.0126495.0316239-.0430908.0509186-.0751877.0509186zm8.0757141-.4214935c-.0290909 0-.0572433-.0157356-.0717087-.0432472-.0732117-.138916-.1549683-.2754631-.2428894-.405838-.0249786-.0370827-.0152588-.0874443.0218277-.1124306.0370789-.0249825.0873642-.0152588.1124268.0218239.0912399.1351967.1759186.2768822.2518997.4210167.020874.0395317.0056915.0884743-.0339203.1093445-.0120163.0063247-.0249023.0093307-.0376358.0093307zm-7.6240158-.4277382c-.0156555 0-.0315475-.0045052-.0454636-.0139961-.0370026-.0251427-.0465698-.0755043-.021431-.1125069.0916367-.1347275.191658-.265892.297287-.3900261.0290909-.0340767.0800934-.0381088.1141663-.0091705.0339966.0290184.0381088.0800934.0091705.1141701-.1018295.1196251-.1982956.2462044-.2866821.3761101-.0156555.0230064-.0411148.0354194-.0670471.0354194zm7.0859833-.3701019c-.0230865 0-.0459366-.0097237-.0619049-.028698-.1014404-.1201019-.2105484-.2359276-.3242416-.3444862-.032341-.0309143-.0335236-.0821457-.0026932-.1144829.0309143-.0323372.0822296-.0334435.1144867-.0026894.1178894.1125107.2309494.2326851.3361053.3571358.0288544.034153.0245895.085228-.0095673.11409-.0151824.012886-.03376.0191307-.052185.0191307zm-6.4624863-.3626671c-.0214233 0-.0428543-.008461-.0588226-.0252991-.0306778-.0324974-.029335-.0837326.0031662-.1144867.1183548-.1120338.2441483-.2188492.3738098-.317524.0354996-.0271187.0864182-.0201607.1134644.015419.0270386.0355797.0201569.086338-.015419.1134567-.1250839.0951958-.2463684.1982155-.3605347.3062973-.0156555.014782-.0356598.0221368-.0556641.0221368zm5.7663269-.3013954c-.0171585 0-.0344696-.005455-.0491791-.0166817-.1246033-.0955887-.255928-.1854858-.3902588-.2671585-.0381927-.023243-.0503693-.0730553-.0271225-.1112442.0232468-.0381088.0729752-.0502853.1112442-.0271187.1393127.0846786.2754593.1778946.4046555.2769623.0354996.0272789.0422134.0780373.0150223.1135368-.0159759.0207939-.0400085.031704-.0643616.031704zm-5.0004272-.2809945c-.0274353 0-.0542374-.0139122-.0694199-.039135-.0230865-.0383453-.0107498-.0880775.0275116-.1111641.1397095-.0842056.2855072-.1616096.4334335-.2300797.0406418-.0188942.0887909-.0011063.1074524.0394554.0188141.0405579.0011063.0887108-.0394592.1074486-.1425476.0660172-.2831268.1406555-.4177704.2218552-.0131302.0079041-.0275192.0116196-.041748.0116196zm4.1784744-.2186126c-.011467 0-.0231705-.002449-.0342331-.0075874-.1424789-.0666542-.2900925-.1261902-.438652-.1769485-.0422974-.0144691-.0649109-.060482-.0504456-.1027832.014389-.0423012.0604858-.0649109.1027832-.0504417.1540985.052578.3071671.1143265.4549408.1834297.0404816.0189743.0579529.0672035.0390549.1076851-.0137558.0294112-.0429306.046646-.0734482.046646zm-3.3053665-.1857224c-.033844 0-.0653076-.021347-.0766907-.0551071-.0143127-.0423775.0084534-.0883141.0508347-.1025467.154335-.0520248.3134918-.0960617.4730453-.1310081.0434799-.0098038.086731.0179482.0963745.0617485.0095673.043644-.0180206.0868111-.0617447.0963783-.1537857.0336838-.3071671.0762177-.4559631.1262665-.0086212.0029259-.0173187.0042686-.025856.0042686zm2.3949356-.1247635c-.0058441 0-.0117798-.0006332-.0177078-.001976-.1531448-.0341568-.3100128-.0603256-.4664001-.0777206-.0444336-.004982-.0764542-.0449867-.0715561-.0894203.0050659-.0445137.046257-.0753479.0894241-.0715523.1622391.0181046.3249512.0452232.4837952.0807228.0436401.0097237.0711594.0529747.0613556.0966187-.0083848.037712-.0418244.0633277-.0789109.0633277zm-1.4550171-.0812759c-.0408783 0-.0759811-.030838-.0804138-.0723457-.0047379-.0444336.0274353-.084362.0718765-.0891037.1615219-.0173149.3262939-.0260925.489563-.0260925h.0179443c.044754 0 .0809631.0362129.0809631.0809631s-.0362091.0809593-.0809631.0809593h-.0179443c-.1575775 0-.3164978.008461-.4723282.0251427-.0029297.0003166-.0058517.0004768-.0086975.0004768z" fill="#fcd462"/><path d="m87.3243484 84.9860992v-10.9579544c0-1.6359863-1.1792374-3.0995636-2.8040924-3.2893829-1.8524399-.2163696-3.416687 1.1583328-3.5474091 2.9315186v-1.295929c0-1.6381302-1.1821747-3.1034546-2.8096161-3.2908936-1.8557434-.2136688-3.4216919 1.1691437-3.5435562 2.9487686v-.9891739c0-1.6382904-1.1821747-3.1036911-2.8096542-3.2910538-1.8556976-.2136688-3.4216537 1.1693039-3.5435104 2.9487686v-14.0026664c0-1.6648445-1.2171936-3.1516266-2.874527-3.309494-1.9010849-.1812363-3.5005074 1.3088837-3.5005074 3.1725311v28.4249611h-.0210648v3.131279l-2.3343086-1.8037949.3403397-2.0420227c.3754692-2.2528305-.4894218-4.5338745-2.2650337-5.9713745-.5457001-.4418106-1.3657188-.25103-1.6739845.3797989l-3.5045204 7.1717606c-.6553955 1.3412399-.3721313 2.9519501.7015419 3.9891357l8.7359657 8.4388351v.2542038h.2631912l4.6585579 4.5000992 4.7925797 1.7152405 13.9265594-1.6149216 1.3781586-6.0787735c.2903366-1.2806625.4368744-2.5897903.4368744-3.9029694v-8.1664963h-.0019837z" fill="#fcd462"/><path d="m60.704838 97.733833h27.093338v18.150936h-27.093338z" fill="#ebf0f3"/><path d="m59.81844 99.605286h28.866137v18.150936h-28.866137z" fill="#4d5c7d"/></svg>