<svg height="480pt" viewBox="0 0 480 480" width="480pt" xmlns="http://www.w3.org/2000/svg"><path d="m320 472h-160c.007812-15 7.515625-29 20-37.3125l8.0625-5.375c12.460938-8.328125 19.941406-22.324219 19.9375-37.3125v-24h64v24c.007812 15 7.515625 29 20 37.3125l8.0625 5.375c12.460938 8.328125 19.941406 22.324219 19.9375 37.3125zm0 0" fill="#b9b9b9"/><path d="m208 376h64v24h-64zm0 0" fill="#9c9c9c"/><path d="m37.824219 8h404.351562c16.472657 0 29.824219 13.351562 29.824219 29.824219v308.351562c0 16.472657-13.351562 29.824219-29.824219 29.824219h-404.351562c-16.472657 0-29.824219-13.351562-29.824219-29.824219v-308.351562c0-16.472657 13.351562-29.824219 29.824219-29.824219zm0 0" fill="#aae5c8"/><path d="m8 328h464v32c0 8.835938-7.164062 16-16 16h-432c-8.835938 0-16-7.164062-16-16zm0 0" fill="#d9d9d9"/><path d="m261.214844 200c-11.835938 49.835938-58.191406 83.632812-109.257813 79.65625-51.066406-3.976562-91.636719-44.546875-95.613281-95.613281-3.976562-51.066407 29.820312-97.421875 79.65625-109.257813v125.214844zm0 0" fill="#fbb540"/><path d="m296 240h32v48h-32zm0 0" fill="#fbb540"/><path d="m328 176h32v112h-32zm0 0" fill="#fd9226"/><path d="m360 208h32v80h-32zm0 0" fill="#6cbae5"/><path d="m392 224h32v64h-32zm0 0" fill="#ffc5c3"/><path d="m264 280h184v16h-184zm0 0" fill="#8dc79d"/><g fill="#99d8aa"><path d="m352 48h16v16h-16zm0 0"/><path d="m384 48h16v16h-16zm0 0"/><path d="m416 48h16v16h-16zm0 0"/><path d="m384 80h48v16h-48zm0 0"/></g><path d="m336 136h16v16h-16zm0 0" fill="#fd9226"/><path d="m400 176h16v16h-16zm0 0" fill="#ffc5c3"/><path d="m288 112h-40v-16h35.054688l21.746093-43.574219c1.359375-2.726562 4.152344-4.441406 7.199219-4.425781h24v16h-19.054688l-21.746093 43.574219c-1.359375 2.726562-4.152344 4.441406-7.199219 4.425781zm0 0" fill="#99d8aa"/><path d="m264 136h56v16h-56zm0 0" fill="#99d8aa"/><path d="m277.601562 200c8.03125-39.480469-4.273437-80.355469-32.757812-108.84375-28.488281-28.484375-69.363281-40.789062-108.84375-32.757812v141.601562zm0 0" fill="#fd9226"/><path d="m456 0h-432c-13.253906 0-24 10.746094-24 24v336c0 13.253906 10.746094 24 24 24h176v8c.007812 12.320312-6.152344 23.828125-16.40625 30.65625l-8.066406 5.375c-14.703125 9.796875-23.535156 26.300781-23.527344 43.96875 0 4.417969 3.582031 8 8 8h160c4.417969 0 8-3.582031 8-8 .019531-17.679688-8.8125-34.199219-23.527344-44l-8.066406-5.375c-10.246094-6.820312-16.402344-18.316406-16.40625-30.625v-8h176c13.253906 0 24-10.746094 24-24v-336c0-13.253906-10.746094-24-24-24zm-432 16h432c4.417969 0 8 3.582031 8 8v296h-448v-296c0-4.417969 3.582031-8 8-8zm263.527344 420 8.066406 5.375c7.902344 5.257812 13.464844 13.363281 15.535156 22.625h-142.257812c2.0625-9.273438 7.628906-17.390625 15.535156-22.65625l8.066406-5.375c14.703125-9.796875 23.535156-26.300781 23.527344-43.96875v-8h48v8c-.019531 17.679688 8.8125 34.199219 23.527344 44zm176.472656-76c0 4.417969-3.582031 8-8 8h-432c-4.417969 0-8-3.582031-8-8v-24h448zm0 0"/><path d="m160 288c49.566406.152344 93.28125-32.449219 107.273438-80h10.328124c3.800782 0 7.078126-2.675781 7.839844-6.398438 1.703125-8.429687 2.558594-17.003906 2.558594-25.601562-.019531-8.054688-.800781-16.089844-2.335938-24h34.335938v-16h-38.488281c-2.773438-8.351562-6.402344-16.394531-10.832031-24h17.320312c3.046875.015625 5.839844-1.699219 7.199219-4.425781l21.746093-43.574219h19.054688v-16h-24c-3.046875-.015625-5.839844 1.699219-7.199219 4.425781l-21.746093 43.574219h-23.292969c-24.234375-30.328125-60.941407-47.988281-99.761719-48-8.597656 0-17.171875.855469-25.601562 2.558594-3.722657.761718-6.398438 4.039062-6.398438 7.839844v10.320312c-53.203125 15.957031-86.675781 68.492188-78.65625 123.453125 8.023438 54.964844 55.113281 95.742187 110.65625 95.828125zm-16-222.855469c34.949219-5.046875 70.230469 6.683594 95.203125 31.652344 24.96875 24.972656 36.699219 60.253906 31.652344 95.203125h-126.855469zm-16 20.304688v114.550781c0 4.417969 3.582031 8 8 8h114.550781c-14.925781 42.128906-56.953125 68.378906-101.359375 63.316406s-79.445312-40.101562-84.507812-84.507812 21.1875-86.433594 63.316406-101.359375zm0 0"/><path d="m432 224c0-4.417969-3.582031-8-8-8h-24v-8c0-4.417969-3.582031-8-8-8h-24v-24c0-4.417969-3.582031-8-8-8h-32c-4.417969 0-8 3.582031-8 8v56h-24c-4.417969 0-8 3.582031-8 8v40h-24v16h184v-16h-16zm-128 24h16v32h-16zm32-8v-56h16v96h-16zm32-24h16v64h-16zm32 64v-48h16v48zm0 0"/><path d="m352 48h16v16h-16zm0 0"/><path d="m384 48h16v16h-16zm0 0"/><path d="m416 48h16v16h-16zm0 0"/><path d="m384 80h48v16h-48zm0 0"/><path d="m336 136h16v16h-16zm0 0"/><path d="m400 176h16v16h-16zm0 0"/></svg>