<?xml version="1.0" encoding="iso-8859-1"?>
<!-- Generator: Adobe Illustrator 19.0.0, SVG Export Plug-In . SVG Version: 6.00 Build 0)  -->
<svg version="1.1" id="Capa_1" xmlns="http://www.w3.org/2000/svg" xmlns:xlink="http://www.w3.org/1999/xlink" x="0px" y="0px"
	 viewBox="0 0 512 512" style="enable-background:new 0 0 512 512;" xml:space="preserve">
<path style="fill:#FFC107;" d="M478.71,225.301l-45.739-45.76c-15.067,8.065-31.871,12.341-48.96,12.459
	c-50.672-0.056-94.334-35.699-104.533-85.333h-172.8c-5.891-0.001-10.668,4.773-10.669,10.664c0,0.717,0.072,1.433,0.215,2.136
	L138.892,332.8c1.079,5.531,6.274,9.269,11.861,8.533l320-42.667c4.339-0.58,7.883-3.752,8.939-8l14.229-56.875
	C488.158,232.436,482.89,229.495,478.71,225.301z"/>
<g>
	<circle style="fill:#455A64;" cx="405.345" cy="458.667" r="53.333"/>
	<circle style="fill:#455A64;" cx="192.012" cy="458.667" r="53.333"/>
	<path style="fill:#455A64;" d="M201.804,384h246.208c5.891,0,10.667-4.776,10.667-10.667s-4.776-10.667-10.667-10.667H201.804
		c-25.408-0.053-47.272-17.976-52.309-42.88L95.798,51.2c-1.014-4.967-5.384-8.534-10.453-8.533h-64
		c-5.891,0-10.667,4.776-10.667,10.667S15.454,64,21.345,64h55.253l51.989,259.968C135.632,358.831,166.236,383.924,201.804,384z"/>
</g>
<circle style="fill:#FAFAFA;" cx="373.345" cy="85.333" r="74.667"/>
<g>
	<path style="fill:#455A64;" d="M373.345,170.667c-47.128,0-85.333-38.205-85.333-85.333S326.217,0,373.345,0
		s85.333,38.205,85.333,85.333S420.473,170.667,373.345,170.667z M373.345,21.333c-35.346,0-64,28.654-64,64s28.654,64,64,64
		s64-28.654,64-64S408.691,21.333,373.345,21.333z"/>
	<path style="fill:#455A64;" d="M490.678,213.333c-2.831,0.005-5.548-1.115-7.552-3.115l-64-64
		c-4.093-4.237-3.975-10.99,0.262-15.083c4.134-3.993,10.687-3.993,14.821,0l64,64c4.159,4.172,4.149,10.926-0.024,15.085
		C496.192,212.208,493.493,213.327,490.678,213.333z"/>
</g>
<g>
</g>
<g>
</g>
<g>
</g>
<g>
</g>
<g>
</g>
<g>
</g>
<g>
</g>
<g>
</g>
<g>
</g>
<g>
</g>
<g>
</g>
<g>
</g>
<g>
</g>
<g>
</g>
<g>
</g>
</svg>
