<svg height="511pt" viewBox="0 -44 511.99909 511" width="511pt" xmlns="http://www.w3.org/2000/svg"><g fill="#80c56e"><path d="m327.628906 43.953125s20.019532-32.308594 55.484375-35.886719c7.925781-.796875 14.894531 5.167969 15.234375 13.125.613282 14.265625.382813 37.65625-5.785156 56.339844zm0 0"/><path d="m196.019531 357.0625c-1.199219 14.132812.609375 27.300781 2.972657 37.527344 2.445312 10.582031-5.523438 20.699218-16.386719 20.699218h-38.558594c-3.894531 0-7.695313-1.316406-10.679687-3.816406-38.285157-32.039062-31.5625-90.054687-31.5625-90.054687zm0 0"/><path d="m364.027344 335.695312c-1.199219 14.132813 9.160156 48.667969 11.519531 58.894532 2.445313 10.585937-5.519531 20.703125-16.382813 20.703125h-38.558593c-3.894531 0-7.699219-1.320313-10.683594-3.820313-38.28125-32.039062-31.5625-90.050781-31.5625-90.050781zm0 0"/><path d="m49.863281 190.285156s-17.175781-3.121094-29.964843-13.363281c-5.058594-4.054687-12.5-.394531-12.40625 6.089844.257812 17.316406 7.480468 42.738281 43.84375 56.144531zm0 0"/></g><path d="m499.457031 175.941406c-3.429687-13.195312-17.289062-20.746094-30.246093-16.507812l-14.210938 4.648437v.023438c-23.636719-75.621094-104.074219-131.304688-199.683594-131.304688-114.179687 0-206.738281 79.40625-206.738281 177.355469s92.558594 177.355469 206.738281 177.355469c92.875 0 171.441406-52.539063 197.527344-124.863281v.003906c60.144531 0 55.0625-54.214844 46.613281-86.710938zm0 0" fill="#94dc7e"/><path d="m309.941406 180.386719h-67.246094l18.234376-97.414063c1.070312-5.078125-5.625-7.941406-8.558594-3.65625l-96.898438 141.824219c-3.617187 5.289063.171875 12.46875 6.582032 12.46875h67.246093l-18.234375 97.414063c-1.066406 5.078124 5.625 7.941406 8.558594 3.660156l96.902344-141.824219c3.613281-5.292969-.175782-12.472656-6.585938-12.472656zm0 0" fill="#feea9e"/><path d="m417.765625 180.667969v-17.679688c0-4.144531-3.359375-7.5-7.5-7.5s-7.5 3.355469-7.5 7.5v17.679688c0 4.140625 3.359375 7.5 7.5 7.5s7.5-3.359375 7.5-7.5zm0 0"/><path d="m261.105469 70.734375c-5.4375-2.324219-11.570313-.542969-14.917969 4.347656 0 0-96.789062 141.660157-96.902344 141.824219-6.898437 10.097656.589844 24.203125 12.777344 24.203125h58.210938s-16.511719 88.210937-16.558594 88.46875c-2.382813 12.722656 14.703125 20.140625 22.109375 9.332031l40.367187-59.082031c2.335938-3.417969 1.460938-8.085937-1.960937-10.421875-3.421875-2.339844-8.085938-1.460938-10.425781 1.960938l-32.964844 48.25s15.8125-84.472657 15.839844-84.628907c.855468-4.554687-2.746094-8.878906-7.371094-8.878906 0 0-66.957032 0-67.246094 0-.386719 0-.605469-.429687-.394531-.742187l89.503906-130.992188s-15.8125 84.476562-15.84375 84.628906c-.851563 4.558594 2.75 8.878906 7.375 8.878906h67.242187c.390626 0 .609376.425782.394532.742188l-39.796875 58.246094c-2.335938 3.417968-1.457031 8.085937 1.960937 10.421875 3.421875 2.335937 8.089844 1.457031 10.425782-1.960938 0 0 39.738281-58.164062 39.796874-58.246093 6.890626-10.082032-.601562-24.203126-12.777343-24.203126h-58.210938l16.558594-88.464843c1.164063-5.753907-1.78125-11.371094-7.191406-13.683594zm0 0"/><path d="m506.726562 174.050781c-4.449218-17.109375-23.027343-27.25-39.839843-21.75l-7.164063 2.34375c-11.355468-31.21875-31.867187-58.488281-58.53125-79.839843 4.921875-18.1875 5.300782-39.050782 4.65625-53.9375-.515625-12.050782-11.535156-21.460938-23.480468-20.265626-30.472657 3.074219-50.28125 24.832032-57.765626 34.652344-21.878906-6.46875-45.214843-9.957031-69.277343-9.957031-34.109375 0-66.71875 6.710937-96.917969 19.945313-3.796875 1.660156-5.523438 6.085937-3.859375 9.878906 1.660156 3.792968 6.085937 5.519531 9.878906 3.859375 28.292969-12.398438 58.875-18.683594 90.898438-18.683594 47.167969 0 94.984375 14.457031 132.675781 43.183594.007812.003906.019531.007812.023438.015625 28.308593 21.527344 49.554687 49.988281 59.824218 82.84375 1.273438 4.070312 5.933594 6.289062 9.894532 4.734375 0 0 13.792968-4.511719 13.808593-4.515625 8.742188-2.863282 18.347657 2.386718 20.65625 11.265625 4.296875 16.519531 9.550781 46.75-3.503906 63.628906-6.980469 9.027344-18.933594 13.636719-35.53125 13.695313-3.242187-.140626-6.25 1.832031-7.375 4.949218-12.214844 33.871094-37.328125 64.335938-70.714844 85.789063-56.496093 36.300781-129.882812 43.507812-193.144531 22.179687-96.574219-32.558594-161.308594-140.753906-103.738281-235.71875 14.082031-23.230468 34.628906-43.707031 59.421875-59.21875 3.515625-2.195312 4.578125-6.824218 2.382812-10.335937-2.195312-3.511719-6.824218-4.578125-10.335937-2.382813-26.773438 16.753906-49.007813 38.9375-64.296875 64.160156-10.660156 17.582032-17.925782 36.6875-21.570313 56.351563-5.453125-1.765625-12.96875-4.863281-19.203125-9.859375-9.78125-7.832031-24.78125-.425781-24.597656 12.054688.1875 12.367187 3.390625 23.609374 9.527344 33.410156 7.585937 12.121094 19.445312 21.558594 35.265625 28.105468 6.996093 32.210938 23.769531 62.105469 49.070312 87.054688 0 19.355469 4.007813 59.847656 34.695313 85.535156 4.289062 3.585938 9.792968 5.566406 15.496094 5.566406h38.558593c15.460938 0 27.164063-14.863281 23.695313-29.890624-.222656-.949219-.421875-1.90625-.621094-2.859376 16.078125 3.273438 32.707031 4.96875 49.632812 4.96875 10.113282 0 20.121094-.597656 29.972657-1.777343 7.164062 12.621093 19.144531 29.558593 35.316406 29.558593h38.5625c15.464844 0 27.164063-14.851562 23.691406-29.890624-.511719-2.210938-5.78125-22.246094-7.472656-29.613282 2.632813-1.542968 5.230469-3.128906 7.796875-4.777344 34.5625-22.207031 60.988281-53.484374 74.890625-88.492187 19.019531-.988281 33.300781-7.5 42.492187-19.386719 16.121094-20.84375 12.246094-53.148437 6.15625-76.578125zm-122.855468-158.523437c3.652344-.367188 6.835937 2.390625 6.992187 5.980468.433594 10.105469.511719 27.636719-2.761719 43.554688-14.789062-10.105469-30.9375-18.414062-48.214843-24.8125 7.75-8.886719 22.90625-22.597656 43.984375-24.722656zm-368.871094 167.367187c0-.128906.089844-.226562.21875-.121093 8.96875 7.183593 19.6875 11.191406 26.5 13.199218-.070312.792969-.125 1.585938-.183594 2.378906-.699218 9.410157-.554687 18.875.398438 28.265626-21.574219-12.167969-26.726563-29.984376-26.933594-43.722657zm176.691406 213.378907c1.335938 5.777343-3.125 11.515624-9.078125 11.515624h-38.558593c-2.1875 0-4.273438-.734374-5.867188-2.070312-20.070312-16.800781-26.644531-41.746094-28.585938-60.042969.066407.054688 4.367188 3.402344 4.386719 3.417969 22.289063 16.921875 48.019531 29.46875 75.761719 37.128906.523438 3.359375 1.175781 6.722656 1.941406 10.050782zm176.558594 0c1.335938 5.792968-3.109375 11.511718-9.078125 11.511718 0 0-38.539063 0-38.558594 0-7.859375 0-15.285156-11.117187-19.25-17.03125 21.175781-3.980468 41.464844-10.722656 60.355469-20.085937 1.484375 6.175781 6.070312 23.613281 6.53125 25.605469zm0 0"/></svg>