<svg height="511.99938pt" viewBox="0 0 511.99938 511.99938" width="511.99938pt" xmlns="http://www.w3.org/2000/svg"><path d="m389.992188 199.996094c0 104.113281-84.550782 189.996094-189.996094 189.996094-104.769532 0-189.996094-85.226563-189.996094-189.996094 0-104.769532 85.226562-189.996094 189.996094-189.996094 104.769531 0 189.996094 85.226562 189.996094 189.996094zm0 0" fill="#537983"/><path d="m199.996094 349.992188c-82.707032 0-149.996094-67.289063-149.996094-149.996094 0-82.707032 67.289062-149.996094 149.996094-149.996094 82.707031 0 149.996094 67.289062 149.996094 149.996094 0 82.628906-67.234376 149.996094-149.996094 149.996094zm0 0" fill="#ececf1"/><path d="m493.203125 450.78125c11.71875 11.710938 11.71875 30.710938 0 42.421875-11.722656 11.71875-30.703125 11.71875-42.421875 0l-139.375-139.378906v-.011719c16.269531-11.808594 30.597656-26.136719 42.40625-42.40625h.011719zm0 0" fill="#ff637b"/><path d="m199.996094 100c-55.015625 0-99.996094 44.738281-99.996094 99.996094 0 55.351562 45.0625 100 99.996094 100 55.015625 0 100-44.742188 100-100 0-55.351563-45.066406-99.996094-100-99.996094zm0 0" fill="#76e2f8"/><path d="m100 100c5.519531 0 10-4.480469 10-10 0-5.5-4.460938-10-10-10-5.523438 0-10 4.476562-10 10 0 5.515625 4.476562 10 10 10zm0 0"/><path d="m366.792969 310.234375c21.746093-32.753906 33.199219-70.683594 33.199219-110.238281 0-110.277344-89.71875-199.996094-199.996094-199.996094s-199.996094 89.71875-199.996094 199.996094 89.71875 199.996094 199.996094 199.996094c39.554687 0 77.484375-11.453126 110.238281-33.195313l133.476563 133.476563c15.632812 15.628906 40.917968 15.636718 56.558593 0 15.636719-15.621094 15.644531-40.933594.003907-56.5625zm-346.792969-110.238281c0-99.25 80.746094-179.996094 179.996094-179.996094s179.996094 80.746094 179.996094 179.996094c0 99.636718-81.140626 179.996094-179.996094 179.996094-99.25 0-179.996094-80.746094-179.996094-179.996094zm466.128906 286.132812c-7.816406 7.820313-20.457031 7.824219-28.273437 0l-131.34375-131.339844c10.347656-8.46875 19.808593-17.929687 28.273437-28.277343l131.347656 131.34375c7.816407 7.808593 7.820313 20.457031-.003906 28.273437zm0 0"/><path d="m359.992188 199.996094c0-88.222656-71.773438-159.996094-159.996094-159.996094-25.386719 0-49.730469 5.828125-72.367188 17.324219-4.921875 2.5-6.886718 8.519531-4.386718 13.441406 2.5 4.925781 8.519531 6.886719 13.445312 4.390625 19.800781-10.058594 41.101562-15.15625 63.308594-15.15625 77.195312 0 139.996094 62.800781 139.996094 139.996094 0 77.195312-62.800782 139.996094-139.996094 139.996094-77.195313 0-139.996094-62.800782-139.996094-139.996094 0-26.664063 7.515625-52.546875 21.738281-74.851563 2.972657-4.65625 1.601563-10.839843-3.054687-13.808593-4.660156-2.972657-10.839844-1.601563-13.808594 3.054687-16.273438 25.523437-24.875 55.125-24.875 85.605469 0 88.222656 71.773438 159.996094 159.996094 159.996094s159.996094-71.773438 159.996094-159.996094zm0 0"/><path d="m199.996094 309.996094c59.972656 0 110-48.675782 110-110 0-61.292969-49.996094-109.996094-110-109.996094-59.972656 0-109.996094 48.675781-109.996094 109.996094 0 61.296875 49.992188 110 109.996094 110zm-25.769532-66.28125c8.25-2.464844 16.886719-3.71875 25.769532-3.71875 8.882812 0 17.519531 1.253906 25.773437 3.71875-6.035156 29.136718-17.402343 46.28125-25.773437 46.28125s-19.738282-17.144532-25.769532-46.28125zm-4.230468-43.71875c0-8.113282.40625-16.066406 1.195312-23.78125 9.285156 2.511718 18.929688 3.78125 28.804688 3.78125 9.878906 0 19.519531-1.269532 28.804687-3.78125.789063 7.710937 1.195313 15.667968 1.195313 23.78125 0 8.113281-.40625 16.070312-1.195313 23.78125-9.285156-2.511719-18.925781-3.78125-28.804687-3.78125-9.875 0-19.519532 1.269531-28.804688 3.78125-.789062-7.710938-1.195312-15.664063-1.195312-23.78125zm74.480468 51.828125c6.449219 3.78125 12.242188 8.363281 17.207032 13.628906-8.28125 7.808594-17.902344 13.921875-28.320313 18.09375 4.527344-8.714844 8.296875-19.398437 11.113281-31.722656zm0-103.65625c-2.816406-12.324219-6.585937-23.003907-11.113281-31.722657 10.417969 4.171876 20.039063 10.289063 28.320313 18.09375-4.964844 5.261719-10.757813 9.847657-17.207032 13.628907zm-18.707031 8.109375c-8.253906 2.464844-16.886719 3.71875-25.773437 3.71875-8.882813 0-17.515625-1.253906-25.769532-3.71875 6.03125-29.136719 17.398438-46.277344 25.769532-46.277344s19.738281 17.140625 25.773437 46.277344zm-70.253906-8.109375c-6.445313-3.78125-12.242187-8.363281-17.207031-13.628907 8.285156-7.808593 17.90625-13.921874 28.320312-18.09375-4.527344 8.71875-8.296875 19.398438-11.113281 31.722657zm0 103.65625c2.820313 12.324219 6.585937 23.007812 11.113281 31.722656-10.414062-4.171875-20.039062-10.285156-28.320312-18.09375 4.964844-5.261719 10.757812-9.847656 17.207031-13.628906zm119.171875-1.699219c-7.59375-7.675781-16.578125-14.113281-26.59375-19.054688 1.257812-10.019531 1.902344-20.433593 1.902344-31.074218s-.648438-21.054688-1.902344-31.074219c10.015625-4.941406 19.003906-11.378906 26.59375-19.050781 9.925781 14.761718 15.308594 32.183594 15.308594 50.125s-5.382813 35.367187-15.308594 50.128906zm-149.378906-100.253906c7.589844 7.671875 16.574218 14.109375 26.589844 19.050781-1.253907 10.019531-1.898438 20.433594-1.898438 31.074219s.644531 21.058594 1.898438 31.074218c-10.015626 4.941407-19 11.378907-26.589844 19.054688-9.929688-14.761719-15.308594-32.1875-15.308594-50.128906s5.378906-35.363282 15.308594-50.125zm0 0"/></svg>