<?xml version="1.0" encoding="iso-8859-1"?>
<!-- Generator: Adobe Illustrator 19.0.0, SVG Export Plug-In . SVG Version: 6.00 Build 0)  -->
<svg version="1.1" id="Capa_1" xmlns="http://www.w3.org/2000/svg" xmlns:xlink="http://www.w3.org/1999/xlink" x="0px" y="0px"
	 viewBox="0 0 512 512" style="enable-background:new 0 0 512 512;" xml:space="preserve">
<g>
	<path style="fill:#2B6483;" d="M418.891,410.548c-4.268,0-7.726-3.459-7.726-7.726v-40.236c0-4.267,3.459-7.726,7.726-7.726
		s7.726,3.459,7.726,7.726v40.236C426.618,407.089,423.159,410.548,418.891,410.548z"/>
	<path style="fill:#2B6483;" d="M93.108,410.548c-4.268,0-7.726-3.459-7.726-7.726v-40.236c0-4.267,3.459-7.726,7.726-7.726
		c4.268,0,7.726,3.459,7.726,7.726v40.236C100.834,407.089,97.375,410.548,93.108,410.548z"/>
</g>
<path style="fill:#346E95;" d="M445.542,424.998H66.458c-4.552,0-8.241-3.69-8.241-8.241v-4.521c0-4.552,3.69-8.241,8.241-8.241
	h379.083c4.552,0,8.241,3.69,8.241,8.241v4.521C453.783,421.309,450.093,424.998,445.542,424.998z"/>
<path style="fill:#F2F2F2;" d="M512,12.408v342.02c0,4.552-3.69,8.241-8.241,8.241H8.241C3.69,362.67,0,358.98,0,354.428V12.408
	c0-4.552,3.69-8.241,8.241-8.241h495.517C508.31,4.167,512,7.856,512,12.408z"/>
<g>
	<path style="fill:#E2E2E2;" d="M358.359,362.67h-212.31c-1.453-13.135-2.38-27.65-2.792-43.525
		c-0.124-4.481-0.196-88.132-0.227-137.601c-0.01-10.951,4.244-21.232,11.981-28.979c7.726-7.726,18.018-11.991,28.958-11.991
		c22.571,0,40.939,18.378,40.939,40.95v65.004h76.779c11.322,0,22.777,3.472,33.161,10.034
		c11.208,7.088,18.368,19.264,19.151,32.543L358.359,362.67z"/>
	<path style="fill:#E2E2E2;" d="M503.759,362.669H8.241c-4.552,0-8.241-3.69-8.241-8.241v-55.102h512v55.102
		C512,358.98,508.31,362.669,503.759,362.669z"/>
	<path style="fill:#E2E2E2;" d="M512,68.251H0V12.405c0-4.552,3.69-8.241,8.241-8.241h495.517c4.552,0,8.241,3.69,8.241,8.241
		v55.846H512z"/>
</g>
<path style="fill:#34A1D7;" d="M512,47.463H0V12.405c0-4.552,3.69-8.241,8.241-8.241h495.517c4.552,0,8.241,3.69,8.241,8.241v35.058
	H512z"/>
<path style="fill:#346E95;" d="M512,320.69v33.656c0,4.552-3.69,8.241-8.241,8.241H8.241c-4.552,0-8.241-3.69-8.241-8.241V320.69
	H512z"/>
<path style="fill:#2B6483;" d="M358.359,362.587v0.082h-212.31c0-0.031-0.01-0.051-0.01-0.082
	c-1.401-12.682-2.308-26.661-2.74-41.897h212.578L358.359,362.587z"/>
<path style="fill:#FFBB4A;" d="M397.153,33.54h-1.09c-4.268,0-7.726-3.459-7.726-7.726s3.459-7.726,7.726-7.726h1.09
	c4.268,0,7.726,3.459,7.726,7.726S401.421,33.54,397.153,33.54z"/>
<path style="fill:#3EAF91;" d="M427.65,33.54h-1.09c-4.268,0-7.726-3.459-7.726-7.726s3.459-7.726,7.726-7.726h1.09
	c4.268,0,7.726,3.459,7.726,7.726S431.918,33.54,427.65,33.54z"/>
<path style="fill:#EF5A50;" d="M458.147,33.54h-1.09c-4.268,0-7.726-3.459-7.726-7.726s3.459-7.726,7.726-7.726h1.09
	c4.268,0,7.726,3.459,7.726,7.726S462.414,33.54,458.147,33.54z"/>
<path d="M267.204,349.093H242.48c-4.268,0-7.726-3.459-7.726-7.726s3.459-7.726,7.726-7.726h24.724c4.268,0,7.726,3.459,7.726,7.726
	C274.931,345.633,271.472,349.093,267.204,349.093z"/>
<path style="fill:#FFBB4A;" d="M384.612,96.677v89.922c0,28.369-22.997,51.366-51.366,51.366H132.373
	c-4.552,0-8.241-3.69-8.241-8.241V96.677c0-4.552,3.69-8.241,8.241-8.241H376.37C380.922,88.436,384.612,92.126,384.612,96.677z"/>
<path style="fill:#F9AE41;" d="M224.911,181.523v56.442H143.07c-0.021-19.817-0.031-40.005-0.041-56.421
	c-0.01-10.947,4.249-21.233,11.981-28.976c7.732-7.732,18.018-11.991,28.965-11.991
	C206.541,140.577,224.911,158.947,224.911,181.523z"/>
<circle style="fill:#34A1D7;" cx="270.33" cy="146.79" r="21.656"/>
<circle style="fill:#EF5A50;" cx="238.42" cy="146.79" r="21.656"/>
<g>
	<path style="fill:#2B6483;" d="M336.524,213.826h-72.821c-4.268,0-7.726-3.459-7.726-7.726s3.459-7.726,7.726-7.726h72.821
		c4.268,0,7.726,3.459,7.726,7.726S340.792,213.826,336.524,213.826z"/>
	<path style="fill:#2B6483;" d="M236.105,213.826h-8.989c-4.268,0-7.726-3.459-7.726-7.726s3.459-7.726,7.726-7.726h8.989
		c4.268,0,7.726,3.459,7.726,7.726S240.372,213.826,236.105,213.826z"/>
</g>
<path style="fill:#FFCFAB;" d="M343.916,381.094l-5.391-91.075c-0.492-8.309-4.927-15.903-11.962-20.352
	c-7.418-4.692-15.91-7.634-24.88-7.634h-92.277V181.52c0-14.048-11.388-25.436-25.436-25.436l0,0
	c-14.055,0-25.446,11.391-25.436,25.446c0.031,45.303,0.105,132.868,0.223,137.216c3.019,117.272,34.852,122.008,38.202,123.922
	c0.182,0.103,0.285,0.148,0.285,0.148v22.992h119.232v-23.14l9.386-10.488C338.376,418.195,344.865,399.836,343.916,381.094z"/>
<path style="fill:#E9BE9D;" d="M316.476,465.807H197.244v-22.992c0,0-0.103-0.046-0.285-0.148h119.517V465.807z"/>
<path style="fill:#2B6483;" d="M185.976,499.595v-29.807c0-4.552,3.69-8.241,8.241-8.241h125.365c4.552,0,8.241,3.69,8.241,8.241
	v29.807c0,4.552-3.69,8.241-8.241,8.241H194.217C189.666,507.836,185.976,504.146,185.976,499.595z"/>
<g>
	<path style="fill:#3EAF91;" d="M373.189,183.144l16.557,39.652c1.393,3.336,5.725,4.191,8.282,1.635l23.095-23.095
		c2.556-2.556,1.701-6.889-1.635-8.282l-39.652-16.557C375.645,174.748,371.439,178.954,373.189,183.144z"/>
	<path style="fill:#3EAF91;" d="M459.357,143.58h-31.041c-4.268,0-7.726-3.459-7.726-7.726s3.459-7.726,7.726-7.726h31.041
		c4.268,0,7.726,3.459,7.726,7.726S463.625,143.58,459.357,143.58z"/>
	<path style="fill:#3EAF91;" d="M459.357,163.321h-31.041c-4.268,0-7.726-3.459-7.726-7.726s3.459-7.726,7.726-7.726h31.041
		c4.268,0,7.726,3.459,7.726,7.726S463.625,163.321,459.357,163.321z"/>
	<path style="fill:#3EAF91;" d="M83.684,143.58H52.643c-4.268,0-7.726-3.459-7.726-7.726s3.459-7.726,7.726-7.726h31.041
		c4.268,0,7.726,3.459,7.726,7.726S87.952,143.58,83.684,143.58z"/>
	<path style="fill:#3EAF91;" d="M83.684,163.321H52.643c-4.268,0-7.726-3.459-7.726-7.726s3.459-7.726,7.726-7.726h31.041
		c4.268,0,7.726,3.459,7.726,7.726C91.41,159.862,87.952,163.321,83.684,163.321z"/>
</g>
<g>
</g>
<g>
</g>
<g>
</g>
<g>
</g>
<g>
</g>
<g>
</g>
<g>
</g>
<g>
</g>
<g>
</g>
<g>
</g>
<g>
</g>
<g>
</g>
<g>
</g>
<g>
</g>
<g>
</g>
</svg>
