<svg height="512pt" viewBox="0 0 512 512" width="512pt" xmlns="http://www.w3.org/2000/svg"><path d="m452 121v330h-452v-330l30-30h392zm0 0" fill="#e0f4ff"/><path d="m452 121v330h-226v-360h196zm0 0" fill="#bbdcff"/><path d="m0 30h452v91h-452zm0 0" fill="#ff9100"/><path d="m226 30h226v91h-226zm0 0" fill="#ff641a"/><path d="m407 301c-57.898438 0-105 47.101562-105 105s47.101562 106 105 106 105-48.101562 105-106-47.101562-105-105-105zm0 0" fill="#64e1dc"/><path d="m512 406c0 57.898438-47.101562 106-105 106v-211c57.898438 0 105 47.101562 105 105zm0 0" fill="#00c8c8"/><g fill="#bbdcff"><path d="m151 271h-90v-90h90zm0 0"/><path d="m151 391h-90v-90h90zm0 0"/><path d="m181 301v90h90v-90zm0 0"/></g><path d="m392 271h-90v-90h90zm0 0" fill="#9abadb"/><path d="m61 0h30v91h-30zm0 0" fill="#7c8388"/><path d="m121 0h30v91h-30zm0 0" fill="#7c8388"/><path d="m181 0h30v91h-30zm0 0" fill="#7c8388"/><path d="m241 0h30v91h-30zm0 0" fill="#575f64"/><path d="m302 0h30v91h-30zm0 0" fill="#575f64"/><path d="m362 0h30v91h-30zm0 0" fill="#575f64"/><path d="m452 391v30h-60v-60h30v30zm0 0" fill="#7c8388"/><path d="m280.601562 222.699219-54.601562 44.402343-3.300781 2.699219-36.601563-32.699219 19.804688-22.203124 17.398437 15.300781 2.699219-2.097657 35.398438-28.800781zm0 0" fill="#da90f8"/><path d="m452 391v30h-45v-60h15v30zm0 0" fill="#575f64"/><path d="m226 301h45v90h-45zm0 0" fill="#9abadb"/><path d="m261.398438 199.300781 19.203124 23.398438-54.601562 44.402343v-39zm0 0" fill="#b760ea"/></svg>