<?xml version="1.0"?>
<svg xmlns="http://www.w3.org/2000/svg" id="Layer_1" data-name="Layer 1" viewBox="0 0 512 512" width="512" height="512"><title>Bulk mail send</title><path d="M347.37,369.97l48.17-29.65V476.53a19.45,19.45,0,0,1-5.7,13.77l-.14-.14L281.96,410.58l-.16-.26Z" style="fill:#f8ec7d"/><polygon points="395.54 340.32 347.37 369.97 347.37 305.68 395.54 340.32" style="fill:#e48e66"/><path d="M389.7,490.16l.14.14a19.45,19.45,0,0,1-13.77,5.7H135.93a19.4,19.4,0,0,1-13.91-5.85l108.02-79.9.03-.05,15.72,9.7a19.448,19.448,0,0,0,20.43.01l15.58-9.59.16.26Z" style="fill:#e48e66"/><path d="M164.63,299.76V268.49a8.728,8.728,0,0,1,8.72-8.72h165.3a8.728,8.728,0,0,1,8.72,8.72V369.97L281.8,410.32l-15.58,9.59a19.448,19.448,0,0,1-20.43-.01l-15.72-9.7-65.44-40.38Z" style="fill:#6fe3ff"/><path d="M164.63,369.82l65.44,40.38-.03.05-108.02,79.9a19.4,19.4,0,0,1-5.56-13.62V340.32h.36Z" style="fill:#f8ec7d"/><polygon points="164.63 299.76 164.63 369.82 116.82 340.32 116.46 340.32 164.63 299.76" style="fill:#e48e66"/><path d="M251.04,198.08a6,6,0,0,0-6,6v7.59a6,6,0,1,0,12,0v-7.59A6,6,0,0,0,251.04,198.08Z" style="fill:#63316d"/><path d="M257.04,151.65a6,6,0,0,0-12,0v37.19a6,6,0,1,0,12,0Z" style="fill:#63316d"/><path d="M225.34,229.15a6,6,0,0,0-6,6v1.53a6,6,0,0,0,12,0v-1.53A6,6,0,0,0,225.34,229.15Z" style="fill:#63316d"/><path d="M231.34,194.51a6,6,0,0,0-12,0v24.72a6,6,0,0,0,12,0Z" style="fill:#63316d"/><path d="M275.04,202.14a6,6,0,0,0-6,6V235.7a6,6,0,0,0,12,0V208.14A6,6,0,0,0,275.04,202.14Z" style="fill:#63316d"/><path d="M281.04,116.82l13.2-.423a6,6,0,0,0,3.914-10.372l-44.13-41.42a6,6,0,0,0-8.481.269L204.125,109a6,6,0,0,0,4.565,10.1l10.256-.325.394,53.562a6,6,0,0,0,6,5.956h.045a6,6,0,0,0,5.956-6.044l-.44-59.71a6,6,0,0,0-6.19-5.953l-1.921.061,27.4-29.192,29.2,27.405-4.54.146a6,6,0,0,0-5.808,6v81.06a6,6,0,0,0,12,0Z" style="fill:#63316d"/><path d="M366.47,268.42a6,6,0,1,0,12,0v-8.47a6,6,0,0,0-12,0Z" style="fill:#63316d"/><path d="M366.47,240.95a6,6,0,1,0,12,0V182.38a6,6,0,0,0-12,0Z" style="fill:#63316d"/><path d="M366.47,159.86a6,6,0,0,0,12,0V151.1a6,6,0,0,0-12,0Z" style="fill:#63316d"/><path d="M372.47,141.86a6,6,0,0,0,6-6V108.63a6,6,0,0,0-12,0v27.23A6,6,0,0,0,372.47,141.86Z" style="fill:#63316d"/><path d="M340.76,210.31a6,6,0,0,0,12,0v-.95a6,6,0,0,0-12,0Z" style="fill:#63316d"/><path d="M346.76,200.39a6,6,0,0,0,6-6v-72.8a6,6,0,0,0-12,0v72.8A6,6,0,0,0,346.76,200.39Z" style="fill:#63316d"/><path d="M402.47,155.16a6,6,0,1,0-12,0v54.71a6,6,0,0,0,12,0Z" style="fill:#63316d"/><path d="M402.47,230.07a6,6,0,1,0-12,0v47.67a6,6,0,0,0,12,0Z" style="fill:#63316d"/><path d="M402.47,298.1a6,6,0,0,0-12,0v2.98a6,6,0,0,0,12,0Z" style="fill:#63316d"/><path d="M402.47,114.46a6,6,0,1,0-12,0v24.63a6,6,0,1,0,12,0Z" style="fill:#63316d"/><path d="M402.47,63.833l13.2-.416a6,6,0,0,0,3.916-10.372l-44.141-41.42a6,6,0,0,0-8.48.269l-41.42,44.129a6,6,0,0,0,4.564,10.1l10.283-.325.368,36.768a6,6,0,0,0,6,5.94h.061a6,6,0,0,0,5.94-6.061l-.43-42.9a6,6,0,0,0-6.189-5.937l-1.933.062,27.4-29.195,29.2,27.4-4.528.142a6,6,0,0,0-5.81,6V90.68a6,6,0,0,0,12,0Z" style="fill:#63316d"/><path d="M139.07,260.52a6,6,0,0,0-6,6v1.9a6,6,0,0,0,12,0v-1.9A6,6,0,0,0,139.07,260.52Z" style="fill:#63316d"/><path d="M145.07,199.6a6,6,0,1,0-12,0v45.81a6,6,0,1,0,12,0Z" style="fill:#63316d"/><path d="M145.07,164.28a6,6,0,0,0-12,0V174.4a6,6,0,1,0,12,0Z" style="fill:#63316d"/><path d="M113.36,279.56a6,6,0,0,0,6-6V230.75a6,6,0,0,0-12,0v42.81A6,6,0,0,0,113.36,279.56Z" style="fill:#63316d"/><path d="M113.36,204.74a6,6,0,0,0-6,6v3.56a6,6,0,0,0,12,0v-3.56A6,6,0,0,0,113.36,204.74Z" style="fill:#63316d"/><path d="M163.06,214.78a6,6,0,0,0-6,6v20.41a6,6,0,0,0,12,0V220.78A6,6,0,0,0,163.06,214.78Z" style="fill:#63316d"/><path d="M169.06,131.61a6,6,0,1,0-12,0V204.7a6,6,0,0,0,12,0Z" style="fill:#63316d"/><path d="M96.709,66.127l10.24-.324.411,129.037a6,6,0,0,0,6,5.98h.02a6,6,0,0,0,5.98-6.019l-.43-135.21a6,6,0,0,0-6.19-5.978l-1.932.062,27.4-29.195,29.2,27.4-4.537.142a6,6,0,0,0-5.81,6v55.5a6,6,0,0,0,12,0V63.833l13.21-.416a6,6,0,0,0,3.916-10.372l-44.14-41.42a6,6,0,0,0-8.481.269L92.145,56.023a6,6,0,0,0,4.564,10.1Z" style="fill:#63316d"/><path d="M117.772,494.4c.022.022.048.036.07.057A25.258,25.258,0,0,0,135.93,502H376.07a25.463,25.463,0,0,0,25.47-25.47V340.32c0-.039-.007-.077-.008-.115,0-.19-.016-.379-.038-.567-.007-.063-.013-.126-.021-.189a6,6,0,0,0-.142-.691c-.01-.037-.022-.072-.033-.108q-.086-.293-.2-.576c-.024-.059-.048-.116-.074-.174-.082-.185-.172-.366-.272-.543-.019-.032-.034-.065-.053-.1a6.053,6.053,0,0,0-.41-.6c-.023-.031-.051-.06-.075-.09a5.924,5.924,0,0,0-.4-.444c-.051-.053-.1-.1-.156-.153-.128-.121-.264-.237-.4-.348-.055-.043-.108-.089-.163-.13-.019-.013-.034-.029-.053-.042L353.37,302.6V268.49a14.736,14.736,0,0,0-14.72-14.72H173.35a14.736,14.736,0,0,0-14.72,14.72v28.479L112.6,335.73l0,0a5.983,5.983,0,0,0-2.138,4.588V476.53a25.316,25.316,0,0,0,7.268,17.813C117.744,494.36,117.756,494.38,117.772,494.4Zm4.688-17.867V350.851l96.933,59.811-95.938,70.963A13.438,13.438,0,0,1,122.46,476.53ZM135.93,490a13.586,13.586,0,0,1-3.113-.373L230.4,417.451,242.636,425a25.323,25.323,0,0,0,26.729.016l12.026-7.4,97.563,72.063a13.549,13.549,0,0,1-2.884.318ZM389.54,351.059V476.53a13.457,13.457,0,0,1-1.069,5.263l-96.063-70.955Zm-4.816-11.127-31.354,19.3V317.386ZM173.35,265.77h165.3a2.723,2.723,0,0,1,2.72,2.72v35.665a6,6,0,0,0,0,2.8v59.662l-78.3,48.187a13.386,13.386,0,0,1-14.134-.007l-78.31-48.321V268.49A2.723,2.723,0,0,1,173.35,265.77Zm-14.72,93.3L126.82,339.44l31.81-26.784Z" style="fill:#63316d"/><path d="M249.14,319.6h62.57a6,6,0,0,0,0-12H249.14a6,6,0,0,0,0,12Z" style="fill:#63316d"/><path d="M200.29,319.6h26.22a6,6,0,0,0,0-12H200.29a6,6,0,1,0,0,12Z" style="fill:#63316d"/><path d="M311.71,349.57h-21.8a6,6,0,0,0,0,12h21.8a6,6,0,0,0,0-12Z" style="fill:#63316d"/><path d="M200.29,361.57h67.98a6,6,0,0,0,0-12H200.29a6,6,0,0,0,0,12Z" style="fill:#63316d"/></svg>
