<svg height="512pt" viewBox="-52 0 512 512.00115" width="512pt" xmlns="http://www.w3.org/2000/svg"><path d="m239.546875 302.570312h-71.710937c-1.992188 0-3.707032-1.417968-4.082032-3.375l-20.917968-109.328124c-12.152344-63.503907 6.058593-129.039063 49.226562-177.175782 6.207031-6.925781 17.050781-6.925781 23.257812 0 43.171876 48.132813 61.378907 113.671875 49.226563 177.175782l-20.917969 109.328124c-.375 1.957032-2.089844 3.375-4.082031 3.375zm0 0" fill="#dce6eb"/><path d="m215.320312 12.691406c-6.207031-6.925781-17.050781-6.925781-23.257812 0-.179688.195313-.347656.398438-.523438.597656 31.332032 45.363282 43.503907 101.722657 33.007813 156.578126l-17.054687 89.125c-2.617188 13.679687-14.585938 23.574218-28.515626 23.574218h-18.402343l3.179687 16.628906c.375 1.957032 2.089844 3.375 4.082032 3.375h71.710937c1.992187 0 3.707031-1.417968 4.082031-3.375l20.917969-109.328124c12.152344-63.503907-6.054687-129.042969-49.226563-177.175782zm0 0" fill="#b9c3cd"/><path d="m393.082031 257.457031c.003907 0 .003907 0 .003907.003907l-125.734376-87.589844c-.613281 6.675781-1.53125 13.347656-2.804687 19.996094l-12.605469 65.882812 10.804688-56.480469c28.683594 5.453125 51.328125 27.90625 57.082031 56.480469.929687 4.617188 1.433594 9.390625 1.433594 14.285156v17.53125c0 3.71875-4.226563 5.855469-7.222657 3.652344l-4.140624-3.042969c-16.023438-11.785156-35.390626-18.140625-55.28125-18.140625h-5.410157l-5.578125 29.160156c-.375 1.957032-2.089844 3.375-4.082031 3.375h-71.710937c-1.992188 0-3.707032-1.417968-4.082032-3.375l-5.578125-29.160156h-5.410156c-19.890625 0-39.257813 6.355469-55.28125 18.140625l-4.140625 3.042969c-2.996094 2.203125-7.222656.066406-7.222656-3.652344v-17.53125c0-4.894531.503906-9.667968 1.433594-14.285156 5.753906-28.574219 28.398437-51.027344 57.082031-56.480469l10.804687 56.480469-12.605468-65.882812c-1.273438-6.648438-2.191407-13.320313-2.804688-19.996094l-125.734375 87.585937c-.773437.433594-1.503906.9375-2.171875 1.511719l173.921875 121.15625 8.589844-5.984375c5.441406-3.792969 12.667969-3.792969 18.113281 0l8.589844 5.984375 173.921875-121.15625c-.671875-.574219-1.402344-1.074219-2.179688-1.511719zm0 0" fill="#ffea84"/><path d="m393.082031 257.457031c.003907 0 .003907 0 .003907.003907l-125.734376-87.589844c-.222656 2.433594-.503906 4.867187-.808593 7.300781l86.542969 60.289063s0 0 0-.003907c.007812.003907.011718.011719.019531.015625 1.105469.621094 1.136719 2.207032.097656 2.929688l-32.300781 22.5c.234375 2.347656.359375 4.722656.359375 7.132812v17.535156c0 3.714844-4.226563 5.851563-7.21875 3.652344l-4.144531-3.046875c-4.265626-3.136719-8.773438-5.878906-13.460938-8.226562l-115.101562 80.175781-8.589844-5.984375c-5.441406-3.792969-12.667969-3.792969-18.109375 0l-2.945313 2.050781 34.355469 23.933594 8.589844-5.984375c5.441406-3.792969 12.667969-3.792969 18.109375 0l8.589844 5.984375 173.921874-121.152344c-.667968-.578125-1.398437-1.078125-2.175781-1.515625zm0 0" fill="#ffe046"/><path d="m158.175781 270.03125 5.578125 29.164062c.375 1.957032 2.089844 3.371094 4.082032 3.371094h71.710937c1.992187 0 3.703125-1.414062 4.078125-3.371094l5.582031-29.164062zm0 0" fill="#e04955"/><path d="m242.9375 300.789062c.328125-.46875.578125-1.003906.691406-1.59375l5.578125-29.164062h-46.34375c-5.289062 7.648438-14.101562 12.535156-23.886719 12.535156h-18.402343l1.179687 6.15625 2.003906 10.472656c.113282.589844.359376 1.125.6875 1.59375.214844.304688.457032.589844.746094.828126.542969.449218 1.199219.757812 1.914063.886718.238281.042969.480469.066406.730469.066406h71.710937c.25 0 .496094-.023437.734375-.066406.714844-.128906 1.371094-.4375 1.914062-.886718.285157-.238282.527344-.523438.742188-.828126zm0 0" fill="#da2f3c"/><g fill="#e04955"><path d="m144.632812 199.265625c-33.316406 6.339844-58.511718 35.601563-58.511718 70.765625v17.535156c0 3.71875 4.226562 5.855469 7.222656 3.652344l4.140625-3.046875c16.023437-11.785156 35.390625-18.140625 55.28125-18.140625h5.410156zm0 0"/><path d="m262.75 199.265625c33.316406 6.339844 58.511719 35.601563 58.511719 70.765625v17.535156c0 3.71875-4.226563 5.855469-7.21875 3.652344l-4.144531-3.046875c-16.023438-11.785156-35.390626-18.140625-55.28125-18.140625h-5.410157zm0 0"/><path d="m203.691406 54.542969c13.691406 0 26.921875-.863281 39.417969-2.460938-7.621094-14.027343-16.910156-27.261719-27.789063-39.390625-6.207031-6.925781-17.050781-6.925781-23.261718 0-10.875 12.128906-20.164063 25.363282-27.785156 39.390625 12.5 1.597657 25.726562 2.460938 39.417968 2.460938zm0 0"/></g><path d="m227.167969 27.175781c-7.09375-9.503906-11.957031-14.488281-11.847657-14.488281-6.207031-6.921875-17.050781-6.921875-23.257812 0-.074219.082031-.449219.519531-.519531.601562 8.914062 12.902344 16.269531 26.703126 22 41.097657 10.199219-.308594 20.09375-1.09375 29.566406-2.304688-4.707031-8.667969-9.992187-16.925781-15.941406-24.90625zm0 0" fill="#c62430"/><path d="m236.003906 145.460938c0 17.847656-14.46875 32.3125-32.3125 32.3125-17.847656 0-32.3125-14.464844-32.3125-32.3125 0-17.84375 14.464844-32.3125 32.3125-32.3125 17.84375 0 32.3125 14.46875 32.3125 32.3125zm0 0" fill="#72e4a0"/><path d="m236.003906 145.460938c0 17.847656-14.46875 32.3125-32.3125 32.3125-17.847656 0-32.3125-14.464844-32.3125-32.3125 0-17.84375 14.464844-32.3125 32.3125-32.3125 17.84375 0 32.3125 14.46875 32.3125 32.3125zm0 0" fill="#b4e7fd"/><path d="m203.691406 113.148438c-.890625 0-1.773437.046874-2.648437.117187 3.136719 4.980469 4.960937 10.875 4.960937 17.195313 0 16.953124-13.058594 30.847656-29.664062 32.195312 5.71875 9.078125 15.828125 15.117188 27.351562 15.117188 17.847656 0 32.3125-14.46875 32.3125-32.3125s-14.464844-32.3125-32.3125-32.3125zm0 0" fill="#72d1fb"/><path d="m194.636719 374.140625-182.511719 127.136719c2.328125 2.003906 5.347656 3.226562 8.660156 3.226562h365.8125c3.3125 0 6.332032-1.222656 8.660156-3.226562l-182.511718-127.136719c-5.441406-3.792969-12.667969-3.792969-18.109375 0zm0 0" fill="#72e4a0"/><path d="m194.636719 374.140625c5.441406-3.792969 12.667969-3.792969 18.109375 0l9.410156 6.554687c7.460938-24.609374 13.847656-53.230468 13.847656-62.757812 0-5.566406-1.40625-10.800781-3.882812-15.367188h-56.859375c-2.476563 4.566407-3.882813 9.800782-3.882813 15.367188 0 9.527344 6.386719 38.148438 13.847656 62.757812zm0 0" fill="#f76937"/><path d="m232.121094 302.570312h-16.429688c-1.132812 10.179688-5.238281 28.753907-10.3125 47.015626-1.519531 5.46875-7.976562 7.796874-12.632812 4.554687-4.511719-3.144531-10.246094-3.671875-15.179688-1.601563 2.214844 9.136719 4.863282 18.929688 7.660156 28.15625l9.410157-6.554687c5.441406-3.792969 12.667969-3.792969 18.109375 0l9.410156 6.554687c7.460938-24.609374 13.847656-53.230468 13.847656-62.757812 0-5.566406-1.40625-10.800781-3.882812-15.367188zm0 0" fill="#d1462a"/><path d="m395.257812 258.972656-173.921874 121.152344-8.589844-5.984375c-5.441406-3.792969-12.667969-3.792969-18.109375 0l-8.59375 5.984375-173.917969-121.152344c-2.828125 2.433594-4.628906 6.035156-4.628906 10.066406v222.175782c0 7.339844 5.949218 13.289062 13.289062 13.289062h365.8125c7.339844 0 13.289063-5.953125 13.289063-13.289062v-222.179688c0-4.027344-1.800781-7.628906-4.628907-10.0625zm0 0" fill="#ffd508"/><path d="m395.257812 258.972656-35.371093 24.640625v121.332031c0 43.9375-35.617188 79.554688-79.554688 79.554688h-272.835937v6.710938c0 7.339843 5.949218 13.289062 13.289062 13.289062h365.8125c7.339844 0 13.289063-5.949219 13.289063-13.289062v-222.175782c0-4.027344-1.800781-7.628906-4.628907-10.0625zm0 0" fill="#ddb907"/><path d="m163.878906 145.460938c0 21.953124 17.859375 39.8125 39.8125 39.8125s39.8125-17.859376 39.8125-39.8125c0-21.953126-17.859375-39.8125-39.8125-39.8125s-39.8125 17.859374-39.8125 39.8125zm64.625 0c0 13.683593-11.128906 24.8125-24.8125 24.8125s-24.8125-11.128907-24.8125-24.8125c0-13.679688 11.128906-24.8125 24.8125-24.8125s24.8125 11.132812 24.8125 24.8125zm0 0"/><path d="m397.113281 251.121094-121.910156-84.921875c1.332031-18.625.214844-37.328125-3.355469-55.855469-.78125-4.066406-4.722656-6.730469-8.78125-5.945312-4.070312.785156-6.730468 4.71875-5.945312 8.785156 4.816406 24.988281 4.835937 50.3125.058594 75.273437-1.574219 8.226563-11.746094 61.382813-14.171876 74.074219h-78.632812c-2.5-13.054688-12.648438-66.105469-14.171875-74.074219-8.378906-43.789062-1.53125-89.140625 18.390625-128.3125 23.015625 2.527344 47.238281 2.53125 70.28125-.007812 3.378906 6.621093 6.402344 13.449219 9.046875 20.472656 1.457031 3.875 5.785156 5.832031 9.660156 4.375 3.875-1.460937 5.835938-5.785156 4.375-9.664063-9.414062-25.003906-23.226562-47.761718-41.050781-67.640624-9.15625-10.203126-25.214844-10.277344-34.429688 0-37.777343 42.125-58.457031 98.792968-54.265624 158.496093l-121.9375 84.945313c-6.511719 3.824218-10.273438 10.707031-10.273438 17.917968v222.171876c0 11.464843 9.328125 20.789062 20.789062 20.789062h365.804688c11.464844 0 20.789062-9.324219 20.789062-20.789062v-222.171876c0-7.195312-3.75-14.085937-10.269531-17.917968zm-199.46875-233.421875c3.222657-3.59375 8.851563-3.617188 12.09375 0 7.890625 8.796875 14.921875 18.207031 21.085938 28.152343-17.433594 1.535157-35.699219 1.632813-54.207031.007813 6.128906-9.9375 13.144531-19.371094 21.027343-28.160156zm125.003907 423.859375c-3.398438-2.367188-8.074219-1.53125-10.441407 1.867187-2.367187 3.398438-1.53125 8.074219 1.867188 10.441407l61.921875 43.136718h-344.609375c47.160156-32.855468 120.261719-83.78125 167.527343-116.703125 2.855469-1.988281 6.695313-1.988281 9.550782-.003906 8.285156 5.769531 73.980468 51.535156 76.890625 53.558594 3.398437 2.367187 8.074219 1.53125 10.441406-1.867188 2.367187-3.398437 1.53125-8.074219-1.867187-10.441406l-59.46875-41.421875 157.921874-110.007812v220.019531zm-173.53125-178.960938c-20.070313.710938-39.171876 7.277344-55.496094 19.109375v-11.675781c0-28.425781 18.585937-53.226562 45.136718-61.570312zm119.507812-54.136718c26.550781 8.339843 45.136719 33.144531 45.136719 61.570312v11.675781c-16.324219-11.832031-35.425781-18.398437-55.496094-19.109375zm-31.84375 86.605468h-11.632812v-5.386718c0-4.140626-3.359376-7.5-7.5-7.5-4.144532 0-7.5 3.359374-7.5 7.5v5.386718h-12.914063v-5.386718c0-4.140626-3.355469-7.5-7.5-7.5-4.140625 0-7.5 3.359374-7.5 7.5v5.386718h-11.632813l-3.355468-17.535156h72.890625zm-56.625 15.003906h47.070312c.839844 2.519532 1.277344 5.183594 1.277344 7.867188 0 6.597656-4.242187 27.839844-10.625 50.632812l-.847656-.585937c-7.976562-5.550781-18.703125-5.550781-26.6875.003906l-.839844.582031c-6.386718-22.789062-10.625-44.035156-10.625-50.632812 0-2.683594.433594-5.347656 1.277344-7.867188zm201.980469-51.097656-146.757813 102.230469c4.550782-17.703125 8.125-35.242187 8.125-43.265625 0-2.792969-.3125-5.566406-.886718-8.28125 4.203124-1.152344 7.527343-4.605469 8.375-9.050781l4.414062-23.058594c18.132812.164063 35.421875 5.910156 50.046875 16.667969l4.144531 3.046875c2.117188 1.558593 4.609375 2.351562 7.121094 2.351562 6.492188 0 12.042969-5.234375 12.042969-12.046875v-17.53125c0-35.621094-23.691407-66.621094-57.304688-76.375.652344-3.398437 1.105469-5.695312 1.835938-10.507812zm-246.210938-65.3125c-33.613281 9.753906-57.304687 40.75-57.304687 76.371094v17.535156c0 9.855469 11.21875 15.539063 19.164062 9.695313l4.144532-3.046875c14.625-10.757813 31.914062-16.503906 50.046874-16.667969l4.414063 23.054687c.847656 4.449219 4.175781 7.902344 8.378906 9.054688-.578125 2.714844-.890625 5.488281-.890625 8.28125 0 8.023438 3.578125 25.566406 8.125 43.265625l-54.277344-37.808594c-3.398437-2.367187-8.074218-1.53125-10.441406 1.871094-2.367187 3.398437-1.53125 8.070313 1.871094 10.4375l63.765625 44.421875-157.921875 110.011719v-220.019531l65.433594 45.578124c3.398437 2.367188 8.074218 1.53125 10.441406-1.867187 2.367188-3.402344 1.53125-8.074219-1.867188-10.441406l-63.761718-44.414063 108.851562-75.828125c.765625 5.070313 1.222656 7.355469 1.828125 10.515625zm0 0"/></svg>