<svg height="496pt" viewBox="0 0 496 496" width="496pt" xmlns="http://www.w3.org/2000/svg"><path d="m456 488h-416c-17.671875 0-32-14.328125-32-32v-32h480v32c0 17.671875-14.328125 32-32 32zm0 0" fill="#64656a"/><path d="m464 456v-32h-456v32c0 17.671875 14.328125 32 32 32h392c17.671875 0 32-14.328125 32-32zm0 0" fill="#95989e"/><path d="m120 424v16c0 8.839844 7.160156 16 16 16h224c8.839844 0 16-7.160156 16-16v-16" fill="#95989e"/><path d="m352 440v-16h-232v16c0 8.839844 7.160156 16 16 16h200c8.839844 0 16-7.160156 16-16zm0 0" fill="#c7cad3"/><path d="m472 424h-448v-256c0-8.839844 7.160156-16 16-16h416c8.839844 0 16 7.160156 16 16zm0 0" fill="#c7cad3"/><path d="m56 184h384v208h-384zm0 0" fill="#67cbf5"/><path d="m56 184h360v208h-360zm0 0" fill="#99ddf8"/><path d="m88 248h208v96h-208zm0 0" fill="#95989e"/><path d="m88 248h184v96h-184zm0 0" fill="#c7cad3"/><path d="m136 184h72l32 32v-32h40c8.839844 0 16-7.160156 16-16v-144c0-8.839844-7.160156-16-16-16h-144c-8.839844 0-16 7.160156-16 16v144c0 8.839844 7.160156 16 16 16zm0 0" fill="#ffdf47"/><path d="m328 216v-144c0-8.839844 7.160156-16 16-16h128c8.839844 0 16 7.160156 16 16v144c0 8.839844-7.160156 16-16 16h-64l-32 32v-32h-32c-8.839844 0-16-7.160156-16-16zm0 0" fill="#7ac16a"/><path d="m208 160c-26.472656 0-48-21.527344-48-48v-32c0-26.472656 21.527344-48 48-48s48 21.527344 48 48v32c0 26.472656-21.527344 48-48 48zm0-112c-17.648438 0-32 14.351562-32 32v32c0 17.648438 14.351562 32 32 32s32-14.351562 32-32v-32c0-17.648438-14.351562-32-32-32zm0 0"/><path d="m210.339844 125.65625 11.3125-11.316406 40 40-11.316406 11.316406zm0 0"/><path d="m448 208h-16v-88c0-13.230469-10.769531-24-24-24s-24 10.769531-24 24v88h-16v-88c0-22.054688 17.945312-40 40-40s40 17.945312 40 40zm0 0"/><path d="m376 152h64v16h-64zm0 0"/><path d="m376 272c-1.03125 0-2.070312-.199219-3.0625-.609375-2.992188-1.238281-4.9375-4.160156-4.9375-7.390625v-24h-24c-13.230469 0-24-10.769531-24-24v-144c0-13.230469 10.769531-24 24-24h128c13.230469 0 24 10.769531 24 24v144c0 13.230469-10.769531 24-24 24h-60.6875l-29.65625 29.65625c-1.527344 1.527344-3.578125 2.34375-5.65625 2.34375zm-32-208c-4.414062 0-8 3.59375-8 8v144c0 4.40625 3.585938 8 8 8h32c4.425781 0 8 3.585938 8 8v12.6875l18.34375-18.34375c1.496094-1.503906 3.527344-2.34375 5.65625-2.34375h64c4.414062 0 8-3.59375 8-8v-144c0-4.40625-3.585938-8-8-8zm0 0"/><path d="m456 496h-416c-22.054688 0-40-17.945312-40-40v-32c0-4.414062 3.574219-8 8-8h480c4.425781 0 8 3.585938 8 8v32c0 22.054688-17.945312 40-40 40zm-440-64v24c0 13.230469 10.769531 24 24 24h416c13.230469 0 24-10.769531 24-24v-24zm0 0"/><path d="m360 464h-224c-13.230469 0-24-10.769531-24-24v-16h16v16c0 4.40625 3.585938 8 8 8h224c4.414062 0 8-3.59375 8-8v-16h16v16c0 13.230469-10.769531 24-24 24zm0 0"/><path d="m464 232h16v192h-16zm0 0"/><path d="m32 424h-16v-256c0-13.230469 10.769531-24 24-24h80v16h-80c-4.414062 0-8 3.59375-8 8zm0 0"/><path d="m240 224c-2.078125 0-4.128906-.816406-5.65625-2.34375l-29.65625-29.65625h-68.6875c-13.230469 0-24-10.769531-24-24v-144c0-13.230469 10.769531-24 24-24h144c13.230469 0 24 10.769531 24 24v144c0 13.230469-10.769531 24-24 24h-32v24c0 3.230469-1.945312 6.152344-4.9375 7.390625-.992188.410156-2.03125.609375-3.0625.609375zm-104-208c-4.414062 0-8 3.59375-8 8v144c0 4.40625 3.585938 8 8 8h72c2.128906 0 4.160156.839844 5.65625 2.34375l18.34375 18.34375v-12.6875c0-4.414062 3.574219-8 8-8h40c4.414062 0 8-3.59375 8-8v-144c0-4.40625-3.585938-8-8-8zm0 0"/><path d="m440 400h-384c-4.425781 0-8-3.585938-8-8v-208c0-4.414062 3.574219-8 8-8h40v16h-32v192h368v-152h16v160c0 4.414062-3.574219 8-8 8zm0 0"/><path d="m296 144h32v16h-32zm0 0"/><path d="m296 352h-208c-4.425781 0-8-3.585938-8-8v-96c0-4.414062 3.574219-8 8-8h208c4.425781 0 8 3.585938 8 8v96c0 4.414062-3.574219 8-8 8zm-200-16h192v-80h-192zm0 0"/><path d="m112 272h160v16h-160zm0 0"/><path d="m128 304h128v16h-128zm0 0"/></svg>