<svg id="Layer_1" enable-background="new 0 0 512 512" height="512" viewBox="0 0 512 512" width="512" xmlns="http://www.w3.org/2000/svg"><path d="m319.261 114.883v375.731c0 7.153-5.798 12.951-12.951 12.951h-258.026c-7.153 0-12.951-5.798-12.951-12.951v-469.228c0-7.153 5.798-12.951 12.951-12.951h165.296c1.943 0 3.835.438 5.559 1.255 1.345.637 2.57 1.504 3.636 2.58l92.73 93.497c.917.927 1.684 1.963 2.271 3.098.967 1.834 1.485 3.906 1.485 6.018z" fill="#fff5f4"/><path d="m317.777 108.866h-89.592c-5.001 0-9.046-4.055-9.046-9.046v-90.13c1.345.637 2.57 1.504 3.636 2.58l92.73 93.497c.917.927 1.684 1.963 2.272 3.099z" fill="#d8cecc"/><path d="m476.667 169.706c0 12.294-4.692 24.597-14.077 33.982l-20.124 20.124-162.965 162.964-.578.578c-.488.488-1.086.877-1.733 1.126l-99.225 38.226c-3.985 1.544-7.91-2.381-6.366-6.366l38.226-99.225c.249-.648.638-1.245 1.126-1.733l183.666-183.666c18.769-18.769 49.204-18.769 67.973 0 9.384 9.383 14.077 21.686 14.077 33.99z" fill="#95dae8"/><path d="m457.718 131.46c-9.843 1.454-19.327 5.967-26.908 13.549l-183.667 183.667c-.488.488-.877 1.086-1.126 1.733l-31.7 82.289-36.353 14.007c-3.985 1.544-7.91-2.381-6.366-6.366l38.226-99.225c.249-.648.638-1.245 1.126-1.733l183.666-183.666c17.225-17.226 44.263-18.64 63.102-4.255z" fill="#60c8dd"/><path d="m83.153 503.565h-34.869c-7.153 0-12.951-5.798-12.951-12.951v-469.228c0-7.153 5.798-12.951 12.951-12.951h34.868c-7.153 0-12.951 5.798-12.951 12.951v469.228c.001 7.153 5.799 12.951 12.952 12.951z" fill="#ebe0da"/><path d="m279.501 386.756v.02l-.578.578c-.488.488-1.086.877-1.733 1.126l-51.356 19.785-47.869 18.44c-3.985 1.544-7.91-2.381-6.366-6.366l18.938-49.144 19.287-50.081c.249-.648.638-1.245 1.126-1.733l.239-.239.986-.01 35.954 1.405c1.255.05 2.271 1.076 2.301 2.331l.578 22.107c.03 1.275 1.056 2.301 2.331 2.331l22.116.578c1.255.03 2.281 1.036 2.331 2.291z" fill="#ffe5a0"/><path d="m250.491 325.328-3.347 3.347c-1.096 1.096 1.263-4.468-32.826 84.023l-36.353 14.007c-3.985 1.544-7.91-2.381-6.366-6.366l18.938-49.144 19.287-50.081c.344-.894.769-1.377 1.365-1.973l.986-.01 35.954 1.405c1.255.05 2.271 1.076 2.301 2.331z" fill="#ffdd81"/><path d="m250.491 325.328-3.347 3.347c-1.096 1.096 1.263-4.468-32.826 84.023l-36.353 14.007c-3.985 1.544-7.91-2.381-6.366-6.366l18.938-49.144 19.287-50.081c.344-.894.769-1.377 1.365-1.973l.986-.01 35.954 1.405c1.255.05 2.271 1.076 2.301 2.331z" fill="#ffdd81"/><path d="m225.834 408.265-47.869 18.44c-3.985 1.544-7.91-2.381-6.366-6.366l18.938-49.144c1.21 1.11-2.367-2.609 35.297 37.07z" fill="#777078"/><path d="m457.718 131.46c-9.843 1.454-19.327 5.967-26.908 13.549l-33.573 33.573-22.744-22.744 20.124-20.124c18.885-18.885 44.417-13.724 45.448-12.692 5.838 1.389 12.048 4.182 17.653 8.438z" fill="#60c8dd"/><path d="m476.667 169.706c0 12.294-4.692 24.597-14.077 33.982l-20.124 20.124-67.973-67.973 20.124-20.124c18.769-18.769 49.204-18.769 67.973 0 9.384 9.384 14.077 21.687 14.077 33.991z" fill="#f76c57"/><path d="m457.718 131.46c-9.843 1.454-19.327 5.967-26.908 13.549l-33.573 33.573-22.744-22.744 20.124-20.124c18.885-18.885 44.417-13.724 45.448-12.692 6.235 1.484 12.667 4.57 17.653 8.438z" fill="#e7387f"/><path d="m34.5 412.998c4.142 0 7.5-3.358 7.5-7.5v-384.998c0-3.033 2.467-5.5 5.5-5.5h94.574c4.142 0 7.5-3.358 7.5-7.5s-3.358-7.5-7.5-7.5h-94.574c-11.304 0-20.5 9.196-20.5 20.5v384.998c0 4.142 3.358 7.5 7.5 7.5z"/><path d="m389.841 129.959-62.841 62.841v-78.45c0-3.317-.815-6.615-2.329-9.486-2.185-4.225 4.957 3.698-96.692-98.792-3.793-3.828-9.007-6.072-14.559-6.072h-41.346c-4.142 0-7.5 3.358-7.5 7.5s3.358 7.5 7.5 7.5h39.426v85.82c0 8.266 6.725 14.99 14.99 14.99h85.51v91.99l-35.712 35.712c-2.929 2.929-2.929 7.678 0 10.606 2.929 2.929 7.678 2.929 10.606 0l88.048-88.048 9.772 9.772-137.4 137.4-18.811-.733 37.178-37.179c2.929-2.929 2.929-7.678 0-10.606-2.929-2.929-7.678-2.929-10.606 0-54.588 54.588-51.222 50.832-52.039 52.951l-38.75 100.579c-3.912 10.109 6.044 19.973 16.082 16.097 108.795-41.916 101.57-38.822 103.197-40.45l28.435-28.436v126.035c0 3.033-2.467 5.5-5.5 5.5h-259c-3.033 0-5.5-2.467-5.5-5.5v-56.002c0-4.142-3.358-7.5-7.5-7.5s-7.5 3.358-7.5 7.5v56.002c0 11.304 9.196 20.5 20.5 20.5h259c11.304 0 20.5-9.196 20.5-20.5v-141.035l141.673-141.673c10.529-10.528 16.327-24.526 16.327-39.416 0-49.169-59.893-74.683-95.159-39.417zm-163.341-29.139v-74.937c8.704 8.776 62.338 62.854 74.315 74.929zm-46.151 317.464 12.808-33.245 20.437 20.437zm48.558-18.708-29.85-29.85 16.455-42.71 27.524 1.073.518 19.694c.105 3.988 3.313 7.196 7.301 7.3l19.747.518 1.286 27.416zm45.882-58.871-16.427-.43-.432-16.434 137.391-137.391 16.862 16.862zm11.503 29.255-.875-18.67 137.372-137.372 9.773 9.773zm171.775-171.774-14.899 14.899-57.62-57.62 14.899-14.899c25.765-25.765 69.553-7.14 69.553 28.81 0 10.883-4.238 21.115-11.933 28.81z"/><path d="m70.5 420.167c-4.142 0-7.5 3.358-7.5 7.5s3.358 7.5 7.5 7.5h67.5c4.142 0 7.5-3.358 7.5-7.5s-3.358-7.5-7.5-7.5z"/><path d="m157.167 378.482c0-4.142-3.358-7.5-7.5-7.5h-79.167c-4.142 0-7.5 3.358-7.5 7.5s3.358 7.5 7.5 7.5h79.167c4.142 0 7.5-3.357 7.5-7.5z"/><path d="m178 329.298c0-4.142-3.358-7.5-7.5-7.5h-100c-4.142 0-7.5 3.358-7.5 7.5s3.358 7.5 7.5 7.5h100c4.142 0 7.5-3.358 7.5-7.5z"/><path d="m213.667 280.114c0-4.142-3.358-7.5-7.5-7.5h-135.667c-4.142 0-7.5 3.358-7.5 7.5s3.358 7.5 7.5 7.5h135.667c4.142 0 7.5-3.358 7.5-7.5z"/><path d="m260.333 230.93c0-4.142-3.358-7.5-7.5-7.5h-182.333c-4.142 0-7.5 3.358-7.5 7.5s3.358 7.5 7.5 7.5h182.333c4.143 0 7.5-3.358 7.5-7.5z"/><path d="m291 181.746c0-4.142-3.358-7.5-7.5-7.5h-213c-4.142 0-7.5 3.358-7.5 7.5s3.358 7.5 7.5 7.5h213c4.142 0 7.5-3.358 7.5-7.5z"/><path d="m199.667 125.062h-129.167c-4.142 0-7.5 3.358-7.5 7.5s3.358 7.5 7.5 7.5h129.167c4.142 0 7.5-3.358 7.5-7.5s-3.358-7.5-7.5-7.5z"/><path d="m173.5 76.5h-103c-4.142 0-7.5 3.358-7.5 7.5s3.358 7.5 7.5 7.5h103c4.142 0 7.5-3.358 7.5-7.5s-3.358-7.5-7.5-7.5z"/></svg>