<?xml version="1.0" encoding="utf-8"?>
<!-- Generator: Adobe Illustrator 22.0.0, SVG Export Plug-In . SVG Version: 6.00 Build 0)  -->
<svg version="1.1" id="Layer_1" xmlns="http://www.w3.org/2000/svg" xmlns:xlink="http://www.w3.org/1999/xlink" x="0px" y="0px"
	 viewBox="0 0 700 250" style="enable-background:new 0 0 700 250;" xml:space="preserve">
<style type="text/css">
	.st0{clip-path:url(#SVGID_2_);}
	.st1{fill:#111111;}
	.st2{fill:#F3A52D;}
	.st3{fill:#7C7E82;}
	.st4{fill:#EA572E;}
	.st5{fill:#FFFFFF;}
	.st6{fill:#3DC7D2;}
	.st7{fill:#E6E6E6;}
	.st8{fill:#2E8D9A;}
	.st9{stroke:#000000;stroke-miterlimit:10;}
</style>
<g>
	<defs>
		<polygon id="SVGID_1_" points="732.8,651 732.8,-104 -36.7,-104 -36.7,273.5 -36.3,273.5 -36.3,651 		"/>
	</defs>
	<clipPath id="SVGID_2_">
		<use xlink:href="#SVGID_1_"  style="overflow:visible;"/>
	</clipPath>
	<g transform="matrix(.993646 0 0 .999944 -50.236507 -122.11779)" class="st0">
		<path class="st1" d="M560,279h-7.6c-0.7,0-1.4-0.3-1.9-0.8c-0.5-0.5-0.8-1.2-0.8-1.9v-3.6c-2-0.5-3.9-1.3-5.7-2.3l-2.6,2.5
			c-1,1-2.8,1-3.9,0l-5.4-5.3c-1.1-1-1.1-2.7,0-3.8l2.6-2.5c-1-1.8-1.8-3.6-2.4-5.6h-3.6c-1.5,0-2.7-1.2-2.7-2.7v-7.4
			c0-1.5,1.2-2.7,2.7-2.7h3.7c0.5-2,1.3-3.8,2.3-5.6l-2.6-2.5c-1.1-1-1.1-2.7,0-3.8l5.4-5.3c1-1,2.8-1,3.9,0l2.6,2.5
			c1.8-1,3.7-1.8,5.7-2.3v-3.5c0-1.5,1.2-2.7,2.7-2.7h7.6c1.5,0,2.7,1.2,2.7,2.7v3.6c2,0.5,3.9,1.3,5.7,2.3l2.6-2.5c1-1,2.8-1,3.9,0
			l5.4,5.3c1.1,1,1.1,2.7,0,3.8l-2.6,2.5c1,1.8,1.8,3.6,2.4,5.6h3.6c1.5,0,2.7,1.2,2.7,2.7v7.4c0,1.5-1.2,2.7-2.7,2.7h-3.7
			c-0.5,2-1.3,3.8-2.3,5.6l2.6,2.5c0.5,0.5,0.8,1.2,0.8,1.9s-0.3,1.4-0.8,1.9l-5.4,5.3c-1,1-2.8,1-3.9,0l-2.6-2.5
			c-1.8,1-3.7,1.8-5.7,2.3v3.5C562.8,277.8,561.5,279,560,279L560,279z M543.6,268.1l0.6,0.4c2,1.2,4.2,2.1,6.6,2.6l0.7,0.2l0,5
			c0,0.2,0.1,0.4,0.2,0.5c0.2,0.1,0.4,0.2,0.6,0.2h7.6c0.4,0,0.8-0.3,0.8-0.8v-5l0.7-0.2c2.3-0.5,4.5-1.5,6.5-2.7l0.7-0.4l3.7,3.6
			c0.3,0.3,0.8,0.3,1.1,0l5.4-5.3c0.1-0.1,0.2-0.3,0.2-0.5c0-0.2-0.1-0.4-0.2-0.6l-3.6-3.5l0.4-0.6c1.2-2,2.1-4.1,2.7-6.4l0.2-0.7
			h5.2c0.4,0,0.8-0.3,0.8-0.8v-7.4c0-0.4-0.4-0.8-0.8-0.8h-5.1l-0.2-0.7c-0.6-2.3-1.5-4.4-2.7-6.4l-0.4-0.6l3.7-3.6
			c0.3-0.3,0.3-0.8,0-1.1l-5.4-5.3c-0.3-0.3-0.8-0.3-1.1,0l-3.6,3.5l-0.6-0.4c-2-1.2-4.2-2.1-6.6-2.6l-0.7-0.2v-5
			c0-0.4-0.4-0.8-0.8-0.8h-7.6c-0.4,0-0.8,0.3-0.8,0.8v5l-0.7,0.2c-2.3,0.5-4.5,1.5-6.5,2.7l-0.6,0.4l-0.5-0.5l-3.1-3
			c-0.3-0.3-0.8-0.3-1.1,0l-5.4,5.3c-0.3,0.3-0.3,0.8,0,1.1l3.6,3.6l-0.4,0.6c-1.2,2-2.1,4.1-2.7,6.4l-0.2,0.7h-5.2
			c-0.4,0-0.8,0.3-0.8,0.8v7.4c0,0.4,0.4,0.8,0.8,0.8h5.1l0.2,0.7c0.6,2.3,1.5,4.4,2.7,6.4l0.4,0.6l-3.7,3.6c-0.3,0.3-0.3,0.8,0,1.1
			l5.4,5.3c0.3,0.3,0.8,0.3,1.1,0L543.6,268.1z"/>
		<path class="st2" d="M556.2,268.6c10.8,0,19.6-8.6,19.6-19.1c0-10.5-8.8-19.1-19.6-19.1s-19.6,8.5-19.6,19.1
			C536.6,260,545.4,268.6,556.2,268.6z"/>
		<path class="st1" d="M556.2,264.9l0-1.9h0c0.9,0,1.8-0.1,2.6-0.2l0.4,1.9C558.2,264.8,557.2,264.9,556.2,264.9z M552.2,264.4
			c-1-0.3-1.9-0.6-2.8-1l0.8-1.7c0.8,0.4,1.6,0.7,2.5,0.9L552.2,264.4z M563,263.4l-0.8-1.7c0.8-0.4,1.6-0.8,2.3-1.3l1.2,1.5
			C564.8,262.4,563.9,262.9,563,263.4L563,263.4z M545.9,261.2c-0.8-0.6-1.5-1.4-2.1-2.1l1.5-1.2c0.6,0.7,1.2,1.3,1.8,1.9
			L545.9,261.2z M568.5,259.1l-1.5-1.2c0.6-0.7,1-1.4,1.5-2.2l1.7,0.9C569.7,257.5,569.2,258.3,568.5,259.1L568.5,259.1z
			 M541.7,255.7c-0.4-0.9-0.7-1.8-1-2.8l1.9-0.4c0.2,0.8,0.5,1.7,0.8,2.5L541.7,255.7z M571.6,252.9l-1.9-0.4
			c0.2-0.8,0.3-1.7,0.3-2.6l1.9,0.1C572,251,571.8,252,571.6,252.9L571.6,252.9z M542.3,249l-1.9-0.1c0-1,0.2-2,0.4-2.9l1.9,0.4
			C542.5,247.3,542.4,248.1,542.3,249L542.3,249z M569.7,246.5c-0.2-0.8-0.5-1.7-0.8-2.5l1.8-0.8c0.4,0.9,0.7,1.8,0.9,2.8
			L569.7,246.5z M543.9,243.2l-1.7-0.9c0.5-0.9,1-1.7,1.7-2.5l1.5,1.2C544.8,241.7,544.3,242.4,543.9,243.2L543.9,243.2z
			 M567.1,241.1c-0.6-0.7-1.2-1.3-1.8-1.9l1.3-1.4c0.8,0.6,1.5,1.4,2.1,2.1L567.1,241.1z M547.9,238.6l-1.2-1.5
			c0.8-0.6,1.7-1.1,2.6-1.5l0.8,1.7C549.4,237.6,548.6,238.1,547.9,238.6L547.9,238.6z M562.3,237.3c-0.8-0.4-1.6-0.7-2.5-0.9
			l0.5-1.8c1,0.3,1.9,0.6,2.8,1L562.3,237.3z M553.6,236.2l-0.4-1.9c1-0.2,2-0.3,3-0.3l0.1,1.9l-0.1,0
			C555.3,235.9,554.4,236,553.6,236.2L553.6,236.2z M139.3,255.1h-7.6c-0.7,0-1.4-0.3-1.9-0.8c-0.5-0.5-0.8-1.2-0.8-1.9v-3.6
			c-2-0.5-3.9-1.3-5.7-2.3l-2.6,2.5c-1,1-2.8,1-3.9,0l-5.4-5.3c-1.1-1-1.1-2.7,0-3.8l2.6-2.5c-1-1.8-1.8-3.6-2.4-5.6h-3.6
			c-1.5,0-2.7-1.2-2.7-2.7v-7.4c0-1.5,1.2-2.7,2.7-2.7h3.7c0.5-2,1.3-3.8,2.3-5.6l-2.6-2.5c-1.1-1-1.1-2.7,0-3.8l5.4-5.3
			c1-1,2.8-1,3.9,0l2.6,2.5c1.8-1,3.7-1.8,5.7-2.3v-3.5c0-1.5,1.2-2.7,2.7-2.7h7.6c1.5,0,2.7,1.2,2.7,2.7v3.6c2,0.5,3.9,1.3,5.7,2.3
			l2.6-2.5c1.1-1,2.8-1,3.9,0l5.4,5.3c1.1,1,1.1,2.7,0,3.8l-2.6,2.5c1,1.8,1.8,3.6,2.4,5.6h3.6c1.5,0,2.7,1.2,2.7,2.7v7.4
			c0,1.5-1.2,2.7-2.7,2.7h-3.7c-0.5,2-1.3,3.8-2.3,5.6l2.6,2.5c0.5,0.5,0.8,1.2,0.8,1.9c0,0.7-0.3,1.4-0.8,1.9l-5.4,5.3
			c-1,1-2.8,1-3.9,0l-2.6-2.5c-1.8,1-3.7,1.8-5.7,2.3v3.5C142,253.9,140.8,255.1,139.3,255.1L139.3,255.1z M122.9,244.2l0.6,0.4
			c2,1.2,4.3,2.1,6.6,2.6l0.7,0.2v5c0,0.4,0.4,0.8,0.8,0.8c0,0,0,0,0,0h7.6c0.4,0,0.8-0.3,0.8-0.8v-5l0.7-0.2
			c2.3-0.5,4.5-1.5,6.5-2.7l0.7-0.4l3.7,3.6c0.3,0.3,0.8,0.3,1.1,0l5.4-5.3c0.2-0.1,0.2-0.3,0.2-0.5c0-0.2-0.1-0.4-0.2-0.6l-3.6-3.5
			l0.4-0.6c1.2-2,2.1-4.1,2.7-6.4l0.2-0.7h5.2c0.4,0,0.8-0.3,0.8-0.8v-7.4c0-0.4-0.4-0.8-0.8-0.8h-5.1l-0.2-0.7
			c-0.6-2.3-1.5-4.4-2.7-6.4l-0.4-0.6l3.7-3.6c0.3-0.3,0.3-0.8,0-1.1l-5.4-5.3c-0.3-0.3-0.8-0.3-1.1,0l-3.6,3.5l-0.6-0.4
			c-2-1.2-4.3-2.1-6.6-2.6l-0.7-0.2v-5c0-0.4-0.4-0.8-0.8-0.8h-7.6c-0.4,0-0.8,0.3-0.8,0.8v5l-0.7,0.2c-2.3,0.6-4.5,1.5-6.5,2.7
			l-0.6,0.4l-0.5-0.5l-3.1-3c-0.3-0.3-0.8-0.3-1.1,0l-5.4,5.3c-0.3,0.3-0.3,0.8,0,1.1l3.6,3.5l-0.4,0.6c-1.2,2-2.1,4.1-2.7,6.4
			l-0.2,0.7h-5.2c-0.4,0-0.8,0.3-0.8,0.8v7.4c0,0.4,0.4,0.8,0.8,0.8h5.1l0.2,0.7c0.6,2.3,1.5,4.4,2.7,6.4l0.4,0.6l-3.7,3.6
			c-0.3,0.3-0.3,0.8,0,1.1l5.4,5.3c0.3,0.3,0.8,0.3,1.1,0L122.9,244.2z"/>
		<path class="st3" d="M135.4,244.7c10.8,0,19.6-8.6,19.6-19.1s-8.8-19.1-19.6-19.1c-10.8,0-19.6,8.5-19.6,19.1
			S124.6,244.7,135.4,244.7z"/>
		<path class="st1" d="M135.4,241l0-1.9h0c0.9,0,1.8-0.1,2.6-0.2l0.4,1.9C137.5,240.9,136.4,241,135.4,241L135.4,241z M131.4,240.5
			c-1-0.3-1.9-0.6-2.8-1l0.8-1.7c0.8,0.4,1.6,0.7,2.5,0.9L131.4,240.5z M142.3,239.5l-0.8-1.7c0.8-0.4,1.6-0.8,2.3-1.3l1.2,1.5
			C144.1,238.5,143.2,239,142.3,239.5L142.3,239.5z M125.2,237.3c-0.8-0.6-1.5-1.4-2.1-2.1l1.5-1.2c0.6,0.7,1.2,1.3,1.8,1.9
			L125.2,237.3z M147.8,235.2l-1.5-1.2c0.6-0.7,1-1.4,1.5-2.2l1.7,0.9C149,233.6,148.4,234.4,147.8,235.2L147.8,235.2z M121,231.8
			c-0.4-0.9-0.7-1.8-1-2.8l1.9-0.4c0.2,0.8,0.5,1.7,0.8,2.5L121,231.8z M150.8,229l-1.9-0.4c0.2-0.8,0.3-1.7,0.3-2.6l1.9,0.1
			C151.2,227.1,151.1,228.1,150.8,229L150.8,229z M121.6,225.1l-1.9-0.1c0-1,0.2-2,0.4-2.9l1.9,0.4
			C121.7,223.4,121.6,224.2,121.6,225.1L121.6,225.1z M149,222.6c-0.2-0.8-0.5-1.7-0.8-2.5l1.8-0.8c0.4,0.9,0.7,1.8,0.9,2.8
			L149,222.6z M123.2,219.3l-1.7-0.9c0.5-0.9,1-1.7,1.7-2.5l1.5,1.2C124.1,217.8,123.6,218.5,123.2,219.3L123.2,219.3z M146.3,217.2
			c-0.6-0.7-1.2-1.3-1.8-1.9l1.3-1.4c0.8,0.6,1.5,1.4,2.1,2.1L146.3,217.2z M127.2,214.7l-1.2-1.5c0.8-0.6,1.7-1.1,2.6-1.5l0.8,1.7
			C128.6,213.8,127.9,214.2,127.2,214.7L127.2,214.7z M141.5,213.4c-0.8-0.4-1.6-0.7-2.5-0.9l0.5-1.8c1,0.3,1.9,0.6,2.8,1
			L141.5,213.4z M132.8,212.3l-0.4-1.9c1-0.2,2-0.3,3-0.3l0.1,1.9h-0.1C134.6,212,133.7,212.1,132.8,212.3L132.8,212.3z"/>
		<path class="st4" d="M511.4,276.9h22.4v91.6h-22.4V276.9z"/>
		<ellipse class="st3" cx="522.6" cy="354" rx="5.1" ry="5"/>
		<path class="st5" d="M522.6,360.4c-3.6,0-6.6-2.9-6.6-6.4c0-3.5,3-6.4,6.6-6.4c3.6,0,6.6,2.9,6.6,6.4
			C529.2,357.5,526.2,360.4,522.6,360.4z M522.6,350.4c-2,0-3.7,1.6-3.7,3.6c0,2,1.7,3.6,3.7,3.6c2,0,3.7-1.6,3.7-3.6
			C526.3,352,524.6,350.4,522.6,350.4z"/>
		<path class="st3" d="M533.8,276.9h22.4v91.6h-22.4V276.9z"/>
		<path class="st6" d="M556.2,276.9h22.4v91.6h-22.4V276.9z"/>
		<g>
			<g>
				<path id="C" class="st1" d="M577.6,296.3v-18.5h-20.5v89.7h20.5v-38.4h1.9v40.3h-24.4v-93.4h24.4v20.4H577.6z"/>
			</g>
			<path class="st1" d="M577.6,305.3h1.9v9.2h-1.9V305.3z"/>
			<g>
				<path id="C_1_" class="st1" d="M555.2,296.3v-18.5h-20.5v89.7h20.5v-38.4h1.9v40.3h-24.4v-93.4h24.4v20.4H555.2z"/>
			</g>
			<path class="st1" d="M555.2,305.3h1.9v9.2h-1.9V305.3z M532.8,367.5v-89.7h-20.5v5.3h-1.9v-7.2h24.4v93.4h-24.4v-53.5h1.9v51.6
				H532.8z M510.4,284.9h1.9v23.5h-1.9V284.9z"/>
		</g>
		<ellipse class="st3" cx="545" cy="353.1" rx="5.1" ry="5"/>
		<path class="st5" d="M545,359.6c-3.6,0-6.6-2.9-6.6-6.4c0-3.5,3-6.4,6.6-6.4c3.6,0,6.6,2.9,6.6,6.4
			C551.6,356.7,548.6,359.6,545,359.6z M545,349.5c-2,0-3.7,1.6-3.7,3.6c0,2,1.7,3.6,3.7,3.6c2,0,3.7-1.6,3.7-3.6
			C548.7,351.2,547,349.5,545,349.5z"/>
		<ellipse class="st3" cx="567.4" cy="353.1" rx="5.1" ry="5"/>
		<path class="st5" d="M567.4,359.6c-3.6,0-6.6-2.9-6.6-6.4c0-3.5,3-6.4,6.6-6.4c3.6,0,6.6,2.9,6.6,6.4
			C574,356.7,571,359.6,567.4,359.6z M567.4,349.5c-2,0-3.7,1.6-3.7,3.6c0,2,1.7,3.6,3.7,3.6c2,0,3.7-1.6,3.7-3.6
			C571.1,351.2,569.4,349.5,567.4,349.5z"/>
		<path class="st2" d="M482.3,157.6c3,0,5.7,0.9,8,2.4c1.5-1.7,3.6-2.9,6-3.3c-0.1-0.7-0.2-1.3-0.2-2c0-7.6,6.3-13.7,14-13.7
			c7.8,0,14,6.1,14,13.7c0,1.1-0.1,2.2-0.4,3.2c1-0.2,2.1-0.3,3.2-0.3c7.7,0,14,6.3,14,13.8h-72.8
			C468.3,163.9,474.5,157.6,482.3,157.6L482.3,157.6z"/>
		<path class="st1" d="M725.3,367.5h13.7v1.9h-13.7V367.5z M82.7,367.5h348.2v1.9H82.7L82.7,367.5z M62.6,367.5h10v1.9h-10
			L62.6,367.5z M439,367.5h279.5v1.9H439L439,367.5z"/>
		<g>
			<path class="st7" d="M370,331.4h61.6v29.3H370V331.4z"/>
			<path class="st7" d="M327.1,356.2h147.2v11.3H327.1V356.2z"/>
			<path class="st7" d="M284.6,180.1H517c6.3,0,11.4,5,11.4,11.2v129c0,6.1-5.1,11.2-11.4,11.2H284.6c-6.3,0-11.4-5-11.4-11.2v-129
				C273.2,185.1,278.4,180.1,284.6,180.1L284.6,180.1z"/>
		</g>
		<path class="st1" d="M385,318.3h23v1.9h-23V318.3z M517,332.4h-95.7v-1.9H517c5.8,0,10.5-4.6,10.5-10.2v-129
			c0-5.6-4.7-10.2-10.5-10.2H284.7c-5.8,0-10.5,4.6-10.5,10.2v129c0,5.6,4.7,10.2,10.5,10.2h98.1v1.9h-98.2
			c-6.8,0-12.4-5.4-12.4-12.1v-129c0-6.7,5.6-12.1,12.4-12.1H517c6.8,0,12.4,5.4,12.4,12.1v129C529.4,326.9,523.8,332.4,517,332.4
			L517,332.4z M397.8,330.5H414v1.9h-16.2L397.8,330.5z"/>
		<path class="st3" d="M282.4,189.6h236.8v119H282.4V189.6z"/>
		<g>
			<path class="st1" d="M351.5,343l5.2,5.1l-1.4,1.3l-5.2-5.1L351.5,343z"/>
			<path class="st1" d="M354.3,341.8l-5.5,5.3l-2-7.3L354.3,341.8z M327.1,354.5h76v1.9h-76V354.5z M425.7,354.5h11.7v1.9h-11.7
				L425.7,354.5z"/>
		</g>
		<path class="st7" d="M399,177.3v-26.6c-24.8,0.5-47.3,10.5-63.7,26.4l19,18C366.4,184.2,382.5,177.3,399,177.3L399,177.3z"/>
		<path class="st1" d="M388.2,179.2l-0.4-1.9c3.4-0.6,6.8-1,10.2-1v-25.7h1.9v27.6l-1,0C395.4,178.2,391.8,178.6,388.2,179.2
			L388.2,179.2z M354.3,196.4l-19.7-18.7l1.4-1.4l18.3,17.4c7.5-6.6,16.4-11.6,25.9-14.5l0.6,1.8c-9.4,2.9-18.4,8-25.8,14.7
			L354.3,196.4z"/>
		<path class="st7" d="M462.9,308.5c10.9-9.5,19.4-21.5,24.7-35.1l-27.6-7.8c-9.5,21.5-32.1,37.4-56.1,39.2v3.7H462.9z"/>
		<path class="st6" d="M403.9,150.7v26.7c34.4,2.4,59.4,30.6,60.9,63.7c0.3,6.9-0.8,13.7-3,20l27.4,7.8c2.9-8.7,4.5-18,4.5-27.7
			C493.8,192.2,453.8,152.3,403.9,150.7L403.9,150.7z M338.7,308.5H399v-3.5c-36.6-0.1-63.7-29.3-65.3-63.9
			c-0.7-16.2,6.1-31.3,17.1-42.7l-18.9-18c-14.9,16-23.9,37.3-24,60.6C307.9,267.9,319.8,291.9,338.7,308.5L338.7,308.5z"/>
		<path class="st7" d="M334.1,251.9h11.3v36h-11.3V251.9z"/>
		<path class="st5" d="M356.6,238.3h11.3v49.6h-11.3V238.3z"/>
		<path class="st6" d="M379.2,247.2h11.3v40.7h-11.3V247.2z"/>
		<path class="st7" d="M401.8,228.9H413v59h-11.3V228.9z"/>
		<path class="st6" d="M424.3,212.4h11.3v75.5h-11.3V212.4z"/>
		<path class="st5" d="M446.9,203.2h11.3v84.7h-11.3V203.2z"/>
		<path class="st1" d="M346.3,288.8h-13.2v-37.9h13.2L346.3,288.8z M335,286.9h9.3v-34.1H335V286.9z M414,288.8h-13.2v-60.9H414
			V288.8z M402.7,286.9h9.3v-57.1h-9.3V286.9z M361.2,218.7l-29.5,20.4l-1.1-1.5l30-20.7h38.1l39.1-25.9l1.1,1.6l-39.6,26.2
			L361.2,218.7z M279.6,307.6h242.5v1.9H279.6L279.6,307.6z"/>
		<path class="st5" d="M430.2,187.5l9.7,12.9l6.6-14.7L430.2,187.5z"/>
		<path class="st1" d="M250,154.3h1.9V173H250V154.3z M243,158.5h1.9V173H243V158.5z M236.1,162.5h1.9V173h-1.9V162.5z M229.2,166.5
			h1.9v6.6h-1.9V166.5z M620.5,244.9h1.9v18.8h-1.9V244.9z M613.6,249h1.9v14.6h-1.9V249z M606.7,253.1h1.9v10.5h-1.9V253.1z
			 M599.8,257h1.9v6.6h-1.9V257z"/>
		<path class="st2" d="M169.3,308.2l0,53H89.4l-0.1-52.7l40-35.4L169.3,308.2z"/>
		<path class="st1" d="M129.4,274.4L90,309.3l-1.3-1.4l40.6-36l40.6,35.6l-1.3,1.4L129.4,274.4z"/>
		<path class="st5" d="M99.3,295h60.6v57.5H99.3V295z"/>
		<g>
			<path class="st2" d="M169.4,368.3l-28.3-25.9h-23.3l-28.4,25.9L169.4,368.3z"/>
			<path class="st2" d="M117.8,342.5l-28.4,25.9v-53.6L117.8,342.5z M141.1,342.5l28.3,25.9v-53.6L141.1,342.5z"/>
		</g>
		<g>
			<path class="st1" d="M89.4,369.3c-0.5,0-1-0.4-1-0.9c0-0.3,0.1-0.5,0.3-0.7l28.4-25.9c0.2-0.2,0.4-0.3,0.7-0.3h23.3
				c0.2,0,0.5,0.1,0.7,0.3l28.3,25.9c0.4,0.4,0.4,1,0,1.3c-0.2,0.2-0.4,0.3-0.7,0.3L89.4,369.3z M118.2,343.4l-26.3,24l75,0
				l-26.2-24L118.2,343.4L118.2,343.4z"/>
			<path class="st1" d="M97.2,321.3l21,20.5l-1.4,1.3l-21-20.5L97.2,321.3z M152.8,329.7l1.4,1.3l-12.4,12.1l-1.4-1.3L152.8,329.7z
				 M88.4,323.7h1.9v17.1h-1.9V323.7z M130.5,303.7h3.5v1.9h-3.5V303.7z M120.8,303.7h3.5v1.9h-3.5V303.7z M111.1,303.7h3.5v1.9
				h-3.5V303.7z M111.1,309.6h36.9v1.9h-36.9L111.1,309.6z M111.1,315.5h36.9v1.9h-36.9L111.1,315.5z M111.1,321.4h14.1v1.9h-14.1
				L111.1,321.4z M179.9,246.4h53.9v8.4h14.6c0.3-4.7,4.4-8.4,9.2-8.4h0.2c5.1,0,9.2,4,9.3,9v113.8h-87.2V246.4z M265.2,255.5
				c0-3.9-3.3-7.1-7.3-7.1h-0.2c-4,0-7.3,3.2-7.3,7.1v1.2h-18.5v-8.4h-50.1v119.1h83.3V255.5z"/>
		</g>
		<path class="st5" d="M258.1,247.4c-3.7,0-8.8,2.1-8.8,8.9l-0.1,103.4c0,4.8-2.1,8.7-8,8.7l-72.4,0l0.1-112.1c0-4.9,5-8.9,11.1-8.9
			L258.1,247.4z"/>
		<path class="st1" d="M169.9,275.8l0,8l-1.9,0l0-8L169.9,275.8z M167.9,369.4l73.4,0c5.7,0,9-3.5,9-9.7l0.1-103.4
			c0-7.6,6.5-8,7.8-8v-1.9h-78.1c-6.7,0-12.1,4.4-12.1,9.8l0,12.3l1.9,0l0-12.3c0-4.4,4.6-8,10.2-8h72c-2.2,1.6-3.7,4.2-3.7,8
			l-0.1,103.4c0,3.6-1.2,7.8-7,7.8l-71.5,0l0-77.6l-1.9,0L167.9,369.4z"/>
		<path class="st7" d="M150,317.6v41.5c0,0-0.9,9.3,12.5,9.3l78.1,0c-1.1,0-8.3-0.6-8.3-9.3v-31.4c0,0,1-10.1-9.8-10.1L150,317.6
			L150,317.6z"/>
		<path class="st5" d="M240.8,368.4h-0.2H240.8z"/>
		<g>
			<path class="st1" d="M151.4,365.6c-2.7-2.9-2.4-6.4-2.4-6.5v-42.5h73.5c3.5,0,6.2,1,8.1,3c3,3.3,2.6,7.9,2.6,8v31.4
				c0,7.7,6.1,8.3,7.3,8.3l0,1.9l-78.1,0C157.5,369.4,153.7,368.1,151.4,365.6L151.4,365.6z M231.3,359.1l0-31.5c0,0,0.4-4-2.1-6.7
				c-1.5-1.6-3.7-2.4-6.7-2.4h-71.6l0,40.7c0,0-0.2,2.8,1.9,5.1c1.9,2.1,5.2,3.1,9.6,3.1l72.5,0C233,366,231.3,363.5,231.3,359.1
				L231.3,359.1z"/>
			<path class="st1" d="M240.7,369.4l0.1,0l0-1.9h-0.2l0,1.9L240.7,369.4z"/>
		</g>
		<path class="st5" d="M215.5,328.9c-3.1-10,7.1-11.3,7.1-11.3H150c-10.5,0-11.4,6.4-10.5,11.3H215.5z"/>
		<path class="st1" d="M173.9,328h6.1v1.9h-6.1V328z M138.7,329.9h29.6V328h-27.9c-0.4-2.9,0.1-5.1,1.4-6.7c1.5-1.8,4.3-2.7,8.2-2.7
			h67.6c-0.9,0.6-1.7,1.3-2.3,2.3c-1.3,1.9-1.6,4.3-1,7.1h-24.6v1.9h27.2l-0.4-1.2c-0.9-2.8-0.7-5,0.4-6.8c1.9-2.8,5.8-3.3,5.8-3.4
			l-0.1-1.9H150c-4.5,0-7.8,1.1-9.7,3.4c-1.8,2.2-2.4,5.2-1.7,9L138.7,329.9z"/>
		<path class="st4" d="M197.1,267.9l-7.5-5.2l-7.6-5.2l-7,4.8V305h67.6v-49.2l-7.5,6.9l-7.8-5.3l-7.5,5.3h-7.5l-7.6-5.2L197.1,267.9
			z"/>
		<path class="st6" d="M242.7,268.1l-7.4,5.4l-7.8-10.9l-9,12.1l-14.4-6.6l-6.9,11.4l-7.6-11.6l-7.7,5.4l-6.9-4.7V305h67.6
			L242.7,268.1z"/>
		<path class="st2" d="M242.7,282.8l-7.5,3.6l-7.6-7.7l-7.5,10.6l-7.7-5.3L208,293l-16.3,2.1l-9.7-11.2l-7,4.9V305h67.6L242.7,282.8
			z"/>
		<path class="st1" d="M154.4,350l-0.1-1h13.1v-12.8l1,0.1c6.9,0.4,12.4,6.1,12.4,12.9c0,7.1-5.9,12.9-13.2,12.9
			C160.7,362,154.9,356.7,154.4,350L154.4,350z M169.4,350.8h-12.9c0.9,5.3,5.6,9.3,11.1,9.3c6.2,0,11.3-4.9,11.3-11
			c0-5.4-4-10-9.5-10.9L169.4,350.8z"/>
		<path class="st4" d="M166.8,347.8V338c-3.9,0.3-7.3,2.5-9.1,5.6L166.8,347.8z"/>
		<path class="st8" d="M156.2,348.3h7.8l-7-3.3C156.5,346.1,156.3,347.2,156.2,348.3L156.2,348.3z"/>
		<path class="st1" d="M198.8,339h3.6v1.9h-3.6V339z M208.9,339h3.6v1.9h-3.6V339z M218.9,339h3.6v1.9h-3.6V339z M184.2,345.2h38.3
			v1.9h-38.3V345.2z M184.2,351.3h38.3v1.9h-38.3V351.3z M207.9,357.3h14.7v1.9h-14.7V357.3z"/>
		<path class="st4" d="M489.5,314.4c-8.9,0-18.6,6.7-18.6,17.9c0,17,18.6,35,18.6,35s18.6-18.3,18.6-35
			C508.2,321.1,497.9,314.4,489.5,314.4z M494.1,340c-1.2,0.7-2.8,1.2-4.6,1.2c-2.5,0-4.5-0.9-5.9-2.2c-5.2-4.7-3.2-15.6,6-15.6
			C499.5,323.4,501.1,336.1,494.1,340L494.1,340z"/>
		<path class="st1" d="M489.6,347c-0.4,0-0.9,0-1.3-0.1l0.2-1.9c0.9,0.1,1.8,0.1,2.7,0l0.2,1.9C490.8,346.9,490.2,347,489.6,347
			L489.6,347z M484.3,346c-1-0.4-1.9-0.8-2.8-1.4l1-1.6c0.8,0.5,1.6,0.9,2.4,1.2L484.3,346z M495.4,345.8l-0.8-1.7
			c0.8-0.3,1.6-0.8,2.4-1.3l1.1,1.6C497.3,344.9,496.4,345.4,495.4,345.8L495.4,345.8z M478.3,342c-0.7-0.8-1.3-1.6-1.8-2.5l1.7-0.9
			c0.4,0.8,1,1.5,1.6,2.2L478.3,342z M501.2,341.6l-1.5-1.2c0.6-0.7,1.1-1.4,1.5-2.2l1.7,0.9C502.5,340,501.9,340.8,501.2,341.6
			L501.2,341.6z M475,335.8c-0.2-1-0.4-2-0.4-3l1.9-0.1c0,0.9,0.2,1.8,0.4,2.6L475,335.8z M504.4,335.3l-1.9-0.4
			c0.2-0.9,0.3-1.7,0.3-2.6l1.9-0.1v0.1C504.7,333.3,504.6,334.3,504.4,335.3L504.4,335.3z M476.8,329.2l-1.9-0.4
			c0.2-1,0.6-1.9,1-2.9l1.7,0.8C477.3,327.5,477,328.4,476.8,329.2L476.8,329.2z M502.2,328.7c-0.2-0.9-0.6-1.7-1-2.5l1.7-0.9
			c0.5,0.9,0.9,1.8,1.2,2.8L502.2,328.7z M479.7,323.8l-1.5-1.2c0.7-0.8,1.5-1.5,2.3-2.1l1.2,1.5C481,322.5,480.3,323.1,479.7,323.8
			z M499.1,323.4c-0.6-0.6-1.3-1.2-2.1-1.7l1.1-1.6c0.9,0.6,1.7,1.2,2.4,2L499.1,323.4z M484.9,320.3l-0.7-1.8c1-0.4,2-0.6,3-0.8
			l0.3,1.9C486.6,319.7,485.7,320,484.9,320.3L484.9,320.3z M493.8,320.1c-0.9-0.3-1.7-0.5-2.7-0.6l0.2-1.9c1,0.1,2.1,0.3,3,0.7
			L493.8,320.1z M274.9,166.7l-1.4-1.3l3.4-3.3c0.7-0.7,1.6-1.1,2.6-1.1c1,0,1.9,0.4,2.6,1.1l1.3,1.3c0.3,0.3,0.8,0.5,1.3,0.5
			c0.5,0,1-0.2,1.3-0.6l1.2-1.3c0.7-0.8,1.7-1.2,2.8-1.2c1,0,2.1,0.4,2.8,1.2l1.3,1.4c0.3,0.4,0.8,0.6,1.4,0.6c0.5,0,1-0.2,1.3-0.6
			l1-1.2c0.7-0.8,1.7-1.3,2.8-1.3c1.1,0,2.1,0.4,2.8,1.2l1.3,1.4c0.4,0.4,0.9,0.6,1.4,0.6c0.5,0,1-0.2,1.3-0.6l1-1.1
			c0.7-0.8,1.6-1.3,2.7-1.3c1.1-0.1,2.1,0.3,2.8,1.1l3.6,3.5l-1.4,1.3l-3.6-3.5c-0.4-0.4-0.8-0.5-1.4-0.5c-0.5,0-1,0.3-1.3,0.6
			l-1,1.1c-0.7,0.8-1.7,1.3-2.8,1.3c-1.1,0-2.1-0.4-2.8-1.2l-1.3-1.4c-0.3-0.4-0.8-0.6-1.4-0.6c-0.5,0-1,0.2-1.3,0.6l-1,1.2
			c-0.7,0.8-1.7,1.3-2.8,1.3c-1.1,0-2.1-0.4-2.8-1.2l-1.3-1.4c-0.3-0.4-0.9-0.6-1.3-0.6c-0.5,0-1,0.2-1.3,0.6l-1.2,1.3
			c-0.7,0.7-1.7,1.2-2.7,1.2c-1,0-2-0.4-2.7-1.1l-1.3-1.3c-0.3-0.3-0.8-0.5-1.3-0.5c-0.5,0-0.9,0.2-1.3,0.5L274.9,166.7z"/>
		<path class="st6" d="M352.4,144.1h-2c-0.3-1.1-0.7-2.1-1.3-3.1l1.4-1.4c0.3-0.3,0.3-0.8,0-1.1c0,0,0,0,0,0L348,136
			c-0.3-0.3-0.8-0.3-1.2,0l-1.4,1.4c-1-0.6-2.1-1-3.2-1.3v-2c0-0.4-0.4-0.8-0.8-0.8h-3.5c-0.5,0-0.8,0.4-0.8,0.8v2
			c-1.1,0.3-2.2,0.7-3.2,1.3l0,0l-1.4-1.4c-0.3-0.3-0.8-0.3-1.2,0l-2.5,2.4c-0.3,0.3-0.3,0.8,0,1.1c0,0,0,0,0,0l1.4,1.4
			c-0.6,1-1,2-1.3,3.1h-2c-0.5,0-0.8,0.4-0.8,0.8v3.4c0,0.4,0.4,0.8,0.8,0.8h2c0.3,1.1,0.7,2.1,1.3,3.1l0,0l-1.4,1.4
			c-0.3,0.3-0.3,0.8,0,1.1l2.5,2.4c0.3,0.3,0.8,0.3,1.1,0c0,0,0,0,0,0l1.4-1.4c1,0.6,2.1,1,3.2,1.3v2c0,0.4,0.4,0.8,0.8,0.8h3.5
			c0.5,0,0.8-0.4,0.8-0.8v-2c1.1-0.3,2.2-0.7,3.2-1.3l0,0l1.4,1.4c0.3,0.3,0.8,0.3,1.1,0c0,0,0,0,0,0l2.5-2.4c0.3-0.3,0.3-0.8,0-1.1
			c0,0,0,0,0,0l-1.4-1.4c0.6-1,1-2,1.3-3.1h2c0.5,0,0.8-0.4,0.8-0.8v-3.4C353.2,144.4,352.9,144.1,352.4,144.1L352.4,144.1z"/>
		<path class="st1" d="M339.7,154.2l0-1.9h0c0.9,0,1.7-0.2,2.5-0.6l0.8,1.7C342,154,340.9,154.2,339.7,154.2L339.7,154.2z
			 M335.3,152.9c-1-0.6-1.8-1.5-2.4-2.5l1.7-0.9c0.4,0.7,1,1.4,1.8,1.9L335.3,152.9z M346.4,150.5l-1.7-1c0.4-0.7,0.7-1.6,0.8-2.4
			l1.9,0.2C347.4,148.4,347,149.5,346.4,150.5L346.4,150.5z M333.8,146.2l-1.9-0.1c0.1-1.1,0.4-2.2,1-3.2l1.7,0.9
			C334.2,144.5,333.9,145.3,333.8,146.2L333.8,146.2z M344.8,143.8c-0.4-0.7-1-1.4-1.8-1.9l1.1-1.5c1,0.7,1.8,1.5,2.3,2.5
			L344.8,143.8z M337.2,141.4l-0.8-1.7c1.1-0.5,2.2-0.8,3.4-0.8l0.1,0.9l-0.1,0.9C338.8,140.9,338,141.1,337.2,141.4L337.2,141.4z
			 M594.9,229.4h18.4v1.9h-18.4V229.4z M238,195.2h18.4v1.9H238V195.2z M542.4,200.9h18.4v1.9h-18.4V200.9z M550.6,149.8H569v1.9
			h-18.4V149.8z M143.1,266.1h15.6v1.9h-15.6V266.1z M644.6,203h32.5v1.9h-32.5V203z M632,181.4h18.4v1.9H632V181.4z M653.9,181.4
			h8.2v1.9h-8.2V181.4z M669.8,186.3c-2.3,0-4.1-1.8-4.1-4l0,0c0-2.2,1.8-4,4.1-4c2.3,0,4.1,1.8,4.1,4
			C673.9,184.5,672.1,186.3,669.8,186.3z M669.8,180.2c-1.2,0-2.2,1-2.2,2.1c0,1.2,1,2.1,2.2,2.1c1.2,0,2.2-1,2.2-2.1
			C672,181.1,671,180.2,669.8,180.2z M178.4,229.2h18.4v1.9h-18.4V229.2z M200.3,229.2h8.2v1.9h-8.2V229.2z M216.2,234.2
			c-2.3,0-4.1-1.8-4.1-4c0-2.2,1.8-4,4.1-4c2.3,0,4.1,1.8,4.1,4C220.3,232.4,218.5,234.2,216.2,234.2L216.2,234.2z M216.2,228
			c-1.2,0-2.2,1-2.2,2.1c0,1.2,1,2.1,2.2,2.1s2.2-1,2.2-2.1C218.4,229,217.4,228,216.2,228z M393.1,140.9h18.4v1.9h-18.4V140.9z
			 M381.3,140.9h8.2v1.9h-8.2V140.9z M373.6,145.8c-2.3,0-4.1-1.8-4.1-4c0-2.2,1.8-4,4.1-4l0,0c2.3,0,4.1,1.8,4.1,4
			C377.7,144,375.9,145.8,373.6,145.8z M373.6,139.7c-1.2,0-2.2,1-2.2,2.1c0,1.2,1,2.1,2.2,2.1c1.2,0,2.2-1,2.2-2.1
			S374.8,139.7,373.6,139.7z M702.5,348.1h18.4v1.9h-18.4V348.1z M724.5,348.1h8.2v1.9h-8.2V348.1z M740.4,353.1
			c-2.3,0-4.1-1.8-4.1-4c0,0,0,0,0,0c0-2.2,1.8-4,4.1-4c0,0,0,0,0,0c2.3,0,4.1,1.8,4.1,4C744.5,351.3,742.7,353.1,740.4,353.1
			C740.4,353.1,740.4,353.1,740.4,353.1L740.4,353.1z M740.4,347c-1.2,0-2.2,1-2.2,2.1c0,1.2,1,2.1,2.2,2.1s2.2-1,2.2-2.1
			S741.6,347,740.4,347z M424.4,144.5l7.5-5.7l6.8,5.2l6.7-5.7l7.1,5.8l6.5-5.9l7.3,5.9l6.3-5.8l8.1,6.1l-1.2,1.5l-6.8-5.1l-6.4,5.8
			l-7.3-5.9l-6.5,5.9l-7.1-5.9l-6.7,5.7l-6.9-5.2l-6.3,4.8L424.4,144.5z M549.3,190.3c-0.7,0-1.4-0.3-2-0.8l-2-1.9
			c-1.1-1.1-1.1-2.8,0-3.8l2-1.9c1.1-1,2.8-1,3.9,0l2,1.9c1.1,1.1,1.1,2.8,0,3.8l-2,1.9C550.8,190.1,550,190.3,549.3,190.3z
			 M549.3,183c-0.2,0-0.4,0.1-0.6,0.2l-2,1.9c-0.3,0.3-0.3,0.8,0,1.1l2,1.9c0.3,0.3,0.8,0.3,1.2,0l2-1.9c0.3-0.3,0.3-0.8,0-1.1
			l-2-1.9C549.7,183.1,549.5,183,549.3,183z M721.5,303.9c-0.7,0-1.4-0.3-2-0.8l-2-1.9c-1.1-1.1-1.1-2.8,0-3.8l2-1.9
			c1-1,2.9-1,3.9,0l2,1.9c1.1,1.1,1.1,2.8,0,3.8l-2,1.9C722.9,303.6,722.2,303.9,721.5,303.9z M721.5,296.5c-0.2,0-0.4,0.1-0.6,0.2
			l-2,1.9c-0.3,0.3-0.3,0.8,0,1.1l2,1.9c0.3,0.3,0.9,0.3,1.2,0l2-1.9c0.3-0.3,0.3-0.8,0-1.1l-2-1.9
			C721.9,296.6,721.7,296.5,721.5,296.5L721.5,296.5z M643.4,258.8c-0.7,0-1.4-0.3-2-0.8l-2-1.9c-1.1-1.1-1.1-2.7,0-3.8l2-1.9
			c1.1-1,2.8-1,3.9,0l2,1.9c1.1,1.1,1.1,2.8,0,3.8l-2,1.9C644.8,258.5,644.1,258.8,643.4,258.8z M643.4,251.5
			c-0.2,0-0.4,0.1-0.6,0.2l-2,1.9c-0.3,0.3-0.3,0.8,0,1.1l2,1.9c0.3,0.3,0.8,0.3,1.2,0l2-1.9c0.3-0.3,0.3-0.8,0-1.1l-2-1.9
			C643.8,251.6,643.6,251.5,643.4,251.5L643.4,251.5z M596.7,286c-0.7,0-1.4-0.3-1.9-0.8l-2-1.9c-1.1-1-1.1-2.8,0-3.8l2-1.9
			c1.1-1,2.8-1,3.9,0l2,1.9c1.1,1.1,1.1,2.7,0,3.8l-2,1.9C598.2,285.7,597.5,286,596.7,286z M596.7,278.7c-0.2,0-0.4,0.1-0.6,0.2
			l-2,1.9c-0.3,0.3-0.3,0.8,0,1.1l2,1.9c0.3,0.3,0.8,0.3,1.2,0l2-1.9c0.3-0.3,0.3-0.8,0-1.1l-2-1.9
			C597.2,278.8,597,278.7,596.7,278.7z M95.1,268.9c-0.7,0-1.4-0.3-1.9-0.8l-2-1.9c-0.5-0.5-0.8-1.2-0.8-1.9c0-0.7,0.3-1.4,0.8-1.9
			l2-1.9c1.1-1,2.8-1,3.9,0l2,1.9c1.1,1,1.1,2.8,0,3.8l-2,1.9C96.6,268.6,95.9,268.9,95.1,268.9L95.1,268.9z M95.1,261.6
			c-0.2,0-0.4,0.1-0.6,0.2l-2,1.9c-0.2,0.2-0.2,0.4-0.2,0.6c0,0.2,0.1,0.4,0.2,0.6l2,1.9c0.3,0.3,0.8,0.3,1.2,0l2-1.9
			c0.3-0.3,0.3-0.8,0-1.1l-2-1.9C95.6,261.7,95.4,261.6,95.1,261.6L95.1,261.6z M67.6,337.9c-0.7,0-1.4-0.3-1.9-0.8l-2-1.9
			c-1.1-1.1-1.1-2.8,0-3.8l2-1.9c1-1,2.9-1,3.9,0l2,1.9c1.1,1,1.1,2.8,0,3.8l-2,1.9C69,337.6,68.3,337.9,67.6,337.9L67.6,337.9z
			 M67.6,330.6c-0.2,0-0.4,0.1-0.6,0.2l-2,1.9c-0.3,0.3-0.3,0.8,0,1.1l2,1.9c0.3,0.3,0.8,0.3,1.2,0l2-1.9c0.3-0.3,0.3-0.8,0-1.1
			l-2-1.9C68,330.7,67.8,330.6,67.6,330.6z"/>
		<path class="st4" d="M591.5,201.3c11.1,0,20.1-8.8,20.1-19.6s-9-19.6-20.1-19.6s-20.1,8.8-20.1,19.6
			C571.4,192.5,580.4,201.3,591.5,201.3z"/>
		<g>
			<path class="st1" d="M591.6,206.9c-0.6,0-1.3,0-1.9-0.1c-6.9-0.5-13.2-3.6-17.8-8.7c-4.5-5.1-6.8-11.7-6.3-18.4
				c0.5-6.7,3.7-13,9-17.3c5.2-4.4,12-6.5,18.8-6.1c6.9,0.5,13.3,3.6,17.7,8.7c4.5,5.1,6.8,11.7,6.3,18.4c-0.3,3.5-1.2,6.8-2.8,9.8
				c-1,1.9-2.3,3.6-3.7,5.2l-0.5,0.5l0,0c-0.6,0.6-1.2,1.2-1.9,1.8c-0.8,0.7-1.7,1.3-2.6,1.9C601.6,205.5,596.7,206.9,591.6,206.9
				L591.6,206.9z M591.5,158.2c-5.7,0-11.3,2-15.6,5.7c-4.9,4.1-7.8,9.8-8.3,16c-0.5,6.2,1.6,12.3,5.8,17c4.2,4.7,10.1,7.6,16.4,8.1
				c5.3,0.4,10.6-1,15-3.8c0.8-0.5,1.6-1.1,2.4-1.8c0.8-0.7,1.5-1.4,2.2-2.1l0.4-0.4c1.2-1.3,2.2-2.8,3-4.4c1.5-2.8,2.4-5.9,2.6-9.1
				c0.5-6.2-1.6-12.3-5.8-17c-4.2-4.7-10-7.6-16.4-8.1C592.7,158.2,592.1,158.2,591.5,158.2L591.5,158.2z M609.7,191.6l-1.7-0.9
				c1-1.9,1.6-4,1.7-6.1l1.9,0.1C611.5,187.1,610.8,189.4,609.7,191.6L609.7,191.6z"/>
			<path class="st1" d="M602,199.1l-0.9-1.7c0.5-0.3,1-0.5,1.5-0.8c0.6-0.4,1.1-0.8,1.6-1.2c0.5-0.4,1.5-1.5,1.5-1.5l1.4,1.3
				l-1.7,1.6c-0.6,0.5-1.2,0.9-1.8,1.3C603.1,198.5,602.6,198.8,602,199.1L602,199.1z M609.7,198.5l3.6,3.5l-1.4,1.3l-3.6-3.5
				L609.7,198.5z"/>
		</g>
		<path class="st2" d="M616.4,199l27,26.3l-7.5,7.3l-27-26.3L616.4,199z"/>
		<path class="st4" d="M261.6,224.8h-2c-0.3-1.1-0.7-2.1-1.3-3.1l0,0l1.4-1.4c0.3-0.3,0.3-0.8,0-1.1l-2.5-2.4
			c-0.3-0.3-0.8-0.3-1.2,0l-1.4,1.4c-1-0.6-2.1-1-3.2-1.3v-2c0-0.4-0.4-0.8-0.8-0.8h-3.5c-0.5,0-0.8,0.4-0.8,0.8v2
			c-1.1,0.3-2.2,0.7-3.2,1.3l-1.4-1.4c-0.3-0.3-0.8-0.3-1.2,0l-2.5,2.4c-0.3,0.3-0.3,0.8,0,1.1l1.4,1.4c-0.6,1-1,2-1.3,3.1h-2
			c-0.5,0-0.8,0.4-0.8,0.8v3.4c0,0.4,0.4,0.8,0.8,0.8h2c0.3,1.1,0.7,2.1,1.3,3.1l0,0l-1.4,1.4c-0.3,0.3-0.3,0.8,0,1.1l2.5,2.4
			c0.3,0.3,0.8,0.3,1.2,0l1.4-1.4c1,0.6,2,1,3.2,1.3v2c0,0.4,0.4,0.8,0.8,0.8h3.5c0.5,0,0.8-0.4,0.8-0.8v-2c1.1-0.3,2.2-0.7,3.2-1.3
			l0,0l1.4,1.4c0.3,0.3,0.8,0.3,1.2,0l2.5-2.4c0.3-0.3,0.3-0.8,0-1.1l-1.4-1.4c0.6-1,1-2,1.3-3.1h2c0.5,0,0.8-0.4,0.8-0.8v-3.4
			C262.4,225.1,262.1,224.8,261.6,224.8L261.6,224.8z"/>
		<path class="st1" d="M248.9,234.9l0-1.9h0c0.9,0,1.7-0.2,2.5-0.5l0.8,1.7C251.2,234.7,250,234.9,248.9,234.9L248.9,234.9z
			 M244.5,233.6c-1-0.7-1.8-1.5-2.4-2.5l1.7-0.9c0.4,0.7,1,1.4,1.8,1.9L244.5,233.6z M255.6,231.2l-1.7-1c0.5-0.8,0.7-1.6,0.8-2.4
			l1.9,0.2C256.6,229.1,256.2,230.2,255.6,231.2L255.6,231.2z M243,226.9l-1.9-0.1c0.1-1.2,0.4-2.2,1-3.2l1.7,0.9
			C243.4,225.2,243.1,226,243,226.9L243,226.9z M254,224.5c-0.4-0.7-1-1.4-1.8-1.9l1.1-1.5c1,0.7,1.8,1.5,2.3,2.5L254,224.5z
			 M246.3,222.1l-0.8-1.7c1.1-0.5,2.2-0.8,3.4-0.8l0.1,0.9l-0.1,0.9C248,221.6,247.1,221.8,246.3,222.1L246.3,222.1z"/>
		<ellipse class="st5" cx="648.5" cy="319.5" rx="49.5" ry="48.6"/>
		<path class="st1" d="M648.5,369c-28,0-50.8-22.2-50.8-49.5c0-27.3,22.8-49.5,50.8-49.5s50.8,22.2,50.8,49.5
			C699.3,346.8,676.5,369,648.5,369z M648.5,271.8c-26.9,0-48.9,21.4-48.9,47.7s21.9,47.7,48.9,47.7s48.9-21.4,48.9-47.7
			S675.5,271.8,648.5,271.8z"/>
		<ellipse class="st4" cx="648.5" cy="319.5" rx="38.8" ry="38.1"/>
		<ellipse class="st5" cx="648.5" cy="319.5" rx="26.3" ry="25.8"/>
		<path class="st1" d="M648.5,346.2c-15.1,0-27.4-12-27.4-26.7s12.3-26.7,27.4-26.7c15.1,0,27.4,12,27.4,26.7
			S663.6,346.2,648.5,346.2z M648.5,294.7c-14,0-25.5,11.1-25.5,24.8s11.4,24.8,25.5,24.8c14,0,25.5-11.1,25.5-24.8
			S662.6,294.7,648.5,294.7z"/>
		<ellipse class="st4" cx="648.5" cy="319.5" rx="12.2" ry="12"/>
		<g>
			<path class="st1" d="M648.5,316h71.8v7.1h-71.8V316z"/>
			<path class="st1" d="M744.3,327.1h-14.1l-11.6-6.8v-1.6l11.6-6.8h14.1l-7.8,7.6L744.3,327.1z"/>
		</g>
		<path class="st6" d="M324.6,361.8c0,3.7-3,6.6-6.8,6.6h-56c-3.7,0-6.8-3-6.8-6.6V301c0-3.7,3-6.6,6.8-6.6h56c3.7,0,6.8,3,6.8,6.6
			V361.8z"/>
		<path class="st1" d="M325.6,337.9h-1.9V301c0-3.1-2.6-5.7-5.8-5.7h-56c-3.2,0-5.8,2.5-5.8,5.7v19.2h-1.9V301
			c0-4.2,3.5-7.6,7.8-7.6h56c4.3,0,7.7,3.4,7.8,7.6V337.9z M317.8,369.4h-56c-4.3,0-7.7-3.4-7.8-7.6v-28.5h1.9v28.5
			c0,3.1,2.6,5.7,5.8,5.7h56c3.2,0,5.8-2.5,5.8-5.7v-8.7h1.9v8.7C325.6,366,322.1,369.4,317.8,369.4L317.8,369.4z M323.6,342.8h1.9
			v5h-1.9V342.8z"/>
		<path class="st5" d="M315.3,313.5h-50.8c-1.9,0-3.4-1.5-3.4-3.4v-7c0-1.9,1.5-3.4,3.4-3.4h50.8c1.9,0,3.4,1.5,3.4,3.4v7
			C318.7,312,317.2,313.5,315.3,313.5z"/>
		<g>
			<g>
				<path id="D" class="st3" d="M267.7,329.2h-5c-1,0-1.8-0.8-1.8-1.8c0,0,0,0,0,0v-4.9c0-1,0.8-1.8,1.8-1.8c0,0,0,0,0,0h5
					c1,0,1.8,0.8,1.8,1.8c0,0,0,0,0,0v4.9C269.5,328.4,268.7,329.2,267.7,329.2C267.7,329.2,267.7,329.2,267.7,329.2z"/>
			</g>
			<g>
				<path id="E" class="st3" d="M267.7,339.7h-5c-1,0-1.8-0.8-1.8-1.8c0,0,0,0,0,0V333c0-1,0.8-1.8,1.8-1.8h5c1,0,1.8,0.8,1.8,1.8
					v4.9C269.5,338.9,268.7,339.7,267.7,339.7C267.7,339.7,267.7,339.7,267.7,339.7z"/>
			</g>
			<g>
				<path id="D_1_" class="st3" d="M267.7,350.9h-5c-1,0-1.8-0.8-1.8-1.8c0,0,0,0,0,0v-4.9c0-1,0.8-1.8,1.8-1.8c0,0,0,0,0,0h5
					c1,0,1.8,0.8,1.8,1.8c0,0,0,0,0,0v4.9C269.5,350.1,268.7,350.9,267.7,350.9C267.7,350.9,267.7,350.9,267.7,350.9z"/>
			</g>
			<g>
				<path id="D_2_" class="st3" d="M278.4,329.2h-5c-1,0-1.8-0.8-1.8-1.8c0,0,0,0,0,0v-4.9c0-1,0.8-1.8,1.8-1.8c0,0,0,0,0,0h5
					c1,0,1.8,0.8,1.8,1.8c0,0,0,0,0,0v4.9C280.2,328.4,279.4,329.2,278.4,329.2C278.4,329.2,278.4,329.2,278.4,329.2z"/>
			</g>
			<g>
				<path id="E_1_" class="st3" d="M278.4,339.7h-5c-1,0-1.8-0.8-1.8-1.8c0,0,0,0,0,0V333c0-1,0.8-1.8,1.8-1.8h5
					c1,0,1.8,0.8,1.8,1.8v4.9C280.2,338.9,279.4,339.7,278.4,339.7C278.4,339.7,278.4,339.7,278.4,339.7z"/>
			</g>
			<g>
				<path id="D_3_" class="st3" d="M278.4,350.9h-5c-1,0-1.8-0.8-1.8-1.8c0,0,0,0,0,0v-4.9c0-1,0.8-1.8,1.8-1.8c0,0,0,0,0,0h5
					c1,0,1.8,0.8,1.8,1.8c0,0,0,0,0,0v4.9C280.2,350.1,279.4,350.9,278.4,350.9C278.4,350.9,278.4,350.9,278.4,350.9z"/>
			</g>
			<g>
				<path id="D_4_" class="st3" d="M288.8,329.2h-5c-1,0-1.8-0.8-1.8-1.8c0,0,0,0,0,0v-4.9c0-1,0.8-1.8,1.8-1.8c0,0,0,0,0,0h5
					c1,0,1.8,0.8,1.8,1.8c0,0,0,0,0,0v4.9C290.6,328.4,289.8,329.2,288.8,329.2C288.8,329.2,288.8,329.2,288.8,329.2z"/>
			</g>
			<g>
				<path id="E_2_" class="st3" d="M288.8,339.7h-5c-1,0-1.8-0.8-1.8-1.8c0,0,0,0,0,0V333c0-1,0.8-1.8,1.8-1.8h5
					c1,0,1.8,0.8,1.8,1.8v4.9C290.6,338.9,289.8,339.7,288.8,339.7C288.8,339.7,288.8,339.7,288.8,339.7z"/>
			</g>
			<path class="st3" d="M305.3,339.7h-5c-1,0-1.8-0.8-1.8-1.8c0,0,0,0,0,0V333c0-1,0.8-1.8,1.8-1.8h5c1,0,1.8,0.8,1.8,1.8v4.9
				C307.1,338.9,306.3,339.7,305.3,339.7C305.3,339.7,305.3,339.7,305.3,339.7z"/>
			<g>
				<path id="E_3_" class="st3" d="M315.7,339.7h-5c-1,0-1.8-0.8-1.8-1.8c0,0,0,0,0,0V333c0-1,0.8-1.8,1.8-1.8h5
					c1,0,1.8,0.8,1.8,1.8v4.9C317.5,338.9,316.7,339.7,315.7,339.7C315.7,339.7,315.7,339.7,315.7,339.7z"/>
			</g>
			<path class="st3" d="M305.3,329.2h-5c-1,0-1.8-0.8-1.8-1.8c0,0,0,0,0,0v-4.9c0-1,0.8-1.8,1.8-1.8c0,0,0,0,0,0h5
				c1,0,1.8,0.8,1.8,1.8c0,0,0,0,0,0v4.9C307.1,328.4,306.3,329.2,305.3,329.2C305.3,329.2,305.3,329.2,305.3,329.2z"/>
			<g>
				<path id="D_5_" class="st3" d="M315.7,329.2h-5c-1,0-1.8-0.8-1.8-1.8c0,0,0,0,0,0v-4.9c0-1,0.8-1.8,1.8-1.8c0,0,0,0,0,0h5
					c1,0,1.8,0.8,1.8,1.8c0,0,0,0,0,0v4.9C317.5,328.4,316.7,329.2,315.7,329.2C315.7,329.2,315.7,329.2,315.7,329.2z"/>
			</g>
			<g>
				<path id="D_6_" class="st3" d="M288.8,350.9h-5c-1,0-1.8-0.8-1.8-1.8c0,0,0,0,0,0v-4.9c0-1,0.8-1.8,1.8-1.8c0,0,0,0,0,0h5
					c1,0,1.8,0.8,1.8,1.8c0,0,0,0,0,0v4.9C290.6,350.1,289.8,350.9,288.8,350.9C288.8,350.9,288.8,350.9,288.8,350.9z"/>
			</g>
			<g>
				<path id="D_7_" class="st3" d="M267.7,361.2h-5c-1,0-1.8-0.8-1.8-1.8c0,0,0,0,0,0v-4.9c0-1,0.8-1.8,1.8-1.8c0,0,0,0,0,0h5
					c1,0,1.8,0.8,1.8,1.8c0,0,0,0,0,0v4.9C269.5,360.4,268.7,361.2,267.7,361.2C267.7,361.2,267.7,361.2,267.7,361.2z"/>
			</g>
			<g>
				<path id="D_8_" class="st3" d="M278.4,361.2h-5c-1,0-1.8-0.8-1.8-1.8c0,0,0,0,0,0v-4.9c0-1,0.8-1.8,1.8-1.8c0,0,0,0,0,0h5
					c1,0,1.8,0.8,1.8,1.8c0,0,0,0,0,0v4.9C280.2,360.4,279.4,361.2,278.4,361.2C278.4,361.2,278.4,361.2,278.4,361.2z"/>
			</g>
			<g>
				<path id="D_9_" class="st3" d="M288.8,361.2h-5c-1,0-1.8-0.8-1.8-1.8c0,0,0,0,0,0v-4.9c0-1,0.8-1.8,1.8-1.8c0,0,0,0,0,0h5
					c1,0,1.8,0.8,1.8,1.8c0,0,0,0,0,0v4.9C290.6,360.4,289.8,361.2,288.8,361.2C288.8,361.2,288.8,361.2,288.8,361.2z"/>
			</g>
		</g>
		<path class="st1" d="M316.3,362h-16.5c-1.5,0-2.8-1.2-2.8-2.7v-4.9c0-1.5,1.3-2.7,2.8-2.7h16.5c1.5,0,2.8,1.2,2.8,2.7v4.9
			C319.1,360.8,317.8,362,316.3,362z M299.7,353.6c-0.5,0-0.9,0.4-0.9,0.8v4.9c0,0.5,0.4,0.8,0.9,0.8h16.5c0.5,0,0.9-0.4,0.9-0.8
			v-4.9c0-0.5-0.4-0.8-0.9-0.8H299.7z"/>
		<g>
			<path class="st7" d="M316.3,350.5h-16.5c-1,0-1.8-0.8-1.8-1.8c0,0,0,0,0,0v-4.9c0-1,0.8-1.8,1.8-1.8c0,0,0,0,0,0h16.5
				c1,0,1.8,0.8,1.8,1.8c0,0,0,0,0,0v4.9C318.1,349.7,317.3,350.5,316.3,350.5C316.3,350.5,316.3,350.5,316.3,350.5z"/>
			<path class="st7" d="M215.3,210.2h-13.7c-4.7,0-8.5-3.8-8.5-8.3s3.8-8.3,8.5-8.3h13.7c4.7,0,8.5,3.7,8.5,8.3
				C223.8,206.4,220,210.2,215.3,210.2z"/>
		</g>
		<g>
			<ellipse class="st3" cx="217.5" cy="201.8" rx="2.1" ry="2.1"/>
			<ellipse class="st3" cx="208.4" cy="201.8" rx="2.1" ry="2.1"/>
			<ellipse class="st3" cx="199.4" cy="201.8" rx="2.1" ry="2.1"/>
		</g>
		<path class="st7" d="M190.1,185.6h-13.7c-4.7,0-8.5-3.7-8.5-8.3c0-4.6,3.8-8.3,8.5-8.3h13.7c4.7,0,8.5,3.7,8.5,8.3
			C198.6,181.9,194.8,185.6,190.1,185.6z"/>
		<g>
			<ellipse class="st3" cx="192.3" cy="177.3" rx="2.1" ry="2.1"/>
			<ellipse class="st3" cx="183.3" cy="177.3" rx="2.1" ry="2.1"/>
			<ellipse class="st3" cx="174.2" cy="177.3" rx="2.1" ry="2.1"/>
		</g>
		<path class="st1" d="M620,351.6l-1.3-1.4l1.4-1.3l1.4,1.3L620,351.6z M624.7,346.5l-1.6-1.1c0.7-1,1.4-2.1,2-3.2l1.7,0.9
			C626.2,344.3,625.5,345.4,624.7,346.5L624.7,346.5z M572.4,346.4c-0.8-1.1-1.5-2.2-2.1-3.4l1.7-0.9c0.6,1.1,1.3,2.2,2,3.2
			L572.4,346.4z M628.9,338.6l-1.8-0.6c0.4-1.2,0.8-2.4,1.1-3.6l1.9,0.4C629.8,336.1,629.4,337.4,628.9,338.6z M568.2,338.5
			c-0.4-1.3-0.8-2.5-1-3.8l1.9-0.4c0.3,1.2,0.6,2.4,1,3.6L568.2,338.5z M630.8,329.9l-1.9-0.1l0-1.6l-0.1-2.1l1.9-0.1l0.1,2.3
			L630.8,329.9L630.8,329.9z M566.6,329.8l0-1.1l0-0.4l0.1-2.4l1.9,0.1l-0.1,2.3l0,0.4l0,1.1L566.6,329.8z M628.1,321.5
			c-0.3-1.2-0.7-2.4-1.1-3.6l1.8-0.7c0.5,1.2,0.9,2.5,1.2,3.8L628.1,321.5z M569.3,321.4l-1.9-0.4c0.3-1.3,0.7-2.5,1.2-3.8l1.8,0.7
			C570,319,569.6,320.2,569.3,321.4L569.3,321.4z M625,313.7c-0.6-1.1-1.3-2.1-2.1-3.1l1.6-1.1c0.8,1.1,1.5,2.2,2.2,3.3L625,313.7z
			 M572.4,313.6l-1.7-0.9c0.7-1.1,1.4-2.3,2.2-3.3l1.5,1.1C573.7,311.5,573,312.5,572.4,313.6L572.4,313.6z M619.8,307.1
			c-0.9-0.9-1.9-1.7-2.9-2.4l1.2-1.5c1.1,0.8,2.1,1.7,3.1,2.6L619.8,307.1z M577.6,307l-1.4-1.3c1-0.9,2-1.8,3.1-2.6l1.2,1.5
			C579.5,305.3,578.5,306.1,577.6,307L577.6,307z M612.9,302.2c-1.1-0.6-2.3-1.1-3.5-1.6l0.7-1.8c1.3,0.5,2.5,1,3.7,1.7L612.9,302.2
			z M584.5,302l-0.9-1.7c1.2-0.6,2.4-1.2,3.7-1.6l0.7,1.8C586.8,300.9,585.6,301.5,584.5,302L584.5,302z M604.9,299.3
			c-1.2-0.3-2.5-0.4-3.8-0.5l0.2-1.9c1.3,0.1,2.7,0.3,4,0.6L604.9,299.3z M592.5,299.2l-0.4-1.8c1.3-0.3,2.7-0.4,4-0.5l0.1,1.9
			C595,298.8,593.8,299,592.5,299.2L592.5,299.2z M577.1,351.6l-1.5-1.3l1.4-1.3l1.4,1.3L577.1,351.6z"/>
		<path class="st2" d="M623.1,328.2c0-13.8-12-24.8-26.3-23.9c-12.8,0.9-22.6,11.7-22.4,24.2c0.1,8.8,4.8,16.5,12.5,20.5
			c2.8,1.4,4.4,4.3,4.4,7.4v0.1h15.3v-0.1c0-3.1,1.6-6,4.3-7.6C617.9,344.7,623.1,337,623.1,328.2L623.1,328.2z"/>
		<path class="st1" d="M608.6,345.1l-1-1.6c3.4-2,6.1-5.1,7.7-8.6l1.8,0.7C615.3,339.5,612.4,342.9,608.6,345.1L608.6,345.1z
			 M616.6,327.5c-0.1-2.4-0.7-4.8-1.8-7l1.7-0.8c1.2,2.4,1.9,5.1,2,7.8L616.6,327.5z"/>
		<path class="st5" d="M606.9,368.6H591c-1.8,0-3.3-1.4-3.3-3.2v-6.8c0-1.8,1.5-3.2,3.3-3.2h15.8c1.8,0,3.3,1.4,3.3,3.2v6.8
			C610.1,367.2,608.7,368.6,606.9,368.6z"/>
		<g>
			<path class="st1" d="M606.9,369.4H591c-2.2,0-4.1-1.8-4.1-4v-6.8c0-2.2,1.8-4,4.1-4h15.8c2.2,0,4.1,1.8,4.1,4v6.8
				C610.9,367.6,609.1,369.4,606.9,369.4L606.9,369.4z M591,356.1c-1.4,0-2.5,1.1-2.5,2.4v6.8c0,1.3,1.1,2.4,2.5,2.4h15.8
				c1.4,0,2.5-1.1,2.5-2.4v-6.8c0-1.3-1.1-2.4-2.5-2.4H591z"/>
			<path class="st1" d="M597.6,339.2h2.2v16.2h-2.2V339.2z"/>
		</g>
		<ellipse class="st6" cx="692.1" cy="246.5" rx="20.9" ry="20.5"/>
		<g>
			<path class="st5" d="M692.1,225.9c8.2,0,14.8,9.2,14.8,20.6s-6.6,20.6-14.8,20.6c-8.2,0-14.8-9.2-14.8-20.6
				C677.3,235.1,684,225.9,692.1,225.9L692.1,225.9z M692.1,265.1c7.1,0,12.8-8.4,12.8-18.7c0-10.3-5.7-18.7-12.8-18.7
				c-7.1,0-12.8,8.4-12.8,18.7C679.3,256.8,685.1,265.1,692.1,265.1z"/>
			<path class="st5" d="M692.1,225.9c4.5,0,6.9,10.3,6.9,20.6c0,10.2-2.4,20.6-6.9,20.6c-4.5,0-6.9-10.3-6.9-20.6
				C685.3,236.2,687.6,225.9,692.1,225.9L692.1,225.9z M692.1,265.1c2,0,4.9-7.3,4.9-18.7s-2.9-18.7-4.9-18.7c-2,0-4.9,7.3-4.9,18.7
				S690.2,265.1,692.1,265.1z"/>
			<path class="st5" d="M692.1,253c6.1,0,11.9,2.5,16.1,6.8l-1.5,1.3c-3.8-4-9-6.2-14.7-6.2c-5.6,0-10.9,2.2-14.7,6.2l-1.5-1.3
				C680.2,255.5,686.1,253,692.1,253z M706.8,231.7l1.5,1.3c-4.2,4.3-10,6.8-16.1,6.8c-6.1,0-11.9-2.5-16.1-6.8l1.5-1.3
				c3.8,4,9,6.2,14.6,6.2S702.9,235.7,706.8,231.7L706.8,231.7z M671.1,245.5h42.2v1.9h-42.2V245.5z"/>
		</g>
		<path class="st1" d="M693.2,276.2l-0.1-1.9l2.3-0.2l0.2,1.9L693.2,276.2L693.2,276.2z M701.5,274.8l-0.6-1.8
			c1.5-0.5,2.9-1,4.3-1.7l0.9,1.7C704.6,273.7,703.1,274.3,701.5,274.8L701.5,274.8z M711.1,269.8l-1.2-1.5l1-0.8
			c0.8-0.7,1.7-1.5,2.4-2.3l1.4,1.3c-0.8,0.9-1.7,1.7-2.6,2.4L711.1,269.8L711.1,269.8z M718.3,261.9l-1.7-1c0.8-1.3,1.5-2.6,2.1-4
			l1.8,0.7C719.9,259.1,719.1,260.6,718.3,261.9L718.3,261.9z M722.2,252l-1.9-0.4c0.2-1.1,0.3-2.1,0.4-3.2l0.1-1.3l1.9,0l-0.1,1.4
			C722.5,249.8,722.4,250.9,722.2,252L722.2,252z M720.4,241.8c-0.3-1.5-0.6-3-1.2-4.4l1.8-0.6c0.5,1.5,0.9,3.1,1.2,4.7L720.4,241.8
			z M664.9,237.9l-1.8-0.6c0.5-1.5,1.1-3,1.9-4.5l1.7,0.9C666,235.1,665.4,236.5,664.9,237.9L664.9,237.9z M716.9,232.5
			c-0.8-1.3-1.7-2.6-2.6-3.7l1.5-1.2c1,1.2,2,2.6,2.8,4L716.9,232.5z M669.7,229.2l-1.5-1.2c1-1.3,2.2-2.4,3.4-3.5l1.3,1.4
			C671.7,226.9,670.6,228,669.7,229.2L669.7,229.2z M710.3,224.9c-1.2-1-2.5-1.8-3.8-2.6l1-1.6c1.4,0.8,2.8,1.7,4.1,2.8L710.3,224.9
			z M677.3,222.6l-1-1.6c1.4-0.8,2.9-1.6,4.4-2.2l0.7,1.7C680,221.1,678.7,221.8,677.3,222.6L677.3,222.6z M701.5,220
			c-1.5-0.5-3-0.9-4.5-1.1l0.3-1.9c1.6,0.3,3.2,0.7,4.8,1.2L701.5,220z M686.8,219l-0.4-1.9c1.6-0.3,3.3-0.5,4.9-0.5l0,1.9
			C689.9,218.6,688.3,218.7,686.8,219L686.8,219z M663.6,245.5l-1.9-0.1l0-0.3l0-0.9l0.1-1.2l1.9,0.2l-0.1,1.2l0,0.8L663.6,245.5z"
			/>
	</g>
</g>
<g>
	<g>
		<path class="st9" d="M544.2,56.2h-2.7c-0.2-1.5-1-2.9-2.1-3.8h4.9c0.3,0,0.5-0.2,0.5-0.5s-0.2-0.5-0.5-0.5h-11.3
			c-0.3,0-0.5,0.2-0.5,0.5s0.2,0.5,0.5,0.5h3.2c2.2,0,4,1.7,4.3,3.3h-7.5c-0.3,0.5-0.5,0.7-0.5,1s0.2,0.5,0.5,0.5h7.5
			c-0.3,2.2-2.1,3.8-4.3,3.8h-3.2c-0.3,0-0.5,0.3-0.5,0.6c0,0.1,0.1,0.3,0.2,0.4l8.1,7.7c0.2,0.2,0.6,0.2,0.8,0
			c0.2-0.2,0.2-0.6,0-0.8l-7.1-6.7h1.9c2.8,0,5.1-2.1,5.4-4.9h2.7c0.3,0,0.5-0.2,0.5-0.5S544.5,56.2,544.2,56.2z"/>
	</g>
</g>
</svg>
