<svg height="512" viewBox="0 0 64 64" width="512" xmlns="http://www.w3.org/2000/svg"><path d="m61 50v4l-2.97.5 1.75 2.45-2.83 2.83-2.45-1.75-.5 2.97h-4l-.5-2.97-2.45 1.75-1.41-1.41-1.42-1.42 1.75-2.45-2.97-.5v-4l2.97-.5-1.75-2.45 2.83-2.83 2.45 1.75.5-2.97h4l.5 2.97 2.45-1.75 2.83 2.83-1.75 2.45zm-6 2a3 3 0 1 0 -3 3 3 3 0 0 0 3-3z" fill="#ffeb99"/><circle cx="52" cy="52" fill="#00d7df" r="3"/><path d="m32 41h-5.94c-5.33-5.41-9.06-16.83-9.06-23a15 15 0 0 1 30 0c0 6.17-3.73 17.59-9.06 23zm0-11h3l.45-2.68 2.21 1.58 4.24-4.24-1.58-2.21 2.68-.45v-6l-2.68-.45 1.58-2.21-4.24-4.24-2.21 1.58-.45-2.68h-6l-.45 2.68-2.21-1.58-4.24 4.24 1.58 2.21-2.68.45v6l2.68.45-1.58 2.21 4.24 4.24 2.21-1.58.45 2.68z" fill="#57a4ff"/><path d="m43 16v6l-2.68.45 1.58 2.21-4.24 4.24-2.21-1.58-.45 2.68h-6l-.45-2.68-2.21 1.58-4.24-4.24 1.58-2.21-2.68-.45v-6l2.68-.45-1.58-2.21 4.24-4.24 2.21 1.58.45-2.68h6l.45 2.68 2.21-1.58 4.24 4.24-1.58 2.21zm-6 3a5 5 0 1 0 -5 5 5 5 0 0 0 5-5z" fill="#ffeb99"/><path d="m38 45v3a1 1 0 0 1 -1 1h-10a1 1 0 0 1 -1-1v-3z" fill="#00d7df"/><path d="m38 41v4h-12v-4h.06 5.94 5.94z" fill="#ff9478"/><path d="m37 49-.24.97a4.009 4.009 0 0 1 -3.88 3.03h-1.76a4.009 4.009 0 0 1 -3.88-3.03l-.24-.97z" fill="#ff9478"/><circle cx="32" cy="19" fill="#00d7df" r="5"/><path d="m21 50v4l-2.97.5 1.75 2.45-1.41 1.42-1.42 1.41-2.45-1.75-.5 2.97h-4l-.5-2.97-2.45 1.75-2.83-2.83 1.75-2.45-2.97-.5v-4l2.97-.5-1.75-2.45 2.83-2.83 2.45 1.75.5-2.97h4l.5 2.97 2.45-1.75 2.83 2.83-1.75 2.45zm-6 2a3 3 0 1 0 -3 3 3 3 0 0 0 3-3z" fill="#ffeb99"/><circle cx="12" cy="52" fill="#00d7df" r="3"/><path d="m32 25a6 6 0 1 0 -6-6 6.006 6.006 0 0 0 6 6zm0-10a4 4 0 1 1 -4 4 4 4 0 0 1 4-4z"/><path d="m61.165 49.014-1.394-.233.821-1.15a1 1 0 0 0 -.107-1.288l-2.828-2.828a1 1 0 0 0 -1.288-.107l-1.15.821-.233-1.394a1 1 0 0 0 -.986-.835h-4a1 1 0 0 0 -.986.835l-.233 1.394-1.15-.821a1 1 0 0 0 -1.288.107l-2.828 2.828a1 1 0 0 0 -.107 1.288l.821 1.15-1.394.233a1 1 0 0 0 -.835.986v4a1 1 0 0 0 .835.986l1.394.233-.821 1.15a1 1 0 0 0 .107 1.288l.711.711-1.639 1.632h-9.587v-6.01a4.988 4.988 0 0 0 4.728-3.777l.1-.4a2 2 0 0 0 1.172-1.813v-6.681c5.173-5.57 9-16.757 9-23.319a16 16 0 0 0 -32 0c0 6.562 3.827 17.749 9 23.319v6.681a2 2 0 0 0 1.173 1.816l.1.4a4.987 4.987 0 0 0 4.727 3.774v6.01h-9.586l-1.636-1.636.707-.707a1 1 0 0 0 .107-1.288l-.821-1.15 1.394-.233a1 1 0 0 0 .835-.986v-4a1 1 0 0 0 -.835-.986l-1.394-.233.821-1.15a1 1 0 0 0 -.107-1.288l-2.828-2.828a1 1 0 0 0 -1.288-.107l-1.15.821-.233-1.394a1 1 0 0 0 -.986-.835h-4a1 1 0 0 0 -.986.835l-.233 1.394-1.15-.821a1 1 0 0 0 -1.288.107l-2.828 2.828a1 1 0 0 0 -.107 1.288l.821 1.15-1.394.233a1 1 0 0 0 -.835.986v4a1 1 0 0 0 .835.986l1.394.233-.821 1.15a1 1 0 0 0 .107 1.288l2.828 2.828a1 1 0 0 0 1.288.107l1.15-.821.233 1.394a1 1 0 0 0 .986.835h4a1 1 0 0 0 .986-.835l.233-1.394 1.15.821a1 1 0 0 0 1.288-.107l.707-.707 1.929 1.929a1 1 0 0 0 .707.293h22a1 1 0 0 0 .706-.292l1.934-1.926.7.7a1 1 0 0 0 1.288.107l1.15-.821.233 1.394a1 1 0 0 0 .989.838h4a1 1 0 0 0 .986-.835l.233-1.394 1.15.821a1 1 0 0 0 1.288-.107l2.828-2.828a1 1 0 0 0 .107-1.288l-.821-1.15 1.394-.233a1 1 0 0 0 .835-.986v-4a1 1 0 0 0 -.835-.986zm-24.165-7.014v2h-10v-2zm-10 4h10v2h-10zm5-42a14.015 14.015 0 0 1 14 14c0 6.079-3.695 16.861-8.5 22h-4.5v-9h2a1 1 0 0 0 .986-.835l.183-1.1.907.647a1 1 0 0 0 1.288-.107l4.242-4.242a1 1 0 0 0 .107-1.288l-.647-.907 1.1-.183a1 1 0 0 0 .834-.985v-6a1 1 0 0 0 -.835-.986l-1.1-.183.647-.907a1 1 0 0 0 -.107-1.288l-4.241-4.242a1 1 0 0 0 -1.288-.107l-.907.647-.183-1.1a1 1 0 0 0 -.986-.834h-6a1 1 0 0 0 -.986.835l-.183 1.1-.907-.647a1 1 0 0 0 -1.288.107l-4.242 4.242a1 1 0 0 0 -.107 1.288l.647.907-1.1.183a1 1 0 0 0 -.834.985v6a1 1 0 0 0 .835.986l1.1.183-.647.907a1 1 0 0 0 .107 1.288l4.242 4.242a1 1 0 0 0 1.288.107l.907-.647.183 1.1a1 1 0 0 0 .985.834h2v9h-4.5c-4.8-5.139-8.5-15.921-8.5-22a14.015 14.015 0 0 1 14-14zm-7.4 18.063a1 1 0 0 0 -.759-.6l-1.841-.31v-4.306l1.844-.307a1 1 0 0 0 .649-1.567l-1.086-1.522 3.044-3.044 1.522 1.086a1 1 0 0 0 1.567-.649l.307-1.844h4.306l.307 1.844a1 1 0 0 0 1.567.649l1.522-1.086 3.044 3.044-1.086 1.522a1 1 0 0 0 .649 1.567l1.844.307v4.306l-1.844.307a1 1 0 0 0 -.649 1.567l1.086 1.522-3.044 3.044-1.522-1.086a1 1 0 0 0 -1.567.649l-.307 1.844h-4.306l-.307-1.844a1 1 0 0 0 -1.567-.649l-1.522 1.086-3.044-3.044 1.086-1.522a1 1 0 0 0 .107-.964zm3.694 27.937h7.412a3 3 0 0 1 -2.829 2h-1.754a3 3 0 0 1 -2.829-2zm-11.452 8.472-1.765-1.261a1 1 0 0 0 -1.568.65l-.356 2.139h-2.306l-.356-2.139a1 1 0 0 0 -1.568-.65l-1.765 1.261-1.63-1.63 1.261-1.765a1 1 0 0 0 -.65-1.568l-2.139-.356v-2.306l2.139-.356a1 1 0 0 0 .65-1.568l-1.261-1.765 1.63-1.63 1.765 1.261a1 1 0 0 0 1.568-.65l.356-2.139h2.306l.356 2.139a1 1 0 0 0 1.568.65l1.765-1.261 1.63 1.63-1.261 1.765a1 1 0 0 0 .65 1.568l2.139.356v2.306l-2.139.356a1 1 0 0 0 -.65 1.568l1.261 1.765zm43.158-5.319-2.139.356a1 1 0 0 0 -.65 1.568l1.261 1.765-1.63 1.63-1.765-1.261a1 1 0 0 0 -1.568.65l-.356 2.139h-2.306l-.356-2.139a1 1 0 0 0 -1.568-.65l-1.765 1.261-1.63-1.63 1.261-1.765a1 1 0 0 0 -.65-1.568l-2.139-.356v-2.306l2.139-.356a1 1 0 0 0 .65-1.568l-1.261-1.765 1.63-1.63 1.765 1.261a1 1 0 0 0 1.568-.65l.356-2.139h2.306l.356 2.139a1 1 0 0 0 1.568.65l1.765-1.261 1.63 1.63-1.261 1.765a1 1 0 0 0 .65 1.568l2.139.356z"/><path d="m52 48a4 4 0 1 0 4 4 4 4 0 0 0 -4-4zm0 6a2 2 0 1 1 2-2 2 2 0 0 1 -2 2z"/><path d="m12 48a4 4 0 1 0 4 4 4 4 0 0 0 -4-4zm0 6a2 2 0 1 1 2-2 2 2 0 0 1 -2 2z"/><path d="m52 16h10v2h-10z"/><path d="m50 8h10v2h-10z" transform="matrix(.707 -.707 .707 .707 9.745 41.527)"/><path d="m54 20h2v10h-2z" transform="matrix(.707 -.707 .707 .707 -1.569 46.213)"/><path d="m2 16h10v2h-10z"/><path d="m8 4h2v10h-2z" transform="matrix(.707 -.707 .707 .707 -3.728 9)"/><path d="m4 24h10v2h-10z" transform="matrix(.707 -.707 .707 .707 -15.042 13.686)"/></svg>