<svg height="512pt" viewBox="0 -45 512 512" width="512pt" xmlns="http://www.w3.org/2000/svg"><g fill-rule="evenodd"><path d="m50.140625 88.796875 40.335937 17.980469 40.363282-17.980469v-26.160156c0-5.605469-4.59375-10.222657-10.234375-10.222657h-60.234375c-5.640625 0-10.230469 4.617188-10.230469 10.222657zm0 0" fill="#3f4c63"/><path d="m504.492188 380.007812v-256.78125c0-18.941406-15.53125-34.429687-34.496094-34.429687h-60.265625l-30.695313-71.066406c-2.238281-5.15625-4.621094-10.222657-10.261718-10.222657h-143.488282c-5.640625 0-8.019531 5.039063-10.230468 10.222657l-30.726563 71.066406h-142.351563c-18.964843 0-34.46875 15.488281-34.46875 34.429687v256.78125c0 18.941407 15.503907 34.460938 34.46875 34.460938h428.019532c18.964844 0 34.496094-15.519531 34.496094-34.460938zm0 0" fill="#eb5757"/><path d="m455.652344 159.613281c10.941406 0 19.84375-8.890625 19.84375-19.820312 0-10.957031-8.902344-19.820313-19.84375-19.820313-10.96875 0-19.839844 8.863282-19.839844 19.820313 0 10.929687 8.871094 19.820312 19.839844 19.820312zm0 0" fill="#e8c745"/><path d="m7.507812 129.34375h153.832032c24.492187 0 44.53125 19.992188 44.53125 44.453125v155.644531c0 24.460938-20.039063 44.480469-44.53125 44.480469h-153.832032zm0 0" fill="#e6e6e6"/><path d="m7.507812 129.34375h82.96875v244.578125h-82.96875zm0 0" fill="#b3b3b3"/><path d="m42.289062 123.226562c0-12.855468 7.171876-24.121093 17.6875-30.039062 4.988282-2.804688 10.714844-4.390625 16.808594-4.390625h-34.808594c-18.964843 0-34.46875 15.488281-34.46875 34.429687v6.117188h34.777344v-6.117188zm0 0" fill="#bf3961"/><path d="m7.507812 129.34375h34.78125v244.578125h-34.78125zm0 0" fill="#888b99"/><path d="m76.785156 414.46875c-18.964844 0-34.5-15.519531-34.5-34.460938v-6.085937h-34.777344v6.085937c0 18.941407 15.503907 34.460938 34.46875 34.460938zm0 0" fill="#bf3961"/><path d="m432.890625 336.460938c5.667969-9.117188 2.835937-21.207032-6.292969-26.839844l-19.898437-12.316406-18.480469 10.304687-2.863281 22.339844 20.664062 12.796875c9.128907 5.636718 21.230469 2.804687 26.871094-6.285156zm0 0" fill="#e6e6e6"/><path d="m418.292969 243.734375c0-71.523437-58.023438-129.480469-129.625-129.480469-34.78125 0-66.355469 13.675782-89.628907 35.957032-24.632812 23.558593-39.96875 56.742187-39.96875 93.523437 0 39.214844 17.460938 74.351563 45.015626 98.109375 22.703124 19.535156 52.269531 31.34375 84.582031 31.34375 38.4375 0 72.960937-16.707031 96.6875-43.238281 8.671875-9.683594 15.902343-20.667969 21.34375-32.644531 7.457031-16.339844 11.59375-34.460938 11.59375-53.570313zm0 0" fill="#3f4c63"/><path d="m384.703125 243.734375c0-52.976563-43-95.929687-96.035156-95.929687-35.261719 0-66.101563 19-82.796875 47.339843-8.417969 14.242188-13.238282 30.863281-13.238282 48.589844 0 17.722656 4.820313 34.34375 13.238282 48.585937 16.695312 28.3125 47.535156 47.339844 82.796875 47.339844 26.503906 0 50.484375-10.730468 67.859375-28.058594 9.074218-9.03125 16.355468-19.90625 21.234375-31.996093 4.476562-11.097657 6.941406-23.1875 6.941406-35.871094zm0 0" fill="#bae0f2"/><path d="m232.261719 243.734375c0-17.726563 4.816406-34.347656 13.207031-48.589844 13.492188-22.875 36.195312-39.667969 63.011719-45.300781-6.378907-1.332031-13.011719-2.039062-19.8125-2.039062-35.261719 0-66.101563 19-82.800781 47.339843-8.417969 14.242188-13.234376 30.863281-13.234376 48.585938 0 17.726562 4.816407 34.347656 13.234376 48.589843 16.699218 28.3125 47.539062 47.339844 82.800781 47.339844 6.800781 0 13.433593-.707031 19.8125-2.039062-26.816407-5.632813-49.519531-22.425782-63.011719-45.304688-8.390625-14.238281-13.207031-30.859375-13.207031-48.582031zm0 0" fill="#93baf0"/><path d="m65.050781 88.796875v-26.160156c0-5.605469 4.589844-10.222657 10.230469-10.222657h-14.910156c-5.640625 0-10.230469 4.617188-10.230469 10.222657v26.160156zm0 0" fill="#2e3c51"/><path d="m178.886719 244.441406c0-29.390625 9.808593-56.488281 26.332031-78.230468 4.136719-5.4375 8.703125-10.5625 13.632812-15.292969 22.113282-21.148438 51.761719-34.570313 84.5-35.84375-4.820312-.539063-9.722656-.820313-14.683593-.820313-34.78125 0-66.355469 13.675782-89.628907 35.957032-24.632812 23.558593-39.96875 56.742187-39.96875 93.523437 0 39.214844 17.460938 74.351563 45.015626 98.109375 22.703124 19.535156 52.269531 31.34375 84.582031 31.34375 1.730469 0 3.457031-.03125 5.160156-.085938-26.5625-3-50.710937-13.988281-69.929687-30.550781-6.632813-5.71875-12.671876-12.089843-18.027344-19-16.921875-21.886719-26.984375-49.324219-26.984375-79.109375zm0 0" fill="#2e3c51"/><path d="m295.019531 38.457031h-50.089843c-3.9375 0-5.582032 4.019531-7.140626 8.097657l-7.597656 19.875c-1.644531 4.105468-.027344 7.164062 4.421875 7.164062h120.835938c4.453125 0 6.066406-3.058594 4.421875-7.164062l-7.59375-19.875c-1.558594-4.078126-3.203125-8.097657-7.144532-8.097657zm0 0" fill="#e6e6e6"/><path d="m244.164062 66.429688 7.570313-19.875c1.558594-4.078126 3.230469-8.101563 7.144531-8.101563h-13.949218c-3.9375 0-5.582032 4.023437-7.140626 8.101563l-7.597656 19.875c-1.644531 4.105468-.027344 7.164062 4.421875 7.164062h13.972657c-4.449219 0-6.0625-3.058594-4.421876-7.164062zm0 0" fill="#b3b3b3"/></g><path d="m288.667969 347.167969c57.09375 0 103.542969-46.398438 103.542969-103.433594 0-11.898437-2.007813-23.578125-5.960938-34.707031-1.386719-3.90625-5.679688-5.949219-9.589844-4.558594-3.90625 1.386719-5.945312 5.679688-4.558594 9.585938 3.378907 9.511718 5.09375 19.5 5.09375 29.679687 0 48.753906-39.710937 88.421875-88.527343 88.421875-48.816407 0-88.527344-39.667969-88.527344-88.421875s39.710937-88.421875 88.527344-88.421875c28.144531 0 53.121093 11.34375 66.8125 30.347656 2.425781 3.363282 7.117187 4.125 10.480469 1.703125 3.363281-2.421875 4.128906-7.113281 1.703124-10.480469-16.503906-22.90625-46.035156-36.585937-78.996093-36.585937-57.09375 0-103.542969 46.402344-103.542969 103.4375s46.449219 103.433594 103.542969 103.433594zm0 0"/><path d="m469.996094 81.289062h-55.328125l-28.746094-66.550781c-2.238281-5.152343-6.40625-14.738281-17.148437-14.738281h-143.484376c-10.828124 0-14.933593 9.617188-17.125 14.75l-28.769531 66.539062h-41.046875v-18.652343c0-9.777344-7.957031-17.730469-17.742187-17.730469h-60.234375c-9.78125 0-17.738282 7.953125-17.738282 17.730469v18.652343h-.65625c-23.148437 0-41.976562 18.816407-41.976562 41.9375v256.78125c0 23.140626 18.828125 41.96875 41.976562 41.96875l252.898438.027344c4.144531 0 7.507812-3.363281 7.507812-7.507812 0-4.144532-3.359374-7.507813-7.507812-7.507813l-252.898438-.027343c-14.390624 0-26.183593-11.328126-26.925781-25.53125h146.289063c19.476562 0 37.199218-11.082032 46.070312-27.902344 22.246094 17.089844 50.246094 27.164062 81.257813 27.164062 38.3125 0 72.996093-15.777344 97.902343-41.160156l15.492188 9.597656c4.429688 2.746094 9.347656 4.054688 14.210938 4.054688 9.042968 0 17.886718-4.53125 22.996093-12.757813 3.804688-6.117187 4.988281-13.367187 3.332031-20.414062-1.652343-7.039063-5.9375-13-12.050781-16.773438l-14.4375-8.9375c6.246094-15.652343 9.691407-32.714843 9.691407-50.566406 0-75.535156-61.519532-136.988281-137.132813-136.988281-34 0-64.382813 12.757812-87.527344 33.664062-9.851562-11.734375-24.269531-18.570312-39.804687-18.570312h-146.289063c.726563-14.203125 12.527344-25.53125 26.925781-25.53125h142.351563c2.996094 0 5.703125-1.78125 6.890625-4.527344l30.742188-71.101562c.539062-1.269532 2.1875-5.128907 3.128906-5.648438 0 0 .058594-.011719.199218-.011719h143.484376c.109374 0 .164062.007813.167968.003907.964844.535156 2.59375 4.285156 3.203125 5.683593l30.695313 71.070313c1.1875 2.75 3.898437 4.53125 6.894531 4.53125h60.261719c14.882812 0 26.988281 12.078125 26.988281 26.921875v256.78125c0 14.859375-12.105469 26.953125-26.988281 26.953125h-141.246094c-4.148438 0-7.507812 3.359375-7.507812 7.507812 0 4.144532 3.359374 7.507813 7.507812 7.507813h141.246094c23.160156 0 42.003906-18.828125 42.003906-41.96875v-256.785157c0-23.121093-18.84375-41.9375-42.003906-41.9375zm-47.339844 234.71875c2.699219 1.667969 4.59375 4.308594 5.328125 7.4375.734375 3.132813.214844 6.347657-1.472656 9.058594-3.492188 5.621094-10.90625 7.355469-16.539063 3.863282l-13.296875-8.234376c4.960938-6.316406 9.339844-13.035156 13.097657-20.097656zm-133.988281-194.246093c67.335937 0 122.117187 54.714843 122.117187 121.972656 0 67.238281-54.78125 121.945313-122.117187 121.945313-67.320313 0-122.089844-54.707032-122.089844-121.945313 0-67.257813 54.769531-121.972656 122.089844-121.972656zm-190.683594 15.089843h63.355469c10.78125 0 20.820312 4.636719 27.824218 12.636719-24.296874 25.550781-37.597656 58.765625-37.597656 94.246094 0 38.140625 15.878906 74.414063 43.75 100.328125-5.800781 13.359375-19.179687 22.351562-33.976562 22.351562h-63.355469zm-15.015625 0v229.5625h-67.953125v-229.5625zm40.363281-55.5625h-65.683593v-18.652343c0-1.472657 1.246093-2.714844 2.722656-2.714844h60.234375c1.476562 0 2.726562 1.242187 2.726562 2.714844zm0 0"/><path d="m483.003906 139.792969c0-15.070313-12.269531-27.328125-27.351562-27.328125-15.082032 0-27.347656 12.257812-27.347656 27.328125 0 15.066406 12.265624 27.328125 27.347656 27.328125 15.078125 0 27.351562-12.261719 27.351562-27.328125zm-39.683594 0c0-6.789063 5.53125-12.3125 12.332032-12.3125 6.800781 0 12.335937 5.523437 12.335937 12.3125 0 6.789062-5.535156 12.3125-12.335937 12.3125-6.800782 0-12.332032-5.523438-12.332032-12.3125zm0 0"/><path d="m345.132812 30.949219h-100.203124c-9.210938 0-12.550782 8.726562-14.15625 12.921875l-7.578126 19.828125c-1.777343 4.488281-1.484374 8.835937.820313 12.246093 2.25 3.324219 6.015625 5.15625 10.597656 5.15625h120.835938c4.585937 0 8.347656-1.832031 10.597656-5.15625 2.308594-3.410156 2.597656-7.753906.820313-12.242187l-7.578126-19.832031c-1.605468-4.191406-4.941406-12.921875-14.15625-12.921875zm-106.773437 35.136719 6.441406-16.851563c.292969-.765625.886719-2.320313 1.386719-3.269531h97.6875c.5.949218 1.09375 2.503906 1.386719 3.269531l6.441406 16.851563zm0 0"/><path d="m442.414062 198.152344h26.476563c4.144531 0 7.507813-3.363282 7.507813-7.507813 0-4.148437-3.363282-7.507812-7.507813-7.507812h-26.476563c-4.144531 0-7.507812 3.359375-7.507812 7.507812 0 4.144531 3.363281 7.507813 7.507812 7.507813zm0 0"/></svg>