<svg height="496pt" viewBox="0 0 496 496.01073" width="496pt" xmlns="http://www.w3.org/2000/svg"><path d="m176.003906 360.011719c0 8.835937-7.160156 16-16 16-8.835937 0-16-7.164063-16-16 0-8.835938 7.164063-16 16-16 8.839844 0 16 7.164062 16 16zm0 0" fill="#599072"/><path d="m352.003906 360.011719c0 8.835937-7.160156 16-16 16-8.835937 0-16-7.164063-16-16 0-8.835938 7.164063-16 16-16 8.839844 0 16 7.164062 16 16zm0 0" fill="#599072"/><path d="m488.003906 488.011719h-128v-16c0-35.34375 28.65625-64 64-64s64 28.65625 64 64zm0 0" fill="#ca5057"/><path d="m412.003906 409.171875c-29.605468 5.621094-52 31.597656-52 62.839844v16h104v-16c0-31.242188-22.390625-57.21875-52-62.839844zm0 0" fill="#dc6068"/><path d="m424.003906 408.011719c-17.671875 0-32-14.328125-32-32v-16c0-17.671875 14.328125-32 32-32s32 14.328125 32 32v16c0 17.671875-14.328125 32-32 32zm0 0" fill="#dcb29c"/><path d="m416.003906 329.140625c-13.773437 3.566406-24 15.972656-24 30.871094v16c0 14.894531 10.226563 27.296875 24 30.871093 13.777344-3.566406 24-15.976562 24-30.871093v-16c0-14.898438-10.222656-27.304688-24-30.871094zm0 0" fill="#f3c6b0"/><path d="m312.003906 488.011719h-128v-16c0-35.34375 28.65625-64 64-64s64 28.65625 64 64zm0 0" fill="#ca5057"/><path d="m236.003906 409.171875c-29.605468 5.621094-52 31.597656-52 62.839844v16h104v-16c0-31.242188-22.390625-57.21875-52-62.839844zm0 0" fill="#dc6068"/><path d="m248.003906 408.011719c-17.671875 0-32-14.328125-32-32v-16c0-17.671875 14.328125-32 32-32s32 14.328125 32 32v16c0 17.671875-14.328125 32-32 32zm0 0" fill="#dcb29c"/><path d="m240.003906 329.140625c-13.773437 3.566406-24 15.972656-24 30.871094v16c0 14.894531 10.226563 27.296875 24 30.871093 13.777344-3.566406 24-15.976562 24-30.871093v-16c0-14.898438-10.222656-27.304688-24-30.871094zm0 0" fill="#f3c6b0"/><path d="m136.003906 488.011719h-128v-16c0-35.34375 28.65625-64 64-64s64 28.65625 64 64zm0 0" fill="#ca5057"/><path d="m60.003906 409.171875c-29.605468 5.621094-52 31.597656-52 62.839844v16h104v-16c0-31.242188-22.390625-57.21875-52-62.839844zm0 0" fill="#dc6068"/><path d="m72.003906 408.011719c-17.671875 0-32-14.328125-32-32v-16c0-17.671875 14.328125-32 32-32s32 14.328125 32 32v16c0 17.671875-14.328125 32-32 32zm0 0" fill="#dcb29c"/><path d="m64.003906 329.140625c-13.773437 3.566406-24 15.972656-24 30.871094v16c0 14.894531 10.226563 27.296875 24 30.871093 13.777344-3.566406 24-15.976562 24-30.871093v-16c0-14.898438-10.222656-27.304688-24-30.871094zm0 0" fill="#f3c6b0"/><path d="m224.003906 264.011719v8c0 13.253906 10.746094 24 24 24 13.257813 0 24-10.746094 24-24v-8" fill="#999"/><path d="m236.003906 292.683594c7.144532-4.160156 12-11.808594 12-20.671875v-8h-24v8c0 8.863281 4.859375 16.511719 12 20.671875zm0 0" fill="#bab8b9"/><path d="m344.003906 104.011719c0-54.335938-45.140625-98.128907-99.964844-95.921875-50.113281 2.023437-91.121093 44.023437-92.019531 94.160156-.527343 29.457031 12.242188 55.898438 32.683594 73.824219 14.367187 12.609375 23.300781 30.257812 23.300781 49.367187v38.570313h80v-40.089844c0-18.390625 8.753906-35.296875 22.679688-47.304687 20.394531-17.582032 33.320312-43.566407 33.320312-72.605469zm0 0" fill="#eebc5a"/><path d="m286.683594 176.617188c20.394531-17.582032 33.320312-43.566407 33.320312-72.605469 0-49.050781-36.816406-89.378907-84.300781-95.167969-46.242187 6.046875-82.832031 46.078125-83.683594 93.40625-.527343 29.457031 12.242188 55.898438 32.683594 73.824219 14.367187 12.609375 23.300781 30.257812 23.300781 49.367187v38.570313h56v-40.089844c0-18.390625 8.753906-35.296875 22.679688-47.304687zm0 0" fill="#f8cf6a"/><path d="m280.003906 104.011719c0 17.671875-14.324218 32-32 32-17.671875 0-32-14.328125-32-32 0-17.675781 14.328125-32 32-32 17.675782 0 32 14.324219 32 32zm0 0" fill="#d9d7d8"/><path d="m264.003906 104.011719c0-17.050781-10.742187-30.871094-24-30.871094-13.253906 0-24 13.820313-24 30.871094s10.746094 30.871093 24 30.871093c13.257813 0 24-13.820312 24-30.871093zm0 0" fill="#efedee"/><path d="m72.003906 416.011719c-22.054687 0-40-17.945313-40-40v-16c0-22.058594 17.945313-40 40-40 22.058594 0 40 17.941406 40 40v16c0 22.054687-17.941406 40-40 40zm0-80c-13.230468 0-24 10.765625-24 24v16c0 13.230469 10.769532 24 24 24 13.234375 0 24-10.769531 24-24v-16c0-13.234375-10.765625-24-24-24zm0 0"/><path d="m136.003906 496.011719h-128c-4.421875 0-7.99999975-3.578125-7.99999975-8v-16c0-39.703125 32.29687475-72 71.99999975-72 39.707032 0 72 32.296875 72 72v16c0 4.421875-3.574218 8-8 8zm-120-16h112v-8c0-30.871094-25.125-56-56-56-30.871094 0-56 25.128906-56 56zm0 0"/><path d="m32.003906 464.011719h16v24h-16zm0 0"/><path d="m96.003906 464.011719h16v24h-16zm0 0"/><path d="m248.003906 416.011719c-22.054687 0-40-17.945313-40-40v-16c0-22.058594 17.945313-40 40-40 22.058594 0 40 17.941406 40 40v16c0 22.054687-17.941406 40-40 40zm0-80c-13.230468 0-24 10.765625-24 24v16c0 13.230469 10.769532 24 24 24 13.234375 0 24-10.769531 24-24v-16c0-13.234375-10.765625-24-24-24zm0 0"/><path d="m312.003906 496.011719h-128c-4.421875 0-8-3.578125-8-8v-16c0-39.703125 32.296875-72 72-72 39.707032 0 72 32.296875 72 72v16c0 4.421875-3.574218 8-8 8zm-120-16h112v-8c0-30.871094-25.125-56-56-56-30.871094 0-56 25.128906-56 56zm0 0"/><path d="m208.003906 464.011719h16v24h-16zm0 0"/><path d="m272.003906 464.011719h16v24h-16zm0 0"/><path d="m424.003906 416.011719c-22.054687 0-40-17.945313-40-40v-16c0-22.058594 17.945313-40 40-40 22.058594 0 40 17.941406 40 40v16c0 22.054687-17.941406 40-40 40zm0-80c-13.230468 0-24 10.765625-24 24v16c0 13.230469 10.769532 24 24 24 13.234375 0 24-10.769531 24-24v-16c0-13.234375-10.765625-24-24-24zm0 0"/><path d="m488.003906 496.011719h-128c-4.421875 0-8-3.578125-8-8v-16c0-39.703125 32.296875-72 72-72 39.707032 0 72 32.296875 72 72v16c0 4.421875-3.574218 8-8 8zm-120-16h112v-8c0-30.871094-25.125-56-56-56-30.871094 0-56 25.128906-56 56zm0 0"/><path d="m384.003906 464.011719h16v24h-16zm0 0"/><path d="m448.003906 464.011719h16v24h-16zm0 0"/><path d="m288.003906 272.011719h-80c-4.421875 0-8-3.578125-8-8v-38.5625c0-16.085938-7.503906-31.886719-20.574218-43.351563-23.054688-20.222656-35.960938-49.375-35.410157-79.984375.96875-54.070312 45.699219-99.832031 99.699219-102.0156248 28.488281-1.2304682 55.71875 9.1054688 76.320312 28.8984378 20.613282 19.796875 31.964844 46.4375 31.964844 75.015625 0 30.214843-13.160156 58.886719-36.09375 78.671875-12.648437 10.894531-19.90625 25.933594-19.90625 41.238281v40.089844c0 4.421875-3.574218 8-8 8zm-72-16h64v-32.089844c0-19.96875 9.28125-39.421875 25.457032-53.367187 19.410156-16.726563 30.542968-40.984376 30.542968-66.542969 0-24.175781-9.605468-46.730469-27.054687-63.480469-17.433594-16.746094-40.183594-25.34375-64.59375-24.457031-45.679688 1.839843-83.511719 40.558593-84.335938 86.3125-.46875 25.894531 10.457031 50.558593 29.953125 67.671875 16.542969 14.503906 26.03125 34.695312 26.03125 55.390625zm0 0"/><path d="m248.003906 304.011719c-17.648437 0-32-14.351563-32-32v-8h16v8c0 8.824219 7.175782 16 16 16 8.824219 0 16-7.175781 16-16v-8h16v8c0 17.648437-14.351562 32-32 32zm0 0"/><path d="m184.003906 224.011719h128v16h-128zm0 0"/><path d="m232.003906 192.011719h32v16h-32zm0 0"/><path d="m248.003906 144.011719c-22.054687 0-40-17.945313-40-40 0-22.058594 17.945313-40 40-40 22.058594 0 40 17.941406 40 40 0 22.054687-17.941406 40-40 40zm0-64c-13.230468 0-24 10.765625-24 24 0 13.230469 10.769532 24 24 24 13.234375 0 24-10.769531 24-24 0-13.234375-10.765625-24-24-24zm0 0"/><path d="m240.003906 48.011719h16v24h-16zm0 0"/><path d="m240.003906 136.011719h16v24h-16zm0 0"/><path d="m192.003906 96.011719h24v16h-24zm0 0"/><path d="m280.003906 96.011719h24v16h-24zm0 0"/><path d="m202.347656 69.667969 11.3125-11.3125 16 15.996093-11.316406 11.316407zm0 0"/><path d="m266.347656 133.667969 11.3125-11.3125 15.996094 15.996093-11.3125 11.316407zm0 0"/><path d="m202.347656 138.351562 15.996094-15.996093 11.316406 11.3125-16 16zm0 0"/><path d="m266.347656 74.355469 15.996094-16 11.316406 11.316406-16 15.996094zm0 0"/><path d="m160.003906 384.011719c-13.230468 0-24-10.769531-24-24 0-13.234375 10.769532-24 24-24 13.234375 0 24 10.765625 24 24 0 13.230469-10.765625 24-24 24zm0-32c-4.414062 0-8 3.582031-8 8 0 4.414062 3.585938 8 8 8 4.417969 0 8-3.585938 8-8 0-4.417969-3.582031-8-8-8zm0 0"/><path d="m336.003906 384.011719c-13.230468 0-24-10.769531-24-24 0-13.234375 10.769532-24 24-24 13.234375 0 24 10.765625 24 24 0 13.230469-10.765625 24-24 24zm0-32c-4.414062 0-8 3.582031-8 8 0 4.414062 3.585938 8 8 8 4.417969 0 8-3.585938 8-8 0-4.417969-3.582031-8-8-8zm0 0"/><path d="m240.003906 296.011719h16v32h-16zm0 0"/><path d="m176.003906 352.011719h40v16h-40zm0 0"/><path d="m104.003906 352.011719h40v16h-40zm0 0"/><path d="m280.003906 352.011719h40v16h-40zm0 0"/><path d="m352.003906 352.011719h40v16h-40zm0 0"/></svg>