<?xml version="1.0" encoding="iso-8859-1"?>
<!-- Generator: Adobe Illustrator 21.0.0, SVG Export Plug-In . SVG Version: 6.00 Build 0)  -->
<svg xmlns="http://www.w3.org/2000/svg" xmlns:xlink="http://www.w3.org/1999/xlink" version="1.1" id="Capa_1" x="0px" y="0px" viewBox="0 0 512 512" style="enable-background:new 0 0 512 512;" xml:space="preserve" width="512" height="512">
<g>
	<rect x="110" y="165.5" style="fill:#D98868;" width="34" height="37.992"/>
	<g>
		<g>
			<ellipse style="fill:#D98868;" cx="62.529" cy="100.741" rx="23.529" ry="26"/>
			<ellipse style="fill:#D98868;" cx="191.471" cy="100.741" rx="23.529" ry="26"/>
		</g>
		<path style="fill:#EBAD88;" d="M68.001,116.618V73.069c0-30.69,24.879-55.569,55.569-55.569h6.862    c30.69,0,55.569,24.879,55.569,55.569v43.549c0,32.52-26.362,58.882-58.882,58.882h-0.236    C94.364,175.5,68.001,149.138,68.001,116.618z"/>
		<path style="fill:#E8916F;" d="M130.539,17.5h-7.075c-3.93,0-7.763,0.417-11.462,1.197c25.13,5.302,44,27.675,44,54.478v43.329    c0,27.461-18.692,50.538-44,57.114c4.719,1.226,9.668,1.881,14.769,1.881h0.461c32.457,0,58.769-26.413,58.769-58.995V73.175    C186.001,42.427,161.17,17.5,130.539,17.5z"/>
		<g>
			<path style="fill:#8C4A37;" d="M189.099,89.011c-1.641,4.276-7.109,5.912-10.781,3.074     c-10.713-8.248-13.005-32.275-13.005-32.275c-17.929-10.282-20.91-21.586-20.91-21.586C134.041,55.393,88.685,59.81,88.685,59.81     S86.402,83.837,75.69,92.085c-3.671,2.838-9.139,1.201-10.781-3.074c-5.05-13.12-1.991-29.201-1.991-29.201     s1.826-43.872,41.345-50.418c41.918-6.934,49.202,7.416,49.202,7.416C192.799,18.7,191.08,59.81,191.08,59.81     S194.14,75.891,189.099,89.011z"/>
		</g>
		<g>
			<path style="fill:#804231;" d="M191.08,59.81c0,0,1.719-41.11-37.615-43.002c0,0-6.795-13.361-44.955-8.059     c6.071,1.269,9.81,3.283,12.031,4.981c2.543,1.944,5.58,3.163,8.751,3.683c27.899,4.573,31.365,31.188,31.754,39.746     c1.321,0.886,2.736,1.772,4.269,2.651c0,0,2.292,24.026,13.005,32.275c3.671,2.838,9.139,1.201,10.781-3.074     C194.14,75.891,191.08,59.81,191.08,59.81z"/>
		</g>
	</g>
	<path style="fill:#47D5E6;" d="M204,256.326V504.5H50V256.326c0-32.49,22.777-58.826,50.875-58.826h52.25   C181.223,197.5,204,223.837,204,256.326z"/>
	<path style="fill:#22C0D4;" d="M153.125,197.5h-30.186c28.098,0,50.875,26.337,50.875,58.826V504.5H204V256.326   C204,223.837,181.223,197.5,153.125,197.5z"/>
	<rect x="368" y="165.5" style="fill:#D98868;" width="34" height="37.992"/>
	<g>
		<g>
			<ellipse style="fill:#D98868;" cx="320.529" cy="100.741" rx="23.529" ry="26"/>
			<ellipse style="fill:#D98868;" cx="449.471" cy="100.741" rx="23.529" ry="26"/>
		</g>
		<path style="fill:#EBAD88;" d="M326.001,116.618V73.069c0-30.69,24.879-55.569,55.569-55.569h6.862    c30.69,0,55.569,24.879,55.569,55.569v43.549c0,32.52-26.362,58.882-58.882,58.882h-0.236    C352.364,175.5,326.001,149.138,326.001,116.618z"/>
		<path style="fill:#E8916F;" d="M388.539,17.5h-7.075c-3.93,0-7.763,0.417-11.462,1.197c25.13,5.302,44,27.675,44,54.478v43.329    c0,27.461-18.692,50.538-44,57.114c4.719,1.226,9.668,1.881,14.769,1.881h0.461c32.457,0,58.769-26.413,58.769-58.995V73.175    C444.001,42.427,419.17,17.5,388.539,17.5z"/>
		<g>
			<path style="fill:#8C4A37;" d="M447.099,89.011c-1.641,4.276-7.109,5.912-10.781,3.074     c-10.712-8.248-13.005-32.275-13.005-32.275c-17.929-10.282-20.91-21.586-20.91-21.586     c-10.363,17.168-55.719,21.586-55.719,21.586s-2.282,24.026-12.995,32.275c-3.671,2.838-9.139,1.201-10.781-3.074     c-5.05-13.12-1.991-29.201-1.991-29.201s1.826-43.872,41.345-50.418c41.918-6.934,49.202,7.416,49.202,7.416     C450.799,18.7,449.08,59.81,449.08,59.81S452.14,75.891,447.099,89.011z"/>
		</g>
		<g>
			<path style="fill:#804231;" d="M449.08,59.81c0,0,1.719-41.11-37.615-43.002c0,0-6.795-13.361-44.955-8.059     c6.071,1.269,9.81,3.283,12.031,4.981c2.543,1.944,5.58,3.163,8.751,3.683c27.899,4.573,31.365,31.188,31.754,39.746     c1.321,0.886,2.736,1.772,4.269,2.651c0,0,2.292,24.026,13.005,32.275c3.671,2.838,9.139,1.201,10.781-3.074     C452.14,75.891,449.08,59.81,449.08,59.81z"/>
		</g>
	</g>
	<path style="fill:#47D5E6;" d="M462,256.326V504.5H308V256.326c0-32.49,22.777-58.826,50.875-58.826h52.25   C439.223,197.5,462,223.837,462,256.326z"/>
	<path style="fill:#22C0D4;" d="M411.125,197.5h-30.186c28.098,0,50.875,26.337,50.875,58.826V504.5H462V256.326   C462,223.837,439.223,197.5,411.125,197.5z"/>
	<rect x="399.5" y="402.5" style="fill:#D98868;" width="34" height="37.992"/>
	<g>
		<g>
			<ellipse style="fill:#D98868;" cx="352.029" cy="337.741" rx="23.529" ry="26"/>
			<ellipse style="fill:#D98868;" cx="480.971" cy="337.741" rx="23.529" ry="26"/>
		</g>
		<path style="fill:#EBAD88;" d="M357.501,353.618v-43.549c0-30.69,24.879-55.569,55.569-55.569h6.862    c30.69,0,55.569,24.879,55.569,55.569v43.549c0,32.52-26.362,58.882-58.882,58.882h-0.236    C383.864,412.5,357.501,386.138,357.501,353.618z"/>
		<path style="fill:#E8916F;" d="M420.039,254.5h-7.075c-3.93,0-7.763,0.417-11.462,1.197c25.13,5.302,44,27.675,44,54.479v43.329    c0,27.461-18.692,50.538-44,57.114c4.719,1.226,9.668,1.881,14.769,1.881h0.461c32.457,0,58.769-26.413,58.769-58.995v-43.329    C475.501,279.427,450.67,254.5,420.039,254.5z"/>
		<g>
			<path style="fill:#8C4A37;" d="M478.599,326.011c-1.641,4.276-7.109,5.912-10.781,3.074     c-10.712-8.248-13.005-32.275-13.005-32.275c-17.929-10.282-20.91-21.586-20.91-21.586     c-10.363,17.168-55.719,21.586-55.719,21.586s-2.282,24.026-12.995,32.275c-3.671,2.838-9.139,1.201-10.781-3.074     c-5.05-13.12-1.991-29.201-1.991-29.201s1.826-43.872,41.345-50.418c41.918-6.934,49.202,7.416,49.202,7.416     c39.334,1.892,37.615,43.002,37.615,43.002S483.64,312.891,478.599,326.011z"/>
		</g>
		<g>
			<path style="fill:#804231;" d="M480.58,296.81c0,0,1.719-41.11-37.615-43.002c0,0-6.795-13.361-44.955-8.059     c6.071,1.269,9.81,3.283,12.031,4.981c2.543,1.944,5.58,3.163,8.751,3.683c27.899,4.573,31.365,31.188,31.754,39.746     c1.321,0.886,2.736,1.772,4.269,2.651c0,0,2.292,24.026,13.005,32.275c3.671,2.838,9.139,1.201,10.781-3.074     C483.64,312.891,480.58,296.81,480.58,296.81z"/>
		</g>
	</g>
	<path style="fill:#FFD659;" d="M493.5,493.326V504.5h-154v-11.174c0-32.49,22.777-58.826,50.875-58.826h52.25   C470.723,434.5,493.5,460.837,493.5,493.326z"/>
	<path style="fill:#FFBD54;" d="M442.625,434.5h-30.186c28.098,0,50.875,26.337,50.875,58.826V504.5H493.5v-11.174   C493.5,460.837,470.723,434.5,442.625,434.5z"/>
	<rect x="78.5" y="402.5" style="fill:#D98868;" width="34" height="37.992"/>
	<g>
		<g>
			<ellipse style="fill:#D98868;" cx="31.029" cy="337.741" rx="23.529" ry="26"/>
			<ellipse style="fill:#D98868;" cx="159.971" cy="337.741" rx="23.529" ry="26"/>
		</g>
		<path style="fill:#EBAD88;" d="M36.501,353.618v-43.549c0-30.69,24.879-55.569,55.569-55.569h6.862    c30.69,0,55.569,24.879,55.569,55.569v43.549c0,32.52-26.362,58.882-58.882,58.882h-0.236    C62.864,412.5,36.501,386.138,36.501,353.618z"/>
		<path style="fill:#E8916F;" d="M99.039,254.5h-7.075c-3.93,0-7.763,0.417-11.462,1.197c25.13,5.302,44,27.675,44,54.479v43.329    c0,27.461-18.692,50.538-44,57.114c4.719,1.226,9.668,1.881,14.769,1.881h0.461c32.457,0,58.769-26.413,58.769-58.995v-43.329    C154.501,279.427,129.67,254.5,99.039,254.5z"/>
		<g>
			<path style="fill:#8C4A37;" d="M157.599,326.011c-1.641,4.276-7.109,5.912-10.781,3.074     c-10.713-8.248-13.005-32.275-13.005-32.275c-17.929-10.282-20.91-21.586-20.91-21.586     c-10.363,17.168-55.719,21.586-55.719,21.586s-2.282,24.026-12.995,32.275c-3.671,2.838-9.139,1.201-10.781-3.074     c-5.05-13.12-1.991-29.201-1.991-29.201s1.826-43.872,41.345-50.418c41.918-6.934,49.202,7.416,49.202,7.416     c39.334,1.892,37.615,43.002,37.615,43.002S162.64,312.891,157.599,326.011z"/>
		</g>
		<g>
			<path style="fill:#804231;" d="M159.58,296.81c0,0,1.719-41.11-37.615-43.002c0,0-6.795-13.361-44.955-8.059     c6.071,1.269,9.81,3.283,12.031,4.981c2.543,1.944,5.58,3.163,8.751,3.683c27.899,4.573,31.365,31.188,31.754,39.746     c1.321,0.886,2.736,1.772,4.269,2.651c0,0,2.292,24.026,13.005,32.275c3.671,2.838,9.139,1.201,10.781-3.074     C162.64,312.891,159.58,296.81,159.58,296.81z"/>
		</g>
	</g>
	<path style="fill:#FFD659;" d="M172.5,493.326V504.5h-154v-11.174c0-32.49,22.777-58.826,50.875-58.826h52.25   C149.723,434.5,172.5,460.837,172.5,493.326z"/>
	<path style="fill:#FFBD54;" d="M121.625,434.5H91.439c28.098,0,50.875,26.337,50.875,58.826V504.5H172.5v-11.174   C172.5,460.837,149.723,434.5,121.625,434.5z"/>
	<g>
		<g>
			<path style="fill:#E8916F;" d="M201.48,321.227c0,12.931-7.763,23.414-17.34,23.414c-9.577,0-15.14-12.039-15.14-24.97     c0-12.931,5.563-21.858,15.14-21.858C193.717,297.812,201.48,308.295,201.48,321.227z"/>
			<path style="fill:#D98868;" d="M310.52,321.227c0,12.931,7.763,23.414,17.34,23.414c9.577,0,15.14-12.039,15.14-24.97     c0-12.931-5.563-21.858-15.14-21.858C318.283,297.812,310.52,308.295,310.52,321.227z"/>
		</g>
	</g>
	<rect x="238.317" y="393.814" style="fill:#D98868;" width="35.366" height="56.762"/>
	<path style="fill:#EBAD88;" d="M192.341,342.927v-47.97c0-33.179,26.897-60.076,60.076-60.076h7.164   c33.179,0,60.076,26.897,60.076,60.076v47.97c0,35.158-28.501,63.658-63.658,63.658h0   C220.842,406.586,192.341,378.085,192.341,342.927z"/>
	<path style="fill:#E8916F;" d="M259.582,234.881h-7.164c-2.379,0-4.721,0.154-7.028,0.424c29.866,3.493,53.049,28.943,53.049,59.84   v47.584c0,31.641-22.942,57.902-53.049,62.969c3.451,0.581,6.994,0.888,10.61,0.888h0c35.158,0,63.659-28.59,63.659-63.857v-47.584   C319.659,261.862,292.761,234.881,259.582,234.881z"/>
	<path style="fill:#FF2C5C;" d="M338.756,492.509V504.5H173.244v-11.991c0-34.866,24.479-63.13,54.678-63.13h56.156   C314.277,429.379,338.756,457.643,338.756,492.509z"/>
	<path style="fill:#E62753;" d="M284.078,429.379h-30c30.199,0,54.678,28.264,54.678,63.13V504.5h30v-11.991   C338.756,457.643,314.277,429.379,284.078,429.379z"/>
	<polygon style="fill:#DCDFE8;" points="229.494,429.379 282.506,429.379 256,504.5  "/>
	<g>
		<polygon style="fill:#D6244D;" points="256,504.5 236.501,422.195 215.167,429.379 215.167,461.103   "/>
		<polygon style="fill:#D6244D;" points="256,504.5 275.499,422.195 296.833,429.379 296.833,461.103   "/>
	</g>
	<path style="fill:#FFD659;" d="M192.068,307.889c0,0,5.297,2.143,10.734-8.089c6.218-11.702,22.604-18.237,42.241-17.525   c24.368,0.884,34.375-7.721,39.216-16.365c6.695,22.188,16.113,16.365,22.235,35.287c3.51,10.85,12.714,6.692,12.714,6.692   s25.328-14.732,12.274-38.123c2.243-47.006-34.506-49.791-34.506-49.791s-16.796-21.396-62.836-10.267   c-66.436,16.059-54.641,62.889-54.641,62.889S168.074,294.778,192.068,307.889z"/>
	<g>
		<path style="fill:#FFBD54;" d="M331.481,269.766c2.243-47.006-34.506-49.791-34.506-49.791s-14.572-18.532-53.734-12.11    c8.412,1.703,14.333,4.714,18.157,7.308c4.049,2.746,8.45,4.952,13.076,6.541c10.62,3.647,28.595,14.756,27.006,48.052    c5.162,9.25,4.313,17.138,1.411,23.304c1.284,2.113,2.496,4.713,3.601,8.127c3.51,10.85,12.714,6.692,12.714,6.692    S344.536,293.157,331.481,269.766z"/>
	</g>
	<g>
		<path d="M480.625,371.226c0.115,0.001,0.229,0.013,0.345,0.013c17.11,0,31.03-15.028,31.03-33.5    c0-15.386-9.829-28.526-23.057-32.361c-0.15-4.32-0.614-7.662-0.853-9.149c0.05-15.245-5.923-31.875-18.621-41.296    c-0.658-35.93-26.57-64.935-58.349-64.935h-1.62v-11.633c3.32-1.31,6.54-2.884,9.622-4.725c3.556-2.124,4.716-6.73,2.592-10.285    s-6.729-4.714-10.285-2.592c-7.923,4.733-17.021,7.235-26.309,7.235h-0.24c-25.194,0-46.779-17.992-50.754-43.364    c-0.415-2.598-0.626-5.295-0.626-8.017v-16.18c1.701-0.491,3.317-1.293,4.765-2.413c9.545-7.348,13.512-22.78,15.04-31.471    c11.037-1.56,33.863-5.859,47.503-15.992c3.19,4.148,8.084,9.045,15.526,13.788c1.212,8.003,4.989,25.654,15.397,33.666    c1.451,1.122,3.068,1.921,4.769,2.414v16.188c0,2.722-0.211,5.419-0.629,8.039c-0.887,5.657-2.705,11.087-5.402,16.138    c-1.952,3.653-0.572,8.197,3.082,10.149c3.637,1.945,8.188,0.587,10.148-3.082c2.323-4.348,4.129-8.918,5.423-13.636    c0.116,0.001,0.231,0.013,0.347,0.013c17.11,0,31.03-15.028,31.03-33.5c0-15.386-9.829-28.526-23.057-32.361    c-0.15-4.32-0.614-7.662-0.853-9.149c0.01-2.999-0.318-12.962-4.669-23.155c-4.697-11.006-14.854-24.245-36.684-26.501    c-5.481-5.433-19.671-13.291-54.2-7.581c-18.731,3.103-32.938,14.148-41.086,31.942c-5.294,11.564-6.319,22.416-6.494,25.001    c-0.219,1.301-0.741,4.811-0.901,9.446c-13.228,3.838-23.056,16.976-23.056,32.359c0,18.472,13.92,33.5,31.03,33.5    c0.119,0,0.237-0.012,0.355-0.013c5.449,19.82,19.88,36.328,39.615,44.119v11.655h-1.63c-18.587,0-35.968,10.105-46.889,26.819    c-4.563-2.178-8.679-3.289-11.336-3.83c-6.401-6.007-26.945-20.563-68.267-10.569c-13.018,3.147-24.044,7.626-33.033,13.385    c-10.953-16.101-28.03-25.804-46.224-25.804h-1.62v-11.655c6.869-2.712,13.294-6.555,18.967-11.451    c10.022-8.649,17.185-20.066,20.648-32.668c0.118,0.001,0.236,0.013,0.354,0.013c17.11,0,31.03-15.028,31.03-33.5    c0-15.386-9.829-28.526-23.057-32.361c-0.15-4.32-0.614-7.662-0.853-9.149c0.01-2.999-0.318-12.962-4.669-23.155    c-4.697-11.006-14.854-24.245-36.684-26.501c-5.482-5.433-19.674-13.291-54.2-7.581C84.305,5.091,70.098,16.136,61.952,33.93    c-5.294,11.563-6.319,22.415-6.495,25c-0.219,1.301-0.741,4.812-0.901,9.447C41.328,72.216,31.5,85.354,31.5,100.737    c0,18.472,13.92,33.5,31.03,33.5c0.119,0,0.237-0.012,0.356-0.013c3.467,12.61,10.628,24.021,20.647,32.668    c5.673,4.896,12.099,8.739,18.967,11.451v11.655h-1.63c-9.21,0-18.024,2.364-26.197,7.028c-3.598,2.053-4.85,6.633-2.797,10.231    c2.053,3.597,6.633,4.851,10.231,2.797c5.879-3.355,12.192-5.056,18.762-5.056h52.25c13.516,0,26.303,7.634,34.456,20.225    c-3.324,3.349-6.184,6.98-8.553,10.901c-9.007,14.909-8.183,29.532-7.317,35.51c-2.401,5.98-3.811,14.764-0.808,23.474    c-1.262,1.073-2.425,2.293-3.453,3.684c-0.131-1.106-0.26-1.978-0.355-2.563c0.01-2.999-0.318-12.962-4.669-23.155    c-4.697-11.006-14.854-24.245-36.684-26.501c-5.481-5.433-19.675-13.291-54.2-7.581c-4.403,0.729-8.545,1.914-12.427,3.505    c1.024-4.33,2.524-8.498,4.483-12.384c1.865-3.698,0.379-8.208-3.319-10.073c-3.698-1.868-8.209-0.38-10.074,3.319    c-4.608,9.138-7.222,19.459-7.635,30.02c-4.884,4.798-8.958,10.663-12.113,17.555c-5.294,11.563-6.319,22.415-6.495,25    c-0.219,1.301-0.741,4.812-0.901,9.447C9.828,309.218,0,322.356,0,337.739c0,18.472,13.92,33.5,31.03,33.5    c0.116,0,0.231-0.011,0.347-0.013c2.231,8.121,6.002,15.769,11.123,22.511v40.738C23.804,445.544,11,467.761,11,493.326V504.5    c0,4.143,3.358,7.5,7.5,7.5h475c4.143,0,7.5-3.357,7.5-7.5v-11.174c0-25.565-12.803-47.782-31.5-58.85v-40.739    C474.624,386.991,478.396,379.341,480.625,371.226z M465.5,100.737c0,9.425-6.143,17.211-14.048,18.343    c0.03-0.819,0.048-1.641,0.048-2.463V95.993c1.103-1.26,1.99-2.71,2.6-4.296c0.965-2.511,1.675-5.098,2.19-7.667    C461.715,87.009,465.5,93.401,465.5,100.737z M328.286,61.209c0.068-0.36,0.11-0.725,0.125-1.091    c0.004-0.095,0.525-9.78,5.179-19.944c6.061-13.236,16.119-21.105,29.896-23.387c31.398-5.194,40.117,2.342,41.389,3.686    c1.026,2.725,3.236,3.679,6.229,3.822c13.224,0.636,22.006,6.283,26.848,17.265c3.898,8.843,3.637,17.87,3.635,17.933    c-0.023,0.564,0.02,1.146,0.122,1.7c0.026,0.139,2.477,13.681-1.373,24.48c-5.547-4.986-8.796-18.79-9.557-26.578    c-0.23-2.423-1.623-4.583-3.734-5.794c-13.907-7.976-17.066-16.088-17.406-17.069c-0.67-2.967-3.031-5.073-6.039-5.576    c-3.024-0.509-6.027,1.057-7.617,3.689c-5.789,9.592-32.74,16.299-50.025,17.997c-3.573,0.349-6.399,3.181-6.739,6.756    c-0.623,6.568-3.756,21.349-9.547,26.574c-1.279-3.578-1.862-7.456-2.073-11.049c0-0.008,0.001-0.016,0.001-0.023    c-0.001-0.077-0.012-0.151-0.016-0.227C327.196,67.234,328.271,61.29,328.286,61.209z M304.5,100.737    c0-7.334,3.787-13.727,9.215-16.706c0.515,2.569,1.226,5.155,2.192,7.665c0.608,1.583,1.493,3.03,2.593,4.287v20.634    c0,0.823,0.018,1.644,0.048,2.463C310.643,117.948,304.5,110.162,304.5,100.737z M207.5,100.737    c0,9.425-6.143,17.211-14.048,18.343c0.087-2.368,0.031-1.759,0.048-23.087c2.622-2.994,3.883-7.438,4.789-11.963    C203.715,87.008,207.5,93.401,207.5,100.737z M70.412,60.118c0.004-0.095,0.525-9.78,5.179-19.944    c6.06-13.236,16.119-21.105,29.896-23.387c31.4-5.194,40.116,2.342,41.388,3.686c1.027,2.725,3.237,3.679,6.23,3.822    c13.224,0.636,22.006,6.283,26.848,17.265c4.202,9.531,3.439,17.956,3.76,19.649c0.026,0.137,2.446,13.733-1.376,24.464    c-5.547-4.986-8.796-18.79-9.556-26.578c-0.231-2.423-1.624-4.583-3.735-5.794c-13.908-7.977-17.067-16.088-17.407-17.07    c-0.67-2.966-3.031-5.073-6.038-5.575c-3.036-0.511-6.028,1.058-7.618,3.689c-5.79,9.592-32.74,16.299-50.025,17.997    c-3.574,0.349-6.4,3.181-6.739,6.756c-0.624,6.568-3.757,21.349-9.547,26.574c-1.279-3.579-1.862-7.458-2.073-11.051    c0-0.007,0.001-0.014,0.001-0.021c-0.001-0.069-0.011-0.135-0.014-0.203C69.161,66.64,70.361,61.3,70.412,60.118z M46.5,100.737    c0-7.334,3.787-13.727,9.216-16.706c0.862,4.294,2.165,8.956,4.784,11.952c0.017,21.078-0.037,20.773,0.048,23.097    C52.643,117.948,46.5,110.162,46.5,100.737z M76.126,124.632c-0.997-6.228-0.486-9.801-0.626-24.196    c1.701-0.491,3.317-1.293,4.765-2.413c9.544-7.348,13.512-22.78,15.041-31.471c11.037-1.56,33.863-5.859,47.503-15.992    c3.19,4.148,8.083,9.045,15.526,13.788c1.213,8.003,4.99,25.654,15.397,33.666c1.451,1.122,3.069,1.921,4.769,2.414    c-0.14,14.406,0.374,17.956-0.63,24.227c-3.977,25.389-25.598,43.341-50.75,43.341h-0.24    C101.686,167.997,80.101,150.005,76.126,124.632z M117.5,182.322c6.185,0.883,12.539,0.922,19,0v7.675h-19V182.322z M407,426.999    v-7.675c6.106,0.872,12.347,0.934,19-0.01v7.685H407z M390.375,426.999c-21.729,0-40.709,13.569-50.759,33.632    c-5.357-12.085-13.703-22.24-24.116-29.13v-49.607c5.092-7.75,8.706-16.546,10.454-25.993    c5.596,9.359,15.325,15.339,26.076,15.339c0.119,0,0.237-0.012,0.355-0.013c5.449,19.82,19.88,36.328,39.615,44.119v11.655    H390.375z M121.625,426.999H120v-11.655c6.869-2.712,13.294-6.555,18.967-11.451c10.022-8.649,17.185-20.066,20.648-32.668    c0.118,0.001,0.236,0.013,0.354,0.013c10.743,0,20.465-5.971,26.063-15.318c1.712,9.328,5.255,18.162,10.466,26.066v49.514    c-10.413,6.89-18.76,17.046-24.116,29.13C162.334,440.568,143.354,426.999,121.625,426.999z M86,426.999v-7.685    c3.085,0.438,6.214,0.685,9.38,0.685h0.24c3.155,0,6.288-0.234,9.38-0.675v7.675H86z M55.788,386.368    c-0.001-0.001-0.002-0.002-0.002-0.003c-0.003-0.003-0.005-0.006-0.008-0.009c-5.873-7.096-9.728-15.636-11.151-24.722    C44.21,359.038,44,356.341,44,353.619v-16.18c6.131-1.772,9.012-6.844,11.854-10.388c1.19-1.491,5.757-11.021,7.951-23.496    c11.037-1.56,33.863-5.859,47.503-15.992c3.19,4.148,8.083,9.045,15.526,13.788c1.213,8.003,4.99,25.654,15.397,33.666    c1.451,1.122,3.069,1.921,4.769,2.414v16.187c0,2.723-0.21,5.419-0.63,8.039c-3.977,25.389-25.598,43.341-50.75,43.341h-0.24    C80.021,404.999,65.592,398.208,55.788,386.368z M349.046,331.761c0.297,0.424,0.614,0.834,0.954,1.224    c0.017,21.129-0.037,20.765,0.048,23.095c-4.507-0.655-8.534-3.498-11.108-7.695C343.632,344.865,347.185,339.051,349.046,331.761    z M327.86,337.138c-0.234,0-0.467-0.032-0.7-0.062V311.55c1.635-1.253,3.302-2.72,4.912-4.372    C338.606,314.343,335.022,337.138,327.86,337.138z M300.5,422.851c-1.263-0.709-0.309-0.195-19.32-6.657v-6.721    c7.041-2.673,13.547-6.432,19.32-11.073V422.851z M266.18,421.879h-20.36v-8.516c6.863,0.977,13.569,0.964,20.36-0.013V421.879z     M264.313,436.879L256,471.967l-8.312-35.087H264.313z M230.82,416.194c-18.929,6.435-18.058,5.949-19.32,6.657v-24.399    c5.869,4.722,12.38,8.431,19.32,11.053V416.194z M162,332.995c0.341-0.39,0.658-0.801,0.956-1.226    c1.861,7.286,5.413,13.097,10.104,16.615c-2.574,4.198-6.602,7.041-11.108,7.696C162.039,353.712,161.983,354.321,162,332.995z     M184.84,312.275v24.801c-0.233,0.03-0.466,0.062-0.7,0.062c-7.138,0-10.385-21.395-4.809-29.211    C180.934,309.44,182.76,310.896,184.84,312.275z M222.667,434.767l8.432-2.84l11.134,46.997l-19.566-20.795V434.767z     M280.9,431.927l8.433,2.84v23.362l-19.566,20.795L280.9,431.927z M416.62,404.999h-0.24c-25.194,0-46.779-17.992-50.754-43.364    c-0.415-2.598-0.626-5.295-0.626-8.017v-16.18c1.701-0.491,3.317-1.293,4.765-2.413c9.545-7.348,13.512-22.78,15.04-31.471    c11.037-1.56,33.863-5.859,47.503-15.992c3.19,4.148,8.084,9.045,15.526,13.788c1.929,12.735,8.019,32.559,20.166,36.08v16.188    c0,2.722-0.211,5.419-0.629,8.039c-1.42,9.062-5.274,17.603-11.149,24.699c-0.002,0.002-0.004,0.004-0.006,0.006    c-0.001,0.002-0.003,0.003-0.004,0.005C446.408,398.208,431.978,404.999,416.62,404.999z M497,337.739    c0,9.425-6.143,17.211-14.048,18.343c0.086-2.374,0.031-1.706,0.048-23.087c2.622-2.995,3.883-7.438,4.789-11.963    C493.215,324.011,497,330.403,497,337.739z M471.836,322.675c-5.551-4.99-8.816-18.995-9.557-26.578    c-0.23-2.423-1.623-4.583-3.734-5.794c-13.907-7.976-17.066-16.088-17.406-17.069c-0.67-2.967-3.031-5.073-6.039-5.576    c-3.023-0.509-6.027,1.057-7.617,3.689c-5.789,9.592-32.74,16.299-50.025,17.997c-3.573,0.349-6.399,3.181-6.739,6.756    c-0.623,6.568-3.756,21.349-9.547,26.574c-1.278-3.578-1.862-7.455-2.073-11.047c0-0.006,0.001-0.012,0.001-0.019    c-0.001-0.067-0.011-0.132-0.014-0.198c-0.43-7.858,0.774-12.982,0.826-14.29c0.004-0.095,0.525-9.78,5.179-19.944    c6.061-13.236,16.119-21.105,29.896-23.387c31.399-5.195,40.116,2.342,41.389,3.686c1.026,2.725,3.236,3.679,6.229,3.822    c6.198,0.298,11.408,1.712,15.706,4.245c0.045,0.025,0.088,0.054,0.134,0.079c4.806,2.872,8.459,7.16,11.008,12.941    c3.898,8.843,3.637,17.87,3.635,17.933C473.009,298.361,475.884,311.319,471.836,322.675z M375.5,182.322    c3.092,0.441,6.225,0.675,9.38,0.675h0.24c3.151,0,6.285-0.229,9.38-0.669v7.669h-19V182.322z M358.87,204.997h52.25    c21.461,0,39.322,18.54,42.769,42.793c-2.234-0.539-4.611-0.956-7.151-1.219c-5.482-5.433-19.672-13.29-54.2-7.581    c-18.731,3.103-32.938,14.148-41.086,31.942c-5.294,11.564-6.319,22.416-6.494,25.001c-0.094,0.555-0.243,1.519-0.395,2.794    c-1.194-1.607-2.548-3.011-4.061-4.183c3.01-7.467,3.505-16.474-1.452-26.499c0.56-21.387-6.376-34.57-14.729-42.691    C332.474,212.673,345.294,204.997,358.87,204.997z M186.784,270.813c-0.384-1.62-8.737-39.832,49.118-53.817    c39.443-9.535,54.151,6.427,55.205,7.649c1.293,1.734,3.084,2.639,5.248,2.803c0.076,0.007,7.687,0.755,14.758,6.201    c9.334,7.19,13.667,19.221,12.878,35.757c-0.067,1.399,0.26,2.789,0.942,4.013c6.313,11.313,0.402,21.68-8.984,27.668    c-0.954,0.178-1.482,0.388-2.319-2.201c-3.52-10.88-8.229-15.244-12.384-19.096c-3.85-3.567-6.89-6.386-9.806-16.05    c-0.869-2.88-3.376-4.962-6.366-5.289c-2.994-0.32-5.887,1.167-7.357,3.791c-2.661,4.749-8.039,11.202-23.962,12.401    c-4.131,0.311-7.227,3.911-6.916,8.042c0.312,4.13,3.904,7.228,8.042,6.915c11.273-0.849,20.365-4.063,27.18-9.588    c3.014,5.241,6.215,8.208,8.989,10.779c3.479,3.225,5.993,5.555,8.309,12.711c2.235,6.908,6.358,9.977,9.425,11.334    c1.147,0.507,2.281,0.844,3.378,1.054v27.037c0,30.967-25.193,56.161-56.16,56.161c-31.039,0-56.16-25.115-56.16-56.161v-29.009    c3.111-1.647,6.501-4.798,9.585-10.603c2.56-4.818,8.027-8.767,15.396-11.118c3.946-1.259,6.124-5.479,4.865-9.425    c-1.259-3.945-5.478-6.126-9.425-4.864c-11.282,3.6-19.609,9.951-24.081,18.368c-1.052,1.98-1.986,3.146-2.626,3.773    c-13.853-8.968-8.609-21.543-7.387-24.021C187.049,274.383,187.24,272.626,186.784,270.813z M38.786,298.21    c0.069-0.359,0.11-0.724,0.126-1.09c0.004-0.095,0.525-9.78,5.179-19.944c6.06-13.236,16.119-21.105,29.896-23.387    c31.399-5.195,40.116,2.342,41.388,3.686c1.027,2.725,3.237,3.679,6.23,3.822c13.224,0.636,22.006,6.283,26.848,17.265    c3.898,8.843,3.637,17.87,3.634,17.933c-0.024,0.575,0.019,1.15,0.126,1.716c0.026,0.137,2.446,13.733-1.376,24.464    c-5.547-4.986-8.796-18.79-9.556-26.578c-0.231-2.423-1.624-4.583-3.735-5.794c-13.908-7.977-17.067-16.088-17.407-17.07    c-0.67-2.966-3.031-5.073-6.038-5.575c-3.036-0.511-6.028,1.058-7.618,3.689c-5.79,9.592-32.74,16.299-50.025,17.997    c-3.574,0.349-6.4,3.181-6.739,6.756c-0.494,5.198-2.566,15.524-6.276,22.203c-0.023,0.042-0.046,0.085-0.069,0.128    c-0.015,0.026-0.028,0.053-0.043,0.079c-0.029,0.052-0.057,0.104-0.084,0.156c-0.926,1.608-1.949,2.993-3.075,4.009    c-1.279-3.579-1.862-7.458-2.073-11.051c0-0.007,0.001-0.014,0.001-0.021c-0.001-0.069-0.011-0.136-0.014-0.205    C37.695,304.249,38.771,298.292,38.786,298.21z M15,337.739c0-7.334,3.787-13.727,9.216-16.706    c0.515,2.568,1.225,5.154,2.192,7.664c0.608,1.583,1.493,3.03,2.593,4.288c0.017,21.078-0.037,20.773,0.048,23.097    C21.143,354.95,15,347.164,15,337.739z M57.5,408.139c4.212,2.932,8.743,5.35,13.5,7.226v11.634h-1.625    c-4.068,0-8.039,0.479-11.875,1.383V408.139z M165,497H26v-3.674c0-28.302,19.458-51.327,43.375-51.327h52.25    c23.917,0,43.375,23.025,43.375,51.327V497z M180.74,492.51c0-21.945,10.685-41.244,26.927-50.275v18.867    c0,1.91,0.729,3.748,2.038,5.14L238.645,497H180.74V492.51z M331.26,497h-57.905l28.94-30.758c1.31-1.392,2.038-3.23,2.038-5.14    v-18.867c16.242,9.03,26.927,28.329,26.927,50.274V497z M486,493.326V497H347v-3.674c0-28.302,19.458-51.327,43.375-51.327h52.25    C466.542,441.999,486,465.024,486,493.326z M441,426.999v-11.634c4.757-1.876,9.288-4.294,13.5-7.226v20.243    C447.307,426.686,441.992,427.048,441,426.999z"/>
	</g>
</g>















</svg>
