<svg height="480pt" viewBox="0 0 480 480" width="480pt" xmlns="http://www.w3.org/2000/svg"><path d="m416 336h-8v-24c0-17.648438-14.351562-32-32-32h-32v16h32c8.824219 0 16 7.175781 16 16v24h-8c-4.425781 0-8 3.585938-8 8v32h16v-24h16v24h16v-32c0-4.414062-3.574219-8-8-8zm0 0" fill="#4d4d4d"/><path d="m72 312v24h-8c-4.425781 0-8 3.585938-8 8v32h16v-24h16v24h16v-32c0-4.414062-3.574219-8-8-8h-8v-24c0-8.824219 7.175781-16 16-16h32v-16h-32c-17.648438 0-32 14.351562-32 32zm0 0" fill="#4d4d4d"/><path d="m256 144h-32v-16c0-8.839844 7.160156-16 16-16s16 7.160156 16 16zm0 0" fill="#911d22"/><path d="m232 114.214844c-4.761719 2.769531-8 7.875-8 13.785156v16h16v-16c0-5.902344-3.238281-11.007812-8-13.785156zm0 0" fill="#c1272d"/><path d="m320 160h32v64h-32zm0 0" fill="#4d4d4d"/><path d="m320 160h16v64h-16zm0 0" fill="#666"/><path d="m128 160h32v64h-32zm0 0" fill="#4d4d4d"/><path d="m128 160h16v64h-16zm0 0" fill="#666"/><path d="m152 416h48v32h-48zm0 0" fill="#999"/><path d="m152 416h24v32h-24zm0 0" fill="#b3b3b3"/><path d="m280 416h48v32h-48zm0 0" fill="#999"/><path d="m280 416h24v32h-24zm0 0" fill="#b3b3b3"/><path d="m264 448h80v32h-80zm0 0" fill="#666"/><path d="m264 448h56v32h-56zm0 0" fill="#808080"/><path d="m136 448h80v32h-80zm0 0" fill="#666"/><path d="m136 448h56v32h-56zm0 0" fill="#808080"/><path d="m352 368h-224v-80c0-8.839844 7.160156-16 16-16h192c8.839844 0 16 7.160156 16 16zm0 0" fill="#999"/><path d="m312 272h-168c-8.839844 0-16 7.160156-16 16v80h200v-80c0-8.839844-7.160156-16-16-16zm0 0" fill="#b3b3b3"/><path d="m160 144h160v96h-160zm0 0" fill="#999"/><path d="m160 144h136v96h-136zm0 0" fill="#b3b3b3"/><path d="m72 128v-32l8.328125-8.328125c10.03125-10.03125 15.671875-23.648437 15.671875-37.832031 0-11.574219-3.753906-22.839844-10.703125-32.105469-8.367187-11.167969-21.503906-17.734375-35.457031-17.734375h-3.679688c-13.953125 0-27.089844 6.566406-35.457031 17.726562-6.949219 9.265626-10.703125 20.53125-10.703125 32.113282 0 14.191406 5.640625 27.800781 15.671875 37.839844l8.328125 8.320312v32zm0 0" fill="#b9af44"/><path d="m48.328125 87.671875c10.03125-10.03125 15.671875-23.648437 15.671875-37.839844 0-11.574219-3.753906-22.839843-10.703125-32.105469-5.441406-7.253906-12.914063-12.519531-21.296875-15.351562-8.382812 2.832031-15.855469 8.105469-21.296875 15.359375-6.949219 9.257813-10.703125 20.523437-10.703125 32.097656 0 14.191407 5.640625 27.800781 15.671875 37.832031l8.328125 8.335938v32h16v-32zm0 0" fill="#f7e95a"/><path d="m456 128v-32l8.328125-8.328125c10.03125-10.03125 15.671875-23.648437 15.671875-37.832031 0-11.574219-3.753906-22.839844-10.703125-32.105469-8.367187-11.167969-21.503906-17.734375-35.457031-17.734375h-3.679688c-13.953125 0-27.089844 6.566406-35.464844 17.726562-6.941406 9.265626-10.695312 20.53125-10.695312 32.113282 0 14.191406 5.640625 27.800781 15.671875 37.839844l8.328125 8.320312v32zm0 0" fill="#b9af44"/><path d="m432.328125 87.671875c10.03125-10.03125 15.671875-23.648437 15.671875-37.839844 0-11.574219-3.753906-22.839843-10.703125-32.105469-5.441406-7.253906-12.914063-12.527343-21.296875-15.359374-8.382812 2.832031-15.855469 8.105468-21.296875 15.359374-6.949219 9.265626-10.703125 20.53125-10.703125 32.105469 0 14.191407 5.640625 27.800781 15.671875 37.832031l8.328125 8.335938v32h16v-32zm0 0" fill="#f7e95a"/><path d="m24 96h48v32h-48zm0 0" fill="#534741"/><path d="m24 96h24v32h-24zm0 0" fill="#736357"/><path d="m408 96h48v32h-48zm0 0" fill="#534741"/><path d="m408 96h24v32h-24zm0 0" fill="#736357"/><g fill="#4d4d4d"><path d="m168 368h16v48h-16zm0 0"/><path d="m296 368h16v48h-16zm0 0"/><path d="m168 240h16v32h-16zm0 0"/><path d="m296 240h16v32h-16zm0 0"/></g><path d="m192 320c0 8.835938-7.164062 16-16 16s-16-7.164062-16-16 7.164062-16 16-16 16 7.164062 16 16zm0 0" fill="#c1272d"/><path d="m224 192c0 8.835938-7.164062 16-16 16s-16-7.164062-16-16 7.164062-16 16-16 16 7.164062 16 16zm0 0" fill="#80d4f7"/><path d="m288 192c0 8.835938-7.164062 16-16 16s-16-7.164062-16-16 7.164062-16 16-16 16 7.164062 16 16zm0 0" fill="#80d4f7"/><path d="m320 320c0 8.835938-7.164062 16-16 16s-16-7.164062-16-16 7.164062-16 16-16 16 7.164062 16 16zm0 0" fill="#c1272d"/><path d="m224 312h32v16h-32zm0 0" fill="#4d4d4d"/><path d="m424 56h16v40h-16zm0 0" fill="#534741"/><path d="m320 56h40v16h-40zm0 0" fill="#666"/><path d="m322.34375 114.34375 32-32.003906 11.3125 11.316406-32 32zm0 0" fill="#666"/><path d="m322.34375 13.660156 11.3125-11.3125 32 32-11.3125 11.316406zm0 0" fill="#666"/><path d="m40 56h16v40h-16zm0 0" fill="#534741"/><path d="m120 56h40v16h-40zm0 0" fill="#666"/><path d="m114.34375 93.660156 11.3125-11.3125 32.003906 32-11.316406 11.3125zm0 0" fill="#666"/><path d="m114.34375 34.339844 32-32 11.316406 11.316406-32.003906 32zm0 0" fill="#666"/></svg>