<svg height="504pt" viewBox="0 0 504 504" width="504pt" xmlns="http://www.w3.org/2000/svg"><path d="m480 4h-97.90625c-11.046875 0-20 8.953125-20 20v30.566406c0 11.046875 8.953125 20 20 20h97.90625c11.046875 0 20-8.953125 20-20v-30.566406c0-11.046875-8.953125-20-20-20zm0 0" fill="#7bac51"/><path d="m480 4h-12c11.046875 0 20 8.953125 20 20v30.566406c0 11.046875-8.953125 20-20 20h12c11.046875 0 20-8.953125 20-20v-30.566406c0-11.046875-8.953125-20-20-20zm0 0" fill="#5d8e33"/><path d="m382.09375 74.566406h12c-11.046875 0-20-8.953125-20-20v-30.566406c0-11.046875 8.953125-20 20-20h-12c-11.046875 0-20 8.953125-20 20v30.566406c0 11.046875 8.953125 20 20 20zm0 0" fill="#99ca6f"/><path d="m480 78.566406h-97.90625c-13.234375 0-24-10.765625-24-24v-30.566406c0-13.234375 10.765625-24 24-24h97.90625c13.234375 0 24 10.765625 24 24v30.566406c0 13.234375-10.765625 24-24 24zm-97.90625-70.566406c-8.824219 0-16 7.179688-16 16v30.566406c0 8.824219 7.175781 16 16 16h97.90625c8.820312 0 16-7.175781 16-16v-30.566406c0-8.820312-7.179688-16-16-16zm0 0" fill="#690589"/><path d="m121.90625 4h-97.90625c-11.046875 0-20 8.953125-20 20v30.566406c0 11.046875 8.953125 20 20 20h97.90625c11.046875 0 20-8.953125 20-20v-30.566406c0-11.046875-8.953125-20-20-20zm0 0" fill="#ff4397"/><path d="m300.953125 4h-97.90625c-11.046875 0-20 8.953125-20 20v30.566406c0 11.046875 8.953125 20 20 20h97.90625c11.046875 0 20-8.953125 20-20v-30.566406c0-11.046875-8.953125-20-20-20zm0 0" fill="#fcc24c"/><path d="m121.90625 4h-12c11.046875 0 20 8.953125 20 20v30.566406c0 11.046875-8.953125 20-20 20h12c11.046875 0 20-8.953125 20-20v-30.566406c0-11.046875-8.953125-20-20-20zm0 0" fill="#e12579"/><path d="m24 74.566406h12c-11.046875 0-20-8.953125-20-20v-30.566406c0-11.046875 8.953125-20 20-20h-12c-11.046875 0-20 8.953125-20 20v30.566406c0 11.046875 8.953125 20 20 20zm0 0" fill="#ff61b5"/><path d="m334.21875 213.324219c0-46.472657-38.558594-83.941407-85.429688-82.15625-42.417968 1.613281-77.0625 36.042969-78.925781 78.449219-1.460937 33.21875 16.808594 62.308593 44.0625 76.578124v48.625c0 21.027344 17.042969 38.074219 38.074219 38.074219 21.027344 0 38.074219-17.042969 38.074219-38.074219v-48.625c26.234375-13.738281 44.144531-41.207031 44.144531-72.871093zm0 0" fill="#fcc24c"/><path d="m248.789062 131.167969c-1.316406.050781-2.628906.132812-3.929687.246093 42.195313 3.488282 75.359375 38.816407 75.359375 81.910157 0 31.667969-17.910156 59.132812-44.144531 72.871093v48.625c0 18.632813-13.390625 34.113282-31.074219 37.402344 2.273438.421875 4.605469.671875 7 .671875 21.027344 0 38.074219-17.046875 38.074219-38.074219v-48.625c26.234375-13.738281 44.144531-41.203124 44.144531-72.871093 0-46.472657-38.558594-83.941407-85.429688-82.15625zm0 0" fill="#dea42e"/><path d="m255.210938 131.167969c1.316406.050781 2.628906.132812 3.929687.246093-42.195313 3.488282-75.359375 38.816407-75.359375 81.910157 0 31.667969 17.910156 59.132812 44.144531 72.871093v48.625c0 18.632813 13.390625 34.113282 31.070313 37.402344-2.269532.421875-4.605469.671875-7 .671875-21.027344 0-38.070313-17.046875-38.070313-38.074219v-48.625c-26.234375-13.738281-44.144531-41.203124-44.144531-72.871093 0-46.472657 38.558594-83.941407 85.429688-82.15625zm0 0" fill="#fce06a"/><path d="m213.925781 334.816406c0 21.03125 17.042969 38.078125 38.074219 38.078125s38.074219-17.046875 38.074219-38.078125v-48.625h-76.148438zm0 0" fill="#ff4397"/><path d="m276.074219 286.195312v48.625c0 18.632813-13.390625 34.113282-31.074219 37.402344 1.128906.210938 2.273438.378906 3.433594.492188 1.105468.101562 2.226562.164062 3.363281.167968.066406 0 .132813.011719.199219.011719 21.03125 0 38.078125-17.046875 38.078125-38.074219v-48.625zm0 0" fill="#e12579"/><path d="m227.925781 286.195312v48.625c0 18.632813 13.390625 34.113282 31.074219 37.402344-1.128906.210938-2.273438.378906-3.433594.492188-1.109375.101562-2.226562.164062-3.363281.167968-.066406 0-.132813.011719-.199219.011719-21.03125 0-38.078125-17.046875-38.078125-38.074219v-48.625zm0 0" fill="#ff61b5"/><path d="m264.703125 238.394531c0 7.015625-5.6875 12.707031-12.703125 12.707031s-12.703125-5.691406-12.703125-12.707031 5.6875-12.703125 12.703125-12.703125 12.703125 5.6875 12.703125 12.703125zm0 0" fill="#7bac51"/><g fill="#690589"><path d="m252 290.195312c-2.207031 0-4-1.792968-4-4v-33.234374c0-2.207032 1.792969-4 4-4s4 1.792968 4 4v33.234374c0 2.207032-1.792969 4-4 4zm0 0"/><path d="m252 255.101562c-9.210938 0-16.703125-7.496093-16.703125-16.707031 0-9.207031 7.492187-16.703125 16.703125-16.703125s16.703125 7.496094 16.703125 16.703125c0 9.210938-7.492187 16.707031-16.703125 16.707031zm0-25.410156c-4.796875 0-8.703125 3.90625-8.703125 8.703125 0 4.800781 3.902344 8.707031 8.703125 8.707031s8.703125-3.90625 8.703125-8.707031c0-4.796875-3.90625-8.703125-8.703125-8.703125zm0 0"/><path d="m252 376.894531c-23.203125 0-42.074219-18.875-42.074219-42.078125v-46.242187c-28.265625-15.84375-45.488281-46.632813-44.058593-79.132813 1.953124-44.441406 38.3125-80.578125 82.769531-82.269531 23.664062-.90625 46.117187 7.628906 63.152343 24.03125 17.042969 16.410156 26.429688 38.472656 26.429688 62.121094 0 31.371093-16.847656 59.980469-44.140625 75.25v46.242187c-.003906 23.203125-18.875 42.078125-42.078125 42.078125zm.027344-241.789062c-1.027344 0-2.050782.019531-3.085938.058593-40.328125 1.535157-73.308594 34.316407-75.082031 74.628907-1.328125 30.226562 15.125 58.824219 41.921875 72.855469 1.316406.691406 2.144531 2.054687 2.144531 3.542968v48.625c0 18.789063 15.285157 34.074219 34.074219 34.074219s34.074219-15.285156 34.074219-34.074219v-48.625c0-1.488281.828125-2.851562 2.144531-3.542968 25.90625-13.5625 42-40.128907 42-69.324219 0-21.457031-8.515625-41.472657-23.980469-56.359375-14.710937-14.160156-33.863281-21.859375-54.210937-21.859375zm0 0"/><path d="m185.796875 214.320312c-.0625 0-.121094 0-.179687-.003906-2.210938-.097656-3.917969-1.964844-3.820313-4.171875.386719-8.808593 2.394531-17.367187 5.964844-25.441406.890625-2.023437 3.257812-2.933594 5.273437-2.042969 2.023438.894532 2.933594 3.257813 2.042969 5.277344-3.167969 7.160156-4.945313 14.75-5.289063 22.558594-.09375 2.148437-1.863281 3.824218-3.992187 3.824218zm0 0"/><path d="m252 376.894531c-23.203125 0-42.074219-18.875-42.074219-42.078125v-48.621094c0-2.210937 1.789063-4 4-4h76.148438c2.210937 0 4 1.789063 4 4v48.621094c0 23.203125-18.871094 42.078125-42.074219 42.078125zm-34.074219-86.699219v44.621094c0 18.792969 15.285157 34.078125 34.074219 34.078125s34.074219-15.285156 34.074219-34.078125v-44.621094zm0 0"/><path d="m288.453125 315.804688h-72.90625c-2.207031 0-4-1.792969-4-4 0-2.207032 1.792969-4 4-4h72.90625c2.207031 0 4 1.792968 4 4 0 2.207031-1.792969 4-4 4zm0 0"/><path d="m288.453125 343.683594h-72.90625c-2.207031 0-4-1.792969-4-4 0-2.207032 1.792969-4 4-4h72.90625c2.207031 0 4 1.792968 4 4 0 2.207031-1.792969 4-4 4zm0 0"/></g><path d="m489.335938 500h-101.296876c-5.890624 0-10.667968-4.773438-10.667968-10.664062v-142.316407c0-5.890625 4.773437-10.664062 10.667968-10.664062h101.296876c5.886718 0 10.664062 4.773437 10.664062 10.664062v142.316407c0 5.890624-4.773438 10.664062-10.664062 10.664062zm0 0" fill="#f4efed"/><path d="m488.902344 336.355469h-12.796875c5.890625 0 10.664062 4.773437 10.664062 10.667969v142.3125c0 5.886718-4.773437 10.664062-10.664062 10.664062h12.796875c5.890625 0 10.667968-4.773438 10.667968-10.664062v-142.3125c0-5.890626-4.777343-10.667969-10.667968-10.667969zm0 0" fill="#d6d1cf"/><path d="m388.039062 500h12.796876c-5.890626 0-10.664063-4.773438-10.664063-10.664062v-142.3125c0-5.890626 4.773437-10.667969 10.664063-10.667969h-12.796876c-5.890624 0-10.667968 4.773437-10.667968 10.667969v142.3125c.003906 5.886718 4.777344 10.664062 10.667968 10.664062zm0 0" fill="#fff"/><path d="m489.335938 504h-101.296876c-8.085937 0-14.664062-6.578125-14.664062-14.664062v-142.316407c0-8.085937 6.578125-14.664062 14.664062-14.664062h101.296876c8.085937 0 14.664062 6.578125 14.664062 14.664062v142.316407c0 8.085937-6.578125 14.664062-14.664062 14.664062zm-101.296876-163.644531c-3.675781 0-6.664062 2.992187-6.664062 6.667969v142.3125c0 3.675781 2.988281 6.667968 6.664062 6.667968h101.296876c3.675781 0 6.664062-2.992187 6.664062-6.667968v-142.3125c0-3.675782-2.988281-6.667969-6.664062-6.667969zm0 0" fill="#690589"/><path d="m476.109375 377.457031h-72.488281c-2.210938 0-4-1.792969-4-4s1.789062-4 4-4h72.488281c2.207031 0 4 1.792969 4 4s-1.792969 4-4 4zm0 0" fill="#690589"/><path d="m476.109375 405.925781h-72.488281c-2.210938 0-4-1.792969-4-4s1.789062-4 4-4h72.488281c2.207031 0 4 1.792969 4 4s-1.792969 4-4 4zm0 0" fill="#690589"/><path d="m476.109375 434.394531h-72.488281c-2.210938 0-4-1.789062-4-4 0-2.207031 1.789062-4 4-4h72.488281c2.207031 0 4 1.792969 4 4 0 2.210938-1.792969 4-4 4zm0 0" fill="#690589"/><path d="m476.109375 462.867188h-72.488281c-2.210938 0-4-1.792969-4-4 0-2.210938 1.789062-4 4-4h72.488281c2.207031 0 4 1.789062 4 4 0 2.207031-1.792969 4-4 4zm0 0" fill="#690589"/><path d="m115.960938 500h-101.296876c-5.890624 0-10.664062-4.773438-10.664062-10.664062v-142.316407c0-5.890625 4.773438-10.664062 10.664062-10.664062h101.296876c5.890624 0 10.667968 4.773437 10.667968 10.664062v142.316407c-.003906 5.890624-4.777344 10.664062-10.667968 10.664062zm0 0" fill="#f4efed"/><path d="m115.53125 336.355469h-12.796875c5.890625 0 10.664063 4.773437 10.664063 10.667969v142.3125c0 5.886718-4.773438 10.664062-10.664063 10.664062h12.796875c5.890625 0 10.664062-4.773438 10.664062-10.664062v-142.3125c0-5.890626-4.773437-10.667969-10.664062-10.667969zm0 0" fill="#d6d1cf"/><path d="m14.664062 500h12.800782c-5.890625 0-10.664063-4.773438-10.664063-10.664062v-142.3125c0-5.890626 4.773438-10.667969 10.664063-10.667969h-12.800782c-5.886718 0-10.664062 4.773437-10.664062 10.667969v142.3125c0 5.886718 4.773438 10.664062 10.664062 10.664062zm0 0" fill="#fff"/><path d="m115.960938 504h-101.296876c-8.085937 0-14.664062-6.578125-14.664062-14.664062v-142.316407c0-8.085937 6.578125-14.664062 14.664062-14.664062h101.296876c8.085937 0 14.664062 6.578125 14.664062 14.664062v142.316407c0 8.085937-6.578125 14.664062-14.664062 14.664062zm-101.296876-163.644531c-3.675781 0-6.664062 2.992187-6.664062 6.667969v142.3125c0 3.675781 2.988281 6.664062 6.664062 6.664062h101.296876c3.675781 0 6.664062-2.988281 6.664062-6.664062v-142.316407c0-3.671875-2.988281-6.664062-6.664062-6.664062zm0 0" fill="#690589"/><path d="m102.734375 377.457031h-72.488281c-2.207032 0-4-1.792969-4-4s1.792968-4 4-4h72.488281c2.207031 0 4 1.792969 4 4s-1.789063 4-4 4zm0 0" fill="#690589"/><path d="m102.734375 405.925781h-72.488281c-2.207032 0-4-1.792969-4-4s1.792968-4 4-4h72.488281c2.207031 0 4 1.792969 4 4s-1.789063 4-4 4zm0 0" fill="#690589"/><path d="m102.734375 434.394531h-72.488281c-2.207032 0-4-1.789062-4-4 0-2.207031 1.792968-4 4-4h72.488281c2.207031 0 4 1.792969 4 4 0 2.210938-1.789063 4-4 4zm0 0" fill="#690589"/><path d="m102.734375 462.867188h-72.488281c-2.207032 0-4-1.792969-4-4 0-2.210938 1.792968-4 4-4h72.488281c2.207031 0 4 1.789062 4 4 0 2.207031-1.789063 4-4 4zm0 0" fill="#690589"/><path d="m121.90625 78.566406h-97.90625c-13.234375 0-24-10.765625-24-24v-30.566406c0-13.234375 10.765625-24 24-24h97.90625c13.234375 0 24 10.765625 24 24v30.566406c0 13.234375-10.765625 24-24 24zm-97.90625-70.566406c-8.820312 0-16 7.179688-16 16v30.566406c0 8.824219 7.179688 16 16 16h97.90625c8.824219 0 16-7.175781 16-16v-30.566406c0-8.820312-7.175781-16-16-16zm0 0" fill="#690589"/><path d="m300.953125 4h-12c11.046875 0 20 8.953125 20 20v30.566406c0 11.046875-8.953125 20-20 20h12c11.046875 0 20-8.953125 20-20v-30.566406c0-11.046875-8.953125-20-20-20zm0 0" fill="#dea42e"/><path d="m203.046875 74.566406h12c-11.046875 0-20-8.953125-20-20v-30.566406c0-11.046875 8.953125-20 20-20h-12c-11.046875 0-20 8.953125-20 20v30.566406c0 11.046875 8.953125 20 20 20zm0 0" fill="#fce06a"/><path d="m300.957031 78.566406h-97.910156c-13.234375 0-24-10.765625-24-24v-30.566406c0-13.234375 10.765625-24 24-24h97.910156c13.234375 0 24 10.765625 24 24v30.566406c0 13.234375-10.765625 24-24 24zm-97.914062-70.566406c-8.820313 0-16 7.179688-16 16v30.566406c0 8.824219 7.179687 16 16 16h97.910156c8.824219 0 16-7.175781 16-16v-30.566406c0-8.820312-7.175781-16-16-16zm0 0" fill="#690589"/><path d="m252 434.394531h-68.542969c-13.234375 0-24-10.765625-24-24v-104.203125c0-8.820312-7.175781-16-16-16h-58.144531c-8.824219 0-16 7.179688-16 16v30.164063c0 2.207031-1.792969 4-4 4s-4-1.792969-4-4v-30.164063c0-13.234375 10.765625-24 24-24h58.144531c13.234375 0 24 10.765625 24 24v104.203125c0 8.824219 7.175781 16 16 16h64.542969v-53.5c0-2.207031 1.792969-4 4-4s4 1.792969 4 4v57.5c0 2.210938-1.792969 4-4 4zm0 0" fill="#690589"/><path d="m320.542969 434.394531h-68.542969c-2.207031 0-4-1.789062-4-4 0-2.207031 1.792969-4 4-4h68.542969c8.820312 0 16-7.175781 16-16v-104.203125c0-13.234375 10.765625-24 24-24h58.144531c13.234375 0 24 10.765625 24 24v30.164063c0 2.207031-1.792969 4-4 4-2.210938 0-4-1.792969-4-4v-30.164063c0-8.820312-7.179688-16-16-16h-58.144531c-8.824219 0-16 7.179688-16 16v104.203125c0 13.234375-10.765625 24-24 24zm0 0" fill="#690589"/><path d="m411.042969 111.480469h-318.085938c-13.234375 0-24-10.765625-24-24v-12.914063c0-2.207031 1.789063-4 4-4 2.207031 0 4 1.792969 4 4v12.914063c0 8.820312 7.175781 16 16 16h318.089844c8.820313 0 16-7.179688 16-16v-12.914063c0-2.207031 1.792969-4 4-4s4 1.792969 4 4v12.914063c-.003906 13.230469-10.765625 24-24.003906 24zm0 0" fill="#690589"/><path d="m252 135.167969c-2.207031 0-4-1.792969-4-4v-56.601563c0-2.207031 1.792969-4 4-4s4 1.792969 4 4v56.601563c0 2.207031-1.792969 4-4 4zm0 0" fill="#690589"/></svg>