<svg height="496pt" viewBox="0 0 496 496" width="496pt" xmlns="http://www.w3.org/2000/svg"><path d="m240 88 16-8v24l27.921875 4.640625c11.597656 1.917969 20.078125 11.917969 20.078125 23.679687v51.679688h-128v-51.679688c0-11.761718 8.480469-21.761718 20.078125-23.679687l27.921875-4.640625v-16l.800781-3.839844c4.480469 2.398438 9.679688 3.839844 15.199219 3.839844zm0 0" fill="#fcd770"/><path d="m88 88 16-8v24l27.921875 4.640625c11.597656 1.917969 20.078125 11.917969 20.078125 23.679687v51.679688h-128v-51.679688c0-11.761718 8.480469-21.761718 20.078125-23.679687l27.921875-4.640625v-16l.800781-3.839844c4.480469 2.398438 9.679688 3.839844 15.199219 3.839844zm0 0" fill="#b4dd7f"/><path d="m272 40v16c0 17.679688-14.320312 32-32 32-5.519531 0-10.71875-1.441406-15.199219-3.839844-10-5.441406-16.800781-16-16.800781-28.160156v-16c0-17.679688 14.320312-32 32-32 8.800781 0 16.800781 3.601562 22.640625 9.359375 5.757813 5.839844 9.359375 13.839844 9.359375 22.640625zm0 0" fill="#f0d0b4"/><path d="m120 40v16c0 17.679688-14.320312 32-32 32-5.519531 0-10.71875-1.441406-15.199219-3.839844-10-5.441406-16.800781-16-16.800781-28.160156v-16c0-17.679688 14.320312-32 32-32 8.800781 0 16.800781 3.601562 22.640625 9.359375 5.757813 5.839844 9.359375 13.839844 9.359375 22.640625zm0 0" fill="#f0d0b4"/><path d="m336 184h-328v304h480v-304zm0 0" fill="#e6e9ed"/><path d="m376 32v32h-32v-32zm0 0" fill="#b4dd7f"/><path d="m384 96v32h-48v-32zm0 0" fill="#b4dd7f"/><path d="m456 352v-32l-18.558594-3.679688c-1.921875-7.519531-4.882812-14.640624-8.722656-21.121093l10.480469-15.757813-22.640625-22.640625-15.757813 10.480469c-5.199219-3.121094-10.878906-5.601562-16.800781-7.519531h-48c-5.921875 1.917969-11.601562 4.398437-16.800781 7.519531l-15.757813-10.480469-22.640625 22.640625 10.480469 15.757813c-3.839844 6.480469-6.800781 13.601562-8.722656 21.121093l-18.558594 3.679688v32l18.558594 3.679688c1.921875 7.519531 4.882812 14.640624 8.722656 21.121093l-10.480469 15.757813 22.640625 22.640625 15.757813-10.480469c6.480469 3.839844 13.601562 6.800781 21.121093 8.722656l3.679688 18.558594h32l3.679688-18.558594c7.519531-1.921875 14.640624-4.882812 21.121093-8.722656l15.757813 10.480469 22.640625-22.640625-10.480469-15.757813c3.839844-6.480469 6.800781-13.601562 8.722656-21.121093zm-48.238281-11.761719c0 1.042969-.160157 2.082031-.320313 3.042969 0 .160156-.082031.320312-.082031.480469-.160156 1.117187-.398437 2.238281-.640625 3.277343-.878906 3.839844-2.238281 7.441407-4 10.882813-.480469.796875-.878906 1.597656-1.359375 2.398437-.640625 1.199219-1.4375 2.320313-2.238281 3.441407-3.121094 4.398437-6.960938 8.238281-11.359375 11.359375-1.121094.800781-2.242188 1.597656-3.441407 2.238281-.800781.480469-1.601562.878906-2.398437 1.359375-3.441406 1.761719-7.042969 3.121094-10.882813 4-1.039062.242188-2.160156.480469-3.277343.640625-.160157 0-.320313.082031-.480469.082031-.960938.160156-2 .320313-3.042969.320313-1.359375.160156-2.796875.238281-4.238281.238281-26.480469 0-48-21.519531-48-48 0-1.441406.078125-2.878906.238281-4.238281 0-1.042969.160157-2.082031.320313-3.042969 0-.160156.082031-.320312.082031-.480469.160156-1.117187.398437-2.238281.640625-3.277343.878906-3.839844 2.238281-7.441407 4-10.882813.480469-.796875.878906-1.597656 1.359375-2.398437.640625-1.199219 1.4375-2.320313 2.238281-3.441407 3.921875-5.597656 9.121094-10.316406 15.121094-13.757812h48c.878906.480469 1.761719 1.039062 2.640625 1.597656 1.4375.960937 2.800781 2 4.160156 3.121094 1.039063.878906 2 1.761719 2.960938 2.722656.957031.878906 1.757812 1.839844 2.558593 2.796875.558594.5625 1.121094 1.203125 1.519532 1.839844 1.359375 1.679687 2.558594 3.519531 3.601562 5.363281.480469.71875.878906 1.4375 1.277344 2.15625.722656 1.441406 1.359375 2.882813 1.921875 4.320313.398437.882812.71875 1.839843 1.039063 2.722656 1.039062 3.359375 1.761718 6.878906 2.082031 10.480468.160156 1.4375.238281 2.878907.238281 4.398438 0 1.441406-.078125 2.878906-.238281 4.238281zm0 0" fill="#fcd770"/><path d="m336 128v160h48v-160zm0 0" fill="#aab2bd"/><path d="m384 288v24l-24 32-24-32v-24zm0 0" fill="#b4dd7f"/><path d="m360 376c-22.054688 0-40-17.945312-40-40 0-8.320312 2.566406-16.320312 7.425781-23.144531l-13.035156-9.28125c-6.796875 9.554687-10.390625 20.761719-10.390625 32.425781 0 30.871094 25.128906 56 56 56 11.664062 0 22.871094-3.59375 32.425781-10.390625l-9.28125-13.035156c-6.824219 4.859375-14.824219 7.425781-23.144531 7.425781zm0 0"/><path d="m424 176v-24c0-17.648438-14.351562-32-32-32v-32h-24v-16h16v-48h-48v48h16v16h-24v88h-16v-43.664062c0-15.703126-11.238281-28.984376-26.742188-31.566407l-21.257812-3.546875v-9.222656h-.246094c9.796875-7.296875 16.246094-18.871094 16.246094-32v-16c0-22.054688-17.945312-40-40-40s-40 17.945312-40 40v16c0 13.128906 6.449219 24.703125 16.246094 32h-.246094v9.222656l-21.257812 3.546875c-15.503907 2.574219-26.742188 15.855469-26.742188 31.566407v43.664062h-8v-43.664062c0-15.703126-11.238281-28.984376-26.742188-31.566407l-21.257812-3.546875v-9.222656h-.246094c9.796875-7.296875 16.246094-18.871094 16.246094-32v-16c0-22.054688-17.945312-40-40-40s-40 17.945312-40 40v16c0 13.128906 6.449219 24.703125 16.246094 32h-.246094v9.222656l-21.257812 3.546875c-15.503907 2.574219-26.742188 15.855469-26.742188 31.566407v43.664062h-16v320h496v-320zm-72-136h16v16h-16zm24 64v16h-32v-16zm45.832031 195.265625c3.511719 5.894531 6.167969 12.285156 7.871094 18.992187l1.242187 4.886719 17.054688 3.40625v18.890625l-17.054688 3.40625-1.242187 4.886719c-1.710937 6.707031-4.359375 13.097656-7.871094 18.992187l-2.574219 4.328126 9.644532 14.488281-13.351563 13.351562-14.488281-9.648437-4.328125 2.578125c-5.894531 3.511719-12.285156 6.167969-18.992187 7.871093l-4.886719 1.242188-3.40625 17.0625h-18.890625l-3.40625-17.054688-4.886719-1.242187c-6.707031-1.710937-13.097656-4.359375-18.992187-7.871094l-4.328126-2.574219-14.488281 9.644532-13.351562-13.351563 9.648437-14.488281-2.578125-4.328125c-3.511719-5.894531-6.167969-12.285156-7.871093-18.992187l-1.242188-4.886719-17.0625-3.40625v-18.890625l17.054688-3.40625 1.242187-4.886719c1.710937-6.707031 4.359375-13.097656 7.871094-18.992187l2.574219-4.328126-9.644532-14.488281 13.351563-13.351562 14.488281 9.648437 4.328125-2.578125c1.519531-.902343 3.148437-1.582031 4.734375-2.375v42.871094l32 42.671875 32-42.671875v-2.59375c5.089844 6.824219 8 15.1875 8 23.929687 0 8.320313-2.566406 16.320313-7.425781 23.144532l13.035156 9.28125c6.796875-9.5625 10.390625-20.769532 10.390625-32.433594 0-18.3125-9.128906-35.40625-24-45.824219v-18.382812c1.585938.792969 3.214844 1.472656 4.734375 2.375l4.328125 2.574219 14.488281-9.644532 13.351563 13.351563-9.644532 14.488281zm-77.832031-3.265625h32v13.335938l-16 21.328124-16-21.328124zm32-16h-32v-144h32zm-160-240c0-13.230469 10.769531-24 24-24s24 10.769531 24 24v16c0 13.230469-10.769531 24-24 24s-24-10.769531-24-24zm-32 92.335938c0-7.855469 5.625-14.496094 13.367188-15.785157l34.632812-5.773437v-15.585938c2.585938.527344 5.265625.808594 8 .808594s5.414062-.28125 8-.808594v15.585938l34.632812 5.765625c7.742188 1.296875 13.367188 7.9375 13.367188 15.792969v43.664062h-112zm-120-92.335938c0-13.230469 10.769531-24 24-24s24 10.769531 24 24v16c0 13.230469-10.769531 24-24 24s-24-10.769531-24-24zm-32 92.335938c0-7.855469 5.625-14.496094 13.367188-15.785157l34.632812-5.773437v-15.585938c2.585938.527344 5.265625.808594 8 .808594s5.414062-.28125 8-.808594v15.585938l34.632812 5.765625c7.742188 1.296875 13.367188 7.9375 13.367188 15.792969v43.664062h-112zm448 347.664062h-464v-288h312v62.152344c-2.878906 1.128906-5.710938 2.359375-8.457031 3.785156l-17.144531-11.425781-31.894532 31.894531 11.433594 17.144531c-2.304688 4.441407-4.226562 9.074219-5.746094 13.847657l-20.191406 4.050781v45.109375l20.191406 4.050781c1.511719 4.78125 3.441406 9.414063 5.746094 13.847656l-11.433594 17.144531 31.894532 31.894532 17.144531-11.433594c4.441406 2.304688 9.074219 4.226562 13.847656 5.746094l4.058594 20.191406h45.109375l4.050781-20.191406c4.78125-1.511719 9.414063-3.441406 13.847656-5.746094l17.144531 11.433594 31.894532-31.894532-11.433594-17.144531c2.304688-4.441406 4.226562-9.074219 5.746094-13.847656l20.191406-4.058594v-45.109375l-20.191406-4.050781c-1.511719-4.78125-3.441406-9.414063-5.746094-13.847656l11.433594-17.144531-31.894532-31.894532-17.144531 11.425782c-2.746093-1.425782-5.578125-2.664063-8.457031-3.785157v-118.144531c8.824219 0 16 7.175781 16 16v56c0 13.230469 10.769531 24 24 24h16v-16h-16c-4.414062 0-8-3.59375-8-8v-16h56zm0 0"/><path d="m240 216h16v16h-16zm0 0"/><path d="m208 216h16v16h-16zm0 0"/><path d="m176 216h16v16h-16zm0 0"/><path d="m192.472656 328.945312 20.472656-40.945312h43.054688v-16h-52.945312l-11.527344 23.054688-26.886719-47.054688h-132.640625v16h123.359375zm0 0"/><path d="m32 280h120v16h-120zm0 0"/><path d="m32 312h120v16h-120zm0 0"/><path d="m216 408h-16v40h-16v-64h-16v64h-16v-104h-16v104h-16v-64h-16v64h-16v-40h-16v40h-16v16h176v-16h-16zm0 0"/><path d="m448 448h16v16h-16zm0 0"/><path d="m416 448h16v16h-16zm0 0"/><path d="m384 448h16v16h-16zm0 0"/></svg>