<?xml version="1.0" encoding="iso-8859-1"?>
<!-- Generator: Adobe Illustrator 19.0.0, SVG Export Plug-In . SVG Version: 6.00 Build 0)  -->
<svg version="1.1" id="Capa_1" xmlns="http://www.w3.org/2000/svg" xmlns:xlink="http://www.w3.org/1999/xlink" x="0px" y="0px"
	 viewBox="0 0 504.911 504.911" style="enable-background:new 0 0 504.911 504.911;" xml:space="preserve">
<circle style="fill:#FCBD5E;" cx="252.062" cy="252.455" r="252.062"/>
<path style="fill:#E1E6E8;" d="M357.612,8.271H26.782c-10.24,0-18.905,8.665-18.905,18.905v75.618
	c0,10.24,8.665,18.905,18.905,18.905h330.831c10.24,0,18.905-8.665,18.905-18.905V27.175
	C376.517,16.935,367.852,8.271,357.612,8.271z"/>
<path style="fill:#183651;" d="M357.612,129.575H26.782C11.815,129.575,0,117.76,0,102.794V27.175
	C0,12.209,11.815,0.394,26.782,0.394h330.831c14.966,0,26.782,11.815,26.782,26.782v75.618
	C384.394,117.76,372.578,129.575,357.612,129.575z M26.782,16.148c-6.302,0-11.028,4.726-11.028,11.028v75.618
	c0,6.302,4.726,11.028,11.028,11.028h330.831c6.302,0,11.028-4.726,11.028-11.028V27.175c0-6.302-4.726-11.028-11.028-11.028H26.782
	z"/>
<rect x="33.083" y="33.477" style="fill:#FFFFFF;" width="318.228" height="63.015"/>
<circle style="fill:#173651;" cx="80.345" cy="64.985" r="14.178"/>
<circle style="fill:#F05F50;" cx="133.12" cy="64.985" r="14.178"/>
<circle style="fill:#FCBD5E;" cx="186.683" cy="64.985" r="14.178"/>
<path style="fill:#E1E6E8;" d="M357.612,121.698H26.782c-10.24,0-18.905,8.665-18.905,18.905v75.618
	c0,10.24,8.665,18.905,18.905,18.905h330.831c10.24,0,18.905-8.665,18.905-18.905v-75.618
	C376.517,130.363,367.852,121.698,357.612,121.698z"/>
<path style="fill:#183651;" d="M357.612,243.003H26.782C11.815,243.003,0,231.188,0,216.222v-75.618
	c0-14.966,11.815-26.782,26.782-26.782h330.831c14.966,0,26.782,11.815,26.782,26.782v75.618
	C384.394,231.188,372.578,243.003,357.612,243.003z M26.782,129.575c-6.302,0-11.028,4.726-11.028,11.028v75.618
	c0,6.302,4.726,11.028,11.028,11.028h330.831c6.302,0,11.028-4.726,11.028-11.028v-75.618c0-6.302-4.726-11.028-11.028-11.028
	H26.782z"/>
<rect x="33.083" y="146.905" style="fill:#FFFFFF;" width="318.228" height="63.015"/>
<circle style="fill:#173651;" cx="80.345" cy="178.412" r="14.178"/>
<circle style="fill:#F05F50;" cx="133.12" cy="178.412" r="14.178"/>
<circle style="fill:#FCBD5E;" cx="186.683" cy="178.412" r="14.178"/>
<circle style="fill:#FFFFFF;" cx="376.517" cy="121.698" r="42.535"/>
<g>
	<path style="fill:#183651;" d="M376.517,172.111c-27.569,0-50.412-22.843-50.412-50.412s22.843-50.412,50.412-50.412
		c27.569,0,50.412,22.843,50.412,50.412S404.086,172.111,376.517,172.111z M376.517,87.04c-18.905,0-34.658,15.754-34.658,34.658
		s15.754,34.658,34.658,34.658c18.905,0,34.658-15.754,34.658-34.658S395.422,87.04,376.517,87.04z"/>
	<path style="fill:#183651;" d="M456.862,398.966h-10.24v-15.754h10.24c1.575,0,3.151,0,4.726,0l2.363,15.754
		C461.588,398.966,459.225,398.966,456.862,398.966z M431.655,398.966h-15.754v-15.754h15.754V398.966z M400.148,398.966h-15.754
		v-15.754h15.754V398.966z M368.64,398.966h-15.754v-15.754h15.754V398.966z M337.132,398.966h-15.754v-15.754h15.754V398.966z
		 M481.28,392.665l-7.877-13.391c3.938-2.363,7.089-4.726,9.452-8.665l12.603,9.452C491.52,384.788,486.794,388.726,481.28,392.665z
		 M503.335,362.732l-15.754-3.151c0.788-2.363,0.788-4.726,0.788-7.089v-7.089h15.754v7.089
		C504.123,355.643,504.123,358.794,503.335,362.732z M504.123,329.649h-15.754v-15.754h15.754V329.649z M504.123,298.142h-15.754
		v-15.754h15.754V298.142z M504.123,266.634h-15.754V250.88h15.754V266.634z M504.123,235.126h-15.754v-15.754h15.754V235.126z
		 M504.123,203.618h-15.754v-15.754h15.754V203.618z M504.123,172.111h-15.754v-10.24c0-1.575,0-3.151,0-3.938l15.754-2.363
		c0,2.363,0.788,3.938,0.788,6.302v10.24H504.123z M484.431,145.329c-2.363-3.938-4.726-7.089-8.665-9.452l9.452-12.603
		c4.726,3.938,9.452,8.665,12.603,14.178L484.431,145.329z M464.738,130.363c-2.363-0.788-4.726-0.788-7.089-0.788h-6.302v-15.754
		h6.302c3.938,0,7.089,0.788,11.028,1.575L464.738,130.363z M434.806,129.575h-15.754v-15.754h15.754V129.575z"/>
</g>
<polygon style="fill:#FFFFFF;" points="312.714,361.157 258.363,391.089 312.714,421.809 "/>
<path style="fill:#183651;" d="M308.775,428.898l-54.351-30.72c-2.363-1.575-3.938-3.938-3.938-7.089
	c0-3.151,1.575-5.514,3.938-7.089l54.351-30.72c2.363-1.575,5.514-1.575,7.877,0c2.363,1.575,3.938,3.938,3.938,7.089v61.44
	c0,3.151-1.575,5.514-3.938,7.089C314.289,430.474,311.138,430.474,308.775,428.898z M274.905,391.089l29.932,17.329v-33.871
	L274.905,391.089z"/>
<path style="fill:#FFFFFF;" d="M218.978,402.905v-22.843l-18.117-2.363c-0.788-6.302-2.363-11.815-4.726-17.329l14.178-11.028
	l-11.028-19.692l-17.329,5.514c-3.938-4.726-7.877-8.665-12.603-12.603l6.302-16.542l-19.692-11.028l-11.028,14.178
	c-5.514-2.363-11.815-3.938-17.329-4.726l-3.151-18.117h-22.843l-2.363,17.329c-6.302,0.788-11.815,2.363-17.329,4.726
	l-11.028-14.178L51.2,306.018l6.302,16.542c-4.726,3.938-8.665,7.877-12.603,12.603l-17.329-6.302l-11.028,19.692l14.178,11.028
	c-2.363,5.514-3.938,11.815-4.726,17.329l-18.117,3.151v22.843l18.117,3.151c0.788,6.302,2.363,11.815,4.726,17.329l-14.178,11.028
	l11.028,19.692l16.542-6.302c3.938,4.726,7.877,8.665,12.603,12.603L51.2,476.948l19.692,11.028l11.028-14.178
	c5.514,2.363,11.815,3.938,17.329,4.726l3.151,18.117h22.843l3.151-18.117c6.302-0.788,11.815-2.363,17.329-4.726l11.028,14.178
	l19.692-11.028l-7.089-16.542c4.726-3.938,8.665-7.877,12.603-12.603l16.542,6.302l11.028-19.692l-14.178-11.028
	c2.363-5.514,3.938-11.815,4.726-17.329L218.978,402.905z"/>
<path style="fill:#183651;" d="M124.455,504.517h-22.843c-3.938,0-7.089-3.151-7.877-6.302l-1.575-12.603
	c-2.363-0.788-5.514-1.575-7.877-2.363l-7.877,9.452c-2.363,3.151-7.089,3.938-10.24,1.575l-19.692-11.028
	c-3.151-1.575-3.938-5.514-3.151-8.665l4.726-11.815c-2.363-1.575-3.938-3.938-5.514-5.514l-11.815,3.938
	c-3.938,1.575-7.877,0-9.452-3.151L10.24,438.351c-1.575-3.151-0.788-7.877,1.575-10.24l9.452-7.877
	c-0.788-2.363-1.575-5.514-2.363-7.877l-12.603-1.575C2.363,409.994,0,406.843,0,402.905v-22.843c0-3.938,3.151-7.089,6.302-7.877
	l12.603-1.575c0.788-2.363,1.575-5.514,2.363-7.877l-9.452-7.877c-3.151-2.363-3.938-7.089-1.575-10.24l11.028-19.692
	c1.575-3.151,6.302-4.726,9.452-3.151l11.815,4.726c1.575-2.363,3.938-3.938,5.514-5.514l-4.726-12.603
	c-1.575-3.938,0-7.877,3.151-9.452l19.692-11.028c3.151-1.575,7.877-0.788,10.24,1.575l7.877,9.452
	c2.363-0.788,5.514-1.575,7.877-2.363l1.575-12.603c0.788-3.938,3.938-6.302,7.877-6.302h22.843c3.938,0,7.089,3.151,7.877,6.302
	l1.575,12.603c2.363,0.788,5.514,1.575,7.877,2.363l7.877-9.452c2.363-3.151,7.089-3.938,10.24-1.575l19.692,11.028
	c3.151,1.575,4.726,6.302,3.151,9.452l-4.726,11.815c2.363,1.575,3.938,3.938,5.514,5.514l11.815-4.726
	c3.938-1.575,7.877,0,9.452,3.151l11.028,19.692c1.575,3.151,0.788,7.877-1.575,10.24l-9.452,7.877
	c0.788,2.363,1.575,5.514,2.363,7.877l12.603,1.575c3.938,0.788,6.302,3.938,6.302,7.877v22.843c0,3.938-3.151,7.089-6.302,7.877
	l-12.603,1.575c-0.788,2.363-1.575,5.514-2.363,7.877l9.452,7.877c3.151,2.363,3.938,7.089,1.575,10.24L204.8,457.255
	c-1.575,3.151-6.302,4.726-9.452,3.151l-11.815-4.726c-1.575,2.363-3.938,3.938-5.514,5.514l4.726,11.815
	c1.575,3.938,0,7.877-3.151,9.452l-19.692,11.028c-3.151,1.575-7.877,0.788-10.24-1.575l-7.877-9.452
	c-2.363,0.788-5.514,1.575-7.877,2.363l-1.575,12.603C131.545,502.154,128.394,504.517,124.455,504.517z M108.702,488.763h8.665
	l1.575-11.028c0.788-3.151,3.151-6.302,6.302-6.302c5.514-0.788,11.028-2.363,15.754-3.938c3.151-1.575,7.089,0,8.665,2.363
	l7.089,8.665l7.877-4.726l-3.938-10.24c-1.575-3.151,0-7.089,2.363-8.665c3.938-3.151,7.877-7.089,11.815-11.815
	c2.363-2.363,5.514-3.938,8.665-2.363l10.24,3.938l4.726-7.877l-8.665-7.089c-2.363-2.363-3.938-5.514-2.363-8.665
	c2.363-5.514,3.151-10.24,3.938-15.754c0.788-3.151,3.151-6.302,6.302-6.302l11.028-1.575v-8.665l-11.028-1.575
	c-3.151-0.788-6.302-3.151-6.302-6.302c-0.788-5.514-2.363-11.028-3.938-15.754c-1.575-3.151,0-7.089,2.363-8.665l8.665-7.089
	l-4.726-7.877l-8.665,1.575c-3.151,1.575-7.089,0-8.665-2.363c-3.151-3.938-7.089-7.877-11.815-11.815
	c-2.363-2.363-3.938-5.514-2.363-8.665l3.938-10.24l-7.877-4.726l-7.089,8.665c-2.363,2.363-5.514,3.938-8.665,2.363
	c-5.514-2.363-10.24-3.151-15.754-3.938c-3.151-0.788-6.302-3.151-6.302-6.302l-1.575-11.028h-8.665l-1.575,11.028
	c-2.363,2.363-4.726,5.514-7.877,5.514c-5.514,0.788-11.028,2.363-15.754,3.938c-3.151,1.575-7.089,0-8.665-2.363l-7.089-8.665
	l-7.877,4.726l3.938,10.24c1.575,3.151,0,7.089-2.363,8.665c-3.938,3.151-7.877,7.089-11.815,11.815
	c-2.363,3.151-6.302,3.938-9.452,3.151l-10.24-3.938l-4.726,7.877l8.665,7.089c2.363,2.363,3.938,5.514,2.363,8.665
	c-2.363,5.514-3.151,10.24-3.938,15.754c-0.788,3.151-3.151,6.302-6.302,6.302l-11.028,1.575v8.665l11.028,1.575
	c3.151,0.788,6.302,3.151,6.302,6.302c0.788,5.514,2.363,11.028,3.938,15.754c1.575,3.151,0,7.089-2.363,8.665l-8.665,7.089
	l4.726,7.877l10.24-3.938c3.151-1.575,7.089,0,8.665,2.363c3.151,3.938,7.089,7.877,11.815,11.815
	c2.363,2.363,3.938,5.514,2.363,8.665l-3.938,10.24l7.877,4.726l7.089-8.665c2.363-2.363,5.514-3.938,8.665-2.363
	c5.514,2.363,10.24,3.151,15.754,3.938c3.151,0.788,6.302,3.151,6.302,6.302L108.702,488.763z"/>
<circle style="fill:#F05F50;" cx="113.428" cy="391.089" r="61.44"/>
<circle style="fill:#FFFFFF;" cx="113.428" cy="391.089" r="25.206"/>
<path style="fill:#183651;" d="M113.428,424.96c-18.117,0-33.083-14.966-33.083-33.083s14.966-33.083,33.083-33.083
	s33.083,14.966,33.083,33.083C146.511,409.994,131.545,424.96,113.428,424.96z M113.428,373.76c-9.452,0-17.329,7.877-17.329,17.329
	c0,9.452,7.877,17.329,17.329,17.329s17.329-7.877,17.329-17.329C130.757,381.637,122.88,373.76,113.428,373.76z"/>
<g>
</g>
<g>
</g>
<g>
</g>
<g>
</g>
<g>
</g>
<g>
</g>
<g>
</g>
<g>
</g>
<g>
</g>
<g>
</g>
<g>
</g>
<g>
</g>
<g>
</g>
<g>
</g>
<g>
</g>
</svg>
