<svg height="480pt" viewBox="-32 0 480 480.12192" width="480pt" xmlns="http://www.w3.org/2000/svg" xmlns:xlink="http://www.w3.org/1999/xlink"><linearGradient id="a"><stop offset="0" stop-color="#e93e3a"/><stop offset=".36" stop-color="#ed683c"/><stop offset=".716" stop-color="#f3903f"/><stop offset="1" stop-color="#fdc70c"/></linearGradient><linearGradient id="b" gradientUnits="userSpaceOnUse" x1="206.10896" x2="208.44496" xlink:href="#a" y1="491.104" y2="-10.872"/><linearGradient id="c" gradientUnits="userSpaceOnUse" x1="271.48496" x2="273.82096" xlink:href="#a" y1="491.408" y2="-10.568"/><linearGradient id="d" gradientUnits="userSpaceOnUse" x1="351.021735" x2="353.357735" xlink:href="#a" y1="491.77612" y2="-10.19988"/><linearGradient id="e" gradientUnits="userSpaceOnUse" x1="191.020601" x2="193.356601" xlink:href="#a" y1="491.031781" y2="-10.944219"/><linearGradient id="f" gradientUnits="userSpaceOnUse" x1="62.07696" x2="64.41296" xlink:href="#a" y1="490.432" y2="-11.544"/><linearGradient id="g" gradientUnits="userSpaceOnUse" x1="182.07696" x2="184.41296" xlink:href="#a" y1="490.992" y2="-10.984"/><linearGradient id="h" gradientUnits="userSpaceOnUse" x1="86.22896" x2="88.55696" xlink:href="#a" y1="490.544" y2="-11.432"/><linearGradient id="i" gradientUnits="userSpaceOnUse" x1="206.22096" x2="208.55696" xlink:href="#a" y1="491.104" y2="-10.872"/><linearGradient id="j" gradientUnits="userSpaceOnUse" x1="70.37296" x2="72.70896" xlink:href="#a" y1="490.472" y2="-11.504"/><linearGradient id="k" gradientUnits="userSpaceOnUse" x1="190.37296" x2="192.70896" xlink:href="#a" y1="491.032" y2="-10.944"/><linearGradient id="l" gradientUnits="userSpaceOnUse" x1="158.52496" x2="160.85296" xlink:href="#a" y1="490.88" y2="-11.096"/><linearGradient id="m" gradientUnits="userSpaceOnUse" x1="78.66896" x2="81.00496" xlink:href="#a" y1="490.512" y2="-11.464"/><linearGradient id="n" gradientUnits="userSpaceOnUse" x1="198.66896" x2="201.00496" xlink:href="#a" y1="491.072" y2="-10.904"/><path d="m408.0625 64h-40v-40c0-13.253906-10.746094-24-24-24h-320c-13.257812 0-24 10.746094-24 24v384c0 8.835938 7.160156 16 16 16h136v-16h-136v-384c0-4.417969 3.582031-8 8-8h281.46875c-.945312 2.5625-1.445312 5.269531-1.46875 8v184h16v-64h72c13.253906 0 24-10.746094 24-24v-48c0-4.417969-3.582031-8-8-8zm-88-40c0-4.417969 3.582031-8 8-8h16c4.417969 0 8 3.582031 8 8v96c.023438 2.730469.523438 5.4375 1.46875 8h-33.46875zm80 96c0 4.417969-3.582031 8-8 8h-16c-4.417969 0-8-3.582031-8-8v-40h32zm0 0" fill="url(#b)"/><path d="m280.0625 256.40625v-16.40625h16v-16h-48v16h16v16.40625c-60.144531 4.308594-106.085938 55.457031-103.929688 115.71875 2.15625 60.257812 51.628907 107.996094 111.929688 107.996094 60.296875 0 109.773438-47.738282 111.925781-107.996094 2.15625-60.261719-43.78125-111.410156-103.925781-115.71875zm-8 207.59375c-53.019531 0-96-42.980469-96-96s42.980469-96 96-96 96 42.980469 96 96c-.058594 52.996094-43.007812 95.941406-96 96zm0 0" fill="url(#c)"/><path d="m272.0625 288c-44.183594 0-80 35.816406-80 80s35.816406 80 80 80c44.179688 0 80-35.816406 80-80-.050781-44.164062-35.839844-79.953125-80-80zm0 144c-35.347656 0-64-28.652344-64-64s28.652344-64 64-64c35.34375 0 64 28.652344 64 64-.042969 35.328125-28.671875 63.960938-64 64zm0 0" fill="url(#c)"/><path d="m331.261719 262.402344 9.597656-12.800782 32 24-9.597656 12.800782zm0 0" fill="url(#d)"/><path d="m171.261719 273.597656 32-24 9.597656 12.800782-32 24zm0 0" fill="url(#e)"/><path d="m280.0625 345.472656v-25.472656h-16v25.472656c-11.023438 3.894532-17.632812 15.164063-15.65625 26.683594 1.976562 11.523438 11.964844 19.941406 23.65625 19.941406 11.6875 0 21.675781-8.417968 23.652344-19.941406 1.976562-11.519531-4.632813-22.789062-15.652344-26.683594zm-8 30.527344c-4.417969 0-8-3.582031-8-8s3.582031-8 8-8 8 3.582031 8 8-3.582031 8-8 8zm0 0" fill="url(#c)"/><path d="m48.0625 56h32v16h-32zm0 0" fill="url(#f)"/><path d="m96.0625 56h176v16h-176zm0 0" fill="url(#g)"/><path d="m48.0625 88h80v16h-80zm0 0" fill="url(#h)"/><path d="m144.0625 88h128v16h-128zm0 0" fill="url(#i)"/><path d="m48.0625 120h48v16h-48zm0 0" fill="url(#j)"/><path d="m112.0625 120h160v16h-160zm0 0" fill="url(#k)"/><path d="m48.0625 152h224v16h-224zm0 0" fill="url(#l)"/><path d="m48.0625 184h64v16h-64zm0 0" fill="url(#m)"/><path d="m128.0625 184h144v16h-144zm0 0" fill="url(#n)"/></svg>