<svg height="512pt" viewBox="0 -2 512.00028 512" width="512pt" xmlns="http://www.w3.org/2000/svg"><path d="m435.125 154.949219-86.289062 21.527343 41.890624 74.671876 51.390626-86.910157c2.820312-4.828125-1.574219-10.664062-6.992188-9.289062zm0 0" fill="#5ca33b"/><path d="m137.347656 304.855469-26.046875 103.199219c-.21875 5.582031 6.402344 8.671874 10.539063 4.910156l95.910156-53.226563zm0 0" fill="#c42d2d"/><path d="m400.648438 412.4375-61.949219-89.660156-84.121094 64 139.40625 34.945312c5.234375.921875 9.210937-4.621094 6.664063-9.285156zm0 0" fill="#ffa90b"/><path d="m131.832031 74.929688c-5.425781-2.335938-10.796875 3.410156-8.097656 8.667968l47.167969 87.332032 65.769531-48.269532zm0 0" fill="#2e5aac"/><path d="m397.859375 251.148438c-.011719 79.136718-64.144531 143.273437-143.28125 143.273437-79.113281 0-143.28125-64.121094-143.28125-143.285156 0-79.132813 64.144531-143.28125 143.28125-143.28125 79.113281 0 143.28125 64.121093 143.28125 143.292969zm0 0" fill="#6990d7"/><path d="m397.859375 251.148438c-.21875-.015626-143.0625-.011719-143.28125-.011719v-143.28125c79.113281 0 143.28125 64.121093 143.28125 143.292969zm0 0" fill="#6dc54a"/><path d="m254.578125 251.136719-42.984375 136.714843c-41.738281-13.09375-75.246094-44.785156-90.820312-85.359374 3.199218-1.621094-10.03125 3.550781 133.804687-51.355469zm0 0" fill="#f44545"/><path d="m102.195312 123.941406c-10.492187 4.265625-22.199218 7.011719-34.632812 7.855469-2.675781.179687-5.371094.273437-8.109375.273437-15.457031 0-30.011719-2.941406-42.75-8.140624-6.648437-2.703126-10.207031-8.378907-8.789063-14.027344 5.382813-21.332032 22.25-37.691406 43.136719-41.199219-12.585937-3.636719-21.789062-15.242187-21.789062-28.996094 0-16.683593 13.519531-30.203125 30.191406-30.203125 2.816406 0 5.535156.386719 8.117187 1.113282 12.742188 3.539062 22.085938 15.226562 22.085938 29.089843 0 13.753907-9.203125 25.359375-21.789062 28.996094 20.898437 3.519531 37.753906 19.875 43.125 41.210937 1.417968 5.644532-2.148438 11.320313-8.796876 14.027344zm0 0" fill="#6990d7"/><path d="m102.195312 123.941406c-10.492187 4.265625-22.199218 7.011719-34.632812 7.855469-12.4375-.84375-24.152344-3.589844-34.644531-7.867187-6.648438-2.703126-10.203125-8.378907-8.785157-14.027344 5.160157-20.464844 20.890626-36.351563 40.601563-40.707032.675781-.148437.734375-1.066406.089844-1.3125-11.316407-4.359374-19.347657-15.328124-19.347657-28.175781 0-13.875 9.355469-25.5625 22.09375-29.089843 12.742188 3.539062 22.085938 15.226562 22.085938 29.089843 0 13.753907-9.203125 25.359375-21.789062 28.996094 20.898437 3.519531 37.753906 19.875 43.125 41.210937 1.417968 5.644532-2.148438 11.320313-8.796876 14.027344zm0 0" fill="#8eabe1"/><path d="m495.289062 123.941406c-10.488281 4.265625-22.195312 7.011719-34.632812 7.855469-2.675781.179687-5.371094.273437-8.105469.273437-15.457031 0-30.011719-2.941406-42.75-8.140624-6.648437-2.703126-10.207031-8.378907-8.789062-14.027344 5.382812-21.332032 22.246093-37.691406 43.136719-41.199219-12.589844-3.636719-21.792969-15.242187-21.792969-28.996094 0-16.683593 13.523437-30.203125 30.195312-30.203125 2.816407 0 5.53125.386719 8.117188 1.113282 12.738281 3.539062 22.085937 15.226562 22.085937 29.089843 0 13.753907-9.203125 25.359375-21.792968 28.996094 20.898437 3.519531 37.753906 19.875 43.125 41.210937 1.421874 5.644532-2.148438 11.320313-8.796876 14.027344zm0 0" fill="#5db33a"/><path d="m495.289062 123.941406c-10.488281 4.265625-22.195312 7.011719-34.632812 7.855469-12.433594-.84375-24.152344-3.589844-34.640625-7.867187-6.648437-2.703126-10.207031-8.378907-8.789063-14.027344 5.164063-20.464844 20.894532-36.351563 40.605469-40.707032.671875-.148437.730469-1.066406.085938-1.3125-11.316407-4.355468-19.34375-15.328124-19.34375-28.175781 0-13.875 9.355469-25.5625 22.09375-29.089843 12.738281 3.539062 22.085937 15.226562 22.085937 29.089843 0 13.753907-9.203125 25.359375-21.792968 28.996094 20.898437 3.519531 37.753906 19.875 43.125 41.210937 1.421874 5.644532-2.148438 11.320313-8.796876 14.027344zm0 0" fill="#6dc54a"/><path d="m102.195312 489.429688c-10.492187 4.265624-22.199218 7.011718-34.632812 7.855468-2.675781.179688-5.371094.273438-8.109375.273438-15.457031 0-30.011719-2.941406-42.75-8.140625-6.648437-2.707031-10.207031-8.382813-8.789063-14.027344 5.382813-21.332031 22.25-37.691406 43.136719-41.199219-12.585937-3.636718-21.789062-15.242187-21.789062-28.996094 0-16.683593 13.519531-30.203124 30.191406-30.203124 2.816406 0 5.535156.386718 8.117187 1.113281 12.742188 3.539062 22.085938 15.222656 22.085938 29.089843 0 13.753907-9.203125 25.359376-21.789062 28.996094 20.898437 3.515625 37.753906 19.875 43.125 41.210938 1.417968 5.644531-2.148438 11.320312-8.796876 14.027344zm0 0" fill="#d63030"/><path d="m102.195312 489.429688c-10.492187 4.265624-22.199218 7.011718-34.632812 7.855468-12.4375-.84375-24.152344-3.589844-34.644531-7.867187-6.648438-2.707031-10.203125-8.382813-8.785157-14.027344 5.160157-20.464844 20.890626-36.351563 40.601563-40.707031.675781-.148438.734375-1.066406.089844-1.3125-11.316407-4.355469-19.347657-15.328125-19.347657-28.175782 0-13.875 9.355469-25.5625 22.09375-29.089843 12.742188 3.539062 22.085938 15.222656 22.085938 29.089843 0 13.753907-9.203125 25.359376-21.789062 28.996094 20.898437 3.515625 37.753906 19.875 43.125 41.210938 1.417968 5.644531-2.148438 11.320312-8.796876 14.027344zm0 0" fill="#f44545"/><path d="m495.289062 489.429688c-10.488281 4.265624-22.195312 7.011718-34.632812 7.855468-2.675781.179688-5.371094.273438-8.105469.273438-15.457031 0-30.011719-2.941406-42.75-8.140625-6.648437-2.707031-10.207031-8.382813-8.789062-14.027344 5.382812-21.332031 22.246093-37.691406 43.136719-41.199219-12.589844-3.636718-21.792969-15.242187-21.792969-28.996094 0-16.683593 13.523437-30.203124 30.195312-30.203124 2.816407 0 5.53125.386718 8.117188 1.113281 12.738281 3.539062 22.085937 15.222656 22.085937 29.089843 0 13.753907-9.203125 25.359376-21.792968 28.996094 20.898437 3.515625 37.753906 19.875 43.125 41.210938 1.421874 5.644531-2.148438 11.320312-8.796876 14.027344zm0 0" fill="#ffa90b"/><path d="m495.289062 489.429688c-10.488281 4.265624-22.195312 7.011718-34.632812 7.855468-12.433594-.84375-24.152344-3.589844-34.640625-7.867187-6.648437-2.707031-10.207031-8.382813-8.789063-14.027344 5.164063-20.464844 20.894532-36.351563 40.605469-40.707031.671875-.148438.730469-1.066406.085938-1.3125-11.316407-4.355469-19.34375-15.328125-19.34375-28.175782 0-13.875 9.355469-25.5625 22.09375-29.089843 12.738281 3.539062 22.085937 15.222656 22.085937 29.089843 0 13.753907-9.203125 25.359376-21.792968 28.996094 20.898437 3.515625 37.753906 19.875 43.125 41.210938 1.421874 5.644531-2.148438 11.320312-8.796876 14.027344zm0 0" fill="#ffc14f"/><path d="m397.71875 251.136719h-143.140625l-42.984375 136.714843c13.570312 4.269532 28.003906 6.570313 42.984375 6.570313 79.136719 0 143.269531-64.136719 143.28125-143.273437zm0 0" fill="#ffc14f"/><path d="m13.832031 130.96875c28.691407 11.703125 63.0625 11.484375 91.226563.011719 10.183594-4.148438 15.652344-13.574219 13.300781-22.921875-4.804687-19.070313-17.53125-34.222656-33.859375-41.980469 26.003906-23.054687 9.5625-66.078125-25.042969-66.078125-20.839843 0-37.800781 16.957031-37.800781 37.796875 0 11.242187 4.9375 21.347656 12.753906 28.277344-16.328125 7.753906-29.058594 22.90625-33.867187 41.96875-2.355469 9.347656 3.109375 18.777343 13.289062 22.925781zm45.625-115.765625c12.460938 0 22.597657 10.136719 22.597657 22.59375 0 12.460937-10.136719 22.597656-22.597657 22.597656-12.457031 0-22.59375-10.136719-22.59375-22.597656 0-12.457031 10.136719-22.59375 22.59375-22.59375zm-44.171875 96.558594c5.367188-21.292969 23.527344-36.164063 44.164063-36.164063 20.640625 0 38.800781 14.875 44.167969 36.171875.53125 2.109375-1.851563 4.136719-4.292969 5.128907-24.679688 10.054687-54.917969 10.121093-79.753907-.007813-2.4375-.992187-4.816406-3.023437-4.285156-5.128906zm0 0"/><path d="m406.929688 130.96875c28.691406 11.699219 63.0625 11.484375 91.230468.011719 10.183594-4.148438 15.652344-13.574219 13.296875-22.921875-4.800781-19.070313-17.53125-34.222656-33.855469-41.980469 25.996094-23.050781 9.570313-66.078125-25.042968-66.078125-34.601563 0-51.042969 43.015625-25.050782 66.074219-16.324218 7.757812-29.058593 22.90625-33.863281 41.972656-2.359375 9.34375 3.105469 18.773437 13.285157 22.921875zm45.628906-115.765625c12.457031 0 22.59375 10.136719 22.59375 22.59375 0 12.460937-10.136719 22.597656-22.59375 22.597656-12.460938 0-22.597656-10.136719-22.597656-22.597656 0-12.457031 10.136718-22.59375 22.597656-22.59375zm-44.175782 96.558594c5.371094-21.292969 23.53125-36.164063 44.167969-36.164063 20.640625 0 38.800781 14.875 44.164063 36.171875.53125 2.109375-1.851563 4.136719-4.289063 5.128907-24.683593 10.054687-54.921875 10.121093-79.753906-.007813-2.4375-.992187-4.820313-3.023437-4.289063-5.128906zm0 0"/><path d="m84.5 433.46875c26.003906-23.054688 9.5625-66.078125-25.042969-66.078125-34.601562 0-51.042969 43.015625-25.046875 66.074219-16.328125 7.753906-29.058594 22.90625-33.867187 41.96875-2.355469 9.347656 3.109375 18.773437 13.289062 22.925781 28.695313 11.703125 63.0625 11.484375 91.230469.011719 10.183594-4.148438 15.652344-13.574219 13.296875-22.921875-4.804687-19.070313-17.53125-34.222657-33.859375-41.980469zm-25.042969-50.875c12.460938 0 22.597657 10.136719 22.597657 22.59375 0 12.460938-10.136719 22.597656-22.597657 22.597656-12.457031 0-22.59375-10.136718-22.59375-22.597656 0-12.457031 10.136719-22.59375 22.59375-22.59375zm39.867188 101.699219c-24.679688 10.050781-54.917969 10.117187-79.753907-.011719-2.433593-.992188-4.816406-3.023438-4.285156-5.128906 5.367188-21.292969 23.53125-36.164063 44.167969-36.164063s38.800781 14.875 44.164063 36.171875c.53125 2.109375-1.851563 4.140625-4.292969 5.132813zm0 0"/><path d="m477.601562 433.46875c25.996094-23.050781 9.570313-66.078125-25.042968-66.078125-34.601563 0-51.046875 43.015625-25.050782 66.074219-16.328124 7.753906-29.058593 22.90625-33.863281 41.972656-2.359375 9.34375 3.105469 18.769531 13.285157 22.921875 28.691406 11.699219 63.0625 11.484375 91.230468.011719 10.183594-4.148438 15.652344-13.574219 13.296875-22.921875-4.800781-19.070313-17.53125-34.222657-33.855469-41.980469zm-25.042968-50.875c12.457031 0 22.59375 10.136719 22.59375 22.59375 0 12.460938-10.136719 22.597656-22.59375 22.597656-12.460938 0-22.597656-10.136718-22.597656-22.597656 0-12.457031 10.136718-22.59375 22.597656-22.59375zm39.863281 101.699219c-24.679687 10.050781-54.917969 10.117187-79.75-.011719-2.4375-.992188-4.820313-3.023438-4.289063-5.128906 5.371094-21.292969 23.53125-36.164063 44.167969-36.164063 20.640625 0 38.800781 14.875 44.164063 36.171875.53125 2.109375-1.851563 4.140625-4.292969 5.132813zm0 0"/><path d="m395.128906 429.425781c11.414063 0 17.476563-12.945312 11.792969-21.285156l-16.242187-23.71875c-2.371094-3.464844-7.101563-4.351563-10.566407-1.976563-3.464843 2.371094-4.347656 7.101563-1.976562 10.566407l13.972656 20.410156-84.386719-21.074219c18.34375-6.925781 34.992188-17.328125 49.144532-30.402344 3.683593 5.382813 5.332031 9.285157 10.371093 9.285157 6.070313 0 9.726563-6.84375 6.265625-11.898438l-5.800781-8.46875c25.761719-29.191406 39.808594-67.59375 37.503906-108.339843l43.476563-74.453126c6.207031-10.628906-3.5-23.519531-15.429688-20.484374l-56.976562 14.476562c-36.378906-49.570312-98.117188-71.671875-156.816406-57.683594l-84.621094-36.429687c-11.96875-5.15625-23.816406 7.53125-17.863282 19.121093l29.925782 58.285157c-15.703125 15.980469-27.980469 35.597656-35.433594 57.855469-1.332031 3.980468.816406 8.289062 4.796875 9.621093 3.980469 1.335938 8.289063-.8125 9.621094-4.792969 17.753906-53.03125 65.957031-89.277343 121.089843-92.34375v130.210938l-121.671874 46.441406c-5.785157-18.105468-7.671876-37.257812-5.582032-56.253906.460938-4.171875-2.550781-7.925781-6.722656-8.386719-4.171875-.457031-7.929688 2.550781-8.386719 6.722657-3.496093 31.714843 3 63.4375 18.726563 91.078124-.222656.691407-19.585938 81.109376-19.632813 82.246094-.316406 8.023438 6.132813 14.460938 13.902344 14.460938 4.542969 0-.832031 2.320312 68.460937-36.664063 28.613282 14.644531 60.457032 19.367188 90.949219 14.800781 125.804688 31.414063 115.472657 29.074219 118.109375 29.074219zm-236.605468-294.714843-26.375-51.367188 65.296874 28.105469c-14.113281 5.765625-27.230468 13.621093-38.921874 23.261719zm275.464843 28.371093-32.167969 55.089844c-3.402343-15.210937-9.105468-29.558594-16.730468-42.664063zm-314.234375 242.335938 15.042969-62.644531c10.09375 13.164062 22.300781 24.621093 36.113281 33.863281zm10.984375-98.875 111.878907-42.703125-35.914063 114.246094c-33.816406-12.796876-61.226563-38.726563-75.964844-71.542969zm90.460938 76.117187 38.957031-123.921875h32.5625c4.195312 0 7.601562-3.402343 7.601562-7.601562s-3.40625-7.601563-7.601562-7.601563h-30.539062v-127.859375c68.773437 3.816407 124.042968 59.085938 127.859374 127.859375h-66.914062c-4.199219 0-7.601562 3.402344-7.601562 7.601563s3.402343 7.601562 7.601562 7.601562h66.914062c-4.691406 84.484375-85.746093 145.015625-168.839843 123.921875zm0 0"/></svg>