<?xml version="1.0" encoding="iso-8859-1"?>
<!-- Generator: Adobe Illustrator 19.0.0, SVG Export Plug-In . SVG Version: 6.00 Build 0)  -->
<svg version="1.1" id="Capa_1" xmlns="http://www.w3.org/2000/svg" xmlns:xlink="http://www.w3.org/1999/xlink" x="0px" y="0px"
	 viewBox="0 0 512.399 512.399" style="enable-background:new 0 0 512.399 512.399;" xml:space="preserve">
<path style="fill:#344A5E;" d="M97.266,363.065v-30.933h150.4v30.933h21.333v-30.933h150.4v30.933h21.333v-41.6
	c0-5.333-4.267-10.667-10.667-10.667H268.999v-28.8h-21.333v28.8H86.599c-5.333,0-10.667,5.333-10.667,10.667v41.6H97.266z"/>
<g>
	<path style="fill:#F3705A;" d="M284.999,178.532c0,0,9.6-13.867,13.867-23.467c4.267-8.533,10.667-44.8,10.667-44.8l-12.8,2.133
		C297.799,112.399,283.933,165.732,284.999,178.532z"/>
	<path style="fill:#F3705A;" d="M216.733,156.132l13.867,9.6l7.467-33.067l-33.067-41.6
		C206.066,91.065,182.599,132.665,216.733,156.132z"/>
</g>
<path style="fill:#FFD15C;" d="M290.333,268.132c8.533-37.333,12.8-71.467,0-97.067v-17.067
	c13.867-20.267,14.933-50.133,14.933-50.133l-9.6-54.4c0,0-5.333-22.4-25.6-20.267s-40.533,14.933-40.533,14.933l-20.267,56.533
	c-5.333,0-14.933,22.4,17.067,52.267v19.2c-10.667,33.067-9.6,65.067,0,97.067h64V268.132z"/>
<path style="fill:#F7B64C;" d="M226.333,151.865L226.333,151.865l-7.467,44.8c59.733-17.067,72.533-42.667,72.533-42.667
	C268.999,171.065,247.666,171.065,226.333,151.865z"/>
<path style="fill:#E8EAE9;" d="M292.466,288.399l-2.133-55.467c1.067,32-68.267,32-67.2,0l-1.067,55.467H292.466z"/>
<g>
	<path style="fill:#344A5E;" d="M227.399,288.399l-20.267-101.333l-50.133,21.333c-10.667,5.333-20.267,40.533-26.667,80H227.399z"
		/>
	<path style="fill:#344A5E;" d="M383.133,288.399c-6.4-38.4-16-74.667-26.667-80l-50.133-21.333l-21.333,101.333H383.133z"/>
</g>
<g>
	<path style="fill:#415A6B;" d="M308.466,288.399l26.667-60.8l-20.267-12.8l12.8-3.2l-36.267-40.533c0,0-8.533,67.2-14.933,117.333
		H308.466z"/>
	<path style="fill:#415A6B;" d="M203.933,288.399h33.067c-6.4-51.2-14.933-117.333-14.933-117.333l-36.267,40.533l12.8,3.2
		l-20.267,12.8L203.933,288.399z"/>
</g>
<g>
	<path style="fill:#F3705A;" d="M319.133,63.332c-3.2-21.333-20.267-48-42.667-59.733s-68.267,6.4-78.933,37.333
		c-10.667,30.933-8.533,66.133,3.2,101.333c3.2,8.533,6.4,16,10.667,22.4c2.133-4.267,5.333-8.533,10.667-10.667
		c-12.8-18.133-14.933-44.8-12.8-49.067c3.2-5.333,12.8-8.533,33.067-27.733s48-29.867,48-29.867s17.067,56.533,14.933,77.867
		c-2.133,20.267-11.733,32-16,53.333c-2.133,13.867,4.267,27.733,4.267,27.733s2.133-24.533,10.667-35.2
		c14.933-28.8,17.067-42.667,18.133-55.467C322.333,102.799,322.333,84.665,319.133,63.332z"/>
	<path style="fill:#F3705A;" d="M190.066,93.199c0,0,23.467,105.6,13.867,138.667c-8.533,33.067-16,39.467-16,39.467
		c57.6-45.867,44.8-107.733,38.4-119.467c-17.067,2.133-39.467-59.733-30.933-70.4"/>
	<path style="fill:#F3705A;" d="M314.866,77.199c3.2,8.533,6.4,18.133,6.4,27.733c1.067,17.067-2.133,34.133-5.333,51.2
		s-6.4,34.133-4.267,51.2s9.6,34.133,24.533,43.733c-10.667,2.133-21.333,0-29.867-5.333c-8.533-5.333-16-12.8-20.267-22.4
		c-5.333-11.733-4.267-25.6-1.067-38.4c3.2-12.8,9.6-24.533,13.867-36.267c5.333-11.733,10.667-24.533,11.733-37.333"/>
	<circle style="fill:#F3705A;" cx="432.199" cy="432.399" r="80"/>
</g>
<g>
	<circle style="fill:#F3F3F3;" cx="432.199" cy="404.665" r="27.733"/>
	<path style="fill:#F3F3F3;" d="M432.199,512.399c22.4,0,42.667-9.6,57.6-24.533c-8.533-23.467-30.933-40.533-57.6-40.533
		c-26.667,0-49.067,17.067-57.6,40.533C388.466,502.799,409.799,512.399,432.199,512.399z"/>
</g>
<circle style="fill:#F3705A;" cx="256.199" cy="432.399" r="80"/>
<g>
	<circle style="fill:#F3F3F3;" cx="256.199" cy="404.665" r="27.733"/>
	<path style="fill:#F3F3F3;" d="M256.199,512.399c22.4,0,42.667-9.6,57.6-24.533c-8.533-23.467-30.933-40.533-57.6-40.533
		s-49.067,17.067-57.6,40.533C213.533,502.799,233.799,512.399,256.199,512.399z"/>
</g>
<circle style="fill:#66C6B9;" cx="80.199" cy="432.399" r="80"/>
<g>
	<circle style="fill:#F3F3F3;" cx="80.199" cy="404.665" r="27.733"/>
	<path style="fill:#F3F3F3;" d="M80.199,512.399c22.4,0,42.667-9.6,57.6-24.533c-8.533-23.467-30.933-40.533-57.6-40.533
		s-49.067,17.067-57.6,40.533C37.533,502.799,57.799,512.399,80.199,512.399z"/>
</g>
<g>
</g>
<g>
</g>
<g>
</g>
<g>
</g>
<g>
</g>
<g>
</g>
<g>
</g>
<g>
</g>
<g>
</g>
<g>
</g>
<g>
</g>
<g>
</g>
<g>
</g>
<g>
</g>
<g>
</g>
</svg>
