<?xml version="1.0" encoding="utf-8"?>
<!-- Generator: Adobe Illustrator 22.0.0, SVG Export Plug-In . SVG Version: 6.00 Build 0)  -->
<svg version="1.1" id="Layer_1" xmlns="http://www.w3.org/2000/svg" xmlns:xlink="http://www.w3.org/1999/xlink" x="0px" y="0px"
	 viewBox="0 0 440.1 298.9" style="enable-background:new 0 0 440.1 298.9;" xml:space="preserve">
<style type="text/css">
	.st0{fill:#F1F2F2;}
	.st1{fill:#414042;}
	.st2{fill:url(#SVGID_1_);}
	.st3{fill:#FFFFFF;}
	.st4{fill:url(#SVGID_2_);}
	.st5{fill:url(#SVGID_3_);}
	.st6{fill:url(#SVGID_4_);}
	.st7{fill:url(#SVGID_5_);}
	.st8{fill:url(#SVGID_6_);}
	.st9{fill:url(#SVGID_7_);}
	.st10{fill:url(#SVGID_8_);}
	.st11{fill:url(#SVGID_9_);}
	.st12{fill:url(#SVGID_10_);}
	.st13{fill:url(#SVGID_11_);}
	.st14{fill:#BCBEC0;}
	.st15{font-family:'Roboto-Bold';}
	.st16{font-size:10.404px;}
	.st17{font-family:'ProximaNova-Bold';}
	.st18{font-size:14.5657px;}
	.st19{fill:none;stroke:#231F20;stroke-width:0.9176;stroke-linecap:round;stroke-miterlimit:10;stroke-dasharray:0,5.2853;}
	.st20{fill:url(#SVGID_12_);}
	.st21{fill:url(#SVGID_13_);}
	.st22{fill:url(#SVGID_14_);}
	.st23{fill:url(#SVGID_15_);}
	.st24{fill:url(#SVGID_16_);}
	.st25{fill:#FFFFFF;stroke:url(#SVGID_17_);stroke-width:1.7;stroke-miterlimit:10;}
	.st26{fill:#2A2E3A;}
	.st27{fill:url(#SVGID_18_);}
	.st28{fill:#231F20;}
	.st29{font-family:'MyriadPro-Bold';}
	.st30{font-size:18px;}
	.st31{fill:url(#SVGID_19_);}
	.st32{fill:#FFFFFF;stroke:url(#SVGID_20_);stroke-width:1.7;stroke-miterlimit:10;}
	.st33{fill:url(#SVGID_21_);}
	.st34{fill:url(#SVGID_22_);}
	.st35{fill:#FFFFFF;stroke:url(#SVGID_23_);stroke-width:1.7;stroke-miterlimit:10;}
	.st36{fill:url(#SVGID_24_);}
	.st37{enable-background:new    ;}
	.st38{fill:#515151;}
	.st39{font-family:'Roboto-Black';}
	.st40{font-size:10px;}
	.st41{letter-spacing:31.8;}
	.st42{font-family:'MyriadPro-Regular';}
	.st43{font-size:8px;}
</style>
<g>
	<g>
		<rect x="0.3" y="0" class="st0" width="439.2" height="299.6"/>
		<rect x="0.5" y="0" class="st1" width="439.6" height="66.6"/>
		<g>
			<g>
				<linearGradient id="SVGID_1_" gradientUnits="userSpaceOnUse" x1="304.2665" y1="56.7098" x2="432.5665" y2="56.7098">
					<stop  offset="3.370800e-02" style="stop-color:#D5D12A"/>
					<stop  offset="1" style="stop-color:#689400"/>
				</linearGradient>
				<rect x="304.3" y="46.8" class="st2" width="128.3" height="19.8"/>
				<g>
					<rect x="304.3" y="74.8" class="st3" width="128.3" height="141"/>
					<g>
						<linearGradient id="SVGID_2_" gradientUnits="userSpaceOnUse" x1="303.7619" y1="196.3922" x2="328.0542" y2="196.3922">
							<stop  offset="3.370800e-02" style="stop-color:#D5D12A"/>
							<stop  offset="1" style="stop-color:#689400"/>
						</linearGradient>
						<polygon class="st4" points="328.1,216.3 303.8,216.3 303.8,176.5 304.8,176.5 304.8,215.3 328.1,215.3 						"/>
					</g>
					<g>
						<linearGradient id="SVGID_3_" gradientUnits="userSpaceOnUse" x1="408.7788" y1="94.1522" x2="433.071" y2="94.1522">
							<stop  offset="3.370800e-02" style="stop-color:#D5D12A"/>
							<stop  offset="1" style="stop-color:#689400"/>
						</linearGradient>
						<polygon class="st5" points="433.1,114.1 432.1,114.1 432.1,75.3 408.8,75.3 408.8,74.2 433.1,74.2 						"/>
					</g>
					<g>
						<linearGradient id="SVGID_4_" gradientUnits="userSpaceOnUse" x1="420.6727" y1="83.8081" x2="434.0801" y2="83.8081">
							<stop  offset="3.370800e-02" style="stop-color:#D5D12A"/>
							<stop  offset="1" style="stop-color:#689400"/>
						</linearGradient>
						<polygon class="st6" points="434.1,94.4 431.1,94.4 431.1,76.3 420.7,76.3 420.7,73.2 434.1,73.2 						"/>
					</g>
					<g>
						
							<linearGradient id="SVGID_5_" gradientUnits="userSpaceOnUse" x1="57.6549" y1="146.586" x2="71.0624" y2="146.586" gradientTransform="matrix(-1 0 0 -1 373.8152 353.3223)">
							<stop  offset="3.370800e-02" style="stop-color:#D5D12A"/>
							<stop  offset="1" style="stop-color:#689400"/>
						</linearGradient>
						<polygon class="st7" points="316.2,217.3 302.8,217.3 302.8,196.1 305.8,196.1 305.8,214.2 316.2,214.2 						"/>
					</g>
				</g>
			</g>
			<g>
				<linearGradient id="SVGID_6_" gradientUnits="userSpaceOnUse" x1="6.594" y1="56.7098" x2="134.894" y2="56.7098">
					<stop  offset="3.370800e-02" style="stop-color:#85478A"/>
					<stop  offset="1" style="stop-color:#404A89"/>
				</linearGradient>
				<rect x="6.6" y="46.8" class="st8" width="128.3" height="19.8"/>
				<g>
					<rect x="6.6" y="74.8" class="st3" width="128.3" height="141"/>
					<g>
						<linearGradient id="SVGID_7_" gradientUnits="userSpaceOnUse" x1="6.0895" y1="196.3922" x2="30.3817" y2="196.3922">
							<stop  offset="3.370800e-02" style="stop-color:#85478A"/>
							<stop  offset="1" style="stop-color:#404A89"/>
						</linearGradient>
						<polygon class="st9" points="30.4,216.3 6.1,216.3 6.1,176.5 7.1,176.5 7.1,215.3 30.4,215.3 						"/>
					</g>
					<g>
						<linearGradient id="SVGID_8_" gradientUnits="userSpaceOnUse" x1="111.1063" y1="94.1522" x2="135.3986" y2="94.1522">
							<stop  offset="3.370800e-02" style="stop-color:#85478A"/>
							<stop  offset="1" style="stop-color:#404A89"/>
						</linearGradient>
						<polygon class="st10" points="135.4,114.1 134.4,114.1 134.4,75.3 111.1,75.3 111.1,74.2 135.4,74.2 						"/>
					</g>
					<g>
						<linearGradient id="SVGID_9_" gradientUnits="userSpaceOnUse" x1="123.0002" y1="83.8081" x2="136.4076" y2="83.8081">
							<stop  offset="3.370800e-02" style="stop-color:#85478A"/>
							<stop  offset="1" style="stop-color:#404A89"/>
						</linearGradient>
						<polygon class="st11" points="136.4,94.4 133.4,94.4 133.4,76.3 123,76.3 123,73.2 136.4,73.2 						"/>
					</g>
					<g>
						
							<linearGradient id="SVGID_10_" gradientUnits="userSpaceOnUse" x1="355.3274" y1="146.586" x2="368.7349" y2="146.586" gradientTransform="matrix(-1 0 0 -1 373.8152 353.3223)">
							<stop  offset="3.370800e-02" style="stop-color:#85478A"/>
							<stop  offset="1" style="stop-color:#404A89"/>
						</linearGradient>
						<polygon class="st12" points="18.5,217.3 5.1,217.3 5.1,196.1 8.1,196.1 8.1,214.2 18.5,214.2 						"/>
					</g>
				</g>
			</g>
		</g>
		<rect x="155.4" y="74.8" class="st3" width="128.3" height="141"/>
		<linearGradient id="SVGID_11_" gradientUnits="userSpaceOnUse" x1="155.43" y1="56.7098" x2="283.7305" y2="56.7098">
			<stop  offset="0.2426" style="stop-color:#BA1768"/>
			<stop  offset="1" style="stop-color:#EF5649"/>
		</linearGradient>
		<rect x="155.4" y="46.8" class="st13" width="128.3" height="19.8"/>
		<rect y="255.6" class="st14" width="440.1" height="44"/>
		<rect x="0.5" y="226.7" class="st1" width="441.1" height="28.9"/>
		<rect x="0.3" y="260" class="st1" width="437.9" height="2.8"/>
		<text transform="matrix(0.9699 0 0 1 24.327 59.833)"><tspan x="0" y="0" class="st3 st15 st16">Softwa</tspan><tspan x="32.7" y="0" class="st3 st15 st16">r</tspan><tspan x="36.4" y="0" class="st3 st15 st16">e as a Se</tspan><tspan x="78.4" y="0" class="st3 st15 st16">r</tspan><tspan x="82.3" y="0" class="st3 st15 st16">vice</tspan></text>
		<text transform="matrix(0.9699 0 0 1 169.6308 59.833)"><tspan x="0" y="0" class="st3 st15 st16">Platform as a Se</tspan><tspan x="77.3" y="0" class="st3 st15 st16">r</tspan><tspan x="81.2" y="0" class="st3 st15 st16">vice</tspan></text>
		<text transform="matrix(0.9699 0 0 1 308.4076 59.833)"><tspan x="0" y="0" class="st3 st15 st16">Inf</tspan><tspan x="12.6" y="0" class="st3 st15 st16">r</tspan><tspan x="16.2" y="0" class="st3 st15 st16">astructu</tspan><tspan x="55.1" y="0" class="st3 st15 st16">r</tspan><tspan x="58.8" y="0" class="st3 st15 st16">e as a Se</tspan><tspan x="100.7" y="0" class="st3 st15 st16">r</tspan><tspan x="104.6" y="0" class="st3 st15 st16">vice</tspan></text>
		<text transform="matrix(0.9699 0 0 1 43.6273 25.3809)"><tspan x="0" y="0" class="st3 st17 st18">C</tspan><tspan x="10" y="0" class="st3 st17 st18">L</tspan><tspan x="17.1" y="0" class="st3 st17 st18">OUD COMPUTING DELIVE</tspan><tspan x="192.8" y="0" class="st3 st17 st18">R</tspan><tspan x="201.9" y="0" class="st3 st17 st18">Y METHODS EXAMPLES</tspan></text>
		<g>
			<line class="st19" x1="143.9" y1="95.5" x2="143.9" y2="201.5"/>
			<line class="st19" x1="295.3" y1="95.5" x2="295.3" y2="201.5"/>
		</g>
		<g>
			<linearGradient id="SVGID_12_" gradientUnits="userSpaceOnUse" x1="154.9254" y1="196.3922" x2="179.2177" y2="196.3922">
				<stop  offset="0.2426" style="stop-color:#BA1768"/>
				<stop  offset="1" style="stop-color:#EF5649"/>
			</linearGradient>
			<polygon class="st20" points="179.2,216.3 154.9,216.3 154.9,176.5 155.9,176.5 155.9,215.3 179.2,215.3 			"/>
		</g>
		<g>
			<linearGradient id="SVGID_13_" gradientUnits="userSpaceOnUse" x1="259.9428" y1="94.1522" x2="284.2351" y2="94.1522">
				<stop  offset="0.2426" style="stop-color:#BA1768"/>
				<stop  offset="1" style="stop-color:#EF5649"/>
			</linearGradient>
			<polygon class="st21" points="284.2,114.1 283.2,114.1 283.2,75.3 259.9,75.3 259.9,74.2 284.2,74.2 			"/>
		</g>
		<g>
			<linearGradient id="SVGID_14_" gradientUnits="userSpaceOnUse" x1="271.8367" y1="83.8081" x2="285.2441" y2="83.8081">
				<stop  offset="0.2426" style="stop-color:#BA1768"/>
				<stop  offset="1" style="stop-color:#EF5649"/>
			</linearGradient>
			<polygon class="st22" points="285.2,94.4 282.2,94.4 282.2,76.3 271.8,76.3 271.8,73.2 285.2,73.2 			"/>
		</g>
		<g>
			
				<linearGradient id="SVGID_15_" gradientUnits="userSpaceOnUse" x1="206.4914" y1="146.586" x2="219.8988" y2="146.586" gradientTransform="matrix(-1 0 0 -1 373.8152 353.3223)">
				<stop  offset="0.2426" style="stop-color:#BA1768"/>
				<stop  offset="1" style="stop-color:#EF5649"/>
			</linearGradient>
			<polygon class="st23" points="167.3,217.3 153.9,217.3 153.9,196.1 156.9,196.1 156.9,214.2 167.3,214.2 			"/>
		</g>
	</g>
</g>
<linearGradient id="SVGID_16_" gradientUnits="userSpaceOnUse" x1="181.4916" y1="243.2715" x2="270.6181" y2="243.2715">
	<stop  offset="0.2426" style="stop-color:#BA1768"/>
	<stop  offset="1" style="stop-color:#EF5649"/>
</linearGradient>
<path class="st24" d="M226.1,287.8c-24.6,0-44.6-20-44.6-44.6s44.6-44.6,44.6-44.6s44.6,20,44.6,44.6S250.6,287.8,226.1,287.8z"/>
<g>
	<linearGradient id="SVGID_17_" gradientUnits="userSpaceOnUse" x1="188.0577" y1="245.0576" x2="264.0521" y2="245.0576">
		<stop  offset="0.2426" style="stop-color:#BA1768"/>
		<stop  offset="1" style="stop-color:#EF5649"/>
	</linearGradient>
	<path class="st25" d="M242,209.7h-31.8c-12.6,6-21.2,18.8-21.2,33.6c0,20.5,16.6,37.1,37.1,37.1c20.5,0,37.1-16.6,37.1-37.1
		C263.2,228.5,254.5,215.7,242,209.7z"/>
</g>
<g>
	<g>
		<path class="st26" d="M206.2,211.9c-0.1-0.1-0.2-0.3-0.4-0.4c0,0-0.1-0.1-0.1-0.1c-0.1-0.1-0.2-0.1-0.2-0.2
			c-0.1-0.1-0.1-0.1-0.2-0.2c-0.1-0.1-0.1-0.1-0.2-0.2c-0.1-0.1-0.2-0.1-0.3-0.2c-0.1,0-0.1-0.1-0.2-0.1c-0.2-0.1-0.3-0.2-0.5-0.3
			c-0.8-0.4-1.8-0.6-2.7-0.6c-1.7,0-3.3,0.8-4.5,2c-1.1,1.1-3.7,6-2.4,12C197.4,218.9,201.4,214.9,206.2,211.9z"/>
		<path class="st26" d="M257.6,223.7c1.3-6-1.3-10.9-2.4-12c-1.2-1.2-2.7-2-4.5-2c-0.9,0-1.9,0.3-2.7,0.6c-0.2,0.1-0.3,0.2-0.5,0.3
			c-0.1,0-0.1,0.1-0.2,0.1c-0.1,0.1-0.2,0.1-0.3,0.2c-0.1,0-0.1,0.1-0.2,0.2c-0.1,0.1-0.1,0.1-0.2,0.2c-0.1,0.1-0.2,0.1-0.2,0.2
			c0,0-0.1,0.1-0.1,0.1c-0.1,0.1-0.2,0.2-0.4,0.4C250.7,214.9,254.7,218.9,257.6,223.7z"/>
	</g>
	<g>
		<linearGradient id="SVGID_18_" gradientUnits="userSpaceOnUse" x1="226.0563" y1="206.5487" x2="226.0563" y2="227.7108">
			<stop  offset="0.2426" style="stop-color:#BA1768"/>
			<stop  offset="1" style="stop-color:#EF5649"/>
		</linearGradient>
		<path class="st27" d="M250.6,209.7h-24.3h-0.2l0,0h-0.2h-24.3c0,0-0.1,0-0.1,0c0.9,0,1.9,0.3,2.7,0.6c0.2,0.1,0.3,0.2,0.5,0.3
			c0.1,0,0.1,0.1,0.2,0.1c0.1,0.1,0.2,0.1,0.3,0.2c0.1,0,0.1,0.1,0.2,0.2c0.1,0.1,0.1,0.1,0.2,0.2c0.1,0.1,0.2,0.1,0.2,0.2
			c0,0,0.1,0.1,0.1,0.1c0.1,0.1,0.3,0.3,0.4,0.4c0,0,0,0,0.1,0.1c0.1,0.1,0.2,0.2,0.2,0.3c0,0,0.1,0.1,0.1,0.1c0,0,0,0,0,0.1
			c0,0,0.1,0.1,0.1,0.1c0.1,0.1,0.1,0.2,0.2,0.3c0,0,0,0,0,0l0,0c0,0,0,0,0,0c0.1,0.2,0.3,0.5,0.4,0.7c0,0,0,0,0,0
			c0.3,0.8,0.5,1.6,0.6,2.5c0,0.1,0,0.2,0,0.2c0.2,1.6,0.3,3.2,1,4.7c1.1,2.3,3,3.4,5.6,3.4c0,0,11.2,0,11.2,0s0.1,0,0.2,0v0
			c0.1,0,0.2,0,0.2,0s11.2,0,11.2,0c2.5,0,4.5-1.2,5.6-3.4c0.7-1.5,0.8-3.1,1-4.7c0-0.1,0-0.1,0-0.2c0.1-0.9,0.3-1.7,0.6-2.6
			c0.1-0.3,0.2-0.5,0.4-0.7c0.3-0.5,0.7-1,1.1-1.5c0,0,0.1-0.1,0.1-0.1c0.1-0.1,0.2-0.1,0.2-0.2c0.1-0.1,0.1-0.1,0.2-0.2
			c0.1-0.1,0.1-0.1,0.2-0.2c0.1-0.1,0.2-0.1,0.3-0.2c0.1,0,0.1-0.1,0.2-0.1c0.2-0.1,0.3-0.2,0.5-0.3c0.8-0.4,1.8-0.6,2.7-0.6
			C250.7,209.7,250.6,209.7,250.6,209.7z"/>
	</g>
</g>
<g>
	<text transform="matrix(1 0 0 1 207.7815 253.6922)"><tspan x="0" y="0" class="st28 st29 st30">P</tspan><tspan x="10.1" y="0" class="st28 st29 st30">aaS</tspan></text>
</g>
<g>
	<linearGradient id="SVGID_19_" gradientUnits="userSpaceOnUse" x1="31.9911" y1="241.9863" x2="121.1181" y2="241.9863">
		<stop  offset="0.329" style="stop-color:#652C93"/>
		<stop  offset="1" style="stop-color:#9F5391"/>
	</linearGradient>
	<path class="st31" d="M76.6,286.5C52,286.5,32,266.6,32,242s44.6-44.6,44.6-44.6s44.6,20,44.6,44.6S101.1,286.5,76.6,286.5z"/>
	<g>
		<linearGradient id="SVGID_20_" gradientUnits="userSpaceOnUse" x1="38.5572" y1="243.7725" x2="114.5521" y2="243.7725">
			<stop  offset="0.329" style="stop-color:#652C93"/>
			<stop  offset="1" style="stop-color:#9F5391"/>
		</linearGradient>
		<path class="st32" d="M92.5,208.4H60.6c-12.6,6-21.2,18.8-21.2,33.6c0,20.5,16.6,37.1,37.1,37.1c20.5,0,37.1-16.6,37.1-37.1
			C113.7,227.2,105,214.4,92.5,208.4z"/>
	</g>
	<g>
		<g>
			<path class="st26" d="M56.7,210.6c-0.1-0.1-0.2-0.3-0.4-0.4c0,0-0.1-0.1-0.1-0.1c-0.1-0.1-0.2-0.1-0.2-0.2
				c-0.1-0.1-0.1-0.1-0.2-0.2c-0.1-0.1-0.1-0.1-0.2-0.2c-0.1-0.1-0.2-0.1-0.3-0.2c-0.1,0-0.1-0.1-0.2-0.1c-0.2-0.1-0.3-0.2-0.5-0.3
				c-0.8-0.4-1.8-0.6-2.7-0.6c-1.7,0-3.3,0.8-4.5,2c-1.1,1.1-3.7,6-2.4,12C47.9,217.6,51.9,213.6,56.7,210.6z"/>
			<path class="st26" d="M108.1,222.4c1.3-6-1.3-10.9-2.4-12c-1.2-1.2-2.7-2-4.5-2c-0.9,0-1.9,0.3-2.7,0.6c-0.2,0.1-0.3,0.2-0.5,0.3
				c-0.1,0-0.1,0.1-0.2,0.1c-0.1,0.1-0.2,0.1-0.3,0.2c-0.1,0-0.1,0.1-0.2,0.2c-0.1,0.1-0.1,0.1-0.2,0.2c-0.1,0.1-0.2,0.1-0.2,0.2
				c0,0-0.1,0.1-0.1,0.1c-0.1,0.1-0.2,0.2-0.4,0.4C101.2,213.6,105.2,217.6,108.1,222.4z"/>
		</g>
		<g>
			<linearGradient id="SVGID_21_" gradientUnits="userSpaceOnUse" x1="76.556" y1="205.2636" x2="76.556" y2="226.4256">
				<stop  offset="3.370800e-02" style="stop-color:#85478A"/>
				<stop  offset="1" style="stop-color:#404A89"/>
			</linearGradient>
			<path class="st33" d="M101.1,208.4H76.8h-0.2l0,0h-0.2H52c0,0-0.1,0-0.1,0c0.9,0,1.9,0.3,2.7,0.6c0.2,0.1,0.3,0.2,0.5,0.3
				c0.1,0,0.1,0.1,0.2,0.1c0.1,0.1,0.2,0.1,0.3,0.2c0.1,0,0.1,0.1,0.2,0.2c0.1,0.1,0.1,0.1,0.2,0.2c0.1,0.1,0.2,0.1,0.2,0.2
				c0,0,0.1,0.1,0.1,0.1c0.1,0.1,0.3,0.3,0.4,0.4c0,0,0,0,0.1,0.1c0.1,0.1,0.2,0.2,0.2,0.3c0,0,0.1,0.1,0.1,0.1c0,0,0,0,0,0.1
				c0,0,0.1,0.1,0.1,0.1c0.1,0.1,0.1,0.2,0.2,0.3c0,0,0,0,0,0l0,0c0,0,0,0,0,0c0.1,0.2,0.3,0.5,0.4,0.7c0,0,0,0,0,0
				c0.3,0.8,0.5,1.6,0.6,2.5c0,0.1,0,0.2,0,0.2c0.2,1.6,0.3,3.2,1,4.7c1.1,2.3,3,3.4,5.6,3.4c0,0,11.2,0,11.2,0s0.1,0,0.2,0v0
				c0.1,0,0.2,0,0.2,0s11.2,0,11.2,0c2.5,0,4.5-1.2,5.6-3.4c0.7-1.5,0.8-3.1,1-4.7c0-0.1,0-0.1,0-0.2c0.1-0.9,0.3-1.7,0.6-2.6
				c0.1-0.3,0.2-0.5,0.4-0.7c0.3-0.5,0.7-1,1.1-1.5c0,0,0.1-0.1,0.1-0.1c0.1-0.1,0.2-0.1,0.2-0.2c0.1-0.1,0.1-0.1,0.2-0.2
				c0.1-0.1,0.1-0.1,0.2-0.2c0.1-0.1,0.2-0.1,0.3-0.2c0.1,0,0.1-0.1,0.2-0.1c0.2-0.1,0.3-0.2,0.5-0.3c0.8-0.4,1.8-0.6,2.7-0.6
				C101.2,208.4,101.1,208.4,101.1,208.4z"/>
		</g>
	</g>
	<g>
		<text transform="matrix(1 0 0 1 56.6749 253.6924)"><tspan x="0" y="0" class="st28 st29 st30">S</tspan><tspan x="9.9" y="0" class="st28 st29 st30">aaS</tspan></text>
	</g>
</g>
<linearGradient id="SVGID_22_" gradientUnits="userSpaceOnUse" x1="326.9916" y1="241.9863" x2="416.1186" y2="241.9863">
	<stop  offset="3.370800e-02" style="stop-color:#D5D12A"/>
	<stop  offset="1" style="stop-color:#689400"/>
</linearGradient>
<path class="st34" d="M371.6,286.5c-24.6,0-44.6-20-44.6-44.6s44.6-44.6,44.6-44.6s44.6,20,44.6,44.6S396.1,286.5,371.6,286.5z"/>
<g>
	<linearGradient id="SVGID_23_" gradientUnits="userSpaceOnUse" x1="333.5577" y1="243.7725" x2="409.5526" y2="243.7725">
		<stop  offset="3.370800e-02" style="stop-color:#D5D12A"/>
		<stop  offset="1" style="stop-color:#689400"/>
	</linearGradient>
	<path class="st35" d="M387.5,208.4h-31.8c-12.6,6-21.2,18.8-21.2,33.6c0,20.5,16.6,37.1,37.1,37.1s37.1-16.6,37.1-37.1
		C408.7,227.2,400,214.4,387.5,208.4z"/>
</g>
<g>
	<g>
		<path class="st26" d="M351.7,210.6c-0.1-0.1-0.2-0.3-0.3-0.4c0,0-0.1-0.1-0.1-0.1c-0.1-0.1-0.2-0.1-0.2-0.2
			c-0.1-0.1-0.1-0.1-0.2-0.2c-0.1-0.1-0.1-0.1-0.2-0.2c-0.1-0.1-0.2-0.1-0.3-0.2c-0.1,0-0.1-0.1-0.2-0.1c-0.2-0.1-0.3-0.2-0.5-0.3
			c-0.8-0.4-1.8-0.6-2.7-0.6c-1.7,0-3.3,0.8-4.5,2c-1.1,1.1-3.7,6-2.4,12C342.9,217.6,347,213.6,351.7,210.6z"/>
		<path class="st26" d="M403.1,222.4c1.3-6-1.3-10.9-2.4-12c-1.2-1.2-2.7-2-4.5-2c-0.9,0-1.9,0.3-2.7,0.6c-0.2,0.1-0.3,0.2-0.5,0.3
			c-0.1,0-0.1,0.1-0.2,0.1c-0.1,0.1-0.2,0.1-0.3,0.2c-0.1,0-0.1,0.1-0.2,0.2c-0.1,0.1-0.1,0.1-0.2,0.2c-0.1,0.1-0.2,0.1-0.2,0.2
			c0,0-0.1,0.1-0.1,0.1c-0.1,0.1-0.2,0.2-0.4,0.4C396.2,213.6,400.2,217.6,403.1,222.4z"/>
	</g>
	<g>
		<linearGradient id="SVGID_24_" gradientUnits="userSpaceOnUse" x1="371.557" y1="205.2636" x2="371.557" y2="226.4256">
			<stop  offset="3.370800e-02" style="stop-color:#D5D12A"/>
			<stop  offset="1" style="stop-color:#689400"/>
		</linearGradient>
		<path class="st36" d="M396.1,208.4h-24.3h-0.2l0,0h-0.2H347c0,0-0.1,0-0.1,0c0.9,0,1.9,0.3,2.7,0.6c0.2,0.1,0.3,0.2,0.5,0.3
			c0.1,0,0.1,0.1,0.2,0.1c0.1,0.1,0.2,0.1,0.3,0.2c0.1,0,0.1,0.1,0.2,0.2c0.1,0.1,0.1,0.1,0.2,0.2c0.1,0.1,0.2,0.1,0.2,0.2
			c0,0,0.1,0.1,0.1,0.1c0.1,0.1,0.3,0.3,0.4,0.4c0,0,0,0,0.1,0.1c0.1,0.1,0.2,0.2,0.2,0.3c0,0,0.1,0.1,0.1,0.1c0,0,0,0,0,0.1
			c0,0,0.1,0.1,0.1,0.1c0.1,0.1,0.1,0.2,0.2,0.3c0,0,0,0,0,0l0,0c0,0,0,0,0,0c0.1,0.2,0.3,0.5,0.4,0.7c0,0,0,0,0,0
			c0.3,0.8,0.5,1.6,0.6,2.5c0,0.1,0,0.2,0,0.2c0.2,1.6,0.3,3.2,1,4.7c1.1,2.3,3,3.4,5.6,3.4c0,0,11.2,0,11.2,0s0.1,0,0.2,0v0
			c0.1,0,0.2,0,0.2,0s11.2,0,11.2,0c2.5,0,4.5-1.2,5.6-3.4c0.7-1.5,0.8-3.1,1-4.7c0-0.1,0-0.1,0-0.2c0.1-0.9,0.3-1.7,0.6-2.6
			c0.1-0.3,0.2-0.5,0.4-0.7c0.3-0.5,0.7-1,1.1-1.5c0,0,0.1-0.1,0.1-0.1c0.1-0.1,0.2-0.1,0.2-0.2c0.1-0.1,0.1-0.1,0.2-0.2
			c0.1-0.1,0.1-0.1,0.2-0.2c0.1-0.1,0.2-0.1,0.3-0.2c0.1,0,0.1-0.1,0.2-0.1c0.2-0.1,0.3-0.2,0.5-0.3c0.8-0.4,1.8-0.6,2.7-0.6
			C396.2,208.4,396.1,208.4,396.1,208.4z"/>
	</g>
</g>
<g>
	<text transform="matrix(1 0 0 1 355.483 252.5806)" class="st28 st29 st30">IaaS</text>
</g>
<text transform="matrix(1 0 0 1 34.4069 91.6307)" class="st37"><tspan x="0" y="0" class="st38 st39 st40">- Salesfo</tspan><tspan x="41.1" y="0" class="st38 st39 st40">r</tspan><tspan x="44.8" y="0" class="st38 st39 st40">ce</tspan></text>
<text transform="matrix(1 0 0 1 34.4069 103.6307)" class="st37"><tspan x="0" y="0" class="st38 st39 st40">- D</tspan><tspan x="13.5" y="0" class="st38 st39 st40">r</tspan><tspan x="17.1" y="0" class="st38 st39 st40">opb</tspan><tspan x="33.9" y="0" class="st38 st39 st40">o</tspan><tspan x="39.5" y="0" class="st38 st39 st40">x</tspan></text>
<text transform="matrix(1 0 0 1 34.4069 115.6307)" class="st38 st39 st40">- Mailchimp</text>
<text transform="matrix(1 0 0 1 34.4069 127.6307)" class="st37"><tspan x="0" y="0" class="st38 st39 st40">- </tspan><tspan x="7" y="0" class="st38 st39 st40">Z</tspan><tspan x="13" y="0" class="st38 st39 st40">oho</tspan></text>
<text transform="matrix(1 0 0 1 34.4069 139.6307)" class="st37"><tspan x="0" y="0" class="st38 st39 st40">- </tspan><tspan x="7" y="0" class="st38 st39 st40">F</tspan><tspan x="12.3" y="0" class="st38 st39 st40">r</tspan><tspan x="16" y="0" class="st38 st39 st40">eshworks</tspan></text>
<text transform="matrix(1 0 0 1 34.4069 151.6307)" class="st38 st39 st40">- Slack </text>
<text transform="matrix(1 0 0 1 34.4069 163.6307)" class="st38 st39 st40">- Hubspot</text>
<text transform="matrix(1 0 0 1 34.4069 175.6307)" class="st38 st39 st40">- G Suite</text>
<text transform="matrix(1 0 0 1 34.4069 187.6307)" class="st38 st39 st40">- MS Office Suites</text>
<text transform="matrix(1 0 0 1 184.0545 91.5356)" class="st37"><tspan x="0" y="0" class="st38 st15 st40">- </tspan><tspan x="6.4" y="0" class="st38 st15 st40">A</tspan><tspan x="12.9" y="0" class="st38 st15 st40">WS Beanstalk</tspan></text>
<text transform="matrix(1 0 0 1 184.0545 103.5356)" class="st37"><tspan x="0" y="0" class="st38 st15 st40">- Windows </tspan><tspan x="49.6" y="0" class="st38 st15 st40">A</tspan><tspan x="56.4" y="0" class="st38 st15 st40">zu</tspan><tspan x="67.1" y="0" class="st38 st15 st40">r</tspan><tspan x="70.7" y="0" class="st38 st15 st40">e</tspan></text>
<text transform="matrix(1 0 0 1 184.0545 115.5356)" class="st37"><tspan x="0" y="0" class="st38 st15 st40">- </tspan><tspan x="6.4" y="0" class="st38 st15 st40">F</tspan><tspan x="11.7" y="0" class="st38 st15 st40">o</tspan><tspan x="17.4" y="0" class="st38 st15 st40">r</tspan><tspan x="21" y="0" class="st38 st15 st40">ce.com</tspan></text>
<text transform="matrix(1 0 0 1 184.0545 127.5356)" class="st37"><tspan x="0" y="0" class="st38 st15 st40">- Google </tspan><tspan x="40.7" y="0" class="st38 st15 st40">A</tspan><tspan x="47.2" y="0" class="st38 st15 st40">pp </tspan></text>
<text transform="matrix(1 0 0 1 184.0545 139.5356)" class="st38 st15 st40">   Engine</text>
<text transform="matrix(1 0 0 1 184.0545 151.5356)" class="st37"><tspan x="0" y="0" class="st38 st15 st40">- </tspan><tspan x="6.4" y="0" class="st38 st15 st40">Z</tspan><tspan x="12.3" y="0" class="st38 st15 st40">oho C</tspan><tspan x="38.3" y="0" class="st38 st15 st40">r</tspan><tspan x="41.8" y="0" class="st38 st15 st40">ea</tspan><tspan x="52.6" y="0" class="st38 st15 st40">t</tspan><tspan x="55.8" y="0" class="st38 st15 st40">or</tspan></text>
<text transform="matrix(1 0 0 1 184.0545 163.5356)" class="st38 st15 st40">- Openshift</text>
<text transform="matrix(1 0 0 1 184.0545 175.5356)" class="st37"><tspan x="0" y="0" class="st38 st15 st40">- He</tspan><tspan x="18.8" y="0" class="st38 st15 st40">r</tspan><tspan x="22.3" y="0" class="st38 st15 st40">oku</tspan></text>
<text transform="matrix(1 0 0 1 184.0545 187.5356)" class="st38 st15 st40">- SAP</text>
<text transform="matrix(1.0076 0 0 1 336.4877 90.4961)" class="st37"><tspan x="0" y="0" class="st38 st15 st40">- </tspan><tspan x="6.4" y="0" class="st38 st15 st40">A</tspan><tspan x="12.9" y="0" class="st38 st15 st40">WS EC2</tspan></text>
<text transform="matrix(1.0076 0 0 1 336.4877 102.4961)" class="st38 st15 st40">- Google Compute </text>
<text transform="matrix(1.0076 0 0 1 336.4877 114.4961)" class="st38 st15 st40">   Engine</text>
<text transform="matrix(1.0076 0 0 1 373.6674 114.4961)" class="st38 st15 st40 st41"> </text>
<text transform="matrix(1.0076 0 0 1 336.4877 126.4961)" class="st38 st15 st40">- Openstack</text>
<text transform="matrix(1.0076 0 0 1 336.4877 138.4961)" class="st38 st15 st40">- Digital Ocean</text>
<text transform="matrix(1.0076 0 0 1 336.4877 150.4961)" class="st38 st15 st40">- IBM Cloud</text>
<text transform="matrix(1.0076 0 0 1 336.4877 162.4961)" class="st38 st15 st40">- Google Cloud </text>
<text transform="matrix(1.0076 0 0 1 336.4877 174.4961)" class="st38 st15 st40">   Platform</text>
<text transform="matrix(1.0076 0 0 1 336.4877 186.4961)" class="st37"><tspan x="0" y="0" class="st38 st15 st40">- O</tspan><tspan x="13.3" y="0" class="st38 st15 st40">r</tspan><tspan x="16.8" y="0" class="st38 st15 st40">acle</tspan></text>
<text transform="matrix(1 0 0 1 383.0627 292.6515)"><tspan x="0" y="0" class="st42 st43">Si</tspan><tspan x="5.8" y="0" class="st42 st43">x</tspan><tspan x="9.6" y="0" class="st42 st43">t</tspan><tspan x="12.3" y="0" class="st42 st43">y One </tspan><tspan x="33.5" y="0" class="st42 st43">S</tspan><tspan x="37.4" y="0" class="st42 st43">t</tspan><tspan x="40" y="0" class="st42 st43">eps </tspan></text>
</svg>
