<?xml version="1.0" encoding="utf-8"?>
<!-- Generator: Adobe Illustrator 22.0.0, SVG Export Plug-In . SVG Version: 6.00 Build 0)  -->
<svg version="1.1" xmlns="http://www.w3.org/2000/svg" xmlns:xlink="http://www.w3.org/1999/xlink" x="0px" y="0px"
	 viewBox="0 0 1400 980" style="enable-background:new 0 0 1400 980;" xml:space="preserve">
<style type="text/css">
	.st0{fill:#3E4D5D;}
	.st1{opacity:0.3;fill:#4C848D;}
	.st2{opacity:0.5;}
	.st3{fill:#FFFFFF;}
	.st4{opacity:0.2;}
	.st5{opacity:0.7;fill:#FFFFFF;}
	.st6{opacity:0.45;fill:#FFFFFF;}
	.st7{fill:#F4CC61;}
	.st8{fill:#F5AB11;}
	.st9{fill:#C3DADF;}
	.st10{fill:#B3B3B3;}
	.st11{fill:#6CA4B1;}
	.st12{fill:#E6E6E6;}
	.st13{fill:#EFEFEF;}
	.st14{fill:#FFFFFC;}
	.st15{fill:#FFC86D;}
</style>
<g id="background_1_">
	<rect y="-1.2" class="st0" width="1400" height="981.4"/>
	<g id="circle">
		<path class="st1" d="M80.8,515.9c0-216.2,110.8-406.5,278.8-517.1H240.4C93.1,124.5,0,309.6,0,516c0,179,70,341.9,184.6,464h105.7
			C161.8,866.6,80.8,700.7,80.8,515.9z"/>
		<path class="st1" d="M1159.6-1.2h-119.9c167.9,110.7,278.8,301,278.8,517.1c0,184.8-81,350.7-209.5,464.1h106.4
			C1330,858,1400,695.1,1400,516C1400,309.6,1306.9,124.5,1159.6-1.2z"/>
	</g>
	<g id="circle_line" class="st2">
		<path class="st3" d="M699.6,992.2c-64.4,0-126.9-12.6-185.7-37.5c-56.8-24-107.8-58.4-151.6-102.2
			c-43.8-43.8-78.2-94.8-102.2-151.6c-24.9-58.8-37.5-121.3-37.5-185.7c0-64.4,12.6-126.9,37.5-185.7
			c24-56.8,58.4-107.8,102.2-151.6c43.8-43.8,94.8-78.2,151.6-102.2c58.8-24.9,121.3-37.5,185.7-37.5c64.4,0,126.9,12.6,185.7,37.5
			c56.8,24,107.8,58.4,151.6,102.2c43.8,43.8,78.2,94.8,102.2,151.6c24.9,58.8,37.5,121.3,37.5,185.7c0,64.4-12.6,126.9-37.5,185.7
			c-24,56.8-58.4,107.8-102.2,151.6c-43.8,43.8-94.8,78.2-151.6,102.2C826.5,979.6,764,992.2,699.6,992.2z M699.6,38.6
			c-64.3,0-126.7,12.6-185.5,37.5c-56.7,24-107.7,58.4-151.5,102.1c-43.8,43.8-78.1,94.7-102.1,151.5
			c-24.9,58.8-37.5,121.2-37.5,185.5c0,64.3,12.6,126.7,37.5,185.5c24,56.7,58.4,107.7,102.1,151.5c43.8,43.8,94.7,78.1,151.5,102.1
			c58.8,24.8,121.2,37.5,185.5,37.5c64.3,0,126.7-12.6,185.5-37.5c56.7-24,107.7-58.4,151.5-102.1c43.8-43.8,78.1-94.7,102.1-151.5
			c24.8-58.8,37.5-121.2,37.5-185.5c0-64.3-12.6-126.7-37.5-185.5c-24-56.7-58.4-107.7-102.1-151.5
			c-43.8-43.8-94.7-78.1-151.5-102.1C826.4,51.2,764,38.6,699.6,38.6z"/>
	</g>
	<g id="circle_line_1_" class="st4">
		<path class="st3" d="M699.6,1061.5c-73.4,0-144.6-14.4-211.6-42.7c-64.7-27.4-122.9-66.6-172.8-116.5
			c-49.9-49.9-89.1-108.1-116.5-172.8c-28.3-67-42.7-138.2-42.7-211.6c0-73.4,14.4-144.6,42.7-211.6
			c27.4-64.7,66.6-122.9,116.5-172.8c49.9-49.9,108.1-89.1,172.8-116.5c67-28.3,138.2-42.7,211.6-42.7c73.4,0,144.6,14.4,211.6,42.7
			C976,44.4,1034.1,83.6,1084,133.5c49.9,49.9,89.1,108.1,116.5,172.8c28.3,67,42.7,138.2,42.7,211.6c0,73.4-14.4,144.6-42.7,211.6
			c-27.4,64.7-66.6,122.9-116.5,172.8c-49.9,49.9-108.1,89.1-172.8,116.5C844.2,1047.1,773,1061.5,699.6,1061.5z M699.6-25.1
			c-73.3,0-144.4,14.4-211.4,42.7C423.6,44.9,365.6,84.1,315.7,134c-49.9,49.9-89,107.9-116.4,172.6
			c-28.3,66.9-42.7,138.1-42.7,211.4c0,73.3,14.4,144.4,42.7,211.4c27.3,64.7,66.5,122.7,116.4,172.6
			c49.9,49.9,107.9,89,172.6,116.4c66.9,28.3,138.1,42.7,211.4,42.7c73.3,0,144.4-14.4,211.4-42.7c64.7-27.3,122.7-66.5,172.6-116.4
			c49.9-49.9,89-107.9,116.4-172.6c28.3-66.9,42.7-138.1,42.7-211.4c0-73.3-14.4-144.4-42.7-211.4
			c-27.3-64.7-66.5-122.7-116.4-172.6c-49.9-49.9-107.9-89-172.6-116.4C844.1-10.7,772.9-25.1,699.6-25.1z"/>
	</g>
	<g id="dotted_circle_line" class="st4">
		<g>
			<path class="st3" d="M699.8,1135.1v-0.7c6.9,0,13.8-0.1,20.7-0.3l0,0.7C713.7,1134.9,706.7,1135.1,699.8,1135.1z M679.2,1134.7
				c-6.9-0.2-13.8-0.6-20.7-1l0-0.7c6.8,0.4,13.8,0.8,20.6,1L679.2,1134.7z M741.2,1133.7l0-0.7c6.8-0.5,13.8-1,20.6-1.7l0.1,0.7
				C755,1132.7,748,1133.2,741.2,1133.7z M637.9,1132c-6.8-0.7-13.8-1.5-20.6-2.4l0.1-0.7c6.8,0.9,13.7,1.7,20.5,2.4L637.9,1132z
				 M782.4,1129.6l-0.1-0.7c6.8-0.9,13.7-1.9,20.4-3.1l0.1,0.7C796,1127.6,789.1,1128.7,782.4,1129.6z M596.9,1126.6
				c-6.8-1.1-13.6-2.4-20.3-3.8l0.1-0.7c6.7,1.4,13.5,2.6,20.3,3.7L596.9,1126.6z M823.2,1122.7l-0.1-0.7c6.7-1.4,13.5-2.9,20.2-4.4
				l0.2,0.7C836.7,1119.9,829.9,1121.4,823.2,1122.7z M556.3,1118.4c-6.7-1.6-13.4-3.3-20-5.1l0.2-0.7c6.6,1.8,13.4,3.5,20,5.1
				L556.3,1118.4z M863.4,1113.2l-0.2-0.7c6.6-1.8,13.3-3.8,19.8-5.8l0.2,0.6C876.7,1109.4,870,1111.4,863.4,1113.2z M516.4,1107.5
				c-6.6-2-13.2-4.2-19.7-6.5l0.2-0.6c6.5,2.3,13.1,4.4,19.7,6.5L516.4,1107.5z M902.9,1100.9l-0.2-0.6c6.5-2.3,13-4.6,19.4-7.1
				l0.2,0.6C916,1096.3,909.4,1098.7,902.9,1100.9z M477.2,1093.9c-6.4-2.5-12.9-5.1-19.2-7.8l0.3-0.6c6.3,2.7,12.8,5.3,19.2,7.8
				L477.2,1093.9z M941.5,1086.1l-0.3-0.6c6.3-2.7,12.6-5.5,18.8-8.4l0.3,0.6C954.1,1080.6,947.8,1083.4,941.5,1086.1z M439,1077.7
				c-6.2-2.9-12.5-5.9-18.7-9.1l0.3-0.6c6.1,3.1,12.4,6.1,18.6,9L439,1077.7z M978.9,1068.7l-0.3-0.6c6.1-3.1,12.3-6.3,18.2-9.6
				l0.3,0.6C991.2,1062.3,985,1065.6,978.9,1068.7z M402,1059c-6-3.3-12.1-6.8-18-10.3l0.3-0.6c5.9,3.5,12,7,18,10.3L402,1059z
				 M1015.1,1048.8l-0.3-0.6c5.9-3.5,11.8-7.1,17.6-10.8l0.4,0.6C1026.9,1041.6,1021,1045.3,1015.1,1048.8z M366.4,1037.8
				c-5.8-3.7-11.6-7.6-17.3-11.5l0.4-0.6c5.7,3.9,11.5,7.7,17.2,11.4L366.4,1037.8z M1049.9,1026.5l-0.4-0.6
				c5.6-3.9,11.3-7.9,16.8-12l0.4,0.5C1061.2,1018.6,1055.5,1022.7,1049.9,1026.5z M332.3,1014.3c-5.5-4.1-11.1-8.3-16.5-12.6
				l0.4-0.5c5.4,4.3,10.9,8.5,16.4,12.6L332.3,1014.3z M1083.2,1002l-0.4-0.5c5.4-4.2,10.8-8.6,16-13.1l0.4,0.5
				C1093.9,993.4,1088.5,997.8,1083.2,1002z M299.8,988.7c-5.2-4.4-10.5-9-15.6-13.6l0.5-0.5c5.1,4.6,10.3,9.2,15.6,13.6
				L299.8,988.7z M1114.7,975.3l-0.5-0.5c5.1-4.6,10.2-9.3,15.1-14.1l0.5,0.5C1124.9,966,1119.8,970.7,1114.7,975.3z M269.1,960.9
				c-4.9-4.8-9.9-9.7-14.6-14.6l0.5-0.5c4.8,4.9,9.7,9.8,14.6,14.6L269.1,960.9z M1144.5,946.6l-0.5-0.5c4.8-4.9,9.5-10,14.1-15.1
				l0.5,0.5C1154,936.5,1149.3,941.6,1144.5,946.6z M240.3,931.1c-4.6-5.1-9.2-10.3-13.6-15.6l0.5-0.4c4.4,5.2,9,10.5,13.6,15.5
				L240.3,931.1z M1172.3,915.9l-0.5-0.4c4.4-5.2,8.8-10.6,13.1-16l0.5,0.4C1181.1,905.3,1176.7,910.6,1172.3,915.9z M213.6,899.6
				c-4.3-5.4-8.5-10.9-12.5-16.4l0.5-0.4c4.1,5.5,8.3,11,12.5,16.4L213.6,899.6z M1198,883.4l-0.5-0.4c4.1-5.5,8.1-11.2,12-16.8
				l0.6,0.4C1206.1,872.2,1202,877.9,1198,883.4z M189.1,866.3c-3.9-5.6-7.7-11.4-11.4-17.2l0.6-0.4c3.7,5.8,7.5,11.6,11.4,17.2
				L189.1,866.3z M1221.5,849.3l-0.6-0.4c3.7-5.8,7.4-11.7,10.9-17.6l0.6,0.3C1228.8,837.6,1225.2,843.5,1221.5,849.3z M166.8,831.5
				c-3.5-5.9-6.9-11.9-10.2-17.9l0.6-0.3c3.3,6,6.7,12,10.2,17.9L166.8,831.5z M1242.6,813.7l-0.6-0.3c3.3-6,6.6-12.2,9.7-18.3
				l0.6,0.3C1249.2,801.5,1245.9,807.7,1242.6,813.7z M147,795.3c-3.1-6.1-6.1-12.4-9-18.6l0.6-0.3c2.9,6.2,5.9,12.4,9,18.5
				L147,795.3z M1261.4,776.7l-0.6-0.3c2.9-6.2,5.7-12.6,8.4-18.9l0.6,0.3C1267.1,764.1,1264.3,770.5,1261.4,776.7z M129.6,757.9
				c-2.7-6.3-5.3-12.7-7.7-19.1l0.6-0.2c2.5,6.4,5.1,12.8,7.7,19.1L129.6,757.9z M1277.6,738.5l-0.6-0.2c2.5-6.4,4.9-13,7.1-19.5
				l0.6,0.2C1282.4,725.6,1280,732.1,1277.6,738.5z M114.7,719.4c-2.3-6.5-4.4-13.1-6.5-19.7l0.6-0.2c2,6.5,4.2,13.2,6.5,19.6
				L114.7,719.4z M1291.2,699.3l-0.6-0.2c2-6.5,4-13.2,5.8-19.8l0.7,0.2C1295.2,686.1,1293.2,692.8,1291.2,699.3z M102.4,679.8
				c-1.8-6.6-3.5-13.4-5.1-20l0.7-0.2c1.6,6.7,3.3,13.4,5.1,20L102.4,679.8z M1302.1,659.4l-0.7-0.2c1.6-6.7,3.1-13.5,4.4-20.2
				l0.7,0.1C1305.2,645.9,1303.7,652.7,1302.1,659.4z M92.8,639.6c-1.4-6.7-2.6-13.6-3.8-20.3l0.7-0.1c1.1,6.8,2.4,13.6,3.8,20.3
				L92.8,639.6z M1310.3,618.9l-0.7-0.1c1.1-6.8,2.2-13.6,3.1-20.4l0.7,0.1C1312.5,605.2,1311.4,612.1,1310.3,618.9z M86,598.8
				c-0.9-6.8-1.7-13.7-2.4-20.5l0.7-0.1c0.7,6.8,1.5,13.7,2.4,20.5L86,598.8z M1315.7,577.9l-0.7-0.1c0.7-6.8,1.3-13.8,1.7-20.6
				l0.7,0C1317,564.1,1316.4,571,1315.7,577.9z M81.9,557.6c-0.5-6.8-0.8-13.8-1-20.7l0.7,0c0.2,6.9,0.6,13.8,1,20.6L81.9,557.6z
				 M1318.5,536.6l-0.7,0c0.2-6.8,0.3-13.8,0.3-20.7l0-0.8h0.7l0,0.8C1318.8,522.8,1318.7,529.7,1318.5,536.6z M81.1,516.3h-0.7
				l0-0.4c0-6.7,0.1-13.6,0.3-20.3l0.7,0c-0.2,6.7-0.3,13.5-0.3,20.3L81.1,516.3z M1317.8,494.4c-0.2-6.9-0.6-13.8-1-20.6l0.7,0
				c0.5,6.9,0.8,13.8,1,20.7L1317.8,494.4z M82.5,475l-0.7,0c0.4-6.9,1-13.8,1.7-20.6l0.7,0.1C83.5,461.2,82.9,468.1,82.5,475z
				 M1315,453.2c-0.7-6.8-1.5-13.7-2.4-20.5l0.7-0.1c0.9,6.8,1.7,13.7,2.4,20.5L1315,453.2z M86.5,433.8l-0.7-0.1
				c0.9-6.8,1.9-13.7,3.1-20.5l0.7,0.1C88.5,420.2,87.4,427.1,86.5,433.8z M1309.5,412.2c-1.1-6.8-2.4-13.6-3.8-20.3l0.7-0.1
				c1.4,6.7,2.6,13.6,3.8,20.3L1309.5,412.2z M93.3,393.1l-0.7-0.1c1.4-6.7,2.8-13.5,4.4-20.2l0.7,0.2
				C96.2,379.6,94.7,386.4,93.3,393.1z M1301.2,371.7c-1.6-6.7-3.3-13.4-5.1-20l0.7-0.2c1.8,6.6,3.5,13.4,5.1,20L1301.2,371.7z
				 M102.9,352.9l-0.7-0.2c1.8-6.6,3.7-13.3,5.8-19.9l0.6,0.2C106.6,339.6,104.7,346.2,102.9,352.9z M1290.3,331.9
				c-2-6.6-4.2-13.2-6.5-19.6l0.6-0.2c2.3,6.5,4.4,13.1,6.5,19.6L1290.3,331.9z M115.1,313.3l-0.6-0.2c2.3-6.5,4.6-13.1,7.1-19.5
				l0.6,0.2C119.7,300.3,117.3,306.8,115.1,313.3z M1276.7,292.8c-2.5-6.4-5.1-12.8-7.8-19.1l0.6-0.3c2.7,6.3,5.3,12.7,7.8,19.1
				L1276.7,292.8z M130,274.6l-0.6-0.3c2.7-6.3,5.5-12.7,8.4-19l0.6,0.3C135.5,261.9,132.6,268.3,130,274.6z M1260.6,254.9
				c-2.9-6.2-5.9-12.4-9-18.5l0.6-0.3c3.1,6.1,6.1,12.4,9,18.6L1260.6,254.9z M147.4,237.1l-0.6-0.3c3.1-6.1,6.4-12.3,9.7-18.3
				l0.6,0.3C153.8,224.8,150.5,230.9,147.4,237.1z M1241.9,218.2c-3.3-6-6.8-12-10.2-17.9l0.6-0.3c3.5,5.9,6.9,11.9,10.3,17.9
				L1241.9,218.2z M167.3,200.8l-0.6-0.3c3.5-5.9,7.2-11.8,10.9-17.6l0.6,0.4C174.5,188.9,170.8,194.9,167.3,200.8z M1220.8,182.7
				c-3.7-5.8-7.5-11.6-11.4-17.2l0.6-0.4c3.9,5.6,7.7,11.4,11.4,17.2L1220.8,182.7z M189.6,165.9l-0.6-0.4c3.9-5.7,7.9-11.3,12-16.9
				l0.5,0.4C197.5,154.6,193.5,160.2,189.6,165.9z M1197.4,148.7c-4.1-5.5-8.3-11-12.5-16.4l0.5-0.4c4.3,5.4,8.5,10.9,12.6,16.4
				L1197.4,148.7z M214.2,132.6l-0.5-0.4c4.3-5.4,8.7-10.8,13.1-16l0.5,0.4C222.8,121.9,218.4,127.2,214.2,132.6z M1171.8,116.3
				c-4.4-5.2-9-10.5-13.6-15.5l0.5-0.5c4.6,5.1,9.2,10.3,13.6,15.6L1171.8,116.3z M240.9,101.1l-0.5-0.5c4.6-5.1,9.4-10.2,14.1-15.1
				L255,86C250.2,90.9,245.5,96,240.9,101.1z M1144,85.7c-4.8-4.9-9.7-9.8-14.6-14.6l0.5-0.5c4.9,4.8,9.9,9.7,14.6,14.6L1144,85.7z
				 M269.6,71.3l-0.5-0.5c4.9-4.8,10-9.5,15.1-14.1l0.5,0.5C279.6,61.8,274.5,66.6,269.6,71.3z M1114.3,57
				c-5.1-4.6-10.3-9.2-15.6-13.6l0.4-0.5c5.2,4.4,10.5,9,15.6,13.6L1114.3,57z M300.2,43.6l-0.4-0.5c5.2-4.4,10.6-8.8,16-13.1
				l0.4,0.5C310.8,34.8,305.5,39.2,300.2,43.6z M1082.7,30.3c-5.4-4.3-10.9-8.5-16.4-12.5l0.4-0.5c5.5,4.1,11.1,8.3,16.5,12.6
				L1082.7,30.3z M332.6,18l-0.4-0.5c5.5-4.1,11.2-8.1,16.8-12l0.4,0.6C343.8,9.9,338.1,13.9,332.6,18z M1049.4,5.7
				c-5.7-3.9-11.5-7.7-17.2-11.4l0.4-0.6c5.8,3.7,11.6,7.6,17.3,11.4L1049.4,5.7z M366.6-5.4L366.3-6c5.8-3.7,11.7-7.3,17.6-10.8
				l0.3,0.6C378.3-12.7,372.4-9.1,366.6-5.4z M1014.6-16.5c-5.9-3.5-12-7-18-10.3l0.3-0.6c6,3.3,12.1,6.8,18,10.3L1014.6-16.5z
				 M402.1-26.5l-0.3-0.6c6-3.3,12.1-6.5,18.3-9.6l0.3,0.6C414.2-33,408.1-29.8,402.1-26.5z M978.3-36.5c-6.1-3.1-12.4-6.1-18.6-9
				l0.3-0.6c6.2,2.9,12.5,5.9,18.7,9L978.3-36.5z M438.9-45.1l-0.3-0.6c6.2-2.9,12.5-5.7,18.8-8.4l0.3,0.6
				C451.4-50.8,445.1-48,438.9-45.1z M940.7-53.9c-6.3-2.7-12.8-5.3-19.2-7.8l0.2-0.6c6.4,2.5,12.9,5.1,19.2,7.8L940.7-53.9z
				 M476.8-61.3l-0.2-0.6c6.4-2.5,12.9-4.9,19.4-7.1l0.2,0.6C489.7-66.1,483.2-63.7,476.8-61.3z M902-68.8
				c-6.5-2.2-13.1-4.4-19.7-6.5l0.2-0.6c6.6,2,13.2,4.2,19.7,6.5L902-68.8z M515.8-74.8l-0.2-0.6c6.5-2,13.2-4,19.9-5.8l0.2,0.7
				C529-78.8,522.4-76.9,515.8-74.8z M862.5-81c-6.6-1.8-13.4-3.5-20-5.1l0.2-0.7c6.7,1.6,13.4,3.3,20.1,5.1L862.5-81z M555.7-85.8
				l-0.2-0.7c6.7-1.6,13.5-3.1,20.2-4.5l0.1,0.7C569.1-88.9,562.4-87.4,555.7-85.8z M822.2-90.5c-6.7-1.4-13.6-2.6-20.3-3.7l0.1-0.7
				c6.8,1.1,13.6,2.4,20.3,3.7L822.2-90.5z M596.2-94l-0.1-0.7c6.8-1.1,13.6-2.2,20.5-3.1l0.1,0.7C609.8-96.2,602.9-95.1,596.2-94z
				 M781.5-97.3c-6.8-0.9-13.7-1.7-20.5-2.4l0.1-0.7c6.8,0.7,13.8,1.5,20.6,2.4L781.5-97.3z M637.1-99.5l-0.1-0.7
				c6.8-0.7,13.8-1.3,20.6-1.7l0,0.7C650.9-100.8,644-100.2,637.1-99.5z M740.3-101.3c-6.8-0.4-13.8-0.8-20.6-1l0-0.7
				c6.9,0.2,13.8,0.6,20.7,1L740.3-101.3z M678.4-102.3l0-0.7c6.9-0.2,13.8-0.4,20.7-0.4l0,0.7C692.2-102.6,685.2-102.5,678.4-102.3
				z"/>
		</g>
	</g>
	<g id="circle_lines">
		<path class="st3" d="M699.7,740.1c-121.9,0-221.1-99.2-221.1-221.1c0-121.9,99.2-221.1,221.1-221.1
			c121.9,0,221.1,99.2,221.1,221.1C920.7,640.9,821.6,740.1,699.7,740.1z M699.7,305.5c-117.8,0-213.6,95.8-213.6,213.5
			c0,117.8,95.8,213.6,213.6,213.6c117.7,0,213.5-95.8,213.5-213.6C913.2,401.3,817.4,305.5,699.7,305.5z"/>
		<path class="st3" d="M699.7,806c-158.2,0-287-128.7-287-287c0-158.2,128.7-286.9,287-286.9c158.2,0,286.9,128.7,286.9,286.9
			C986.6,677.2,857.9,806,699.7,806z M699.7,239.6C545.6,239.6,420.2,365,420.2,519c0,154.1,125.4,279.4,279.4,279.4
			c154,0,279.4-125.3,279.4-279.4C979.1,365,853.7,239.6,699.7,239.6z"/>
		<path class="st5" d="M699.7,871.8c-194.6,0-352.8-158.3-352.8-352.8c0-194.5,158.3-352.8,352.8-352.8
			c194.5,0,352.8,158.3,352.8,352.8C1052.4,713.6,894.2,871.8,699.7,871.8z M699.7,173.7c-190.4,0-345.3,154.9-345.3,345.3
			c0,190.4,154.9,345.3,345.3,345.3c190.4,0,345.2-154.9,345.2-345.3C1044.9,328.6,890,173.7,699.7,173.7z"/>
		<path class="st6" d="M699.7,937.7C468.8,937.7,281,749.9,281,519c0-230.8,187.8-418.6,418.7-418.6
			c230.8,0,418.6,187.8,418.6,418.6C1118.3,749.9,930.5,937.7,699.7,937.7z M699.7,107.9C473,107.9,288.5,292.3,288.5,519
			c0,226.7,184.5,411.2,411.2,411.2c226.7,0,411.1-184.4,411.1-411.2C1110.8,292.3,926.3,107.9,699.7,107.9z"/>
	</g>
</g>
<g id="items">
	<g id="stars">
		<path class="st7" d="M884.4,176.9c-11.3,0-20.4,9.2-20.4,20.4c0-11.3-9.1-20.4-20.4-20.4c11.3,0,20.4-9.2,20.4-20.4
			C864,167.7,873.2,176.9,884.4,176.9z"/>
		<path class="st7" d="M1127.2,242.6c-5.2,0-9.4,4.2-9.4,9.4c0-5.2-4.2-9.4-9.4-9.4c5.2,0,9.4-4.2,9.4-9.4
			C1117.8,238.4,1122,242.6,1127.2,242.6z"/>
		<path class="st7" d="M1228.9,773.2c-5,0-9.1,4.1-9.1,9.1c0-5-4.1-9.1-9.1-9.1c5,0,9.1-4.1,9.1-9.1
			C1219.8,769.1,1223.9,773.2,1228.9,773.2z"/>
		<circle class="st8" cx="1052.4" cy="639.5" r="9.4"/>
		<path class="st7" d="M554,871.8c-5.2,0-9.4,4.2-9.4,9.4c0-5.2-4.2-9.4-9.4-9.4c5.2,0,9.4-4.2,9.4-9.4
			C544.6,867.6,548.8,871.8,554,871.8z"/>
		<path class="st8" d="M1294.3,254.5c-11.4,0-20.7,9.3-20.7,20.7c0-11.4-9.3-20.7-20.7-20.7c11.4,0,20.7-9.3,20.7-20.7
			C1273.7,245.2,1282.9,254.5,1294.3,254.5z"/>
		<path class="st8" d="M292.4,375.3c-11.4,0-20.7,9.3-20.7,20.7c0-11.4-9.3-20.7-20.7-20.7c11.4,0,20.7-9.3,20.7-20.7
			C271.7,366,281,375.3,292.4,375.3z"/>
	</g>
	<g id="small_dots">
		<path class="st8" d="M781.2,56.1c0,4.3-3.5,7.9-7.9,7.9c-4.3,0-7.9-3.5-7.9-7.9c0-4.3,3.5-7.9,7.9-7.9
			C777.7,48.2,781.2,51.8,781.2,56.1z"/>
		<path class="st8" d="M1010.7,871.8c0,4.3-3.5,7.9-7.9,7.9c-4.3,0-7.9-3.5-7.9-7.9c0-4.3,3.5-7.9,7.9-7.9
			C1007.1,864,1010.7,867.5,1010.7,871.8z"/>
		<path class="st8" d="M1290.4,819c0,9.2-7.5,16.7-16.7,16.7c-9.2,0-16.7-7.5-16.7-16.7c0-9.2,7.5-16.7,16.7-16.7
			C1282.9,802.3,1290.4,809.8,1290.4,819z"/>
		<path class="st7" d="M170.2,859.2c0,4.3-3.5,7.9-7.9,7.9c-4.3,0-7.9-3.5-7.9-7.9c0-4.3,3.5-7.9,7.9-7.9
			C166.7,851.3,170.2,854.9,170.2,859.2z"/>
		<path class="st7" d="M193.9,260.7c0,10.9-8.8,19.7-19.7,19.7c-10.8,0-19.7-8.8-19.7-19.7c0-10.9,8.8-19.7,19.7-19.7
			C185.1,241,193.9,249.8,193.9,260.7z"/>
	</g>
	<g id="clouds">
		<path class="st9" d="M530.6,226.4c-0.1-1.3-0.1-2.5-0.1-3.8c0-34.5,27.9-62.4,62.4-62.4c32.7,0,59.5,25.2,62.2,57.3
			c3.2-1,6.7-1.5,10.2-1.5c9.2,0,17.5,3.6,23.7,9.4c6.9-10,18.4-16.5,31.4-16.5c20.2,0,36.8,15.8,38,35.7c1.8-0.5,3.7-0.8,5.7-0.8
			c11.4,0,20.6,9.2,20.6,20.6c0,11.4-9.3,20.7-20.6,20.6H534.1c-16.2,0-29.4-13.2-29.4-29.4C504.7,240.6,516,228.2,530.6,226.4z"/>
		<path class="st10" d="M480.3,390.8C480.3,390.8,480.3,390.8,480.3,390.8c0-0.2,0-0.5,0-0.8c0-15.7-12.8-28.5-28.5-28.5
			c-12.9,0-23.7,8.5-27.3,20.2c-2.1-1-4.5-1.6-7.1-1.6c-9.2,0-16.6,7.4-16.6,16.6c0,2.1,0.4,4.1,1.1,6c-0.2,0-0.4,0-0.5,0
			c-5.9,0-10.6,4.8-10.6,10.7c0,5.9,4.8,10.7,10.6,10.7h78.9c9.2,0,16.6-7.4,16.6-16.6C496.9,398.3,489.5,390.8,480.3,390.8z"/>
		<path class="st10" d="M231.9,785.8C231.9,785.8,231.9,785.8,231.9,785.8c0-0.2,0-0.5,0-0.8c0-15.7-12.8-28.5-28.5-28.5
			c-12.9,0-23.7,8.5-27.3,20.2c-2.1-1-4.5-1.6-7.1-1.6c-9.2,0-16.6,7.4-16.6,16.6c0,2.1,0.4,4.1,1.1,6c-0.2,0-0.4,0-0.5,0
			c-5.9,0-10.6,4.8-10.6,10.7c0,5.9,4.8,10.7,10.6,10.7h78.9c9.2,0,16.6-7.4,16.6-16.6C248.5,793.2,241.1,785.8,231.9,785.8z"/>
		<path class="st10" d="M1225.7,111.6c-0.4,0-0.8,0.1-1.1,0.1c0.7-3.6,1.1-7.3,1.1-11c0-29-23.1-52.4-51.5-52.4
			c-13.3,0-25.4,5.2-34.5,13.6c-5.3-2-11-3.2-17-3.2c-25.2,0-45.8,19.9-47.6,45.1c-16.4,3.7-28.6,18.5-28.6,36.2
			c0,19.3,14.5,35.2,33,37c0,0,0,0.1,0,0.2h3.5h142.8h2.3c0,0,0-0.1,0.1-0.2c16.7-1.3,29.8-15.3,29.8-32.5
			C1257.9,126.2,1243.4,111.6,1225.7,111.6z"/>
		<path class="st9" d="M1084.6,145.6c-1.8,0-3.5,0.3-5.1,0.8c0.5-2.4,0.7-4.8,0.7-7.3c0-20.9-16.9-37.7-37.7-37.7
			c-20.9,0-37.8,16.9-37.8,37.7c0,0.3,0,0.5,0,0.8c-2.4-1.1-5-1.6-7.8-1.6c-10.7,0-19.3,8.6-19.3,19.2c0,10.7,8.6,19.3,19.3,19.3
			l87.6,0c8.6,0,15.6-7,15.6-15.6C1100.2,152.6,1093.2,145.6,1084.6,145.6z"/>
		<path class="st9" d="M1072.2,758.7c-1.2,0-2.3,0.2-3.4,0.6c0.3-1.6,0.5-3.2,0.5-4.9c0-14-11.3-25.3-25.3-25.3
			c-14,0-25.3,11.3-25.3,25.3c0,0.2,0,0.4,0,0.6c-1.6-0.7-3.4-1.1-5.2-1.1c-7.1,0-12.9,5.8-12.9,12.9c0,7.1,5.8,12.9,12.9,12.9
			l58.6,0c5.8,0,10.5-4.7,10.5-10.5C1082.7,763.4,1078,758.7,1072.2,758.7z"/>
		<path class="st10" d="M345.3,111.6c-0.4,0-0.8,0.1-1.1,0.1c0.7-3.6,1.1-7.3,1.1-11c0-29-23.1-52.4-51.5-52.4
			c-13.3,0-25.4,5.2-34.5,13.6c-5.3-2-11-3.2-17-3.2c-25.2,0-45.8,19.9-47.6,45.1c-16.4,3.7-28.6,18.5-28.6,36.2
			c0,19.3,14.5,35.2,33,37c0,0,0,0.1,0,0.2h3.5h142.8h2.3c0,0,0-0.1,0.1-0.2c16.7-1.3,29.8-15.3,29.8-32.5
			C377.5,126.2,363,111.6,345.3,111.6z"/>
	</g>
	<g id="dots">
		<path class="st8" d="M396.3,518.4c0,24.7-20,44.7-44.7,44.7c-24.7,0-44.7-20-44.7-44.7c0-24.7,20-44.7,44.7-44.7
			C376.3,473.7,396.3,493.7,396.3,518.4z"/>
		<path class="st7" d="M1039.7,332.5c0,24.7-20,44.7-44.7,44.7c-24.7,0-44.7-20-44.7-44.7c0-24.7,20-44.7,44.7-44.7
			C1019.6,287.8,1039.7,307.8,1039.7,332.5z"/>
		
			<ellipse transform="matrix(0.2338 -0.9723 0.9723 0.2338 43.8265 1422.7727)" class="st10" cx="924.6" cy="683.6" rx="40.2" ry="40.2"/>
		<path class="st7" d="M728.4,732.4c0,15.1-12.2,27.3-27.3,27.3c-15.1,0-27.3-12.2-27.3-27.3c0-15.1,12.2-27.3,27.3-27.3
			C716.2,705.1,728.4,717.3,728.4,732.4z"/>
		<path class="st11" d="M762.2,100.4c0,34.5-28,62.5-62.5,62.5c-34.5,0-62.5-28-62.5-62.5c0-34.5,28-62.5,62.5-62.5
			C734.2,37.8,762.2,65.8,762.2,100.4z"/>
		<path class="st11" d="M453.3,806c0,37.9-30.7,68.6-68.6,68.6c-37.9,0-68.6-30.7-68.6-68.6c0-37.9,30.7-68.6,68.6-68.6
			C422.6,737.4,453.3,768.1,453.3,806z"/>
	</g>
	<g id="A_letter">
		<path class="st3" d="M937,700.2l-3.3-8.1h-18.3l-3.2,8.1H907l14.7-36.7h5.7l14.8,36.7H937z M924.6,668.3l-7.8,19.8h15.6
			L924.6,668.3z"/>
	</g>
	<path id="share" class="st3" d="M717.7,724.7c-0.9-1.7-3-2.4-4.8-1.5c-1,0.5-1.7,1.5-1.8,2.5l-16.4,0c-0.1-0.7-0.3-1.4-0.6-2.1
		c-0.2-0.4-0.5-0.9-0.8-1.2c-1.7-1.9-4.6-2.4-6.9-1.2c-2.8,1.4-3.9,4.9-2.5,7.7c0.2,0.4,0.5,0.8,0.8,1.2c1.7,1.9,4.6,2.5,6.9,1.3
		c1.8-0.9,2.9-2.6,3.1-4.5l16.4,0c0.1,0.4,0.2,0.7,0.3,1c0.1,0.3,0.3,0.5,0.5,0.7l-9.6,12c-1.6-1-3.6-1.2-5.4-0.3
		c-2.7,1.4-3.7,4.6-2.3,7.3c1.4,2.7,4.7,3.7,7.3,2.3c2.7-1.4,3.7-4.7,2.3-7.3c-0.3-0.5-0.6-0.9-1-1.3l9.6-12c1,0.6,2.2,0.6,3.3,0.1
		C717.9,728.6,718.5,726.5,717.7,724.7z"/>
	<g id="paper">
		<polygon class="st3" points="1286.1,427 1286.1,396.4 1135.4,396.4 1135.4,427 1135.4,602.9 1253.2,602.9 1286.1,570 		"/>
		<polygon class="st12" points="1253.2,602.9 1286.1,570 1253.2,570 		"/>
		<g>
			<g>
				<g>
					<rect x="1154.7" y="416.8" class="st10" width="113.6" height="2.5"/>
				</g>
			</g>
			<g>
				<g>
					<rect x="1154.7" y="426.7" class="st10" width="113.6" height="2.5"/>
				</g>
			</g>
			<g>
				<g>
					<rect x="1154.7" y="436.6" class="st10" width="113.6" height="2.5"/>
				</g>
			</g>
			<g>
				<g>
					<rect x="1154.7" y="446.5" class="st10" width="113.6" height="2.5"/>
				</g>
			</g>
			<g>
				<g>
					<rect x="1154.7" y="456.4" class="st10" width="113.6" height="2.5"/>
				</g>
			</g>
			<g>
				<g>
					<rect x="1154.7" y="467.9" class="st10" width="56.8" height="2.5"/>
				</g>
			</g>
		</g>
	</g>
	<path id="globe" class="st3" d="M728,76.9c-7.1-8.2-17.4-12.9-28.4-12.9c-0.1,0-0.2,0-0.4,0c-10.7,0.1-20.8,4.8-27.9,12.9
		c-6,6.9-9.3,15.6-9.3,24.7c0,9.1,3.3,17.8,9.3,24.7c7.1,8.1,17.3,12.8,28,12.9h0c0,0,0.1,0,0.1,0h0h0c0,0,0.2,0,0.2,0
		c10.8,0,21.2-4.7,28.4-12.9c6-6.9,9.3-15.6,9.3-24.7C737.3,92.5,734,83.7,728,76.9z M697.2,134.5c-0.2-0.1-0.4-0.2-0.6-0.3
		c-0.5-0.3-1-0.6-1.5-0.9c-0.4-0.2-0.7-0.4-1.1-0.7c-0.5-0.3-1-0.7-1.5-1l-0.3-0.2c-0.2-0.2-0.5-0.3-0.7-0.5c-0.5-0.4-1-0.9-1.5-1.3
		l-0.3-0.3c-0.2-0.1-0.3-0.2-0.5-0.4c-0.8-0.7-1.5-1.4-2.1-2.1c-0.1-0.1-0.1-0.2-0.2-0.2c-0.1-0.1-0.1-0.2-0.2-0.2
		c-0.6-0.7-1.1-1.3-1.6-1.8c-0.1-0.2-0.3-0.4-0.4-0.6l-0.2-0.3c-0.4-0.5-0.8-1-1.1-1.6c-0.2-0.3-0.4-0.6-0.5-0.9l-0.2-0.2
		c0-0.1-0.1-0.1-0.1-0.2c0.2-0.1,0.5-0.2,0.7-0.3c0.4-0.2,0.8-0.4,1.2-0.6l0.2-0.1c0.2-0.1,0.5-0.2,0.7-0.3c0.4-0.2,0.9-0.4,1.3-0.5
		l0.3-0.1c0.2-0.1,0.3-0.1,0.5-0.2c0.7-0.2,1.4-0.5,2.1-0.7c0.1,0,0.2-0.1,0.3-0.1l0.3-0.1c0.6-0.2,1.2-0.3,1.8-0.4
		c0.2,0,0.4-0.1,0.6-0.1l0.3-0.1c0.5-0.1,0.9-0.2,1.4-0.2c0.3,0,0.5-0.1,0.8-0.1l0.2,0c0.4,0,0.9-0.1,1.3-0.1c0.2,0,0.5,0,0.7-0.1
		V134.5z M697.2,68.7v17.9c-0.2,0-0.5,0-0.7,0c-0.5,0-1-0.1-1.5-0.2l-0.2,0c-0.2,0-0.4,0-0.7-0.1c-0.5-0.1-1-0.2-1.5-0.3l-0.3-0.1
		c-0.2,0-0.3-0.1-0.4-0.1c-0.7-0.2-1.4-0.3-2.1-0.5l-0.2,0c-0.7-0.2-1.4-0.4-2.2-0.7c-0.1,0-0.3-0.1-0.4-0.1l-0.3-0.1
		c-0.5-0.2-1-0.4-1.5-0.6c-0.2-0.1-0.4-0.2-0.6-0.3l-0.2-0.1c-0.4-0.2-0.9-0.4-1.3-0.6c-0.2-0.1-0.4-0.2-0.7-0.3
		c0-0.1,0.1-0.1,0.1-0.2l0.1-0.2c0.2-0.3,0.4-0.6,0.5-0.9c0.3-0.5,0.7-1,1.1-1.5l0.2-0.3c0.2-0.2,0.3-0.4,0.5-0.6
		c0.5-0.6,1-1.2,1.5-1.7c0.1-0.1,0.2-0.2,0.2-0.3c0.1-0.1,0.2-0.2,0.3-0.3c0.7-0.7,1.4-1.4,2.1-2.1c0.2-0.1,0.3-0.3,0.5-0.4l0.3-0.3
		c0.5-0.4,1-0.9,1.5-1.3c0.2-0.2,0.5-0.4,0.7-0.5l0.3-0.2c0.5-0.3,1-0.7,1.5-1c0.4-0.2,0.7-0.5,1.1-0.7c0.5-0.3,1-0.6,1.5-0.9
		C696.8,68.9,697,68.8,697.2,68.7z M678.8,122.9c0.1,0.2,0.2,0.4,0.3,0.5l0.1,0.2l0.1,0.2c0.1,0.1,0.1,0.2,0.2,0.3
		c0.6,0.9,1.2,1.7,1.8,2.6c0.1,0.1,0.2,0.3,0.4,0.4l0.2,0.2c0.5,0.6,1.1,1.3,1.6,1.9l0.2,0.2c0.1,0.1,0.2,0.3,0.4,0.4
		c0.7,0.8,1.5,1.5,2.2,2.2c0.1,0.1,0.2,0.2,0.3,0.3l0.2,0.2c0.4,0.4,0.8,0.7,1.3,1.1c-4.8-1.7-9.1-4.5-12.7-8.1
		C676.5,124.6,677.6,123.7,678.8,122.9z M686.7,70.7l-0.2,0.1c-0.1,0.1-0.2,0.1-0.2,0.2c-0.8,0.7-1.5,1.4-2.3,2.3
		c-0.1,0.1-0.2,0.2-0.3,0.4l-0.2,0.2c-0.6,0.6-1.1,1.3-1.7,1.9l-0.2,0.2c-0.1,0.1-0.2,0.3-0.3,0.4c-0.7,0.9-1.3,1.7-1.8,2.6
		c-0.1,0.1-0.1,0.2-0.2,0.3l-0.1,0.2l-0.1,0.1c-0.1,0.2-0.2,0.4-0.4,0.6c-1.2-0.8-2.3-1.7-3.4-2.6c3.6-3.7,7.9-6.4,12.7-8.1
		C687.6,69.9,687.1,70.3,686.7,70.7z M674.6,82.6l0.1,0.1c0.6,0.5,1.3,0.9,2,1.4c-0.1,0.3-0.3,0.6-0.4,0.9c-0.2,0.4-0.3,0.8-0.5,1.2
		l-0.1,0.2c-0.1,0.3-0.2,0.5-0.3,0.8c-0.2,0.4-0.3,0.9-0.5,1.3l-0.1,0.3c-0.1,0.2-0.1,0.4-0.2,0.6c-0.2,0.8-0.4,1.5-0.6,2.2
		c0,0.1,0,0.2-0.1,0.3l0,0.2c-0.1,0.6-0.3,1.2-0.4,1.8c0,0.2-0.1,0.4-0.1,0.6l0,0.3c-0.1,0.5-0.2,1-0.2,1.5c0,0.3-0.1,0.5-0.1,0.8
		l0,0.2c-0.1,0.5-0.1,0.9-0.1,1.4c0,0.3,0,0.5,0,0.8h-7.3c0.4-6.6,2.9-13.1,6.9-18.5c0.7,0.6,1.3,1.1,1.9,1.5
		C674.5,82.5,674.5,82.6,674.6,82.6z M672.9,103.8c0,0.3,0,0.5,0,0.8c0,0.5,0.1,0.9,0.1,1.4l0,0.2c0,0.3,0.1,0.5,0.1,0.8
		c0.1,0.5,0.1,1,0.2,1.5l0,0.3c0,0.2,0.1,0.4,0.1,0.6c0.1,0.6,0.3,1.2,0.4,1.8l0,0.2c0,0.1,0,0.2,0.1,0.3c0.2,0.7,0.4,1.4,0.6,2.2
		c0.1,0.2,0.1,0.4,0.2,0.5l0.1,0.3c0.2,0.5,0.3,0.9,0.5,1.4c0.1,0.2,0.2,0.5,0.3,0.7l0.1,0.2c0.2,0.4,0.3,0.9,0.5,1.3
		c0.1,0.3,0.3,0.6,0.4,0.9c-0.7,0.5-1.4,1-2,1.4l-0.1,0.1l-0.2,0.1c-0.6,0.5-1.2,1-1.9,1.5c-4.1-5.3-6.5-11.8-6.9-18.5H672.9z
		 M697.2,112.1L697.2,112.1c-0.4,0-0.7,0-1,0.1c-0.6,0-1.1,0.1-1.7,0.2l-0.3,0c-0.2,0-0.4,0-0.6,0.1c-0.6,0.1-1.2,0.2-1.8,0.3
		l-0.3,0c-0.1,0-0.3,0.1-0.4,0.1c-0.9,0.2-1.7,0.4-2.5,0.6l-0.1,0c-0.8,0.2-1.6,0.5-2.4,0.8c-0.2,0.1-0.3,0.1-0.5,0.2l-0.3,0.1
		c-0.6,0.2-1.1,0.4-1.7,0.7c-0.2,0.1-0.4,0.2-0.6,0.3l-0.2,0.1c-0.5,0.2-1,0.5-1.5,0.7c-0.3,0.1-0.5,0.3-0.8,0.4
		c-0.4-0.9-0.7-1.7-1-2.5c0-0.1-0.1-0.2-0.1-0.3l-0.1-0.2c-0.4-1.2-0.8-2.3-1-3.3c-0.3-1-0.5-2.2-0.7-3.4l0-0.2l0-0.3
		c-0.1-0.9-0.2-1.8-0.3-2.7h20V112.1z M697.2,99.4h-20c0.1-0.9,0.1-1.9,0.3-2.7l0-0.3l0-0.2c0.2-1.3,0.4-2.4,0.7-3.4
		c0.2-1,0.6-2.1,1-3.3l0.1-0.2c0-0.1,0.1-0.2,0.1-0.3c0.3-0.8,0.7-1.7,1-2.5c0.3,0.1,0.6,0.3,0.8,0.4c0.4,0.2,0.9,0.4,1.4,0.6
		l0.2,0.1c0.3,0.1,0.5,0.2,0.8,0.4c0.5,0.2,1,0.4,1.6,0.6l0.3,0.1c0.2,0.1,0.4,0.1,0.6,0.2c0.8,0.3,1.6,0.5,2.4,0.7l0.1,0h0
		c0.8,0.2,1.7,0.4,2.6,0.6c0.1,0,0.2,0,0.4,0.1l0.2,0c0.7,0.1,1.3,0.2,2,0.3c0.2,0,0.4,0,0.6,0.1l0.3,0c0.6,0.1,1.2,0.1,1.8,0.2
		c0.3,0,0.6,0,0.9,0.1l0.1,0V99.4z M701.6,68.7c0.2,0.1,0.4,0.2,0.5,0.3c0.5,0.3,1.1,0.6,1.6,0.9c0.4,0.2,0.7,0.4,1.1,0.7
		c0.5,0.3,1.1,0.7,1.6,1.1l0.3,0.2c0.2,0.1,0.4,0.3,0.6,0.5c0.6,0.5,1.2,1,1.7,1.4l0.3,0.2c0.1,0.1,0.2,0.2,0.4,0.3
		c1.5,1.4,2.9,2.9,4.2,4.6c0.1,0.1,0.2,0.2,0.3,0.4l0.2,0.3c0.5,0.7,0.9,1.3,1.3,1.9c0.1,0.2,0.2,0.4,0.4,0.6l0.2,0.3
		c0.1,0.1,0.1,0.2,0.2,0.4c-0.2,0.1-0.4,0.2-0.6,0.3c-0.4,0.2-0.8,0.4-1.2,0.6l-0.2,0.1c-0.2,0.1-0.5,0.2-0.7,0.3
		c-0.5,0.2-1,0.4-1.5,0.6l-0.3,0.1c-0.1,0-0.2,0.1-0.4,0.1c-3,1-6.2,1.7-9.5,1.9c-0.1,0-0.2,0-0.3,0V68.7z M712.3,132.3L712.3,132.3
		l0.2-0.2c0.7-0.7,1.5-1.4,2.3-2.3c0.2-0.2,0.3-0.3,0.4-0.5l0.1-0.2c0.6-0.7,1.1-1.3,1.7-2l0.2-0.2c0.1-0.1,0.2-0.2,0.3-0.4
		c0.7-0.9,1.3-1.8,1.9-2.7c0.1-0.1,0.1-0.1,0.1-0.2l0.1-0.2c0.2-0.3,0.3-0.5,0.5-0.8c0.7,0.5,1.4,0.9,2,1.4c0.6,0.4,1.1,0.9,1.8,1.5
		c-3.8,3.9-8.5,6.8-13.6,8.5C711,133.4,711.6,132.8,712.3,132.3z M722.1,79.1c-0.6,0.4-1.2,0.9-1.9,1.4c-0.1-0.2-0.3-0.4-0.4-0.7
		l-0.1-0.1l-0.1-0.2c-0.1-0.1-0.1-0.2-0.2-0.3c-0.6-0.9-1.2-1.8-1.9-2.7c-0.1-0.1-0.2-0.3-0.3-0.4L717,76c-0.5-0.7-1.1-1.3-1.7-2
		l-0.1-0.2c-0.1-0.2-0.3-0.3-0.4-0.5c-0.8-0.9-1.6-1.6-2.3-2.3l-0.1-0.1l-0.1-0.1c-0.6-0.6-1.3-1.1-2-1.7c5.1,1.7,9.8,4.6,13.6,8.5
		C723.3,78.2,722.7,78.6,722.1,79.1z M701.6,91L701.6,91c0.4,0,0.8,0,1.2-0.1c0.5,0,1-0.1,1.4-0.1l0.3,0c0.3,0,0.6-0.1,0.8-0.1
		c0.5-0.1,1.1-0.2,1.6-0.3l0.3-0.1c0.2,0,0.4-0.1,0.6-0.1c0.8-0.2,1.6-0.4,2.5-0.6c0.2,0,0.3-0.1,0.4-0.1l0.3-0.1
		c0.6-0.2,1.2-0.3,1.7-0.5c0.2-0.1,0.4-0.2,0.6-0.2l0.3-0.1c0.5-0.2,1-0.4,1.5-0.6c0.3-0.1,0.5-0.2,0.8-0.3l0.2-0.1
		c0.5-0.2,1-0.4,1.5-0.7c0.3-0.1,0.5-0.2,0.8-0.4c0.4,0.8,0.7,1.6,1,2.4c0,0.1,0.1,0.3,0.1,0.4l0.1,0.2c0.4,1.2,0.7,2.2,1,3.2l0,0.1
		l0,0c0.2,1,0.4,2,0.6,3.2l0,0.2c0,0.1,0,0.2,0.1,0.4c0.1,0.9,0.2,1.7,0.2,2.6h-19.9V91z M724.7,91.6c0-0.1-0.1-0.2-0.1-0.3l0-0.2
		c-0.2-0.6-0.3-1.2-0.5-1.8c0-0.1-0.1-0.3-0.1-0.4l-0.1-0.2c-0.2-0.5-0.3-1-0.5-1.5c-0.1-0.2-0.1-0.4-0.2-0.6l-0.1-0.2
		c-0.2-0.5-0.4-1-0.6-1.4c-0.1-0.2-0.2-0.5-0.3-0.7c0.8-0.5,1.6-1.1,2.4-1.6l0.1-0.1c0.7-0.5,1.4-1.1,2.1-1.7
		c4.1,5.3,6.5,11.8,6.9,18.5h-7.8v0l0-0.2c0-0.2,0-0.5,0-0.7c0-0.5-0.1-1-0.1-1.5l0-0.3c0-0.2,0-0.4-0.1-0.5
		c-0.1-0.6-0.2-1.2-0.3-1.8l0-0.2c0-0.1,0-0.2,0-0.3C725.1,93.1,724.9,92.4,724.7,91.6z M701.6,103.8h19.9c-0.1,0.9-0.1,1.8-0.2,2.6
		c0,0.1,0,0.2-0.1,0.4l0,0.2c-0.2,1.2-0.4,2.2-0.6,3.2l0,0.2c-0.2,1-0.5,2-0.9,3.1l-0.1,0.2c0,0.1-0.1,0.3-0.1,0.4
		c-0.3,0.8-0.6,1.6-1,2.4c-0.3-0.1-0.5-0.3-0.8-0.4c-0.5-0.2-0.9-0.4-1.4-0.6l-0.2-0.1c-0.3-0.1-0.5-0.2-0.8-0.3
		c-0.5-0.2-1-0.4-1.6-0.6l-0.3-0.1c-0.2-0.1-0.4-0.1-0.6-0.2c-0.7-0.2-1.4-0.4-2.2-0.7l-0.1,0l-0.2-0.1c-0.8-0.2-1.7-0.4-2.5-0.6
		c-0.1,0-0.3,0-0.4-0.1l-0.3,0c-0.6-0.1-1.3-0.2-1.9-0.3c-0.2,0-0.4-0.1-0.6-0.1l-0.3,0c-0.6-0.1-1.1-0.1-1.7-0.2
		c-0.3,0-0.6,0-1-0.1l-0.1,0V103.8z M701.6,134.4v-17.9c0.3,0,0.6,0,0.9,0.1c0.4,0,0.8,0.1,1.1,0.1l0.2,0c0.3,0,0.6,0.1,0.9,0.1
		c0.4,0,0.7,0.1,1.1,0.2l0.2,0l0.3,0.1c0.2,0,0.4,0.1,0.6,0.1c0.8,0.1,1.5,0.3,2.2,0.5c0.1,0,0.2,0.1,0.4,0.1l0.3,0.1
		c0.5,0.1,1,0.3,1.5,0.5c0.2,0.1,0.4,0.1,0.5,0.2l0.3,0.1c0.5,0.2,0.9,0.3,1.3,0.5c0.2,0.1,0.4,0.2,0.6,0.3l0.2,0.1
		c0.4,0.2,0.9,0.4,1.3,0.6c0.2,0.1,0.4,0.2,0.6,0.3c-0.1,0.1-0.1,0.2-0.2,0.3l-0.2,0.3c-0.1,0.2-0.3,0.4-0.4,0.7
		c-0.4,0.6-0.8,1.2-1.2,1.7l-0.2,0.3c-0.1,0.2-0.2,0.3-0.3,0.5c-0.5,0.7-1.1,1.4-1.8,2.1c0,0.1-0.1,0.1-0.1,0.2l-0.1,0.1
		c-0.7,0.7-1.4,1.4-2.2,2.2c-0.1,0.1-0.3,0.3-0.4,0.4l-0.3,0.3c-0.5,0.4-1,0.9-1.6,1.3c-0.2,0.2-0.5,0.3-0.7,0.5l-0.3,0.2
		c-0.5,0.4-1,0.7-1.5,1.1c-0.4,0.2-0.7,0.5-1.1,0.7c-0.5,0.3-1,0.6-1.5,0.9C702,134.2,701.8,134.3,701.6,134.4z M724.5,120.4
		L724.5,120.4c-0.8-0.6-1.5-1.1-2.3-1.6c0.1-0.3,0.2-0.5,0.4-0.8c0.2-0.5,0.4-1,0.6-1.4l0.1-0.2c0.1-0.2,0.1-0.4,0.2-0.5
		c0.2-0.5,0.4-1.1,0.6-1.6l0.1-0.2c0-0.1,0.1-0.2,0.1-0.4c0.2-0.8,0.4-1.5,0.6-2.3c0.2-0.7,0.3-1.4,0.5-2.2c0-0.2,0.1-0.3,0.1-0.5
		l0-0.3c0.1-0.5,0.2-1,0.2-1.5c0-0.2,0.1-0.5,0.1-0.7l0-0.2c0.1-0.5,0.1-0.9,0.1-1.4c0-0.3,0-0.5,0-0.8h7.8
		c-0.4,6.6-2.9,13.1-6.9,18.5c-0.7-0.7-1.4-1.2-2.1-1.7L724.5,120.4z"/>
	<g id="download">
		<path class="st3" d="M400.5,804.3h-6.6v-28.6c0-1.4-1.6-2.5-3.7-2.5h-14.8c-2,0-3.7,1.1-3.7,2.5v28.6h-6.6c-5.2,0-7.3,2.3-4.7,5
			l4.1,4.4c2.6,2.8,6.8,7.3,9.4,10.1l4.1,4.4c2.6,2.8,6.8,2.8,9.4,0l4.1-4.4c2.6-2.8,6.8-7.3,9.4-10.1l4.1-4.4
			C407.8,806.6,405.7,804.3,400.5,804.3z"/>
		<g>
			<path class="st3" d="M409.4,834.4h-53.2c-1.1,0-2.1-0.9-2.1-2.1v-11.2c0-1.1,0.9-2.1,2.1-2.1c1.1,0,2.1,0.9,2.1,2.1v9.2h49.1
				v-9.2c0-1.1,0.9-2.1,2.1-2.1c1.1,0,2.1,0.9,2.1,2.1v11.2C411.4,833.4,410.5,834.4,409.4,834.4z"/>
		</g>
	</g>
	<path id="cloud" class="st3" d="M1014.7,328.4c0.3-1.1,0.5-2.3,0.5-3.5c0-7.4-6-13.5-13.5-13.5c-5.2,0-9.8,3-12,7.4
		c-1.3-0.7-2.7-1.2-4.3-1.2c-4.6,0-8.4,3.8-8.4,8.4c0,0.3,0,0.7,0.1,1c-4.9,0.9-8.6,5.2-8.6,10.3c0,1.9,0.5,3.7,1.4,5.2
		c1.8,3.1,5.2,5.3,9.1,5.3h12.3v-9.3H989c-1.8,0-2.5-0.8-1.6-1.7l1.4-1.5c0.9-0.9,2.3-2.5,3.2-3.4l1.4-1.5c0.9-0.9,2.3-0.9,3.2,0
		l1.4,1.5c0.9,1,2.3,2.5,3.2,3.4l1.4,1.5c0.9,1,0.2,1.7-1.6,1.7l-2.3,0v9.3h10.2l0,0c3.9,0,7.3-2.1,9.1-5.3c0.9-1.6,1.4-3.4,1.4-5.3
		C1019.6,333.5,1017.7,330.3,1014.7,328.4z"/>
	<g id="chat">
		<rect x="364.4" y="512.1" class="st3" width="10.6" height="10.6"/>
		<rect x="346.2" y="512" class="st3" width="10.6" height="10.6"/>
		<rect x="328.2" y="512.1" class="st3" width="10.6" height="10.6"/>
	</g>
	<g id="comment">
		<g>
			<path class="st13" d="M765.2,821.2c-1.2-1.2-2.7-1.7-4.2-1.7H637.3c-1.5,0-3,0.6-4.2,1.7c-1.2,1.2-1.7,2.7-1.7,4.2v80
				c0,1.5,0.6,3,1.7,4.2c1.2,1.2,2.7,1.7,4.2,1.7h10.1v15.5l15.5-15.5h98c1.5,0,3-0.6,4.2-1.7c1.2-1.2,1.7-2.7,1.7-4.2v-80
				C766.9,823.9,766.3,822.3,765.2,821.2z"/>
			<g>
				<g>
					<rect x="662.5" y="863.6" class="st10" width="91.7" height="1.9"/>
				</g>
			</g>
			<g>
				<g>
					<rect x="662.5" y="855.1" class="st10" width="91.7" height="1.9"/>
				</g>
			</g>
			<g>
				<g>
					<rect x="662.5" y="846.6" class="st0" width="91.7" height="1.9"/>
				</g>
			</g>
			<g>
				<g>
					<rect x="662.5" y="838.1" class="st0" width="91.7" height="1.9"/>
				</g>
			</g>
			<g>
				<g>
					<rect x="662.5" y="871.2" class="st10" width="91.7" height="1.9"/>
				</g>
			</g>
			<g>
				<g>
					<rect x="662.5" y="878.8" class="st10" width="91.7" height="1.9"/>
				</g>
			</g>
			<g>
				<g>
					<rect x="662.5" y="886.3" class="st10" width="91.7" height="1.9"/>
				</g>
			</g>
			<g>
				<g>
					<rect x="662.5" y="893.9" class="st10" width="91.7" height="1.9"/>
				</g>
			</g>
			<rect x="640.3" y="838.1" class="st0" width="8.6" height="8.6"/>
			<rect x="640.3" y="854.4" class="st0" width="8.6" height="8.6"/>
			<rect x="640.3" y="870.8" class="st0" width="8.6" height="8.6"/>
			<rect x="640.3" y="887.2" class="st0" width="8.6" height="8.6"/>
		</g>
	</g>
</g>
<g id="phone_1_">
	<g id="phone">
		<path class="st3" d="M154.3,597.5c-7.8,0-14.2-6.4-14.2-14.2V408.5c0-7.8,6.4-14.2,14.2-14.2h82.3c7.8,0,14.2,6.4,14.2,14.2v174.9
			c0,7.8-6.4,14.2-14.2,14.2H154.3z"/>
		<rect x="148.2" y="425" class="st9" width="94.5" height="140.2"/>
		<path class="st0" d="M207.7,582.9c0,1.9-1.5,3.4-3.4,3.4h-17.8c-1.8,0-3.4-1.5-3.4-3.4v-1.4c0-1.9,1.5-3.4,3.4-3.4h17.8
			c1.9,0,3.4,1.5,3.4,3.4V582.9z"/>
		<path class="st0" d="M199.5,409.6c0,2.3-1.8,4.1-4.1,4.1c-2.3,0-4.1-1.8-4.1-4.1c0-2.2,1.8-4.1,4.1-4.1
			C197.7,405.6,199.5,407.4,199.5,409.6z"/>
		<rect x="148.2" y="425" class="st10" width="94.5" height="14.3"/>
		<path class="st0" d="M231,451.9h-71.3c-1.9,0-3.5,1.4-3.5,3.1v33.5c0,1.7,1.6,3.1,3.5,3.1H231c1.9,0,3.5-1.4,3.5-3.1v-33.5
			C234.5,453.2,233,451.9,231,451.9z"/>
		<path class="st11" d="M231,499.4h-71.3c-1.9,0-3.5,1.8-3.5,3.9v30.1c0,2.2,1.6,4,3.5,4H231c1.9,0,3.5-1.8,3.5-4v-30.1
			C234.5,501.2,233,499.4,231,499.4z"/>
	</g>
</g>
<g id="tablet">
	<g>
		<path class="st12" d="M814.6,332.5H581.9c-5.7,0-10.2,4.5-10.2,10v316.9c0,5.5,4.6,10,10.2,10h232.7c5.7,0,10.2-4.5,10.2-10V342.5
			C824.8,337,820.2,332.5,814.6,332.5z"/>
		<path class="st0" d="M704.9,645.9h-13.4c-2.2,0-4,1.7-4,3.9v8.1c0,2.2,1.8,3.9,4,3.9h13.4c2.2,0,4-1.7,4-3.9v-8.1
			C708.9,647.7,707.1,645.9,704.9,645.9z"/>
		<rect x="582.8" y="361.9" class="st9" width="230.8" height="278.2"/>
		<rect x="582.8" y="615.9" class="st10" width="230.8" height="24.2"/>
		<rect x="582.8" y="361.9" class="st10" width="230.8" height="12.7"/>
		<path class="st14" d="M798.2,395.9h-200c-3.5,0-6.3,3-6.3,6.6v196.5c0,3.6,2.8,6.6,6.3,6.6h200c3.5,0,6.3-3,6.3-6.6V402.4
			C804.6,398.8,801.7,395.9,798.2,395.9z"/>
		<path class="st0" d="M591.9,598.9c0,3.6,2.8,6.6,6.3,6.6h200c3.5,0,6.3-3,6.3-6.6v-4.4H591.9V598.9z"/>
		<path class="st0" d="M798.2,383.4h-200c-3.5,0-6.3,2.8-6.3,6.2v12.7h212.7v-12.7C804.6,386.1,801.7,383.4,798.2,383.4z"/>
		<path class="st10" d="M603.6,388.6c-2.4,0-4.3,1.9-4.3,4.2c0,2.3,1.9,4.2,4.3,4.2c2.3,0,4.3-1.9,4.3-4.2
			C607.9,390.5,606,388.6,603.6,388.6z"/>
		<path class="st8" d="M617.4,388.6c-2.4,0-4.3,1.9-4.3,4.2c0,2.3,1.9,4.2,4.3,4.2c2.4,0,4.3-1.9,4.3-4.2
			C621.7,390.5,619.8,388.6,617.4,388.6z"/>
		<path class="st11" d="M631.2,388.6c-2.4,0-4.3,1.9-4.3,4.2c0,2.3,1.9,4.2,4.3,4.2c2.4,0,4.3-1.9,4.3-4.2
			C635.4,390.5,633.5,388.6,631.2,388.6z"/>
		<path class="st0" d="M697.6,342.9c-2.4,0-4.3,1.9-4.3,4.2c0,2.3,1.9,4.2,4.3,4.2c2.4,0,4.3-1.9,4.3-4.2
			C701.9,344.7,700,342.9,697.6,342.9z"/>
	</g>
	<g id="boxes">
		<rect x="680.3" y="532.7" class="st11" width="20.2" height="20.2"/>
		<rect x="704.7" y="532.7" class="st0" width="20.2" height="20.2"/>
		<rect x="729.2" y="532.7" class="st7" width="20.2" height="20.2"/>
		<rect x="680.3" y="556.5" class="st10" width="20.2" height="20.2"/>
		<rect x="704.7" y="556.5" class="st8" width="20.2" height="20.2"/>
		<rect x="729.2" y="556.5" class="st11" width="20.2" height="20.2"/>
		<rect x="753.7" y="532.7" class="st9" width="20.2" height="20.2"/>
		<rect x="753.7" y="556.5" class="st8" width="20.2" height="20.2"/>
		<rect x="620" y="532.7" class="st11" width="51.5" height="44"/>
		<rect x="591.9" y="436.2" class="st15" width="212.7" height="81.6"/>
	</g>
	<g id="arrows">
		<polygon class="st3" points="603.1,477 609.3,483.2 609.3,470.9 		"/>
		<polygon class="st3" points="794.1,477 787.9,483.2 787.9,470.9 		"/>
	</g>
	<rect x="620" y="452.4" class="st3" width="51.5" height="49.3"/>
	<rect x="591.9" y="402.3" class="st10" width="212.7" height="13.7"/>
	<rect x="729.7" y="406.3" class="st3" width="68.2" height="5.4"/>
	<path id="shopping" class="st3" d="M657.4,561.8h-14.6c-0.5,0-1-0.2-1.4-0.5c-0.4-0.3-0.7-0.7-0.9-1.2l-4.7-15.5h-7.3v-2.8h7.6
		c0.5,0,1,0.2,1.4,0.5c0.4,0.3,0.7,0.7,0.9,1.2l4.7,15.5H657l2.9-9.6h-17.7l-0.9-2.8h19.2c0.7,0,1.4,0.4,1.9,0.9
		c0.4,0.6,0.6,1.4,0.4,2.1l-3.2,10.5c-0.1,0.5-0.4,0.9-0.8,1.2C658.4,561.6,657.9,561.8,657.4,561.8z M657.4,551.3h-14.6l0.6,1.9
		h13.4L657.4,551.3z M656.2,555.1l-0.6,1.9h-11.1l-0.6-1.9H656.2z M644.9,562.7c-1.4,0-2.6,1.1-2.6,2.6c0,1.4,1.1,2.6,2.6,2.6
		c1.4,0,2.6-1.1,2.6-2.6C647.4,563.8,646.3,562.7,644.9,562.7z M655.3,562.7c-1.4,0-2.6,1.1-2.6,2.6c0,1.4,1.1,2.6,2.6,2.6
		c1.4,0,2.6-1.1,2.6-2.6C657.9,563.8,656.7,562.7,655.3,562.7z"/>
	<g id="texts">
		<g>
			<rect x="678.9" y="452.4" class="st0" width="56.2" height="1.7"/>
			<rect x="678.9" y="458" class="st10" width="93.9" height="1.5"/>
			<rect x="678.9" y="463.5" class="st10" width="93.9" height="1.5"/>
			<rect x="679" y="469.1" class="st10" width="93.8" height="1.5"/>
			<rect x="678.9" y="482" class="st3" width="93.9" height="1.5"/>
			<rect x="678.9" y="487.5" class="st3" width="93.9" height="1.5"/>
			<rect x="679" y="493.1" class="st3" width="93.8" height="1.5"/>
			<rect x="679" y="475.4" class="st10" width="56.1" height="1.5"/>
			<rect x="679" y="499.9" class="st3" width="75.5" height="1.5"/>
		</g>
		<rect x="621.7" y="425" class="st0" width="152.2" height="1.7"/>
	</g>
</g>
</svg>
