<?xml version="1.0" encoding="utf-8"?>
<!-- Generator: Adobe Illustrator 22.0.0, SVG Export Plug-In . SVG Version: 6.00 Build 0)  -->
<svg version="1.1" xmlns="http://www.w3.org/2000/svg" xmlns:xlink="http://www.w3.org/1999/xlink" x="0px" y="0px"
	 viewBox="0 0 500 500" style="enable-background:new 0 0 500 500;" xml:space="preserve">
<style type="text/css">
	.st0{fill:url(#SVGID_1_);}
	.st1{fill:#231F20;}
	.st2{font-family:'Roboto-Black';}
	.st3{font-size:33px;}
	.st4{font-family:'Roboto-Bold';}
	.st5{font-size:18px;}
	.st6{fill:#FFDA08;}
	.st7{fill:#FFC717;}
	.st8{fill:#FFFFFF;}
	.st9{fill:none;stroke:#050403;stroke-width:3;stroke-linecap:round;stroke-linejoin:round;stroke-miterlimit:10;}
	.st10{fill:#050403;}
	.st11{font-size:17px;}
	.st12{fill:none;}
	.st13{font-family:'OpenSans';}
	.st14{font-size:11px;}
	.st15{fill:none;stroke:#FFFFFF;stroke-width:3;stroke-linecap:round;stroke-linejoin:round;stroke-miterlimit:10;}
	.st16{fill:#F27B74;}
	.st17{fill:#F05F4F;}
	.st18{fill:#7BC7A0;}
	.st19{fill:#70B693;}
	.st20{fill:#56CAF4;}
	.st21{fill:#50B8DF;}
	.st22{font-family:'Roboto-Regular';}
</style>
<g id="BACKGROUND">
	<radialGradient id="SVGID_1_" cx="250" cy="250" r="351.075" gradientUnits="userSpaceOnUse">
		<stop  offset="0" style="stop-color:#FFFFFF"/>
		<stop  offset="0.5767" style="stop-color:#FDFDFD"/>
		<stop  offset="0.7844" style="stop-color:#F6F7F7"/>
		<stop  offset="0.932" style="stop-color:#EBEBEC"/>
		<stop  offset="1" style="stop-color:#E2E3E4"/>
	</radialGradient>
	<rect class="st0" width="500" height="500"/>
</g>
<g id="OBJECTS">
	<text transform="matrix(1 0 0 1 197.3857 252.0865)" class="st1 st2 st3">MSME</text>
	<text transform="matrix(1 0 0 1 178.353 269.3884)" class="st1 st4 st5">Focus Segments</text>
	<g>
		<circle class="st6" cx="129.1" cy="129.2" r="89"/>
		<path class="st7" d="M189.8,64.1c7.8,13.2,12.3,28.7,12.3,45.2c0,49.2-39.8,89-89,89c-23.4,0-44.7-9.1-60.6-23.9
			c15.5,26.2,44,43.8,76.7,43.8c49.2,0,89-39.8,89-89C218.1,103.5,207.2,80.3,189.8,64.1z"/>
		<polygon class="st8" points="56.9,108 191.5,108 191.5,85.4 68.2,85.4 		"/>
		<path class="st9" d="M123.3,50.1c49.2,0,89,39.8,89,89c0,49.2-39.8,89-89,89c-49.2,0-89-39.8-89-89"/>
		<g>
			<path class="st9" d="M34.4,128.7V77.6H22.6v-7.5c11.8,0,14.4-3.9,16.8-8.4h10.2v26.1v40.9"/>
		</g>
		<polygon class="st9" points="122.6,57.2 109.3,49.6 122.6,41.9 		"/>
		<text transform="matrix(1 0 0 1 65.5874 102.777)" class="st10 st4 st11">Online Presence</text>
		<g>
			<rect x="72.1" y="113" class="st12" width="120.3" height="41.3"/>
			<text transform="matrix(1 0 0 1 81.6924 120.8038)"><tspan x="0" y="0" class="st1 st13 st14">Create a robust online </tspan><tspan x="-9.6" y="13.2" class="st1 st13 st14">presence – Build websites, </tspan><tspan x="1.2" y="26.4" class="st1 st13 st14">set up an online store</tspan></text>
		</g>
		<path class="st15" d="M51.8,157.6c0,0,13.3,47.7,73.7,53.7"/>
		<g>
			<g>
				<g>
					<path d="M151.4,155h-46.1c-1.8,0-3.2,1.5-3.2,3.2v31.3c0,1.8,1.5,3.2,3.2,3.2h15.6l-0.6,5h-2.6c-0.4,0-0.8,0.3-0.8,0.8
						s0.3,0.8,0.8,0.8H139c0.4,0,0.8-0.3,0.8-0.8s-0.3-0.8-0.8-0.8h-2.6l-0.6-5h15.6c1.8,0,3.2-1.5,3.2-3.2v-31.3
						C154.6,156.4,153.1,155,151.4,155z M121.7,197.8l0.6-5h2.8l0.3,1.1c0.3,1.3,1.5,2.2,2.8,2.2c1.3,0,2.5-0.9,2.8-2.2l0.3-1.1h2.8
						l0.6,5H121.7z M126.8,192.8h3l-0.2,0.7c-0.1,0.6-0.7,1-1.3,1c-0.6,0-1.2-0.4-1.3-1L126.8,192.8z M153.1,189.5L153.1,189.5
						c0,0.9-0.8,1.7-1.7,1.7h-46.1c-0.9,0-1.7-0.8-1.7-1.7v-31.3c0-0.9,0.8-1.7,1.7-1.7h46.1c0.9,0,1.7,0.8,1.7,1.7V189.5
						L153.1,189.5z"/>
				</g>
			</g>
			<g>
				<g>
					<path d="M145.6,158.3H106c-0.4,0-0.8,0.3-0.8,0.8v29.7c0,0.4,0.3,0.8,0.8,0.8h1.6c0.4,0,0.8-0.3,0.8-0.8c0-0.4-0.3-0.8-0.8-0.8
						h-0.9v-28.1h38.8c0.4,0,0.8-0.3,0.8-0.8C146.4,158.6,146,158.3,145.6,158.3z"/>
				</g>
			</g>
			<g>
				<g>
					<path d="M150.5,158.3h-1.6c-0.4,0-0.8,0.3-0.8,0.8c0,0.4,0.3,0.8,0.8,0.8h0.9v28.1H111c-0.4,0-0.8,0.3-0.8,0.8
						c0,0.4,0.3,0.8,0.8,0.8h39.5c0.4,0,0.8-0.3,0.8-0.8v-29.7C151.3,158.6,151,158.3,150.5,158.3z"/>
				</g>
			</g>
			<g>
				<g>
					<path d="M138.8,166.8c-0.1-0.2-0.3-0.3-0.6-0.3l-18.1-0.8c0,0,0,0,0,0c-0.1-0.4-0.3-0.7-0.6-0.9l-2.2-1.5
						c-0.4-0.2-0.8-0.1-1.1,0.2c-0.2,0.4-0.1,0.8,0.2,1.1l2.2,1.5c0,0,0,0,0,0l2.8,9.9c0.1,0.3,0.2,0.6,0.4,0.8l-1,2.1
						c-0.2,0.5-0.2,1.1,0.1,1.6c0.1,0.2,0.2,0.3,0.4,0.4c-0.2,0.4-0.3,0.8-0.3,1.2c0,1.3,1.1,2.4,2.4,2.4c1.3,0,2.4-1.1,2.4-2.4
						c0-0.3-0.1-0.6-0.2-0.9h7c-0.1,0.3-0.2,0.6-0.2,0.9c0,1.3,1.1,2.4,2.4,2.4s2.4-1.1,2.4-2.4c0-0.4-0.1-0.8-0.3-1.1
						c0.2-0.1,0.3-0.3,0.3-0.6c0-0.4-0.3-0.8-0.8-0.8h-14.3c0,0,0,0,0,0c0,0,0,0,0-0.1l1-1.9c0.2,0,0.4,0.1,0.6,0.1
						c0.1,0,0.2,0,0.3,0l10.8-1.3c1.4-0.2,2.5-1.2,2.8-2.6l1.3-6.5C139,167.2,138.9,167,138.8,166.8z M134.9,181.2
						c0.5,0,0.9,0.4,0.9,0.9c0,0.5-0.4,0.9-0.9,0.9s-0.9-0.4-0.9-0.9S134.4,181.2,134.9,181.2z M123.3,181.2c0.5,0,0.9,0.4,0.9,0.9
						s-0.4,0.9-0.9,0.9c-0.5,0-0.9-0.4-0.9-0.9S122.9,181.2,123.3,181.2z M121.5,170.6l-1-3.4l3.1,0.1l0.5,3.2H121.5z M123.8,176.3
						c-0.4,0.1-0.8-0.2-0.9-0.6l-1-3.4h2.5l0.6,3.9L123.8,176.3z M128.3,175.7l-1.8,0.2l-0.6-3.7h2.4V175.7z M128.3,170.6h-2.7
						l-0.5-3.2l3.2,0.1V170.6z M132.2,175.3l-2.4,0.3v-3.4h2.6L132.2,175.3z M132.7,170.6h-2.8v-3l3,0.1L132.7,170.6z M136.1,173.6
						c-0.1,0.7-0.7,1.3-1.5,1.4l-0.8,0.1l0.3-2.9h2.3L136.1,173.6z M136.7,170.6h-2.5l0.2-2.7l2.8,0.1L136.7,170.6z"/>
				</g>
			</g>
		</g>
	</g>
	<g>
		<circle class="st16" cx="366.4" cy="128.7" r="89"/>
		<path class="st17" d="M427.9,63.6c7.8,13.2,12.3,28.7,12.3,45.2c0,49.2-39.8,89-89,89c-23.4,0-44.7-9.1-60.6-23.9
			c15.5,26.2,44,43.8,76.7,43.8c49.2,0,89-39.8,89-89C456.2,103,445.3,79.8,427.9,63.6z"/>
		<polygon class="st8" points="428.6,108.4 292.2,108.4 292.2,85.8 417.2,85.8 		"/>
		<path class="st9" d="M361.5,49.6c-49.2,0-89,39.8-89,89c0,49.2,39.8,89,89,89c49.2,0,89-39.8,89-89"/>
		<polygon class="st9" points="362.2,56.8 375.5,49.1 362.2,41.4 		"/>
		<g>
			<text transform="matrix(1 0 0 1 296.9946 103.5535)" class="st10 st4 st11">Cloud Solutions</text>
		</g>
		<g>
			<rect x="289.5" y="113.8" class="st12" width="142.3" height="35.5"/>
			<text transform="matrix(1 0 0 1 296.1919 121.5803)"><tspan x="0" y="0" class="st1 st13 st14">Explore Various cloud based </tspan><tspan x="6.9" y="13.2" class="st1 st13 st14">business solutions - CRM, </tspan><tspan x="-2.8" y="26.4" class="st1 st13 st14">Team Collboration , Accounts </tspan></text>
		</g>
		<g>
			<path class="st9" d="M474.3,128.3h-26.2v-8.1c0-19.5,17.9-22.7,17.9-41.8c0-6-1.8-7.6-4.7-7.6c-2.9,0-4.7,1.8-4.7,6.5v7.1h-8.6
				v-6.4c0-10.6,4.6-16.7,13.5-16.7c8.9,0,13.5,6.1,13.5,16.7c0,20.8-18,28.6-18,39.5c0,0.5,0,0.9,0.1,1.4h17.1"/>
		</g>
		<path class="st15" d="M288.2,157.1c0,0,13.3,47.7,73.7,53.7"/>
		<g>
			<path d="M347.5,168.7l2.8,0l0,1.4l-2.8,0L347.5,168.7z"/>
			<path d="M384.1,166.2c1.1,0,2.1-0.9,2.1-2.1l0-6.9c0-1.1-0.9-2.1-2.1-2.1l-9.7-0.1c-1.1,0-2.1,0.9-2.1,2.1l0,6.9
				c0,1.1,0.9,2.1,2.1,2.1l2.1,0l0,1.4l-1.4,0l0,1.4l3.5,0l0,6.9l-2.8,0c-0.5-0.5-1.2-1-2-1.2c0-0.1,0-0.1,0-0.2
				c0-3-2.4-5.5-5.5-5.6c-1.9,0-3.7,1-4.7,2.5c-0.7-0.3-1.5-0.5-2.2-0.5c-2.3,0-4.4,1.4-5.2,3.5c-0.5,0.1-1,0.3-1.5,0.6l-5.1,0
				l0-2.1l2.8,0c1.1,0,2.1-0.9,2.1-2.1l0.1-13.8c0-1.1-0.9-2.1-2.1-2.1l-6.9,0c-1.1,0-2.1,0.9-2.1,2.1l-0.1,13.8
				c0,1.1,0.9,2.1,2.1,2.1l2.8,0l0,3.5l5,0c-0.3,0.4-0.5,0.9-0.7,1.4l-3,0l-0.1,7.6l-2.8,0c-1.1,0-2.1,0.9-2.1,2.1l0,6.2l-1.4,0
				l0,2.1c0,1.1,0.9,2.1,2.1,2.1l11,0.1c1.1,0,2.1-0.9,2.1-2.1l0-2.1l-1.4,0l0-6.2c0-1.1-0.9-2.1-2.1-2.1l-4.1,0l0-6.2l1.4,0
				c0,2.7,2.1,4.8,4.8,4.9l15.2,0.1c2.4,0,4.5-1.8,4.8-4.1l2.8,0l0,5.5l-4.8,0l-0.1,12.4l11,0.1l0.1-12.4l-4.8,0l0-6.9l-4.2,0
				c-0.1-0.5-0.2-0.9-0.4-1.4l3.2,0l0.1-8.3l3.5,0l0-1.4l-1.4,0l0-1.4L384.1,166.2z M353,166l-8.3-0.1l0-6.9l8.3,0.1L353,166z
				 M345.5,156.3l6.9,0c0.4,0,0.7,0.3,0.7,0.7l0,0.7l-8.3-0.1l0-0.7C344.8,156.6,345.1,156.3,345.5,156.3z M344.7,170.8l0-3.5
				l8.3,0.1l0,3.5c0,0.4-0.3,0.7-0.7,0.7l-6.9,0C345,171.5,344.7,171.1,344.7,170.8z M356.9,195.7c0,0.4-0.3,0.7-0.7,0.7l-11-0.1
				c-0.4,0-0.7-0.3-0.7-0.7l0-0.7L357,195L356.9,195.7z M355.6,187.4l0,6.2l-9.7-0.1l0-6.2c0-0.4,0.3-0.7,0.7-0.7l8.3,0.1
				C355.3,186.7,355.6,187,355.6,187.4z M376.3,196.5l0-4.1l8.3,0.1l0,4.1L376.3,196.5z M384.6,191.1l-8.3-0.1l0-4.1l8.3,0.1
				L384.6,191.1z M372.2,182.7l-15.2-0.1c-1.9,0-3.4-1.6-3.4-3.5c0-1.7,1.3-3.2,3.1-3.4l0.5-0.1l0.1-0.4c0.5-1.8,2.2-3,4-3
				c0.8,0,1.5,0.2,2.2,0.6l0.7,0.4l0.3-0.7c0.7-1.4,2.2-2.4,3.8-2.4c2.3,0,4.1,1.9,4.1,4.2c0,0.2,0,0.4-0.1,0.6l-0.1,0.7l0.7,0.1
				c1.7,0.3,2.9,1.7,2.9,3.4C375.7,181.2,374.1,182.7,372.2,182.7z M374.5,156.5l9.7,0.1c0.4,0,0.7,0.3,0.7,0.7l0,4.8l-11-0.1l0-4.8
				C373.8,156.8,374.1,156.5,374.5,156.5z M373.7,164.1l0-0.7l11,0.1l0,0.7c0,0.4-0.3,0.7-0.7,0.7l-9.7-0.1
				C374,164.8,373.7,164.4,373.7,164.1z M380.6,167.6l-2.8,0l0-1.4l2.8,0L380.6,167.6z"/>
			<path d="M377.7,188.3l1.4,0l0,1.4l-1.4,0L377.7,188.3z"/>
			<path d="M381.8,193.8l1.4,0l0,1.4l-1.4,0L381.8,193.8z"/>
			<path d="M380.5,188.3l2.8,0l0,1.4l-2.8,0L380.5,188.3z"/>
			<path d="M377.7,193.8l2.8,0l0,1.4l-2.8,0L377.7,193.8z"/>
		</g>
	</g>
	<g>
		<circle class="st18" cx="372.7" cy="366" r="89"/>
		<path class="st19" d="M434.2,300.9c7.8,13.2,12.3,28.7,12.3,45.2c0,49.2-39.8,89-89,89c-23.4,0-44.7-9.1-60.6-23.9
			c15.5,26.2,44,43.8,76.7,43.8c49.2,0,89-39.8,89-89C462.6,340.3,451.7,317.1,434.2,300.9z"/>
		<polygon class="st8" points="437.3,333.9 306.2,333.9 306.2,311.3 426.3,311.3 		"/>
		<g>
			<text transform="matrix(1 0 0 1 311.4058 328.9677)" class="st10 st4 st11">Data Tracking</text>
		</g>
		<g>
			<rect x="306.2" y="340.6" class="st12" width="124.8" height="35.5"/>
			<text transform="matrix(1 0 0 1 316.1857 348.4151)"><tspan x="0" y="0" class="st1 st13 st14">Reports and Analytics - </tspan><tspan x="-0.3" y="13.2" class="st1 st13 st14">Broaden access to data </tspan><tspan x="15.6" y="26.4" class="st1 st13 st14">and knowledge.</tspan></text>
		</g>
		<path class="st9" d="M367.8,447.3c-49.2,0-89-39.8-89-89c0-49.2,39.8-89,89-89c49.2,0,89,39.8,89,89"/>
		<polygon class="st9" points="368.5,440.1 381.8,447.8 368.5,455.4 		"/>
		<g>
			<path class="st9" d="M456.4,442.5v-12.2H441v-9.6l14.5-45.3h8.7v45.3h3.8v9.6h-3.8v12.2 M456.4,420.8v-25.2l-8.1,25.2H456.4z"/>
		</g>
		<path class="st15" d="M447.6,335.6c0,0-13.3-47.7-73.7-53.7"/>
		<g>
			<g>
				<g>
					<path d="M387.9,382.5h-37.5c-2.6,0-4.7,2.1-4.7,4.7v30c0,2.1,1.4,4,3.5,4.5l0.5-1.8c-1.2-0.3-2.1-1.4-2.1-2.7v-30
						c0-1.6,1.3-2.8,2.8-2.8h37.5c1.6,0,2.8,1.3,2.8,2.8v0.9h1.9v-0.9C392.5,384.6,390.5,382.6,387.9,382.5z"/>
				</g>
			</g>
			<g>
				<g>
					<rect x="349.4" y="386.3" width="1.9" height="1.9"/>
				</g>
			</g>
			<g>
				<g>
					<rect x="353.2" y="386.3" width="1.9" height="1.9"/>
				</g>
			</g>
			<g>
				<g>
					<rect x="356.9" y="386.3" width="1.9" height="1.9"/>
				</g>
			</g>
			<g>
				<g>
					<path d="M400.7,434.4l-8.9-8.9c0.5-0.8,0.8-1.7,1.1-2.6h1.5V421h-1.1c0.4-2.3,0.1-4.6-0.8-6.7v-9.2h-1.9v6
						c-0.6-0.7-1.2-1.4-1.9-1.9v-7.8h-1.9v6.5c-0.6-0.3-1.2-0.6-1.9-0.9v-9.3h-1.9v8.8c-0.6-0.1-1.2-0.2-1.9-0.3v-6.6h-1.9v6.6
						c-0.6,0-1.3,0.1-1.9,0.3v-3.1h-1.9v3.7c-0.6,0.2-1.3,0.5-1.9,0.9v-5.5h-1.9v6.8c-0.7,0.6-1.3,1.2-1.9,1.9v-6.9h-1.9v10.2
						c-0.9,2.1-1.1,4.4-0.8,6.7H355v1.9h12.7c2.1,6.9,9.3,10.9,16.3,8.8c1.4-0.4,2.7-1,3.8-1.9l8.7,8.7c0.4,0.4,1,0.4,1.3,0l2.8-2.8
						C401.1,435.4,401.1,434.8,400.7,434.4z M380.4,430.4c-6.2,0-11.2-5-11.3-11.3c0-6.2,5-11.3,11.3-11.3c6.2,0,11.3,5,11.3,11.3
						S386.6,430.4,380.4,430.4z M397.2,436.5l-7.9-7.9c0.5-0.5,1-1,1.4-1.6l8,8L397.2,436.5z"/>
				</g>
			</g>
			<g>
				<g>
					<path d="M380.4,409.7c-5.2,0-9.4,4.2-9.4,9.4s4.2,9.4,9.4,9.4c5.2,0,9.4-4.2,9.4-9.4C389.7,413.9,385.5,409.7,380.4,409.7z
						 M380.4,426.6c-2.7,0-5.1-1.4-6.5-3.8h13C385.5,425.2,383,426.6,380.4,426.6z M373.1,421c-0.8-2.9,0.3-5.9,2.6-7.7v5.8h1.9
						v-6.9c0.6-0.2,1.2-0.4,1.9-0.5v7.4h1.9v-7.4c0.6,0.1,1.3,0.2,1.9,0.5v6.9h1.9v-5.8c2.3,1.8,3.3,4.9,2.6,7.7H373.1z"/>
				</g>
			</g>
			<g>
				<g>
					<path d="M393.5,390H356c-2.6,0-4.7,2.1-4.7,4.7v30c0,2.6,2.1,4.7,4.7,4.7h12.2v-1.9H356c-1.6,0-2.8-1.3-2.8-2.8v-30
						c0-1.6,1.3-2.8,2.8-2.8h37.5c1.6,0,2.8,1.3,2.8,2.8v30c0,0.7-0.3,1.3-0.7,1.9l1.4,1.2c0.8-0.9,1.2-2,1.2-3.1v-30
						C398.2,392.2,396.1,390.1,393.5,390z"/>
				</g>
			</g>
			<g>
				<g>
					<rect x="355" y="393.8" width="1.9" height="1.9"/>
				</g>
			</g>
			<g>
				<g>
					<rect x="358.8" y="393.8" width="1.9" height="1.9"/>
				</g>
			</g>
			<g>
				<g>
					<rect x="362.5" y="393.8" width="1.9" height="1.9"/>
				</g>
			</g>
			<g>
				<g>
					<rect x="356.9" y="413.5" width="1.9" height="5.6"/>
				</g>
			</g>
			<g>
				<g>
					<rect x="360.7" y="407.9" width="1.9" height="11.3"/>
				</g>
			</g>
			<g>
				<g>
					<rect x="364.4" y="410.7" width="1.9" height="8.4"/>
				</g>
			</g>
		</g>
	</g>
	<g>
		<circle class="st20" cx="133.6" cy="369.7" r="89"/>
		<path class="st21" d="M194.2,304.5c7.8,13.2,12.3,28.7,12.3,45.2c0,49.2-39.8,89-89,89c-23.4,0-44.7-9.1-60.6-23.9
			c15.5,26.2,44,43.8,76.7,43.8c49.2,0,89-39.8,89-89C222.6,344,211.7,320.8,194.2,304.5z"/>
		<polygon class="st8" points="57.5,333.9 188.6,333.9 188.6,311.3 68.5,311.3 		"/>
		<path class="st9" d="M127.8,450.9c49.2,0,89-39.8,89-89c0-49.2-39.8-89-89-89c-49.2,0-89,39.8-89,89"/>
		<polygon class="st9" points="127.1,443.8 113.8,451.4 127.1,459.1 		"/>
		<g>
			<text transform="matrix(1 0 0 1 76.172 327.9448)" class="st10 st4 st11">Social Media</text>
		</g>
		<g>
			<rect x="54.8" y="340.5" class="st12" width="137" height="35.5"/>
			<text transform="matrix(1 0 0 1 74.0765 348.3424)"><tspan x="0" y="0" class="st1 st13 st14">Get on Social Media – </tspan><tspan x="-9.6" y="13.2" class="st1 st13 st14">Capture new markets and </tspan><tspan x="-7.8" y="26.4" class="st1 st13 st14">expand existing markets.</tspan></text>
		</g>
		<g>
			<path class="st9" d="M43.3,398.5h3.5c3.4,0,5.4-1.7,5.4-6.9v-3.6c0-5.9-1.8-7.5-4.7-7.5c-2.9,0-4.7,1.8-4.7,6.5v4.2h-8.6v-3.6
				c0-10.5,4.6-16.5,13.5-16.5c8.9,0,13.5,6,13.5,16.5v1.7c0,7-2,11.4-6.3,13.5c4.5,2.2,6.3,7.1,6.3,13.8v5.1
				c0,10.5-4.6,16.5-13.5,16.5c-8.9,0-13.5-6-13.5-16.5v-5.4h8.6v6.1c0,4.7,1.8,6.5,4.7,6.5c2.9,0,4.7-1.6,4.7-7.4v-5.1
				c0-6.1-1.8-8.3-5.9-8.3h-3"/>
		</g>
		<path class="st15" d="M209.3,339.3c0,0-13.3-47.7-73.7-53.7"/>
		<g>
			<g>
				<g>
					<rect x="110.8" y="387" width="19.7" height="2"/>
				</g>
			</g>
			<g>
				<g>
					<path d="M139.8,419c0-1.9-1.5-3.4-3.4-3.4h-2v-13.8h-2v13.8h-2.5c-1.9,0-3.4,1.5-3.4,3.4c0,1,0.4,1.8,1,2.5
						c-0.6,0.6-1,1.5-1,2.5c0,0.7,0.2,1.3,0.5,1.8c-1.2,0.5-2,1.7-2,3.1c0,0.5,0.1,1,0.3,1.5h-7.7c0-3-1.5-5.7-3.8-7.3
						c2.2-0.8,3.8-3,3.8-5.5c0-0.5-0.4-1-1-1h-7.9v-9.8h-2v9.8c-1.6,0-3,1.3-3,3v21.7h2v-21.7c0-0.5,0.4-1,1-1h8.7
						c-0.4,1.7-2,3-3.8,3h-3c-0.5,0-1,0.4-1,1s0.4,1,1,1c3.8,0,6.9,3.1,6.9,6.9v1c0,0.5,0.4,1,1,1h5.8c-0.2,0.4-0.3,0.9-0.3,1.5
						c0,1.9,1.5,3.4,3.4,3.4v3.9h2v-3.9h3.9h0.5c1.9,0,3.4-1.5,3.4-3.4c0-0.5-0.1-1-0.4-1.5c1.8-0.1,3.3-1.6,3.3-3.4
						c0-0.7-0.2-1.3-0.5-1.8c1.2-0.5,2-1.7,2-3.1c0-1-0.4-1.8-1-2.5C139.4,420.9,139.8,420,139.8,419z M131.9,435.3h-0.5h-4.9h-1
						c-0.8,0-1.5-0.7-1.5-1.5s0.7-1.5,1.5-1.5h3h3.4c0.8,0,1.5,0.7,1.5,1.5S132.7,435.3,131.9,435.3z M134.9,430.4h-3h-3.4
						c-0.8,0-1.5-0.7-1.5-1.5s0.7-1.5,1.5-1.5h1.5h4.9c0.8,0,1.5,0.7,1.5,1.5S135.7,430.4,134.9,430.4z M136.3,425.4h-1.5h-4.9
						c-0.8,0-1.5-0.7-1.5-1.5s0.7-1.5,1.5-1.5h6.4c0.8,0,1.5,0.7,1.5,1.5S137.2,425.4,136.3,425.4z M136.3,420.5h-6.4
						c-0.8,0-1.5-0.7-1.5-1.5s0.7-1.5,1.5-1.5h6.4c0.8,0,1.5,0.7,1.5,1.5S137.2,420.5,136.3,420.5z"/>
				</g>
			</g>
			<g>
				<g>
					<path d="M105.8,394.7c0-0.3-0.2-0.5-0.4-0.7l-1-0.8c-0.2-1.2-1.3-2.2-2.6-2.2c-1.5,0-2.7,1.2-2.7,2.7c-0.8-0.1-1.5-0.4-2.2-0.9
						l-0.3-0.2c-0.3-0.2-0.7-0.2-1-0.1c-0.3,0.2-0.5,0.5-0.5,0.9v0.8c0,1.2,0.4,2.3,1,3.3l-0.7,0.7c-0.3,0.3-0.4,0.7-0.2,1.1
						c0.2,0.4,0.5,0.6,0.9,0.6h4.8c1.9,0,3.5-1.5,3.7-3.3l1.1-1.1C105.7,395.2,105.8,394.9,105.8,394.7z M102.8,395.4
						c-0.2,0.2-0.3,0.4-0.3,0.7c0,1-0.8,1.8-1.7,1.8h-2.5c0.2-0.4,0.1-0.8-0.2-1.1c-0.5-0.5-0.8-1.1-1-1.7c0.9,0.4,1.9,0.6,3,0.6
						c0.5,0,1-0.4,1-1v-1c0-0.4,0.3-0.7,0.7-0.7s0.7,0.3,0.7,0.7c0,0.3,0.1,0.6,0.4,0.8l0.5,0.4L102.8,395.4z"/>
				</g>
			</g>
			<g>
				<g>
					<path d="M123.6,398.9v-2h-3c-0.5,0-1,0.4-1,1v3h-2v2h2v3.9h2v-3.9h2v-2h-2v-2H123.6z"/>
				</g>
			</g>
			<g>
				<g>
					<path d="M126.5,393h-11.8c-1.6,0-3,1.3-3,3v11.8c0,1.6,1.3,3,3,3h11.8c1.6,0,3-1.3,3-3v-11.8C129.5,394.3,128.1,393,126.5,393z
						 M127.5,407.7c0,0.5-0.4,1-1,1h-11.8c-0.5,0-1-0.4-1-1v-11.8c0-0.5,0.4-1,1-1h11.8c0.5,0,1,0.4,1,1V407.7z"/>
				</g>
			</g>
			<g>
				<g>
					<path d="M105.8,387H94c-1.6,0-3,1.3-3,3v11.8c0,1.6,1.3,3,3,3h11.8c1.6,0,3-1.3,3-3V390C108.8,388.4,107.5,387,105.8,387z
						 M106.8,401.8c0,0.5-0.4,1-1,1H94c-0.5,0-1-0.4-1-1V390c0-0.5,0.4-1,1-1h11.8c0.5,0,1,0.4,1,1V401.8z"/>
				</g>
			</g>
			<g>
				<g>
					<path d="M147.2,382.1h-11.8c-1.6,0-3,1.3-3,3v11.8c0,1.6,1.3,3,3,3h11.8c1.6,0,3-1.3,3-3v-11.8
						C150.1,383.5,148.8,382.1,147.2,382.1z M148.2,396.9c0,0.5-0.4,1-1,1h-11.8c-0.5,0-1-0.4-1-1V392h2.1c0.5,2.2,2.4,3.9,4.8,3.9
						c2.4,0,4.4-1.7,4.8-3.9h2.1V396.9z M138.3,391c0-1.6,1.3-3,3-3c1.6,0,3,1.3,3,3c0,1.6-1.3,3-3,3
						C139.6,393.9,138.3,392.6,138.3,391z M148.2,390h-2.1c-0.5-2.2-2.4-3.9-4.8-3.9c-2.4,0-4.4,1.7-4.8,3.9h-2.1v-4.9
						c0-0.5,0.4-1,1-1h11.8c0.5,0,1,0.4,1,1V390z"/>
				</g>
			</g>
			<g>
				<g>
					<rect x="119.6" y="422.5" width="2" height="2"/>
				</g>
			</g>
		</g>
	</g>
	<text transform="matrix(1 0 0 1 409.5034 486.4028)" class="st22 st14">Sixty One Steps</text>
</g>
</svg>
