<?xml version="1.0" encoding="utf-8"?>
<!-- Generator: Adobe Illustrator 22.0.0, SVG Export Plug-In . SVG Version: 6.00 Build 0)  -->
<svg version="1.1" xmlns="http://www.w3.org/2000/svg" xmlns:xlink="http://www.w3.org/1999/xlink" x="0px" y="0px"
	 viewBox="0 0 475 455" style="enable-background:new 0 0 475 455;" xml:space="preserve">
<style type="text/css">
	.st0{fill:#04659B;}
	.st1{opacity:0.1;fill:#FFFFFF;}
	.st2{fill:none;stroke:#FFFFFF;stroke-width:2;stroke-linecap:round;stroke-miterlimit:10;}
	.st3{fill:#FFFFFF;}
	.st4{fill:#FF931E;}
	.st5{fill:#B3B3B3;}
	.st6{fill:#F2F2F2;}
	.st7{fill:none;stroke:#05293D;stroke-width:1.5;stroke-linecap:round;stroke-miterlimit:10;}
	.st8{fill:#05293D;}
	.st9{fill:#FFA94B;}
	.st10{fill:none;stroke:#FFFFFF;stroke-miterlimit:10;}
	.st11{fill:#68A3C3;}
	.st12{font-family:'Roboto-Black';}
	.st13{font-size:18px;}
	.st14{opacity:0.2;fill:#0E384B;}
</style>
<g id="BACKGROUND">
	<rect class="st0" width="475" height="455"/>
</g>
<g id="OBJECTS">
	<g>
		<g>
			<circle class="st1" cx="235" cy="233" r="192.2"/>
			<circle class="st1" cx="235" cy="233" r="162.1"/>
			<circle class="st1" cx="235" cy="233" r="112.3"/>
			<g>
				<path class="st2" d="M359.9,240.8h-19.3c-7.1,0-13-5.9-13-13v-13.3c0-7.1-5.9-13-13-13h-19.3"/>
			</g>
			<g>
				<g>
					<path class="st3" d="M139.2,112.5c-3-6-9.3-10.2-16.5-10.2c-9.4,0-17.2,7.1-18.3,16.2h4.6c1.1-6.6,6.8-11.7,13.7-11.7
						c6,0,11.1,3.8,13,9.1l-2.6,2.6h3.2h4.6h0.8v-8.6L139.2,112.5z"/>
				</g>
				<g>
					<path class="st3" d="M122.7,134.6c-6,0-11.1-3.8-13-9.1l2.6-2.6H109h-4.6v0h-0.8v8.6l2.6-2.6c3,6,9.3,10.2,16.5,10.2
						c9.4,0,17.2-7.1,18.3-16.2h-4.6C135.4,129.5,129.6,134.6,122.7,134.6z"/>
				</g>
			</g>
			<g>
				<g>
					<path class="st3" d="M352.3,347.3c0,1.5-1.2,2.7-2.7,2.7c-1.5,0-2.7-1.2-2.7-2.7c0-1.5,1.2-2.7,2.7-2.7
						C351,344.6,352.3,345.8,352.3,347.3z"/>
				</g>
				<g>
					<path class="st3" d="M346.8,338.7c6.2,0,11.3,5.1,11.3,11.3h3.7c0-8.3-6.7-15-15-15V338.7z"/>
					<path class="st3" d="M346.8,329c11.6,0,21,9.4,21,21v0h4.2v0c0-13.9-11.3-25.2-25.2-25.2V329z"/>
					<path class="st3" d="M346.8,319.5c16.8,0,30.5,13.7,30.5,30.5v0h4.6v0c0-19.4-15.8-35.1-35.1-35.1V319.5z"/>
				</g>
			</g>
			<g>
				<path class="st3" d="M401.1,142.7c-0.7,0.3-1.4,0.6-2.2,0.8c0.7-0.6,1.4-1.4,2-2.1l-0.4-3c-1.5,2.2-3.3,4.1-5.6,5.4v-8.3
					c1.9,0.1,3.7,0.5,5.3,1.2l-0.3-2.3c-1.6-0.5-3.3-0.9-5.1-0.9v-5.8h9c-0.1,1.7-0.3,3.3-0.8,4.8l1.8,1.5c0.6-2,1-4.1,1.1-6.3h5.3
					c-0.2,3.3-1.3,6.4-3.1,9l1.6,1.3c2.3-3.2,3.6-7.1,3.6-11.3c0-5.1-1.9-9.7-5.1-13.2l0,0l-0.7-0.7c-3.2-3.2-7.3-5.1-11.7-5.6
					c0,0-0.1,0-0.1,0c-0.3,0-0.5,0-0.8-0.1c-0.1,0-0.1,0-0.2,0c-0.1,0-0.2,0-0.3,0c-0.4,0-0.9-0.1-1.4-0.1c-0.1,0-0.3,0-0.4,0.1
					c0,0,0,0-0.1,0c-0.3,0-0.5,0-0.8,0.1c0,0-0.1,0-0.1,0c-4.4,0.5-8.5,2.4-11.7,5.6l-0.7,0.7l0,0c-3.2,3.5-5.1,8.1-5.1,13.2
					c0,5.1,1.9,9.7,5.1,13.2l0,0l0.7,0.7c3.2,3.2,7.3,5.1,11.7,5.6c0,0,0.1,0,0.1,0c0.3,0,0.5,0,0.8,0.1c0,0,0,0,0.1,0
					c0.1,0,0.3,0.1,0.4,0.1c0,0,0,0,0,0c0.5,0,0.9,0,1.4-0.1c0.1,0,0.2,0,0.3,0c0.1,0,0.1,0,0.2,0c0.3,0,0.5,0,0.8-0.1
					c0,0,0.1,0,0.1,0c1.9-0.2,3.7-0.7,5.4-1.4L401.1,142.7z M411.5,125.6h-5.3c-0.1-3.1-0.8-6-2-8.6c1-0.6,2-1.3,2.9-2.1
					C409.6,117.8,411.2,121.5,411.5,125.6z M405.6,113.5c-0.7,0.6-1.5,1.2-2.3,1.7c-1.1-2-2.6-3.9-4.3-5.4
					C401.4,110.5,403.7,111.8,405.6,113.5z M395,109.5c2.6,1.6,4.8,4,6.4,6.7c-2,0.9-4.1,1.5-6.4,1.6V109.5z M395,119.8
					c2.5-0.1,5-0.8,7.3-1.8c1,2.3,1.6,4.9,1.7,7.6h-9V119.8z M388.9,109.8c-1.7,1.5-3.2,3.4-4.3,5.4c-0.8-0.5-1.6-1.1-2.3-1.7
					C384.2,111.8,386.5,110.5,388.9,109.8z M380.9,114.9c0.9,0.8,1.8,1.5,2.8,2.1c-1.2,2.6-1.9,5.6-2,8.6h-5.3
					C376.6,121.5,378.3,117.8,380.9,114.9z M376.4,127.6h5.3c0.1,3.1,0.8,6,2,8.6c-1,0.6-2,1.3-2.8,2.1
					C378.3,135.5,376.6,131.8,376.4,127.6z M382.3,139.8c0.7-0.6,1.5-1.2,2.3-1.7c1.1,2,2.6,3.9,4.3,5.4
					C386.5,142.8,384.2,141.5,382.3,139.8z M392.9,143.8c-2.7-1.6-4.8-4-6.4-6.7c2-0.9,4.1-1.5,6.4-1.6V143.8z M392.9,133.4
					c-2.5,0.1-5,0.8-7.3,1.8c-1-2.3-1.6-4.9-1.7-7.6h9V133.4z M392.9,125.6h-9c0.1-2.7,0.7-5.3,1.7-7.6c2.3,1.1,4.7,1.7,7.3,1.8
					V125.6z M392.9,117.8c-2.2-0.1-4.4-0.7-6.4-1.6c1.5-2.8,3.7-5.1,6.4-6.7V117.8z"/>
				<polygon class="st3" points="411.2,140.7 401.2,132.5 402.8,145.3 405.7,143.7 408.5,148.7 411,147.3 408.2,142.3 				"/>
			</g>
			<path class="st3" d="M119.7,377.2c-0.2,0-0.4,0-0.6,0c0.4-1.2,0.6-2.5,0.6-3.8c0-7.1-5.8-12.9-12.9-12.9c-6,0-11,4.1-12.5,9.6
				c-1.6-0.9-3.4-1.4-5.3-1.4c-6,0-10.9,4.9-10.9,10.9c0,0.3,0,0.7,0.1,1c0,0,0,0-0.1,0c-5.1,0-9.2,4.1-9.2,9.2
				c0,5.1,4.1,9.2,9.2,9.2c2.4,0,10.6,0,19.2,0v-10H93l7.7-12.1l7.8,12.1h-4.3v10c7,0,13.2,0,15.6,0c6,0,10.9-4.9,10.9-10.9
				C130.6,382,125.7,377.2,119.7,377.2z"/>
			<g>
				<g>
					<g>
						
							<ellipse transform="matrix(0.1585 -0.9874 0.9874 0.1585 178.9248 341.6287)" class="st4" cx="289.9" cy="65.8" rx="34.6" ry="34.6"/>
						<path class="st3" d="M289.9,102.3c-20.1,0-36.5-16.4-36.5-36.5c0-20.1,16.4-36.5,36.5-36.5c20.1,0,36.5,16.4,36.5,36.5
							C326.3,86,310,102.3,289.9,102.3z M289.9,33.1c-18.1,0-32.8,14.7-32.8,32.8c0,18.1,14.7,32.8,32.8,32.8
							c18.1,0,32.8-14.7,32.8-32.8C322.6,47.8,307.9,33.1,289.9,33.1z"/>
					</g>
				</g>
				<g>
					<g>
						<path class="st4" d="M315.9,65.8c0,14.4-11.7,26-26,26c-14.4,0-26-11.7-26-26c0-14.4,11.7-26,26-26
							C304.3,39.8,315.9,51.5,315.9,65.8z"/>
						<path class="st3" d="M289.9,93.7c-15.4,0-27.9-12.5-27.9-27.9c0-15.4,12.5-27.9,27.9-27.9c15.4,0,27.9,12.5,27.9,27.9
							C317.8,81.2,305.3,93.7,289.9,93.7z M289.9,41.7c-13.3,0-24.2,10.9-24.2,24.2c0,13.3,10.9,24.2,24.2,24.2
							c13.3,0,24.2-10.9,24.2-24.2C314.1,52.5,303.2,41.7,289.9,41.7z"/>
					</g>
				</g>
				<g>
					<g>
						<path class="st4" d="M305.8,65.8c0,8.8-7.1,15.9-15.9,15.9c-8.8,0-15.9-7.1-15.9-15.9c0-8.8,7.1-15.9,15.9-15.9
							C298.7,49.9,305.8,57,305.8,65.8z"/>
						<path class="st3" d="M289.9,83.6c-9.8,0-17.8-8-17.8-17.8c0-9.8,8-17.8,17.8-17.8c9.8,0,17.8,8,17.8,17.8
							C307.7,75.7,299.7,83.6,289.9,83.6z M289.9,51.8c-7.8,0-14.1,6.3-14.1,14.1c0,7.8,6.3,14.1,14.1,14.1
							c7.8,0,14.1-6.3,14.1-14.1C304,58.1,297.6,51.8,289.9,51.8z"/>
					</g>
				</g>
			</g>
			<path class="st5" d="M323,81.2l-32.7-15.8c-0.4-0.2-0.8,0-1,0.3c-0.2,0.4,0,0.8,0.3,1l32.7,15.8C322.5,82.1,322.8,81.6,323,81.2z
				"/>
			<g>
				<polygon class="st6" points="321.6,51.4 317.7,58.3 331,54.7 335,47.8 				"/>
				<polygon class="st5" points="324.6,62.2 317.7,58.3 331,54.7 337.9,58.6 				"/>
				<line class="st7" x1="289.9" y1="65.9" x2="333.1" y2="54.1"/>
			</g>
			<polygon class="st3" points="352,133 350.4,130.1 348.8,133 345.8,134.6 348.8,136.3 350.4,139.2 352,136.3 354.9,134.6 			"/>
			<polygon class="st3" points="147.2,210.2 145.5,207.2 143.9,210.2 141,211.8 143.9,213.4 145.5,216.3 147.2,213.4 150.1,211.8 
							"/>
			<polygon class="st3" points="225.8,412.7 224.2,409.7 222.6,412.7 219.6,414.3 222.6,415.9 224.2,418.8 225.8,415.9 228.8,414.3 
							"/>
			<polygon class="st3" points="247.3,326.7 245.6,323.7 244,326.7 241.1,328.3 244,329.9 245.6,332.9 247.3,329.9 250.2,328.3 			
				"/>
			<polygon class="st3" points="198.2,321.3 196.6,318.4 195,321.3 192.1,322.9 195,324.5 196.6,327.5 198.2,324.5 201.2,322.9 			
				"/>
			<polygon class="st3" points="253.1,137.5 251.5,134.6 249.9,137.5 247,139.1 249.9,140.7 251.5,143.7 253.1,140.7 256.1,139.1 
							"/>
			<polygon class="st3" points="324.6,246.8 323,243.8 321.3,246.8 318.4,248.4 321.3,250 323,252.9 324.6,250 327.5,248.4 			"/>
			<polygon class="st3" points="322.1,121.3 320.5,118.4 318.9,121.3 315.9,122.9 318.9,124.6 320.5,127.5 322.1,124.6 325,122.9 
							"/>
			<polygon class="st3" points="458.2,207.3 456.6,204.4 455,207.3 452,208.9 455,210.5 456.6,213.5 458.2,210.5 461.1,208.9 			"/>
			<polygon class="st3" points="317.5,348.4 315.9,345.5 314.3,348.4 311.4,350 314.3,351.6 315.9,354.6 317.5,351.6 320.5,350 			
				"/>
			<polygon class="st3" points="68.9,178.6 67.3,175.6 65.7,178.6 62.7,180.2 65.7,181.8 67.3,184.7 68.9,181.8 71.9,180.2 			"/>
			<polygon class="st3" points="339.5,90.3 337.9,87.3 336.3,90.3 333.4,91.9 336.3,93.5 337.9,96.5 339.5,93.5 342.5,91.9 			"/>
			<polygon class="st3" points="236.6,53 235,50.1 233.4,53 230.4,54.7 233.4,56.3 235,59.2 236.6,56.3 239.6,54.7 			"/>
			<polygon class="st3" points="124.7,53 123.1,50.1 121.5,53 118.6,54.7 121.5,56.3 123.1,59.2 124.7,56.3 127.7,54.7 			"/>
			<polygon class="st3" points="27.4,203.9 25.7,200.9 24.1,203.9 21.2,205.5 24.1,207.1 25.7,210.1 27.4,207.1 30.3,205.5 			"/>
			<polygon class="st3" points="44.5,348.4 42.8,345.5 41.2,348.4 38.3,350 41.2,351.6 42.8,354.6 44.5,351.6 47.4,350 			"/>
			<polygon class="st3" points="371.8,405.9 370.2,403 368.6,405.9 365.7,407.6 368.6,409.2 370.2,412.1 371.8,409.2 374.8,407.6 
							"/>
			<polygon class="st3" points="451,251.4 449.4,248.4 447.8,251.4 444.8,253 447.8,254.6 449.4,257.5 451,254.6 453.9,253 			"/>
			<polygon class="st3" points="152.3,423.5 150.7,420.6 149,423.5 146.1,425.2 149,426.8 150.7,429.7 152.3,426.8 155.2,425.2 			
				"/>
			<polygon class="st3" points="136.8,154.3 135.2,151.4 133.6,154.3 130.6,155.9 133.6,157.5 135.2,160.5 136.8,157.5 139.7,155.9 
							"/>
			<polygon class="st4" points="54.3,232.3 52.7,229.3 51.1,232.3 48.1,233.9 51.1,235.5 52.7,238.4 54.3,235.5 57.3,233.9 			"/>
			<polygon class="st4" points="238.2,378.1 236.6,375.1 235,378.1 232.1,379.7 235,381.3 236.6,384.2 238.2,381.3 241.2,379.7 			
				"/>
			<polygon class="st4" points="356.9,204.5 355.3,201.5 353.7,204.5 350.8,206.1 353.7,207.7 355.3,210.6 356.9,207.7 359.9,206.1 
							"/>
			<polygon class="st8" points="136.8,326.7 135.2,323.7 133.6,326.7 130.6,328.3 133.6,329.9 135.2,332.9 136.8,329.9 139.7,328.3 
							"/>
			<polygon class="st8" points="147.2,79.2 145.5,76.3 143.9,79.2 141,80.8 143.9,82.4 145.5,85.4 147.2,82.4 150.1,80.8 			"/>
			<polygon class="st8" points="407.8,199.9 406.2,196.9 404.6,199.9 401.6,201.5 404.6,203.1 406.2,206.1 407.8,203.1 410.7,201.5 
							"/>
			<polygon class="st8" points="290.8,363 289.2,360 287.6,363 284.6,364.6 287.6,366.2 289.2,369.1 290.8,366.2 293.7,364.6 			"/>
			<polygon class="st4" points="195.4,94.8 193.8,91.9 192.2,94.8 189.2,96.5 192.2,98.1 193.8,101 195.4,98.1 198.3,96.5 			"/>
			<polygon class="st4" points="383.5,84.7 381.9,81.7 380.3,84.7 377.4,86.3 380.3,87.9 381.9,90.8 383.5,87.9 386.5,86.3 			"/>
			<g>
				<path class="st2" d="M270.5,297.3V322c0,7.1,5.9,13,13,13h55.2"/>
			</g>
			<g>
				<path class="st2" d="M192.1,172v-38.3c0-7.1-5.9-13-13-13h-28.4"/>
			</g>
			<g>
				<line class="st2" x1="286.5" y1="172.2" x2="286.5" y2="110.4"/>
			</g>
			<g>
				<path class="st2" d="M287.5,189.3h93.5c7.1,0,13-5.9,13-13v-20.4"/>
			</g>
			<g>
				<path class="st2" d="M95.2,350v-51c0-7.1,5.8-13,13-13h42.5"/>
			</g>
			<g>
				<g>
					<line class="st4" x1="69" y1="214" x2="81.5" y2="201.4"/>
					<path class="st8" d="M67.3,215.6c-0.9-0.9-0.9-2.4,0-3.3l12.5-12.5c0.9-0.9,2.4-0.9,3.3,0c0.9,0.9,0.9,2.4,0,3.3l-12.5,12.5
						C69.7,216.6,68.2,216.6,67.3,215.6z"/>
				</g>
				<g>
					<line class="st4" x1="82.7" y1="200.2" x2="95.3" y2="187.7"/>
					<path class="st8" d="M81.7,201.2c-0.6-0.6-0.6-1.5,0-2l12.5-12.5c0.6-0.6,1.5-0.6,2,0c0.6,0.6,0.6,1.5,0,2l-12.5,12.5
						C83.2,201.8,82.3,201.8,81.7,201.2z"/>
				</g>
				<g>
					<path class="st9" d="M116.1,190.6c-6.6,6.6-17.2,6.6-23.8,0c-6.6-6.6-6.6-17.2,0-23.8c6.6-6.6,17.2-6.6,23.8,0
						C122.7,173.4,122.7,184.1,116.1,190.6z"/>
					<path class="st4" d="M92.3,190.6c6.6,6.6,17.2,6.6,23.8,0c3.3-3.3,4.9-7.6,4.9-11.9l-33.6,0C87.4,183,89,187.3,92.3,190.6z"/>
					<path class="st8" d="M91,192c-7.3-7.3-7.3-19.2,0-26.5c7.3-7.3,19.2-7.3,26.5,0c7.3,7.3,7.3,19.2,0,26.5
						C110.1,199.3,98.3,199.3,91,192z M114.8,168.2c-5.8-5.8-15.3-5.8-21.1,0c-5.8,5.8-5.8,15.3,0,21.1c5.8,5.8,15.3,5.8,21.1,0
						C120.6,183.5,120.6,174,114.8,168.2z"/>
				</g>
				<g>
					<g>
						<path class="st3" d="M94.3,170.8c-0.6-0.6-0.6-1.4,0-2c5.5-5.5,14.3-5.5,19.8,0c0.6,0.6,0.6,1.5,0,2c-0.6,0.6-1.5,0.6-2,0
							c-4.3-4.3-11.4-4.3-15.8,0C95.8,171.4,94.9,171.4,94.3,170.8z M115.6,181.6c-0.3-0.3-0.5-0.7-0.4-1.2c0.3-2.1,0-4.2-0.8-6.1
							c-0.3-0.7,0-1.6,0.7-1.9c0.7-0.3,1.6,0,1.9,0.7c1.1,2.4,1.4,5.1,1,7.7c-0.1,0.8-0.8,1.3-1.6,1.2
							C116.1,181.9,115.8,181.8,115.6,181.6z"/>
					</g>
				</g>
			</g>
			<g>
				<path class="st3" d="M404.4,229.7h-32.3c-1.3,0-2.3,1-2.3,2.3v18.4c0,1.3,1,2.3,2.3,2.3h22.3l5.3,5.3v-5.3h4.7
					c1.3,0,2.3-1,2.3-2.3v-18.4C406.7,230.7,405.6,229.7,404.4,229.7z"/>
				<g>
					<path class="st8" d="M384.1,242c0,0.7-0.6,1.3-1.3,1.3c-0.7,0-1.3-0.6-1.3-1.3c0-0.7,0.6-1.3,1.3-1.3
						C383.5,240.6,384.1,241.2,384.1,242z"/>
					<path class="st8" d="M389.5,242c0,0.7-0.6,1.3-1.3,1.3c-0.7,0-1.3-0.6-1.3-1.3c0-0.7,0.6-1.3,1.3-1.3
						C388.9,240.6,389.5,241.2,389.5,242z"/>
					<path class="st8" d="M394.9,242c0,0.7-0.6,1.3-1.3,1.3c-0.7,0-1.3-0.6-1.3-1.3c0-0.7,0.6-1.3,1.3-1.3
						C394.4,240.6,394.9,241.2,394.9,242z"/>
				</g>
			</g>
			<g>
				<path class="st2" d="M103.6,206.1c0,0,0,5.7,0,12.6c0,6.9,5.9,12.6,13,12.6h80.9"/>
			</g>
			<g>
				<g>
					<path class="st3" d="M200.5,394.4v-8h-3.7c-0.3-1.2-0.8-2.4-1.4-3.5l2.6-2.6l-5.7-5.7l-2.6,2.6c-1.1-0.6-2.3-1.1-3.5-1.4v-3.7
						h-8v3.7c-1.2,0.3-2.4,0.8-3.5,1.4l-2.6-2.6l-5.7,5.7l2.6,2.6c-0.6,1.1-1.1,2.3-1.4,3.5H164v8h3.7c0.3,1.2,0.8,2.4,1.4,3.5
						l-2.6,2.6l5.7,5.7l2.6-2.6c1.1,0.6,2.3,1.1,3.5,1.4v3.7h8V405c1.2-0.3,2.4-0.8,3.5-1.4l2.6,2.6l5.7-5.7l-2.6-2.6
						c0.6-1.1,1.1-2.3,1.4-3.5H200.5z M182.2,397.5c-3.9,0-7.1-3.2-7.1-7.1c0-3.9,3.2-7.1,7.1-7.1c3.9,0,7.1,3.2,7.1,7.1
						C189.4,394.3,186.2,397.5,182.2,397.5z"/>
				</g>
				<g>
					<path class="st3" d="M169.1,374.2v-2.4c0.8-0.2,1.6-0.5,2.3-0.9l1.7,1.7l3.7-3.7l-1.7-1.7c0.4-0.7,0.7-1.5,0.9-2.3h2.4v-5.2
						h-2.4c-0.2-0.8-0.5-1.6-0.9-2.3l1.7-1.7l-3.7-3.7l-1.7,1.7c-0.7-0.4-1.5-0.7-2.3-0.9v-2.4h-5.2v2.4c-0.8,0.2-1.6,0.5-2.3,0.9
						l-1.7-1.7l-3.7,3.7l1.7,1.7c-0.4,0.7-0.7,1.5-0.9,2.3h-2.4v5.2h2.4c0.2,0.8,0.5,1.6,0.9,2.3l-1.7,1.7l3.7,3.7l1.7-1.7
						c0.7,0.4,1.5,0.7,2.3,0.9v2.4H169.1z M161.8,362.3c0-2.6,2.1-4.7,4.7-4.7c2.6,0,4.7,2.1,4.7,4.7c0,2.6-2.1,4.7-4.7,4.7
						C163.9,366.9,161.8,364.8,161.8,362.3z"/>
				</g>
			</g>
			<g>
				<path class="st2" d="M191.1,359.3h15.5c7.1,0,13-5.9,13-13v-48.9"/>
			</g>
			<g>
				<g>
					<g>
						<path class="st3" d="M437.2,283.8V283c0-0.3-0.2-0.5-0.5-0.5h-4c-0.3,0-0.5,0.2-0.5,0.5v0.8H437.2z"/>
					</g>
					<g>
						<polygon class="st3" points="430.3,283.8 426.8,279.2 415.5,279.2 412.1,283.8 						"/>
					</g>
				</g>
				<path class="st3" d="M403.9,284.9v21.9h34.6v-21.9H403.9z M411.1,287.9c0,0.3-0.2,0.5-0.5,0.5h-4.8c-0.3,0-0.5-0.2-0.5-0.5v-1
					c0-0.3,0.2-0.5,0.5-0.5h4.8c0.3,0,0.5,0.2,0.5,0.5V287.9z M421.2,304.9c-5,0-9.1-4.1-9.1-9.1c0-5,4.1-9.1,9.1-9.1
					c5,0,9.1,4.1,9.1,9.1C430.3,300.8,426.2,304.9,421.2,304.9z"/>
				<path class="st3" d="M421.2,289.1c-3.7,0-6.7,3-6.7,6.7c0,3.7,3,6.7,6.7,6.7c3.7,0,6.7-3,6.7-6.7
					C427.9,292.1,424.9,289.1,421.2,289.1z M425.7,296.4c-0.3,0-0.6-0.3-0.6-0.6c0-2.2-1.8-3.9-3.9-3.9c-0.3,0-0.6-0.3-0.6-0.6
					c0-0.3,0.3-0.6,0.6-0.6c2.8,0,5.1,2.3,5.1,5.1C426.3,296.1,426,296.4,425.7,296.4z"/>
			</g>
			<g>
				<polygon class="st3" points="258.9,402.3 266,424.4 306,424.4 298.9,402.3 				"/>
				<g>
					<polygon class="st3" points="298.9,400.9 299.8,400.9 300.1,401.9 306,420.1 306,397.9 274.4,397.9 272.7,395 266,395 
						266,400.9 					"/>
				</g>
			</g>
			<g>
				<path class="st3" d="M229.2,92.1c2.2,0,4-1.8,4-4c0-2.2-1.8-4-4-4c-2.2,0-4,1.8-4,4C225.2,90.3,227,92.1,229.2,92.1z"/>
				<path class="st3" d="M239.2,96.3c-0.5-3.3-4.8-3.1-4.8-3.1h-10.5c0,0-4.6-0.2-4.8,3.5c0,0.1,0,0.1,0,0.2v12.4
					c0,1,0.8,1.8,1.8,1.8c1,0,1.8-0.8,1.8-1.8V98h1.7v30.1c0,1,0.8,1.8,1.8,1.8c1,0,1.8-0.8,1.8-1.8v-17.2h2.4v17.2
					c0,1,0.8,1.8,1.8,1.8c1,0,1.8-0.8,1.8-1.8V98h1.7v11.3c0,1,0.8,1.8,1.8,1.8c1,0,1.8-0.8,1.8-1.8V96.9
					C239.3,96.7,239.2,96.5,239.2,96.3z"/>
			</g>
			<g>
				<path class="st4" d="M65.9,293.4l5.8-7.5c-3.6-3.3-8.2-5.4-13.4-5.6v9.4C61.3,290,64,291.4,65.9,293.4z"/>
				<path class="st8" d="M78.6,301.1c-0.1-5.2-2.1-9.9-5.3-13.6l-5.9,7.7c1.2,1.9,1.9,4.1,1.9,6.4c0,0.3,0,0.7-0.1,1L78.6,301.1z"/>
				<path class="st3" d="M68.7,304.9c-1.4,5-6,8.6-11.5,8.6c-6.6,0-11.9-5.3-11.9-11.9c0-6.2,4.8-11.3,10.8-11.9v-9.4
					c-11.3,0.6-20.3,9.9-20.3,21.3c0,11.8,9.5,21.3,21.3,21.3c11.2,0,20.4-8.7,21.2-19.7L68.7,304.9z"/>
			</g>
			<g>
				<path class="st2" d="M59.4,270.7c0,0,0-4.7,0-10.4s5.9-10.4,13-10.4h109.1"/>
			</g>
			<g>
				<polyline class="st10" points="336.4,386.7 349.5,374.1 364.4,388.6 377.6,374.1 387.9,385.1 412.1,360 				"/>
				<path class="st4" d="M339.2,387.4c0,1.6-1.3,2.8-2.8,2.8c-1.6,0-2.8-1.3-2.8-2.8c0-1.6,1.3-2.8,2.8-2.8
					C337.9,384.6,339.2,385.8,339.2,387.4z"/>
				<path class="st4" d="M352.4,374.3c0,1.6-1.3,2.8-2.8,2.8c-1.6,0-2.8-1.3-2.8-2.8c0-1.6,1.3-2.8,2.8-2.8
					C351.1,371.5,352.4,372.7,352.4,374.3z"/>
				<path class="st4" d="M367.2,388.6c0,1.6-1.3,2.8-2.8,2.8c-1.6,0-2.8-1.3-2.8-2.8c0-1.6,1.3-2.8,2.8-2.8
					C365.9,385.7,367.2,387,367.2,388.6z"/>
				<path class="st4" d="M380.6,374.3c0,1.6-1.3,2.8-2.8,2.8c-1.6,0-2.8-1.3-2.8-2.8c0-1.6,1.3-2.8,2.8-2.8
					C379.3,371.5,380.6,372.7,380.6,374.3z"/>
				<path class="st4" d="M390.7,384.6c0,1.6-1.3,2.8-2.8,2.8c-1.6,0-2.8-1.3-2.8-2.8c0-1.6,1.3-2.8,2.8-2.8
					C389.5,381.7,390.7,383,390.7,384.6z"/>
				<path class="st4" d="M414.9,360c0,1.6-1.3,2.8-2.8,2.8c-1.6,0-2.8-1.3-2.8-2.8c0-1.6,1.3-2.8,2.8-2.8
					C413.6,357.2,414.9,358.5,414.9,360z"/>
			</g>
			<polygon class="st4" points="342.6,161.8 332.7,146.4 323,161.8 328.5,161.8 328.5,174.5 337.1,174.5 337.1,161.8 			"/>
			<g>
				<polygon class="st3" points="40.3,108.3 64.4,120.5 85.2,87.5 				"/>
				<polygon class="st0" points="85.2,87.5 49.6,113 49.6,126.5 55.7,116.1 				"/>
				<polygon class="st11" points="85.2,87.5 49.6,113 49.6,126.5 55.7,116.1 				"/>
			</g>
			<g>
				<path class="st3" d="M214.9,65.3c0,1.3-1.1,2.4-2.4,2.4h-31.8c-1.3,0-2.4-1.1-2.4-2.4V33.5c0-1.3,1.1-2.4,2.4-2.4h31.8
					c1.3,0,2.4,1.1,2.4,2.4V65.3z"/>
				<path class="st8" d="M178.3,33.5v7.1h36.6v-7.1c0-1.3-1.1-2.4-2.4-2.4h-31.8C179.3,31.1,178.3,32.2,178.3,33.5z"/>
				<g>
					<path class="st0" d="M187.2,35.8c0,1.1-0.9,2.1-2.1,2.1c-1.1,0-2-0.9-2-2.1c0-1.1,0.9-2,2-2C186.2,33.8,187.2,34.7,187.2,35.8z
						"/>
					<path class="st0" d="M210.1,35.8c0,1.1-0.9,2.1-2.1,2.1c-1.1,0-2-0.9-2-2.1c0-1.1,0.9-2,2-2C209.2,33.8,210.1,34.7,210.1,35.8z
						"/>
				</g>
				<g>
					<g>
						<path class="st4" d="M185.1,37c-0.7,0-1.2-0.5-1.2-1.2V29c0-0.7,0.5-1.2,1.2-1.2c0.7,0,1.2,0.5,1.2,1.2v6.8
							C186.3,36.5,185.8,37,185.1,37z"/>
					</g>
					<g>
						<path class="st4" d="M208.1,37c-0.7,0-1.2-0.5-1.2-1.2V29c0-0.7,0.5-1.2,1.2-1.2c0.7,0,1.2,0.5,1.2,1.2v6.8
							C209.3,36.5,208.7,37,208.1,37z"/>
					</g>
				</g>
				<g>
					<path class="st0" d="M197.4,51.5c0,0.8-0.6,1.4-1.3,1.5v0c0.8,0.1,1.3,0.7,1.3,1.5v3.9c0,2-1.1,3-3,3H192c-1.9,0-2.9-1-2.9-2.9
						v-0.7c0-0.3,0.1-0.4,0.4-0.4h2c0.3,0,0.4,0.1,0.4,0.4v0.9h2.4c0.3,0,0.4-0.1,0.4-0.4v-3c0-0.5-0.3-0.8-0.8-0.8h-2.5
						c-0.3,0-0.4-0.1-0.4-0.4V52c0-0.3,0.1-0.4,0.4-0.4h2.5c0.5,0,0.8-0.3,0.8-0.8v-3c0-0.3-0.1-0.4-0.4-0.4h-2.4v0.9
						c0,0.3-0.1,0.4-0.4,0.4h-2c-0.3,0-0.4-0.1-0.4-0.4v-0.9c0-1.8,1-2.8,2.9-2.8h2.4c2,0,3,1.1,3,3V51.5z"/>
					<path class="st0" d="M203.8,44.6c0.2,0,0.3,0.1,0.3,0.3v16.1c0,0.2-0.1,0.3-0.3,0.3h-2.2c-0.2,0-0.3-0.1-0.3-0.3V47.8l-1.3,0.2
						c-0.3,0-0.4-0.1-0.4-0.4v-2c0-0.3,0.1-0.4,0.4-0.4L203.8,44.6z"/>
				</g>
			</g>
			<path class="st3" d="M155.2,120.5c0,2.5-2,4.6-4.6,4.6c-2.5,0-4.6-2-4.6-4.6c0-2.5,2-4.6,4.6-4.6
				C153.2,115.9,155.2,118,155.2,120.5z"/>
			<path class="st3" d="M291.1,111.5c0,2.5-2,4.6-4.6,4.6c-2.5,0-4.6-2-4.6-4.6c0-2.5,2-4.6,4.6-4.6
				C289.1,107,291.1,109,291.1,111.5z"/>
			<path class="st3" d="M398.5,155.9c0,2.5-2,4.6-4.6,4.6c-2.5,0-4.6-2-4.6-4.6c0-2.5,2-4.6,4.6-4.6
				C396.5,151.4,398.5,153.4,398.5,155.9z"/>
			<path class="st3" d="M364.4,240.8c0,2.5-2,4.6-4.6,4.6c-2.5,0-4.6-2-4.6-4.6s2-4.6,4.6-4.6C362.4,236.2,364.4,238.3,364.4,240.8z
				"/>
			<path class="st3" d="M343.8,335c0,2.5-2,4.6-4.6,4.6c-2.5,0-4.6-2-4.6-4.6s2-4.6,4.6-4.6C341.7,330.4,343.8,332.5,343.8,335z"/>
			<path class="st3" d="M196.6,359.3c0,2.5-2,4.6-4.6,4.6c-2.5,0-4.6-2-4.6-4.6s2-4.6,4.6-4.6C194.6,354.7,196.6,356.7,196.6,359.3z
				"/>
			<path class="st3" d="M99.8,350c0,2.5-2,4.6-4.6,4.6c-2.5,0-4.6-2-4.6-4.6c0-2.5,2-4.6,4.6-4.6C97.7,345.5,99.8,347.5,99.8,350z"
				/>
			<path class="st3" d="M64,270.7c0,2.5-2,4.6-4.6,4.6c-2.5,0-4.6-2-4.6-4.6c0-2.5,2-4.6,4.6-4.6C61.9,266.1,64,268.1,64,270.7z"/>
			<path class="st3" d="M108.2,206.1c0,2.5-2,4.6-4.6,4.6c-2.5,0-4.6-2-4.6-4.6c0-2.5,2-4.6,4.6-4.6
				C106.1,201.5,108.2,203.6,108.2,206.1z"/>
			<path class="st2" d="M397.1,297.3h-27.6c-7.2,0-13-5.8-13-13v-4.7c0-7.2-5.8-13-13-13h-44.4"/>
			<g>
				<polygon class="st4" points="306.5,242.2 163.5,242.2 142.4,302.8 327.6,302.8 				"/>
				<rect x="142.4" y="302.8" class="st8" width="185.3" height="5.3"/>
				<g>
					<polygon class="st0" points="278.5,251.3 287.5,251.3 286.7,248.4 277.9,248.4 					"/>
					<polygon class="st0" points="289.2,251.3 298.1,251.3 297.2,248.4 288.5,248.4 					"/>
					<polygon class="st0" points="257.2,251.3 266.2,251.3 265.7,248.4 256.9,248.4 					"/>
					<polygon class="st0" points="267.8,251.3 276.8,251.3 276.2,248.4 267.4,248.4 					"/>
					<polygon class="st0" points="292.7,272.3 282.7,272.3 284.3,280.3 294.7,280.3 					"/>
					<polygon class="st0" points="289.6,253 291.6,261 301,261 298.6,253 					"/>
					<polygon class="st0" points="297.1,290 295.1,282 284.6,282 286.2,290 					"/>
					<polygon class="st0" points="309.7,290 307.3,282 296.8,282 298.8,290 					"/>
					<polygon class="st0" points="177.7,270.7 187.6,270.7 189.2,262.7 179.7,262.7 					"/>
					<polygon class="st0" points="180.1,261 189.6,261 191.1,253 182.1,253 					"/>
					<polygon class="st0" points="246.5,251.3 255.5,251.3 255.2,248.4 246.4,248.4 					"/>
					<polygon class="st0" points="166.1,270.7 176,270.7 178,262.7 168.5,262.7 					"/>
					<polygon class="st0" points="189.3,270.7 199.3,270.7 200.5,262.7 190.9,262.7 					"/>
					<polygon class="st0" points="163.2,280.3 173.6,280.3 175.6,272.3 165.6,272.3 					"/>
					<polygon class="st0" points="201,270.7 210.9,270.7 211.7,262.7 202.2,262.7 					"/>
					<polygon class="st0" points="235.8,251.3 244.8,251.3 244.7,248.4 235.8,248.4 					"/>
					<polygon class="st0" points="191.3,261 200.7,261 201.9,253 192.9,253 					"/>
					<polygon class="st0" points="212.7,253 203.6,253 202.4,261 211.9,261 					"/>
					<polygon class="st0" points="235.8,253 235.8,261 245.3,261 244.9,253 					"/>
					<polygon class="st0" points="280.8,262.7 282.4,270.7 292.3,270.7 290.3,262.7 					"/>
					<polygon class="st0" points="256.5,261 255.7,253 246.6,253 247,261 					"/>
					<polygon class="st0" points="257.4,270.7 256.6,262.7 247.1,262.7 247.5,270.7 					"/>
					<polygon class="st0" points="292,262.7 294,270.7 303.9,270.7 301.5,262.7 					"/>
					<polygon class="st0" points="296.4,280.3 306.8,280.3 304.4,272.3 294.4,272.3 					"/>
					<polygon class="st0" points="235.8,290 246.8,290 246.4,282 235.8,282 					"/>
					<polygon class="st0" points="284.5,290 282.9,282 272.4,282 273.6,290 					"/>
					<polygon class="st0" points="235.8,280.3 246.3,280.3 245.9,272.3 235.8,272.3 					"/>
					<polygon class="st0" points="235.8,270.7 245.8,270.7 245.4,262.7 235.8,262.7 					"/>
					<polygon class="st0" points="271.9,290 270.7,282 260.2,282 261,290 					"/>
					<polygon class="st0" points="270.5,280.3 269.3,272.3 259.3,272.3 260.1,280.3 					"/>
					<polygon class="st0" points="282.6,280.3 281,272.3 271,272.3 272.2,280.3 					"/>
					<polygon class="st0" points="278.9,253 280.4,261 289.9,261 287.9,253 					"/>
					<polygon class="st0" points="259.3,290 258.5,282 248,282 248.4,290 					"/>
					<polygon class="st0" points="270.7,270.7 280.7,270.7 279.1,262.7 269.5,262.7 					"/>
					<polygon class="st0" points="258.4,280.3 257.6,272.3 247.6,272.3 248,280.3 					"/>
					<polygon class="st0" points="258.3,262.7 259.1,270.7 269,270.7 267.9,262.7 					"/>
					<polygon class="st0" points="257.3,253 258.1,261 267.6,261 266.4,253 					"/>
					<polygon class="st0" points="268.1,253 269.3,261 278.7,261 277.1,253 					"/>
					<polygon class="st0" points="171.9,251.3 180.8,251.3 181.5,248.4 172.8,248.4 					"/>
					<polygon class="st0" points="178.4,261 180.4,253 171.4,253 169,261 					"/>
					<polygon class="st0" points="209.8,282 199.3,282 198.1,290 209,290 					"/>
					<polygon class="st0" points="210.7,272.3 200.7,272.3 199.5,280.3 209.9,280.3 					"/>
					<polygon class="st0" points="222,282 211.4,282 210.7,290 221.6,290 					"/>
					<polygon class="st0" points="199,272.3 189,272.3 187.4,280.3 197.8,280.3 					"/>
					<polygon class="st0" points="222.4,272.3 212.4,272.3 211.6,280.3 222,280.3 					"/>
					<polygon class="st0" points="185.4,282 174.9,282 172.9,290 183.8,290 					"/>
					<polygon class="st0" points="182.5,251.3 191.5,251.3 192.1,248.4 183.3,248.4 					"/>
					<polygon class="st0" points="197.6,282 187.1,282 185.5,290 196.4,290 					"/>
					<polygon class="st0" points="171.2,290 173.2,282 162.7,282 160.3,290 					"/>
					<polygon class="st0" points="187.3,272.3 177.3,272.3 175.3,280.3 185.7,280.3 					"/>
					<polygon class="st0" points="222.9,262.7 213.4,262.7 212.6,270.7 222.5,270.7 					"/>
					<polygon class="st0" points="214.5,251.3 223.5,251.3 223.6,248.4 214.8,248.4 					"/>
					<polygon class="st0" points="203.8,251.3 212.8,251.3 213.1,248.4 204.3,248.4 					"/>
					<polygon class="st0" points="193.2,251.3 202.2,251.3 202.6,248.4 193.8,248.4 					"/>
					<polygon class="st0" points="234.2,248.4 225.3,248.4 225.2,251.3 234.2,251.3 					"/>
					<polygon class="st0" points="234.2,282 223.6,282 223.2,290 234.2,290 					"/>
					<polygon class="st0" points="223.4,253 214.3,253 213.5,261 223,261 					"/>
					<polygon class="st0" points="234.2,253 225.1,253 224.7,261 234.2,261 					"/>
					<polygon class="st0" points="234.2,272.3 224.1,272.3 223.7,280.3 234.2,280.3 					"/>
					<polygon class="st0" points="234.2,262.7 224.6,262.7 224.2,270.7 234.2,270.7 					"/>
				</g>
				<rect x="163.5" y="157.9" class="st8" width="143.3" height="84.3"/>
				<rect x="171.2" y="165.1" class="st0" width="127.8" height="72.7"/>
				<path class="st0" d="M236.6,162c0,0.8-0.7,1.5-1.5,1.5c-0.8,0-1.5-0.7-1.5-1.5c0-0.8,0.7-1.5,1.5-1.5
					C236,160.5,236.6,161.1,236.6,162z"/>
			</g>
			<path class="st3" d="M400.2,297.3c0,2.5-2,4.6-4.6,4.6c-2.5,0-4.6-2-4.6-4.6c0-2.5,2-4.6,4.6-4.6
				C398.1,292.8,400.2,294.8,400.2,297.3z"/>
		</g>
		<text transform="matrix(1 0 0 1 208.9346 187.1424)"><tspan x="0" y="0" class="st3 st12 st13">MSME</tspan><tspan x="0.2" y="21.6" class="st3 st12 st13">Digital</tspan><tspan x="-37" y="43.2" class="st3 st12 st13">Transformation</tspan></text>
		<polygon class="st14" points="299.1,165.1 171.2,237.8 299.1,237.8 		"/>
	</g>
</g>
</svg>
