<?xml version="1.0" encoding="utf-8"?>
<!-- Generator: Adobe Illustrator 22.0.0, SVG Export Plug-In . SVG Version: 6.00 Build 0)  -->
<svg version="1.1" id="Layer_1" xmlns:x="&ns_extend;" xmlns:i="&ns_ai;" xmlns:graph="&ns_graphs;"
	 xmlns="http://www.w3.org/2000/svg" xmlns:xlink="http://www.w3.org/1999/xlink" x="0px" y="0px" viewBox="0 0 440.1 303.4"
	 style="enable-background:new 0 0 440.1 303.4;" xml:space="preserve">
<style type="text/css">
	.Drop_x0020_Shadow{fill:none;}
	.Round_x0020_Corners_x0020_2_x0020_pt{fill:#FFFFFF;stroke:#231F20;stroke-miterlimit:10;}
	.Live_x0020_Reflect_x0020_X{fill:none;}
	.Bevel_x0020_Soft{fill:url(#SVGID_1_);}
	.Dusk{fill:#FFFFFF;}
	.Foliage_GS{fill:#FFDD00;}
	.Pompadour_GS{fill-rule:evenodd;clip-rule:evenodd;fill:#44ADE2;}
	.st0{fill:#F1F2F2;}
	.st1{fill:#414042;}
	.st2{fill:url(#SVGID_2_);}
	.st3{fill:#FFFFFF;}
	.st4{fill:url(#SVGID_3_);}
	.st5{fill:url(#SVGID_4_);}
	.st6{fill:url(#SVGID_5_);}
	.st7{fill:url(#SVGID_6_);}
	.st8{fill:url(#SVGID_7_);}
	.st9{fill:url(#SVGID_8_);}
	.st10{fill:url(#SVGID_9_);}
	.st11{fill:url(#SVGID_10_);}
	.st12{fill:url(#SVGID_11_);}
	.st13{fill:url(#SVGID_12_);}
	.st14{fill:#BCBEC0;}
	.st15{font-family:'Roboto-Bold';}
	.st16{font-size:10.5365px;}
	.st17{font-family:'ProximaNova-Bold';}
	.st18{font-size:14.7512px;}
	.st19{fill:none;stroke:#231F20;stroke-width:0.9176;stroke-linecap:round;stroke-miterlimit:10;stroke-dasharray:0,5.2853;}
	.st20{fill:url(#SVGID_13_);}
	.st21{fill:url(#SVGID_14_);}
	.st22{fill:url(#SVGID_15_);}
	.st23{fill:url(#SVGID_16_);}
	.st24{fill:url(#SVGID_17_);}
	.st25{fill:#FFFFFF;stroke:url(#SVGID_18_);stroke-width:1.7;stroke-miterlimit:10;}
	.st26{fill:#2A2E3A;}
	.st27{fill:url(#SVGID_19_);}
	.st28{fill:#231F20;}
	.st29{font-family:'MyriadPro-Bold';}
	.st30{font-size:18px;}
	.st31{fill:url(#SVGID_20_);}
	.st32{fill:#FFFFFF;stroke:url(#SVGID_21_);stroke-width:1.7;stroke-miterlimit:10;}
	.st33{fill:url(#SVGID_22_);}
	.st34{fill:url(#SVGID_23_);}
	.st35{fill:#FFFFFF;stroke:url(#SVGID_24_);stroke-width:1.7;stroke-miterlimit:10;}
	.st36{fill:url(#SVGID_25_);}
	.st37{fill:#515151;}
	.st38{font-size:10px;}
	.st39{letter-spacing:31.8;}
	.st40{font-family:'MyriadPro-Regular';}
	.st41{font-size:8px;}
</style>
<metadata>
	<sfw  xmlns="&ns_sfw;">
		<slices></slices>
		<sliceSourceBounds  bottomLeftOrigin="true" height="303.4" width="441.6" x="-8.1" y="-303.4"></sliceSourceBounds>
		<optimizationSettings>
			<targetSettings  fileFormat="JPEGFormat" targetSettingsID="0">
				
					<JPEGFormat  blurAmount="0" embedICCProfile="false" matteColor="#FFFFFF" noMatteColor="false" optimized="true" progressive="false" quality="60">
					</JPEGFormat>
			</targetSettings>
		</optimizationSettings>
	</sfw>
</metadata>
<linearGradient id="SVGID_1_" gradientUnits="userSpaceOnUse" x1="8.0551" y1="0" x2="8.7622" y2="0.7071">
	<stop  offset="0" style="stop-color:#DEDFE3"/>
	<stop  offset="0.1783" style="stop-color:#DADBDF"/>
	<stop  offset="0.3611" style="stop-color:#CECFD3"/>
	<stop  offset="0.546" style="stop-color:#B9BCBF"/>
	<stop  offset="0.7324" style="stop-color:#9CA0A2"/>
	<stop  offset="0.9181" style="stop-color:#787D7E"/>
	<stop  offset="1" style="stop-color:#656B6C"/>
</linearGradient>
<g>
	<g>
		<rect x="0.3" y="0" class="st0" width="439.2" height="303.4"/>
		<rect x="0.5" y="0" class="st1" width="439.6" height="67.4"/>
		<g>
			<g>
				<linearGradient id="SVGID_2_" gradientUnits="userSpaceOnUse" x1="304.2665" y1="57.432" x2="432.5665" y2="57.432">
					<stop  offset="3.370800e-02" style="stop-color:#D5D12A"/>
					<stop  offset="1" style="stop-color:#689400"/>
				</linearGradient>
				<rect x="304.3" y="47.4" class="st2" width="128.3" height="20"/>
				<g>
					<rect x="304.3" y="75.7" class="st3" width="128.3" height="142.8"/>
					<g>
						<linearGradient id="SVGID_3_" gradientUnits="userSpaceOnUse" x1="303.7619" y1="198.8935" x2="328.0542" y2="198.8935">
							<stop  offset="3.370800e-02" style="stop-color:#D5D12A"/>
							<stop  offset="1" style="stop-color:#689400"/>
						</linearGradient>
						<polygon class="st4" points="328.1,219.1 303.8,219.1 303.8,178.7 304.8,178.7 304.8,218 328.1,218 						"/>
					</g>
					<g>
						<linearGradient id="SVGID_4_" gradientUnits="userSpaceOnUse" x1="408.7788" y1="95.3512" x2="433.071" y2="95.3512">
							<stop  offset="3.370800e-02" style="stop-color:#D5D12A"/>
							<stop  offset="1" style="stop-color:#689400"/>
						</linearGradient>
						<polygon class="st5" points="433.1,115.5 432.1,115.5 432.1,76.2 408.8,76.2 408.8,75.2 433.1,75.2 						"/>
					</g>
					<g>
						<linearGradient id="SVGID_5_" gradientUnits="userSpaceOnUse" x1="420.6727" y1="84.8754" x2="434.0801" y2="84.8754">
							<stop  offset="3.370800e-02" style="stop-color:#D5D12A"/>
							<stop  offset="1" style="stop-color:#689400"/>
						</linearGradient>
						<polygon class="st6" points="434.1,95.6 431.1,95.6 431.1,77.3 420.7,77.3 420.7,74.1 434.1,74.1 						"/>
					</g>
					<g>
						
							<linearGradient id="SVGID_6_" gradientUnits="userSpaceOnUse" x1="57.6549" y1="143.953" x2="71.0624" y2="143.953" gradientTransform="matrix(-1 0 0 -1 373.8152 353.3223)">
							<stop  offset="3.370800e-02" style="stop-color:#D5D12A"/>
							<stop  offset="1" style="stop-color:#689400"/>
						</linearGradient>
						<polygon class="st7" points="316.2,220.1 302.8,220.1 302.8,198.6 305.8,198.6 305.8,216.9 316.2,216.9 						"/>
					</g>
				</g>
			</g>
			<g>
				<linearGradient id="SVGID_7_" gradientUnits="userSpaceOnUse" x1="6.594" y1="57.432" x2="134.894" y2="57.432">
					<stop  offset="3.370800e-02" style="stop-color:#85478A"/>
					<stop  offset="1" style="stop-color:#404A89"/>
				</linearGradient>
				<rect x="6.6" y="47.4" class="st8" width="128.3" height="20"/>
				<g>
					<rect x="6.6" y="75.7" class="st3" width="128.3" height="142.8"/>
					<g>
						<linearGradient id="SVGID_8_" gradientUnits="userSpaceOnUse" x1="6.0895" y1="198.8935" x2="30.3817" y2="198.8935">
							<stop  offset="3.370800e-02" style="stop-color:#85478A"/>
							<stop  offset="1" style="stop-color:#404A89"/>
						</linearGradient>
						<polygon class="st9" points="30.4,219.1 6.1,219.1 6.1,178.7 7.1,178.7 7.1,218 30.4,218 						"/>
					</g>
					<g>
						<linearGradient id="SVGID_9_" gradientUnits="userSpaceOnUse" x1="111.1063" y1="95.3512" x2="135.3986" y2="95.3512">
							<stop  offset="3.370800e-02" style="stop-color:#85478A"/>
							<stop  offset="1" style="stop-color:#404A89"/>
						</linearGradient>
						<polygon class="st10" points="135.4,115.5 134.4,115.5 134.4,76.2 111.1,76.2 111.1,75.2 135.4,75.2 						"/>
					</g>
					<g>
						<linearGradient id="SVGID_10_" gradientUnits="userSpaceOnUse" x1="123.0002" y1="84.8754" x2="136.4076" y2="84.8754">
							<stop  offset="3.370800e-02" style="stop-color:#85478A"/>
							<stop  offset="1" style="stop-color:#404A89"/>
						</linearGradient>
						<polygon class="st11" points="136.4,95.6 133.4,95.6 133.4,77.3 123,77.3 123,74.1 136.4,74.1 						"/>
					</g>
					<g>
						
							<linearGradient id="SVGID_11_" gradientUnits="userSpaceOnUse" x1="355.3274" y1="143.953" x2="368.7349" y2="143.953" gradientTransform="matrix(-1 0 0 -1 373.8152 353.3223)">
							<stop  offset="3.370800e-02" style="stop-color:#85478A"/>
							<stop  offset="1" style="stop-color:#404A89"/>
						</linearGradient>
						<polygon class="st12" points="18.5,220.1 5.1,220.1 5.1,198.6 8.1,198.6 8.1,216.9 18.5,216.9 						"/>
					</g>
				</g>
			</g>
		</g>
		<rect x="155.4" y="75.7" class="st3" width="128.3" height="142.8"/>
		<linearGradient id="SVGID_12_" gradientUnits="userSpaceOnUse" x1="155.43" y1="57.432" x2="283.7305" y2="57.432">
			<stop  offset="0.2426" style="stop-color:#BA1768"/>
			<stop  offset="1" style="stop-color:#EF5649"/>
		</linearGradient>
		<rect x="155.4" y="47.4" class="st13" width="128.3" height="20"/>
		<rect y="258.8" class="st14" width="440.1" height="44.6"/>
		<rect x="0.5" y="229.5" class="st1" width="441.1" height="29.3"/>
		<rect x="0.3" y="263.3" class="st1" width="437.9" height="2.8"/>
		<text transform="matrix(0.9577 0 0 1 24.327 60.5938)" class="st3 st15 st16">Software as a Service</text>
		<text transform="matrix(0.9577 0 0 1 169.6308 60.5938)" class="st3 st15 st16">Platform as a Service</text>
		<text transform="matrix(0.9577 0 0 1 308.4076 60.5938)" class="st3 st15 st16">Infrastructure as a Service</text>
		<text transform="matrix(0.9577 0 0 1 43.6273 25.7021)" class="st3 st17 st18">CLOUD COMPUTING DELIVERY METHODS EXAMPLES</text>
		<g>
			<line class="st19" x1="143.9" y1="96.7" x2="143.9" y2="204"/>
			<line class="st19" x1="295.3" y1="96.7" x2="295.3" y2="204"/>
		</g>
		<g>
			<linearGradient id="SVGID_13_" gradientUnits="userSpaceOnUse" x1="154.9254" y1="198.8935" x2="179.2177" y2="198.8935">
				<stop  offset="0.2426" style="stop-color:#BA1768"/>
				<stop  offset="1" style="stop-color:#EF5649"/>
			</linearGradient>
			<polygon class="st20" points="179.2,219.1 154.9,219.1 154.9,178.7 155.9,178.7 155.9,218 179.2,218 			"/>
		</g>
		<g>
			<linearGradient id="SVGID_14_" gradientUnits="userSpaceOnUse" x1="259.9428" y1="95.3512" x2="284.2351" y2="95.3512">
				<stop  offset="0.2426" style="stop-color:#BA1768"/>
				<stop  offset="1" style="stop-color:#EF5649"/>
			</linearGradient>
			<polygon class="st21" points="284.2,115.5 283.2,115.5 283.2,76.2 259.9,76.2 259.9,75.2 284.2,75.2 			"/>
		</g>
		<g>
			<linearGradient id="SVGID_15_" gradientUnits="userSpaceOnUse" x1="271.8367" y1="84.8754" x2="285.2441" y2="84.8754">
				<stop  offset="0.2426" style="stop-color:#BA1768"/>
				<stop  offset="1" style="stop-color:#EF5649"/>
			</linearGradient>
			<polygon class="st22" points="285.2,95.6 282.2,95.6 282.2,77.3 271.8,77.3 271.8,74.1 285.2,74.1 			"/>
		</g>
		<g>
			
				<linearGradient id="SVGID_16_" gradientUnits="userSpaceOnUse" x1="206.4914" y1="143.953" x2="219.8988" y2="143.953" gradientTransform="matrix(-1 0 0 -1 373.8152 353.3223)">
				<stop  offset="0.2426" style="stop-color:#BA1768"/>
				<stop  offset="1" style="stop-color:#EF5649"/>
			</linearGradient>
			<polygon class="st23" points="167.3,220.1 153.9,220.1 153.9,198.6 156.9,198.6 156.9,216.9 167.3,216.9 			"/>
		</g>
	</g>
</g>
<linearGradient id="SVGID_17_" gradientUnits="userSpaceOnUse" x1="181.4916" y1="243.2715" x2="270.6181" y2="243.2715">
	<stop  offset="0.2426" style="stop-color:#BA1768"/>
	<stop  offset="1" style="stop-color:#EF5649"/>
</linearGradient>
<path class="st24" d="M226.1,287.8c-24.6,0-44.6-20-44.6-44.6s44.6-44.6,44.6-44.6s44.6,20,44.6,44.6S250.6,287.8,226.1,287.8z"/>
<g>
	<linearGradient id="SVGID_18_" gradientUnits="userSpaceOnUse" x1="188.0577" y1="245.0576" x2="264.0521" y2="245.0576">
		<stop  offset="0.2426" style="stop-color:#BA1768"/>
		<stop  offset="1" style="stop-color:#EF5649"/>
	</linearGradient>
	<path class="st25" d="M242,209.7h-31.8c-12.6,6-21.2,18.8-21.2,33.6c0,20.5,16.6,37.1,37.1,37.1c20.5,0,37.1-16.6,37.1-37.1
		C263.2,228.5,254.5,215.7,242,209.7z"/>
</g>
<g>
	<g>
		<path class="st26" d="M206.2,211.9c-0.1-0.1-0.2-0.3-0.4-0.4c0,0-0.1-0.1-0.1-0.1c-0.1-0.1-0.2-0.1-0.2-0.2
			c-0.1-0.1-0.1-0.1-0.2-0.2c-0.1-0.1-0.1-0.1-0.2-0.2c-0.1-0.1-0.2-0.1-0.3-0.2c-0.1,0-0.1-0.1-0.2-0.1c-0.2-0.1-0.3-0.2-0.5-0.3
			c-0.8-0.4-1.8-0.6-2.7-0.6c-1.7,0-3.3,0.8-4.5,2c-1.1,1.1-3.7,6-2.4,12C197.4,218.9,201.4,214.9,206.2,211.9z"/>
		<path class="st26" d="M257.6,223.7c1.3-6-1.3-10.9-2.4-12c-1.2-1.2-2.7-2-4.5-2c-0.9,0-1.9,0.3-2.7,0.6c-0.2,0.1-0.3,0.2-0.5,0.3
			c-0.1,0-0.1,0.1-0.2,0.1c-0.1,0.1-0.2,0.1-0.3,0.2c-0.1,0-0.1,0.1-0.2,0.2c-0.1,0.1-0.1,0.1-0.2,0.2c-0.1,0.1-0.2,0.1-0.2,0.2
			c0,0-0.1,0.1-0.1,0.1c-0.1,0.1-0.2,0.2-0.4,0.4C250.7,214.9,254.7,218.9,257.6,223.7z"/>
	</g>
	<g>
		<linearGradient id="SVGID_19_" gradientUnits="userSpaceOnUse" x1="226.0563" y1="206.5487" x2="226.0563" y2="227.7108">
			<stop  offset="0.2426" style="stop-color:#BA1768"/>
			<stop  offset="1" style="stop-color:#EF5649"/>
		</linearGradient>
		<path class="st27" d="M250.6,209.7h-24.3h-0.2l0,0h-0.2h-24.3c0,0-0.1,0-0.1,0c0.9,0,1.9,0.3,2.7,0.6c0.2,0.1,0.3,0.2,0.5,0.3
			c0.1,0,0.1,0.1,0.2,0.1c0.1,0.1,0.2,0.1,0.3,0.2c0.1,0,0.1,0.1,0.2,0.2c0.1,0.1,0.1,0.1,0.2,0.2c0.1,0.1,0.2,0.1,0.2,0.2
			c0,0,0.1,0.1,0.1,0.1c0.1,0.1,0.3,0.3,0.4,0.4c0,0,0,0,0.1,0.1c0.1,0.1,0.2,0.2,0.2,0.3c0,0,0.1,0.1,0.1,0.1c0,0,0,0,0,0.1
			c0,0,0.1,0.1,0.1,0.1c0.1,0.1,0.1,0.2,0.2,0.3c0,0,0,0,0,0l0,0c0,0,0,0,0,0c0.1,0.2,0.3,0.5,0.4,0.7c0,0,0,0,0,0
			c0.3,0.8,0.5,1.6,0.6,2.5c0,0.1,0,0.2,0,0.2c0.2,1.6,0.3,3.2,1,4.7c1.1,2.3,3,3.4,5.6,3.4c0,0,11.2,0,11.2,0s0.1,0,0.2,0v0
			c0.1,0,0.2,0,0.2,0s11.2,0,11.2,0c2.5,0,4.5-1.2,5.6-3.4c0.7-1.5,0.8-3.1,1-4.7c0-0.1,0-0.1,0-0.2c0.1-0.9,0.3-1.7,0.6-2.6
			c0.1-0.3,0.2-0.5,0.4-0.7c0.3-0.5,0.7-1,1.1-1.5c0,0,0.1-0.1,0.1-0.1c0.1-0.1,0.2-0.1,0.2-0.2c0.1-0.1,0.1-0.1,0.2-0.2
			c0.1-0.1,0.1-0.1,0.2-0.2c0.1-0.1,0.2-0.1,0.3-0.2c0.1,0,0.1-0.1,0.2-0.1c0.2-0.1,0.3-0.2,0.5-0.3c0.8-0.4,1.8-0.6,2.7-0.6
			C250.7,209.7,250.6,209.7,250.6,209.7z"/>
	</g>
</g>
<g>
	<text transform="matrix(1 0 0 1 206.1751 253.6926)" class="st28 st29 st30">PaaS</text>
</g>
<g>
	<linearGradient id="SVGID_20_" gradientUnits="userSpaceOnUse" x1="31.9911" y1="241.9863" x2="121.1181" y2="241.9863">
		<stop  offset="0.329" style="stop-color:#652C93"/>
		<stop  offset="1" style="stop-color:#9F5391"/>
	</linearGradient>
	<path class="st31" d="M76.6,286.5C52,286.5,32,266.6,32,242s44.6-44.6,44.6-44.6s44.6,20,44.6,44.6S101.1,286.5,76.6,286.5z"/>
	<g>
		<linearGradient id="SVGID_21_" gradientUnits="userSpaceOnUse" x1="38.5572" y1="243.7725" x2="114.5521" y2="243.7725">
			<stop  offset="0.329" style="stop-color:#652C93"/>
			<stop  offset="1" style="stop-color:#9F5391"/>
		</linearGradient>
		<path class="st32" d="M92.5,208.4H60.6c-12.6,6-21.2,18.8-21.2,33.6c0,20.5,16.6,37.1,37.1,37.1c20.5,0,37.1-16.6,37.1-37.1
			C113.7,227.2,105,214.4,92.5,208.4z"/>
	</g>
	<g>
		<g>
			<path class="st26" d="M56.7,210.6c-0.1-0.1-0.2-0.3-0.4-0.4c0,0-0.1-0.1-0.1-0.1c-0.1-0.1-0.2-0.1-0.2-0.2
				c-0.1-0.1-0.1-0.1-0.2-0.2c-0.1-0.1-0.1-0.1-0.2-0.2c-0.1-0.1-0.2-0.1-0.3-0.2c-0.1,0-0.1-0.1-0.2-0.1c-0.2-0.1-0.3-0.2-0.5-0.3
				c-0.8-0.4-1.8-0.6-2.7-0.6c-1.7,0-3.3,0.8-4.5,2c-1.1,1.1-3.7,6-2.4,12C47.9,217.6,51.9,213.6,56.7,210.6z"/>
			<path class="st26" d="M108.1,222.4c1.3-6-1.3-10.9-2.4-12c-1.2-1.2-2.7-2-4.5-2c-0.9,0-1.9,0.3-2.7,0.6c-0.2,0.1-0.3,0.2-0.5,0.3
				c-0.1,0-0.1,0.1-0.2,0.1c-0.1,0.1-0.2,0.1-0.3,0.2c-0.1,0-0.1,0.1-0.2,0.2c-0.1,0.1-0.1,0.1-0.2,0.2c-0.1,0.1-0.2,0.1-0.2,0.2
				c0,0-0.1,0.1-0.1,0.1c-0.1,0.1-0.2,0.2-0.4,0.4C101.2,213.6,105.2,217.6,108.1,222.4z"/>
		</g>
		<g>
			<linearGradient id="SVGID_22_" gradientUnits="userSpaceOnUse" x1="76.556" y1="205.2636" x2="76.556" y2="226.4256">
				<stop  offset="3.370800e-02" style="stop-color:#85478A"/>
				<stop  offset="1" style="stop-color:#404A89"/>
			</linearGradient>
			<path class="st33" d="M101.1,208.4H76.8h-0.2l0,0h-0.2H52c0,0-0.1,0-0.1,0c0.9,0,1.9,0.3,2.7,0.6c0.2,0.1,0.3,0.2,0.5,0.3
				c0.1,0,0.1,0.1,0.2,0.1c0.1,0.1,0.2,0.1,0.3,0.2c0.1,0,0.1,0.1,0.2,0.2c0.1,0.1,0.1,0.1,0.2,0.2c0.1,0.1,0.2,0.1,0.2,0.2
				c0,0,0.1,0.1,0.1,0.1c0.1,0.1,0.3,0.3,0.4,0.4c0,0,0,0,0.1,0.1c0.1,0.1,0.2,0.2,0.2,0.3c0,0,0.1,0.1,0.1,0.1c0,0,0,0,0,0.1
				c0,0,0.1,0.1,0.1,0.1c0.1,0.1,0.1,0.2,0.2,0.3c0,0,0,0,0,0l0,0c0,0,0,0,0,0c0.1,0.2,0.3,0.5,0.4,0.7c0,0,0,0,0,0
				c0.3,0.8,0.5,1.6,0.6,2.5c0,0.1,0,0.2,0,0.2c0.2,1.6,0.3,3.2,1,4.7c1.1,2.3,3,3.4,5.6,3.4c0,0,11.2,0,11.2,0s0.1,0,0.2,0v0
				c0.1,0,0.2,0,0.2,0s11.2,0,11.2,0c2.5,0,4.5-1.2,5.6-3.4c0.7-1.5,0.8-3.1,1-4.7c0-0.1,0-0.1,0-0.2c0.1-0.9,0.3-1.7,0.6-2.6
				c0.1-0.3,0.2-0.5,0.4-0.7c0.3-0.5,0.7-1,1.1-1.5c0,0,0.1-0.1,0.1-0.1c0.1-0.1,0.2-0.1,0.2-0.2c0.1-0.1,0.1-0.1,0.2-0.2
				c0.1-0.1,0.1-0.1,0.2-0.2c0.1-0.1,0.2-0.1,0.3-0.2c0.1,0,0.1-0.1,0.2-0.1c0.2-0.1,0.3-0.2,0.5-0.3c0.8-0.4,1.8-0.6,2.7-0.6
				C101.2,208.4,101.1,208.4,101.1,208.4z"/>
		</g>
	</g>
	<g>
		<text transform="matrix(1 0 0 1 56.6749 253.6924)" class="st28 st29 st30">SaaS</text>
	</g>
</g>
<linearGradient id="SVGID_23_" gradientUnits="userSpaceOnUse" x1="326.9916" y1="241.9863" x2="416.1186" y2="241.9863">
	<stop  offset="3.370800e-02" style="stop-color:#D5D12A"/>
	<stop  offset="1" style="stop-color:#689400"/>
</linearGradient>
<path class="st34" d="M371.6,286.5c-24.6,0-44.6-20-44.6-44.6s44.6-44.6,44.6-44.6s44.6,20,44.6,44.6S396.1,286.5,371.6,286.5z"/>
<g>
	<linearGradient id="SVGID_24_" gradientUnits="userSpaceOnUse" x1="333.5577" y1="243.7725" x2="409.5526" y2="243.7725">
		<stop  offset="3.370800e-02" style="stop-color:#D5D12A"/>
		<stop  offset="1" style="stop-color:#689400"/>
	</linearGradient>
	<path class="st35" d="M387.5,208.4h-31.8c-12.6,6-21.2,18.8-21.2,33.6c0,20.5,16.6,37.1,37.1,37.1s37.1-16.6,37.1-37.1
		C408.7,227.2,400,214.4,387.5,208.4z"/>
</g>
<g>
	<g>
		<path class="st26" d="M351.7,210.6c-0.1-0.1-0.2-0.3-0.3-0.4c0,0-0.1-0.1-0.1-0.1c-0.1-0.1-0.2-0.1-0.2-0.2
			c-0.1-0.1-0.1-0.1-0.2-0.2c-0.1-0.1-0.1-0.1-0.2-0.2c-0.1-0.1-0.2-0.1-0.3-0.2c-0.1,0-0.1-0.1-0.2-0.1c-0.2-0.1-0.3-0.2-0.5-0.3
			c-0.8-0.4-1.8-0.6-2.7-0.6c-1.7,0-3.3,0.8-4.5,2c-1.1,1.1-3.7,6-2.4,12C342.9,217.6,347,213.6,351.7,210.6z"/>
		<path class="st26" d="M403.1,222.4c1.3-6-1.3-10.9-2.4-12c-1.2-1.2-2.7-2-4.5-2c-0.9,0-1.9,0.3-2.7,0.6c-0.2,0.1-0.3,0.2-0.5,0.3
			c-0.1,0-0.1,0.1-0.2,0.1c-0.1,0.1-0.2,0.1-0.3,0.2c-0.1,0-0.1,0.1-0.2,0.2c-0.1,0.1-0.1,0.1-0.2,0.2c-0.1,0.1-0.2,0.1-0.2,0.2
			c0,0-0.1,0.1-0.1,0.1c-0.1,0.1-0.2,0.2-0.4,0.4C396.2,213.6,400.2,217.6,403.1,222.4z"/>
	</g>
	<g>
		<linearGradient id="SVGID_25_" gradientUnits="userSpaceOnUse" x1="371.557" y1="205.2636" x2="371.557" y2="226.4256">
			<stop  offset="3.370800e-02" style="stop-color:#D5D12A"/>
			<stop  offset="1" style="stop-color:#689400"/>
		</linearGradient>
		<path class="st36" d="M396.1,208.4h-24.3h-0.2l0,0h-0.2H347c0,0-0.1,0-0.1,0c0.9,0,1.9,0.3,2.7,0.6c0.2,0.1,0.3,0.2,0.5,0.3
			c0.1,0,0.1,0.1,0.2,0.1c0.1,0.1,0.2,0.1,0.3,0.2c0.1,0,0.1,0.1,0.2,0.2c0.1,0.1,0.1,0.1,0.2,0.2c0.1,0.1,0.2,0.1,0.2,0.2
			c0,0,0.1,0.1,0.1,0.1c0.1,0.1,0.3,0.3,0.4,0.4c0,0,0,0,0.1,0.1c0.1,0.1,0.2,0.2,0.2,0.3c0,0,0.1,0.1,0.1,0.1c0,0,0,0,0,0.1
			c0,0,0.1,0.1,0.1,0.1c0.1,0.1,0.1,0.2,0.2,0.3c0,0,0,0,0,0l0,0c0,0,0,0,0,0c0.1,0.2,0.3,0.5,0.4,0.7c0,0,0,0,0,0
			c0.3,0.8,0.5,1.6,0.6,2.5c0,0.1,0,0.2,0,0.2c0.2,1.6,0.3,3.2,1,4.7c1.1,2.3,3,3.4,5.6,3.4c0,0,11.2,0,11.2,0s0.1,0,0.2,0v0
			c0.1,0,0.2,0,0.2,0s11.2,0,11.2,0c2.5,0,4.5-1.2,5.6-3.4c0.7-1.5,0.8-3.1,1-4.7c0-0.1,0-0.1,0-0.2c0.1-0.9,0.3-1.7,0.6-2.6
			c0.1-0.3,0.2-0.5,0.4-0.7c0.3-0.5,0.7-1,1.1-1.5c0,0,0.1-0.1,0.1-0.1c0.1-0.1,0.2-0.1,0.2-0.2c0.1-0.1,0.1-0.1,0.2-0.2
			c0.1-0.1,0.1-0.1,0.2-0.2c0.1-0.1,0.2-0.1,0.3-0.2c0.1,0,0.1-0.1,0.2-0.1c0.2-0.1,0.3-0.2,0.5-0.3c0.8-0.4,1.8-0.6,2.7-0.6
			C396.2,208.4,396.1,208.4,396.1,208.4z"/>
	</g>
</g>
<g>
	<text transform="matrix(1 0 0 1 354.4256 251.2502)" class="st28 st29 st30">IaaS</text>
</g>
<text transform="matrix(1 0 0 1 34.4069 91.6307)" class="st37 st29 st38">- Salesforce</text>
<text transform="matrix(1 0 0 1 34.4069 103.6307)" class="st37 st29 st38">- Dropbox</text>
<text transform="matrix(1 0 0 1 34.4069 115.6307)" class="st37 st29 st38">- Mailchimp</text>
<text transform="matrix(1 0 0 1 34.4069 127.6307)" class="st37 st29 st38">- Zoho</text>
<text transform="matrix(1 0 0 1 34.4069 139.6307)" class="st37 st29 st38">- Freshworks</text>
<text transform="matrix(1 0 0 1 34.4069 151.6307)" class="st37 st29 st38">- Slack </text>
<text transform="matrix(1 0 0 1 34.4069 163.6307)" class="st37 st29 st38">- Hubspot</text>
<text transform="matrix(1 0 0 1 34.4069 175.6307)" class="st37 st29 st38">- G Suite</text>
<text transform="matrix(1 0 0 1 34.4069 187.6307)" class="st37 st29 st38">- MS Office Suites</text>
<g>
	<text transform="matrix(1 0 0 1 184.0545 91.5356)" class="st37 st29 st38">- AWS Beanstalk</text>
	<text transform="matrix(1 0 0 1 184.0545 103.5356)" class="st37 st29 st38">- Windows Azure</text>
	<text transform="matrix(1 0 0 1 184.0545 115.5356)" class="st37 st29 st38">- Force.com</text>
	<text transform="matrix(1 0 0 1 184.0545 127.5356)" class="st37 st29 st38">- Google App </text>
	<text transform="matrix(1 0 0 1 184.0545 139.5356)" class="st37 st29 st38">   Engine</text>
	<text transform="matrix(1 0 0 1 184.0545 151.5356)" class="st37 st29 st38">- Zoho Creator</text>
	<text transform="matrix(1 0 0 1 184.0545 163.5356)" class="st37 st29 st38">- Openshift</text>
	<text transform="matrix(1 0 0 1 184.0545 175.5356)" class="st37 st29 st38">- Heroku</text>
	<text transform="matrix(1 0 0 1 184.0545 187.5356)" class="st37 st29 st38">- SAP</text>
</g>
<text transform="matrix(1.0076 0 0 1 336.4877 90.4961)" class="st37 st29 st38">- AWS EC2</text>
<text transform="matrix(1.0076 0 0 1 336.4877 102.4961)" class="st37 st29 st38">- Google Compute </text>
<text transform="matrix(1.0076 0 0 1 336.4877 114.4961)" class="st37 st29 st38">Engine</text>
<text transform="matrix(1.0076 0 0 1 373.6674 114.4961)" class="st37 st29 st38 st39"> </text>
<text transform="matrix(1.0076 0 0 1 336.4877 126.4961)" class="st37 st29 st38">- Openstack</text>
<text transform="matrix(1.0076 0 0 1 336.4877 138.4961)" class="st37 st29 st38">- Digital Ocean</text>
<text transform="matrix(1.0076 0 0 1 336.4877 150.4961)" class="st37 st29 st38">- IBM Cloud</text>
<text transform="matrix(1.0076 0 0 1 336.4877 162.4961)" class="st37 st29 st38">- Google Cloud </text>
<text transform="matrix(1.0076 0 0 1 336.4877 174.4961)" class="st37 st29 st38">   Platform</text>
<text transform="matrix(1.0076 0 0 1 336.4877 186.4961)" class="st37 st29 st38">- Oracle</text>
<text transform="matrix(1 0 0 1 381.7382 297.7564)" class="st40 st41">Sixty One Steps</text>
</svg>
