<?xml version="1.0" encoding="utf-8"?>
<!-- Generator: Adobe Illustrator 22.0.0, SVG Export Plug-In . SVG Version: 6.00 Build 0)  -->
<svg version="1.1" id="Layer_1" xmlns="http://www.w3.org/2000/svg" xmlns:xlink="http://www.w3.org/1999/xlink" x="0px" y="0px"
	 viewBox="0 0 1096 780" style="enable-background:new 0 0 1096 780;" xml:space="preserve">
<style type="text/css">
	.st0{fill:#FFFFFF;}
	.st1{fill:#4D97D2;}
	.st2{fill:#4E6352;}
	.st3{fill:#017BB6;}
	.st4{fill:#2AA8E0;}
	.st5{fill:#C1C3C3;}
	.st6{fill:#CD332D;}
	.st7{fill:#5BA545;}
	.st8{fill:#ED802D;}
	.st9{fill:#CC3732;}
	.st10{fill:#00B386;}
	.st11{fill:#C58041;}
	.st12{fill:#EA4C89;}
	.st13{fill:#23A0CA;}
	.st14{fill:#32669A;}
</style>
<rect class="st0" width="1096" height="780"/>
<g>
	<g>
		<rect x="49.1" y="268.7" class="st1" width="170.5" height="168.3"/>
		<g>
			<path class="st0" d="M173.5,327.2c-0.9-0.1-1.8-0.5-2.3-1.3c-5.3-7.2-13.9-11.7-23-11.7c-0.6,0-1.2,0-1.7,0.1
				c-0.8,0-1.5-0.2-2.1-0.6c-5.5-4.2-12.3-6.5-19.3-6.5c-12.6,0-23.8,7.3-29,18.4c-0.5,1-1.4,1.7-2.5,1.8
				C79.7,329.3,69,341.3,69,355.7c0,15.7,12.8,28.5,28.5,28.5h6.1v14.1h0.1h53.6l16.5-37.9c0.4-1,0.3-2.1-0.3-3
				c-0.6-0.9-1.6-1.4-2.6-1.4h-17.4c-1,0-2,0.5-2.6,1.4l-4.1,5.9h-22.3c-3.3,0-6.2,1.9-7.6,4.9l-6.4,14.4V373H97.5
				c-9.5,0-17.3-7.8-17.3-17.3c0-9.5,7.8-17.3,17.3-17.3c0.5,0,1,0,1.4,0.1c2.7,0.2,5.2-1.6,5.9-4.2c2.3-9.3,10.6-15.7,20.2-15.7
				c5.5,0,10.6,2.1,14.5,5.9c1.3,1.3,3.2,1.9,5.1,1.5c1.2-0.2,2.4-0.4,3.5-0.4c6.7,0,12.6,3.8,15.6,9.8c1,2.1,3.3,3.4,5.6,3.1
				c0.6-0.1,1.2-0.1,1.7-0.1c9.5,0,17.3,7.8,17.3,17.3c0,8.3-5.9,15.2-13.7,16.9l-5.1,11.6h1.5c15.7,0,28.5-12.8,28.5-28.5
				C199.6,340.8,188.1,328.5,173.5,327.2z"/>
			<path class="st0" d="M145.2,342.8c2.3,0,4.2-1.9,4.2-4.2c0-2.3-1.9-4.2-4.2-4.2h-21.8c-2.3,0-4.2,1.9-4.2,4.2s1.9,4.2,4.2,4.2
				H145.2z"/>
			<path class="st0" d="M113.5,350c0,2.3,1.9,4.2,4.2,4.2h33.1c2.3,0,4.2-1.9,4.2-4.2c0-2.3-1.9-4.2-4.2-4.2h-33.1
				C115.4,345.7,113.5,347.6,113.5,350z"/>
		</g>
	</g>
	<g>
		<rect x="257.2" y="268.7" class="st2" width="166.1" height="168.3"/>
		<g>
			<path class="st0" d="M362.8,346.4h-45.2c-4.3,0-7.8,3.5-7.8,7.8v42.3c0,4.3,3.5,7.8,7.8,7.8h45.2c4.3,0,7.8-3.5,7.8-7.8v-42.3
				C370.6,349.9,367.1,346.4,362.8,346.4z M356.3,351.1c2.1,0,3.8,1.7,3.8,3.8s-1.7,3.8-3.8,3.8c-2.1,0-3.8-1.7-3.8-3.8
				C352.5,352.8,354.2,351.1,356.3,351.1z M324.2,351.1c2.1,0,3.8,1.7,3.8,3.8s-1.7,3.8-3.8,3.8c-2.1,0-3.8-1.7-3.8-3.8
				C320.4,352.8,322.1,351.1,324.2,351.1z M362.5,394c0,1.2-1,2.2-2.2,2.2h-40.2c-1.2,0-2.2-1-2.2-2.2v-28.2c0-1.2,1-2.2,2.2-2.2
				h40.2c1.2,0,2.2,1,2.2,2.2V394z"/>
			<path class="st0" d="M376.8,320.1c-0.7,0-1.3-0.4-1.7-1c-5-6.9-13.1-11.2-21.8-11.2c-0.6,0-1.3,0-1.9,0.1c-0.6,0-1.1-0.1-1.6-0.5
				c-5.3-4-11.7-6.2-18.4-6.2c-12,0-22.6,7-27.4,17.6c-0.3,0.7-1,1.2-1.8,1.3c-13.3,1.7-23.5,13-23.5,26.7
				c0,14.5,11.5,26.3,25.8,26.8v-10.6c-8.5-0.5-15.2-7.6-15.2-16.2c0-9,7.3-16.3,16.3-16.3c0.5,0,0.9,0,1.3,0.1
				c2.6,0.2,4.9-1.5,5.6-4c2.2-8.7,10-14.8,19-14.8c5.1,0,10,2,13.7,5.6c1.3,1.2,3.1,1.8,4.8,1.4c1.1-0.2,2.2-0.3,3.3-0.3
				c6.3,0,11.9,3.5,14.7,9.2c1,2,3.1,3.2,5.3,3c0.6-0.1,1.1-0.1,1.6-0.1c9,0,16.3,7.3,16.3,16.3c0,8.6-6.7,15.7-15.2,16.2v10.6
				c14.3-0.6,25.8-12.4,25.8-26.8C401.7,332.8,390.7,321.1,376.8,320.1z"/>
			<g>
				<path class="st0" d="M333.4,384.8c0-2.2,1.2-3.7,3.2-4.5v-0.1c-1.7-0.9-2.6-2.4-2.6-3.9c0-3.1,2.7-5.1,6.4-5.1
					c4.2,0,6,2.4,6,4.6c0,1.6-0.8,3.1-2.6,4v0.1c1.7,0.7,3.3,2.2,3.3,4.5c0,3.3-2.7,5.5-6.9,5.5
					C335.5,389.8,333.4,387.2,333.4,384.8z M342.7,384.6c0-1.6-1.2-2.5-2.8-3c-1.4,0.4-2.2,1.4-2.2,2.7c0,1.3,1,2.5,2.6,2.5
					C341.7,386.9,342.7,385.9,342.7,384.6z M338,376.1c0,1.2,1.1,2,2.6,2.4c1-0.3,1.8-1.2,1.8-2.3c0-1.1-0.6-2.2-2.2-2.2
					C338.7,374,338,374.9,338,376.1z"/>
			</g>
		</g>
	</g>
	<g>
		<rect x="466.2" y="268.1" class="st3" width="166.9" height="166.8"/>
		<g>
			<path class="st0" d="M518.8,354.3c-1.4,0.3-2.5,1.5-2.5,2.9v42.2c0,0.9,0.4,1.7,1.1,2.3c0.7,0.6,1.6,0.8,2.4,0.7l4.5-0.8
				c7.9-1.4,16.1-1,23.9,1v-48.2C540.4,352.4,531.3,351.7,518.8,354.3z"/>
			<path class="st0" d="M580.4,354.3c-12.5-2.6-21.6-2-29.4,0.1v48.2c7.8-2,15.9-2.4,23.9-1l4.5,0.8c0.9,0.2,1.8-0.1,2.4-0.7
				c0.7-0.6,1.1-1.4,1.1-2.3v-42.2C582.9,355.8,581.9,354.6,580.4,354.3z"/>
			<path class="st0" d="M588.2,320.3c-0.7-0.1-1.4-0.4-1.8-1c-5.3-7.3-13.9-11.9-23-11.9c-0.7,0-1.3,0-2,0.1c-0.6,0-1.2-0.1-1.7-0.5
				c-5.5-4.3-12.3-6.6-19.4-6.6c-12.7,0-23.9,7.4-29,18.6c-0.4,0.8-1.1,1.3-1.9,1.4c-14,1.7-24.8,13.7-24.8,28.2
				c0,14.9,11.5,27.1,26.1,28.3v-11.2c-8.4-1.1-14.9-8.3-14.9-17c0-9.5,7.7-17.2,17.2-17.2c0.5,0,0.9,0,1.4,0.1
				c2.7,0.2,5.2-1.6,5.9-4.2c2.3-9.2,10.6-15.7,20-15.7c5.4,0,10.6,2.1,14.4,5.9c1.3,1.3,3.2,1.9,5,1.5c1.2-0.2,2.3-0.4,3.5-0.4
				c6.6,0,12.6,3.7,15.5,9.7c1,2.1,3.3,3.4,5.6,3.1c0.6-0.1,1.2-0.1,1.7-0.1c9.5,0,17.2,7.7,17.2,17.2c0,8.7-6.5,15.9-14.9,17v11.2
				c14.6-1.2,26.1-13.4,26.1-28.3C614.6,333.6,602.9,321.3,588.2,320.3z"/>
		</g>
	</g>
	<g>
		<rect x="675.2" y="268.1" class="st4" width="166.9" height="166.9"/>
		<g>
			<path class="st0" d="M797.2,323.6c-0.9-0.1-1.8-0.5-2.3-1.3c-5.2-7.1-13.6-11.5-22.6-11.5c-0.6,0-1.1,0-1.7,0.1
				c-0.8,0-1.5-0.2-2.1-0.6c-5.4-4.1-12-6.3-18.9-6.3c-12.4,0-23.4,7.2-28.5,18c-0.5,1-1.4,1.7-2.4,1.8
				c-13.6,1.9-24.2,13.6-24.2,27.8c0,15.5,12.6,28.1,28.1,28.1h0.5c-0.4-1.1-0.6-2.3-0.6-3.4c0-3,1.4-5.8,3.7-7.6h-3.5
				c-9.4,0-17-7.6-17-17c0-9.4,7.6-17,17-17c0.5,0,0.9,0,1.4,0.1c2.7,0.2,5.1-1.5,5.8-4.2c2.3-9.1,10.4-15.5,19.8-15.5
				c5.4,0,10.4,2.1,14.3,5.8c1.3,1.3,3.2,1.8,5,1.5c1.1-0.2,2.3-0.4,3.5-0.4c6.6,0,12.4,3.7,15.3,9.6c1,2.1,3.2,3.3,5.5,3.1
				c0.6-0.1,1.1-0.1,1.7-0.1c9.4,0,17,7.6,17,17c0,9.4-7.6,17-17,17h-1.6c-1.3,4-3.3,7.8-5.8,11.1h7.4c15.5,0,28.1-12.6,28.1-28.1
				C822.9,336.9,811.6,324.8,797.2,323.6z"/>
			<path class="st0" d="M790.4,357.6c0-1.7-0.9-3.2-2.4-3.9c-1.5-0.7-3.2-0.6-4.6,0.4c-6.4,4.8-14.2,8-22.6,8.8v-4.6
				c0-2-1.1-3.8-2.9-4.6c-1.8-0.9-3.9-0.7-5.4,0.5L729,372c-1.3,1-2.1,2.5-2.1,4.1c0,1.6,0.8,3.2,2.1,4.1l23.6,17.8
				c1.6,1.2,3.7,1.4,5.4,0.5c1.8-0.9,2.9-2.7,2.9-4.6v-4.9c0,0,0,0,0,0C777.5,388,790.4,374.2,790.4,357.6L790.4,357.6L790.4,357.6z
				"/>
		</g>
	</g>
	<g>
		<rect x="881.5" y="268.7" class="st5" width="166.1" height="168.3"/>
		<g>
			<path class="st0" d="M947.8,376.5c-0.8-0.6-1.8-0.8-2.8-0.4c-0.9,0.4-1.5,1.3-1.5,2.3v4.4h-16.9c-2.2,0-4,1.8-4,4v10.8
				c0,2.2,1.8,4,4,4h16.9v4.4c0,1,0.6,1.9,1.5,2.3c0.9,0.4,2,0.3,2.8-0.4l13.8-11.7c1.2-1,1.8-2.5,1.8-4c0-1.5-0.7-3-1.8-4
				L947.8,376.5z"/>
			<path class="st0" d="M1002.4,382.9h-16.9v-4.4c0-1-0.6-1.9-1.5-2.3c-0.9-0.4-2-0.3-2.8,0.4l-13.8,11.7c-1.2,1-1.8,2.5-1.8,4
				c0,1.6,0.7,3,1.8,4l13.8,11.7c0.8,0.6,1.8,0.8,2.8,0.4c0.9-0.4,1.5-1.3,1.5-2.3v-4.4h16.9c2.2,0,4-1.8,4-4v-10.8
				C1006.4,384.7,1004.6,382.9,1002.4,382.9z"/>
			<path class="st0" d="M1003,316.7c-0.7-0.1-1.4-0.4-1.8-1c-5.3-7.3-13.8-11.8-22.9-11.8c-0.7,0-1.3,0-2,0.1
				c-0.6,0-1.2-0.1-1.6-0.5c-5.5-4.2-12.2-6.5-19.3-6.5c-12.6,0-23.8,7.4-28.8,18.5c-0.4,0.8-1.1,1.3-1.9,1.4
				c-13.9,1.7-24.7,13.7-24.7,28c0,15.6,12.7,28.2,28.3,28.2h72.8c15.6,0,28.3-12.7,28.3-28.2C1029.2,330,1017.6,317.8,1003,316.7z
				 M1001,362h-72.8c-9.4,0-17.1-7.7-17.1-17.1c0-9.4,7.7-17.1,17.1-17.1c0.5,0,0.9,0,1.4,0.1c2.7,0.2,5.2-1.6,5.8-4.2
				c2.3-9.2,10.5-15.6,20-15.6c5.4,0,10.5,2.1,14.4,5.9c1.3,1.3,3.2,1.8,5,1.5c1.2-0.2,2.3-0.4,3.5-0.4c6.6,0,12.5,3.7,15.4,9.7
				c1,2.1,3.2,3.4,5.6,3.1c0.6-0.1,1.2-0.1,1.7-0.1c9.4,0,17.1,7.7,17.1,17.1C1018.1,354.3,1010.4,362,1001,362z"/>
		</g>
	</g>
</g>
<g>
	<g>
		<g>
			<rect x="52.1" y="44.2" class="st6" width="166.9" height="166.9"/>
			<g>
				<path class="st0" d="M174.8,75.8H96.1c-5.1,0-9.2,3.8-9.2,8.9v61.5c0,5.1,4.1,9.4,9.2,9.4h32.5v10.2h-12.1
					c-4.6,0-8.6,3.8-8.6,8.4v5.4h55.1v-5.4c0-4.6-3.5-8.4-8.2-8.4h-12.5v-10.2h32.5c5.1,0,9.3-4.3,9.3-9.4V84.7
					C184.1,79.6,179.9,75.8,174.8,75.8z M170.3,141.8h-69.8V89.6h69.8L170.3,141.8L170.3,141.8z"/>
				<path class="st0" d="M122.9,128.8h25.2c5.4,0,9.8-4.4,9.8-9.8c0-4.9-3.7-9-8.4-9.7c-0.6-0.1-1.2-0.4-1.6-0.9
					c-1.8-2.2-4.6-3.6-7.5-3.6c-0.1,0-0.1,0-0.2,0c-0.5,0-1.1-0.2-1.5-0.5c-1.8-1.3-4-1.9-6.2-1.9c-4.1,0-7.7,2.2-9.6,5.7
					c-0.4,0.7-1,1.1-1.8,1.3c-4.4,0.9-7.8,4.9-7.8,9.6C113.2,124.4,117.5,128.8,122.9,128.8z"/>
			</g>
		</g>
		<g>
			<rect x="256.1" y="44.6" class="st7" width="168.3" height="166.1"/>
			<g>
				<path class="st0" d="M379.1,137.4c-3.5-5.3-9.6-8.7-16-8.7c-0.3,0-0.6,0-1,0c-0.7,0-1.3-0.2-1.8-0.6c-3.7-2.7-8.1-4.2-12.8-4.2
					c-8.4,0-15.8,4.8-19.4,12.1c-0.4,0.8-1.2,1.4-2.1,1.6c-9.2,1.4-16.2,9.4-16.2,19c0,10.6,8.6,19.2,19.2,19.2h49.5
					c10.6,0,19.2-8.6,19.2-19.2C397.7,146.2,389.4,137.7,379.1,137.4z M378.5,168.2h-49.5c-6.4,0-11.6-5.2-11.6-11.6
					c0-6.4,5.2-11.6,11.6-11.6c0.3,0,0.6,0,1,0.1c1.9,0.1,3.5-1.1,4-2.9c1.6-6.2,7.1-10.6,13.6-10.6c3.7,0,7.1,1.4,9.8,4
					c0.9,0.9,2.2,1.3,3.4,1c0.8-0.2,1.6-0.2,2.4-0.2c4.5,0,8.5,2.5,10.5,6.6c0.7,1.4,2.2,2.3,3.8,2.1c0.4,0,0.8-0.1,1.2-0.1
					c6.4,0,11.6,5.2,11.6,11.6C390.1,163,384.9,168.2,378.5,168.2z"/>
				<path class="st0" d="M323.5,133.5c0.6-0.1,1.1-0.5,1.4-1c4-6.9,10.8-11.6,18.7-12.7c-2.4-1-4.9-1.6-7.6-1.6c-0.3,0-0.6,0-1,0
					c-0.7,0-1.3-0.2-1.8-0.6c-3.7-2.7-8.1-4.2-12.8-4.2c-8.4,0-15.8,4.8-19.4,12.1c-0.4,0.8-1.2,1.4-2.1,1.6
					c-9.2,1.4-16.2,9.4-16.2,19c0,10.6,8.6,19.2,19.2,19.2h5c-1.1-2.7-1.7-5.6-1.7-8.7C305.3,145.5,313,136,323.5,133.5z"/>
				<rect x="299.9" y="101.8" class="st0" width="7" height="9.4"/>
				<circle class="st0" cx="303.4" cy="88.5" r="8.9"/>
				<rect x="316.9" y="85" class="st0" width="9.4" height="7"/>
				<rect x="335.6" y="85" class="st0" width="9.4" height="7"/>
				<rect x="373.5" y="120.5" class="st0" width="7" height="9.4"/>
				<rect x="373.5" y="101.8" class="st0" width="7" height="9.4"/>
				<circle class="st0" cx="377" cy="88.5" r="8.9"/>
				<rect x="354.2" y="85" class="st0" width="9.4" height="7"/>
			</g>
		</g>
		<g>
			<rect x="466.2" y="44.2" class="st8" width="166.9" height="166.9"/>
			<g>
				<path class="st0" d="M565.3,156.7h-5v-33.2c0-2.5-2-4.5-4.5-4.5h-12.3c-2.5,0-4.5,2-4.5,4.5v33.2h-5c-1.1,0-2.2,0.7-2.7,1.7
					c-0.5,1-0.3,2.3,0.4,3.1l13.3,15.7c1.1,1.3,2.8,2.1,4.6,2.1c1.8,0,3.4-0.8,4.6-2.1l13.3-15.7c0.7-0.9,0.9-2.1,0.4-3.1
					C567.5,157.3,566.4,156.7,565.3,156.7z"/>
				<path class="st0" d="M586.8,95c-0.9-0.1-1.7-0.5-2.2-1.2c-5.1-6.8-13.2-11.1-21.8-11.1c-0.5,0-1.1,0-1.7,0.1
					c-0.7,0-1.4-0.2-2-0.6c-5.3-4-11.6-6.1-18.3-6.1c-12,0-22.6,6.9-27.5,17.4c-0.4,0.9-1.3,1.6-2.4,1.7
					c-13.2,1.8-23.4,13.2-23.4,26.8c0,14.9,12.2,27.1,27.1,27.1h19.2v-10.7h-19.2c-9.1,0-16.4-7.4-16.4-16.4
					c0-9.1,7.4-16.4,16.4-16.4c0.5,0,0.9,0,1.4,0.1c2.6,0.2,5-1.5,5.6-4c2.2-8.8,10.1-14.9,19.1-14.9c5.2,0,10.1,2,13.8,5.6
					c1.3,1.2,3.1,1.8,4.8,1.4c1.1-0.2,2.2-0.3,3.4-0.3c6.3,0,12,3.6,14.8,9.3c1,2,3.1,3.2,5.3,3c0.6-0.1,1.1-0.1,1.6-0.1
					c9.1,0,16.4,7.4,16.4,16.4c0,9.1-7.4,16.4-16.4,16.4h-19.2v10.7h19.2c14.9,0,27.1-12.2,27.1-27.1
					C611.6,107.9,600.7,96.2,586.8,95z"/>
			</g>
		</g>
		<g>
			<rect x="675.3" y="44.2" class="st9" width="166.9" height="166.9"/>
			<g>
				<path class="st0" d="M742.2,140.6h-6.4V91.5c0-3.2-2.6-5.8-5.8-5.8h-15.8c-3.2,0-5.8,2.6-5.8,5.8v49.1h-6.4
					c-1.5,0-2.8,0.9-3.4,2.2c-0.6,1.3-0.4,2.9,0.5,4l17.1,20.2c1.5,1.7,3.6,2.7,5.9,2.7c2.3,0,4.4-1,5.9-2.7l17.1-20.2
					c0.9-1.1,1.2-2.7,0.5-4C745,141.4,743.6,140.6,742.2,140.6z"/>
				<path class="st0" d="M815.8,85.7H756c-1.9,0-3.5,1.5-3.5,3.5v11.8c0,1.9,1.6,3.5,3.5,3.5h59.8c1.9,0,3.5-1.6,3.5-3.5V89.1
					C819.2,87.2,817.7,85.7,815.8,85.7z M758.8,93.9c-1.2,0-2.1-0.9-2.1-2.1c0-1.2,1-2.1,2.1-2.1c1.2,0,2.1,1,2.1,2.1
					C760.9,92.9,760,93.9,758.8,93.9z M810.1,100H795v-5h15.1V100z"/>
				<path class="st0" d="M815.8,106.3H756c-1.9,0-3.5,1.5-3.5,3.5v11.8c0,1.9,1.6,3.5,3.5,3.5h59.8c1.9,0,3.5-1.5,3.5-3.5v-11.8
					C819.2,107.8,817.7,106.3,815.8,106.3z M758.8,114.5c-1.2,0-2.1-1-2.1-2.1c0-1.2,1-2.1,2.1-2.1c1.2,0,2.1,1,2.1,2.1
					C760.9,113.5,760,114.5,758.8,114.5z M810.1,120.7H795v-5h15.1V120.7z"/>
				<path class="st0" d="M815.8,126.9H756c-1.9,0-3.5,1.5-3.5,3.5v11.8c0,1.9,1.6,3.5,3.5,3.5h59.8c1.9,0,3.5-1.5,3.5-3.5v-11.8
					C819.2,128.4,817.7,126.9,815.8,126.9z M758.8,135.1c-1.2,0-2.1-1-2.1-2.1c0-1.2,1-2.1,2.1-2.1c1.2,0,2.1,1,2.1,2.1
					C760.9,134.1,760,135.1,758.8,135.1z M810.1,141.3H795v-5h15.1V141.3z"/>
				<polygon class="st0" points="796.2,156.9 789.8,156.9 789.8,147.6 781.9,147.6 781.9,156.9 775.6,156.9 775.6,159.3 
					753.3,159.3 753.3,167.2 775.6,167.2 775.6,169.7 796.2,169.7 796.2,167.2 818.5,167.2 818.5,159.3 796.2,159.3 				"/>
			</g>
		</g>
		<g>
			<rect x="881.5" y="47.6" class="st10" width="166.1" height="166.1"/>
			<g>
				<path class="st0" d="M992.3,108.9h-32.8c-2.3,0-4.5,0.9-6.1,2.5l-20.7,20.7c-1.6,1.6-2.5,3.8-2.5,6.1v47.2
					c0,3.6,2.9,6.6,6.6,6.6h55.6c3.6,0,6.6-2.9,6.6-6.6v-70C998.9,111.9,996,108.9,992.3,108.9z M989.2,179.7c0,1.5-1.2,2.6-2.6,2.6
					h-44.1c-1.5,0-2.6-1.2-2.6-2.6v-45.1h10.6c3,0,5.4-2.4,5.4-5.4v-10.6h30.6c1.5,0,2.6,1.2,2.6,2.6V179.7z"/>
				<path class="st0" d="M1003.7,89.2c-0.9-0.1-1.8-0.6-2.4-1.3c-5.3-7.2-13.8-11.6-22.9-11.6c-0.6,0-1.1,0-1.7,0.1
					c-0.8,0-1.5-0.2-2.2-0.7c-5.5-4.2-12.2-6.4-19.2-6.4c-12.6,0-23.7,7.3-28.9,18.3c-0.5,1-1.4,1.7-2.5,1.8
					c-13.8,1.9-24.5,13.8-24.5,28.2c0,14.6,11.1,26.7,25.4,28.3v-7.7c0-3.8,1.5-7.3,4.1-10l20.7-20.7c2.6-2.6,6.3-4.1,10-4.1h32.8
					c6.7,0,12.1,5.4,12.1,12.1v30.4c14.2-1.6,25.4-13.7,25.4-28.3C1029.8,102.7,1018.3,90.4,1003.7,89.2z"/>
			</g>
		</g>
	</g>
	<g>
		<g>
			<rect x="49.1" y="492.1" class="st11" width="166.1" height="166.1"/>
			<g>
				<path class="st0" d="M155.1,582.1h-0.4c1.2-4.3,2.4-9.1,2.6-9.9c3.1-12.5-4.5-25.1-16.8-28.1c-12.3-3-24.9,4.6-27.9,17.1
					c-0.2,0.8-1.4,5.5-2.3,9.2c-0.2,0.8-0.1,1.7,0.4,2.4c0.4,0.7,1.1,1.2,2,1.4l2.4,0.6c1.7,0.4,3.4-0.6,3.8-2.3
					c0.9-3.7,2.1-8.4,2.3-9.2c1.9-7.7,9.7-12.5,17.3-10.6c7.6,1.9,12.3,9.7,10.4,17.4c-0.2,1-1.9,7.2-3.2,12h-36.5h0
					c-6,0-10.9,4.9-10.9,11v29.1c0,6.1,4.9,11,10.9,11h46.1c6,0,10.9-4.9,10.9-11v-29.1C166,587,161.1,582.1,155.1,582.1z
					 M136.3,607.9v9.1c0,2.3-1.9,4.2-4.2,4.2c-2.3,0-4.2-1.9-4.2-4.2v-9.1c-2-1.4-3.4-3.7-3.4-6.4c0-4.2,3.4-7.7,7.6-7.7
					c4.2,0,7.6,3.4,7.6,7.7C139.7,604.2,138.3,606.5,136.3,607.9z"/>
				<path class="st0" d="M165.1,533.9c-0.8-0.1-1.6-0.5-2.1-1.2c-4.5-6-11.7-9.8-19.3-9.8c-0.5,0-0.9,0-1.4,0
					c-0.7,0-1.4-0.2-1.9-0.6c-4.7-3.5-10.3-5.4-16.2-5.4c-10.6,0-19.9,6.1-24.3,15.4c-0.4,0.9-1.2,1.5-2.2,1.6
					c-11.6,1.7-20.6,11.7-20.6,23.8c0,12.3,9.3,22.5,21.2,23.9c2.7-2.6,6.3-4.2,10.3-4.3c-0.8-0.6-1.4-1.3-2-2.2
					c-0.5-0.9-0.9-1.8-1-2.8h-4.5c-8,0-14.6-6.5-14.6-14.6c0-8,6.5-14.6,14.6-14.6c0.4,0,0.8,0,1.2,0.1c2.3,0.2,4.4-1.3,5-3.6
					c2-7.8,8.9-13.3,17-13.3c4.6,0,8.9,1.8,12.2,5c1.1,1.1,2.7,1.6,4.3,1.2c1-0.2,2-0.3,3-0.3c5.6,0,10.6,3.2,13.1,8.2
					c0.9,1.8,2.8,2.9,4.7,2.6c0.5,0,1-0.1,1.5-0.1c8,0,14.6,6.5,14.6,14.6s-6.5,14.6-14.6,14.6h-0.9c-0.1,0.3-0.1,0.6-0.2,0.9
					c-0.1,0.5-0.7,2.5-1.3,5c2,0.7,3.8,1.9,5.3,3.3c11.9-1.4,21.2-11.6,21.2-23.8C187.1,545.3,177.4,534.9,165.1,533.9z"/>
			</g>
		</g>
		<g>
			<rect x="257.2" y="492.1" class="st7" width="166.1" height="166.1"/>
			<g>
				<path class="st0" d="M363.5,582.1c0-5,0-10.7,0-13.4c0-12.9-10.5-23.3-23.3-23.3c-12.8,0-23.3,10.5-23.3,23.3
					c0,2.7,0,8.4,0,13.4c-6.1,0-11,4.9-11,11v29.1c0,6.1,4.9,11,11,11h46.6c6.1,0,11-4.9,11-11v-29.1
					C374.5,587,369.6,582.1,363.5,582.1z M344.4,607.9v9.1c0,2.3-1.9,4.2-4.2,4.2c-2.3,0-4.2-1.9-4.2-4.2v-9.1
					c-2.1-1.4-3.4-3.7-3.4-6.4c0-4.2,3.4-7.7,7.7-7.7c4.2,0,7.7,3.4,7.7,7.7C347.9,604.2,346.5,606.5,344.4,607.9z M325.8,582.1
					c0-5,0-10.7,0-13.4c0-8,6.5-14.4,14.4-14.4c7.9,0,14.4,6.5,14.4,14.4c0,2.6,0,8.4,0,13.4H325.8z"/>
				<path class="st0" d="M373.3,533.9c-0.8-0.1-1.6-0.5-2.1-1.2c-4.5-6-11.7-9.8-19.3-9.8c-0.5,0-0.9,0-1.4,0
					c-0.7,0-1.4-0.2-1.9-0.6c-4.7-3.5-10.3-5.4-16.2-5.4c-10.6,0-19.9,6.1-24.3,15.4c-0.4,0.9-1.2,1.5-2.2,1.6
					c-11.6,1.7-20.6,11.7-20.6,23.8c0,12.2,9.1,22.3,20.9,23.8c1.7-1.6,3.8-2.8,6.1-3.6c0-2,0-4,0-5.7h-2.9c-8,0-14.6-6.5-14.6-14.6
					s6.5-14.6,14.6-14.6c0.4,0,0.8,0,1.2,0.1c2.3,0.2,4.4-1.3,5-3.6c2-7.8,8.9-13.3,17-13.3c4.6,0,8.9,1.8,12.2,5
					c1.1,1.1,2.7,1.6,4.3,1.2c1-0.2,2-0.3,3-0.3c5.6,0,10.6,3.2,13.1,8.2c0.9,1.8,2.8,2.9,4.7,2.6c0.5,0,1-0.1,1.5-0.1
					c8,0,14.6,6.5,14.6,14.6s-6.5,14.6-14.6,14.6h-2.9l0,5.7c2.3,0.7,4.4,2,6.1,3.6c11.8-1.5,20.9-11.6,20.9-23.8
					C395.2,545.3,385.5,534.9,373.3,533.9z"/>
			</g>
		</g>
		<g>
			<rect x="463.8" y="493.9" class="st12" width="166.9" height="166.9"/>
			<g>
				<path class="st0" d="M515,533.7h4.2v27.8c0,2.1,1.7,3.8,3.8,3.8h10.3c2.1,0,3.8-1.7,3.8-3.8v-27.8h4.2c1,0,1.8-0.6,2.2-1.4
					c0.4-0.9,0.3-1.9-0.4-2.6L532,516.5c-1-1.1-2.4-1.8-3.8-1.8c-1.5,0-2.9,0.6-3.8,1.8l-11.2,13.1c-0.6,0.7-0.8,1.8-0.4,2.6
					C513.2,533.2,514.1,533.7,515,533.7z"/>
				<path class="st0" d="M585.6,538.5h-45.3V552h40.9v51h-68.2v-51h2.3v-13.5h-6.7c-5,0-9,3.8-9,8.7v60c0,5,4,9.2,9,9.2h31.8v9.9
					h-11.8c-4.5,0-8.4,3.7-8.4,8.2v5.3h53.9v-5.3c0-4.5-3.5-8.2-8-8.2h-12.2v-9.9h31.7c5,0,9.1-4.2,9.1-9.2v-60
					C594.7,542.3,590.6,538.5,585.6,538.5z"/>
				<path class="st0" d="M556.9,580c-4.2,0-7.7,2.6-7.7,5.8c0,3.2,3.4,5.8,7.7,5.8c4.2,0,7.7-2.6,7.7-5.8c0-0.1,0-14.8,0-23
					c0-1.2-0.6-2.4-1.6-3.1c-1-0.7-2.3-0.9-3.5-0.5l-16.8,5.7c-2.2,0.7-3.6,2.7-3.6,5l-0.1,14.8c-0.5-0.1-0.9-0.1-1.4-0.1
					c-4.2,0-7.7,2.6-7.7,5.8c0,3.2,3.4,5.8,7.7,5.8c4.2,0,7.7-2.6,7.7-5.8V576c0-0.9,0.6-1.8,1.5-2.1l9.8-3.3
					c0.4-0.1,0.9-0.1,1.2,0.2c0.4,0.3,0.6,0.7,0.6,1.1v8.2C557.8,580,557.4,580,556.9,580z"/>
			</g>
		</g>
		<g>
			<rect x="673.4" y="494.3" class="st13" width="166.1" height="166.1"/>
			<g>
				<path class="st0" d="M785.8,561.4h-58.7c-3.8,0-6.8,2.9-6.8,6.6v45.8c0,3.8,3.1,7,6.8,7h24.2v7.6h-9c-3.4,0-6.4,2.8-6.4,6.2v4
					H777v-4c0-3.4-2.6-6.2-6.1-6.2h-9.3v-7.6h24.2c3.8,0,6.9-3.2,6.9-7v-45.8C792.7,564.3,789.5,561.4,785.8,561.4z M782.4,610.6
					h-52v-38.9h0.2h51.8V610.6z"/>
				<path class="st0" d="M795.6,535.9c-0.9-0.1-1.8-0.6-2.3-1.3c-5.3-7.2-13.9-11.7-23-11.7c-0.6,0-1.2,0-1.7,0.1
					c-0.8,0-1.5-0.2-2.1-0.6c-5.5-4.2-12.3-6.5-19.3-6.5c-12.6,0-23.8,7.3-29,18.4c-0.5,1-1.4,1.7-2.5,1.8
					c-13.9,1.9-24.6,13.9-24.6,28.3c0,14,10.2,25.7,23.5,28.1v-11.5c-7.1-2.2-12.3-8.8-12.3-16.5c0-9.5,7.8-17.3,17.3-17.3
					c0.5,0,1,0,1.4,0.1c2.7,0.2,5.2-1.6,5.9-4.2c2.3-9.3,10.6-15.7,20.2-15.7c5.5,0,10.6,2.1,14.5,5.9c1.3,1.3,3.2,1.9,5.1,1.5
					c1.2-0.2,2.4-0.4,3.5-0.4c6.7,0,12.6,3.8,15.6,9.8c1,2.1,3.3,3.4,5.6,3.2c0.6-0.1,1.2-0.1,1.7-0.1c9.5,0,17.3,7.8,17.3,17.3
					c0,7.8-5.2,14.4-12.3,16.5v11.5c13.3-2.4,23.5-14.1,23.5-28.1C821.8,549.5,810.3,537.2,795.6,535.9z"/>
				<g>
					<path class="st0" d="M770.5,591.2c-1-6.9-6.9-12.3-14-12.8v-1c0-0.4-0.2-0.8-0.6-1c-0.4-0.2-0.8-0.1-1.2,0.1l-5.1,3.8
						c-0.3,0.2-0.4,0.5-0.4,0.9c0,0.3,0.2,0.7,0.4,0.9l5.1,3.8c0.3,0.3,0.8,0.3,1.2,0.1c0.4-0.2,0.6-0.6,0.6-1v-1
						c4.3,0.4,7.7,3.6,8.5,7.8c0.2,0.9,0.9,1.5,1.8,1.5h1.9c0.5,0,1.1-0.2,1.4-0.6C770.4,592.2,770.5,591.7,770.5,591.2z"/>
					<path class="st0" d="M758.2,596.2c-0.3-0.3-0.8-0.3-1.2-0.1c-0.4,0.2-0.6,0.6-0.6,1v1c-4.3-0.4-7.7-3.6-8.5-7.8
						c-0.2-0.9-0.9-1.5-1.8-1.5h-1.9c-0.5,0-1.1,0.2-1.4,0.6c-0.4,0.4-0.5,1-0.4,1.5c1,6.9,6.9,12.3,14,12.8v1c0,0.4,0.2,0.8,0.6,1
						c0.4,0.2,0.8,0.1,1.2-0.1l5.1-3.8c0.3-0.2,0.4-0.5,0.4-0.9s-0.2-0.7-0.4-0.9L758.2,596.2z"/>
				</g>
			</g>
		</g>
		<g>
			<rect x="884.3" y="493.9" class="st14" width="166.9" height="166.9"/>
			<g>
				<path class="st0" d="M988,553.8h-40.4c-2.8,0-5.3,2.4-5.3,5.2v70.8c0,2.8,2.5,5,5.3,5h0.1h40.2h0.1c2.8,0,5.2-2.2,5.2-5V559
					C993.2,556.2,990.8,553.8,988,553.8z M983.2,614.3h-30.5v-50.5h30.5V614.3z"/>
				<path class="st0" d="M1004.7,538.7c-0.9-0.1-1.7-0.5-2.2-1.2c-5-6.8-13.1-11-21.7-11c-0.5,0-1.1,0-1.6,0.1c-0.7,0-1.4-0.2-2-0.6
					c-5.2-3.9-11.5-6.1-18.2-6.1c-11.9,0-22.4,6.9-27.3,17.3c-0.4,0.9-1.3,1.6-2.3,1.7c-13.1,1.8-23.2,13.1-23.2,26.7
					c0,14.8,12.1,26.9,26.9,26.9h3.9v-10.6h-3.9c-9,0-16.3-7.3-16.3-16.3s7.3-16.3,16.3-16.3c0.5,0,0.9,0,1.3,0.1
					c2.6,0.2,4.9-1.5,5.6-4c2.2-8.7,10-14.8,19-14.8c5.1,0,10,2,13.7,5.6c1.3,1.2,3.1,1.8,4.8,1.4c1.1-0.2,2.2-0.3,3.3-0.3
					c6.3,0,11.9,3.5,14.7,9.2c1,2,3.1,3.2,5.3,3c0.6-0.1,1.1-0.1,1.6-0.1c9,0,16.3,7.3,16.3,16.3c0,9-7.3,16.3-16.3,16.3h-3.9v10.6
					h3.9c14.8,0,26.9-12.1,26.9-26.9C1029.3,551.5,1018.5,539.9,1004.7,538.7z"/>
			</g>
		</g>
	</g>
</g>
</svg>
