<svg height="512pt" viewBox="-48 0 512 512.00002" width="512pt" xmlns="http://www.w3.org/2000/svg"><path d="m153.199219 115.996094c-4.28125 0-7.75-3.472656-7.75-7.75v-55.796875c0-4.277344 3.46875-7.75 7.75-7.75s7.75 3.472656 7.75 7.75v55.796875c0 4.277344-3.46875 7.75-7.75 7.75zm0 0" fill="#838383"/><path d="m153.199219 270.988281c-4.28125 0-7.75-3.46875-7.75-7.746093v-97.898438c0-4.28125 3.46875-7.75 7.75-7.75s7.75 3.46875 7.75 7.75v97.898438c0 4.277343-3.46875 7.746093-7.75 7.746093zm0 0" fill="#838383"/><path d="m153.199219 341.457031c-4.28125 0-7.75-3.46875-7.75-7.746093v-44.648438c0-4.277344 3.46875-7.746094 7.75-7.746094s7.75 3.46875 7.75 7.746094v44.648438c0 4.277343-3.46875 7.746093-7.75 7.746093zm0 0" fill="#838383"/><path d="m153.199219 447.523438c-4.28125 0-7.75-3.472657-7.75-7.75v-25.140626h-132.535157c-7.121093 0-12.914062-5.792968-12.914062-12.917968v-255.058594c0-7.121094 5.792969-12.914062 12.914062-12.914062h87.195313c4.28125 0 7.75 3.46875 7.75 7.75 0 4.277343-3.46875 7.746093-7.75 7.746093h-84.609375v249.894531h132.53125c7.125 0 12.917969 5.792969 12.917969 12.917969v27.722657c0 4.28125-3.46875 7.75-7.75 7.75zm0 0" fill="#838383"/><path d="m251.296875 468.703125h-19.632813c-2.851562 0-5.164062-2.3125-5.164062-5.164063v-18.597656c0-2.855468 2.3125-5.167968 5.164062-5.167968h19.632813c2.855469 0 5.167969 2.3125 5.167969 5.167968v18.597656c0 2.851563-2.3125 5.164063-5.167969 5.164063zm0 0" fill="#0396fd"/><path d="m251.296875 468.703125h-9.816406v-28.929687h9.816406c2.855469 0 5.167969 2.3125 5.167969 5.164062v18.597656c0 2.855469-2.3125 5.167969-5.167969 5.167969zm0 0" fill="#0077f0"/><path d="m193.765625 471.433594c0 22.402344-18.164063 40.566406-40.566406 40.566406-22.40625 0-40.566407-18.164062-40.566407-40.566406 0-22.40625 18.160157-40.566406 40.566407-40.566406 22.402343 0 40.566406 18.160156 40.566406 40.566406zm0 0" fill="#ff5770"/><path d="m193.769531 471.429688c0 22.410156-18.164062 40.566406-40.574219 40.566406-10.414062 0-19.910156-3.925782-27.101562-10.386719 2.210938.375 4.484375.570313 6.808594.570313 22.402344 0 40.566406-18.15625 40.566406-40.566407 0-11.984375-5.199219-22.75-13.464844-30.179687 19.167969 3.246094 33.765625 19.921875 33.765625 39.996094zm0 0" fill="#ff435f"/><path d="m233.746094 299.804688h-161.09375c-3.269532 0-5.921875-2.652344-5.921875-5.921876v-39.609374c0-3.269532 2.652343-5.921876 5.921875-5.921876h161.09375c3.269531 0 5.917968 2.652344 5.917968 5.921876v39.609374c0 3.269532-2.648437 5.921876-5.917968 5.921876zm0 0" fill="#64dcfc"/><path d="m233.746094 376.980469h-161.09375c-3.269532 0-5.921875-2.652344-5.921875-5.917969v-39.613281c0-3.269531 2.652343-5.917969 5.921875-5.917969h161.09375c3.269531 0 5.917968 2.648438 5.917968 5.917969v39.613281c0 3.265625-2.648437 5.917969-5.917968 5.917969zm0 0" fill="#64dcfc"/><path d="m233.746094 299.804688h-14.15625v-51.453126h14.15625c3.269531 0 5.917968 2.652344 5.917968 5.921876v39.609374c0 3.269532-2.648437 5.921876-5.917968 5.921876zm0 0" fill="#00d1fc"/><path d="m233.746094 376.980469h-14.15625v-51.449219h14.15625c3.269531 0 5.917968 2.648438 5.917968 5.917969v39.613281c0 3.265625-2.648437 5.917969-5.917968 5.917969zm0 0" fill="#00d1fc"/><path d="m152.210938 99.933594-67.90625 39.777344c-1.363282.796874-1.363282 2.765624 0 3.5625l67.90625 39.777343 67.902343-39.777343c1.363281-.796876 1.363281-2.765626 0-3.5625zm0 0" fill="#ffd86e"/><path d="m220.113281 143.277344-67.898437 39.773437-19.3125-11.316406 70.953125-41.546875 16.257812 9.523438c1.363281.796874 1.363281 2.765624 0 3.566406zm0 0" fill="#ffb509"/><path d="m247.273438 60.355469h-188.152344c-4.0625 0-7.355469-3.292969-7.355469-7.355469v-45.644531c0-4.0625 3.292969-7.355469 7.355469-7.355469h188.152344c4.0625 0 7.359374 3.292969 7.359374 7.355469v45.644531c0 4.0625-3.296874 7.355469-7.359374 7.355469zm0 0" fill="#0396fd"/><path d="m247.273438 60.355469h-18.042969v-60.355469h18.042969c4.0625 0 7.359374 3.292969 7.359374 7.355469v45.644531c0 4.0625-3.296874 7.355469-7.359374 7.355469zm0 0" fill="#0077f0"/><path d="m251.296875 211.816406h-19.632813c-2.851562 0-5.164062-2.3125-5.164062-5.167968v-18.597657c0-2.851562 2.3125-5.164062 5.164062-5.164062h19.632813c2.855469 0 5.167969 2.3125 5.167969 5.164062v18.597657c0 2.855468-2.3125 5.167968-5.167969 5.167968zm0 0" fill="#0396fd"/><path d="m251.296875 211.816406h-9.816406v-28.929687h9.816406c2.855469 0 5.167969 2.3125 5.167969 5.164062v18.597657c0 2.855468-2.3125 5.167968-5.167969 5.167968zm0 0" fill="#0077f0"/><g fill="#838383"><path d="m319.148438 227.832031h-35.820313c-4.28125 0-7.75-3.472656-7.75-7.75 0-4.277343 3.46875-7.75 7.75-7.75h35.820313c4.277343 0 7.746093 3.472657 7.746093 7.75 0 4.277344-3.46875 7.75-7.746093 7.75zm0 0"/><path d="m407.316406 227.832031h-68.644531c-4.277344 0-7.746094-3.472656-7.746094-7.75 0-4.277343 3.46875-7.75 7.746094-7.75h68.644531c4.28125 0 7.75 3.472657 7.75 7.75 0 4.277344-3.46875 7.75-7.75 7.75zm0 0"/><path d="m298.585938 202.304688h-15.257813c-4.28125 0-7.75-3.46875-7.75-7.75 0-4.277344 3.46875-7.746094 7.75-7.746094h15.257813c4.28125 0 7.75 3.46875 7.75 7.746094 0 4.28125-3.46875 7.75-7.75 7.75zm0 0"/><path d="m406.609375 202.304688h-24.414063c-4.28125 0-7.75-3.46875-7.75-7.75 0-4.277344 3.46875-7.746094 7.75-7.746094h24.414063c4.28125 0 7.75 3.46875 7.75 7.746094 0 4.28125-3.46875 7.75-7.75 7.75zm0 0"/><path d="m362.882812 202.304688h-45.640624c-4.277344 0-7.75-3.46875-7.75-7.75 0-4.277344 3.472656-7.746094 7.75-7.746094h45.640624c4.277344 0 7.75 3.46875 7.75 7.746094 0 4.28125-3.472656 7.75-7.75 7.75zm0 0"/><path d="m319.148438 484.71875h-35.820313c-4.28125 0-7.75-3.46875-7.75-7.75 0-4.277344 3.46875-7.746094 7.75-7.746094h35.820313c4.277343 0 7.746093 3.46875 7.746093 7.746094 0 4.28125-3.46875 7.75-7.746093 7.75zm0 0"/><path d="m407.316406 484.71875h-68.644531c-4.277344 0-7.746094-3.46875-7.746094-7.75 0-4.277344 3.46875-7.746094 7.746094-7.746094h68.644531c4.28125 0 7.75 3.46875 7.75 7.746094 0 4.28125-3.46875 7.75-7.75 7.75zm0 0"/><path d="m298.585938 459.191406h-15.257813c-4.28125 0-7.75-3.46875-7.75-7.746094 0-4.28125 3.46875-7.75 7.75-7.75h15.257813c4.28125 0 7.75 3.46875 7.75 7.75 0 4.277344-3.46875 7.746094-7.75 7.746094zm0 0"/><path d="m406.609375 459.191406h-24.414063c-4.28125 0-7.75-3.46875-7.75-7.746094 0-4.28125 3.46875-7.75 7.75-7.75h24.414063c4.28125 0 7.75 3.46875 7.75 7.75 0 4.277344-3.46875 7.746094-7.75 7.746094zm0 0"/><path d="m362.882812 459.191406h-45.640624c-4.277344 0-7.75-3.46875-7.75-7.746094 0-4.28125 3.472656-7.75 7.75-7.75h45.640624c4.277344 0 7.75 3.46875 7.75 7.75 0 4.277344-3.472656 7.746094-7.75 7.746094zm0 0"/></g></svg>