<svg height="493pt" viewBox="0 -21 493.13119 493" width="493pt" xmlns="http://www.w3.org/2000/svg"><path d="m363.019531 63.515625c.886719-35.757813 30.476563-64.097656 66.238281-63.4375 35.765626.65625 64.292969 30.058594 63.867188 65.828125s-29.644531 64.484375-65.414062 64.289062c-35.769532-.195312-64.675782-29.226562-64.710938-65 0-.558593.007812-1.117187.019531-1.679687zm0 0" fill="#00acea"/><path d="m493 225.195312c0 35.898438-29.101562 65-65 65s-65-29.101562-65-65c0-35.898437 29.101562-65 65-65s65 29.101563 65 65zm0 0" fill="#00efd1"/><path d="m363.019531 386.847656c-.011719-.550781-.019531-1.101562-.019531-1.652344.019531-35.714843 28.871094-64.714843 64.585938-64.921874 35.714843-.207032 64.898437 28.460937 65.332031 64.175781.433593 35.710937-28.046875 65.078125-63.757813 65.738281-35.710937.65625-65.253906-27.636719-66.140625-63.339844zm0 0" fill="#00acea"/><path d="m126.390625 98.808594c53.128906-.003906 100.589844 33.226562 118.765625 83.152344 18.171875 49.929687 3.179688 105.890624-37.515625 140.046874-.339844-21.058593-17.507813-37.953124-38.570313-37.949218h-19.859374v-10.710938c5.128906-3.808594 9.957031-8.007812 14.4375-12.558594 9.921874-9.921874 18.660156-21.410156 24.109374-34.410156 6.511719-15.550781 7.261719-32.683594.910157-48.421875-3.75-9.289062-11.777344-18.449219-23.007813-15.78125l-.320312-.96875c-4.238282-10.398437-12.03125-18.953125-21.992188-24.140625-10.519531-5.261718-22.65625-6.285156-33.910156-2.859375-18.316406 5.289063-34.378906 17.648438-42.949219 34.839844-4.902343 9.945313-7.210937 20.964844-6.710937 32.039063 1.191406 28.800781 17.652344 56.890624 43.5 70.121093v12.851563h-19.578125c-21.058594 0-38.222657 16.890625-38.558594 37.949218-40.699219-34.15625-55.691406-90.117187-37.515625-140.046874 18.171875-49.925782 65.632812-83.15625 118.765625-83.152344zm0 0" fill="#00acea"/><path d="m169.070312 284.058594c21.0625-.003906 38.230469 16.890625 38.570313 37.949218-46.988281 39.4375-115.515625 39.4375-162.5 0 .335937-21.058593 17.5-37.949218 38.558594-37.949218h19.578125v.730468c0 12.679688 10.285156 22.964844 22.96875 22.964844 12.679687 0 22.964844-10.285156 22.964844-22.964844v-.730468zm0 0" fill="#00efd1"/><path d="m188.667969 177.957031c6.351562 15.738281 5.601562 32.871094-.910157 48.421875-5.449218 13-14.1875 24.488282-24.109374 34.410156-4.480469 4.550782-9.308594 8.75-14.4375 12.558594v-8.980468c14.332031-8.425782 23.128906-23.8125 23.117187-40.441407v-18.910156l.070313-4.457031c.230468-10.679688-4.96875-20.746094-13.808594-26.742188-3.503906-2.367187-7.496094-3.910156-11.679688-4.519531-22.839844 41.808594-63.910156 45.832031-65.511718 45.96875h-.097657c-.304687 0-.59375.121094-.808593.335937-.214844.214844-.332032.503907-.332032.804688v8.101562c-.007812 16.496094 8.8125 31.734376 23.117188 39.949219v6.75c-25.847656-13.230469-42.308594-41.320312-43.5-70.121093-.5-11.074219 1.808594-22.09375 6.710937-32.039063 8.570313-17.191406 24.632813-29.550781 42.949219-34.839844 11.253906-3.425781 23.390625-2.402343 33.910156 2.859375 9.960938 5.1875 17.753906 13.742188 21.992188 24.140625l.320312.96875c11.230469-2.667969 19.257813 6.492188 23.007813 15.78125zm0 0" fill="#4b5d63"/><path d="m103.277344 264.457031c-14.304688-8.214843-23.125-23.453125-23.117188-39.949219v-8.101562c0-.300781.117188-.589844.332032-.804688.214843-.214843.503906-.335937.808593-.335937h.097657c1.601562-.136719 42.671874-4.160156 65.511718-45.96875 4.183594.609375 8.175782 2.152344 11.679688 4.519531 8.839844 5.996094 14.039062 16.0625 13.808594 26.742188l-.070313 4.457031v18.910156c.011719 16.628907-8.785156 32.015625-23.117187 40.441407-6.859376 4.027343-14.660157 6.171874-22.613282 6.21875-8.179687.078124-16.234375-2.039063-23.320312-6.128907zm0 0" fill="#f7caa5"/><path d="m149.210938 284.058594v.730468c0 12.679688-10.285157 22.964844-22.964844 22.964844-12.683594 0-22.96875-10.285156-22.96875-22.964844v-20.332031c7.085937 4.089844 15.140625 6.207031 23.320312 6.128907 7.953125-.046876 15.753906-2.191407 22.613282-6.21875zm0 0" fill="#edb288"/><path d="m436.484375 225.195312 10.476563-10.476562c2.34375-2.34375 2.34375-6.140625 0-8.484375s-6.140626-2.34375-8.484376 0l-10.476562 10.476563-10.476562-10.476563c-2.34375-2.34375-6.144532-2.34375-8.488282 0-2.339844 2.34375-2.34375 6.140625 0 8.484375l10.480469 10.476562-10.480469 10.480469c-2.34375 2.34375-2.339844 6.140625 0 8.484375 2.34375 2.34375 6.144532 2.34375 8.488282 0l10.476562-10.476562 10.476562 10.476562c2.34375 2.34375 6.140626 2.34375 8.484376 0s2.34375-6.140625 0-8.484375zm0 0" fill="#00acea"/><g fill="#fedb41"><path d="m420.472656 85.808594c-1.679687 0-3.277344-.699219-4.414062-1.933594l-16.847656-18.269531c-1.480469-1.570313-2-3.816407-1.363282-5.878907.632813-2.058593 2.328125-3.621093 4.433594-4.089843 2.105469-.464844 4.300781.234375 5.746094 1.832031l12.800781 13.875 27.5-25.179688c2.457031-2.152343 6.179687-1.949218 8.382813.460938 2.203124 2.40625 2.078124 6.132812-.28125 8.386719l-31.910157 29.21875c-1.105469 1.015625-2.550781 1.578125-4.046875 1.578125zm0 0"/><path d="m420.472656 405.808594c-1.679687 0-3.277344-.699219-4.414062-1.933594l-16.847656-18.269531c-1.480469-1.570313-2-3.816407-1.363282-5.878907.632813-2.058593 2.328125-3.621093 4.433594-4.089843 2.105469-.464844 4.300781.234375 5.746094 1.832031l12.800781 13.875 27.5-25.179688c1.574219-1.503906 3.835937-2.039062 5.914063-1.398437 2.078124.640625 3.648437 2.355469 4.101562 4.480469.453125 2.128906-.277344 4.332031-1.914062 5.765625l-31.910157 29.21875c-1.105469 1.015625-2.550781 1.578125-4.046875 1.578125zm0 0"/><path d="m364.5 69.195312v-12h-33.699219c-3.433593.128907-6.1875 2.886719-6.300781 6.320313v155.679687h-40.046875l20.808594-20.816406c2.34375-2.34375 2.347656-6.140625.003906-8.488281-2.34375-2.34375-6.144531-2.347656-8.488281-.003906l-30 30c-2.34375 2.34375-2.34375 6.140625 0 8.484375l30 30c2.363281 2.203125 6.046875 2.140625 8.332031-.140625 2.285156-2.285157 2.351563-5.96875.152344-8.335938l-18.707031-18.699219h37.945312v155.652344c.113281 3.441406 2.859375 6.210938 6.300781 6.347656h33.699219v-12h-28v-150h24v-12h-24v-150zm0 0"/></g></svg>