<svg height="512pt" viewBox="0 -26 512.00001 512" width="512pt" xmlns="http://www.w3.org/2000/svg"><path d="m461.878906 348.28125h-411.757812c-6.398438 0-11.582032-5.1875-11.582032-11.582031v-213.8125c0-6.398438 5.1875-11.582031 11.582032-11.582031h411.757812c6.394532 0 11.578125 5.1875 11.578125 11.582031v213.8125c0 6.394531-5.183593 11.582031-11.578125 11.582031zm0 0" fill="#8bebdb"/><path d="m473.460938 122.882812v213.8125c0 6.402344-5.183594 11.585938-11.585938 11.585938h-23.007812c6.390624 0 11.574218-5.183594 11.574218-11.585938v-213.8125c0-6.390624-5.183594-11.574218-11.574218-11.574218h23.007812c6.402344 0 11.585938 5.183594 11.585938 11.574218zm0 0" fill="#5ee2c5"/><path d="m431.734375 188.4375v82.710938c0 2.589843-2.054687 4.707031-4.640625 4.785156-.800781.019531-1.613281.074218-2.429688.148437-13.710937 1.253907-25.082031 11.605469-27.34375 25.1875-.269531 1.617188-.433593 3.195313-.488281 4.738281-.09375 2.539063-2.242187 4.515626-4.78125 4.515626h-272.785156c-2.539063 0-4.6875-1.976563-4.78125-4.515626-.054687-1.542968-.21875-3.121093-.488281-4.734374-2.257813-13.578126-13.621094-23.929688-27.328125-25.191407-.824219-.074219-1.636719-.128906-2.445313-.148437-2.585937-.078125-4.640625-2.195313-4.640625-4.785156v-82.710938c0-2.589844 2.054688-4.707031 4.640625-4.785156.808594-.023438 1.621094-.074219 2.445313-.148438 13.707031-1.261718 25.070312-11.613281 27.328125-25.191406.269531-1.613281.433594-3.191406.488281-4.734375.09375-2.539063 2.242187-4.515625 4.78125-4.515625h272.785156c2.539063 0 4.6875 1.976562 4.78125 4.515625.054688 1.542969.21875 3.121094.488281 4.738281 2.261719 13.582032 13.632813 23.933594 27.34375 25.1875.816407.074219 1.625.125 2.429688.148438 2.585938.078125 4.640625 2.195312 4.640625 4.785156zm0 0" fill="#00b7a0"/><path d="m431.730469 188.4375v82.714844c0 2.582031-2.050781 4.703125-4.640625 4.773437-.796875.03125-1.609375.082031-2.421875.152344-13.71875 1.253906-25.082031 11.605469-27.351563 25.191406-.261718 1.617188-.433594 3.195313-.484375 4.742188-.089843 2.53125-2.238281 4.511719-4.78125 4.511719h-22.679687c2.542968 0 4.691406-1.976563 4.785156-4.511719.058594-1.546875.21875-3.125.492188-4.742188 1.136718-6.78125 4.632812-13.019531 9.773437-17.578125 4.191406-3.714844 9.089844-6.679687 13.265625-10.378906 5.386719-4.769531 8.140625-9.242188 10.226562-16.046875 1.691407-5.523437 1.023438-11.753906 1.671876-17.460937.726562-6.34375.074218-12.753907.023437-19.113282-.101563-12.34375-1.15625-25.058594-9.945313-34.574218-3.292968-3.5625-6.660156-4.433594-10.78125-6.9375-7.492187-4.542969-12.777343-12.21875-14.238281-20.867188-.269531-1.605469-.429687-3.195312-.492187-4.730469-.089844-2.542969-2.238282-4.523437-4.78125-4.523437h22.679687c2.542969 0 4.691407 1.980468 4.78125 4.523437.050781 1.535157.222657 3.125.484375 4.734375 2.269532 13.582032 13.632813 23.933594 27.347656 25.1875.816407.082032 1.628907.132813 2.421876.152344 2.59375.070312 4.644531 2.1875 4.644531 4.78125zm0 0" fill="#009a8e"/><path d="m307.71875 229.792969c0 28.5625-23.15625 51.71875-51.71875 51.71875s-51.71875-23.15625-51.71875-51.71875 23.15625-51.71875 51.71875-51.71875 51.71875 23.15625 51.71875 51.71875zm0 0" fill="#fa0"/><path d="m307.71875 229.792969c0 28.5625-23.160156 51.71875-51.71875 51.71875-11.886719 0-22.839844-4.007813-31.570312-10.75 4.054687 1.03125 8.308593 1.570312 12.683593 1.570312 28.5625 0 51.71875-23.144531 51.71875-51.71875 0-16.679687-7.890625-31.511719-20.152343-40.96875 22.433593 5.652344 39.039062 25.960938 39.039062 50.148438zm0 0" fill="#ff9500"/><path d="m328.410156 69.054688 80.648438 57.382812c1.503906 1.070312 3.59375-.007812 3.59375-1.855469v-34.492187c0-1.257813 1.019531-2.273438 2.277344-2.273438 6.53125 0 13.097656-.851562 19.621093-.742187 23.300781.390625 49.820313-2.246094 64.625 20.265625 1.683594 2.5625 5.667969 1.109375 5.261719-1.929688-.929688-6.957031-2.78125-15.632812-6.429688-24.425781-9.78125-23.585937-33.207031-38.625-58.738281-38.625h-24.34375c-1.257812 0-2.273437-1.015625-2.273437-2.273437v-30.269532c0-1.847656-2.089844-2.925781-3.59375-1.851562l-80.648438 57.382812c-1.273437.90625-1.273437 2.796875 0 3.707032zm0 0" fill="#ff5426"/><path d="m500.882812 108.578125c-.804687-2.613281-1.75-5.277344-2.855468-7.960937-5.804688-14.09375-16.929688-25.640626-30.628906-32.261719-16.3125-7.886719-30.171876-4.3125-47.320313-4.664063-4.046875-.082031-15.4375.964844-17.019531-3.816406-.453125-1.363281-.273438-2.84375-.292969-4.277344-.207031-14.507812-13.1875-13.226562-22.925781-7.351562-6.289063 3.796875-11.878906 8.542968-17.847656 12.796875-7.472657 5.324219-14.949219 10.636719-22.421876 15.953125l-11.152343-7.9375c-1.277344-.914063-1.277344-2.804688 0-3.707032l80.644531-57.386718c1.5-1.074219 3.589844 0 3.589844 1.847656v30.277344c0 1.253906 1.023437 2.269531 2.28125 2.269531h24.335937c25.53125 0 48.964844 15.042969 58.742188 38.625 3.644531 8.792969 5.496093 17.472656 6.429687 24.425781.289063 2.222656-1.773437 3.597656-3.558594 3.167969zm0 0" fill="#f04424"/><path d="m183.585938 390.535156-80.644532-57.382812c-1.503906-1.074219-3.59375.003906-3.59375 1.855468v34.488282c0 1.257812-1.019531 2.277344-2.277344 2.277344-6.535156 0-13.097656.851562-19.621093.742187-23.300781-.390625-49.820313 2.246094-64.625-20.265625-1.683594-2.5625-5.667969-1.113281-5.261719 1.929688.929688 6.953124 2.78125 15.628906 6.429688 24.425781 9.78125 23.582031 33.207031 38.621093 58.738281 38.621093h24.34375c1.257812 0 2.273437 1.019532 2.273437 2.277344v30.265625c0 1.851563 2.089844 2.925781 3.59375 1.855469l80.648438-57.382812c1.273437-.90625 1.273437-2.800782-.003906-3.707032zm0 0" fill="#ff5426"/><path d="m11.117188 351.011719c.804687 2.609375 1.75 5.273437 2.855468 7.957031 5.804688 14.09375 16.929688 25.644531 30.628906 32.265625 16.308594 7.882813 30.171876 4.3125 47.320313 4.660156 4.046875.085938 15.4375-.964843 17.019531 3.820313.453125 1.363281.273438 2.839844.292969 4.277344.207031 14.507812 13.1875 13.226562 22.925781 7.351562 6.289063-3.796875 11.878906-8.546875 17.847656-12.796875 7.472657-5.324219 14.945313-10.640625 22.421876-15.953125l11.152343 7.9375c1.277344.914062 1.277344 2.800781 0 3.707031l-80.644531 57.382813c-1.5 1.078125-3.589844 0-3.589844-1.847656v-30.273438c0-1.257812-1.023437-2.273438-2.28125-2.273438h-24.332031c-25.535156 0-48.964844-15.039062-58.742187-38.625-3.648438-8.789062-5.496094-17.472656-6.429688-24.425781-.292969-2.222656 1.765625-3.597656 3.554688-3.164062zm0 0" fill="#f04424"/><path d="m404.753906 157.078125c-.214844-1.285156-.347656-2.554687-.390625-3.773437-.242187-6.605469-5.648437-11.777344-12.3125-11.777344h-272.785156c-6.664063 0-12.070313 5.171875-12.3125 11.777344-.042969 1.214843-.175781 2.484374-.390625 3.769531-1.695312 10.1875-10.160156 17.96875-20.585938 18.925781-.679687.0625-1.34375.105469-1.972656.121094-6.703125.195312-11.957031 5.605468-11.957031 12.316406v35.832031c0 4.164063 3.375 7.535157 7.535156 7.535157 4.164063 0 7.539063-3.375 7.539063-7.535157v-33.238281c.078125-.007812.15625-.015625.234375-.019531 17.242187-1.585938 31.253906-14.523438 34.074219-31.457031.164062-.988282.296874-1.976563.394531-2.957032h267.664062c.097657.980469.230469 1.96875.398438 2.960938 2.820312 16.9375 16.839843 29.871094 34.09375 31.453125.070312.003906.144531.011719.214843.019531v77.523438c-.074218.007812-.144531.015624-.21875.019531-17.25 1.582031-31.269531 14.515625-34.089843 31.457031-.164063.988281-.296875 1.976562-.398438 2.957031h-267.660156c-.097656-.976562-.230469-1.964843-.394531-2.953125-2.820313-16.9375-16.835938-29.875-34.078125-31.457031-.078125-.007813-.15625-.015625-.234375-.023437v-9.320313c0-4.160156-3.375-7.535156-7.535156-7.535156-4.164063 0-7.535157 3.375-7.535157 7.535156v11.914063c0 6.710937 5.25 12.121093 11.945313 12.316406.648437.019531 1.316406.058594 1.980468.121094 10.425782.960937 18.890626 8.742187 20.589844 18.925781.214844 1.285156.34375 2.554687.386719 3.769531.242187 6.605469 5.648437 11.777344 12.316406 11.777344h272.78125c6.664063 0 12.074219-5.171875 12.3125-11.777344.046875-1.21875.175781-2.488281.390625-3.773438 1.699219-10.1875 10.167969-17.96875 20.597656-18.921874.679688-.0625 1.339844-.101563 1.964844-.121094 6.703125-.195313 11.953125-5.605469 11.953125-12.316406v-82.710938c0-6.710938-5.25-12.117188-11.953125-12.316406-.625-.015625-1.285156-.058594-1.964844-.121094-10.433593-.953125-18.902343-8.734375-20.597656-18.921875zm0 0"/><path d="m134.519531 237.328125c4.160157 0 7.535157-3.375 7.535157-7.535156 0-4.164063-3.375-7.535157-7.535157-7.535157h-14.007812c-4.164063 0-7.535157 3.375-7.535157 7.535157 0 4.160156 3.371094 7.535156 7.535157 7.535156zm0 0"/><path d="m390.707031 237.328125c4.160157 0 7.535157-3.375 7.535157-7.535156 0-4.164063-3.375-7.535157-7.535157-7.535157h-14.007812c-4.164063 0-7.539063 3.375-7.539063 7.535157 0 4.160156 3.375 7.535156 7.539063 7.535156zm0 0"/><path d="m315.253906 229.792969c0-32.671875-26.582031-59.253907-59.253906-59.253907s-59.253906 26.582032-59.253906 59.253907 26.582031 59.253906 59.253906 59.253906 59.253906-26.582031 59.253906-59.253906zm-103.4375 0c0-24.359375 19.820313-44.179688 44.183594-44.179688s44.183594 19.820313 44.183594 44.179688c0 24.363281-19.820313 44.183593-44.183594 44.183593s-44.183594-19.820312-44.183594-44.183593zm0 0"/><path d="m511.90625 104.414062c-1.253906-9.390624-3.589844-18.242187-6.9375-26.316406-10.902344-26.289062-36.691406-43.273437-65.699219-43.273437h-19.082031v-25.007813c0-3.6875-2.035156-7.027344-5.3125-8.71875s-7.183594-1.414062-10.1875.726563l-30.753906 21.882812c-3.390625 2.410157-4.183594 7.117188-1.773438 10.507813 2.414063 3.390625 7.117188 4.183594 10.511719 1.773437l22.441406-15.972656v20.070313c0 5.410156 4.402344 9.8125 9.8125 9.8125h24.34375c22.894531 0 43.21875 13.335937 51.777344 33.972656.886719 2.132812 1.6875 4.335937 2.40625 6.605468-14.902344-10.78125-33.972656-10.835937-51.265625-10.882812-2.527344-.007812-5.039062-.015625-7.511719-.054688-3.746093-.058593-7.425781.160157-10.984375.378907-3.046875.1875-5.921875.363281-8.761718.363281-5.414063 0-9.816407 4.402344-9.816407 9.8125v24.289062l-66.308593-47.183593 15.695312-11.167969c3.390625-2.410156 4.183594-7.117188 1.773438-10.507812-2.414063-3.390626-7.117188-4.183594-10.511719-1.769532l-21.71875 15.453125c-2.582031 1.835938-4.125 4.824219-4.125 7.992188 0 3.171875 1.542969 6.160156 4.125 7.996093l40.160156 28.574219h-314.082031c-10.542969 0-19.117188 8.578125-19.117188 19.117188v213.8125c0 10.542969 8.574219 19.117187 19.117188 19.117187h41.691406v8.5625c-1.492188.070313-2.96875.160156-4.421875.25-3.417969.207032-6.644531.402344-9.8125.351563-2.542969-.042969-5.125-.050781-7.722656-.054688-20.441407-.058593-39.75-.113281-50.734375-16.816406-2.695313-4.097656-7.78125-5.765625-12.367188-4.050781-4.566406 1.707031-7.304687 6.277344-6.660156 11.117187 1.253906 9.390625 3.589844 18.242188 6.9375 26.316407 10.902344 26.285156 36.691406 43.269531 65.699219 43.269531h19.082031v25.007812c0 3.6875 2.035156 7.03125 5.3125 8.71875 1.425781.734375 2.96875 1.097657 4.503906 1.097657 1.996094 0 3.984375-.613282 5.683594-1.820313l80.644531-57.382813c2.582031-1.839843 4.121094-4.828124 4.121094-7.996093s-1.539063-6.15625-4.121094-7.992188l-40.164062-28.578125h314.085937c10.539063 0 19.117188-8.578125 19.117188-19.117187v-213.8125c0-10.542969-8.578125-19.117188-19.117188-19.117188h-41.691406v-8.558593c1.496094-.070313 2.972656-.160157 4.425781-.25 3.417969-.207032 6.640625-.40625 9.8125-.351563 2.542969.039063 5.121094.046875 7.722657.054687 20.4375.058594 39.746093.113282 50.734374 16.816407 2.691407 4.097656 7.777344 5.761719 12.363282 4.050781 4.566406-1.707031 7.308594-6.277344 6.660156-11.117188zm-338.710938 287.972657-66.308593 47.183593v-20.066406c0-5.410156-4.402344-9.8125-9.8125-9.8125h-24.34375c-22.894531 0-43.21875-13.335937-51.777344-33.972656-.886719-2.136719-1.6875-4.339844-2.40625-6.605469 14.902344 10.78125 33.972656 10.832031 51.265625 10.878907 2.527344.007812 5.039062.015624 7.511719.058593 3.753906.058594 7.429687-.164062 10.984375-.382812 3.046875-.183594 5.925781-.359375 8.765625-.359375 5.410156 0 9.8125-4.402344 9.8125-9.8125v-24.292969zm288.683594-273.546875c2.226563 0 4.042969 1.816406 4.042969 4.046875v213.8125c0 2.230469-1.8125 4.042969-4.042969 4.042969h-335.269531l-19.296875-13.730469c-3.007812-2.140625-6.910156-2.417969-10.1875-.726563s-5.3125 5.03125-5.3125 8.71875v5.738282h-41.691406c-2.230469 0-4.046875-1.8125-4.046875-4.042969v-213.8125c0-2.230469 1.816406-4.046875 4.046875-4.046875h335.265625l19.300781 13.738281c1.699219 1.207031 3.6875 1.820313 5.683594 1.820313 1.535156 0 3.078125-.363282 4.503906-1.097657 3.277344-1.691406 5.3125-5.03125 5.3125-8.71875v-5.738281h41.691406zm0 0"/></svg>