<svg height="512pt" viewBox="0 0 512 512" width="512pt" xmlns="http://www.w3.org/2000/svg"><path d="m318.558594 317.574219c-100.578125 0-182.441406 85.128906-185.300782 185.015625h370.605469c-2.859375-99.886719-84.726562-185.015625-185.304687-185.015625zm-64.972656 134.902343c1.003906-35.023437 29.707031-63.105468 64.972656-63.105468s63.96875 28.082031 64.972656 63.105468zm0 0" fill="#ffcf3b"/><path d="m7.546875 7.722656v496.730469l430.179687-496.90625zm114.941406 96.605469 116.984375-.046875-116.984375 135.128906zm0 0" fill="#ffe999"/><path d="m223.40625 452.476562h30.179688c.855468-29.859374 21.855468-54.664062 49.882812-61.328124-4.84375-1.15625-9.894531-1.777344-15.089844-1.777344-35.265625 0-63.96875 28.082031-64.972656 63.105468zm0 0" fill="#ffbc19"/><path d="m318.558594 317.574219c-5.082032 0-10.113282.230469-15.089844.652343 93.554688 8 167.496094 89.523438 170.210938 184.363282h30.183593c-2.859375-99.886719-84.726562-185.015625-185.304687-185.015625zm0 0" fill="#ffbc19"/><path d="m407.535156 7.558594-399.988281 462.035156v34.859375l430.179687-496.90625zm0 0" fill="#ffcf3b"/><g fill="#fefefe"><path d="m77.863281 328.648438c0 11.742187-9.519531 21.265624-21.265625 21.265624s-21.265625-9.523437-21.265625-21.265624c0-11.746094 9.519531-21.265626 21.265625-21.265626s21.265625 9.519532 21.265625 21.265626zm0 0"/><path d="m77.863281 243.882812c0 11.742188-9.519531 21.265626-21.265625 21.265626s-21.265625-9.523438-21.265625-21.265626c0-11.746093 9.519531-21.269531 21.265625-21.269531s21.265625 9.523438 21.265625 21.269531zm0 0"/><path d="m77.863281 159.113281c0 11.746094-9.519531 21.269531-21.265625 21.269531s-21.265625-9.523437-21.265625-21.269531c0-11.742187 9.519531-21.265625 21.265625-21.265625s21.265625 9.523438 21.265625 21.265625zm0 0"/><path d="m77.863281 74.351562c0 11.742188-9.519531 21.265626-21.265625 21.265626s-21.265625-9.523438-21.265625-21.265626c0-11.746093 9.519531-21.265624 21.265625-21.265624s21.265625 9.519531 21.265625 21.265624zm0 0"/></g><path d="m453.21875 367.320312c-36.535156-36.945312-84.359375-57.289062-134.660156-57.289062-50.300782 0-98.125 20.34375-134.660156 57.289062-36.070313 36.472657-56.738282 84.433594-58.183594 135.050782-.058594 2.039062.707031 4.011718 2.128906 5.476562 1.421875 1.460938 3.375 2.285156 5.410156 2.285156h121.785156c4.167969 0 7.546876-3.378906 7.546876-7.542968 0-4.167969-3.378907-7.546875-7.546876-7.546875h-113.855468c1.679687-23.605469 7.894531-46.464844 18.175781-67.511719l22.53125 12c1.128906.601562 2.339844.886719 3.539063.886719 2.699218 0 5.308593-1.453125 6.667968-4 1.957032-3.679688.5625-8.246094-3.113281-10.207031l-22.453125-11.957032c7.75-13.054687 17.15625-25.261718 28.097656-36.324218 8.386719-8.476563 17.414063-16.007813 26.957032-22.535157l13.089843 21.796875c1.414063 2.359375 3.914063 3.664063 6.476563 3.664063 1.320312 0 2.660156-.347657 3.875-1.078125 3.574218-2.144532 4.730468-6.78125 2.585937-10.351563l-13.214843-22.011719c23.523437-13.3125 49.605468-20.917968 76.617187-22.113281v24.613281c0 4.164063 3.375 7.542969 7.542969 7.542969 4.167968 0 7.546875-3.378906 7.546875-7.542969v-24.613281c27.007812 1.195313 53.09375 8.800781 76.613281 22.113281l-13.214844 22.011719c-2.144531 3.570313-.988281 8.207031 2.585938 10.351563 1.214844.730468 2.554687 1.078125 3.878906 1.078125 2.5625 0 5.058594-1.304688 6.472656-3.664063l13.089844-21.796875c9.542969 6.527344 18.570312 14.058594 26.957031 22.535157 10.941407 11.066406 20.347657 23.269531 28.101563 36.324218l-22.453125 11.957032c-3.679688 1.960937-5.074219 6.527343-3.113281 10.207031 1.355468 2.546875 3.964843 4 6.664062 4 1.195312 0 2.414062-.285157 3.542969-.886719l22.527343-12c10.28125 21.046875 16.5 43.90625 18.175782 67.511719h-210.710938c-4.167968 0-7.546875 3.378906-7.546875 7.546875 0 4.164062 3.378907 7.542968 7.546875 7.542968h218.640625c2.039063 0 3.992188-.824218 5.410157-2.285156 1.421874-1.464844 2.191406-3.4375 2.132812-5.476562-1.449219-50.617188-22.113281-98.578125-58.1875-135.050782zm0 0"/><path d="m388.941406 457.734375c1.421875-1.460937 2.191406-3.433594 2.132813-5.472656-.542969-18.933594-8.324219-36.648438-21.917969-49.878907-13.617188-13.257812-31.585938-20.558593-50.597656-20.558593-19.007813 0-36.980469 7.300781-50.597656 20.558593-13.589844 13.230469-21.375 30.945313-21.917969 49.878907-.058594 2.039062.710937 4.011719 2.132812 5.472656 1.417969 1.464844 3.371094 2.289063 5.410157 2.289063h129.945312c2.039062 0 3.992188-.824219 5.410156-2.289063zm-127.066406-12.804687c1.980469-12.023438 7.730469-23.085938 16.613281-31.734376 10.785157-10.496093 25.015625-16.28125 40.070313-16.28125 15.058594 0 29.285156 5.785157 40.074218 16.28125 8.878907 8.648438 14.632813 19.710938 16.613282 31.734376zm0 0"/><path d="m119.851562 246.480469c.859376.320312 1.753907.476562 2.632813.476562 2.148437 0 4.246094-.917969 5.707031-2.605469l116.988282-135.132812c1.933593-2.234375 2.386718-5.390625 1.15625-8.078125-1.226563-2.683594-3.910157-4.40625-6.863282-4.40625h-.003906l-116.984375.046875c-4.164063.003906-7.542969 3.378906-7.542969 7.546875v135.082031c0 3.152344 1.957032 5.972656 4.910156 7.070313zm10.183594-27.3125v-107.296875l92.921875-.039063zm0 0"/><path d="m56.597656 299.835938c-15.886718 0-28.808594 12.925781-28.808594 28.8125 0 15.886718 12.921876 28.808593 28.808594 28.808593 15.886719 0 28.8125-12.921875 28.8125-28.808593 0-15.886719-12.925781-28.8125-28.8125-28.8125zm0 42.53125c-7.566406 0-13.71875-6.15625-13.71875-13.722657 0-7.5625 6.152344-13.71875 13.71875-13.71875s13.71875 6.15625 13.71875 13.71875c0 7.566407-6.152344 13.722657-13.71875 13.722657zm0 0"/><path d="m56.597656 215.070312c-15.886718 0-28.808594 12.925782-28.808594 28.8125 0 15.886719 12.921876 28.808594 28.808594 28.808594 15.886719 0 28.8125-12.921875 28.8125-28.808594 0-15.886718-12.925781-28.8125-28.8125-28.8125zm0 42.53125c-7.566406 0-13.71875-6.15625-13.71875-13.71875 0-7.566406 6.152344-13.722656 13.71875-13.722656s13.71875 6.15625 13.71875 13.722656c0 7.5625-6.152344 13.71875-13.71875 13.71875zm0 0"/><path d="m56.597656 130.304688c-15.886718 0-28.808594 12.925781-28.808594 28.8125 0 15.886718 12.921876 28.808593 28.808594 28.808593 15.886719 0 28.8125-12.925781 28.8125-28.808593-.003906-15.886719-12.925781-28.8125-28.8125-28.8125zm0 42.53125c-7.566406 0-13.71875-6.15625-13.71875-13.71875 0-7.566407 6.152344-13.722657 13.71875-13.722657s13.71875 6.15625 13.71875 13.722657c0 7.5625-6.152344 13.71875-13.71875 13.71875zm0 0"/><path d="m56.597656 45.539062c-15.886718 0-28.808594 12.925782-28.808594 28.8125 0 15.886719 12.921876 28.808594 28.808594 28.808594 15.886719 0 28.8125-12.921875 28.8125-28.808594 0-15.886718-12.925781-28.8125-28.8125-28.8125zm0 42.53125c-7.566406 0-13.71875-6.15625-13.71875-13.71875 0-7.566406 6.152344-13.722656 13.71875-13.722656s13.71875 6.15625 13.71875 13.722656c0 7.5625-6.152344 13.71875-13.71875 13.71875zm0 0"/><path d="m443.433594 12.484375c1.933594-2.234375 2.386718-5.390625 1.15625-8.074219-1.226563-2.6875-3.90625-4.410156-6.859375-4.410156-.003907 0-.003907 0-.003907 0l-304.472656.125c-4.167968 0-7.542968 3.382812-7.542968 7.546875.003906 4.167969 3.378906 7.542969 7.546874 7.542969l287.953126-.117188-43.109376 49.796875-17.144531-17.144531c-2.949219-2.949219-7.726562-2.949219-10.671875 0-2.945312 2.945312-2.945312 7.722656 0 10.667969l17.914063 17.914062-19.003907 21.949219-19.386718-19.386719c-2.945313-2.945312-7.722656-2.945312-10.667969 0-2.949219 2.945313-2.949219 7.722657 0 10.671875l20.152344 20.152344-18.128907 20.941406-18.714843-18.710937c-2.945313-2.949219-7.722657-2.949219-10.671875 0-2.945313 2.945312-2.945313 7.722656 0 10.667969l19.484375 19.484374-18.355469 21.199219-20.902344-20.90625c-2.949218-2.945312-7.726562-2.945312-10.671875 0-2.949219 2.945313-2.949219 7.722657 0 10.671875l21.671875 21.671875-16.007812 18.492188-18.1875-18.1875c-2.949219-2.945313-7.726563-2.945313-10.671875 0-2.949219 2.949219-2.949219 7.726562 0 10.671875l18.957031 18.957031-23.496094 27.136719-17.007812-17.011719c-2.949219-2.945313-7.726563-2.945313-10.671875 0-2.945313 2.949219-2.945313 7.726563 0 10.671875l17.777343 17.777344-22.96875 26.53125-19.558593-19.558594c-2.949219-2.945312-7.722657-2.945312-10.671875 0-2.945313 2.945312-2.945313 7.726562 0 10.671875l20.328125 20.328125-25.1875 29.09375-18.511719-18.515625c-2.949219-2.945313-7.726562-2.945313-10.671875 0-2.945313 2.949219-2.945313 7.726563 0 10.671875l19.28125 19.28125-22.066406 25.492188-17.226563-17.222657c-2.949218-2.949219-7.722656-2.949219-10.671875 0-2.945312 2.945313-2.945312 7.722657 0 10.667969l17.992188 17.992188-23.746094 27.433593-17.328125-17.328125c-2.949219-2.949218-7.722656-2.949218-10.671875 0-2.945313 2.945313-2.945313 7.722656 0 10.667969l18.097656 18.097656-75.019531 86.65625v-468.945312l87.988281-.046875c4.167969 0 7.542969-3.382813 7.542969-7.546875-.003906-4.167969-3.382812-7.542969-7.546875-7.542969h-.003906l-95.53125.050781c-4.167969.003907-7.542969 3.378907-7.542969 7.546875v496.730469c0 3.152344 1.957031 5.972656 4.910156 7.070313.859375.320312 1.75.476562 2.632813.476562 2.148437 0 4.246093-.917969 5.707031-2.605469zm0 0"/></svg>